<?xml version="1.0" encoding="UTF-8" standalone="no"?>
<svg xmlns="http://www.w3.org/2000/svg" width="14.69366" height="23.71317">
  <path d="m 4.36616,5.5 c -1.37584,0.0727 -2.88449,1.93767 -4.36616,0.36327 0.87316,2.15574 2.43449,1.11456 2.56678,1.45367 1.56104,2.61594 3.889669,0.48443 3.360529,-0.75086 -0.50271,-0.82354 -1.005549,-1.09032 -1.561149,-1.06608 z"/>
  <path d="m 7.01616,0 c 1.85209,2.32529 -3.333749,3.24556 -0.52917,5.42552 1.19063,0.75089 3.99492,-0.87154 1.53427,-2.85771 -0.3175,-0.16955 1.11157,-1.3325 -1.0051,-2.56781 z"/>
  <path d="m 10.11616,5.5 c -0.47628,0.0484 -0.92541,0.33943 -1.34874,1.06608 -0.52917,1.23529 1.79885,3.3668 3.38635,0.75086 0.10583,-0.31488 1.66677,0.70208 2.53989,-1.45367 -1.48167,1.55019 -2.98976,-0.29062 -4.36562,-0.36327 z"/>
  <path d="m 7.46616,7 c -1.21708,5.52254 -3.465639,9.42207 -5.926269,12.23179 1.0319,-0.29064 2.16919,-1.06542 3.28044,-1.76784 -0.68789,1.4533 -1.37562,2.68862 -2.03708,3.97238 0.39687,-0.14534 1.69336,-1.42939 3.439579,-3.31867 0.26458,2.59172 0.635,3.82733 1.19063,5.59551 0.44976,-1.76818 0.76763,-2.95542 1.11156,-5.6198 1.05834,1.18687 2.06301,2.39797 3.49176,3.41529 l -1.98384,-4.11707 c 1.03187,0.65399 2.16969,1.52545 3.28094,1.88878 -2.59292,-2.95505 -4.78939,-6.75783 -5.84772,-12.28037 z"/>
</svg>
