<?xml version="1.0" encoding="UTF-8" standalone="no"?>
<svg xmlns="http://www.w3.org/2000/svg">
  <path class="outline dark" d="m -0.1865 -4.9798 c 0 0 -9.598 -3.9862 -12.2519 -7.662 c -0.7256 -1.005 -1.0216 -3.5756 -1.0216 -3.5756 l 13.2735 0.7662 l 13.2735 -0.7662 c 0 0 -0.296 2.5706 -1.0216 3.5756 c -2.6539 3.6758 -12.2519 7.662 -12.2519 7.662 z"/>
  <path class="outline dark" d="m -5.0281 18.4995 c -2.5164 0.2713 -5.175 1.8232 -6.9861 -4.2524 c -3.2687 1.0891 -5.9254 0.5463 -6.9861 -4.2524 c 0 0 7.1906 -16.9949 12.7705 -24.2158 c 1.6685 -2.1591 3.3148 -3.3993 6.0434 -3.3993 c 2.7286 0 4.375 1.2402 6.0434 3.3993 c 5.5799 7.2209 12.7705 24.2158 12.7705 24.2158 c -1.0607 4.7987 -3.7174 5.3415 -6.9861 4.2524 c -1.8111 6.0756 -4.4698 4.5238 -6.9861 4.2524 c -3.956 5.5417 -6.3174 3.5934 -9.6833 0 z"/>
  <path class="light" d="m -16.7959 9.9724 c 0.7548 2.6392 1.7691 3.1862 3.9558 1.6369 l 9.6849 -26.5993 c -4.5469 4.7541 -9.0938 15.8076 -13.6407 24.9624 z"/>
  <path class="light" d="m -10.2191 14.0362 c 1.2761 2.4304 2.4856 3.4956 4.3113 1.5337 l 4.4907 -31.483 l -8.802 29.9493 z"/>
  <path class="light" d="m -3.1624 17.5828 c 1.7746 2.5535 4.7115 2.9676 6.0662 0.1482 l -2.9676 -34.3125 l -3.0986 34.1643 z"/>
  <path class="light" d="m 9.9285 14.0495 c -1.276 2.4304 -2.4855 3.4956 -4.3112 1.5337 l -4.4907 -31.483 l 8.802 29.9493 z"/>
  <path class="light" d="m 16.5054 9.9857 c -0.7548 2.6392 -1.7691 3.1862 -3.9558 1.6369 l -9.6849 -26.5993 c 4.5469 4.7541 9.0938 15.8076 13.6407 24.9624 z"/>
</svg>
