<?xml version="1.0" encoding="UTF-8" standalone="no"?>
<svg xmlns="http://www.w3.org/2000/svg" version="1.1" width="409.64868" height="478.31934">
  <g transform="scale(0.45) translate(-91,-44)">
    <path class="outline dark" d="m 90.5856,32.93386 c 0,0 -21.3289,-8.85831 -27.2264,-17.02669 -1.6125,-2.23331 -2.2703,-7.94576 -2.2703,-7.94576 l 29.4967,1.70265 29.4967,-1.70265 c 0,0 -0.6578,5.71245 -2.2702,7.94576 -5.8976,8.16838 -27.2265,17.02669 -27.2265,17.02669 z"/>
    <path class="outline dark" d="m 79.8264,85.10994 c -5.5919,0.60298 -11.5,4.05154 -15.5247,-9.4498 -7.2637,2.42026 -13.1675,1.21401 -15.5247,-9.44981 0,0 15.9791,-37.76645 28.3788,-53.81285 3.7077,-4.798 7.3662,-7.55389 13.4298,-7.55389 6.0636,0 9.7222,2.75592 13.4298,7.55392 12.3998,16.0464 28.3788,53.8128 28.3788,53.8128 -2.3572,10.66381 -8.2609,11.87007 -15.5247,9.4498 -4.0247,13.50135 -9.9328,10.05278 -15.5246,9.44981 -8.7911,12.31495 -14.0386,7.98538 -21.5185,2e-5 z"/>
    <path class="light" d="m 53.6758,66.1609 c 1.6774,5.8649 3.9314,7.08051 8.7907,3.63751 l 21.5219,-59.10962 c -10.1042,10.56462 -20.2084,35.1279 -30.3126,55.47211 z"/>
    <path class="light" d="m 83.9725,83.07289 c 3.9435,5.67454 10.4699,6.59459 13.4804,0.32938 l -6.5946,-76.25004 -6.8858,75.92066 z"/>
    <path class="light" d="m 127.6786,66.19043 c -1.6773,5.8649 -3.9313,7.08051 -8.7906,3.63751 l -21.522,-59.10962 c 10.1042,10.56462 20.2084,35.1279 30.3126,55.47211 z"/>
    <path class="light" d="m 68.291,75.19161 c 2.8357,5.4009 5.5235,7.76795 9.5806,3.40827 l 9.9793,-69.96219 -19.5599,66.55392 z"/>
    <path class="light" d="m 113.0634,75.22118 c -2.8356,5.4009 -5.5234,7.76795 -9.5805,3.40827 l -9.9794,-69.96219 19.5599,66.55392 z"/>
  </g>
</svg>
