<?xml version="1.0" encoding="UTF-8" standalone="no"?>
<svg xmlns="http://www.w3.org/2000/svg" version="1.1" width="40" height="50">
  <path class="main" d="m -4.1843 7.5359 c 0.1787 -1.6803 0.0836 -4.8494 -0.8004 -6.2895 c -0.2987 -0.4866 -1.0305 -1.0533 -1.601 -1.0292 c -0.5622 0.0237 -1.3357 0.1899 -1.601 0.6861 c -0.2431 0.4548 -0.4009 1.4315 -0.3431 1.944 c 0.0804 0.7118 0.9148 2.1727 0.9148 2.1727 c 0 0 -2.9903 -0.6001 -4.0024 -1.3722 c -1.0014 -0.764 -2.0822 -2.2122 -2.4014 -3.4306 c -0.1095 -0.418 -0.537 -1.7699 0.0028 -3.3916 c 0.3134 -0.9413 1.2559 -2.2009 1.9853 -2.8288 c 1.9047 -1.6394 5.6034 -1.1628 6.3597 -0.7553 c 1.0003 0.5389 2.2194 1.6851 2.6301 2.7445 c 0.3188 0.8224 0.9816 3.2497 1.1435 4.1167 c 0.3305 1.7694 0.4265 2.4369 0.5718 4.2311 c 0.0997 1.2315 0.3745 2.3372 0.1143 3.545 c -0.1402 0.6507 -0.3153 2.1441 -0.6955 3.1275 c -0.3823 0.9887 -0.9707 1.4667 -1.4772 1.9041 c -1.0348 0.8935 -4.3455 1.3722 -4.3455 1.3722 c 0 0 1.819 -2.2946 2.2871 -3.3163 c 0.5558 -1.2132 1.1167 -2.1037 1.2579 -3.4306 z"/>
  <path class="main" d="m 3.9243 7.5359 c -0.1787 -1.6803 -0.0836 -4.8494 0.8004 -6.2895 c 0.2987 -0.4866 1.0305 -1.0533 1.601 -1.0292 c 0.5622 0.0237 1.3357 0.1899 1.601 0.6861 c 0.2431 0.4548 0.4009 1.4315 0.3431 1.944 c -0.0804 0.7118 -0.9148 2.1727 -0.9148 2.1727 c 0 0 2.9903 -0.6001 4.0024 -1.3722 c 1.0014 -0.764 2.0822 -2.2122 2.4014 -3.4306 c 0.1095 -0.418 0.537 -1.7699 -0.0028 -3.3916 c -0.3134 -0.9413 -1.2559 -2.2009 -1.9853 -2.8288 c -1.9047 -1.6394 -5.6034 -1.1628 -6.3597 -0.7553 c -1.0003 0.5389 -2.2194 1.6851 -2.6301 2.7445 c -0.3188 0.8224 -0.9816 3.2497 -1.1435 4.1167 c -0.3305 1.7694 -0.4265 2.4369 -0.5718 4.2311 c -0.0997 1.2315 -0.3745 2.3372 -0.1143 3.545 c 0.1402 0.6507 0.3153 2.1441 0.6955 3.1275 c 0.3823 0.9887 0.9707 1.4667 1.4772 1.9041 c 1.0348 0.8935 4.3455 1.3722 4.3455 1.3722 c 0 0 -1.819 -2.2946 -2.2871 -3.3163 c -0.5558 -1.2132 -1.1167 -2.1037 -1.2579 -3.4306 z"/>
  <path class="lowlight" d="m 6.9997 14.0947 l -0.8722 -0.0139 l -2.7936 -0.878 l -3.3523 -2.9532 l -2.4743 2.3546 l -1.6762 0.7982 l -1.9156 0.6385 l -1.2716 0.0865 c 0 0 2.2518 -1.5157 3.0289 -2.3681 c 0.5558 -0.6096 1.1225 -1.5729 1.4869 -2.313 c 0.6279 -1.2752 1.5971 -4.4608 1.6308 -4.4827 l 0.7138 -0.1071 l 1.3768 0.1101 c 0 0 0.9691 3.1856 1.5971 4.4608 c 0.3644 0.7401 0.9311 1.7034 1.4869 2.313 c 0.7771 0.8523 3.0347 2.3542 3.0347 2.3542 z"/>
  <path class="lowlight" d="m 7.4471 4.9421 c 0 0 1.7007 -0.7173 2.2073 -1.294 c 0.5403 -0.6149 0.9025 -1.7097 1.0656 -2.5118 c 0.1229 -0.6042 -0.1769 -1.8863 -0.4567 -2.4357 c -0.4228 -0.8303 -0.9407 -1.3103 -1.8268 -1.5984 c -0.608 -0.1977 -1.532 -0.2229 -2.1312 0 c -0.6221 0.2315 -1.4927 0.7721 -1.9029 1.294 c -0.6185 0.7869 -0.9829 1.6912 -1.2178 2.664 c -0.1447 0.5993 -0.4695 2.4282 -0.4567 3.0446 c 0.0114 0.5484 0.0761 2.2834 0.0761 2.2834 l 1.1417 1.9029 l 0.0284 -0.0867 l -0.0853 -3.1556 l 0 -1.3219 l 0.597 -2.0469 l 0.9808 -1.3219 l 1.1514 -0.1706 l 1.1087 0.5544 l 0.4691 1.194 l -0.0853 1.4499 l -0.6635 1.5562 z"/>
  <path class="lowlight" d="m -7.7028 4.9385 c 0 0 -1.7007 -0.7173 -2.2073 -1.294 c -0.5403 -0.6149 -0.9025 -1.7097 -1.0656 -2.5118 c -0.1229 -0.6042 0.1769 -1.8863 0.4567 -2.4357 c 0.4228 -0.8303 0.9407 -1.3103 1.8268 -1.5984 c 0.608 -0.1977 1.532 -0.2229 2.1312 0 c 0.6221 0.2315 1.4927 0.7721 1.9029 1.294 c 0.6185 0.7869 0.9829 1.6912 1.2178 2.664 c 0.1447 0.5993 0.4695 2.4282 0.4567 3.0446 c -0.0114 0.5484 -0.0761 2.2834 -0.0761 2.2834 l -1.1417 1.9029 l -0.0284 -0.0867 l 0.0853 -3.1556 l 0 -1.3219 l -0.597 -2.0469 l -0.9808 -1.3219 l -1.1514 -0.1706 l -1.1087 0.5544 l -0.4691 1.194 l 0.0853 1.4499 l 0.6635 1.5562 z"/>
  <path class="outline" d="m -4.1843 7.5359 c 0.1787 -1.6803 0.0836 -4.8494 -0.8004 -6.2895 c -0.2987 -0.4866 -1.0305 -1.0533 -1.601 -1.0292 c -0.5622 0.0237 -1.3357 0.1899 -1.601 0.6861 c -0.2431 0.4548 -0.4009 1.4315 -0.3431 1.944 c 0.0804 0.7118 0.9148 2.1727 0.9148 2.1727 c 0 0 -2.9903 -0.6001 -4.0024 -1.3722 c -1.0014 -0.764 -2.0822 -2.2122 -2.4014 -3.4306 c -0.1095 -0.418 -0.537 -1.7699 0.0028 -3.3916 c 0.3134 -0.9413 1.2559 -2.2009 1.9853 -2.8288 c 1.9047 -1.6394 5.6034 -1.1628 6.3597 -0.7553 c 1.0003 0.5389 2.2194 1.6851 2.6301 2.7445 c 0.3188 0.8224 0.9816 3.2497 1.1435 4.1167 c 0.3305 1.7694 0.4265 2.4369 0.5718 4.2311 c 0.0997 1.2315 0.3745 2.3372 0.1143 3.545 c -0.1402 0.6507 -0.3153 2.1441 -0.6955 3.1275 c -0.3823 0.9887 -0.9707 1.4667 -1.4772 1.9041 c -1.0348 0.8935 -4.3455 1.3722 -4.3455 1.3722 c 0 0 1.819 -2.2946 2.2871 -3.3163 c 0.5558 -1.2132 1.1167 -2.1037 1.2579 -3.4306 z"/>
  <path class="outline" d="m 3.9243 7.5359 c -0.1787 -1.6803 -0.0836 -4.8494 0.8004 -6.2895 c 0.2987 -0.4866 1.0305 -1.0533 1.601 -1.0292 c 0.5622 0.0237 1.3357 0.1899 1.601 0.6861 c 0.2431 0.4548 0.4009 1.4315 0.3431 1.944 c -0.0804 0.7118 -0.9148 2.1727 -0.9148 2.1727 c 0 0 2.9903 -0.6001 4.0024 -1.3722 c 1.0014 -0.764 2.0822 -2.2122 2.4014 -3.4306 c 0.1095 -0.418 0.537 -1.7699 -0.0028 -3.3916 c -0.3134 -0.9413 -1.2559 -2.2009 -1.9853 -2.8288 c -1.9047 -1.6394 -5.6034 -1.1628 -6.3597 -0.7553 c -1.0003 0.5389 -2.2194 1.6851 -2.6301 2.7445 c -0.3188 0.8224 -0.9816 3.2497 -1.1435 4.1167 c -0.3305 1.7694 -0.4265 2.4369 -0.5718 4.2311 c -0.0997 1.2315 -0.3745 2.3372 -0.1143 3.545 c 0.1402 0.6507 0.3153 2.1441 0.6955 3.1275 c 0.3823 0.9887 0.9707 1.4667 1.4772 1.9041 c 1.0348 0.8935 4.3455 1.3722 4.3455 1.3722 c 0 0 -1.819 -2.2946 -2.2871 -3.3163 c -0.5558 -1.2132 -1.1167 -2.1037 -1.2579 -3.4306 z"/>
  <path class="highlight" d="m -12.2842 0.5927 c 0 0 0.148 -1.172 0.2788 -1.7428 c 0.1609 -0.702 0.5151 -1.674 1.0457 -2.161 c 0.5608 -0.5148 1.4104 -0.9191 2.161 -1.0457 c 0.6602 -0.1113 1.5816 -0.0943 2.2307 0.0697 c 0.4987 0.126 1.0946 0.4987 1.5336 0.7668 c 0.332 0.2027 1.0457 0.7668 1.0457 0.7668 c 0 0 -1.2971 -2.0571 -2.161 -2.5793 c -0.8425 -0.5093 -2.2225 -0.7228 -3.2067 -0.6971 c -0.7151 0.0187 -1.4957 0.3707 -2.0913 0.7668 c -0.7071 0.4703 -1.4663 1.4278 -1.7428 2.2307 c -0.1974 0.5734 -0.1732 1.4404 0 2.0216 c 0.1855 0.6226 0.9062 1.6033 0.9062 1.6033 z"/>
  <path class="highlight" d="m 5.8405 -4.4265 c 0 0 1.7712 -0.2922 2.5096 -0.1394 c 0.9159 0.1895 2.1194 0.7406 2.7884 1.3942 c 0.5755 0.5622 1.2548 2.3702 1.2548 2.3702 c 0 0 0.0563 -1.8973 -0.2091 -2.649 c -0.1603 -0.454 -0.5394 -1.0127 -0.9062 -1.3245 c -0.5631 -0.4787 -1.4917 -1.0352 -2.2307 -1.0457 c -0.3881 -0.0055 -1.2765 -0.0252 -1.8027 0.2157 c -0.8961 0.4101 -1.404 1.1785 -1.404 1.1785 z"/>
  <path class="main" d="m -0.1509 20.0167 c 0 0 2.6717 -2.1913 3.1136 -4.6704 c 0.3975 -2.2301 -1.3732 -4.8421 -1.5074 -5.8925 c -0.5367 -4.201 0.6007 -9.7975 0.7032 -10.255 c 0.4072 -1.8171 0.9198 -2.5946 1.1926 -3.1896 c 0.1964 -0.4283 0.7577 -1.2801 1.3189 -2.1058 c 0.3221 -0.4738 1.0392 -1.356 1.4046 -2.2533 c 0.3873 -0.951 0.4138 -1.919 0.4194 -2.4358 c 0.0096 -0.8801 -0.1566 -1.6287 -0.3902 -2.3452 c -0.222 -0.6811 -0.9455 -1.7959 -1.9939 -2.4366 c -1.1303 -0.6907 -2.044 -1.246 -2.3917 -1.4659 C 0.5697 -17.7599 -0.1373 -20.1491 -0.1509 -20.1491 c -0.0135 0 -0.7205 2.3891 -1.8691 3.1156 c -0.3477 0.2199 -1.2198 0.7752 -2.35 1.4659 c -1.0484 0.6407 -1.7719 1.7554 -1.9939 2.4366 c -0.2336 0.7166 -0.3998 1.4652 -0.3902 2.3452 c 0.0056 0.5168 0.0322 1.4848 0.4194 2.4358 c 0.3654 0.8973 1.0826 1.7795 1.4046 2.2533 c 0.5612 0.8257 1.1224 1.6775 1.3189 2.1058 c 0.2729 0.595 0.7854 1.3725 1.1926 3.1896 c 0.1025 0.4574 1.2399 6.054 0.7032 10.255 C -1.8496 10.5041 -3.662 13.1162 -3.2645 15.3463 c 0.4419 2.4791 3.1136 4.6704 3.1136 4.6704 z"/>
  <path class="main" d="M -0.1509 20.0167 L -0.1542 -19.8238"/>
  <path class="lowlight" d="m -0.0697 19.9356 l 2.1783 -2.4297 l 0.8378 -1.5919 l -0.1676 -2.1783 l -0.5865 -2.2621 l -0.9216 -2.0108 l 0 -3.2675 l 0.3351 -3.2675 l 0.4189 -3.6026 l 0.9216 -2.8486 l 1.5081 -2.0946 l 1.2567 -2.1783 l 0.5027 -1.1729 l 0.2513 -2.0946 l -0.3351 -2.0108 l -1.0608 -1.6998 l -2.0392 -1.4001 c 0 0 1.2081 1.3582 2.0007 2.6356 c 0.4255 0.6858 0.4202 1.5273 0.429 1.721 c 0.0376 0.8286 -0.0255 1.2127 -0.2513 2.0108 c -0.209 0.7383 -0.6519 1.5478 -1.0892 2.1783 c -0.4899 0.7065 -1.366 1.4977 -1.7594 2.2621 c -0.564 1.096 -0.9446 2.7265 -1.1729 3.9378 c -0.2803 1.4871 -0.3189 3.5169 -0.4189 5.0269 c -0.1015 1.5317 -0.3728 3.5805 -0.2513 5.1107 c 0.0772 0.973 0.4981 2.3373 0.6703 3.1837 c 0.119 0.5855 0.4267 1.3344 0.5027 1.927 c 0.0736 0.5734 0.0787 1.3543 0 1.927 c -0.0888 0.6465 -0.3373 1.4915 -0.5865 2.0946 c -0.275 0.6656 -1.173 2.0946 -1.173 2.0946 z"/>
  <path class="lowlight" d="m -3.0021 16.2492 c 0 0 0.0511 -1.3003 0.1676 -1.8432 c 0.1617 -0.7539 0.5666 -1.7079 0.8378 -2.4297 c 0.2578 -0.686 0.7695 -1.5453 0.9216 -2.2621 c 0.334 -1.5744 0.2613 -3.7554 0.1676 -5.3621 c -0.0696 -1.1923 -0.4185 -2.7553 -0.5865 -3.9378 c -0.132 -0.9291 -0.3788 -2.3755 -0.6703 -3.2675 c -0.3109 -0.9515 -0.8201 -2.1662 -1.3405 -3.0212 c -0.4422 -0.7265 -1.0412 -1.4414 -1.5919 -2.0895 c -0.426 -0.5013 -1.5919 -1.5081 -1.5919 -1.5081 l 0.162 0.0611 l 0.1923 0.8974 l 0.7692 1.282 l 0.7692 1.4102 l 1.282 1.987 l 0.8333 2.1152 l 0.4487 2.2434 l 0.3846 3.0767 l 0.1923 3.0767 l 0 2.8844 l -0.7051 1.4743 l -0.8333 2.2434 l -0.2564 1.8589 l 0.4477 1.1104 z"/>
  <path class="outline" d="m -0.1509 20.0167 c 0 0 2.6717 -2.1913 3.1136 -4.6704 c 0.3975 -2.2301 -1.3732 -4.8422 -1.5074 -5.8925 c -0.5367 -4.201 0.6007 -9.7975 0.7033 -10.255 c 0.4073 -1.8171 0.9198 -2.5946 1.1926 -3.1896 c 0.1964 -0.4283 0.7576 -1.2801 1.3189 -2.1058 c 0.322 -0.4738 1.0393 -1.356 1.4046 -2.2533 c 0.3872 -0.951 0.4138 -1.919 0.4194 -2.4358 c 0.0096 -0.8801 -0.1566 -1.6287 -0.3902 -2.3452 c -0.222 -0.6811 -0.9455 -1.7959 -1.9939 -2.4366 c -1.1303 -0.6907 -2.044 -1.246 -2.3918 -1.4659 c -1.1486 -0.7264 -1.8556 -3.1156 -1.8691 -3.1156 c -0.0135 0 -0.7205 2.3891 -1.8691 3.1156 c -0.3477 0.2199 -1.2198 0.7752 -2.35 1.4659 c -1.0484 0.6407 -1.7719 1.7554 -1.9939 2.4366 c -0.2336 0.7166 -0.3998 1.4652 -0.3902 2.3452 c 0.0056 0.5168 0.0322 1.4848 0.4194 2.4358 c 0.3654 0.8973 1.0826 1.7795 1.4046 2.2533 c 0.5612 0.8257 1.1224 1.6775 1.3188 2.1058 c 0.2729 0.595 0.7854 1.3725 1.1926 3.1896 c 0.1025 0.4574 1.2399 6.054 0.7033 10.255 c -0.1342 1.0504 -1.9466 3.6625 -1.5491 5.8925 c 0.4419 2.4791 3.1136 4.6704 3.1136 4.6704 z"/>
  <path class="highlight" d="m -1.6321 -5.4385 l 0.229 -10.3049 c 0 0 -1.2824 0.9618 -1.832 1.374 c -0.4122 0.3091 -1.117 0.5839 -1.374 1.0305 c -0.5865 1.0192 -0.844 2.1419 -0.3435 3.206 c 0.2961 0.6294 1.3597 1.4359 1.832 1.9465 c 0.6366 0.6883 1.4885 2.748 1.4885 2.748 z"/>
  <path class="highlight" d="m 1.0014 -7.0415 l 0 -7.4424 c 0 0 0.4084 0.7846 0.687 1.0305 c 0.2303 0.2033 0.6878 0.2522 0.916 0.458 c 0.3326 0.3 0.7143 0.8202 0.8015 1.2595 c 0.1155 0.5816 -0.0572 1.4272 -0.3435 1.9465 c -0.2465 0.4472 -0.9511 0.738 -1.2595 1.145 c -0.3247 0.4286 -0.8015 1.603 -0.8015 1.603 z"/>
  <path class="highlight" d="m -0.8713 16.7743 c -0.0957 -0.9921 -0.0738 -3.3205 -0.0738 -3.3205 c 0 0 -0.8468 1.2524 -0.9884 1.8189 c -0.075 0.2999 -0.15 0.9485 -0.0724 1.2478 c 0.1774 0.6847 1.3333 2.09 1.3333 2.09 c 0 0 -0.1546 -1.38 -0.1986 -1.8361 z"/>
  <path class="main" d="m 5.8514 6.5404 l -1.2852 -1.7805 l -9.3874 0 l -1.2901 1.7805 l 1.2901 1.7724 l 9.3874 0 l 1.2852 -1.7724 z"/>
  <path class="lighest" d="m -5.4082 5.8037 l 10.6474 0.0575 l -0.7866 -1.1127 l -9.3044 -0.0192 l -0.5563 1.0743 z"/>
  <path class="lowlight" d="m 5.1949 7.3019 l -10.6474 -0.0575 l 0.7866 1.1127 l 9.3044 0.0192 l 0.5563 -1.0743 z"/>
  <path class="outline" d="m 5.8514 6.5404 l -1.2852 -1.7805 l -9.3874 0 l -1.2901 1.7805 l 1.2901 1.7724 l 9.3874 0 l 1.2852 -1.7724 z"/>
</svg>
