<?xml version="1.0" encoding="UTF-8" standalone="no"?>
<svg xmlns="http://www.w3.org/2000/svg" version="1.1" width="40" height="50">
  <g transform="scale(1.5) translate(-557,-152)">
    <g transform="matrix(0.30065874,0,0,0.30312191,151.83147,-44.438593)">
      <g transform="matrix(0.87904247,0,0,0.87904247,895.15594,203.17148)">
        <g transform="matrix(0.9025,0,0,0.9025,94.775256,354.65945)">
          <path class="main" d="m 502.0459,263.91545 c 0.574,-5.39646 0.2684,-15.5749 -2.5708,-20.19983 -0.9594,-1.56279 -3.3097,-3.38275 -5.1418,-3.30542 -1.8055,0.0762 -4.29,0.60986 -5.1418,2.20361 -0.7808,1.46083 -1.2877,4.59767 -1.1018,6.24359 0.2582,2.28612 2.9382,6.97812 2.9382,6.97812 0,0 -9.6038,-1.92736 -12.8545,-4.40724 -3.2162,-2.45361 -6.6875,-7.10482 -7.7126,-11.01809 -0.3517,-1.34254 -1.7247,-5.68443 0.009,-10.89262 1.0064,-3.02315 4.0336,-7.06875 6.3762,-9.08505 6.1173,-5.2652 17.9963,-3.73456 20.4255,-2.42577 3.2127,1.73091 7.1281,5.41194 8.4472,8.81447 1.024,2.64119 3.1525,10.43714 3.6727,13.22171 1.0616,5.68278 1.3699,7.82674 1.8364,13.58897 0.3202,3.9551 1.2029,7.50631 0.3672,11.38536 -0.4502,2.08989 -1.0125,6.88623 -2.2337,10.04454 -1.2278,3.17525 -3.1176,4.71065 -4.7444,6.11532 -3.3233,2.86953 -13.9563,4.40725 -13.9563,4.40725 0,0 5.8421,-7.36967 7.3454,-10.65082 1.7852,-3.89624 3.5866,-6.7564 4.0399,-11.0181 z"/>
          <path class="main" d="m 528.08801,263.91545 c -0.574,-5.39646 -0.2684,-15.5749 2.5708,-20.19983 0.9594,-1.56279 3.3097,-3.38275 5.1418,-3.30542 1.8055,0.0762 4.29,0.60986 5.1418,2.20361 0.7808,1.46083 1.2877,4.59767 1.1018,6.24359 -0.2582,2.28612 -2.9382,6.97812 -2.9382,6.97812 0,0 9.6038,-1.92736 12.8545,-4.40724 3.2162,-2.45361 6.6875,-7.10482 7.7126,-11.01809 0.3517,-1.34254 1.7247,-5.68443 -0.009,-10.89262 -1.0064,-3.02315 -4.0336,-7.06875 -6.3762,-9.08505 -6.1173,-5.2652 -17.9963,-3.73456 -20.4255,-2.42577 -3.2127,1.73091 -7.1281,5.41194 -8.4472,8.81447 -1.024,2.64119 -3.1525,10.43714 -3.6727,13.22171 -1.0616,5.68278 -1.3699,7.82674 -1.8364,13.58897 -0.3202,3.9551 -1.2029,7.50631 -0.3672,11.38536 0.4502,2.08989 1.0125,6.88623 2.2337,10.04454 1.2278,3.17525 3.1176,4.71065 4.7444,6.11532 3.3233,2.86953 13.9563,4.40725 13.9563,4.40725 0,0 -5.8421,-7.36967 -7.3454,-10.65082 -1.7852,-3.89624 -3.5866,-6.7564 -4.0399,-11.0181 z" style=";display:inline"/>
        </g>
        <path class="lowlight" d="m 580.2891,611.85415 -2.52823,-0.0402 -8.09738,-2.5449 -9.71686,-8.56007 -7.17196,6.82493 -4.85842,2.31353 -5.55248,1.85083 -3.68592,0.25061 c 0,0 6.52693,-4.39347 8.7795,-6.86397 1.61101,-1.76687 3.25365,-4.55927 4.30994,-6.70435 1.82012,-3.69621 4.62919,-12.92982 4.72695,-12.99321 l 2.0689,-0.31037 3.99068,0.31925 c 0,0 2.80907,9.23361 4.62919,12.92982 1.05629,2.14508 2.69893,4.93748 4.30994,6.70435 2.25257,2.4705 8.79615,6.82377 8.79615,6.82377 z"/>
        <path class="lowlight" d="m 581.58581,585.32483 c 0,0 4.92949,-2.07922 6.39807,-3.75059 1.56606,-1.78232 2.61593,-4.95555 3.08872,-7.28057 0.35611,-1.75121 -0.51281,-5.46748 -1.32374,-7.05994 -1.22552,-2.40665 -2.72661,-3.7979 -5.29496,-4.63308 -1.76239,-0.5731 -4.44052,-0.64621 -6.17744,0 -1.80322,0.67088 -4.32663,2.23794 -5.51557,3.75059 -1.79265,2.28074 -2.84909,4.90193 -3.52998,7.72182 -0.41944,1.73712 -1.36094,7.03826 -1.32374,8.82492 0.0331,1.58952 0.22063,6.61869 0.22063,6.61869 l 3.30935,5.51558 0.0824,-0.25118 -0.24721,-9.14656 0,-3.83167 1.73044,-5.9329 2.84284,-3.83167 3.33726,-0.4944 3.21365,1.60682 1.35962,3.46086 -0.2472,4.20247 -1.92314,4.51081 z"/>
        <path class="lowlight" d="m 537.67315,585.31444 c 0,0 -4.92948,-2.07923 -6.39807,-3.7506 -1.56606,-1.78232 -2.61593,-4.95555 -3.08872,-7.28056 -0.35611,-1.75121 0.51282,-5.46748 1.32374,-7.05994 1.22552,-2.40666 2.72662,-3.7979 5.29496,-4.63309 1.76239,-0.57309 4.44053,-0.64621 6.17744,0 1.80322,0.67089 4.32663,2.23794 5.51558,3.75059 1.79265,2.28074 2.84908,4.90193 3.52997,7.72182 0.41945,1.73712 1.36094,7.03827 1.32374,8.82493 -0.0331,1.58952 -0.22062,6.61869 -0.22062,6.61869 l -3.30935,5.51557 -0.0824,-0.25118 0.2472,-9.14656 0,-3.83167 -1.73043,-5.9329 -2.84285,-3.83166 -3.33726,-0.49441 -3.21364,1.60683 -1.35963,3.46085 0.2472,4.20247 1.92314,4.51082 z" style=";display:inline"/>
        <g transform="matrix(0.9025,0,0,0.9025,94.775256,354.65945)">
          <path class="outline" d="m 502.0459,263.91545 c 0.574,-5.39646 0.2684,-15.5749 -2.5708,-20.19983 -0.9594,-1.56279 -3.3097,-3.38275 -5.1418,-3.30542 -1.8055,0.0762 -4.29,0.60986 -5.1418,2.20361 -0.7808,1.46083 -1.2877,4.59767 -1.1018,6.24359 0.2582,2.28612 2.9382,6.97812 2.9382,6.97812 0,0 -9.6038,-1.92736 -12.8545,-4.40724 -3.2162,-2.45361 -6.6875,-7.10482 -7.7126,-11.01809 -0.3517,-1.34254 -1.7247,-5.68443 0.009,-10.89262 1.0064,-3.02315 4.0336,-7.06875 6.3762,-9.08505 6.1173,-5.2652 17.9963,-3.73456 20.4255,-2.42577 3.2127,1.73091 7.1281,5.41194 8.4472,8.81447 1.024,2.64119 3.1525,10.43714 3.6727,13.22171 1.0616,5.68278 1.3699,7.82674 1.8364,13.58897 0.3202,3.9551 1.2029,7.50631 0.3672,11.38536 -0.4502,2.08989 -1.0125,6.88623 -2.2337,10.04454 -1.2278,3.17525 -3.1176,4.71065 -4.7444,6.11532 -3.3233,2.86953 -13.9563,4.40725 -13.9563,4.40725 0,0 5.8421,-7.36967 7.3454,-10.65082 1.7852,-3.89624 3.5866,-6.7564 4.0399,-11.0181 z" style="stroke-width:2.50523567;"/>
          <path class="outline" d="m 528.08801,263.91545 c -0.574,-5.39646 -0.2684,-15.5749 2.5708,-20.19983 0.9594,-1.56279 3.3097,-3.38275 5.1418,-3.30542 1.8055,0.0762 4.29,0.60986 5.1418,2.20361 0.7808,1.46083 1.2877,4.59767 1.1018,6.24359 -0.2582,2.28612 -2.9382,6.97812 -2.9382,6.97812 0,0 9.6038,-1.92736 12.8545,-4.40724 3.2162,-2.45361 6.6875,-7.10482 7.7126,-11.01809 0.3517,-1.34254 1.7247,-5.68443 -0.009,-10.89262 -1.0064,-3.02315 -4.0336,-7.06875 -6.3762,-9.08505 -6.1173,-5.2652 -17.9963,-3.73456 -20.4255,-2.42577 -3.2127,1.73091 -7.1281,5.41194 -8.4472,8.81447 -1.024,2.64119 -3.1525,10.43714 -3.6727,13.22171 -1.0616,5.68278 -1.3699,7.82674 -1.8364,13.58897 -0.3202,3.9551 -1.2029,7.50631 -0.3672,11.38536 0.4502,2.08989 1.0125,6.88623 2.2337,10.04454 1.2278,3.17525 3.1176,4.71065 4.7444,6.11532 3.3233,2.86953 13.9563,4.40725 13.9563,4.40725 0,0 -5.8421,-7.36967 -7.3454,-10.65082 -1.7852,-3.89624 -3.5866,-6.7564 -4.0399,-11.0181 z" style="stroke-width:2.50523567;;display:inline"/>
        </g>
        <path class="highlight" d="m 524.39362,572.71798 c 0,0 0.42901,-3.39708 0.80824,-5.05147 0.46643,-2.03481 1.49305,-4.85211 3.0309,-6.26385 1.62546,-1.49217 4.08801,-2.66415 6.26383,-3.03089 1.91373,-0.32256 4.5843,-0.27327 6.4659,0.20206 1.44559,0.36519 3.17279,1.44562 4.4453,2.22265 0.96233,0.58763 3.0309,2.22266 3.0309,2.22266 0,0 -3.75979,-5.96247 -6.26384,-7.4762 -2.44202,-1.47624 -6.44216,-2.09505 -9.29473,-2.02059 -2.07275,0.0541 -4.33533,1.07438 -6.06178,2.22266 -2.04962,1.36321 -4.25011,4.13843 -5.05148,6.4659 -0.5723,1.66214 -0.50191,4.17496 0,5.85971 0.53763,1.80468 2.62676,4.64736 2.62676,4.64736 z"/>
        <path class="highlight" d="m 576.92905,558.16971 c 0,0 5.13389,-0.84705 7.27414,-0.40411 2.65466,0.54939 6.14332,2.14669 8.08237,4.04118 1.66804,1.6297 3.63707,6.87001 3.63707,6.87001 0,0 0.16312,-5.49943 -0.60618,-7.67825 -0.46463,-1.31591 -1.56351,-2.93526 -2.62677,-3.83913 -1.63225,-1.38754 -4.32381,-3.00066 -6.4659,-3.03088 -1.12483,-0.0159 -3.69993,-0.073 -5.22518,0.62513 -2.59728,1.1888 -4.06955,3.41605 -4.06955,3.41605 z"/>
        <g transform="matrix(0.9025,0,0,0.9025,99.287747,-141.71555)">
          <path class="main" d="m 510,854 c 0,0 8.58079,-7.03775 10,-15 1.27665,-7.16228 -4.4103,-15.5515 -4.84132,-18.92499 -1.72367,-13.49216 1.92936,-31.46657 2.25863,-32.93573 1.30797,-5.83607 2.95399,-8.33308 3.83033,-10.24414 0.63083,-1.37567 2.43333,-4.1112 4.23574,-6.76319 1.03432,-1.52175 3.33777,-4.35506 4.51118,-7.23688 1.24372,-3.0544 1.32896,-6.16333 1.34698,-7.82303 0.0307,-2.8265 -0.50296,-5.23079 -1.25324,-7.53217 -0.71305,-2.18762 -3.03665,-5.76776 -6.40372,-7.82555 -3.63004,-2.21837 -6.56481,-4.00185 -7.68157,-4.70812 C 512.31404,732.67317 510.04353,725 510,725 c -0.0434,0 -2.31409,7.67317 -6.00305,10.0062 -1.11676,0.70627 -3.91757,2.48975 -7.54761,4.70812 -3.36709,2.05779 -5.69067,5.63793 -6.40372,7.82555 -0.75028,2.30138 -1.28395,4.70567 -1.25324,7.53217 0.018,1.6597 0.10326,4.76863 1.34698,7.82303 1.1734,2.88182 3.47686,5.71513 4.51118,7.23688 1.80241,2.65199 3.60491,5.38752 4.23574,6.76319 0.87634,1.91106 2.52236,4.40807 3.83033,10.24414 0.32927,1.46916 3.9823,19.44357 2.25863,32.93573 C 504.54422,823.4485 498.72335,831.83772 500,839 c 1.41921,7.96225 10,15 10,15 z" style=";display:inline"/>
          <path class="main" d="M 510,854 509.9892,726.04466" style="stroke-width:2.50523567;"/>
        </g>
        <path class="lowlight" d="m 559.79788,628.78449 6.31402,-7.04255 2.42847,-4.61409 -0.4857,-6.31401 -1.69992,-6.55686 -2.67132,-5.82832 0,-9.47102 0.97138,-9.47102 1.21424,-10.44241 2.67132,-8.25678 4.37124,-6.07117 3.64269,-6.31401 1.45708,-3.39985 0.72854,-6.07118 -0.97138,-5.82831 -3.07469,-4.92703 -5.91064,-4.0583 c 0,0 3.50187,3.93691 5.79901,7.63948 1.23337,1.98797 1.21806,4.42689 1.24354,4.98854 0.10894,2.40172 -0.0738,3.51503 -0.72854,5.82833 -0.60573,2.14006 -1.88953,4.48636 -3.157,6.31401 -1.42011,2.04775 -3.95949,4.34106 -5.09979,6.55686 -1.63485,3.17684 -2.738,7.90281 -3.39985,11.41379 -0.81256,4.31048 -0.92432,10.194 -1.21423,14.5708 -0.29408,4.43974 -1.08047,10.37812 -0.72854,14.81364 0.22377,2.82028 1.44391,6.77471 1.94277,9.22818 0.34505,1.697 1.23672,3.86783 1.45708,5.58548 0.21321,1.66201 0.22802,3.92541 0,5.58547 -0.25738,1.87381 -0.97778,4.32305 -1.69992,6.07116 -0.79702,1.92936 -3.39986,6.07117 -3.39986,6.07117 z"/>
        <path class="lowlight" d="m 551.29825,618.09924 c 0,0 0.14806,-3.76905 0.4857,-5.34263 0.46884,-2.18512 1.64229,-4.95055 2.42846,-7.04255 0.74719,-1.98828 2.23049,-4.47907 2.67131,-6.55686 0.96815,-4.56337 0.75753,-10.88518 0.4857,-15.54219 -0.20174,-3.45602 -1.21312,-7.98629 -1.69993,-11.41379 -0.3825,-2.69307 -1.09789,-6.88546 -1.94278,-9.47102 -0.90119,-2.75787 -2.37702,-6.27873 -3.88554,-8.75712 -1.28175,-2.10581 -3.01783,-4.17789 -4.61409,-6.05653 -1.23464,-1.45307 -4.61408,-4.37124 -4.61408,-4.37124 l 0.4696,0.17702 0.55737,2.60109 2.22951,3.71585 2.22951,4.08743 3.71585,5.75956 2.4153,6.13115 1.30054,6.50273 1.11476,8.91803 0.55737,8.91803 0,8.36066 -2.04371,4.27322 -2.4153,6.50273 -0.74317,5.38798 1.29762,3.21845 z"/>
        <path class="outline" d="m 559.56275,629.01945 c 0,0 7.74416,-6.35157 9.025,-13.5375 1.15217,-6.46396 -3.9803,-14.03523 -4.36929,-17.0798 -1.55562,-12.17668 1.74124,-28.39858 2.03841,-29.7245 1.18044,-5.26705 2.66598,-7.5206 3.45687,-9.24533 0.56933,-1.24155 2.19608,-3.71036 3.82276,-6.10378 0.93347,-1.37338 3.01233,-3.93045 4.07134,-6.53129 1.12245,-2.75659 1.19938,-5.5624 1.21565,-7.06028 0.0277,-2.55092 -0.45392,-4.72079 -1.13105,-6.79779 -0.64353,-1.97432 -2.74058,-5.2054 -5.77936,-7.06255 -3.27611,-2.00208 -5.92474,-3.61167 -6.93262,-4.24908 -3.32929,-2.10556 -5.37843,-9.0306 -5.41771,-9.0306 -0.0392,0 -2.08847,6.92504 -5.41776,9.0306 -1.00787,0.63741 -3.5356,2.247 -6.81171,4.24908 -3.0388,1.85715 -5.13583,5.08823 -5.77936,7.06255 -0.67713,2.077 -1.15877,4.24687 -1.13105,6.79779 0.0163,1.49788 0.0932,4.30369 1.21565,7.06028 1.05899,2.60084 3.13787,5.15791 4.07134,6.53129 1.62667,2.39342 3.25343,4.86223 3.82275,6.10378 0.7909,1.72473 2.27643,3.97828 3.45688,9.24533 0.29716,1.32592 3.59402,17.54782 2.03841,29.7245 -0.38899,3.04457 -5.64233,10.61584 -4.49015,17.0798 1.28083,7.18593 9.025,13.5375 9.025,13.5375 z" style="stroke-width:2.26097536;;display:inline"/>
        <path class="highlight" d="m 555.26936,555.23611 0.66377,-29.86935 c 0,0 -3.71709,2.7878 -5.31011,3.98258 -1.19478,0.89608 -3.23766,1.69252 -3.98258,2.98694 -1.70014,2.95426 -2.44652,6.20835 -0.99564,9.29268 0.85814,1.82427 3.94113,4.16203 5.3101,5.642 1.84535,1.99497 4.31446,7.96515 4.31446,7.96515 z"/>
        <path class="highlight" d="m 562.90265,550.58977 0,-21.57231 c 0,0 1.18391,2.2742 1.99128,2.98693 0.66762,0.58936 1.99375,0.73111 2.65506,1.32753 0.964,0.86944 2.07032,2.3774 2.32317,3.6507 0.33477,1.68583 -0.16587,4.13681 -0.99565,5.64199 -0.71458,1.29621 -2.75693,2.139 -3.65069,3.31882 -0.94105,1.24223 -2.32317,4.64634 -2.32317,4.64634 z"/>
        <path class="highlight" d="m 557.47458,619.62118 c -0.2774,-2.87575 -0.21393,-9.62458 -0.21393,-9.62458 0,0 -2.45446,3.63006 -2.86497,5.27213 -0.21733,0.86932 -0.43471,2.74928 -0.20993,3.61671 0.51426,1.98462 3.86462,6.05784 3.86462,6.05784 0,0 -0.44825,-3.99989 -0.57579,-5.3221 z"/>
        <g transform="matrix(0.9025,0,0,0.9025,113.20291,-150.41434)">
          <path class="main" d="m 513.85885,820.35686 -4.1277,-5.71831 -30.1496,0 -4.1434,5.71831 4.1434,5.6925 30.1496,0 4.1277,-5.6925 z" style=";display:inline"/>
          <path class="lighest" d="m 477.69652,817.99066 34.196,0.18484 -2.52619,-3.57363 -29.88299,-0.0616 -1.78682,3.45041 z"/>
          <path class="lowlight" d="m 511.75052,822.80242 -34.196,-0.18484 2.52619,3.57363 29.88299,0.0616 1.78682,-3.45041 z" style=";display:inline"/>
          <path class="outline" d="m 1104.2203,376.98337 -4.1277,-5.71831 -30.1496,0 -4.1434,5.71831 4.1434,5.6925 30.1496,0 4.1277,-5.6925 z" transform="translate(-590.36145,443.37349)" style="stroke-width:2.50523567;;display:inline"/>
        </g>
      </g>
    </g>
  </g>
</svg>
