<?xml version="1.0" encoding="UTF-8" standalone="no"?>
<svg xmlns="http://www.w3.org/2000/svg" version="1.1" width="40" height="50">
  <g transform="scale(0.345) translate(-560,-571)">
    <path class="main" d="m 547.8717 592.8431 c 0.518 -4.8703 0.2422 -14.0563 -2.3201 -18.2303 c -0.8659 -1.4104 -2.987 -3.0529 -4.6405 -2.9831 c -1.6295 0.0688 -3.8717 0.5504 -4.6405 1.9888 c -0.7047 1.3184 -1.1621 4.1494 -0.9944 5.6348 c 0.233 2.0632 2.6517 6.2978 2.6517 6.2978 c 0 0 -8.6674 -1.7394 -11.6012 -3.9775 c -2.9026 -2.2144 -6.0355 -6.4121 -6.9606 -9.9438 c -0.3174 -1.2116 -1.5565 -5.1302 0.0081 -9.8306 c 0.9083 -2.7284 3.6403 -6.3795 5.7545 -8.1993 c 5.5209 -4.7518 16.2417 -3.3704 18.434 -2.1893 c 2.8995 1.5621 6.4331 4.8843 7.6236 7.9551 c 0.9242 2.3837 2.8451 9.4195 3.3146 11.9326 c 0.9581 5.1287 1.2363 7.0636 1.6574 12.264 c 0.289 3.5695 1.0856 6.7744 0.3314 10.2753 c -0.4063 1.8861 -0.9138 6.2148 -2.0159 9.0652 c -1.1081 2.8657 -2.8136 4.2514 -4.2818 5.5191 c -2.9993 2.5898 -12.5956 3.9775 -12.5956 3.9775 c 0 0 5.2725 -6.6511 6.6292 -9.6124 c 1.6111 -3.5164 3.2369 -6.0977 3.646 -9.9438 z"/>
    <path class="main" d="m 571.3747 592.8431 c -0.518 -4.8703 -0.2422 -14.0563 2.3201 -18.2303 c 0.8659 -1.4104 2.987 -3.0529 4.6405 -2.9831 c 1.6295 0.0688 3.8717 0.5504 4.6405 1.9888 c 0.7047 1.3184 1.1621 4.1494 0.9944 5.6348 c -0.233 2.0632 -2.6517 6.2978 -2.6517 6.2978 c 0 0 8.6674 -1.7394 11.6012 -3.9775 c 2.9026 -2.2144 6.0355 -6.4121 6.9606 -9.9438 c 0.3174 -1.2116 1.5565 -5.1302 -0.0081 -9.8306 c -0.9083 -2.7284 -3.6403 -6.3795 -5.7545 -8.1993 c -5.5209 -4.7518 -16.2417 -3.3704 -18.434 -2.1893 c -2.8995 1.5621 -6.4331 4.8843 -7.6236 7.9551 c -0.9242 2.3837 -2.8451 9.4195 -3.3146 11.9326 c -0.9581 5.1287 -1.2363 7.0636 -1.6574 12.264 c -0.289 3.5695 -1.0856 6.7744 -0.3314 10.2753 c 0.4063 1.8861 0.9138 6.2148 2.0159 9.0652 c 1.1081 2.8657 2.8136 4.2514 4.2818 5.5191 c 2.9993 2.5898 12.5956 3.9775 12.5956 3.9775 c 0 0 -5.2725 -6.6511 -6.6292 -9.6124 c -1.6111 -3.5164 -3.2369 -6.0977 -3.646 -9.9438 z"/>
    <path class="lowlight" d="m 580.2891,611.85415 -2.52823,-0.0402 -8.09738,-2.5449 -9.71686,-8.56007 -7.17196,6.82493 -4.85842,2.31353 -5.55248,1.85083 -3.68592,0.25061 c 0,0 6.52693,-4.39347 8.7795,-6.86397 1.61101,-1.76687 3.25365,-4.55927 4.30994,-6.70435 1.82012,-3.69621 4.62919,-12.92982 4.72695,-12.99321 l 2.0689,-0.31037 3.99068,0.31925 c 0,0 2.80907,9.23361 4.62919,12.92982 1.05629,2.14508 2.69893,4.93748 4.30994,6.70435 2.25257,2.4705 8.79615,6.82377 8.79615,6.82377 z"/>
    <path class="lowlight" d="m 581.58581,585.32483 c 0,0 4.92949,-2.07922 6.39807,-3.75059 1.56606,-1.78232 2.61593,-4.95555 3.08872,-7.28057 0.35611,-1.75121 -0.51281,-5.46748 -1.32374,-7.05994 -1.22552,-2.40665 -2.72661,-3.7979 -5.29496,-4.63308 -1.76239,-0.5731 -4.44052,-0.64621 -6.17744,0 -1.80322,0.67088 -4.32663,2.23794 -5.51557,3.75059 -1.79265,2.28074 -2.84909,4.90193 -3.52998,7.72182 -0.41944,1.73712 -1.36094,7.03826 -1.32374,8.82492 0.0331,1.58952 0.22063,6.61869 0.22063,6.61869 l 3.30935,5.51558 0.0824,-0.25118 -0.24721,-9.14656 0,-3.83167 1.73044,-5.9329 2.84284,-3.83167 3.33726,-0.4944 3.21365,1.60682 1.35962,3.46086 -0.2472,4.20247 -1.92314,4.51081 z"/>
    <path class="lowlight" d="m 537.67315,585.31444 c 0,0 -4.92948,-2.07923 -6.39807,-3.7506 -1.56606,-1.78232 -2.61593,-4.95555 -3.08872,-7.28056 -0.35611,-1.75121 0.51282,-5.46748 1.32374,-7.05994 1.22552,-2.40666 2.72662,-3.7979 5.29496,-4.63309 1.76239,-0.57309 4.44053,-0.64621 6.17744,0 1.80322,0.67089 4.32663,2.23794 5.51558,3.75059 1.79265,2.28074 2.84908,4.90193 3.52997,7.72182 0.41945,1.73712 1.36094,7.03827 1.32374,8.82493 -0.0331,1.58952 -0.22062,6.61869 -0.22062,6.61869 l -3.30935,5.51557 -0.0824,-0.25118 0.2472,-9.14656 0,-3.83167 -1.73043,-5.9329 -2.84285,-3.83166 -3.33726,-0.49441 -3.21364,1.60683 -1.35963,3.46085 0.2472,4.20247 1.92314,4.51082 z"/>
    <path class="outline" d="m 547.8717 592.8431 c 0.518 -4.8703 0.2422 -14.0563 -2.3201 -18.2303 c -0.8659 -1.4104 -2.987 -3.0529 -4.6405 -2.9831 c -1.6295 0.0688 -3.8717 0.5504 -4.6405 1.9888 c -0.7047 1.3184 -1.1621 4.1494 -0.9944 5.6348 c 0.233 2.0632 2.6517 6.2978 2.6517 6.2978 c 0 0 -8.6674 -1.7394 -11.6012 -3.9775 c -2.9026 -2.2144 -6.0355 -6.4121 -6.9606 -9.9438 c -0.3174 -1.2116 -1.5565 -5.1302 0.0081 -9.8306 c 0.9083 -2.7284 3.6403 -6.3795 5.7545 -8.1993 c 5.5209 -4.7518 16.2417 -3.3704 18.434 -2.1893 c 2.8995 1.5621 6.4331 4.8843 7.6236 7.9551 c 0.9242 2.3837 2.8451 9.4195 3.3146 11.9326 c 0.9581 5.1287 1.2363 7.0636 1.6574 12.264 c 0.289 3.5695 1.0856 6.7744 0.3314 10.2753 c -0.4063 1.8861 -0.9138 6.2148 -2.0159 9.0652 c -1.1081 2.8657 -2.8136 4.2514 -4.2818 5.5191 c -2.9993 2.5898 -12.5956 3.9775 -12.5956 3.9775 c 0 0 5.2725 -6.6511 6.6292 -9.6124 c 1.6111 -3.5164 3.2369 -6.0977 3.646 -9.9438 z"/>
    <path class="outline" d="m 571.3747 592.8431 c -0.518 -4.8703 -0.2422 -14.0563 2.3201 -18.2303 c 0.8659 -1.4104 2.987 -3.0529 4.6405 -2.9831 c 1.6295 0.0688 3.8717 0.5504 4.6405 1.9888 c 0.7047 1.3184 1.1621 4.1494 0.9944 5.6348 c -0.233 2.0632 -2.6517 6.2978 -2.6517 6.2978 c 0 0 8.6674 -1.7394 11.6012 -3.9775 c 2.9026 -2.2144 6.0355 -6.4121 6.9606 -9.9438 c 0.3174 -1.2116 1.5565 -5.1302 -0.0081 -9.8306 c -0.9083 -2.7284 -3.6403 -6.3795 -5.7545 -8.1993 c -5.5209 -4.7518 -16.2417 -3.3704 -18.434 -2.1893 c -2.8995 1.5621 -6.4331 4.8843 -7.6236 7.9551 c -0.9242 2.3837 -2.8451 9.4195 -3.3146 11.9326 c -0.9581 5.1287 -1.2363 7.0636 -1.6574 12.264 c -0.289 3.5695 -1.0856 6.7744 -0.3314 10.2753 c 0.4063 1.8861 0.9138 6.2148 2.0159 9.0652 c 1.1081 2.8657 2.8136 4.2514 4.2818 5.5191 c 2.9993 2.5898 12.5956 3.9775 12.5956 3.9775 c 0 0 -5.2725 -6.6511 -6.6292 -9.6124 c -1.6111 -3.5164 -3.2369 -6.0977 -3.646 -9.9438 z"/>
    <path class="highlight" d="m 524.39362,572.71798 c 0,0 0.42901,-3.39708 0.80824,-5.05147 0.46643,-2.03481 1.49305,-4.85211 3.0309,-6.26385 1.62546,-1.49217 4.08801,-2.66415 6.26383,-3.03089 1.91373,-0.32256 4.5843,-0.27327 6.4659,0.20206 1.44559,0.36519 3.17279,1.44562 4.4453,2.22265 0.96233,0.58763 3.0309,2.22266 3.0309,2.22266 0,0 -3.75979,-5.96247 -6.26384,-7.4762 -2.44202,-1.47624 -6.44216,-2.09505 -9.29473,-2.02059 -2.07275,0.0541 -4.33533,1.07438 -6.06178,2.22266 -2.04962,1.36321 -4.25011,4.13843 -5.05148,6.4659 -0.5723,1.66214 -0.50191,4.17496 0,5.85971 0.53763,1.80468 2.62676,4.64736 2.62676,4.64736 z"/>
    <path class="highlight" d="m 576.92905,558.16971 c 0,0 5.13389,-0.84705 7.27414,-0.40411 2.65466,0.54939 6.14332,2.14669 8.08237,4.04118 1.66804,1.6297 3.63707,6.87001 3.63707,6.87001 0,0 0.16312,-5.49943 -0.60618,-7.67825 -0.46463,-1.31591 -1.56351,-2.93526 -2.62677,-3.83913 -1.63225,-1.38754 -4.32381,-3.00066 -6.4659,-3.03088 -1.12483,-0.0159 -3.69993,-0.073 -5.22518,0.62513 -2.59728,1.1888 -4.06955,3.41605 -4.06955,3.41605 z"/>
    <path class="main" d="m 559.5627 629.0195 c 0 0 7.7442 -6.3516 9.025 -13.5375 c 1.1522 -6.464 -3.9803 -14.0352 -4.3693 -17.0798 c -1.5556 -12.1767 1.7412 -28.3986 2.0384 -29.7245 c 1.1804 -5.2671 2.666 -7.5206 3.4569 -9.2453 c 0.5693 -1.2415 2.1961 -3.7104 3.8228 -6.1038 c 0.9335 -1.3734 3.0123 -3.9304 4.0713 -6.5313 c 1.1225 -2.7566 1.1994 -5.5624 1.2156 -7.0603 c 0.0277 -2.5509 -0.4539 -4.7208 -1.131 -6.7978 c -0.6435 -1.9743 -2.7406 -5.2054 -5.7794 -7.0626 c -3.2761 -2.0021 -5.9247 -3.6117 -6.9326 -4.2491 C 561.6512 519.522 559.602 512.5969 559.5627 512.5969 c -0.0392 0 -2.0885 6.925 -5.4178 9.0306 c -1.0079 0.6374 -3.5356 2.247 -6.8117 4.2491 c -3.0388 1.8572 -5.1358 5.0882 -5.7794 7.0626 c -0.6771 2.077 -1.1588 4.2469 -1.131 6.7978 c 0.0162 1.4979 0.0932 4.3037 1.2156 7.0603 c 1.059 2.6008 3.1379 5.1579 4.0713 6.5313 c 1.6267 2.3934 3.2534 4.8622 3.8228 6.1038 c 0.7909 1.7247 2.2764 3.9783 3.4569 9.2453 c 0.2972 1.3259 3.594 17.5478 2.0384 29.7245 C 554.6389 601.4467 549.3856 609.018 550.5377 615.4819 c 1.2808 7.1859 9.025 13.5375 9.025 13.5375 z"/>
    <path class="main" d="M 559.5627 629.0195 L 559.553 513.5398"/>
    <path class="lowlight" d="m 559.79788,628.78449 6.31402,-7.04255 2.42847,-4.61409 -0.4857,-6.31401 -1.69992,-6.55686 -2.67132,-5.82832 0,-9.47102 0.97138,-9.47102 1.21424,-10.44241 2.67132,-8.25678 4.37124,-6.07117 3.64269,-6.31401 1.45708,-3.39985 0.72854,-6.07118 -0.97138,-5.82831 -3.07469,-4.92703 -5.91064,-4.0583 c 0,0 3.50187,3.93691 5.79901,7.63948 1.23337,1.98797 1.21806,4.42689 1.24354,4.98854 0.10894,2.40172 -0.0738,3.51503 -0.72854,5.82833 -0.60573,2.14006 -1.88953,4.48636 -3.157,6.31401 -1.42011,2.04775 -3.95949,4.34106 -5.09979,6.55686 -1.63485,3.17684 -2.738,7.90281 -3.39985,11.41379 -0.81256,4.31048 -0.92432,10.194 -1.21423,14.5708 -0.29408,4.43974 -1.08047,10.37812 -0.72854,14.81364 0.22377,2.82028 1.44391,6.77471 1.94277,9.22818 0.34505,1.697 1.23672,3.86783 1.45708,5.58548 0.21321,1.66201 0.22802,3.92541 0,5.58547 -0.25738,1.87381 -0.97778,4.32305 -1.69992,6.07116 -0.79702,1.92936 -3.39986,6.07117 -3.39986,6.07117 z"/>
    <path class="lowlight" d="m 551.29825,618.09924 c 0,0 0.14806,-3.76905 0.4857,-5.34263 0.46884,-2.18512 1.64229,-4.95055 2.42846,-7.04255 0.74719,-1.98828 2.23049,-4.47907 2.67131,-6.55686 0.96815,-4.56337 0.75753,-10.88518 0.4857,-15.54219 -0.20174,-3.45602 -1.21312,-7.98629 -1.69993,-11.41379 -0.3825,-2.69307 -1.09789,-6.88546 -1.94278,-9.47102 -0.90119,-2.75787 -2.37702,-6.27873 -3.88554,-8.75712 -1.28175,-2.10581 -3.01783,-4.17789 -4.61409,-6.05653 -1.23464,-1.45307 -4.61408,-4.37124 -4.61408,-4.37124 l 0.4696,0.17702 0.55737,2.60109 2.22951,3.71585 2.22951,4.08743 3.71585,5.75956 2.4153,6.13115 1.30054,6.50273 1.11476,8.91803 0.55737,8.91803 0,8.36066 -2.04371,4.27322 -2.4153,6.50273 -0.74317,5.38798 1.29762,3.21845 z"/>
    <path class="outline" d="m 559.56275,629.01945 c 0,0 7.74416,-6.35157 9.025,-13.5375 1.15217,-6.46396 -3.9803,-14.03523 -4.36929,-17.0798 -1.55562,-12.17668 1.74124,-28.39858 2.03841,-29.7245 1.18044,-5.26705 2.66598,-7.5206 3.45687,-9.24533 0.56933,-1.24155 2.19608,-3.71036 3.82276,-6.10378 0.93347,-1.37338 3.01233,-3.93045 4.07134,-6.53129 1.12245,-2.75659 1.19938,-5.5624 1.21565,-7.06028 0.0277,-2.55092 -0.45392,-4.72079 -1.13105,-6.79779 -0.64353,-1.97432 -2.74058,-5.2054 -5.77936,-7.06255 -3.27611,-2.00208 -5.92474,-3.61167 -6.93262,-4.24908 -3.32929,-2.10556 -5.37843,-9.0306 -5.41771,-9.0306 -0.0392,0 -2.08847,6.92504 -5.41776,9.0306 -1.00787,0.63741 -3.5356,2.247 -6.81171,4.24908 -3.0388,1.85715 -5.13583,5.08823 -5.77936,7.06255 -0.67713,2.077 -1.15877,4.24687 -1.13105,6.79779 0.0163,1.49788 0.0932,4.30369 1.21565,7.06028 1.05899,2.60084 3.13787,5.15791 4.07134,6.53129 1.62667,2.39342 3.25343,4.86223 3.82275,6.10378 0.7909,1.72473 2.27643,3.97828 3.45688,9.24533 0.29716,1.32592 3.59402,17.54782 2.03841,29.7245 -0.38899,3.04457 -5.64233,10.61584 -4.49015,17.0798 1.28083,7.18593 9.025,13.5375 9.025,13.5375 z" />
    <path class="highlight" d="m 555.26936,555.23611 0.66377,-29.86935 c 0,0 -3.71709,2.7878 -5.31011,3.98258 -1.19478,0.89608 -3.23766,1.69252 -3.98258,2.98694 -1.70014,2.95426 -2.44652,6.20835 -0.99564,9.29268 0.85814,1.82427 3.94113,4.16203 5.3101,5.642 1.84535,1.99497 4.31446,7.96515 4.31446,7.96515 z"/>
    <path class="highlight" d="m 562.90265,550.58977 0,-21.57231 c 0,0 1.18391,2.2742 1.99128,2.98693 0.66762,0.58936 1.99375,0.73111 2.65506,1.32753 0.964,0.86944 2.07032,2.3774 2.32317,3.6507 0.33477,1.68583 -0.16587,4.13681 -0.99565,5.64199 -0.71458,1.29621 -2.75693,2.139 -3.65069,3.31882 -0.94105,1.24223 -2.32317,4.64634 -2.32317,4.64634 z"/>
    <path class="highlight" d="m 557.47458,619.62118 c -0.2774,-2.87575 -0.21393,-9.62458 -0.21393,-9.62458 0,0 -2.45446,3.63006 -2.86497,5.27213 -0.21733,0.86932 -0.43471,2.74928 -0.20993,3.61671 0.51426,1.98462 3.86462,6.05784 3.86462,6.05784 0,0 -0.44825,-3.99989 -0.57579,-5.3221 z"/>
    <path class="main" d="m 576.9605 589.9577 l -3.7252 -5.1608 l -27.21 0 l -3.7394 5.1608 l 3.7394 5.1375 l 27.21 0 l 3.7252 -5.1375 z"/>
    <path class="lighest" d="m 544.324 587.8222 l 30.8619 0.1668 l -2.2799 -3.2252 l -26.9694 -0.0556 l -1.6126 3.114 z"/>
    <path class="lowlight" d="m 575.0578 592.1648 l -30.8619 -0.1668 l 2.2799 3.2252 l 26.9694 0.0556 l 1.6126 -3.114 z"/>
    <path class="outline" d="m 576.9605 589.9577 l -3.7252 -5.1608 l -27.21 0 l -3.7394 5.1608 l 3.7394 5.1375 l 27.21 0 l 3.7252 -5.1375 z"/>
  </g>
</svg>
