<?xml version="1.0" encoding="UTF-8" standalone="no"?>
<svg xmlns:svg="http://www.w3.org/2000/svg" xmlns="http://www.w3.org/2000/svg" width="420" height="350" version="1.0">
  <path class="body outline" d="M -18.2065 -6.4941 C -18.2065 -6.4941 -17.7555 -7.9386 -17.2435 -8.2557 C -17.0876 -8.3522 -16.8759 -8.2013 -16.6328 -8.2791 C -16.3715 -8.3629 -15.7893 -8.5077 -15.7169 -8.7724 C -15.6428 -9.0432 -15.9987 -9.6649 -15.9987 -9.6649 C -15.9987 -9.6649 -16.8113 -10.3571 -17.2435 -10.4164 C -17.7143 -10.4811 -18.7701 -9.9937 -18.7701 -9.9937 L -19.0755 -8.7254 L -18.2065 -6.4941 z"/>
  <path class="body outline" d="M 3.6191 14.9013 C 3.6191 14.9013 1.8857 15.1652 1.4791 14.7515 C 1.3528 14.623 1.4453 14.424 1.3722 14.2593 C 1.2856 14.0643 1.1562 13.898 0.9442 13.8741 C 0.608 13.8363 0.2847 14.2694 0.1096 14.5589 C -0.1241 14.9454 -0.1472 15.9499 -0.1472 15.9499 L 0.5376 16.8486 L 2.6366 16.7015 L 3.6191 14.9013 z"/>
  <path class="body outline" d="M 17.0175 5.3876 C 17.0175 5.3876 13.2479 8.1843 11.8915 9.6554 C 11.5678 10.0065 11.0987 10.4959 10.9753 10.9573 C 10.8672 11.3616 10.9596 11.9529 11.1016 12.3466 C 11.2591 12.7832 11.538 13.4725 11.9774 13.6219 C 12.3789 13.7584 13.3219 13.1859 13.3219 13.1859 C 13.3219 13.1859 12.845 14.1361 12.4705 14.3554 C 12.194 14.5173 11.7247 14.5404 11.4099 14.481 C 11.1733 14.4364 10.7022 14.1028 10.7022 14.1028 C 10.7022 14.1028 10.7092 14.6695 10.5737 14.8861 C 10.3935 15.1742 9.7961 15.6018 9.7961 15.6018 C 9.7961 15.6018 9.8142 15.1762 9.8092 15.005 C 9.8006 14.7136 9.7244 14.3732 9.5692 14.1263 C 9.4754 13.9771 9.0556 13.841 9.0556 13.841 C 9.0556 13.841 9.2409 14.1506 9.2839 14.2975 C 9.3756 14.6115 9.4429 15.0578 9.398 15.3818 C 9.3727 15.5644 9.1506 15.7691 9.1697 15.9525 C 9.1953 16.198 9.1789 16.3412 9.3911 16.4674 C 9.5536 16.5641 9.7699 16.6845 9.9405 16.6029 C 10.0518 16.5496 10.3159 16.444 10.3516 16.3258 C 10.3814 16.2275 10.4823 16.0095 10.4823 16.0095 C 10.4823 16.0095 10.6462 16.3555 10.6278 16.6783 C 10.6179 16.8537 10.4712 17.0222 10.4053 17.1247 C 10.3711 17.1779 10.2687 17.4132 9.9926 17.4876 C 9.7242 17.5599 9.3999 17.5245 9.3396 17.5132 C 9.3396 17.5132 8.8057 17.4817 8.6094 17.3762 C 8.3085 17.2145 7.9909 16.8527 7.8166 16.5589 C 7.7195 16.3951 7.7335 16.1116 7.6289 15.9525 C 7.5423 15.8205 7.3092 15.7463 7.2295 15.6101 C 7.1413 15.4594 7.1415 15.4705 7.1415 15.4705 C 7.1415 15.4705 7.3 15.4988 7.3721 15.7813 C 7.452 16.0943 7.6289 16.9226 7.6289 16.9226 L 6.8677 16.7966 L 6.3638 16.3928 C 6.3638 16.3928 6.1913 16.2599 6.2023 16.1807 C 6.2141 16.0959 6.4019 16.0902 6.4306 16.0095 C 6.5014 15.81 6.2023 15.5529 6.2023 15.5529 C 6.2023 15.5529 6.4797 15.8236 6.4069 16.0257 C 6.3803 16.0995 6.2053 16.1099 6.2023 16.1882 C 6.1915 16.4713 6.5228 16.5831 6.8948 16.8303 C 7.1651 17.0099 7.5017 17.1176 7.5719 17.3221 C 7.6352 17.5067 7.4007 17.9498 7.4007 17.9498 L 6.0311 18.6346 C 6.0311 18.6346 5.4313 18.6581 5.2322 18.5205 C 4.9107 18.2982 4.3477 17.4362 4.3477 17.4362 L 4.262 17.4933 L 4.262 18.3493 C 4.262 18.3493 4.9202 18.9514 4.8327 19.2623 C 4.7705 19.4834 4.1479 19.6047 4.1479 19.6047 L 2.3788 19.7188 C 2.3788 19.7188 1.9858 19.4453 1.9223 19.2623 C 1.8262 18.9855 2.0364 18.2922 2.0364 18.2922 L 1.3516 18.5205 C 1.3516 18.5205 1.0933 19.3842 0.781 19.5476 C 0.6285 19.6274 0.3719 19.5497 0.2103 19.4906 C -0.1018 19.3763 -0.7027 18.8628 -0.7027 18.8628 L -1.2163 16.6943 C -1.2163 16.6943 -0.9389 16.327 -0.7598 16.2949 C -0.3811 16.227 0.4386 16.7514 0.4386 16.7514 C 0.4386 16.7514 1.7224 16.3701 2.1506 16.0095 C 2.6046 15.6272 2.8534 14.8094 3.2348 14.3546 C 3.4916 14.0484 3.8657 13.6528 4.205 13.4415 C 4.3291 13.3642 4.5163 13.2884 4.6615 13.2703 C 4.9692 13.232 5.3892 13.3043 5.6887 13.3845 C 5.9775 13.4618 6.3062 13.739 6.6017 13.7839 C 6.755 13.8072 7.1153 13.7269 7.1153 13.7269 C 7.1153 13.7269 6.0702 13.5124 5.6316 13.3845 C 5.091 13.2267 4.4216 12.8245 3.8626 12.7567 C 3.6918 12.736 3.4528 12.8746 3.2919 12.8138 C 2.9859 12.6982 2.6696 12.3193 2.55 12.0149 C 2.5313 11.9671 2.5864 11.88 2.55 11.8437 C 2.4169 11.7105 2.1034 11.8952 1.9223 11.8437 C 1.5156 11.728 1.0123 11.4111 0.7239 11.1018 C 0.4732 10.833 0.1522 10.3851 0.1533 10.0176 C 0.154 9.7265 0.407 9.3703 0.6098 9.1616 C 0.8983 8.8645 1.8082 8.4768 1.8082 8.4768 C 1.8082 8.4768 1.3987 9.0456 1.3516 9.3328 C 1.318 9.5383 1.342 9.85 1.4658 10.0176 C 1.534 10.1099 1.6969 10.1605 1.8082 10.1888 C 2.2896 10.3112 3.4631 10.2458 3.4631 10.2458 C 3.4631 10.2458 3.9772 9.2957 4.262 8.9333 C 4.6211 8.4764 5.1687 7.9149 5.6316 7.5637 C 5.882 7.3738 6.2573 7.1774 6.5447 7.0501 C 6.8912 6.8966 7.4568 6.8989 7.7431 6.6506 C 7.9166 6.5002 8.0022 6.1799 8.0855 5.9659 C 8.1758 5.7335 8.3178 5.4162 8.3137 5.1669 C 8.3055 4.6635 7.8001 3.5691 7.8001 3.5691 C 7.8001 3.5691 -5.1864 9.3658 -11.0978 9.1825 C -12.1842 9.1488 -13.6133 8.566 -14.5002 7.9377 C -14.9476 7.6208 -15.6621 6.5269 -15.6621 6.5269 C -15.6621 6.5269 -16.5759 6.9833 -16.7409 7.3568 C -16.862 7.631 -16.7536 8.0686 -16.6579 8.3527 C -16.5543 8.6603 -16.077 9.2655 -16.077 9.2655 C -16.077 9.2655 -17.0339 8.9795 -17.3218 8.6846 C -17.6255 8.3735 -17.8137 7.7824 -17.9027 7.3568 C -17.9843 6.9669 -17.933 6.597 -17.7367 6.2503 C -17.5937 5.9977 -17.1616 5.4867 -17.1616 5.4867 C -17.1616 5.4867 -17.7565 4.5592 -17.9802 4.1037 C -18.1761 3.7046 -18.4666 2.6925 -18.4666 2.6925 C -18.4666 2.6925 -18.9156 2.5801 -19.0496 2.6629 C -19.1694 2.7369 -19.3196 2.8683 -19.3815 2.9948 C -19.4697 3.1751 -19.5684 3.487 -19.4645 3.6587 C -19.3544 3.8408 -18.8006 3.9077 -18.8006 3.9077 C -18.8006 3.9077 -19.057 4.2228 -19.2155 4.2396 C -19.5477 4.2748 -20.0218 4.0167 -20.2114 3.7417 C -20.4953 3.3297 -20.4358 2.7788 -20.3093 2.2946 C -20.2325 2.0006 -19.9549 1.6674 -19.7284 1.4648 C -19.4959 1.2568 -18.8156 0.9668 -18.8156 0.9668 C -18.8156 0.9668 -19.3051 0.4268 -19.3965 0.137 C -19.4638 -0.0767 -19.3366 -0.394 -19.3965 -0.6099 C -19.474 -0.8897 -19.8814 -1.1497 -19.8944 -1.4398 C -19.9328 -2.2963 -18.6496 -4.0124 -18.6496 -4.0124 C -18.6496 -4.0124 -19.4314 -2.5082 -20.0604 -2.2696 C -20.3435 -2.1622 -21.0562 -2.4356 -21.0562 -2.4356 L -21.6371 -4.0124 C -21.6371 -4.0124 -21.5688 -4.564 -21.3881 -4.6763 C -20.9632 -4.9404 -19.7284 -4.5103 -19.7284 -4.5103 L -20.8072 -4.8422 L -20.8072 -6.087 L -19.8944 -6.502 C -19.8944 -6.502 -20.9425 -5.9538 -21.3881 -6.087 C -21.6417 -6.1628 -21.969 -6.7509 -21.969 -6.7509 L -21.7201 -7.9957 C -21.7201 -7.9957 -21.4514 -8.5646 -21.2222 -8.5766 C -20.6066 -8.6091 -19.7284 -7.1659 -19.7284 -7.1659 L -20.6413 -8.2447 L -20.3093 -8.7426 L -19.3965 -7.8298 L -20.3093 -8.8256 L -20.2263 -9.7385 L -19.8944 -9.7385 C -19.8944 -9.7385 -20.5182 -9.898 -20.6413 -10.0981 C -20.7853 -10.3323 -20.8428 -10.6674 -20.6966 -10.9003 C -20.4704 -11.2606 -19.3965 -11.4535 -19.3965 -11.4535 C -19.3965 -11.4535 -18.4037 -11.4928 -18.1517 -11.2322 C -17.9376 -11.0109 -17.8625 -10.7077 -17.9027 -10.4023 C -17.9362 -10.1482 -18.373 -9.6831 -18.373 -9.6831 C -18.373 -9.6831 -18.0764 -8.1803 -17.8197 -7.5808 C -17.5206 -6.8821 -16.9703 -6.0138 -16.4919 -5.4231 C -16.0375 -4.8621 -15.2015 -4.3261 -14.7492 -3.7634 C -14.0564 -2.9015 -13.3436 -1.5947 -12.8405 -0.6099 C -12.2011 0.6419 -11.0148 3.7054 -11.0148 3.7054 L 4.5037 0.22 L 11.2257 0.4689 L 15.7899 2.3776 L 17.0175 5.3876 z"/>
  <path class="outline" d="M 2.5148 11.7493 C 2.5148 11.7493 2.9473 11.6172 3.1139 11.5211 C 3.2667 11.433 3.5703 11.1502 3.5703 11.1502"/>
  <path class="outline" d="M 4.5688 11.2358 C 4.5688 11.2358 4.1581 11.3225 4.0268 11.4355 C 3.8787 11.5629 3.7294 11.8114 3.713 12.0061 C 3.6955 12.2137 3.9412 12.6622 3.9412 12.6622"/>
  <path class="outline" d="M 4.9967 11.4926 C 4.9967 11.4926 4.6259 11.7034 4.5688 11.8634 C 4.4841 12.1006 4.6161 12.4576 4.7114 12.6907 C 4.7626 12.8159 4.9682 13.0615 4.9682 13.0615"/>
  <path class="outline" d="M 5.7954 11.6352 C 5.7954 11.6352 5.4506 11.9613 5.3961 12.1487 C 5.3456 12.322 5.3868 12.5799 5.4531 12.7478 C 5.5406 12.969 5.9381 13.3753 5.9381 13.3753"/>
  <path class="outline" d="M 4.2265 17.4832 C 4.2265 17.4832 4.277 16.9968 4.312 16.8271 C 4.3597 16.5959 4.854 16.2566 4.854 16.2566"/>
  <path class="outline" d="M 2.144 18.1108 C 2.144 18.1108 2.1307 17.7731 2.201 17.6544 C 2.2979 17.4909 2.7145 17.2835 2.7145 17.2835"/>
  <path class="outline" d="M -17.1809 5.599 C -17.1809 5.599 -16.6941 5.1308 -16.5154 4.9335 C -16.3699 4.7729 -16.1643 4.5642 -15.983 4.4455 C -15.8734 4.3737 -15.5838 4.268 -15.5838 4.268"/>
  <path class="outline" d="M -18.5118 2.7153 C -18.5118 2.7153 -18.1141 2.5648 -17.9351 2.5378 C -17.6718 2.4983 -17.2966 2.6324 -17.0478 2.5378 C -16.7482 2.4239 -16.4512 2.0769 -16.2492 1.828 C -16.114 1.6614 -15.8943 1.2069 -15.8943 1.2069"/>
  <path class="outline" d="M -18.9111 0.9851 C -18.9111 0.9851 -18.2595 0.9897 -17.9827 0.7606"/>
  <path class="outline" d="M -18.5853 -2.5939 C -18.5853 -2.5939 -18.2383 -0.6335 -17.5726 -0.0466 C -17.1028 0.3675 -16.0487 0.564 -16.0487 0.564"/>
  <path class="claw outline" d="M -17.2444 -9.7785 C -17.2277 -9.5894 -17.1185 -9.3314 -16.9768 -9.205 C -16.8685 -9.1085 -16.6592 -9.0188 -16.518 -9.0521 C -16.3285 -9.0968 -16.1488 -9.1626 -16.0723 -9.3416 C -15.8651 -9.827 -15.7861 -10.4483 -15.9576 -10.9474 C -16.0875 -11.3252 -16.4435 -11.7971 -16.7988 -11.9797 C -16.9623 -12.0638 -17.1167 -12.136 -17.2958 -12.0944 C -17.4759 -12.0525 -17.9075 -11.865 -17.9075 -11.865 C -17.9075 -11.865 -17.504 -11.7194 -17.3723 -11.5974 C -17.225 -11.4611 -17.0861 -11.216 -17.0282 -11.0239 C -16.9552 -10.7821 -17.0643 -10.6032 -17.0915 -10.352 C -17.1106 -10.175 -17.2601 -9.9559 -17.2444 -9.7785 z"/>
  <path class="claw outline" d="M -21.769 -11.6356 C -21.769 -11.6356 -21.6669 -12.289 -21.3867 -12.515 C -21.1044 -12.7427 -20.6023 -12.908 -20.2397 -12.8973 C -19.9928 -12.89 -19.6605 -12.7547 -19.4751 -12.5914 C -19.1206 -12.2792 -18.8268 -11.8338 -18.7486 -11.368 C -18.7159 -11.1727 -18.6892 -10.9285 -18.7869 -10.7563 C -18.8991 -10.5582 -19.1327 -10.4536 -19.3604 -10.4504 C -19.5234 -10.4481 -19.7465 -10.675 -19.8574 -10.7945 C -20.143 -11.1024 -20.0874 -11.6998 -20.4309 -11.9415 C -20.5378 -12.0167 -20.7207 -12.0517 -20.8514 -12.0562 C -20.9683 -12.0602 -21.1191 -12.0027 -21.2338 -11.9797 C -21.4058 -11.9453 -21.769 -11.6356 -21.769 -11.6356 z"/>
  <path class="claw outline" d="M -21.6926 -7.0094 C -21.5748 -7.0314 -21.3849 -7.0305 -21.3102 -7.1241 C -21.2028 -7.259 -21.206 -7.5383 -21.272 -7.6976 C -21.3653 -7.9229 -21.4643 -8.1089 -21.6926 -8.1947 C -21.8214 -8.2431 -22.4042 -8.1265 -22.5337 -8.08 C -22.8557 -7.9642 -23.0592 -7.8075 -23.2219 -7.5065 C -23.37 -7.2323 -23.4299 -6.7715 -23.3366 -6.4742 C -23.2636 -6.2415 -22.9993 -6.0048 -22.8013 -5.8625 C -22.6803 -5.7754 -22.3425 -5.6713 -22.3425 -5.6713 C -22.3425 -5.6713 -22.5561 -6.2898 -22.4955 -6.5506 C -22.4602 -6.7026 -22.3258 -6.8951 -22.1896 -6.9712 C -22.059 -7.0441 -21.8396 -6.9821 -21.6926 -7.0094 z"/>
  <path class="claw outline" d="M -21.3867 -3.9508 C -21.2318 -4.0647 -20.9098 -3.8967 -20.775 -3.7596 C -20.6325 -3.6147 -20.5407 -3.3083 -20.5838 -3.1097 C -20.6322 -2.8872 -20.8874 -2.6562 -21.0808 -2.5362 C -21.3527 -2.3676 -21.7972 -2.2183 -22.1131 -2.2686 C -22.4493 -2.3221 -22.8692 -2.6046 -23.069 -2.8803 C -23.2844 -3.1776 -23.3959 -3.6989 -23.3748 -4.0655 C -23.3657 -4.225 -23.1837 -4.5625 -23.1837 -4.5625 C -23.1837 -4.5625 -23.0378 -4.0338 -22.8778 -3.8743 C -22.6559 -3.6532 -22.2336 -3.4856 -21.922 -3.4538 C -21.7586 -3.4371 -21.4791 -3.8829 -21.3867 -3.9508 z"/>
  <path class="claw outline" d="M 0.111 15.7114 C -0.1274 15.7355 -0.4301 15.5449 -0.6697 15.5426 C -1.031 15.5392 -1.8514 15.7747 -1.8514 15.7747 C -1.8514 15.7747 -1.4771 15.2594 -1.2606 15.0995 C -0.9984 14.9059 -0.5945 14.6658 -0.2688 14.6563 C -0.0185 14.649 0.3464 14.7638 0.512 14.9517 C 0.6196 15.0739 0.7109 15.3335 0.6386 15.4793 C 0.5618 15.6342 0.2831 15.694 0.111 15.7114 z"/>
  <path class="claw outline" d="M -0.8381 17.4005 C -0.6555 17.3947 -0.4082 17.4621 -0.2462 17.5505 C -0.0807 17.6409 0.1716 17.7932 0.2201 17.9818 C 0.251 18.102 0.166 18.2759 0.0945 18.3755 C 0.0435 18.4466 -0.0596 18.5114 -0.1386 18.5442 C -0.3055 18.6135 -0.5754 18.5433 -0.7305 18.638 C -0.8662 18.7208 -0.9932 18.9174 -1.0533 19.0692 C -1.1384 19.2839 -1.2011 19.3818 -1.1789 19.613 C -1.1618 19.7899 -0.9457 20.3254 -0.9457 20.3254 C -0.9457 20.3254 -1.5512 20.0497 -1.7169 19.8567 C -1.959 19.5747 -2.1106 19.2227 -2.0935 18.8442 C -2.0828 18.6052 -1.9251 18.3051 -1.7886 18.113 C -1.6203 17.8759 -1.3189 17.6175 -1.0712 17.4755 C -1.0071 17.4387 -0.9112 17.4028 -0.8381 17.4005 z"/>
  <path class="claw outline" d="M 2.7665 19.1708 C 2.8339 19.0884 2.9817 19.024 3.0881 19.0208 C 3.3507 19.0128 3.7549 19.1251 3.9027 19.3423 C 4.0148 19.5071 3.9447 19.812 3.9027 20.0068 C 3.8402 20.2966 3.6759 20.6721 3.4954 20.9072 C 3.3283 21.1247 2.7879 21.486 2.7879 21.486 C 2.7879 21.486 2.9249 20.856 2.8951 20.5856 C 2.8675 20.3349 2.6292 20.0444 2.6165 19.7925 C 2.6068 19.6009 2.6451 19.3193 2.7665 19.1708 z"/>
  <path class="claw outline" d="M 6.3464 17.7989 C 6.4813 17.602 6.8805 17.5849 7.1182 17.6059 C 7.3218 17.6239 7.4549 17.7096 7.5898 17.8632 C 7.767 18.065 7.8724 18.4533 7.847 18.7206 C 7.8312 18.8867 7.7035 19.0916 7.5898 19.2137 C 7.456 19.3573 7.368 19.514 7.1825 19.5781 C 6.9684 19.6521 6.4322 19.6639 6.4322 19.6639 C 6.4322 19.6639 6.7717 19.3045 6.8181 19.1065 C 6.8684 18.8913 6.8249 18.567 6.7109 18.3777 C 6.6492 18.2752 6.4499 18.245 6.3893 18.1419 C 6.3368 18.0524 6.2878 17.8844 6.3464 17.7989 z"/>
  <path class="body outline" d="M 8.3744 4.2863 C 7.8585 4.4914 7.3141 5.0483 6.9495 5.4669 C 6.7514 5.6944 6.4203 6.3218 6.4203 6.3218 C 6.4203 6.3218 7.222 6.2298 7.5601 6.159 C 8.2301 6.0187 9.075 5.5857 9.7585 5.5483 C 10.364 5.5153 11.1707 5.7058 11.7533 5.874 C 12.4159 6.0653 13.8703 6.7696 13.8703 6.7696 C 13.8703 6.7696 12.5006 4.4932 11.5091 4.0828 C 10.6383 3.7223 9.2501 3.9382 8.3744 4.2863 z"/>
  <path class="body outline" d="M -17.2803 14.9625 C -17.1832 14.834 -17.0063 14.6879 -16.8536 14.6363 C -16.7324 14.5952 -16.5496 14.5996 -16.427 14.6363 C -16.0989 14.7345 -15.7923 15.1391 -15.4734 15.2637 C -14.9546 15.4663 -13.6413 15.5648 -13.6413 15.5648 L -15.0342 17.1961 L -17.2426 17.3968 L -17.6442 16.7067 C -17.6442 16.7067 -17.6992 16.1495 -17.6567 15.9162 C -17.6016 15.6136 -17.4657 15.2079 -17.2803 14.9625 z"/>
  <path class="body outline" d="M -17.2677 14.9751 L -17.2677 14.9751 z"/>
  <path class="body outline" d="M 19.2176 15.8475 C 19.2176 15.8475 18.1117 15.9748 17.7125 15.7623 C 17.4388 15.6166 17.3635 15.0806 17.0877 14.9388 C 16.8225 14.8023 16.3663 14.7891 16.0938 14.9104 C 15.8895 15.0013 15.6111 15.4783 15.6111 15.4783 L 16.1222 16.9266 L 16.8322 17.0402 L 18.0419 17.0175 L 19.2176 15.8475 z"/>
  <path class="body outline" d="M -5.748 -1.0139 L -14.2998 14.2734 L -15.2837 16.6952 L -16.0405 16.8465 C -16.0405 16.8465 -16.9986 16.528 -17.4027 16.6195 C -17.673 16.6807 -18.1595 17.1493 -18.1595 17.1493 L -17.327 19.0412 C -17.327 19.0412 -16.9241 19.3296 -16.7216 19.344 C -16.5067 19.3592 -16.0405 19.1169 -16.0405 19.1169 L -15.7377 18.4358 C -15.7377 18.3151 -14.2338 17.1002 -13.8717 16.9977 C -13.7843 16.9729 -13.7867 16.7269 -13.8717 16.695 C -13.9644 16.6601 -14.0892 16.9707 -14.2752 17.147 C -14.5179 17.3769 -14.5762 17.5784 -14.6947 17.6746 C -15.1492 18.0436 -15.1102 18.1012 -15.208 18.5872 C -15.2505 18.7983 -14.9809 19.2683 -14.9809 19.2683 L -12.5592 19.571 C -12.5592 19.571 -11.7972 19.1443 -11.7267 18.8142 C -11.6439 18.4264 -12.1753 17.9914 -12.2565 17.6033 C -12.3169 17.3144 -12.5475 16.6684 -12.2565 16.6195 C -11.98 16.573 -12.3964 17.1669 -12.298 17.6126 C -12.177 18.1602 -11.5753 18.5872 -11.5753 18.5872 L -10.5915 18.6628 C -10.5915 18.6628 -9.5115 17.7657 -9.305 17.2249 C -9.2725 17.1401 -9.25 16.9945 -9.305 16.9222 C -9.5616 16.5845 -10.6672 16.5438 -10.6672 16.5438 C -10.6672 16.5438 -10.71 16.3679 -10.6415 16.2666 C -10.4887 16.041 -9.9104 16.1654 -9.9104 16.1654 L -9.6834 14.5761 L -9.305 15.56 C -9.305 15.56 -8.7798 14.8408 -8.6496 14.3999 C -8.5531 14.0733 -8.5419 13.5878 -8.6496 13.2647 C -8.7214 13.0493 -8.7495 12.8111 -8.7495 12.8111 C -8.7495 12.8111 -8.221 13.2651 -8.0439 13.6431 C -7.9376 13.8702 -8.0188 14.6021 -8.0188 14.6021 C -8.0188 14.6021 -7.6977 14.2139 -7.6158 14.0172 C -7.4417 13.5989 -7.2745 12.9815 -7.3373 12.5328 C -7.3866 12.1808 -7.6483 11.7534 -7.867 11.4733 C -8.1247 11.1433 -8.2182 11.0458 -8.2182 11.0458 C -8.2182 11.0458 -8.0602 11.0627 -7.8277 11.2271 C -7.5717 11.4082 -7.2307 11.7521 -7.0346 12.0787 C -6.8443 12.3956 -6.8075 13.2896 -6.8075 13.2896 L -6.4121 12.5131 L -6.2778 11.6246 L -6.5805 9.657 C -6.5805 9.657 -5.4657 8.2469 -4.7642 8.0677 C -3.9529 7.8605 -2.8765 8.7013 -2.0397 8.6731 C -1.2355 8.646 -0.2165 8.208 0.5334 7.9163 C 1.7353 7.4489 3.209 6.5351 4.3931 6.0243 C 5.2837 5.6401 6.4741 5.1025 7.4203 4.8891 C 8.465 4.6535 9.9509 4.2806 10.9772 4.5864 C 11.6127 4.7758 12.4007 5.3663 12.7178 5.9487 C 13.1976 6.8296 12.8557 8.2183 12.8678 9.2213 C 12.8698 9.3885 12.5735 9.6094 12.6063 10.138 C 12.6405 10.6883 13.0012 11.5466 12.8522 11.6995 C 12.5909 11.9678 11.823 12.1162 11.823 12.1162 C 11.823 12.1162 12.1971 12.4369 12.649 12.5014 C 13.0091 12.5529 13.4535 12.3651 13.5445 12.2787 C 13.7711 12.0634 13.9575 11.6401 14.0044 11.549 C 14.2433 11.0846 14.0044 9.8083 14.0044 9.8083 C 14.0044 9.8083 14.0301 11.7291 14.5342 12.3058 C 14.7563 12.5599 15.1533 12.5615 15.339 12.8433 C 15.5393 13.1473 15.729 13.4966 15.4862 13.7677 C 15.1325 14.1625 14.4778 14.4843 14.4778 14.4843 C 14.4778 14.4843 15.0757 14.6773 15.6255 14.5365 C 15.9677 14.4488 16.2676 14.2106 16.4262 13.895 C 16.7765 13.1979 16.928 12.0923 16.8046 11.3219 C 16.7323 10.8708 16.1234 9.9597 16.1234 9.9597 C 16.1234 9.9597 16.6573 11.6806 17.2586 12.0787 C 17.6768 12.3556 18.5734 12.2937 18.5734 12.2937 C 18.5734 12.2937 18.1369 13.1164 18.0154 13.5923 C 17.8237 14.3431 18.2425 16.1654 18.2425 16.1654 C 18.2425 16.1654 17.254 16.5678 16.8046 16.6195 C 16.5105 16.6533 16.0849 16.4104 15.8207 16.5438 C 15.6295 16.6404 15.4423 17.1493 15.4423 17.1493 L 16.5018 19.0412 C 16.5018 19.0412 17.1027 19.2965 17.3343 19.1926 C 17.7238 19.0178 17.7735 18.3149 18.0749 17.9776 C 18.3729 17.6441 19.1506 17.1493 19.1506 17.1493 L 18.6209 18.9656 L 18.9993 19.4953 L 20.7399 19.4953 C 20.7399 19.4953 21.2831 18.8464 21.2697 18.5115 C 21.2512 18.0521 20.4372 17.2249 20.4372 17.2249 C 20.4372 17.2249 20.8892 17.2676 21.1105 17.392 C 21.3862 17.5468 21.6481 18.0574 21.6481 18.0574 L 22.4805 18.0574 L 23.4644 17.3006 C 23.4644 17.3006 23.6112 16.6702 23.4644 16.4681 C 23.2051 16.1113 22.0661 16.0141 22.0661 16.0141 L 22.9346 14.9545 L 22.4049 14.0464 C 22.4049 14.0464 23.6015 14.7508 24.1455 14.6518 C 24.4944 14.5883 24.891 14.2102 25.0536 13.895 C 25.1894 13.632 25.1293 12.9112 25.1293 12.9112 C 25.1293 12.9112 24.8783 13.4151 24.6752 13.5166 C 24.4925 13.608 24.1343 13.6653 23.9941 13.5166 C 23.7289 13.2353 24.0698 12.2301 24.0698 12.2301 C 24.0698 12.2301 24.9741 12.0137 25.2807 11.776 C 25.4997 11.6062 25.8043 11.2963 25.8104 11.0192 C 25.817 10.7232 25.2807 10.1867 25.2807 10.1867 C 25.2807 10.1867 25.3583 10.6265 25.205 10.7955 C 25.0495 10.967 24.6627 11.1819 24.4482 11.0949 C 24.0397 10.9291 23.6157 9.884 23.6157 9.884 C 23.6157 9.884 24.4177 9.4842 24.5729 9.0849 C 24.6342 8.9269 24.6277 8.5288 24.4708 8.3108 C 24.2351 7.9832 24.0464 7.8918 24.0464 7.8918 C 24.0464 7.8918 24.2123 8.4149 23.9941 8.5974 C 23.7739 8.7817 23.3722 8.9235 23.086 8.9002 C 22.6001 8.8605 21.977 8.5032 21.6481 8.1434 C 21.2498 7.7077 21.094 7.0873 20.8642 6.5435 C 20.7969 6.3843 20.7029 6.0795 20.7029 6.0795 C 20.7029 6.0795 21.5192 6.0233 21.848 5.8624 C 22.0788 5.7496 22.4271 5.2917 22.4805 5.0405 C 22.5604 4.665 22.3462 4.0519 22.0223 3.8458 C 21.7534 3.6747 21.2334 3.8132 21.2334 3.8132 C 21.2334 3.8132 21.6032 4.1488 21.7275 4.3328 C 21.8157 4.4634 21.5846 4.8088 21.5025 4.9433 C 21.4354 5.0531 21.206 5.0464 21.0802 5.0189 C 20.4588 4.8831 19.9061 4.2663 19.529 3.7539 C 19.2609 3.3896 19.0749 2.316 19.0749 2.316 C 19.0749 2.316 20.2792 2.2267 20.7399 2.0133 C 21.4864 1.6675 22.3817 0.9428 22.8589 0.2727 C 23.2382 -0.2598 23.5102 -1.1256 23.6157 -1.7707 C 23.7368 -2.5104 23.6792 -3.5316 23.5401 -4.2681 C 23.4148 -4.9314 23.1291 -5.8074 22.7833 -6.3871 C 22.4703 -6.9118 21.421 -7.9007 21.421 -7.9007 C 21.421 -7.9007 20.8519 -8.2568 20.7399 -8.5062 C 20.6376 -8.734 20.5895 -9.1393 20.7399 -9.3387 C 20.8394 -9.4706 21.1377 -9.5896 21.2697 -9.49 C 21.3965 -9.3943 21.6475 -8.5819 21.6475 -8.5819 C 21.6475 -8.5819 22.0007 -8.7802 22.1778 -9.1116 C 22.3186 -9.375 22.1422 -9.8202 22.0265 -10.0955 C 21.9384 -10.3047 21.7726 -10.5938 21.5724 -10.7009 C 21.2115 -10.894 20.5663 -10.9465 20.1647 -10.8674 C 19.6466 -10.7653 19.1032 -10.4187 18.7571 -10.0198 C 18.5077 -9.7323 18.279 -9.1877 18.2425 -8.8089 C 18.2227 -8.6043 18.2727 -8.0824 18.2727 -8.0824 C 18.2727 -8.0824 15.6887 -8.3302 14.4585 -8.2791 C 13.2282 -8.2281 11.4475 -7.8019 10.1447 -7.7494 C 9.5998 -7.7274 8.8625 -7.7149 8.3284 -7.8251 C 7.519 -7.992 6.4093 -8.3036 5.7553 -8.8089 C 5.4462 -9.0477 5.1426 -9.5054 4.9985 -9.8684 C 4.8125 -10.337 4.7648 -11.0084 4.9829 -11.4629 C 5.1547 -11.821 5.5211 -12.1191 5.9067 -12.2145 C 6.304 -12.3128 6.9268 -12.3636 7.2689 -12.1388 C 7.4386 -12.0273 7.6118 -11.7324 7.5716 -11.5334 C 7.5302 -11.3282 7.2444 -11.1322 7.0419 -11.0793 C 6.8179 -11.0207 6.2851 -11.2306 6.2851 -11.2306 C 6.2851 -11.2306 6.1829 -10.8142 6.3608 -10.5776 C 6.5938 -10.2674 7.1866 -10.0757 7.5716 -10.1235 C 7.9279 -10.1677 8.4392 -10.4923 8.6717 -10.7659 C 9.0144 -11.1692 9.3123 -12.0676 9.3123 -12.0676 C 9.3123 -12.0676 11.1742 -11.8786 11.9611 -11.9919 C 12.9773 -12.1383 14.0396 -12.3135 14.9507 -12.7868 C 15.4544 -13.0485 16.2475 -13.4836 16.5635 -13.9551 C 16.9161 -14.4812 17.068 -15.3147 16.9279 -15.9323 C 16.8031 -16.4823 16.3346 -16.9024 15.7918 -17.0553 C 15.3771 -17.1721 14.6194 -16.8169 14.6194 -16.8169 C 14.6194 -16.8169 15.2997 -16.7541 15.5275 -16.5899 C 15.7677 -16.4168 16.0407 -16.1739 16.1234 -15.8897 C 16.1615 -15.7589 16.0607 -15.3543 15.9911 -15.2372 C 15.8459 -14.9926 15.5477 -14.8394 15.291 -14.717 C 14.9142 -14.5373 14.3226 -14.5216 13.9052 -14.518 C 13.3445 -14.513 12.4775 -14.9986 11.933 -15.1329 C 11.5338 -15.2314 10.4385 -15.1189 10.4385 -15.1189 C 10.4385 -15.1189 11.1521 -16.0858 11.1572 -16.4526 C 11.1635 -16.9122 11.1272 -17.5433 10.8259 -17.8905 C 10.6061 -18.1436 10.1724 -18.3633 9.842 -18.4202 C 9.5477 -18.4709 9.3353 -18.4802 9.1409 -18.2536 C 9.0226 -18.1157 8.8267 -17.8423 8.8582 -17.6634 C 8.9043 -17.4017 9.0234 -17.2512 9.0234 -17.2512 C 9.0234 -17.2512 9.1822 -17.5063 9.3879 -17.6634 C 9.4962 -17.7461 9.7315 -17.7431 9.842 -17.6634 C 9.9585 -17.5795 10.1741 -17.1957 10.1483 -17.0544 C 10.0644 -16.5939 9.3001 -16.075 8.8933 -15.8435 C 8.2723 -15.4901 7.3414 -15.8431 6.653 -15.6514 C 5.9178 -15.4466 4.9059 -15.1405 4.307 -14.6676 C 3.7332 -14.2145 3.1046 -13.392 2.869 -12.6999 C 2.6172 -11.96 2.6238 -10.856 2.8038 -10.0955 C 2.9816 -9.3443 3.4962 -8.397 4.0147 -7.8251 C 4.6194 -7.1579 5.6915 -6.5308 6.5121 -6.1601 C 7.1545 -5.8699 8.0798 -5.6806 8.7825 -5.6251 C 9.4424 -5.5731 10.3185 -5.717 10.9772 -5.7817 C 11.953 -5.8776 14.2314 -6.0844 14.2314 -6.0844 C 14.2314 -6.0844 12.5876 -5.5666 12.0367 -5.1006 C 11.6617 -4.7834 11.1938 -4.2252 11.1286 -3.7384 C 11.0809 -3.3826 11.2477 -2.8514 11.507 -2.6032 C 11.7457 -2.3745 12.5665 -2.3004 12.5665 -2.3004 C 12.5665 -2.3004 12.0044 -2.8387 12.0367 -3.1329 C 12.0472 -3.2287 12.1716 -3.332 12.2638 -3.36 C 12.4854 -3.4271 12.7902 -3.1852 13.0206 -3.2086 C 13.6582 -3.2735 14.5445 -3.5785 14.9882 -4.0411 C 15.2568 -4.321 15.4423 -5.2519 15.4423 -5.2519 C 15.4423 -5.2519 15.119 -3.8265 15.4423 -3.36 C 15.6633 -3.0411 16.3052 -2.6986 16.685 -2.6193 C 17.1079 -2.5311 17.6878 -2.6754 18.0911 -2.8302 C 18.3609 -2.9337 18.747 -3.2234 18.7722 -3.5113 C 18.7964 -3.7874 18.2425 -4.2681 18.2425 -4.2681 C 18.2425 -4.2681 18.3548 -3.8507 18.2425 -3.7384 C 18.098 -3.5939 17.7526 -3.6665 17.5614 -3.7384 C 17.3354 -3.8232 17.0556 -4.0483 16.9559 -4.2681 C 16.8715 -4.4542 16.8728 -4.7626 16.9559 -4.9492 C 17.0802 -5.2283 17.4321 -5.5096 17.7127 -5.6303 C 18.2358 -5.8554 19.0638 -5.9597 19.6047 -5.7817 C 20.262 -5.5654 21.0133 -4.8752 21.3453 -4.2681 C 21.7198 -3.5836 21.8987 -2.4554 21.7237 -1.695 C 21.5882 -1.1059 21.064 -0.4034 20.5885 -0.03 C 20.1308 0.3293 18.7722 0.6511 18.7722 0.6511 C 18.7722 0.6511 16.2722 0.6402 15.6363 0.5051 C 13.9114 0.1388 12.766 -0.6028 11.0154 -0.8146 C 10.3389 -0.8964 9.227 -0.9861 8.5457 -1.0042 C 7.388 -1.0348 5.5825 -0.9106 4.4298 -1.0229 C 2.4794 -1.2129 -1.9431 -1.6663 -1.9431 -1.6663 L -4.4615 -2.3004 L -5.748 -1.0139 z"/>
  <path class="outline" d="M 5.734 -13.3938 C 5.734 -13.3938 6.6545 -13.5185 7.051 -13.51 C 7.4963 -13.5005 7.971 -13.402 8.368 -13.2001 C 8.6685 -13.0474 9.1583 -12.6178 9.2548 -12.2949 C 9.2921 -12.1705 9.1774 -11.8688 9.1774 -11.8688"/>
  <path class="outline" d="M 9.7625 -13.3938 C 9.7625 -13.3938 10.835 -12.7836 11.3221 -12.5864 C 11.7365 -12.4187 13.1713 -12.193 13.1713 -12.193"/>
  <path class="outline" d="M 12.4741 -13.51 C 12.4741 -13.51 13.2349 -13.0605 13.5974 -12.9677 C 14.037 -12.8552 15.1081 -12.8903 15.1081 -12.8903"/>
  <path class="outline" d="M 10.576 -15.1369 C 10.576 -15.1369 9.8922 -14.7094 9.5689 -14.5946 C 9.3347 -14.5115 8.9978 -14.3854 8.7554 -14.4397 C 8.6012 -14.4742 8.3293 -14.7496 8.3293 -14.7496"/>
  <path class="outline" d="M 17.2132 -8.1429 C 17.2132 -8.1429 17.6629 -8.1849 17.8489 -8.1429 C 18.4671 -8.0033 19.7561 -7.2348 19.7561 -7.2348 C 19.7561 -7.2348 19.4577 -8.181 19.4836 -8.597 C 19.5077 -8.9839 19.6383 -9.5301 19.8923 -9.823 C 20.0919 -10.0531 20.504 -10.2071 20.8004 -10.2771 C 20.88 -10.2959 21.0729 -10.2771 21.0729 -10.2771"/>
  <path class="outline" d="M 12.052 -3.2463 C 12.052 -3.2463 12.287 -3.8108 12.4943 -3.9928 C 12.7252 -4.1956 13.3471 -4.3812 13.626 -4.5103 C 13.8114 -4.5961 14.0696 -4.7415 14.1709 -4.919 C 14.2321 -5.0261 14.2163 -5.3276 14.2163 -5.3276"/>
  <path class="outline" d="M 15.7085 -6.0834 L 15.3468 -4.9581"/>
  <path class="outline" d="M 19.1647 2.3562 C 19.1647 2.3562 18.3428 1.9796 17.9189 1.874 C 17.5445 1.7807 17.0083 1.9626 16.6328 1.874 C 16.318 1.7996 15.6683 1.3917 15.6683 1.3917"/>
  <path class="outline" d="M 15.7085 3.0796 C 15.7085 3.0796 16.5469 3.2329 16.8338 3.4413 C 17.267 3.7559 17.4047 4.4934 17.7665 4.8881 C 18.0033 5.1464 18.3452 5.3649 18.4935 5.6068 C 18.6201 5.8132 18.802 6.3526 18.802 6.3526 C 18.802 6.3526 19.0213 5.7713 19.0123 5.4664 C 19.0089 5.3487 19.004 4.6068 19.004 4.6068 C 19.004 4.6068 19.7457 5.6612 20.2096 5.933 C 20.3484 6.0143 20.7321 6.0536 20.7321 6.0536"/>
  <path class="outline" d="M 21.9563 9.5053 C 21.9563 9.5053 22.5101 9.8394 22.7739 9.9141 C 22.9977 9.9775 23.5462 9.9823 23.5462 9.9823"/>
  <path class="outline" d="M 23.9778 12.6624 C 23.9778 12.6624 23.7639 11.9647 23.5916 11.7085 C 23.4007 11.4246 23.0707 11.0838 22.7739 10.9135 C 22.6635 10.8501 22.3651 10.7999 22.3651 10.7999"/>
  <path class="outline" d="M 21.7746 11.7766 C 21.7746 11.7766 22.4652 12.0328 22.6604 12.2763 C 22.9485 12.6359 23.0596 13.2765 23.2736 13.6845 C 23.3817 13.8905 23.5147 14.1822 23.6825 14.3432 C 23.8124 14.4679 24.2049 14.6385 24.2049 14.6385"/>
  <path class="outline" d="M 22.4787 14.207 C 22.4787 14.207 21.859 13.2358 21.7064 13.0259 C 21.5787 12.8501 21.2067 12.617 21.2067 12.617"/>
  <path class="outline" d="M 0.9403 -0.1847 L 1.5785 1.1514"/>
  <path class="outline" d="M 1.7458 -0.3891 L 2.1646 0.693"/>
  <path class="outline" d="M 2.5112 -0.4412 L 2.9251 0.2425"/>
  <path class="outline" d="M 3.1804 -0.5889 L 3.5491 0.1008"/>
  <path class="outline" d="M 20.05 11.0041 L 19.6352 11.6064 L 18.696 12.2267 C 18.696 12.2267 18.8369 12.452 18.9852 12.5422 C 19.0802 12.5998 19.3006 12.6432 19.4059 12.6079 C 19.6021 12.5421 19.8689 12.4152 19.9975 12.253 C 20.0618 12.1718 20.1026 11.9243 20.1026 11.9243"/>
  <path class="outline" d="M 16.7896 8.6483 C 16.7896 8.6483 16.919 9.4341 17.1261 9.6885 C 17.3194 9.926 17.7218 10.0996 18.0133 10.1933 C 18.2637 10.2738 18.5016 10.3322 18.7476 10.2392 C 18.9633 10.1577 19.4054 9.7191 19.4054 9.7191 C 19.4054 9.7191 19.2438 10.333 19.0689 10.5299 C 18.8382 10.7894 18.3999 11.0287 18.0592 11.0959 C 17.837 11.1397 17.524 11.0775 17.3097 11.0041 C 17.0215 10.9054 16.4377 10.484 16.4377 10.484"/>
  <path class="outline" d="M 15.0915 10.3616 C 15.0915 10.3616 15.1242 11.1508 15.3057 11.4324 C 15.4474 11.6523 15.7774 11.8186 15.9329 12.029 C 16.0788 12.2264 16.2068 12.454 16.2847 12.6868 C 16.3682 12.936 16.5121 13.7446 16.5121 13.7446"/>
  <path class="outline" d="M 17.7545 2.6777 C 17.7545 2.6777 18.3813 3.25 18.5729 3.5546 C 18.7783 3.8812 19.0405 4.7529 19.0405 4.7529"/>
  <path class="outline" d="M -0.231 8.357 C -0.231 8.357 -1.2911 8.1799 -1.6947 7.9718 C -2.0156 7.8063 -2.4156 7.4996 -2.6191 7.2014 C -2.8457 6.8694 -3.0429 5.9303 -3.0429 5.9303"/>
  <path class="outline" d="M 0.9631 7.7021 C 0.9631 7.7021 -0.2816 7.6125 -0.7205 7.3716 C -0.98 7.2293 -1.2995 6.9811 -1.4909 6.7553 C -1.705 6.5028 -2.0302 5.7924 -2.0302 5.7924"/>
  <path class="outline" d="M 2.2343 7.1629 C 2.2343 7.1629 0.5767 6.7807 -0.0769 6.4695 C -0.3923 6.3194 -1.092 5.6059 -1.092 5.6059"/>
  <path class="outline" d="M -0.3192 5.1959 C -0.3192 5.1959 0.1267 5.686 0.3854 5.7762 C 0.6186 5.8575 0.9215 5.951 1.1658 5.9871 C 1.3843 6.0193 1.8125 6.0357 1.8125 6.0357"/>
  <path class="outline" d="M 0.732 4.9673 C 0.732 4.9673 0.9798 5.2533 1.1172 5.314 C 1.2922 5.3912 1.5853 5.3881 1.772 5.4295 C 1.9525 5.4696 2.3884 5.4295 2.3884 5.4295"/>
  <path class="outline" d="M 1.8106 4.7362 C 1.8106 4.7362 2.4572 4.8472 2.735 4.8902 C 2.8965 4.9152 3.2743 4.9673 3.2743 4.9673"/>
  <path class="outline" d="M 3.1587 4.351 C 3.1587 4.351 4.0519 4.4052 4.4299 4.4665 C 4.6291 4.4989 5.0847 4.6206 5.0847 4.6206"/>
  <path class="outline" d="M 4.2758 3.8502 C 4.2758 3.8502 5.1455 3.9821 5.5084 4.0813 C 5.7693 4.1527 6.3558 4.3895 6.3558 4.3895 C 6.3558 4.3895 6.3558 4.3895 6.3558 4.3895"/>
  <path class="outline" d="M 5.8936 3.5036 C 5.8936 3.5036 6.4932 3.5844 6.741 3.6576 C 6.9725 3.7261 7.2859 3.8287 7.4835 3.9673 C 7.6755 4.1021 8.0122 4.5436 8.0122 4.5436"/>
  <path class="claw outline" d="M -16.5923 15.2318 C -16.8249 14.9657 -17.1907 14.8118 -17.544 14.824 C -17.8478 14.8344 -18.2136 15.0864 -18.4503 15.2772 C -18.695 15.4743 -19.0215 15.7906 -19.1074 16.0929 C -19.1524 16.251 -19.1434 16.3805 -19.0621 16.5234 C -18.9855 16.6581 -18.7675 16.9086 -18.7675 16.9086 C -18.7675 16.9086 -18.7203 16.5804 -18.6316 16.4781 C -18.4982 16.3241 -18.216 16.2384 -18.0198 16.1835 C -17.8159 16.1265 -17.5254 16.155 -17.3174 16.1155 C -17.1715 16.0879 -16.966 16.0606 -16.8415 15.9796 C -16.7081 15.8927 -16.536 15.7273 -16.5017 15.5717 C -16.4789 15.4687 -16.5228 15.3113 -16.5923 15.2318 z"/>
  <path class="claw outline" d="M -16.8415 17.3391 C -16.7469 17.5044 -16.7416 17.7995 -16.8189 17.9736 C -16.8874 18.1279 -17.0917 18.2757 -17.2494 18.3361 C -17.4527 18.4139 -17.7747 18.2723 -17.9745 18.3588 C -18.2127 18.4618 -18.454 18.7472 -18.5863 18.9705 C -18.6729 19.1168 -18.7448 19.3444 -18.7449 19.5144 C -18.745 19.7338 -18.541 20.2168 -18.541 20.2168 C -18.541 20.2168 -19.2899 19.648 -19.4247 19.2878 C -19.5319 19.001 -19.4726 18.5598 -19.3793 18.2681 C -19.2955 18.0059 -19.077 17.6908 -18.8808 17.4977 C -18.698 17.3178 -18.4013 17.1187 -18.1558 17.0445 C -17.9214 16.9738 -17.576 16.9567 -17.34 17.0219 C -17.1692 17.0691 -16.9296 17.1853 -16.8415 17.3391 z"/>
  <path class="claw outline" d="M -13.3068 19.0612 C -13.3332 18.8096 -13.5378 18.6267 -13.7826 18.5627 C -14.0523 18.4922 -14.4976 18.4973 -14.7116 18.676 C -14.8661 18.805 -14.8106 19.1352 -14.8476 19.3331 C -14.8931 19.577 -14.9797 19.9007 -14.9835 20.1488 C -14.9874 20.4026 -14.957 20.7487 -14.8702 20.9872 C -14.818 21.1307 -14.726 21.3338 -14.5983 21.4177 C -14.4143 21.5386 -13.8732 21.531 -13.8732 21.531 C -13.8732 21.531 -14.2865 21.2295 -14.3491 21.0325 C -14.4052 20.8557 -14.331 20.5915 -14.2584 20.4207 C -14.1408 20.1442 -13.8495 19.8493 -13.6466 19.6277 C -13.4842 19.4502 -13.2816 19.3004 -13.3068 19.0612 z"/>
  <path class="claw outline" d="M -9.9079 17.5884 C -9.6474 17.721 -9.3846 17.8722 -9.2508 18.1322 C -9.1046 18.4162 -9.1216 18.905 -9.2508 19.1971 C -9.3326 19.382 -9.4466 19.5587 -9.6134 19.673 C -9.7889 19.7933 -10.2478 19.9902 -10.2478 19.9902 C -10.2478 19.9902 -10.1295 19.6136 -10.1119 19.4464 C -10.0911 19.2502 -10.0508 18.9679 -10.1345 18.7893 C -10.2428 18.5582 -10.68 18.462 -10.769 18.2228 C -10.8239 18.075 -10.7981 17.8258 -10.701 17.7017 C -10.5976 17.5694 -10.3477 17.502 -10.1798 17.4977 C -10.0939 17.4955 -9.9846 17.5493 -9.9079 17.5884 z"/>
  <path class="claw outline" d="M 16.2485 15.5372 C 16.074 15.3612 15.6793 15.3683 15.4337 15.4014 C 15.1446 15.4402 15.0195 15.4876 14.7787 15.6522 C 14.5685 15.7958 14.2671 16.0065 14.1675 16.2407 C 14.0612 16.4907 14.1675 17.1461 14.1675 17.1461 C 14.1675 17.1461 14.6639 16.5007 14.9597 16.3312 C 15.2813 16.1471 15.5884 16.3331 15.9316 16.1936 C 16.0557 16.1431 16.2592 16.0883 16.3164 15.9672 C 16.3722 15.8491 16.3405 15.6299 16.2485 15.5372 z"/>
  <path class="claw outline" d="M 15.9218 17.361 C 16.1728 17.3717 16.2917 17.315 16.4651 17.4968 C 16.6163 17.6555 16.7425 17.9921 16.6688 18.1985 C 16.6244 18.3227 16.422 18.3836 16.3066 18.4475 C 16.1124 18.555 15.7973 18.5985 15.6276 18.7417 C 15.4851 18.862 15.3412 19.0836 15.2881 19.2623 C 15.2455 19.4055 15.2551 19.6146 15.2881 19.7603 C 15.3229 19.9143 15.4591 20.0077 15.537 20.1451 C 15.5612 20.1876 15.1497 20.1444 14.9712 20.0545 C 14.7867 19.9617 14.5695 19.7619 14.4732 19.5792 C 14.3353 19.3175 14.4042 19.0592 14.4279 18.7643 C 14.4503 18.4861 14.6787 18.2937 14.8354 18.0627 C 14.9949 17.8274 15.3066 17.581 15.5597 17.4515 C 15.6594 17.4005 15.8099 17.3562 15.9218 17.361 z"/>
  <path class="claw outline" d="M 19.2491 19.1718 C 19.2491 19.1718 19.664 18.9487 19.8603 18.9228 C 19.9688 18.9085 20.0397 18.909 20.1319 18.9681 C 20.327 19.0931 20.5298 19.3929 20.5393 19.6245 C 20.5521 19.937 20.2246 20.2841 20.064 20.5525 C 19.9537 20.7367 19.7471 21.141 19.7471 21.141 C 19.7471 21.141 19.221 19.9526 19.1925 19.7084 C 19.1584 19.4157 19.2368 19.1965 19.2491 19.1718 z"/>
  <path class="claw outline" d="M 23.0065 16.9762 C 23.1613 16.925 23.4003 16.9333 23.5497 16.9988 C 23.7344 17.0799 23.957 17.2843 24.025 17.4742 C 24.1194 17.7375 24.0305 18.1394 23.9345 18.4022 C 23.8072 18.7507 23.2328 19.4208 23.2328 19.4208 C 23.2328 19.4208 23.2469 18.8319 23.2102 18.5833 C 23.1876 18.4301 23.1686 18.2082 23.0744 18.0853 C 22.9595 17.9356 22.6251 17.932 22.5311 17.7684 C 22.4703 17.6624 22.4785 17.4713 22.5311 17.361 C 22.6101 17.1954 22.8323 17.0338 23.0065 16.9762 z"/>
  <path class="outline" d="M -11.5304 5.7598 C -11.5304 5.7598 -11.257 4.6602 -11.028 4.205 C -10.8788 3.9083 -10.3364 3.3406 -10.3364 3.3406"/>
  <path class="langue outline" d="M -5.7198 -5.9966 C -5.7198 -5.9966 -4.3789 -6.273 -3.8092 -6.1477 C -3.4043 -6.0587 -2.8696 -5.8719 -2.5106 -5.6669 C -1.9951 -5.3725 -1.4 -4.4762 -0.8694 -4.2068 C -0.6196 -4.08 -0.4115 -3.9712 -0.1659 -4.0687 C 0.2738 -4.2433 0.2229 -4.9144 0.5625 -5.2149 C 0.7285 -5.3618 1.0481 -5.4618 1.2862 -5.4865 C 1.5809 -5.5171 2.0104 -5.4767 2.285 -5.3468 C 2.4561 -5.266 2.7366 -4.9263 2.7366 -4.9263 C 2.7366 -4.9263 2.1847 -4.8602 2.0107 -4.7342 C 1.6289 -4.4576 1.5857 -3.7334 1.2263 -3.4339 C 1.0846 -3.3159 0.8212 -3.2471 0.6338 -3.1951 C 0.4412 -3.1418 0.174 -3.0681 -0.0326 -3.0872 C -0.4928 -3.1298 -1.0983 -3.3678 -1.4994 -3.6006 C -1.9888 -3.8848 -2.3616 -4.672 -2.851 -4.9562 C -3.2229 -5.1721 -3.8333 -5.2235 -4.2571 -5.3008 C -4.5673 -5.3574 -5.2968 -5.3236 -5.2968 -5.3236 L -5.7198 -5.9966 z"/>
  <path class="teeth outline" d="M 0.201 -6.3752 C 0.2079 -6.5631 0.14 -6.5241 -0.0065 -6.6419 C -0.1542 -6.7605 -0.1397 -6.7914 -0.3152 -6.7201 C -0.4742 -6.6555 -0.4937 -6.7079 -0.5691 -6.5537 C -0.7636 -6.1559 -0.8575 -5.7216 -0.834 -5.2794 C -0.824 -5.0916 -0.7135 -4.8151 -0.7135 -4.8151 C -0.7135 -4.8151 -0.5221 -4.9277 -0.391 -5.1028 C -0.1137 -5.4729 0.1842 -5.9131 0.201 -6.3752 z"/>
  <path class="teeth outline" d="M -1.1353 -3.2648 C -1.1925 -3.0857 -1.2431 -3.1454 -1.4209 -3.0842 C -1.6 -3.0226 -1.5968 -2.9886 -1.7378 -3.1151 C -1.8655 -3.2298 -1.9016 -3.1871 -1.9203 -3.3577 C -1.9685 -3.7979 -1.9097 -4.2383 -1.7379 -4.6464 C -1.6649 -4.8197 -1.4672 -5.0424 -1.4672 -5.0424 C -1.4672 -5.0424 -1.3253 -4.8716 -1.2612 -4.6625 C -1.1258 -4.2203 -0.9946 -3.7053 -1.1353 -3.2648 z"/>
  <path class="body outline" d="M -6.4913 -5.8001 C -6.4913 -5.8001 -5.4169 -3.4533 -4.7422 -2.588 C -4.1019 -1.7669 -2.8281 -1.0585 -2.1905 -0.2353 C -1.5468 0.5958 -0.8551 1.8516 -0.5349 2.8528 C -0.3149 3.5405 -0.2617 4.5187 -0.2302 5.24 C -0.2013 5.9012 -0.5406 6.8212 -0.3176 7.4443 C -0.228 7.6947 0.0572 7.9492 0.2715 8.1066 C 0.7521 8.4597 1.6741 8.49 2.0837 8.9234 C 2.4676 9.3297 2.7897 10.1049 2.752 10.6625 C 2.7308 10.976 2.515 11.4148 2.2481 11.5808 C 1.9529 11.7644 1.0901 11.6315 1.0901 11.6315 C 1.0901 11.6315 1.6697 11.1348 1.6874 10.8372 C 1.7016 10.5995 1.4882 10.2813 1.2893 10.1505 C 0.9908 9.9542 0.456 10.0857 0.1069 10.0103 C -0.3225 9.9175 -0.8878 9.7467 -1.2888 9.5673 C -1.5894 9.4329 -2.2335 9.0086 -2.2335 9.0086 C -2.2335 9.0086 -2.2673 10.0922 -2.5139 10.4612 C -2.7034 10.7447 -3.2477 10.8223 -3.4627 11.0869 C -3.6665 11.3377 -3.8408 11.7659 -3.8589 12.0885 C -3.8897 12.6357 -3.3816 13.8519 -3.3816 13.8519 C -3.3816 13.8519 -4.5313 13.0044 -4.8179 12.4826 C -5.0631 12.036 -5.217 11.3212 -5.1469 10.8166 C -5.0806 10.339 -4.4265 9.8665 -4.4175 9.3844 C -4.4061 8.7726 -5.2748 7.5335 -5.2748 7.5335 C -5.2748 7.5335 -5.6829 8.5201 -5.9351 8.8988 C -6.1054 9.1542 -6.5816 9.3594 -6.6137 9.6647 C -6.6568 10.0742 -5.9867 10.4504 -5.9372 10.8593 C -5.8875 11.2703 -6.1097 11.8261 -6.3111 12.1879 C -6.4546 12.4458 -6.7171 12.7707 -6.9755 12.9132 C -7.3654 13.1283 -7.9923 13.2124 -8.4362 13.1773 C -8.5907 13.165 -8.9238 13.0066 -8.9238 13.0066 C -8.9238 13.0066 -7.9141 12.7692 -7.6357 12.454 C -7.4816 12.2795 -7.3971 11.9401 -7.4203 11.7084 C -7.4486 11.4266 -7.7133 11.1154 -7.8571 10.8714 C -8.063 10.522 -8.4641 10.1249 -8.6027 9.7438 C -8.7448 9.3529 -8.7933 8.7808 -8.7591 8.3664 C -8.7228 7.928 -8.3568 6.9564 -8.3568 6.9564 C -8.3568 6.9564 -8.5871 7.716 -8.9077 7.9965 C -9.1001 8.1649 -9.7015 8.3576 -9.9049 8.5126 C -10.0709 8.6391 -10.3125 8.8341 -10.362 9.0367 C -10.4242 9.2908 -10.2105 9.628 -10.1569 9.8839 C -10.1082 10.116 -10.0188 10.6621 -10.0188 10.6621 C -10.0188 10.6621 -10.9331 9.7736 -11.1828 9.2968 C -11.4071 8.8684 -11.6759 8.2153 -11.5952 7.7385 C -11.5528 7.4883 -11.2751 7.2398 -11.1218 7.0376 C -11.0131 6.8943 -10.8403 6.7255 -10.7337 6.5805 C -10.6317 6.4416 -10.4315 6.2672 -10.4269 6.095 C -10.4193 5.8023 -10.9043 5.2437 -10.9043 5.2437 C -10.9043 5.2437 -10.9346 5.8062 -11.0385 6.0177 C -11.2119 6.3709 -11.9243 6.9848 -11.9243 6.9848 C -11.9243 6.9848 -11.7327 6.2733 -11.8552 6.0055 C -12.0692 5.5375 -12.8865 5.3621 -13.2285 4.9775 C -13.6241 4.5326 -14.0332 3.8247 -14.2239 3.2607 C -14.4368 2.6315 -14.5408 1.7277 -14.5042 1.0645 C -14.4828 0.6757 -14.1423 0.188 -14.1994 -0.1971 C -14.264 -0.6322 -14.8255 -1.0369 -14.943 -1.4608 C -15.0346 -1.7915 -14.8368 -2.2818 -14.9531 -2.6046 C -15.0867 -2.9756 -15.7384 -3.2327 -15.782 -3.6245 C -15.828 -4.0385 -15.4115 -4.5326 -15.1643 -4.8679 C -14.7941 -5.3699 -13.6588 -6.3021 -13.6588 -6.3021 L -12.5312 -8.8721 L -10.6356 -9.9874 L -5.4612 -6.3973 L -6.4913 -5.8001 z"/>
  <path class="body outline" d="M -9.0567 -13.7963 C -9.0567 -13.7963 -9.2229 -14.3062 -9.1959 -14.6807 C -9.1794 -14.909 -8.9246 -15.5063 -8.7822 -15.7974 C -8.6487 -16.0701 -8.5136 -16.1486 -8.5136 -16.1486 C -8.5136 -16.1486 -8.5791 -15.7809 -8.5619 -15.5733 C -8.5332 -15.2242 -8.1819 -14.4692 -8.1819 -14.4692 C -8.1819 -14.4692 -8.1356 -14.9021 -8.0631 -15.0713 C -7.839 -15.594 -6.9693 -16.6196 -6.9693 -16.6196 C -6.9693 -16.6196 -7.1718 -15.388 -7.0227 -14.8911 C -6.8939 -14.462 -6.5249 -14.4587 -6.1738 -14.1804 C -5.2953 -13.4843 -3.3824 -13.1109 -2.4015 -12.2531 C -1.9974 -11.8998 -1.2662 -10.8934 -1.2662 -10.8934 C -1.2662 -10.8934 -0.2091 -10.0606 0.5017 -9.9483 C 0.7628 -9.9071 1.1279 -10.0308 1.3567 -9.8983 C 1.7622 -9.6634 2.1148 -9.5498 2.4393 -9.3116 C 2.8476 -9.012 2.5363 -8.0424 2.2283 -7.6405 C 2.1251 -7.5058 1.871 -7.4411 1.7767 -7.3 C 1.6193 -7.0644 1.7085 -6.6134 1.5398 -6.3858 C 1.3406 -6.1172 0.9211 -5.8401 0.5885 -5.8047 C 0.1323 -5.7563 -0.4175 -6.1257 -0.7791 -6.4081 C -1.1759 -6.7181 -1.6773 -6.8483 -1.7821 -7.3408 C -1.8243 -7.5395 -1.9171 -8.2606 -1.9171 -8.2606 C -1.9171 -8.2606 -2.8209 -7.9914 -3.1423 -7.6092 C -3.4225 -7.276 -3.6289 -6.66 -3.5846 -6.2268 C -3.5193 -5.5883 -3.0215 -4.7802 -2.5335 -4.3632 C -2.0952 -3.9886 -1.1553 -4.0838 -0.7329 -3.6914 C -0.3977 -3.3799 -0.0608 -3.0848 -0.0667 -2.6272 C -0.0705 -2.331 -0.2106 -1.7531 -0.4665 -1.6038 C -0.7624 -1.4312 -1.1247 -1.8161 -1.3844 -1.5928 C -1.5315 -1.4662 -1.7305 -0.8414 -1.7305 -0.8414 C -1.7305 -0.8414 -2.2856 -1.5595 -2.3467 -1.9296 C -2.3855 -2.1643 -2.1986 -2.7087 -2.1986 -2.7087 C -2.1986 -2.7087 -4.0012 -3.2067 -4.7543 -3.4787 C -5.2754 -3.6669 -6.217 -3.8531 -6.6031 -4.2505 C -6.9055 -4.5616 -7.0375 -5.1158 -6.9806 -5.5459 C -6.9596 -5.7045 -6.6641 -5.9753 -6.6641 -5.9753 C -6.6641 -5.9753 -6.8751 -6.2351 -7.0583 -6.1548 C -7.512 -5.9559 -7.7801 -5.6026 -7.954 -5.1388 C -8.2599 -4.3234 -8.5823 -3.0725 -8.4816 -2.2074 C -8.4225 -1.7 -8.2445 -0.9983 -7.9736 -0.4434 C -7.8635 -0.218 -7.738 -0.0167 -7.5989 0.1374 C -7.2599 0.513 -6.5663 0.7549 -6.2498 1.1497 C -6.0364 1.4159 -5.8329 1.8488 -5.7816 2.1861 C -5.74 2.4598 -5.7864 2.8472 -5.8946 3.1022 C -6.0312 3.4242 -6.6274 4.0089 -6.6274 4.0089 L -6.6181 3.0647 L -7.8283 1.8572 C -7.8283 1.8572 -9.5985 0.7572 -10.1412 0.0679 C -10.7401 -0.6927 -10.661 -0.978 -10.661 -0.978 C -10.661 -0.978 -10.8576 0.1345 -10.2373 1.2753 C -10.0433 1.632 -9.3558 2.3023 -9.3558 2.3023 C -9.3558 2.3023 -10.8804 1.6406 -11.3661 1.1414 C -11.9413 0.5502 -12.4442 -0.4845 -12.6752 -1.2763 C -12.884 -1.992 -12.8367 -4.1703 -12.8367 -4.1703 C -12.8367 -4.1703 -11.6984 -5.83 -11.0167 -6.5742 C -10.6459 -6.979 -9.5765 -7.703 -9.5765 -7.703 C -9.5765 -7.703 -10.6382 -6.9436 -11.0253 -6.5435 C -11.8827 -5.6573 -13.4862 -3.2512 -13.4862 -3.2512 C -13.4862 -3.2512 -13.4478 -5.1408 -13.2685 -5.9255 C -13.1367 -6.5027 -12.8932 -7.2786 -12.5586 -7.7671 C -12.2733 -8.1836 -11.3133 -8.8988 -11.3133 -8.8988 C -11.3133 -8.8988 -12.2515 -8.131 -12.5668 -7.723 C -12.9253 -7.2592 -13.0361 -6.3637 -13.5013 -6.007 C -14.0427 -5.5918 -15.0661 -5.2561 -15.7124 -5.4746 C -15.9799 -5.5651 -16.2033 -5.9419 -16.3059 -6.2049 C -16.4445 -6.5601 -16.5509 -7.1304 -16.3844 -7.4734 C -16.2746 -7.6997 -15.6949 -7.9505 -15.6949 -7.9505 C -15.6949 -7.9505 -15.6779 -7.3112 -15.585 -7.0864 C -15.5045 -6.8915 -15.2297 -6.8599 -15.0238 -6.9053 C -14.8396 -6.9459 -14.7003 -7.4122 -14.6107 -7.5782 C -14.1682 -8.3977 -14.3419 -9.6064 -13.7922 -10.2053 C -13.6051 -10.4093 -13.0428 -10.9309 -12.6764 -11.0179 C -12.4366 -11.0747 -11.5722 -11.1448 -11.5722 -11.1448 C -11.5722 -11.1448 -11.9584 -11.6394 -12.0289 -11.8926 C -12.1813 -12.4391 -12.1165 -13.2246 -12.0201 -13.7836 C -11.951 -14.1846 -11.5721 -15.0637 -11.5721 -15.0637 C -11.5721 -15.0637 -10.3999 -14.6094 -9.9254 -14.3567 C -9.6516 -14.211 -9.0567 -13.7963 -9.0567 -13.7963 z"/>
  <path class="white outline" d="M -3.0312 -10.3655 A 1.5381 0.9054 -4.3783 1 1 -6.0983 -10.1307 A 1.5381 0.9054 -4.3783 1 1 -3.0312 -10.3655 z"/>
  <path class="white outline" d="M -5.001 -10.7487 A 0.9849 0.9849 -70.5803 1 0 -3.1418 -10.098 A 0.9849 0.9849 -70.5803 1 0 -5.001 -10.7487 z"/>
  <path class="pupil outline" d="M -3.8678 -11.2499 C -3.7977 -11.2256 -3.7386 -11.1926 -3.6783 -11.1632 C -3.5576 -11.1043 -3.4588 -11.0456 -3.4588 -11.0456 L -3.6879 -10.6819 C -3.6879 -10.6819 -3.7686 -10.7293 -3.8664 -10.777 C -3.9642 -10.8247 -4.0982 -10.8523 -4.0756 -10.8543 C -4.0653 -10.8552 -4.1798 -10.7918 -4.1935 -10.7734 C -4.2372 -10.7142 -4.312 -10.4622 -4.3023 -10.3833 C -4.2989 -10.3557 -4.2331 -10.2391 -4.2279 -10.2351 C -4.2546 -10.2556 -4.1574 -10.2117 -4.0777 -10.1988 C -3.998 -10.1859 -3.9297 -10.1796 -3.9297 -10.1796 C -3.9297 -10.1796 -3.7155 -10.1321 -3.7099 -10.0547 C -3.7025 -9.9521 -3.9334 -9.7945 -3.9334 -9.7945 C -3.9334 -9.7945 -4.0209 -9.8038 -4.1238 -9.8205 C -4.2268 -9.8372 -4.3362 -9.8414 -4.4649 -9.9399 C -4.6182 -10.0572 -4.6865 -10.2045 -4.7076 -10.375 C -4.7359 -10.6039 -4.6802 -10.8388 -4.5397 -11.029 C -4.44 -11.1641 -4.3134 -11.2655 -4.1129 -11.2827 C -4.0179 -11.2909 -3.938 -11.2742 -3.8678 -11.2499 z"/>
  <path class="body outline" d="M -3.4812 -11.8141 C -3.4812 -11.8141 -3.1781 -11.6519 -3.0643 -11.5526 C -2.8406 -11.3575 -2.6608 -11.0301 -2.7245 -10.7402 C -2.7579 -10.5887 -2.8574 -10.4848 -2.9984 -10.4201 C -3.15 -10.3504 -3.3276 -10.4277 -3.4875 -10.4757 C -3.7215 -10.5459 -3.9439 -10.8274 -4.1783 -10.8793 C -4.5157 -10.954 -5.0052 -10.9025 -5.3253 -10.7723 C -5.475 -10.7113 -5.5873 -10.4718 -5.7443 -10.4335 C -5.8855 -10.3991 -6.118 -10.4258 -6.2189 -10.5303 C -6.3227 -10.6378 -6.314 -10.8726 -6.3013 -11.0214 C -6.2952 -11.0932 -6.264 -11.1895 -6.222 -11.248 C -6.1585 -11.3365 -6.0329 -11.422 -5.9358 -11.4714 C -5.8144 -11.5331 -5.4992 -11.5959 -5.4992 -11.5959"/>
  <path class="body outline" d="M 1.6925 -7.6667 C 1.6925 -7.6667 1.3957 -8.6346 1.1745 -8.8324 C 0.9532 -9.0301 0.851 -9.049 0.7677 -8.9748 C 0.6844 -8.9006 0.6493 -8.7498 0.7747 -8.493 C 0.9001 -8.2363 1.6925 -7.6667 1.6925 -7.6667 z"/>
  <path class="ear outline" d="M -9.477 -12.4409 C -9.477 -12.4409 -9.6153 -13.0608 -9.7859 -13.2608 C -10.055 -13.5762 -10.9862 -13.9458 -10.9862 -13.9458 C -10.9862 -13.9458 -11.4338 -13.1806 -11.2937 -12.8782 C -11.2244 -12.7288 -10.8646 -12.8016 -10.793 -12.6533 C -10.6991 -12.4584 -11.0675 -12.1483 -10.9715 -11.9544 C -10.9069 -11.8239 -10.5247 -11.7649 -10.5247 -11.7649 C -10.5247 -11.7649 -10.3276 -12.3483 -10.114 -12.4653 C -9.9463 -12.5572 -9.477 -12.4409 -9.477 -12.4409 z"/>
  <path class="outline" d="M -8.7228 -11.8404 C -8.7228 -11.8404 -8.5361 -10.3345 -8.2619 -9.7557 C -8.1171 -9.4501 -7.8355 -9.0723 -7.5643 -8.8703 C -7.0439 -8.4828 -5.5565 -7.8454 -5.5565 -7.8454 L -5.5041 -7.6913 C -5.5041 -7.6913 -7.0618 -8.7343 -7.7071 -8.4624 C -7.9473 -8.3612 -8.0974 -7.9346 -8.0743 -7.675 C -8.0545 -7.4528 -7.9127 -7.1032 -7.7703 -6.9314 C -7.5482 -6.6635 -6.877 -6.1972 -6.877 -6.1972"/>
  <path class="outline" d="M -10.5181 -5.1417 C -10.5181 -5.1417 -10.9574 -4.1931 -11.0036 -3.7546 C -11.0764 -3.0626 -10.9876 -2.4111 -10.8568 -1.7276 C -10.8041 -1.4521 -10.6243 -0.822 -10.6243 -0.822"/>
  <path class="outline" d="M -3.1507 6.7793 C -3.1507 6.7793 -2.5884 7.5312 -2.425 7.9205 C -2.3041 8.2084 -2.2002 9.0353 -2.2002 9.0353"/>
  <path class="outline" d="M -10.3103 2.8993 C -10.3103 2.8993 -9.0481 3.8469 -8.6004 4.4534 C -8.3932 4.7341 -8.2858 5.2127 -8.2489 5.5597 C -8.1912 6.1018 -8.3612 7.0123 -8.3612 7.0123"/>
  <path class="outline" d="M -10.9271 5.169 C -10.9271 5.169 -11.456 4.094 -11.6892 3.6988 C -12.0037 3.1661 -12.7912 2.6649 -12.9498 2.0669 C -13.0515 1.6835 -12.7662 0.7574 -12.7662 0.7574"/>
  <path class="outline" d="M -1.5309 2.6752 C -1.5309 2.6752 -1.8586 3.8132 -1.8288 4.3111 C -1.7844 5.0515 -1.4769 6.0352 -1.0986 6.6733 C -0.8916 7.0224 -0.1563 7.6443 -0.1563 7.6443 C -0.1563 7.6443 -0.1563 7.6443 -0.1563 7.6443"/>
  <path class="outline" d="M -5.0388 8.343 C -5.0388 8.343 -5.4929 7.8889 -5.756 7.3954 C -5.951 7.0297 -5.9639 6.6533 -6.0142 6.3662 C -6.068 6.0586 -5.9277 5.3288 -5.9277 5.3288"/>
</svg>
