<?xml version="1.0" encoding="UTF-8" standalone="no"?>
<svg xmlns="http://www.w3.org/2000/svg" xmlns:svg="http://www.w3.org/2000/svg" width="400" height="420" version="1.0">
  <g transform="scale(0.0975) translate(-205.5, -205.5)">
    <g transform="rotate(3.094 528.92895152 129.65246513)">
      <path class="body outline" d="M137.15432 305.29546s-11.7713-8.03904-11.89601-12.75327c-.03874-1.46462 1.61373-2.13535 2.09204-3.52019.56642-1.63992.71897-3.34586-.41004-4.66324-1.7898-2.0884-6.11344-1.30515-8.75927-.5539-3.5321 1.0029-9.23775 6.84866-9.23775 6.84866l-.90977 9.14105 13.29899 10.7608 15.82181-5.25991z"/>
      <path class="body outline" d="M269.5756 322.98911s-37.92157-4.26374-54.1436-3.03419c-3.8716.29344-9.37407.60362-12.66531 2.66353-2.88434 1.80524-5.61296 5.83431-6.95074 8.963-1.48343 3.46935-3.6459 9.11466-1.86082 12.43889 1.63093 3.03714 10.41272 4.86015 10.41272 4.86015s-8.10372 3.00714-11.54651 2.23525c-2.54178-.56988-5.46091-3.03331-7.00407-5.13188-1.15951-1.57682-2.11193-6.17287-2.11193-6.17287s-3.10026 3.40953-5.10623 3.94649c-2.66881.71439-8.59223-.05405-8.59223-.05405s2.46724-2.4312 3.38595-3.47678c1.56452-1.78057 2.99845-4.22781 3.44388-6.55584.26931-1.40748-1.47273-4.544-1.47273-4.544s-.61383 2.86826-1.17321 3.98043c-1.19482 2.37559-3.2686 5.40331-5.33176 7.08095-1.16309.94576-3.61788.93192-4.52095 2.12846-1.20928 1.60224-2.10013 2.3628-1.53807 4.28988.43046 1.47587 1.04946 3.3903 2.51623 3.8508.9576.30064 3.11342 1.13573 3.98117.63135.72201-.41968 2.53013-1.15677 2.53013-1.15677s-.94301 2.96598-2.84146 4.784c-1.03157.98786-2.83801 1.17746-3.79854 1.42142-.49794.12645-2.41112.95821-4.4652-.12957-1.99723-1.05767-3.72976-3.06564-4.02609-3.4678 0 0-2.99991-3.14667-3.58268-4.86229-.89323-2.62959-.77694-6.54219-.18416-9.25534.33048-1.51261 1.98476-3.12073 2.24534-4.64694.21597-1.26493-.75828-2.99853-.47762-4.25071.31045-1.38506.25032-1.31791.25032-1.31791s.78552 1.04714-.35158 3.12683c-1.25987 2.30423-4.79895 8.21129-4.79895 8.21129l-3.82867-4.96894-.7584-5.19501s-.28966-1.74659.21496-2.1566c.54011-.43886 1.68907.5682 2.30656.24722 1.5276-.79405 1.17357-3.98066 1.17357-3.98066s.1499 3.14742-1.40429 3.94564c-.56683.29112-1.66546-.6168-2.11741-.1676-1.6336 1.62367-.28269 4.12495.55915 7.65712.61177 2.5669 2.01693 5.07335 1.30074 6.67816-.64675 1.4492-4.49792 2.78419-4.49792 2.78419l-11.9413-3.51965s-3.69758-3.18474-4.11867-5.10757c-.67965-3.10343.7505-11.35135.7505-11.35135l-.82583-.13537-4.74515 5.09075s.57635 7.2293-1.66766 8.59354c-1.59564.97007-5.97065-1.75982-5.97065-1.75982l-11.15355-9.12786s-.82085-3.80549-.18431-5.24581c.96306-2.17916 6.0566-5.13682 6.0566-5.13682l-5.33797-2.43858s-6.324491 3.7051-9.088001 2.94544c-1.348777-.37076-2.444555-2.25539-3.077485-3.50281-1.222818-2.41003-1.95034-8.79469-1.95034-8.79469l8.966592-15.74363s3.686084-.6469 4.929454.15507c2.62849 1.69537 4.59629 9.35826 4.59629 9.35826s9.74895 4.84894 14.29394 5.07831c4.81944.24323 10.83291-3.2411 15.62222-3.83157 3.22492-.39761 7.6422-.67661 10.83099-.05229 1.16705.22849 2.70055.81562 3.6641 1.5126 2.04245 1.47739 4.13937 4.23584 5.4762 6.37294 1.2891 2.0608 1.70692 5.53133 3.21572 7.43717.78233.98819 3.37078 2.50771 3.37078 2.50771s-5.02714-7.06932-6.92588-10.26122c-2.34065-3.93481-4.0921-10.03772-7.0411-13.53984-.90098-1.06998-3.09023-1.57012-3.71016-2.82405-1.17849-2.38375-.95984-6.39052.01683-8.86383.15336-.38836.96369-.60084.94902-1.01814-.05376-1.5301-2.94162-2.16924-3.7332-3.47977-1.77733-2.94254-3.01387-7.61753-3.01457-11.05519-.00062-2.98844.57305-7.43123 2.61668-9.61169 1.61809-1.72643 5.09697-2.44242 7.46021-2.56 3.36231-.1673 10.92316 2.57061 10.92316 2.57061s-5.58823 1.1128-7.46021 2.56001c-1.33963 1.03565-2.92453 3.02301-3.11736 4.70527-.10633.92762.58228 2.13087 1.08727 2.91621 2.18443 3.39708 9.52576 9.51332 9.52576 9.51332s8.32413-2.80054 12.02724-3.37699c4.66792-.72663 11.03754-1.03107 15.73742-.55295 2.54199.25861 5.86262 1.17133 8.27721 2.00705 2.91156 1.00772 6.26239 4.15716 9.34143 4.26752 1.86618.06689 4.15057-1.36305 5.83242-2.17453 1.82522-.88066 4.42895-1.98115 5.78633-3.48598 1.2292-1.36272 53.03013-21.49325 37.38609-30.90827l-32.62171-19.63264 49.79444 27.15789 23.91541 32.03256-27.93479 40.91138z" />
      <path class="outline" d="M148.06025 280.42895s3.30441 1.61156 4.82781 1.96364c1.39755.323 4.77025.32469 4.77025.32469" />
      <path class="outline" d="M163.12178 288.76103s-2.92265-1.76097-4.33038-1.81703c-1.58689-.0632-3.85235.58686-5.02892 1.65358-1.25525 1.13804-2.27992 5.16712-2.27992 5.16712" />
      <path class="outline" d="M164.24336 292.65995s-3.374-.80127-4.60058-.16654c-1.81847.94103-3.01231 3.79592-3.73769 5.71065-.38975 1.02877-.5289 3.62873-.5289 3.62873" />
      <path class="outline" d="M168.20299 297.93605s-3.8587.02756-5.22162.83986c-1.26079.75144-2.44553 2.51265-2.98156 3.879-.70647 1.80085-.59489 6.42071-.59489 6.42071" />
      <path class="outline" d="M126.454 324.01758s2.99714-2.61233 4.1461-3.42762c1.56535-1.11075 6.38616-.38848 6.38616-.38848" />
      <path class="outline" d="M110.59026 316.206s1.79306-2.08201 2.86949-2.39819c1.48226-.43537 5.10955.64096 5.10955.64096" />
      <path class="claw outline" d="M111.80092 290.66686c-1.55162-1.17831-2.29501-3.99018-3.70754-5.33209-2.12951-2.02305-8.314499-5.17022-8.314499-5.17022s5.082929-.9899 7.257119-.74053c2.63221.3019 6.36475 1.11338 8.35481 2.86248 1.52932 1.34415 3.06262 4.04978 3.00568 6.08506-.03701 1.32271-.93309 3.37293-2.17144 3.83926-1.31556.4954-3.30461-.6938-4.42413-1.54396z" />
      <path class="claw outline" d="M96.792754 295.45084c1.118152.97787 2.215034 2.74953 2.688363 4.17295.483905 1.45517 1.139913 3.75957.382713 5.1496-.482857.88641-1.952135 1.44942-2.92929 1.64567-.697984.14017-1.669876-.04581-2.322042-.28893-1.376679-.51323-2.592461-2.42678-4.039556-2.7234-1.266268-.25954-3.111457.20579-4.310446.77505-1.695629.80506-2.611562 1.03973-3.760783 2.53771-.879849 1.14688-2.562948 5.5297-2.562948 5.5297s-2.072398-4.99678-1.988105-7.06277c.123183-3.0188 1.173437-5.95284 3.372636-8.10917 1.38906-1.36197 3.990138-2.27237 5.866771-2.65854 2.315666-.47652 5.540382-.34311 7.800316.18566.585523.137 1.354473.45476 1.802371.84647z" />
      <path class="claw outline" d="M108.41637 325.96088c.8576-.11649 2.09346.31944 2.74415.89008 1.60595 1.40837 3.38727 4.31687 3.06204 6.42798-.2468 1.60193-2.35355 3.02612-3.68382 3.95212-1.97814 1.37698-5.036 2.69942-7.41326 3.09666-2.19883.36742-7.415591-.47933-7.415591-.47933s4.306711-2.98728 5.628421-4.76032c1.2255-1.64396 1.41891-4.69328 2.73949-6.26188 1.00457-1.19324 2.79296-2.65536 4.33857-2.86531z" />
      <path class="claw outline" d="M137.31215 337.64679c1.89351-.42301 4.36189 1.68781 5.65906 3.1306 1.11094 1.23566 1.42834 2.48328 1.37873 4.14418-.06518 2.1825-1.5903 5.07625-3.22347 6.52551-1.01453.90028-2.91 1.41067-4.26301 1.50622-1.59222.11244-2.98339.55675-4.44243-.09054-1.68363-.74692-4.9374-3.6492-4.9374-3.6492s4.01126-.25477 5.38444-1.17569c1.49228-1.00079 3.03141-3.17077 3.40289-4.92875.20106-.95154-.81651-2.23555-.60516-3.18486.18323-.82292.82357-2.09367 1.64635-2.27747z" />
    </g>
    <g transform="rotate(-48.262 280.4723667 535.60075556)">
      <path class="body outline" d="M510.84293 71.577612s10.6888-6.090484 15.49168-5.13789c1.46203.289979 1.88469 2.361367 3.76187 3.245452 2.01851.950654 6.28364 3.317301 8.18166 2.144419 1.94193-1.200018 3.27135-6.870201 3.27135-6.870201s-.99564-8.621436-3.23672-11.370214c-2.44144-2.994526-11.42274-5.948591-11.42274-5.948591l-8.84649 5.850138-7.20061 18.086887z" />
      <path class="body outline" d="M563.22262 215.8068s-62.86585 22.26801-97.00569-11.59118c-6.27418-6.22259-11.54238-17.6113-13.33448-26.26429-.90401-4.36492.91103-14.83053.91103-14.83053s-7.96451-2.35167-11.01627-1.04505c-2.24057.95932-4.02113 4.16233-5.02684 6.38246-1.08895 2.40391-1.60559 8.6491-1.60559 8.6491s-4.10572-7.00566-4.18281-10.3552c-.08135-3.53395 2.076-8.09231 3.90575-11.11679 1.67633-2.77089 4.03209-4.68687 7.12081-5.6604 2.25127-.70957 7.65346-1.35276 7.65346-1.35276s1.6033-8.81444 2.7983-12.76278c1.0473-3.46034 4.73441-11.08225 4.73441-11.08225s-2.62583-1.52293-3.88128-1.77311c-1.12291-.22377-2.74497-.27537-3.81426.13402-1.52398.58347-3.83929 1.89104-4.17378 3.48825-.35449 1.69264 2.56818 5.16085 2.56818 5.16085s-3.27192.45288-4.30779-.32601c-2.17046-1.63201-3.55964-5.79524-3.16224-8.48158.59535-4.02453 4.77746-8.61255 8.21354-10.79077 2.08673-1.32282 5.58489-1.76595 8.05505-1.71513 2.53562.05216 8.18908 2.09912 8.18908 2.09912s.08223-5.92541 1.14556-8.15557c.78401-1.64432 3.29897-2.82607 4.14028-4.441815 1.09015-2.093633.10873-5.898402 1.63909-7.695537 4.51927-5.307055 21.66399-8.39913 21.66399-8.39913s-12.98793 4.611296-18.05075 2.543716c-2.27962-.930959-5.00236-6.507441-5.00236-6.507441l5.28584-12.597384s3.46396-2.901748 5.16085-2.568188c3.99193.784705 8.95065 10.187681 8.95065 10.187681l-4.57584-7.954537 6.90046-7.403032 7.72904 2.592666s-9.27219-2.550394-11.18378-5.812881c-1.08773-1.856416.22549-7.168496.22549-7.168496l8.38108-6.022939s4.75128-1.893315 6.18142-.69456c3.8406 3.219232 1.06311 16.67065 1.06311 16.67065l.55151-11.47629 4.73433-1.121093.36855 10.489227.09148-10.982763 5.55388-4.968857 1.97414 1.840123s-2.82556-4.407053-2.44835-6.278928c.44163-2.191602 1.95732-4.503133 4.11793-5.077525 3.34263-.888626 10.79893 3.916912 10.79893 3.916912s6.12188 5.269974 6.17628 8.216556c.04622 2.503204-1.18792 4.722834-3.1197 6.315444-1.60792 1.325613-6.78364 1.670467-6.78364 1.670467s-6.56675 10.581389-8.36388 15.569764c-2.09436 5.813456-3.63477 14.028144-4.06424 20.192412-.40796 5.855604 1.59318 13.677288 1.16363 19.531348-.65793 8.96649-6.56737 23.74634-9.03482 32.39171-3.13649 10.98953.48104 28.8778.48104 28.8778l63.63915 41.14733-8.12893 6.40719z" />
      <path class="outline" d="M449.90509 149.18247s5.49012-.08636 7.64652-.26867c1.75519-.1484 4.13529-.24943 5.87129.04891 1.0503.18049 3.35827 1.15799 3.35827 1.15799" />
      <path class="outline" d="M457.97525 124.65504s3.1998 1.30945 4.41363 2.14171c1.78485 1.22378 3.2727 4.10191 5.27679 4.91857 2.41324.9834 6.10314.566 8.68397.20528 1.72796-.24152 5.55372-1.72633 5.55372-1.72633" />
      <path class="outline" d="M465.1919 112.15194s3.8495 3.63886 6.76595 3.8111" />
      <path class="outline" d="M486.96872 92.67289s-8.80304 13.58257-8.09713 20.76306c.49817 5.06731 5.67752 12.07846 5.67752 12.07846" />
      <path class="claw outline" d="M534.77114 57.377979c-.94915 1.217266-1.73015 3.357271-1.58748 4.894244.10902 1.174496.85622 2.868296 1.88076 3.452805 1.37455.784198 2.80846 1.389287 4.2554.748405 3.92297-1.737574 7.83691-4.995103 9.58365-8.914009 1.32221-2.966434 1.82085-7.746344.72012-10.801887-.50665-1.406451-1.02417-2.692088-2.32007-3.437366-1.30345-.749614-4.90968-2.026796-4.90968-2.026796s1.5925 3.103145 1.69969 4.558812c.1198 1.626824-.41242 3.854554-1.13272 5.318126-.90685 1.842579-2.54757 2.301589-4.10105 3.644781-1.09507.946834-3.19846 1.421271-4.08862 2.562885z" />
      <path class="claw outline" d="M518.15711 21.251583s4.22924-3.319289 7.14843-3.110268c2.94132.210604 6.84362 2.011323 8.94071 4.084468 1.4285 1.412173 2.65465 4.05887 2.85202 6.057838.37734 3.82173-.34434 8.099253-2.46197 11.302954-.88765 1.342912-2.08288 2.942946-3.61843 3.426088-1.76564.555534-3.73443-.117358-5.10618-1.360102-.98221-.88984-1.05159-3.476287-1.04843-4.801629.00812-3.414805 3.6506-6.658755 2.94757-10.000424-.21889-1.040449-1.11299-2.26219-1.86532-3.013483-.67291-.671973-1.88835-1.165262-2.69765-1.664661-1.21394-.749097-5.09075-.920781-5.09075-.920781z" />
      <path class="claw outline" d="M492.96699 49.188084c.82166.522217 1.94661 1.58042 2.90959 1.43728 1.38663-.206119 2.91583-1.885517 3.4065-3.198716.6939-1.857141 1.13619-3.511763.25408-5.287249-.49789-1.002147-4.60966-3.539608-5.63812-3.980575-2.55683-1.096273-4.6356-1.292634-7.27189-.404291-2.40065.808932-5.31136 3.218098-6.40455 5.503359-.85553 1.788443-.59609 4.661064-.20778 6.605205.23744 1.188784 1.66882 3.680176 1.66882 3.680176s2.1589-4.862248 3.96514-6.077435c1.05236-.707997 2.91864-1.108205 4.15037-.805617 1.18073.290065 2.14171 1.875686 3.16784 2.527863z" />
      <path class="claw outline" d="M477.83071 69.073772c1.55261.181422 2.53659 2.96533 2.57833 4.527942.04413 1.65182-1.10841 3.983249-2.46611 4.925114-1.52086 1.05505-4.31916 1.014237-6.13502.655422-2.55168-.50421-6.0225-2.080306-7.62277-4.130776-1.7029-2.181984-2.63366-6.189717-2.29337-8.936557.36706-2.962839 2.59378-6.68051 4.75116-8.744216.93856-.897811 3.89213-1.896199 3.89213-1.896199s-2.06384 3.952741-1.99593 5.788317c.09417 2.545219 1.67592 5.882859 3.35307 7.799675.87919 1.004818 5.0123-.096947 5.93851.011278z" />
    </g>
    <g transform="rotate(2.3 -2232.49335744 -19270.02283319)">
      <path class="body outline" d="M823.32114 58.238612c1.29027-.226223 3.15176-.114001 4.34579.424755.94849.427956 2.0116 1.466979 2.53725 2.365008 1.40647 2.402847.98727 6.508427 2.19356 9.017744 1.96191 4.081213 9.22585 11.946621 9.22585 11.946621l-17.32607 1.980216-14.24696-11.048393 1.43774-6.330272s2.76142-3.618603 4.30759-4.770935c2.00504-1.494321 5.06219-3.152898 7.52525-3.584744z" />
      <path class="body outline" d="M823.3262 58.382797z" />
      <path class="body outline" d="m980.46929 27.152631-66.80585 13.054408-68.79714 30.455296-19.27583 8.948717-5.33984-3.295097s-3.93234-7.206178-6.84285-8.901691c-1.94688-1.134155-7.43747-1.044683-7.43747-1.044683l-5.53725 15.866753s.79769 3.948026 1.92254 5.15651c1.19308 1.281799 5.30928 2.425497 5.30928 2.425497l5.57605-2.372626c.66929-.718036 16.34774.39363 19.06977 1.791407.65681.33727 2.00663-1.139091 1.6781-1.800321-.35835-.721304-2.82245.434173-4.90537.451289-2.71791.022331-4.18131.897462-5.4196.812769-4.74851-.324801-4.83601.233554-8.1114 2.581693-1.42319 1.020287-2.42548 5.309288-2.42548 5.309288l12.72443 15.22512s6.89733 1.68649 9.14612.11398c2.64181-1.84734 1.89322-7.37977 3.56185-10.13794 1.24209-2.053123 3.45147-7.173402 5.45382-5.851036 1.90176 1.255936-3.86681 2.47957-5.7522 5.676236-2.31598 3.92673-1.10473 9.80155-1.10473 9.80155l5.4315 5.9039s11.39628.65094 15.62232-1.41959c.66303-.32485 1.60413-1.06569 1.6781-1.80031.15464-1.53583 1.75275-6.06067.39444-7.93953-1.6761-2.31845-4.77404-3.62243-4.77404-3.62243s-.74095.30038.22793.07825c2.159-.49499 4.74628 3.62672 4.74628 3.62672l10.16027-8.193085s.69657 2.589415.51546 3.693425c-.30774 1.87596-2.83509 5.66717-2.83509 5.66717s6.40549-1.01199 9.6239-2.9123c2.38418-1.40774 6.91463-4.50055 8.06513-7.018964.76701-1.678941 1.92071-3.251521 1.92071-3.251521s.62611 5.629882-.41639 8.859335c-.62631 1.94022-3.21563 4.71303-3.21563 4.71303s3.71354.06186 6.85943-.74562c2.86913-.73645 5.15635-2.33072 5.90885-2.67229.14708-.06676 3.70576-1.96191 6.02139-6.311264 2.18418-4.102416.94416-3.905985 3.67436-5.436221.70056-.392653 1.0339 3.081241.32453 6.696431-.62909 3.206084-2.27806 6.576204-2.24105 6.670964 3.49858-.56481 13.7647-3.87644 17.88199-6.934681 6.90513-5.129006 9.41504-16.183152 10.86703-15.579926 6.28624 2.611583 22.21202 2.379296 27.34498 6.850326 4.93279 4.29668 16.55555-3.739 22.63214-1.31641 9.73861 3.88255 23.13922-44.66055 23.13922-44.66055l-11.46143-17.731402-14.78328.519424z" />
      <path class="claw outline" d="M825.91971 63.654006c.09187-2.87235-1.23041-5.815172-3.3988-7.701127-1.86488-1.62198-5.43726-2.151108-7.90239-2.329193-2.54815-.184083-6.24331-.11289-8.42979 1.208588-1.14399.691401-1.8081 1.511057-2.11703 2.811571-.29126 1.226132-.3835 3.923746-.3835 3.923746s2.10016-1.689611 3.19507-1.806714c1.64673-.176115 3.80056.878235 5.27131 1.639582 1.52857.791287 3.09858 2.571065 4.55425 3.489565 1.0208.644101 2.39454 1.621339 3.58352 1.829227 1.27556.223031 3.21607.193353 4.28227-.54149.70643-.486876 1.31767-1.666253 1.34509-2.523755z" />
      <path class="claw outline" d="M812.75589 74.804596c-.3536 1.507515-1.95783 3.29163-3.38226 3.898774-1.26284.538274-3.29766.284736-4.57008-.230449-1.64004-.664027-2.77088-3.291369-4.4378-3.88469-1.98806-.707631-5.00523-.348189-7.0298.246993-1.32555.389681-3.01519 1.344796-3.95788 2.354885-1.21719 1.304225-2.68103 5.307896-2.68103 5.307896s-1.30111-7.533969-.10557-10.423678c.9517-2.300311 3.75065-4.595006 5.92185-5.812798 1.95201-1.094847 4.99804-1.757298 7.2353-1.81833 2.08471-.056856 4.95294.403911 6.82434 1.324327 1.78599.878409 3.93472 2.691414 4.97681 4.387132.75454 1.227829 1.53522 3.246874 1.20612 4.649938z" />
      <path class="claw outline" d="M824.23161 104.64084c1.23728-1.64295 1.03437-3.86508-.06651-5.602388-1.21318-1.91455-3.88986-4.352231-6.15302-4.476133-1.63419-.089477-3.13445 2.182211-4.45116 3.154265-1.6227 1.197968-3.93255 2.643506-5.3304 4.097556-1.43002 1.48753-3.16741 3.71466-3.97371 5.61401-.4853 1.1432-1.06382 2.8611-.76948 4.06765.42423 1.73896 3.68415 4.69323 3.68415 4.69323s-.7866-4.08362-.0665-5.6024c.64625-1.36301 2.55212-2.52303 3.93042-3.13597 2.23219-.99267 5.59939-1.13153 8.03468-1.32504 1.94935-.1549 3.98515.0773 5.16153-1.48478z" />
      <path class="claw outline" d="M852.60948 114.72286c.81401 2.23334 1.53881 4.58902.89333 6.87675-.70535 2.49989-3.51523 5.31239-5.90357 6.33353-1.51086.64597-3.16902 1.06496-4.79384.82015-1.71078-.25777-5.53168-1.63043-5.53168-1.63043s2.791-1.58387 3.82312-2.4805c1.21063-1.0517 3.01549-2.50733 3.50786-4.03352.63693-1.97429-1.42962-4.9705-.63296-6.88592.49227-1.18356 2.02708-2.52242 3.29324-2.72256 1.34822-.2131 3.20787.77139 4.22985 1.67618.52341.46339.87526 1.38952 1.11465 2.04632z" />
    </g>
    <g>
      <g transform="rotate(35.23 306.10205242 187.79258034)">
        <path class="body outline" d="M289.05502 263.42538c-4.19398 1.66727-8.61991 6.1952-11.58428 9.5984-1.61077 1.84921-4.30273 6.95057-4.30273 6.95057s6.51859-.7483 9.26742-1.32392c5.44675-1.14057 12.31629-4.66125 17.8729-4.96469 4.92248-.26881 11.48159 1.28053 16.218 2.64784 5.38642 1.55495 17.21093 7.28155 17.21093 7.28155s-11.1359-18.50768-19.19681-21.84465c-7.07913-2.93054-18.36566-1.17548-25.48543 1.6549z" />
      </g>
      <path class="body outline" d="M253.60855 371.89153s-7.28251-5.37312-8.47863-8.84988c-.82018-2.38405 1.70317-5.98855.8497-8.36089-.82094-2.28199-3.46032-4.88948-5.75352-5.67856-1.71912-.59155-6.01943.70156-6.01943.70156l-4.98847 11.44664 3.59243 4.61103 7.32042 6.57096 13.4775-.44086z" />
      <path class="body outline" d="M164.66479 131.52254s-29.7252 59.46016-24.59224 63.9312c4.93279 4.29667 33.23505 11.69574 39.31163 14.11833 9.73862 3.88255 30.64149 15.70572 40.51481 19.23168 7.42612 2.65202 17.48621 8.54354 24.29605 12.51929 7.51918 4.38987 18.42311 10.4092 22.83183 17.91735 2.72974 4.64882 4.14234 12.52918 2.80038 17.75049-2.03006 7.89852-11.76141 14.26203-17.2497 20.29413-.91506 1.00573-3.9019.6763-6.63715 4.00264-2.84688 3.46213-5.45988 10.56567-7.19367 10.64943-3.04071.14691-8.43091-3.22758-8.43091-3.22758s.4474 3.98107 2.7769 6.87012c1.85667 2.30265 5.54074 3.64901 6.56038 3.63932 2.54122-.02417 5.99617-1.50812 6.78065-1.79026 3.99493-1.43678 9.64907-10.35182 9.64907-10.35182s-10.4953 11.56562-10.69377 17.78928c-.08746 2.74267 2.26405 4.95294 1.8063 7.65855-.49364 2.91766-1.30153 6.04709-4.24866 6.31309-4.29174.38733-9.96939-1.32802-9.96939-1.32802s2.48549 4.46247 6.53635 6.6727c2.52067 1.37534 5.62476 1.62107 8.31736.62348 5.94826-2.2038 12.97735-7.93926 16.51425-13.20507 2.07122-3.08368 3.50073-11.87715 3.50073-11.87715s-6.3647 13.19391-4.99551 18.89509c.9522 3.96487 6.62694 8.56701 6.62694 8.56701s-7.1559 2.47322-10.51663 4.62982c-5.30244 3.40259-12.91362 16.56128-12.91362 16.56128s-8.10932-3.08676-11.06866-5.2705c-1.93652-1.429-3.12025-5.23287-5.4315-5.9039-1.67232-.48553-5.6066 1.50301-5.6066 1.50301l-4.18701 17.12532s2.15846 4.84912 4.11182 5.51495c3.28509 1.11974 7.47761-2.78526 11.14011-3.12055 3.62076-.33148 10.98897 1.037 10.98897 1.037l-13.21915 7.86522-.68629 5.24818 10.35183 9.64908s6.8277-.84772 8.60438-2.91436c2.43653-2.83418 2.18106-12.26613 2.18106-12.26613s2.45143 2.75941 3.0783 4.72562c.78095 2.44948-.49181 6.93766-.49181 6.93766l4.95087 4.61477 10.04627.95304s4.36793-2.9355 4.61478-4.95087c.43595-3.55909-5.79845-10.45157-5.79845-10.45157l11.03839-1.4867 1.88375-8.33763s3.21201 10.82306 6.99563 13.24972c2.42702 1.55659 6.88192 1.50619 9.59619.53349 2.26561-.8119 5.9039-5.4315 5.9039-5.4315s-4.28612 1.60535-6.05666 1.08349c-1.59349-.46968-4.04119-2.11449-4.05073-3.77573-.01805-3.14331 7.58201-7.23182 7.58201-7.23182s6.57726 3.72574 9.71843 4.01193c2.24384.20442 5.77362.04986 7.34579-1.56413 1.67931-1.72397 1.46422-7.88755 1.46422-7.88755s-1.97628 3.04537-3.8248 3.20099c-1.87578.1579-5.36717-.70768-6.16037-2.4148-1.5102-3.25027 1.76153-11.81605 1.76153-11.81605s6.98571 2.06802 10.12189.55348c1.24079-.59921 3.40912-3.00313 3.68447-5.16951.41373-3.25513-.20145-4.84403-.20145-4.84403s-1.91309 4.03042-4.22259 3.90634c-2.33148-.12527-5.50616-1.50846-7.07906-3.23399-2.66987-2.92895-4.39478-8.50874-4.35625-12.47176.04665-4.79897 2.55916-9.35214 4.20676-13.85967.48261-1.3203 1.613-3.65346 1.613-3.65346s5.16635 4.1901 8.01378 5.05657c1.99788.60797 6.60729-.18394 8.31785-1.38191 2.55635-1.7903 4.68134-6.62452 3.8974-9.64536-.65077-2.5077-4.51122-4.56689-4.51122-4.56689s.33942 4.04594.05838 5.82873c-.19949 1.26554-3.48831 2.03867-4.72223 2.38341-1.00767.28152-2.33532-1.03019-2.93065-1.89058-2.94271-4.25284-2.81059-10.98513-2.21284-16.12214.42508-3.65317 5.27049-11.06866 5.27049-11.06866s7.65744 6.14455 11.57985 7.42923c2.86447.93819 4.22807-4.03213 2.7481-8.45505-1.80409-5.39155-6.89872-10.55402-6.89872-10.55402s-14.80768-13.92298-17.841-18.25167c-8.22698-11.74037-10.9285-22.5004-20.16519-33.46412-3.56983-4.2373-9.68522-10.93414-13.6368-14.81788-6.71525-6.59998-18.14163-15.86995-24.37405-22.92765-10.54584-11.94227-34.33438-39.15452-34.33438-39.15452l-11.46145-17.7314-48.72267-1.17755z" />
      <path class="outline" d="M328.0822 291.36383s-2.80021-6.7963-4.73585-9.77435c-1.70939-2.62995-5.90652-4.52036-7.64824-7.12902-1.46047-2.18742-3.06279-8.21486-3.06279-8.21486" />
      <path class="outline" d="M303.51747 276.50669s4.13603 5.55927 4.68718 8.38898c.83218 4.27254-2.43713 9.42187-2.47332 13.77455-.02369 2.84926.79893 6.04385.33982 8.30454-.3918 1.92917-2.30004 6.14553-2.30004 6.14553s4.52691-2.24177 6.16369-4.10459c.63209-.71938 4.71557-5.15857 4.71557-5.15857s-1.43427 10.38248-.18158 14.57072c.37475 1.25291 2.43876 3.61318 2.43876 3.61318" />
      <path class="outline" d="M305.0536 349.35518s1.44115 5.05712 2.5965 6.96419c.97977 1.61723 4.21499 4.68617 4.21499 4.68617" />
      <path class="outline" d="M299.57426 379.33726s2.59632-5.33508 2.99185-7.81383c.43829-2.74677.36434-6.60275-.45603-9.26054-.30525-.98889-1.80191-2.94177-1.80191-2.94177" />
      <path class="outline" d="M291.38199 361.8559s2.68752 5.35184 2.4981 7.88223c-.27967 3.73581-3.17022 8.16116-4.15926 11.77452-.49919 1.82379-1.32509 4.29575-1.21994 6.1837.08141 1.46134 1.47001 4.65196 1.47001 4.65196" />
      <path class="outline" d="M282.09711 380.21264s1.6982-9.21121 1.9546-11.30507c.21473-1.75358-.70539-5.20147-.70539-5.20147" />
      <g transform="rotate(17.092 244.70527497 198.76321777)">
        <path class="outline" d="m240.27146 181.84304-3.61196 11.48404" />
        <path class="outline" d="m246.19474 185.0926-3.50802 8.75685" />
        <path class="outline" d="m251.03543 189.02551-1.32886 6.36043" />
        <path class="outline" d="m255.83342 191.85691-1.62994 6.14591" />
      </g>
      <path class="outline" d="m285.40839 347.70204-5.80563 1.28205-9.02397-1.51719s-.41152 2.12122-.02899 3.47951c.24477.86907 1.31545 2.34911 2.1374 2.7228 1.53173.69637 3.82203 1.42063 5.48562 1.1684.83209-.12617 2.44725-1.37151 2.44725-1.37151" />
      <path class="outline" d="M279.07713 315.61721s-3.5862 5.39134-3.76492 8.05195c-.16687 2.48417 1.26398 5.74696 2.47821 7.92058 1.04289 1.86691 2.13367 3.53247 4.11244 4.3433 1.73483.71089 6.79514.55322 6.79514.55322s-4.36422 2.75542-6.49586 2.95611c-2.81062.26462-6.74373-.74135-9.14198-2.23068-1.5647-.97168-3.08106-3.07648-3.949-4.70103-1.16692-2.18413-2.30244-7.92676-2.30244-7.92676" />
      <path class="outline" d="M259.48126 316.39371s-4.18031 4.87457-4.66233 7.55551c-.3764 2.09347.66441 4.91158.42282 7.02484-.22668 1.98277-.72717 4.04599-1.55395 5.86235-.88537 1.94512-4.51193 7.55096-4.51193 7.55096" />
      <path class="outline" d="M317.91295 285.45826s.55535 6.87792.00637 9.75137c-.58878 3.08173-3.86178 9.71914-3.86178 9.71914" />
      <path class="outline" d="M209.24254 207.89379s4.44902 3.83857 5.86313 5.63455c.82194 1.0439 4.40585 6.29267 4.40585 6.29267" />
      <path class="outline" d="M220.61494 212.87326s6.02734 5.68011 7.93516 8.14012c1.00552 1.29653 3.24347 5.76562 3.24347 5.76562" />
      <path class="outline" d="M231.25347 217.71332s4.44158 5.60526 6.04938 8.20738c1.15601 1.87097 3.33151 6.53026 3.33151 6.53026" />
      <path class="outline" d="M242.79656 224.61979s3.11819 3.80458 4.18564 5.61393c.99698 1.68994 2.29215 4.03809 2.69872 5.95761.39521 1.86597-.05024 6.35766-.05024 6.35766" />
      <path class="claw outline" d="M237.67147 353.58725c-.06214-2.01389-2.44943-4.15952-4.09318-5.32471-1.93458-1.37134-2.94162-1.78289-5.286-2.13914-2.04584-.31089-5.006-.72863-6.89683.11212-2.01778.89719-5.01894 5.38448-5.01894 5.38448s6.52973-1.08712 9.22846-.45446c2.93315.6876 3.72807 3.49585 6.54319 4.56882 1.01744.3878 2.53167 1.19008 3.54313.78694.98645-.39318 2.01292-1.87263 1.98017-2.93405z" />
      <path class="claw outline" d="M225.61833 362.62295c1.43344 1.4552 2.45485 1.77651 2.47783 3.81902.02006 1.78196-1.09546 4.48319-2.67817 5.30224-.952.49266-2.49402-.26718-3.534-.52685-1.75124-.43725-3.86669-1.92515-5.6695-2.01424-1.51407-.07482-3.59833.44556-4.90506 1.21396-1.04696.61563-2.14846 1.91236-2.76042 2.96146-.647 1.10915-.3545 2.41955-.65232 3.66861-.09233.38724-2.30011-2.15146-2.86341-3.67528-.58216-1.57488-.76669-3.96695-.32651-5.58726.63053-2.32101 2.47225-3.47464 4.24782-5.09697 1.67546-1.53086 4.10022-1.40883 6.3127-1.91445 2.25334-.51496 5.47226-.25227 7.69535.38064.8757.24931 2.01674.82047 2.65569 1.46912z" />
      <path class="claw outline" d="M235.36838 391.83648s3.70384.97316 5.01472 1.90706c.72501.51651 1.14357.91256 1.3644 1.77491.46745 1.82541.0114 4.73231-1.21572 6.16226-1.65616 1.9299-5.52796 2.17873-7.97126 2.88414-1.67728.48425-5.14688 1.74328-5.14688 1.74328s3.45948-9.98384 4.64332-11.59368c1.41955-1.93038 3.10119-2.79957 3.31142-2.87797z" />
      <path class="claw outline" d="M269.88486 399.60773c1.20492.55384 2.58026 1.9282 3.10521 3.14598.64902 1.50562.83973 3.95566.1919 5.46178-.89859 2.08917-3.65552 3.98668-5.68285 5.0172-2.68922 1.36697-9.81927 2.16785-9.81927 2.16785s3.34799-3.42384 4.5079-5.1061c.7146-1.03642 1.83235-2.46117 1.95275-3.7143.14671-1.52688-1.82213-3.40204-1.47405-4.89594.22548-.96778 1.334-2.05869 2.25852-2.42301 1.38772-.54686 3.6046-.27639 4.95989.34654z" />
      <path class="outline" d="m331.56821 293.36093-5.91674-7.78186" />    </g>
    <g transform="translate(-6.626506 7.2289158)">
      <path class="body outline" d="M344.47419 274.94176s3.7393 3.29389 8.20927 3.21815c3.88058-.06575 8.73201-3.78343 10.86163-7.02811 1.2795-1.94944 2.75449-14.93334 1.91676-17.88974-1.08738-3.83743-4.89972-9.14821-7.66703-10.86163-2.76731-1.71342-5.87027-1.92852-8.30596-1.27784-1.18574.31676-2.30842 1.70655-3.19459 2.55568-.6683.64036-1.97663 1.40061-2.02838 2.32474-.03028.54078.64405 1.10204 1.02766 1.4844 1.41322 1.40863 5.48085 3.76808 5.48085 3.76808s-5.06441 2.44744-7.3078 2.05532c-2.03192-.35516-4.65116-2.16234-5.59503-3.99645-1.22262-2.37578-.94656-6.40775 0-8.90638.84251-2.22398 3.23594-4.67684 5.25248-5.93759 2.17048-1.35699 8.22127-2.28369 8.22127-2.28369s-9.29657 1.2507-13.1312.34256c-3.25098-.76992-7.33341-3.02108-9.81986-5.25249-1.26576-1.13593-2.80395-3.0269-3.19716-4.68155-.4794-2.01733-.09233-5.03784.91348-6.85107.99143-1.7873 3.26791-3.85024 5.25248-4.339 1.93746-.47716 4.78955.35699 6.50851 1.37021 1.44359.85091 3.6539 4.22482 3.6539 4.22482s-3.28904-.60867-4.56738-.11418c-1.01684.39333-2.59762 1.42216-2.62624 2.51205-.04199 1.59885 2.30626 3.02091 3.6539 3.88227 1.55165.99176 5.8234 1.94114 5.8234 1.94114l7.19362-.22837 5.70922.79929s-6.72461-14.36814-9.53606-19.80265c-1.60516-3.10276-4.02578-11.13706-5.02411-14.48474-1.32356-4.43829-.98954-4.93699-2.4533-9.33104-1.68668-5.06325-4.70164-11.9696-8.67802-15.52908-2.29907-2.05802-7.37388-4.27821-10.35116-5.08877-2.50086-.68086-5.1422-.52571-7.68997-.04953-1.95908.36615-4.69459 1.55466-5.8234 3.19717-1.29237 1.8805-1.79088 5.38582-1.02766 7.53617.25129.708 1.18428 1.32367 1.82695 1.71276 1.33451.80794 3.3586 1.54827 4.90993 1.71277 2.19708.23297 5.30405.01736 7.3078-.91348.54963-.25533 1.4844-1.37021 1.4844-1.37021s-1.38083 5.34108-2.9688 6.96525c-1.68265 1.72101-4.91392 3.06129-7.3078 3.31134-2.68656.28063-6.50993-.49627-8.7922-1.94113-2.92938-1.85454-6.15599-5.79292-7.07943-9.13475-1.06604-3.85787-.32694-9.73654 1.59858-13.24539 1.66273-3.02999 5.71106-5.99047 8.90639-7.3078 2.00421-.82627 7.19361-.68511 7.19361-.68511l3.08298 1.02766s-3.7959-1.08922-5.36667-1.71276c-1.69463-.67271-4.10704-1.4275-5.48085-2.62624-2.72032-2.37366-5.79277-6.53459-6.62269-10.04823-.53133-2.24951.14545-5.47027.91348-7.65035.96643-2.74322 2.8631-6.40944 5.13829-8.22128 2.29655-1.82885 6.3157-3.07502 9.24894-3.19716 1.80132-.07501 4.33975.46011 5.8234 1.4844 1.96299 1.35521 4.2576 4.14335 4.56737 6.50851.14214 1.08529-1.25602 3.42553-1.25602 3.42553s-2.5344-3.25559-4.11064-3.88227c-1.62342-.64544-4.23251-.7219-5.8234 0-.99479.45141-1.964 1.73787-2.39788 2.74043-.83393 1.92694-1.53665 5.04602-.6851 6.96524.93362 2.10417 4.10112 3.5497 6.16595 4.56738 2.0132.99224 7.19362 2.05532 7.19362 2.05532l7.53617 5.59503s-1.21058-9.89797-1.14185-14.15886c.05893-3.65378.57074-8.53782 1.37022-12.10355 1.06887-4.7672 3.13493-11.01209 5.25248-15.41489 3.11786-6.48264 9.97983-13.637822 12.90283-20.21063.99618-2.240069 1.93564-5.438313 2.16951-7.878722.29499-3.078187.17594-7.342114-.79929-10.276594-.62641-1.884855-2.33369-4.016889-3.53972-5.595034-1.325-1.73382-2.90306-4.509778-4.90993-5.366666-1.38652-.592015-3.65389-.389902-5.02411.114184-1.37022.504086-2.91651 1.842592-3.6539 2.968794s-1.47351 3.084273-1.14184 4.110638c.33167 1.026365 2.84404 3.394166 3.67058 3.138402.82654-.255764 6.72019-1.539821 6.72019-1.539821s-1.64683 4.944913-3.53971 6.394325c-1.89288 1.449412-7.18787 1.707542-10.72332 1.259364-3.53545-.448178-8.03384-4.076988-10.97171-6.397661s-5.51224-4.796652-6.50851-7.3078c-.99627-2.511148-.81837-6.074082-.22837-8.221275.59-2.147193 1.97578-4.370622 3.53971-5.595034 1.19412-.934883 4.79575-1.598582 4.79575-1.598582s-5.61887-2.211372-7.53617-3.882268c-2.02044-1.760784-4.35866-4.743681-5.1383-7.3078-.88712-2.917605-1.0576-7.397329.22837-10.16241 1.79107-3.851125 5.38143-8.378256 9.02724-10.557051 2.53988-1.517873 7.88251-3.8212835 10.84084-3.8777015 2.09032-.039864 5.12493 2.3569415 6.6227 3.8156055 1.45928 1.421176 2.65154 4.39085 2.28368 6.394325-.27645 1.505625-3.31134 3.882269-3.31134 3.882269s.80583-3.972847 0-5.366666c-.65288-1.129258-2.46525-2.233294-3.76809-2.169503-1.76594.086465-4.09121 1.803916-4.79574 3.425531-.52317 1.204181.03099 3.142244.57092 4.339007 1.30799 2.899186 6.96525 7.992906 6.96525 7.992906l11.87517 3.425531 7.65036 5.024113 2.1695 3.082978 3.88227-9.020566s7.32177-7.421517 11.30425-9.248934c2.14983-.986479 5.43646-1.788495 7.76454-1.370213 2.26672.407259 5.00325 2.244803 6.62269 3.882269 1.16521 1.17818 2.97103 3.154817 2.74043 4.795744-.25958 1.847113-4.45319 4.339006-4.45319 4.339006s.96859-3.78197.11418-5.024112c-.8658-1.258703-3.27079-1.80485-4.79574-1.712766-1.52916.092338-3.37879 1.317198-4.56738 2.283688-1.45694 1.184688-3.06051 3.221478-3.88227 4.909928-.89443 1.837768-1.69622 4.581158-1.59858 6.622693.14542 3.040626 2.22448 6.748028 3.31135 9.591488 1.57869 4.130157 4.73435 9.275159 5.70922 13.587941.4839 2.140738.59977 5.128177.34255 7.3078-.15882 1.345804-1.25603 4.339006-1.25603 4.339006l-2.59136 5.147229s6.59976-6.120318 10.17043-7.264594c2.69804-.864626 6.90461-1.256427 9.44397 0 3.11246 1.539984 5.76261 5.96581 7.02245 9.201819.58221 1.495465.85301 3.765497.4843 5.327368-.41223 1.746225-1.9218 3.775375-3.14799 5.085215-.85416.912429-3.39014 2.421531-3.39014 2.421531s2.31143-5.382085 1.93722-7.748899c-.32109-2.030794-1.79414-4.890576-3.63229-5.811675-2.34623-1.175699-6.53365-.728793-8.71752.72646-1.83862 1.225191-2.86672 4.39159-3.39014 6.538134-.60235 2.470228.71088 6.034148 0 8.475356-.79447 2.72824-3.20856 5.85737-5.08522 7.99106-2.62302 2.98228-7.51584 5.52114-10.17043 8.47535-2.10082 2.33793-9.23483 12.73838-10.17043 14.77134-1.15649 2.51293-2.5261 6.21521-2.17937 8.95967.1548 1.22524 1.93722 3.6323 1.93722 3.6323s1.43268-4.03219 2.66368-5.32737c2.64446-2.78234 7.60068-4.80785 11.13905-6.29598 2.64913-1.11414 7.33983-.47458 9.20182-2.66369 1.56459-1.83946 1.92582-5.774.96861-7.99105-.6796-1.57406-3.41378-3.20265-4.60091-3.39014-1.18713-.18749-2.17938.72645-2.17938.72645s2.96933-3.76265 4.84306-4.1166c2.41547-.45628 6.10367.83725 7.7489 2.66369 1.29737 1.44026 2.75697 3.98106 3.04483 5.898.30284 2.01666-.34961 5.2851-1.1076 7.17826-.80284 2.00517-3.89696 3.22468-5.32737 4.84307-1.0011 1.13266-3.29911 2.65699-2.90584 4.1166.49896 1.85187 4.17005 1.672 5.81168 2.66368 2.74866 1.66042 6.37223 4.11143 8.47536 6.53814 1.25699 1.45039 2.69848 3.70362 3.14799 5.56952.81739 3.39296.51712 8.28008-.48431 11.62335-.60773 2.02891-1.95179 4.76476-3.6323 6.05383-.83926.64378-2.33486.89653-3.39014.96861-2.04996.14003-5.06852.16796-6.78029-.96861-1.41156-.93724-2.90583-4.84307-2.90583-4.84307l-.72646-1.69507s4.97197 3.02723 7.26459 2.66369c1.27746-.20257 2.97736-1.4379 3.39014-2.66369.55108-1.63648-.24047-4.34-1.45292-5.56952-1.53448-1.55609-4.86953-1.56164-7.02244-1.93722-1.74816-.30497-4.03462-1.10875-5.898-.45064-2.21328.78168-5.26789 1.67181-7.26459 2.90584-1.48825.91979-3.11008 2.649-4.35876 3.87445-.91729.90023-2.44834 1.94693-2.90583 3.14799-1.47418 3.8702-.63204 12.0766-.15583 16.19059.31621 2.73177 1.03015 6.36355 1.93722 8.95966 2.48614 7.11552 4.73917 11.15178 7.55725 18.14249 2.33648 5.79602 8.02029 18.2675 9.87778 24.2343.81282 2.61102 2.19838 6.02278 2.66368 8.71752.54444 3.15306.3888 7.45644.48431 10.65473.15181 5.08347 1.12828 10.03988-.15583 14.96083-.8054 3.08646-3.11634 8.56726-4.92939 11.19171-2.02495 2.93118-4.56766 7.18837-7.50674 9.20182-2.7102 1.85665-7.13605 3.15221-10.41259 3.39014-2.57292.18684-6.55224-.15665-8.95632-1.0922-3.62434-1.41042-11.13737-6.9022-11.13737-6.9022" />
      <path class="outline" d="M316.072 12.940195s-2.38883 7.986719-1.92045 10.765713c.56494 3.351933 1.76322 7.920956 3.71389 10.704747 1.55072 2.213017 4.61899 4.385284 6.99085 5.680069 3.87479 2.11523 13.98171 4.587749 13.98171 4.587749" />
      <path class="body outline" d="M331.19175 51.669328s-5.76254 3.028229-7.64624 5.024677c-1.35008 1.43089-2.88357 3.752534-3.27697 5.68007-.43566 2.134622.87386 7.209319.87386 7.209319" />
      <path class="outline" d="M372.69996 81.81739s-4.89154 9.9063-7.86472 13.544782c-.99874 1.222228-2.67726 2.538311-3.93235 3.495427-1.24313.947998-4.36929 2.840031-4.36929 2.840031" />
      <path class="body outline" d="M367.01989 112.18392s-4.41819-1.30173-6.33547-1.09232c-1.54864.16915-3.55212 1.04197-4.80621 1.96617-1.16192.85627-3.0585 3.71389-3.0585 3.71389" />
      <path class="outline" d="M393.67252 161.77529s-5.54054-6.36807-8.5201-8.5201c-3.02889-2.18766-7.84955-4.35495-11.57861-4.58775-4.18841-.26147-9.88385 1.44391-13.54478 3.49543-2.46645 1.38216-4.93554 4.40457-6.77239 6.55392-1.92552 2.2531-5.68007 8.08318-5.68007 8.08318" />
      <path class="outline" d="M356.5336 225.34838s3.94842 4.96514 5.02468 6.99086c.84605 1.59242 1.96618 5.68007 1.96618 5.68007" />
    </g>
    <g transform="rotate(8.904 761.71634592 332.77201869)">
      <path class="body outline" d="M 107.14112,146.48399 C 107.14112,146.48399 105.6694,141.5954 106.06971,139.51982 C 106.84745,135.48733 111.95092,131.69574 113.03388,127.7343 C 113.75433,125.0989 113.03388,118.6273 113.03388,118.6273 C 113.03388,118.6273 120.79619,119.34486 123.748,120.77012 C 126.21257,121.96012 129.18358,124.47919 129.18358,124.47919 C 129.18358,124.47919 129.43418,121.29308 130.17646,119.16301 C 131.03738,116.69252 133.76744,114.57876 134.54064,112.07943 C 135.21235,109.90815 134.99781,105.23466 134.99781,105.23466 C 134.99781,105.23466 141.74083,107.74051 143.5691,110.05601 C 144.29414,110.97428 144.64052,113.80595 144.64052,113.80595 C 144.64052,113.80595 149.70802,107.85543 149.99757,104.69896 C 150.16941,102.82574 147.85475,98.806194 147.85475,98.806194 C 147.85475,98.806194 155.55939,100.58879 157.49745,103.09184 C 159.2929,105.41071 159.10457,112.73454 159.10457,112.73454 C 159.10457,112.73454 160.85613,107.54671 162.3188,105.77037 C 164.58706,103.01568 171.9615,98.806194 171.9615,98.806194 L 170.89009,109.52031 C 170.89009,109.52031 175.40941,107.35924 177.31856,107.91319 C 181.79459,109.21194 185.88378,115.02734 188.03267,119.16301 C 188.78834,120.61735 189.10408,124.52006 189.10408,124.52006 C 189.10408,124.52006 193.33851,118.68658 196.06825,117.55589 C 197.99847,116.75637 203.03243,117.55589 203.03243,117.55589 C 203.03243,117.55589 201.56024,123.19271 201.96102,125.59147 C 202.73088,130.19931 208.41543,134.876 208.92519,139.51982 C 209.1421,141.49584 207.31807,145.94829 207.31807,145.94829 C 207.31807,145.94829 214.81188,157.49533 216.42507,163.09087 C 218.25526,169.43911 215.73722,177.72874 218.90566,183.52621 C 219.67639,184.93646 221.58633,186.65765 223.19131,186.74044 C 225.06303,186.837 227.67489,185.0548 227.67489,185.0548 C 227.67489,185.0548 227.34014,189.95591 226.06777,191.48326 C 224.82485,192.97526 220.17501,194.16179 220.17501,194.16179 C 220.17501,194.16179 221.10543,198.08778 221.24642,200.59026 C 221.38741,203.09274 220.41513,208.60325 222.02093,211.20541 C 223.4949,213.59393 226.32022,215.32971 229.06363,214.73698 C 229.74485,214.5898 231.60239,214.83169 232.32731,214.04327 C 233.85135,212.38574 234.10335,209.16155 234.10335,209.16155 C 234.10335,209.16155 235.34401,213.78776 234.63906,215.59002 C 233.68605,218.02646 232.13249,219.59204 229.95755,221.04604 C 227.74599,222.52452 221.44137,222.89322 220.17501,225.23272 C 218.01116,229.23026 223.14326,235.76244 222.31783,240.23248 C 221.71691,243.48672 217.41601,246.59739 216.96077,249.87518 C 216.57466,252.6552 217.11338,255.7711 218.66686,258.10869 C 219.87674,259.92925 221.54602,262.16759 223.68614,262.61271 C 225.13678,262.91443 227.87189,262.56379 228.94423,261.5413 C 230.27039,260.27679 231.08154,258.10359 231.42482,256.30364 C 231.69746,254.8741 231.96053,251.48229 231.96053,251.48229 C 231.96053,251.48229 234.513,256.14544 234.51965,258.44647 C 234.52526,260.38835 233.7302,262.83981 232.49624,264.33923 C 230.73924,266.4742 227.5816,268.71562 224.99636,269.69628 C 222.12557,270.78526 217.83161,271.35522 214.81795,270.76769 C 212.13634,270.2449 206.78237,266.48205 206.78237,266.48205 C 206.78237,266.48205 206.61011,270.6373 206.24666,272.37481 C 205.72638,274.86205 205.46156,278.7157 203.56813,280.4104 C 201.85356,281.94501 196.06825,282.01751 196.06825,282.01751 C 196.06825,282.01751 198.40026,291.24707 200.8896,294.33874 C 201.97982,295.69275 204.06955,296.98052 205.71095,297.55298 C 207.53823,298.19027 210.30695,298.7109 212.13942,298.08868 C 214.40171,297.32051 216.80592,294.78207 218.03218,292.73163 C 218.71239,291.59425 219.1036,288.44598 219.1036,288.44598 C 219.1036,288.44598 220.35959,295.84114 219.1036,298.62439 C 217.6049,301.94548 213.4457,305.48548 209.9966,306.65997 C 207.70954,307.43876 204.27834,306.8078 201.96102,306.12427 C 200.37399,305.65615 198.72767,303.91057 197.13967,303.44574 C 194.66702,302.72196 188.56838,302.91003 188.56838,302.91003 C 188.56838,302.91003 189.31726,308.16431 189.10408,310.40991 C 188.86829,312.89366 187.72161,316.06926 186.96126,318.44549 C 186.54279,319.75329 185.79523,321.42787 186.22762,322.73114 C 187.06989,325.26984 190.17956,327.51114 192.85402,327.55249 C 194.728,327.58146 197.34638,326.00107 198.21108,324.33826 C 199.25178,322.33698 197.67537,316.83838 197.67537,316.83838 C 197.67537,316.83838 201.60483,322.60871 201.42531,325.40967 C 201.30543,327.28003 199.71696,329.65095 198.21108,330.76672 C 196.08144,332.34466 192.28749,332.78723 189.63979,332.90955 C 187.52821,333.0071 184.62416,332.65755 182.67561,331.83813 C 180.45343,330.90364 177.92359,328.74909 176.24715,327.01678 C 173.51867,324.19738 170.55817,319.78323 168.74727,316.30267 C 167.87905,314.63394 165.41632,311.76777 165.41632,311.76777 C 165.41632,311.76777 162.12678,311.61158 160.17598,311.48132 C 157.99492,311.33568 154.92434,310.69697 153.2118,309.3385 C 151.46263,307.95097 150.40385,304.93426 149.46187,302.91003 C 148.45387,300.74393 146.78334,295.41015 146.78334,295.41015 C 146.78334,295.41015 138.57431,300.80537 137.14064,304.51715 C 136.38565,306.47183 136.95235,309.51494 137.67634,311.48132 C 138.4316,313.53261 140.48744,315.76041 141.96199,317.37408 C 143.11442,318.63523 146.24763,321.12402 146.24763,321.12402 C 146.24763,321.12402 139.02807,321.87851 136.06923,321.12402 C 132.16668,320.1289 125.85925,316.0787 123.00646,313.23586 C 120.40804,310.64651 118.28853,306.65957 116.93124,303.25159 C 115.5178,299.70263 115.17671,291.66021 115.17671,291.66021 L 116.07734,284.1837 C 116.07734,284.1837 112.54256,287.75222 111.96247,290.0531 C 111.45172,292.07896 111.96247,297.01727 111.96247,297.01727 C 111.96247,297.01727 107.98502,288.57458 107.14112,284.69604 C 106.52514,281.86501 106.01826,277.89049 106.60542,275.05334 C 107.04239,272.94191 109.81965,268.62487 109.81965,268.62487 C 109.81965,268.62487 104.74426,259.86251 103.39118,255.76794 C 101.65019,250.49952 99.833636,243.09195 100.17695,237.55395 C 100.44745,233.1905 104.46259,223.6256 104.46259,223.6256 L 98.569833,225.23272 C 98.569833,225.23272 91.768843,218.37933 91.069954,214.51861 C 90.153423,209.45561 93.419187,202.67873 95.355599,197.91173 C 96.330864,195.51085 98.619466,192.7933 99.641244,190.41185 C 100.96441,187.32796 102.85548,179.69774 102.85548,179.69774 C 102.85548,179.69774 97.211233,177.47989 95.891305,175.4121 C 94.411153,173.0933 94.819893,166.3051 94.819893,166.3051 C 94.819893,166.3051 98.7008,169.46919 100.71266,170.05504 C 102.25568,170.50437 104.75949,168.30808 104.75949,168.30808 C 104.75949,168.30808 101.69746,162.0631 101.24836,158.26952 C 100.99985,156.17034 101.36428,153.1909 102.31977,151.30534 C 103.24438,149.48071 107.14112,146.48399 107.14112,146.48399 z"/>
      <path class="teeth outline" d="M 143.53762,175.88027 C 143.53762,175.88027 143.19571,185.65082 143.59205,188.55499 C 143.90427,190.84273 146.21375,193.88328 146.21375,193.88328 C 146.21375,193.88328 148.78521,191.30626 149.10695,188.98393 C 149.51637,186.02877 149.37644,176.12355 149.37644,176.12355 L 143.53762,175.88027 z"/>
      <path class="teeth outline" d="M 174.85661,175.80955 C 174.85661,175.80955 174.5147,185.5801 174.91104,188.48427 C 175.22326,190.77201 177.53274,193.81256 177.53274,193.81256 C 177.53274,193.81256 180.1042,191.23554 180.42594,188.91321 C 180.83536,185.95805 180.69543,176.05283 180.69543,176.05283 L 174.85661,175.80955 z"/>
      <path class="white outline" d="M 149.34544,142.89806 A 12.504578,7.3608503 0 1 1 124.33629,142.89806 A 12.504578,7.3608503 0 1 1 149.34544,142.89806 z" transform="matrix(0.9158702,-0.4014745,0.4014745,0.9158702,-43.729092,67.891117)"/>
      <path class="white outline" d="M 149.34544,142.89806 A 12.504578,7.3608503 0 1 1 124.33629,142.89806 A 12.504578,7.3608503 0 1 1 149.34544,142.89806 z" transform="matrix(-0.9158702,-0.4014745,-0.4014745,0.9158702,361.93067,66.605363)"/>
      <path class="outline" d="M 161.45059,136.42672 C 161.45059,136.42672 165.4155,137.63433 166.32779,138.5728 C 168.08672,140.38222 168.32378,144.21157 170.28681,145.79724 C 171.22069,146.5516 173.11978,147.70814 174.13165,148.35414 C 174.69571,148.71425 175.46371,149.96656 177.17688,150.56002 C 179.251,151.27851 182.44471,150.66663 183.54981,151.12453 C 187.13431,152.60978 192.68195,158.6249 193.86529,162.32007 C 194.24726,163.51284 193.42128,165.22804 192.97844,166.39957 C 191.85824,169.3631 189.05755,172.70013 187.83472,175.62281 C 187.32127,176.85 186.74465,178.55807 186.59313,179.87969 C 186.48387,180.83272 186.62692,182.12387 186.7705,183.07234 C 186.86901,183.72311 186.93622,184.65401 187.30261,185.20078 C 188.00169,186.24403 189.86084,186.24323 190.49441,187.32752"/>
      <path class="outline" d="M 150.40967,139.26198 C 150.40967,139.26198 151.35963,140.8802 150.35548,143.3935 C 149.55188,145.40487 146.90077,148.34007 145.9281,148.8788 C 142.81042,150.60558 138.38732,151.89879 135.94284,152.9057 C 133.45557,153.93024 130.90559,155.35822 130.53416,155.57971 C 129.56926,156.15509 127.80305,156.05893 127.01486,156.85946 C 125.1621,158.74122 123.79996,162.55842 124.13543,165.17781 C 124.7509,169.98346 132.3353,173.82997 133.09365,178.61515 C 133.98308,184.22748 127.89722,191.1697 127.97467,196.85154 C 128.01439,199.76568 131.33543,200.69582 130.8541,203.57021 C 130.55924,205.33104 127.33479,210.92875 127.33479,210.92875 C 127.33479,210.92875 133.98081,207.06608 135.97308,204.53002 C 137.19543,202.97403 138.53258,198.45122 138.53258,198.45122 C 138.53258,198.45122 136.39506,207.93101 137.25283,211.88856 C 138.19093,216.21673 142.06229,221.62713 142.06229,221.62713 C 142.06229,221.62713 142.43405,217.62605 143.27181,215.4781 C 143.86368,213.96059 148.13068,213.16831 148.13068,213.16831 C 148.13068,213.16831 146.70099,217.36906 146.53099,219.24711 C 146.41817,220.49345 146.39967,222.23904 146.85093,223.40628 C 147.64017,225.44773 149.70519,227.69876 151.33004,229.16514 C 152.00226,229.77179 153.88954,230.76483 153.88954,230.76483 C 153.88954,230.76483 152.34379,226.53056 152.60979,224.68603 C 152.81206,223.2834 154.84935,220.52685 154.84935,220.52685 C 154.84935,220.52685 155.80065,226.69334 156.76897,229.16514 C 157.25534,230.40668 158.26268,231.98918 158.66864,233.25929 C 159.63694,236.28874 158.8772,237.77815 158.43888,240.92824 C 158.25464,242.25234 156.8392,246.10705 156.8392,246.10705 C 156.8392,246.10705 162.83503,243.07178 164.25756,240.59789 C 165.21086,238.94003 165.5068,235.83523 165.5824,233.92432 C 165.63302,232.64477 165.64222,232.56913 165.64222,232.56913 C 165.64222,232.56913 167.83555,235.07342 168.20172,236.40837 C 168.68478,238.16948 168.37184,238.58226 167.96675,240.36293 C 167.41318,242.79626 166.07174,244.44148 166.04192,246.93681 C 166.01977,248.79038 167.07162,251.29123 168.28148,252.69567 C 170.73623,255.5452 177.88999,258.15453 177.88999,258.15453 C 177.88999,258.15453 175.05233,252.71505 174.69063,250.15612 C 174.42062,248.24591 175.92908,246.329 176.60504,244.5221 C 177.59414,241.87817 180.99926,239.46608 182.04396,236.84362 C 182.79747,234.95212 183.0868,232.15932 183.00377,230.12495 C 182.91547,227.96132 182.22514,225.09008 181.40409,223.08635 C 180.50526,220.8928 177.24491,216.36768 177.24491,216.36768 C 177.24491,216.36768 176.60549,215.92913 178.34835,217.385 C 179.68818,218.50422 183.40902,221.40333 183.96358,222.44647 C 184.91934,224.24427 186.02799,228.48538 186.02799,228.48538 C 186.02799,228.48538 188.01133,223.51819 188.12276,220.84679 C 188.22277,218.44935 185.54332,213.7631 185.54332,213.7631 L 184.28352,210.60882 C 184.28352,210.60882 188.64328,213.51828 189.72244,215.40787 C 190.98271,217.61458 192.17182,222.87653 192.17182,222.87653 C 192.17182,222.87653 195.68441,216.43189 195.41628,213.48825 C 195.26826,211.8633 194.64933,209.99882 193.96138,208.51926 C 193.30761,207.1132 190.68225,203.89015 190.68225,203.89015 C 190.68225,203.89015 194.95334,204.8065 195.9401,206.03306 C 197.07046,207.43813 199.35522,212.01862 199.35522,212.01862 C 199.35522,212.01862 201.66947,207.90983 202.04523,203.56437 C 202.33649,200.1961 199.9068,194.02433 198.57861,193.05547 L 189.77009,186.63003"/>
      <path class="langue outline" d="M 149.15195,179.71237 C 149.15195,179.71237 149.67266,193.59169 152.91537,199.39924 C 154.7723,202.72493 161.6967,209.60724 161.6967,209.60724 C 161.6967,209.60724 169.74971,201.7131 171.73251,198.42705 C 175.13877,192.78195 174.49235,178.25408 174.49235,178.25408 L 169.22356,170.96266 L 153.66805,171.2057 L 149.15195,179.71237 z"/>
      <path class="body outline" d="M 136.52707,165.24794 C 136.52707,165.24794 134.50769,166.64826 135.75973,169.26514 C 136.65451,171.1353 141.07956,173.55041 141.59666,174.85758 C 142.12557,176.19462 142.79323,179.97903 142.79323,179.97903 C 142.79323,179.97903 147.37316,181.28253 148.99529,180.83322 C 151.0972,180.25102 153.23432,177.974 155.22941,177.09275 C 157.01551,176.30381 161.46352,175.22252 161.46352,175.22252 L 160.84011,162.13088 C 160.69199,162.30016 154.28203,155.58708 152.21705,152.97848 C 151.47377,152.03953 149.31817,153.92051 149.62565,155.07789 C 150.69637,159.10826 161.09856,162.00185 160.80645,162.19659 C 160.80645,162.19659 171.0625,158.59351 171.19482,154.61954 C 171.22123,153.82651 169.97712,152.29787 169.32459,152.74931 C 166.73204,154.5429 161.21242,162.57375 160.80645,162.13088 L 161.42986,175.22252 C 161.42986,175.22252 166.1027,176.35065 167.66558,177.02865 C 169.24741,177.71487 171.02845,180.09882 172.68653,180.572 C 175.052,181.24705 180.98772,178.76313 180.98772,178.76313 C 180.98772,178.76313 180.64354,175.64186 180.99583,174.47118 C 181.53781,172.67016 185.20749,170.30731 186.44878,167.99884 C 187.57029,165.91315 185.6788,164.52517 185.6788,164.52517"/>
      <path class="outline" d="M 117.28348,125.13276 C 117.28348,125.13276 120.1702,127.52975 120.31906,128.99622 C 120.48732,130.65379 117.46252,132.3397 117.83541,133.96352 C 118.13931,135.2869 121.36096,135.36671 121.4229,136.72313 C 121.56186,139.7663 113.97195,143.62216 113.97195,143.62216 C 113.97195,143.62216 117.76468,134.91854 118.11137,130.92795 C 118.26337,129.17833 117.28348,125.13276 117.28348,125.13276 z"/>
      <path class="outline" d="M 197.84472,123.06782 C 197.84472,123.06782 196.40958,131.04545 198.45009,133.89296 C 199.92732,135.95443 202.14844,139.64623 202.14844,139.64623 C 202.14844,139.64623 200.18338,139.65656 199.49983,139.23289 C 197.81889,138.19101 197.72148,136.75299 196.75461,134.61956 C 196.08026,133.13158 194.52501,130.53619 194.21508,128.30427 C 193.95206,126.41023 197.84472,123.06782 197.84472,123.06782 z"/>
      <path class="white outline" d="M 149.95408,141.35471 A 8.0072575,8.0072575 0 1 1 133.93957,141.35471 A 8.0072575,8.0072575 0 1 1 149.95408,141.35471 z"/>
      <path class="white outline" d="M 149.95408,141.35471 A 8.0072575,8.0072575 0 1 1 133.93957,141.35471 A 8.0072575,8.0072575 0 1 1 149.95408,141.35471 z" transform="translate(33.970233,-1.4815536)"/>
      <path class="pupil outline" d="M 176.57545,132.98387 C 175.97176,132.98216 175.43021,133.07631 174.88795,133.14012 C 173.80343,133.26774 172.88795,133.45262 172.88795,133.45262 L 173.6692,136.85887 C 173.6692,136.85887 174.41539,136.71228 175.2942,136.60887 C 176.17301,136.50546 177.27509,136.65333 177.1067,136.57762 C 177.03029,136.54326 177.73916,137.33688 177.7942,137.51512 C 177.97082,138.08712 177.86809,140.22176 177.58137,140.80067 C 177.48088,141.00357 176.66348,141.72152 176.61262,141.73817 C 176.87277,141.65298 176.00902,141.72802 175.36262,141.61317 C 174.71623,141.49832 174.17512,141.36317 174.17512,141.36317 C 174.17512,141.36317 172.40414,141.15255 172.1531,141.73139 C 171.82031,142.49873 173.1692,144.32762 173.1692,144.32762 C 173.1692,144.32762 173.86581,144.49183 174.70045,144.64012 C 175.53509,144.78841 176.38656,145.04992 177.63795,144.64012 C 179.12971,144.1516 180.04927,143.20432 180.6692,141.95262 C 181.50127,140.27258 181.70507,138.32049 181.13795,136.48387 C 180.73512,135.17931 180.03601,134.06088 178.5442,133.39012 C 177.83708,133.07218 177.17914,132.98558 176.57545,132.98387 z"/>
      <path class="body outline" d="M 175.12434,127.61583 C 175.12434,127.61583 172.3628,128.0464 171.22221,128.50268 C 168.98206,129.39883 166.72261,131.42844 166.43322,133.82377 C 166.28192,135.07611 166.76674,136.14084 167.67481,137.01643 C 168.65139,137.95808 170.22172,137.84194 171.57695,137.90328 C 173.56162,137.99312 176.02456,136.43029 177.96226,136.66169 C 180.75206,136.99485 184.36953,138.70461 186.47602,140.56383 C 187.46134,141.43349 187.67966,143.57277 188.78182,144.2886 C 189.77266,144.93213 191.62857,145.35179 192.68396,144.82071 C 193.7689,144.27476 194.33287,142.44969 194.63503,141.27331 C 194.78065,140.70639 194.79997,139.88384 194.63503,139.32224 C 194.38547,138.47252 193.65121,137.4787 193.0387,136.83906 C 192.2729,136.03934 190.02341,134.71062 190.02341,134.71062"/>
      <path class="pupil outline" d="M 142.54423,134.10752 C 141.94054,134.10581 141.39899,134.19996 140.85673,134.26377 C 139.77221,134.39139 138.85673,134.57627 138.85673,134.57627 L 139.63798,137.98252 C 139.63798,137.98252 140.38417,137.83593 141.26298,137.73252 C 142.14179,137.62911 143.24387,137.77698 143.07548,137.70127 C 142.99907,137.66691 143.70794,138.46053 143.76298,138.63877 C 143.9396,139.21077 143.83687,141.34541 143.55015,141.92432 C 143.44966,142.12722 142.63226,142.84517 142.5814,142.86182 C 142.84155,142.77663 141.9778,142.85167 141.3314,142.73682 C 140.68501,142.62197 140.1439,142.48682 140.1439,142.48682 C 140.1439,142.48682 138.37292,142.2762 138.12188,142.85504 C 137.78909,143.62238 139.13798,145.45127 139.13798,145.45127 C 139.13798,145.45127 139.83459,145.61548 140.66923,145.76377 C 141.50387,145.91206 142.35534,146.17357 143.60673,145.76377 C 145.09849,145.27525 146.01805,144.32797 146.63798,143.07627 C 147.47005,141.39623 147.67385,139.44414 147.10673,137.60752 C 146.7039,136.30296 146.00479,135.18453 144.51298,134.51377 C 143.80586,134.19583 143.14792,134.10923 142.54423,134.10752 z"/>
      <path class="body outline" d="M 126.6421,135.89195 C 126.6421,135.89195 124.32059,140.75327 123.80418,142.98675 C 123.47965,144.39035 122.91413,146.43825 123.44944,147.77573 C 124.00938,149.17475 125.68041,151.34411 127.17421,151.14576 C 128.05211,151.02919 128.37083,149.45285 128.77054,148.66258 C 129.64475,146.93418 129.83471,144.11859 131.07635,142.63201 C 132.59149,140.81798 135.51541,139.09265 137.81641,138.5525 C 140.31156,137.96678 143.76873,139.35104 146.33016,139.26198 C 147.72908,139.21334 149.69318,139.18521 150.94178,138.5525 C 152.15004,137.94023 154.13444,135.35984 154.13444,135.35984 C 154.13444,135.35984 152.99707,132.45613 152.006,131.63507 C 150.74904,130.59373 148.48148,130.06754 146.86227,129.86138 C 144.8502,129.60521 142.13545,130.14672 140.12221,130.39349 C 139.15842,130.51163 136.92956,130.9256 136.92956,130.9256"/>
      <path class="outline" d="M 102.68249,179.18294 C 102.68249,179.18294 106.66552,179.96113 108.27786,179.48539 C 111.61138,178.5018 115.62617,175.50302 117.65387,172.68022 C 118.09756,172.06256 118.41,170.2606 118.41,170.2606"/>
      <path class="outline" d="M 98.90184,225.15566 C 98.90184,225.15566 97.782248,217.99244 98.448162,215.02351 C 99.043326,212.37002 100.87625,209.04145 102.68249,207.00853 C 106.34353,202.88804 117.8051,196.57393 117.8051,196.57393"/>
      <path class="outline" d="M 118.41,206.85731 C 118.41,206.85731 110.29185,213.64277 107.67295,217.2919 C 106.38328,219.0889 104.4972,223.94585 104.4972,223.94585"/>
      <path class="outline" d="M 119.16613,224.70198 C 119.16613,224.70198 114.93967,230.34173 113.57077,233.01941 C 111.89816,236.29117 110.17798,240.93574 109.33644,244.51259 C 108.57341,247.75572 108.04012,252.22154 108.12663,255.5521 C 108.22211,259.22789 109.94134,268.70876 109.94134,268.70876"/>
      <path class="outline" d="M 116.05841,284.02886 C 116.05841,284.02886 121.43929,278.73922 121.47119,274.05311 C 121.49444,270.63883 117.28277,266.07066 116.66045,262.7135 C 116.04398,259.38786 117.17302,253.5215 118.7222,250.51484 C 119.30672,249.38041 121.81482,247.59403 121.81482,247.59403"/>
      <path class="outline" d="M 145.86852,296.38869 C 145.86852,296.38869 150.56868,290.60003 150.50745,287.62627 C 150.37478,281.18303 143.46171,275.26013 144.49402,268.89874 C 144.70349,267.60795 146.81628,265.36681 147.28855,262.95685 C 147.63408,261.19363 146.97815,258.06964 146.72759,257.38733 C 145.99715,255.39827 140.88597,253.77927 140.88597,253.77927"/>
      <path class="outline" d="M 138.93927,321.19867 C 138.93927,321.19867 132.79625,315.96835 130.36877,312.72626 C 128.14096,309.75086 126.69883,306.45222 126.56148,304.74305 C 126.30801,301.58892 126.33309,299.13046 126.95187,296.02725 C 128.19831,289.77637 134.52976,282.97006 135.46399,276.66495 C 135.73918,274.80772 134.32293,272.13968 135.0736,270.41877 C 135.73912,268.89308 138.48942,268.31916 139.36785,266.9053 C 140.19245,265.57808 140.72362,263.38186 140.53901,261.83028 C 140.41525,260.7901 138.97746,258.70719 138.97746,258.70719"/>
      <path class="outline" d="M 130.38897,240.74943 C 130.38897,240.74943 128.07504,244.99359 127.65626,246.9956 C 127.24861,248.94439 126.75631,251.8562 127.65626,253.63217 C 128.64097,255.5754 132.52735,255.98319 133.51206,257.92642 C 134.46495,259.80685 134.45483,263.06784 133.51206,264.95337 C 132.72642,266.52464 128.82742,268.46684 128.82742,268.46684 C 128.82742,268.46684 126.68447,260.86167 126.87549,257.53603 C 126.9456,256.31532 128.04665,253.63217 128.04665,253.63217"/>
      <path class="outline" d="M 177.2353,264.17259 C 177.2353,264.17259 180.65934,271.69356 180.06678,275.07048 C 179.63218,277.54722 176.06974,279.97496 176.16291,282.48782 C 176.20385,283.59193 178.11485,285.61091 178.11485,285.61091 C 178.11485,285.61091 175.32351,286.82614 174.21098,286.39168 C 172.72716,285.81223 171.64056,283.59143 171.08789,282.09743 C 170.06882,279.34263 171.36128,276.17447 169.81326,273.67826 C 169.09344,272.51755 165.13333,270.41877 165.13333,270.41877 C 165.13333,270.41877 169.29414,284.39648 167.80489,289.25138 C 166.84188,292.39074 161.07297,291.52814 160.05831,295.40348 C 159.4584,297.69477 159.68846,301.41254 161.22947,303.2112 C 162.50678,304.70208 165.38858,305.37871 167.13618,304.4842 C 168.78456,303.64048 170.25927,301.14046 170.25927,301.14046 C 170.25927,301.14046 171.46015,305.90415 170.42901,307.60729 C 169.59268,308.98866 166.6779,311.62997 166.6779,311.62997"/>
      <path class="outline" d="M 184.80964,289.66226 C 184.80964,289.66226 183.31755,293.38587 183.57483,295.0131 C 184.13704,298.56898 189.74887,305.30317 189.74887,305.30317"/>
      <path class="outline" d="M 196.33452,283.07662 L 194.68811,275.25617 L 193.8649,262.49648"/>
      <path class="outline" d="M 198.80413,245.20916 C 198.80413,245.20916 196.83492,251.90767 197.56933,254.67603 C 198.88019,259.61727 207.8594,268.25892 207.8594,268.25892"/>
      <path class="outline" d="M 208.271,209.39972 C 208.271,209.39972 208.516,215.53917 209.91741,217.63178 C 211.8993,220.59118 221.03069,223.39421 221.03069,223.39421"/>
      <path class="outline" d="M 200.45055,220.513 C 200.45055,220.513 209.90545,230.49456 212.38703,235.7423 C 214.82042,240.88813 216.50305,254.26442 216.50305,254.26442"/>
      <path class="medial-sulcus outline" d="M 160.3125,176 C 159.85666,192.56862 160.46875,198.78125 160.46875,198.78125 L 161.53327,202.15771 L 162.78125,198.5625 C 162.78125,198.5625 162.20237,192.55984 162.65625,176.0625 L 160.3125,176 z"/>
    </g>
  </g>
</svg>
