<?xml version="1.0" encoding="UTF-8" standalone="no"?>
<svg xmlns="http://www.w3.org/2000/svg" xmlns:svg="http://www.w3.org/2000/svg" width="400" height="420" version="1.0">
  <g transform="scale(0.0975) translate(-205.5, -205.5)">
    <g transform="rotate(3.094 528.92895152 129.65246513)">
      <path class="body outline" d="M137.15432 305.29546s-11.7713-8.03904-11.89601-12.75327c-.03874-1.46462 1.61373-2.13535 2.09204-3.52019.56642-1.63992.71897-3.34586-.41004-4.66324-1.7898-2.0884-6.11344-1.30515-8.75927-.5539-3.5321 1.0029-9.23775 6.84866-9.23775 6.84866l-.90977 9.14105 13.29899 10.7608 15.82181-5.25991z"/>
      <path class="body outline" d="M269.5756 322.98911s-37.92157-4.26374-54.1436-3.03419c-3.8716.29344-9.37407.60362-12.66531 2.66353-2.88434 1.80524-5.61296 5.83431-6.95074 8.963-1.48343 3.46935-3.6459 9.11466-1.86082 12.43889 1.63093 3.03714 10.41272 4.86015 10.41272 4.86015s-8.10372 3.00714-11.54651 2.23525c-2.54178-.56988-5.46091-3.03331-7.00407-5.13188-1.15951-1.57682-2.11193-6.17287-2.11193-6.17287s-3.10026 3.40953-5.10623 3.94649c-2.66881.71439-8.59223-.05405-8.59223-.05405s2.46724-2.4312 3.38595-3.47678c1.56452-1.78057 2.99845-4.22781 3.44388-6.55584.26931-1.40748-1.47273-4.544-1.47273-4.544s-.61383 2.86826-1.17321 3.98043c-1.19482 2.37559-3.2686 5.40331-5.33176 7.08095-1.16309.94576-3.61788.93192-4.52095 2.12846-1.20928 1.60224-2.10013 2.3628-1.53807 4.28988.43046 1.47587 1.04946 3.3903 2.51623 3.8508.9576.30064 3.11342 1.13573 3.98117.63135.72201-.41968 2.53013-1.15677 2.53013-1.15677s-.94301 2.96598-2.84146 4.784c-1.03157.98786-2.83801 1.17746-3.79854 1.42142-.49794.12645-2.41112.95821-4.4652-.12957-1.99723-1.05767-3.72976-3.06564-4.02609-3.4678 0 0-2.99991-3.14667-3.58268-4.86229-.89323-2.62959-.77694-6.54219-.18416-9.25534.33048-1.51261 1.98476-3.12073 2.24534-4.64694.21597-1.26493-.75828-2.99853-.47762-4.25071.31045-1.38506.25032-1.31791.25032-1.31791s.78552 1.04714-.35158 3.12683c-1.25987 2.30423-4.79895 8.21129-4.79895 8.21129l-3.82867-4.96894-.7584-5.19501s-.28966-1.74659.21496-2.1566c.54011-.43886 1.68907.5682 2.30656.24722 1.5276-.79405 1.17357-3.98066 1.17357-3.98066s.1499 3.14742-1.40429 3.94564c-.56683.29112-1.66546-.6168-2.11741-.1676-1.6336 1.62367-.28269 4.12495.55915 7.65712.61177 2.5669 2.01693 5.07335 1.30074 6.67816-.64675 1.4492-4.49792 2.78419-4.49792 2.78419l-11.9413-3.51965s-3.69758-3.18474-4.11867-5.10757c-.67965-3.10343.7505-11.35135.7505-11.35135l-.82583-.13537-4.74515 5.09075s.57635 7.2293-1.66766 8.59354c-1.59564.97007-5.97065-1.75982-5.97065-1.75982l-11.15355-9.12786s-.82085-3.80549-.18431-5.24581c.96306-2.17916 6.0566-5.13682 6.0566-5.13682l-5.33797-2.43858s-6.324491 3.7051-9.088001 2.94544c-1.348777-.37076-2.444555-2.25539-3.077485-3.50281-1.222818-2.41003-1.95034-8.79469-1.95034-8.79469l8.966592-15.74363s3.686084-.6469 4.929454.15507c2.62849 1.69537 4.59629 9.35826 4.59629 9.35826s9.74895 4.84894 14.29394 5.07831c4.81944.24323 10.83291-3.2411 15.62222-3.83157 3.22492-.39761 7.6422-.67661 10.83099-.05229 1.16705.22849 2.70055.81562 3.6641 1.5126 2.04245 1.47739 4.13937 4.23584 5.4762 6.37294 1.2891 2.0608 1.70692 5.53133 3.21572 7.43717.78233.98819 3.37078 2.50771 3.37078 2.50771s-5.02714-7.06932-6.92588-10.26122c-2.34065-3.93481-4.0921-10.03772-7.0411-13.53984-.90098-1.06998-3.09023-1.57012-3.71016-2.82405-1.17849-2.38375-.95984-6.39052.01683-8.86383.15336-.38836.96369-.60084.94902-1.01814-.05376-1.5301-2.94162-2.16924-3.7332-3.47977-1.77733-2.94254-3.01387-7.61753-3.01457-11.05519-.00062-2.98844.57305-7.43123 2.61668-9.61169 1.61809-1.72643 5.09697-2.44242 7.46021-2.56 3.36231-.1673 10.92316 2.57061 10.92316 2.57061s-5.58823 1.1128-7.46021 2.56001c-1.33963 1.03565-2.92453 3.02301-3.11736 4.70527-.10633.92762.58228 2.13087 1.08727 2.91621 2.18443 3.39708 9.52576 9.51332 9.52576 9.51332s8.32413-2.80054 12.02724-3.37699c4.66792-.72663 11.03754-1.03107 15.73742-.55295 2.54199.25861 5.86262 1.17133 8.27721 2.00705 2.91156 1.00772 6.26239 4.15716 9.34143 4.26752 1.86618.06689 4.15057-1.36305 5.83242-2.17453 1.82522-.88066 4.42895-1.98115 5.78633-3.48598 1.2292-1.36272 53.03013-21.49325 37.38609-30.90827l-32.62171-19.63264 49.79444 27.15789 23.91541 32.03256-27.93479 40.91138z" />
      <path class="outline" d="M148.06025 280.42895s3.30441 1.61156 4.82781 1.96364c1.39755.323 4.77025.32469 4.77025.32469" />
      <path class="outline" d="M163.12178 288.76103s-2.92265-1.76097-4.33038-1.81703c-1.58689-.0632-3.85235.58686-5.02892 1.65358-1.25525 1.13804-2.27992 5.16712-2.27992 5.16712" />
      <path class="outline" d="M164.24336 292.65995s-3.374-.80127-4.60058-.16654c-1.81847.94103-3.01231 3.79592-3.73769 5.71065-.38975 1.02877-.5289 3.62873-.5289 3.62873" />
      <path class="outline" d="M168.20299 297.93605s-3.8587.02756-5.22162.83986c-1.26079.75144-2.44553 2.51265-2.98156 3.879-.70647 1.80085-.59489 6.42071-.59489 6.42071" />
      <path class="outline" d="M126.454 324.01758s2.99714-2.61233 4.1461-3.42762c1.56535-1.11075 6.38616-.38848 6.38616-.38848" />
      <path class="outline" d="M110.59026 316.206s1.79306-2.08201 2.86949-2.39819c1.48226-.43537 5.10955.64096 5.10955.64096" />
      <path class="claw outline" d="M111.80092 290.66686c-1.55162-1.17831-2.29501-3.99018-3.70754-5.33209-2.12951-2.02305-8.314499-5.17022-8.314499-5.17022s5.082929-.9899 7.257119-.74053c2.63221.3019 6.36475 1.11338 8.35481 2.86248 1.52932 1.34415 3.06262 4.04978 3.00568 6.08506-.03701 1.32271-.93309 3.37293-2.17144 3.83926-1.31556.4954-3.30461-.6938-4.42413-1.54396z" />
      <path class="claw outline" d="M96.792754 295.45084c1.118152.97787 2.215034 2.74953 2.688363 4.17295.483905 1.45517 1.139913 3.75957.382713 5.1496-.482857.88641-1.952135 1.44942-2.92929 1.64567-.697984.14017-1.669876-.04581-2.322042-.28893-1.376679-.51323-2.592461-2.42678-4.039556-2.7234-1.266268-.25954-3.111457.20579-4.310446.77505-1.695629.80506-2.611562 1.03973-3.760783 2.53771-.879849 1.14688-2.562948 5.5297-2.562948 5.5297s-2.072398-4.99678-1.988105-7.06277c.123183-3.0188 1.173437-5.95284 3.372636-8.10917 1.38906-1.36197 3.990138-2.27237 5.866771-2.65854 2.315666-.47652 5.540382-.34311 7.800316.18566.585523.137 1.354473.45476 1.802371.84647z" />
      <path class="claw outline" d="M108.41637 325.96088c.8576-.11649 2.09346.31944 2.74415.89008 1.60595 1.40837 3.38727 4.31687 3.06204 6.42798-.2468 1.60193-2.35355 3.02612-3.68382 3.95212-1.97814 1.37698-5.036 2.69942-7.41326 3.09666-2.19883.36742-7.415591-.47933-7.415591-.47933s4.306711-2.98728 5.628421-4.76032c1.2255-1.64396 1.41891-4.69328 2.73949-6.26188 1.00457-1.19324 2.79296-2.65536 4.33857-2.86531z" />
      <path class="claw outline" d="M137.31215 337.64679c1.89351-.42301 4.36189 1.68781 5.65906 3.1306 1.11094 1.23566 1.42834 2.48328 1.37873 4.14418-.06518 2.1825-1.5903 5.07625-3.22347 6.52551-1.01453.90028-2.91 1.41067-4.26301 1.50622-1.59222.11244-2.98339.55675-4.44243-.09054-1.68363-.74692-4.9374-3.6492-4.9374-3.6492s4.01126-.25477 5.38444-1.17569c1.49228-1.00079 3.03141-3.17077 3.40289-4.92875.20106-.95154-.81651-2.23555-.60516-3.18486.18323-.82292.82357-2.09367 1.64635-2.27747z" />
    </g>
    <g transform="rotate(-48.262 280.4723667 535.60075556)">
      <path class="body outline" d="M510.84293 71.577612s10.6888-6.090484 15.49168-5.13789c1.46203.289979 1.88469 2.361367 3.76187 3.245452 2.01851.950654 6.28364 3.317301 8.18166 2.144419 1.94193-1.200018 3.27135-6.870201 3.27135-6.870201s-.99564-8.621436-3.23672-11.370214c-2.44144-2.994526-11.42274-5.948591-11.42274-5.948591l-8.84649 5.850138-7.20061 18.086887z" />
      <path class="body outline" d="M563.22262 215.8068s-62.86585 22.26801-97.00569-11.59118c-6.27418-6.22259-11.54238-17.6113-13.33448-26.26429-.90401-4.36492.91103-14.83053.91103-14.83053s-7.96451-2.35167-11.01627-1.04505c-2.24057.95932-4.02113 4.16233-5.02684 6.38246-1.08895 2.40391-1.60559 8.6491-1.60559 8.6491s-4.10572-7.00566-4.18281-10.3552c-.08135-3.53395 2.076-8.09231 3.90575-11.11679 1.67633-2.77089 4.03209-4.68687 7.12081-5.6604 2.25127-.70957 7.65346-1.35276 7.65346-1.35276s1.6033-8.81444 2.7983-12.76278c1.0473-3.46034 4.73441-11.08225 4.73441-11.08225s-2.62583-1.52293-3.88128-1.77311c-1.12291-.22377-2.74497-.27537-3.81426.13402-1.52398.58347-3.83929 1.89104-4.17378 3.48825-.35449 1.69264 2.56818 5.16085 2.56818 5.16085s-3.27192.45288-4.30779-.32601c-2.17046-1.63201-3.55964-5.79524-3.16224-8.48158.59535-4.02453 4.77746-8.61255 8.21354-10.79077 2.08673-1.32282 5.58489-1.76595 8.05505-1.71513 2.53562.05216 8.18908 2.09912 8.18908 2.09912s.08223-5.92541 1.14556-8.15557c.78401-1.64432 3.29897-2.82607 4.14028-4.441815 1.09015-2.093633.10873-5.898402 1.63909-7.695537 4.51927-5.307055 21.66399-8.39913 21.66399-8.39913s-12.98793 4.611296-18.05075 2.543716c-2.27962-.930959-5.00236-6.507441-5.00236-6.507441l5.28584-12.597384s3.46396-2.901748 5.16085-2.568188c3.99193.784705 8.95065 10.187681 8.95065 10.187681l-4.57584-7.954537 6.90046-7.403032 7.72904 2.592666s-9.27219-2.550394-11.18378-5.812881c-1.08773-1.856416.22549-7.168496.22549-7.168496l8.38108-6.022939s4.75128-1.893315 6.18142-.69456c3.8406 3.219232 1.06311 16.67065 1.06311 16.67065l.55151-11.47629 4.73433-1.121093.36855 10.489227.09148-10.982763 5.55388-4.968857 1.97414 1.840123s-2.82556-4.407053-2.44835-6.278928c.44163-2.191602 1.95732-4.503133 4.11793-5.077525 3.34263-.888626 10.79893 3.916912 10.79893 3.916912s6.12188 5.269974 6.17628 8.216556c.04622 2.503204-1.18792 4.722834-3.1197 6.315444-1.60792 1.325613-6.78364 1.670467-6.78364 1.670467s-6.56675 10.581389-8.36388 15.569764c-2.09436 5.813456-3.63477 14.028144-4.06424 20.192412-.40796 5.855604 1.59318 13.677288 1.16363 19.531348-.65793 8.96649-6.56737 23.74634-9.03482 32.39171-3.13649 10.98953.48104 28.8778.48104 28.8778l63.63915 41.14733-8.12893 6.40719z" />
      <path class="outline" d="M449.90509 149.18247s5.49012-.08636 7.64652-.26867c1.75519-.1484 4.13529-.24943 5.87129.04891 1.0503.18049 3.35827 1.15799 3.35827 1.15799" />
      <path class="outline" d="M457.97525 124.65504s3.1998 1.30945 4.41363 2.14171c1.78485 1.22378 3.2727 4.10191 5.27679 4.91857 2.41324.9834 6.10314.566 8.68397.20528 1.72796-.24152 5.55372-1.72633 5.55372-1.72633" />
      <path class="outline" d="M465.1919 112.15194s3.8495 3.63886 6.76595 3.8111" />
      <path class="outline" d="M486.96872 92.67289s-8.80304 13.58257-8.09713 20.76306c.49817 5.06731 5.67752 12.07846 5.67752 12.07846" />
      <path class="claw outline" d="M534.77114 57.377979c-.94915 1.217266-1.73015 3.357271-1.58748 4.894244.10902 1.174496.85622 2.868296 1.88076 3.452805 1.37455.784198 2.80846 1.389287 4.2554.748405 3.92297-1.737574 7.83691-4.995103 9.58365-8.914009 1.32221-2.966434 1.82085-7.746344.72012-10.801887-.50665-1.406451-1.02417-2.692088-2.32007-3.437366-1.30345-.749614-4.90968-2.026796-4.90968-2.026796s1.5925 3.103145 1.69969 4.558812c.1198 1.626824-.41242 3.854554-1.13272 5.318126-.90685 1.842579-2.54757 2.301589-4.10105 3.644781-1.09507.946834-3.19846 1.421271-4.08862 2.562885z" />
      <path class="claw outline" d="M518.15711 21.251583s4.22924-3.319289 7.14843-3.110268c2.94132.210604 6.84362 2.011323 8.94071 4.084468 1.4285 1.412173 2.65465 4.05887 2.85202 6.057838.37734 3.82173-.34434 8.099253-2.46197 11.302954-.88765 1.342912-2.08288 2.942946-3.61843 3.426088-1.76564.555534-3.73443-.117358-5.10618-1.360102-.98221-.88984-1.05159-3.476287-1.04843-4.801629.00812-3.414805 3.6506-6.658755 2.94757-10.000424-.21889-1.040449-1.11299-2.26219-1.86532-3.013483-.67291-.671973-1.88835-1.165262-2.69765-1.664661-1.21394-.749097-5.09075-.920781-5.09075-.920781z" />
      <path class="claw outline" d="M492.96699 49.188084c.82166.522217 1.94661 1.58042 2.90959 1.43728 1.38663-.206119 2.91583-1.885517 3.4065-3.198716.6939-1.857141 1.13619-3.511763.25408-5.287249-.49789-1.002147-4.60966-3.539608-5.63812-3.980575-2.55683-1.096273-4.6356-1.292634-7.27189-.404291-2.40065.808932-5.31136 3.218098-6.40455 5.503359-.85553 1.788443-.59609 4.661064-.20778 6.605205.23744 1.188784 1.66882 3.680176 1.66882 3.680176s2.1589-4.862248 3.96514-6.077435c1.05236-.707997 2.91864-1.108205 4.15037-.805617 1.18073.290065 2.14171 1.875686 3.16784 2.527863z" />
      <path class="claw outline" d="M477.83071 69.073772c1.55261.181422 2.53659 2.96533 2.57833 4.527942.04413 1.65182-1.10841 3.983249-2.46611 4.925114-1.52086 1.05505-4.31916 1.014237-6.13502.655422-2.55168-.50421-6.0225-2.080306-7.62277-4.130776-1.7029-2.181984-2.63366-6.189717-2.29337-8.936557.36706-2.962839 2.59378-6.68051 4.75116-8.744216.93856-.897811 3.89213-1.896199 3.89213-1.896199s-2.06384 3.952741-1.99593 5.788317c.09417 2.545219 1.67592 5.882859 3.35307 7.799675.87919 1.004818 5.0123-.096947 5.93851.011278z" />
    </g>
        <g>
      <g transform="rotate(35.23 306.10205242 187.79258034)">
        <path class="body outline" d="M289.05502 263.42538c-4.19398 1.66727-8.61991 6.1952-11.58428 9.5984-1.61077 1.84921-4.30273 6.95057-4.30273 6.95057s6.51859-.7483 9.26742-1.32392c5.44675-1.14057 12.31629-4.66125 17.8729-4.96469 4.92248-.26881 11.48159 1.28053 16.218 2.64784 5.38642 1.55495 17.21093 7.28155 17.21093 7.28155s-11.1359-18.50768-19.19681-21.84465c-7.07913-2.93054-18.36566-1.17548-25.48543 1.6549z" />
      </g>
      <path class="body outline" d="M253.60855 371.89153s-7.28251-5.37312-8.47863-8.84988c-.82018-2.38405 1.70317-5.98855.8497-8.36089-.82094-2.28199-3.46032-4.88948-5.75352-5.67856-1.71912-.59155-6.01943.70156-6.01943.70156l-4.98847 11.44664 3.59243 4.61103 7.32042 6.57096 13.4775-.44086z" />
      <path class="body outline" d="M164.66479 131.52254s-29.7252 59.46016-24.59224 63.9312c4.93279 4.29667 33.23505 11.69574 39.31163 14.11833 9.73862 3.88255 30.64149 15.70572 40.51481 19.23168 7.42612 2.65202 17.48621 8.54354 24.29605 12.51929 7.51918 4.38987 18.42311 10.4092 22.83183 17.91735 2.72974 4.64882 4.14234 12.52918 2.80038 17.75049-2.03006 7.89852-11.76141 14.26203-17.2497 20.29413-.91506 1.00573-3.9019.6763-6.63715 4.00264-2.84688 3.46213-5.45988 10.56567-7.19367 10.64943-3.04071.14691-8.43091-3.22758-8.43091-3.22758s.4474 3.98107 2.7769 6.87012c1.85667 2.30265 5.54074 3.64901 6.56038 3.63932 2.54122-.02417 5.99617-1.50812 6.78065-1.79026 3.99493-1.43678 9.64907-10.35182 9.64907-10.35182s-10.4953 11.56562-10.69377 17.78928c-.08746 2.74267 2.26405 4.95294 1.8063 7.65855-.49364 2.91766-1.30153 6.04709-4.24866 6.31309-4.29174.38733-9.96939-1.32802-9.96939-1.32802s2.48549 4.46247 6.53635 6.6727c2.52067 1.37534 5.62476 1.62107 8.31736.62348 5.94826-2.2038 12.97735-7.93926 16.51425-13.20507 2.07122-3.08368 3.50073-11.87715 3.50073-11.87715s-6.3647 13.19391-4.99551 18.89509c.9522 3.96487 6.62694 8.56701 6.62694 8.56701s-7.1559 2.47322-10.51663 4.62982c-5.30244 3.40259-12.91362 16.56128-12.91362 16.56128s-8.10932-3.08676-11.06866-5.2705c-1.93652-1.429-3.12025-5.23287-5.4315-5.9039-1.67232-.48553-5.6066 1.50301-5.6066 1.50301l-4.18701 17.12532s2.15846 4.84912 4.11182 5.51495c3.28509 1.11974 7.47761-2.78526 11.14011-3.12055 3.62076-.33148 10.98897 1.037 10.98897 1.037l-13.21915 7.86522-.68629 5.24818 10.35183 9.64908s6.8277-.84772 8.60438-2.91436c2.43653-2.83418 2.18106-12.26613 2.18106-12.26613s2.45143 2.75941 3.0783 4.72562c.78095 2.44948-.49181 6.93766-.49181 6.93766l4.95087 4.61477 10.04627.95304s4.36793-2.9355 4.61478-4.95087c.43595-3.55909-5.79845-10.45157-5.79845-10.45157l11.03839-1.4867 1.88375-8.33763s3.21201 10.82306 6.99563 13.24972c2.42702 1.55659 6.88192 1.50619 9.59619.53349 2.26561-.8119 5.9039-5.4315 5.9039-5.4315s-4.28612 1.60535-6.05666 1.08349c-1.59349-.46968-4.04119-2.11449-4.05073-3.77573-.01805-3.14331 7.58201-7.23182 7.58201-7.23182s6.57726 3.72574 9.71843 4.01193c2.24384.20442 5.77362.04986 7.34579-1.56413 1.67931-1.72397 1.46422-7.88755 1.46422-7.88755s-1.97628 3.04537-3.8248 3.20099c-1.87578.1579-5.36717-.70768-6.16037-2.4148-1.5102-3.25027 1.76153-11.81605 1.76153-11.81605s6.98571 2.06802 10.12189.55348c1.24079-.59921 3.40912-3.00313 3.68447-5.16951.41373-3.25513-.20145-4.84403-.20145-4.84403s-1.91309 4.03042-4.22259 3.90634c-2.33148-.12527-5.50616-1.50846-7.07906-3.23399-2.66987-2.92895-4.39478-8.50874-4.35625-12.47176.04665-4.79897 2.55916-9.35214 4.20676-13.85967.48261-1.3203 1.613-3.65346 1.613-3.65346s5.16635 4.1901 8.01378 5.05657c1.99788.60797 6.60729-.18394 8.31785-1.38191 2.55635-1.7903 4.68134-6.62452 3.8974-9.64536-.65077-2.5077-4.51122-4.56689-4.51122-4.56689s.33942 4.04594.05838 5.82873c-.19949 1.26554-3.48831 2.03867-4.72223 2.38341-1.00767.28152-2.33532-1.03019-2.93065-1.89058-2.94271-4.25284-2.81059-10.98513-2.21284-16.12214.42508-3.65317 5.27049-11.06866 5.27049-11.06866s7.65744 6.14455 11.57985 7.42923c2.86447.93819 4.22807-4.03213 2.7481-8.45505-1.80409-5.39155-6.89872-10.55402-6.89872-10.55402s-14.80768-13.92298-17.841-18.25167c-8.22698-11.74037-10.9285-22.5004-20.16519-33.46412-3.56983-4.2373-9.68522-10.93414-13.6368-14.81788-6.71525-6.59998-18.14163-15.86995-24.37405-22.92765-10.54584-11.94227-34.33438-39.15452-34.33438-39.15452l-11.46145-17.7314-48.72267-1.17755z" />
      <path class="outline" d="M328.0822 291.36383s-2.80021-6.7963-4.73585-9.77435c-1.70939-2.62995-5.90652-4.52036-7.64824-7.12902-1.46047-2.18742-3.06279-8.21486-3.06279-8.21486" />
      <path class="outline" d="M303.51747 276.50669s4.13603 5.55927 4.68718 8.38898c.83218 4.27254-2.43713 9.42187-2.47332 13.77455-.02369 2.84926.79893 6.04385.33982 8.30454-.3918 1.92917-2.30004 6.14553-2.30004 6.14553s4.52691-2.24177 6.16369-4.10459c.63209-.71938 4.71557-5.15857 4.71557-5.15857s-1.43427 10.38248-.18158 14.57072c.37475 1.25291 2.43876 3.61318 2.43876 3.61318" />
      <path class="outline" d="M305.0536 349.35518s1.44115 5.05712 2.5965 6.96419c.97977 1.61723 4.21499 4.68617 4.21499 4.68617" />
      <path class="outline" d="M299.57426 379.33726s2.59632-5.33508 2.99185-7.81383c.43829-2.74677.36434-6.60275-.45603-9.26054-.30525-.98889-1.80191-2.94177-1.80191-2.94177" />
      <path class="outline" d="M291.38199 361.8559s2.68752 5.35184 2.4981 7.88223c-.27967 3.73581-3.17022 8.16116-4.15926 11.77452-.49919 1.82379-1.32509 4.29575-1.21994 6.1837.08141 1.46134 1.47001 4.65196 1.47001 4.65196" />
      <path class="outline" d="M282.09711 380.21264s1.6982-9.21121 1.9546-11.30507c.21473-1.75358-.70539-5.20147-.70539-5.20147" />
      <g transform="rotate(17.092 244.70527497 198.76321777)">
        <path class="outline" d="m240.27146 181.84304-3.61196 11.48404" />
        <path class="outline" d="m246.19474 185.0926-3.50802 8.75685" />
        <path class="outline" d="m251.03543 189.02551-1.32886 6.36043" />
        <path class="outline" d="m255.83342 191.85691-1.62994 6.14591" />
      </g>
      <path class="outline" d="m285.40839 347.70204-5.80563 1.28205-9.02397-1.51719s-.41152 2.12122-.02899 3.47951c.24477.86907 1.31545 2.34911 2.1374 2.7228 1.53173.69637 3.82203 1.42063 5.48562 1.1684.83209-.12617 2.44725-1.37151 2.44725-1.37151" />
      <path class="outline" d="M279.07713 315.61721s-3.5862 5.39134-3.76492 8.05195c-.16687 2.48417 1.26398 5.74696 2.47821 7.92058 1.04289 1.86691 2.13367 3.53247 4.11244 4.3433 1.73483.71089 6.79514.55322 6.79514.55322s-4.36422 2.75542-6.49586 2.95611c-2.81062.26462-6.74373-.74135-9.14198-2.23068-1.5647-.97168-3.08106-3.07648-3.949-4.70103-1.16692-2.18413-2.30244-7.92676-2.30244-7.92676" />
      <path class="outline" d="M259.48126 316.39371s-4.18031 4.87457-4.66233 7.55551c-.3764 2.09347.66441 4.91158.42282 7.02484-.22668 1.98277-.72717 4.04599-1.55395 5.86235-.88537 1.94512-4.51193 7.55096-4.51193 7.55096" />
      <path class="outline" d="M317.91295 285.45826s.55535 6.87792.00637 9.75137c-.58878 3.08173-3.86178 9.71914-3.86178 9.71914" />
      <path class="outline" d="M209.24254 207.89379s4.44902 3.83857 5.86313 5.63455c.82194 1.0439 4.40585 6.29267 4.40585 6.29267" />
      <path class="outline" d="M220.61494 212.87326s6.02734 5.68011 7.93516 8.14012c1.00552 1.29653 3.24347 5.76562 3.24347 5.76562" />
      <path class="outline" d="M231.25347 217.71332s4.44158 5.60526 6.04938 8.20738c1.15601 1.87097 3.33151 6.53026 3.33151 6.53026" />
      <path class="outline" d="M242.79656 224.61979s3.11819 3.80458 4.18564 5.61393c.99698 1.68994 2.29215 4.03809 2.69872 5.95761.39521 1.86597-.05024 6.35766-.05024 6.35766" />
      <path class="claw outline" d="M237.67147 353.58725c-.06214-2.01389-2.44943-4.15952-4.09318-5.32471-1.93458-1.37134-2.94162-1.78289-5.286-2.13914-2.04584-.31089-5.006-.72863-6.89683.11212-2.01778.89719-5.01894 5.38448-5.01894 5.38448s6.52973-1.08712 9.22846-.45446c2.93315.6876 3.72807 3.49585 6.54319 4.56882 1.01744.3878 2.53167 1.19008 3.54313.78694.98645-.39318 2.01292-1.87263 1.98017-2.93405z" />
      <path class="claw outline" d="M225.61833 362.62295c1.43344 1.4552 2.45485 1.77651 2.47783 3.81902.02006 1.78196-1.09546 4.48319-2.67817 5.30224-.952.49266-2.49402-.26718-3.534-.52685-1.75124-.43725-3.86669-1.92515-5.6695-2.01424-1.51407-.07482-3.59833.44556-4.90506 1.21396-1.04696.61563-2.14846 1.91236-2.76042 2.96146-.647 1.10915-.3545 2.41955-.65232 3.66861-.09233.38724-2.30011-2.15146-2.86341-3.67528-.58216-1.57488-.76669-3.96695-.32651-5.58726.63053-2.32101 2.47225-3.47464 4.24782-5.09697 1.67546-1.53086 4.10022-1.40883 6.3127-1.91445 2.25334-.51496 5.47226-.25227 7.69535.38064.8757.24931 2.01674.82047 2.65569 1.46912z" />
      <path class="claw outline" d="M235.36838 391.83648s3.70384.97316 5.01472 1.90706c.72501.51651 1.14357.91256 1.3644 1.77491.46745 1.82541.0114 4.73231-1.21572 6.16226-1.65616 1.9299-5.52796 2.17873-7.97126 2.88414-1.67728.48425-5.14688 1.74328-5.14688 1.74328s3.45948-9.98384 4.64332-11.59368c1.41955-1.93038 3.10119-2.79957 3.31142-2.87797z" />
      <path class="claw outline" d="M269.88486 399.60773c1.20492.55384 2.58026 1.9282 3.10521 3.14598.64902 1.50562.83973 3.95566.1919 5.46178-.89859 2.08917-3.65552 3.98668-5.68285 5.0172-2.68922 1.36697-9.81927 2.16785-9.81927 2.16785s3.34799-3.42384 4.5079-5.1061c.7146-1.03642 1.83235-2.46117 1.95275-3.7143.14671-1.52688-1.82213-3.40204-1.47405-4.89594.22548-.96778 1.334-2.05869 2.25852-2.42301 1.38772-.54686 3.6046-.27639 4.95989.34654z" />
      <path class="outline" d="m331.56821 293.36093-5.91674-7.78186" />    </g>
    <g transform="translate(-6.626506 7.2289158)">
      <path class="body outline" d="M344.47419 274.94176s3.7393 3.29389 8.20927 3.21815c3.88058-.06575 8.73201-3.78343 10.86163-7.02811 1.2795-1.94944 2.75449-14.93334 1.91676-17.88974-1.08738-3.83743-4.89972-9.14821-7.66703-10.86163-2.76731-1.71342-5.87027-1.92852-8.30596-1.27784-1.18574.31676-2.30842 1.70655-3.19459 2.55568-.6683.64036-1.97663 1.40061-2.02838 2.32474-.03028.54078.64405 1.10204 1.02766 1.4844 1.41322 1.40863 5.48085 3.76808 5.48085 3.76808s-5.06441 2.44744-7.3078 2.05532c-2.03192-.35516-4.65116-2.16234-5.59503-3.99645-1.22262-2.37578-.94656-6.40775 0-8.90638.84251-2.22398 3.23594-4.67684 5.25248-5.93759 2.17048-1.35699 8.22127-2.28369 8.22127-2.28369s-9.29657 1.2507-13.1312.34256c-3.25098-.76992-7.33341-3.02108-9.81986-5.25249-1.26576-1.13593-2.80395-3.0269-3.19716-4.68155-.4794-2.01733-.09233-5.03784.91348-6.85107.99143-1.7873 3.26791-3.85024 5.25248-4.339 1.93746-.47716 4.78955.35699 6.50851 1.37021 1.44359.85091 3.6539 4.22482 3.6539 4.22482s-3.28904-.60867-4.56738-.11418c-1.01684.39333-2.59762 1.42216-2.62624 2.51205-.04199 1.59885 2.30626 3.02091 3.6539 3.88227 1.55165.99176 5.8234 1.94114 5.8234 1.94114l7.19362-.22837 5.70922.79929s-6.72461-14.36814-9.53606-19.80265c-1.60516-3.10276-4.02578-11.13706-5.02411-14.48474-1.32356-4.43829-.98954-4.93699-2.4533-9.33104-1.68668-5.06325-4.70164-11.9696-8.67802-15.52908-2.29907-2.05802-7.37388-4.27821-10.35116-5.08877-2.50086-.68086-5.1422-.52571-7.68997-.04953-1.95908.36615-4.69459 1.55466-5.8234 3.19717-1.29237 1.8805-1.79088 5.38582-1.02766 7.53617.25129.708 1.18428 1.32367 1.82695 1.71276 1.33451.80794 3.3586 1.54827 4.90993 1.71277 2.19708.23297 5.30405.01736 7.3078-.91348.54963-.25533 1.4844-1.37021 1.4844-1.37021s-1.38083 5.34108-2.9688 6.96525c-1.68265 1.72101-4.91392 3.06129-7.3078 3.31134-2.68656.28063-6.50993-.49627-8.7922-1.94113-2.92938-1.85454-6.15599-5.79292-7.07943-9.13475-1.06604-3.85787-.32694-9.73654 1.59858-13.24539 1.66273-3.02999 5.71106-5.99047 8.90639-7.3078 2.00421-.82627 7.19361-.68511 7.19361-.68511l3.08298 1.02766s-3.7959-1.08922-5.36667-1.71276c-1.69463-.67271-4.10704-1.4275-5.48085-2.62624-2.72032-2.37366-5.79277-6.53459-6.62269-10.04823-.53133-2.24951.14545-5.47027.91348-7.65035.96643-2.74322 2.8631-6.40944 5.13829-8.22128 2.29655-1.82885 6.3157-3.07502 9.24894-3.19716 1.80132-.07501 4.33975.46011 5.8234 1.4844 1.96299 1.35521 4.2576 4.14335 4.56737 6.50851.14214 1.08529-1.25602 3.42553-1.25602 3.42553s-2.5344-3.25559-4.11064-3.88227c-1.62342-.64544-4.23251-.7219-5.8234 0-.99479.45141-1.964 1.73787-2.39788 2.74043-.83393 1.92694-1.53665 5.04602-.6851 6.96524.93362 2.10417 4.10112 3.5497 6.16595 4.56738 2.0132.99224 7.19362 2.05532 7.19362 2.05532l7.53617 5.59503s-1.21058-9.89797-1.14185-14.15886c.05893-3.65378.57074-8.53782 1.37022-12.10355 1.06887-4.7672 3.13493-11.01209 5.25248-15.41489 3.11786-6.48264 9.97983-13.637822 12.90283-20.21063.99618-2.240069 1.93564-5.438313 2.16951-7.878722.29499-3.078187.17594-7.342114-.79929-10.276594-.62641-1.884855-2.33369-4.016889-3.53972-5.595034-1.325-1.73382-2.90306-4.509778-4.90993-5.366666-1.38652-.592015-3.65389-.389902-5.02411.114184-1.37022.504086-2.91651 1.842592-3.6539 2.968794s-1.47351 3.084273-1.14184 4.110638c.33167 1.026365 2.84404 3.394166 3.67058 3.138402.82654-.255764 6.72019-1.539821 6.72019-1.539821s-1.64683 4.944913-3.53971 6.394325c-1.89288 1.449412-7.18787 1.707542-10.72332 1.259364-3.53545-.448178-8.03384-4.076988-10.97171-6.397661s-5.51224-4.796652-6.50851-7.3078c-.99627-2.511148-.81837-6.074082-.22837-8.221275.59-2.147193 1.97578-4.370622 3.53971-5.595034 1.19412-.934883 4.79575-1.598582 4.79575-1.598582s-5.61887-2.211372-7.53617-3.882268c-2.02044-1.760784-4.35866-4.743681-5.1383-7.3078-.88712-2.917605-1.0576-7.397329.22837-10.16241 1.79107-3.851125 5.38143-8.378256 9.02724-10.557051 2.53988-1.517873 7.88251-3.8212835 10.84084-3.8777015 2.09032-.039864 5.12493 2.3569415 6.6227 3.8156055 1.45928 1.421176 2.65154 4.39085 2.28368 6.394325-.27645 1.505625-3.31134 3.882269-3.31134 3.882269s.80583-3.972847 0-5.366666c-.65288-1.129258-2.46525-2.233294-3.76809-2.169503-1.76594.086465-4.09121 1.803916-4.79574 3.425531-.52317 1.204181.03099 3.142244.57092 4.339007 1.30799 2.899186 6.96525 7.992906 6.96525 7.992906l11.87517 3.425531 7.65036 5.024113 2.1695 3.082978 3.88227-9.020566s7.32177-7.421517 11.30425-9.248934c2.14983-.986479 5.43646-1.788495 7.76454-1.370213 2.26672.407259 5.00325 2.244803 6.62269 3.882269 1.16521 1.17818 2.97103 3.154817 2.74043 4.795744-.25958 1.847113-4.45319 4.339006-4.45319 4.339006s.96859-3.78197.11418-5.024112c-.8658-1.258703-3.27079-1.80485-4.79574-1.712766-1.52916.092338-3.37879 1.317198-4.56738 2.283688-1.45694 1.184688-3.06051 3.221478-3.88227 4.909928-.89443 1.837768-1.69622 4.581158-1.59858 6.622693.14542 3.040626 2.22448 6.748028 3.31135 9.591488 1.57869 4.130157 4.73435 9.275159 5.70922 13.587941.4839 2.140738.59977 5.128177.34255 7.3078-.15882 1.345804-1.25603 4.339006-1.25603 4.339006l-2.59136 5.147229s6.59976-6.120318 10.17043-7.264594c2.69804-.864626 6.90461-1.256427 9.44397 0 3.11246 1.539984 5.76261 5.96581 7.02245 9.201819.58221 1.495465.85301 3.765497.4843 5.327368-.41223 1.746225-1.9218 3.775375-3.14799 5.085215-.85416.912429-3.39014 2.421531-3.39014 2.421531s2.31143-5.382085 1.93722-7.748899c-.32109-2.030794-1.79414-4.890576-3.63229-5.811675-2.34623-1.175699-6.53365-.728793-8.71752.72646-1.83862 1.225191-2.86672 4.39159-3.39014 6.538134-.60235 2.470228.71088 6.034148 0 8.475356-.79447 2.72824-3.20856 5.85737-5.08522 7.99106-2.62302 2.98228-7.51584 5.52114-10.17043 8.47535-2.10082 2.33793-9.23483 12.73838-10.17043 14.77134-1.15649 2.51293-2.5261 6.21521-2.17937 8.95967.1548 1.22524 1.93722 3.6323 1.93722 3.6323s1.43268-4.03219 2.66368-5.32737c2.64446-2.78234 7.60068-4.80785 11.13905-6.29598 2.64913-1.11414 7.33983-.47458 9.20182-2.66369 1.56459-1.83946 1.92582-5.774.96861-7.99105-.6796-1.57406-3.41378-3.20265-4.60091-3.39014-1.18713-.18749-2.17938.72645-2.17938.72645s2.96933-3.76265 4.84306-4.1166c2.41547-.45628 6.10367.83725 7.7489 2.66369 1.29737 1.44026 2.75697 3.98106 3.04483 5.898.30284 2.01666-.34961 5.2851-1.1076 7.17826-.80284 2.00517-3.89696 3.22468-5.32737 4.84307-1.0011 1.13266-3.29911 2.65699-2.90584 4.1166.49896 1.85187 4.17005 1.672 5.81168 2.66368 2.74866 1.66042 6.37223 4.11143 8.47536 6.53814 1.25699 1.45039 2.69848 3.70362 3.14799 5.56952.81739 3.39296.51712 8.28008-.48431 11.62335-.60773 2.02891-1.95179 4.76476-3.6323 6.05383-.83926.64378-2.33486.89653-3.39014.96861-2.04996.14003-5.06852.16796-6.78029-.96861-1.41156-.93724-2.90583-4.84307-2.90583-4.84307l-.72646-1.69507s4.97197 3.02723 7.26459 2.66369c1.27746-.20257 2.97736-1.4379 3.39014-2.66369.55108-1.63648-.24047-4.34-1.45292-5.56952-1.53448-1.55609-4.86953-1.56164-7.02244-1.93722-1.74816-.30497-4.03462-1.10875-5.898-.45064-2.21328.78168-5.26789 1.67181-7.26459 2.90584-1.48825.91979-3.11008 2.649-4.35876 3.87445-.91729.90023-2.44834 1.94693-2.90583 3.14799-1.47418 3.8702-.63204 12.0766-.15583 16.19059.31621 2.73177 1.03015 6.36355 1.93722 8.95966 2.48614 7.11552 4.73917 11.15178 7.55725 18.14249 2.33648 5.79602 8.02029 18.2675 9.87778 24.2343.81282 2.61102 2.19838 6.02278 2.66368 8.71752.54444 3.15306.3888 7.45644.48431 10.65473.15181 5.08347 1.12828 10.03988-.15583 14.96083-.8054 3.08646-3.11634 8.56726-4.92939 11.19171-2.02495 2.93118-4.56766 7.18837-7.50674 9.20182-2.7102 1.85665-7.13605 3.15221-10.41259 3.39014-2.57292.18684-6.55224-.15665-8.95632-1.0922-3.62434-1.41042-11.13737-6.9022-11.13737-6.9022" />
      <path class="outline" d="M316.072 12.940195s-2.38883 7.986719-1.92045 10.765713c.56494 3.351933 1.76322 7.920956 3.71389 10.704747 1.55072 2.213017 4.61899 4.385284 6.99085 5.680069 3.87479 2.11523 13.98171 4.587749 13.98171 4.587749" />
      <path class="body outline" d="M331.19175 51.669328s-5.76254 3.028229-7.64624 5.024677c-1.35008 1.43089-2.88357 3.752534-3.27697 5.68007-.43566 2.134622.87386 7.209319.87386 7.209319" />
      <path class="outline" d="M372.69996 81.81739s-4.89154 9.9063-7.86472 13.544782c-.99874 1.222228-2.67726 2.538311-3.93235 3.495427-1.24313.947998-4.36929 2.840031-4.36929 2.840031" />
      <path class="body outline" d="M367.01989 112.18392s-4.41819-1.30173-6.33547-1.09232c-1.54864.16915-3.55212 1.04197-4.80621 1.96617-1.16192.85627-3.0585 3.71389-3.0585 3.71389" />
      <path class="outline" d="M393.67252 161.77529s-5.54054-6.36807-8.5201-8.5201c-3.02889-2.18766-7.84955-4.35495-11.57861-4.58775-4.18841-.26147-9.88385 1.44391-13.54478 3.49543-2.46645 1.38216-4.93554 4.40457-6.77239 6.55392-1.92552 2.2531-5.68007 8.08318-5.68007 8.08318" />
      <path class="outline" d="M356.5336 225.34838s3.94842 4.96514 5.02468 6.99086c.84605 1.59242 1.96618 5.68007 1.96618 5.68007" />
    </g>
    <g transform="rotate(2.3 -2232.49335744 -19270.02283319)">
      <path class="body outline" d="M823.32114 58.238612c1.29027-.226223 3.15176-.114001 4.34579.424755.94849.427956 2.0116 1.466979 2.53725 2.365008 1.40647 2.402847.98727 6.508427 2.19356 9.017744 1.96191 4.081213 9.22585 11.946621 9.22585 11.946621l-17.32607 1.980216-14.24696-11.048393 1.43774-6.330272s2.76142-3.618603 4.30759-4.770935c2.00504-1.494321 5.06219-3.152898 7.52525-3.584744z" />
      <path class="body outline" d="M823.3262 58.382797z" />
      <path class="body outline" d="m980.46929 27.152631-66.80585 13.054408-68.79714 30.455296-19.27583 8.948717-5.33984-3.295097s-3.93234-7.206178-6.84285-8.901691c-1.94688-1.134155-7.43747-1.044683-7.43747-1.044683l-5.53725 15.866753s.79769 3.948026 1.92254 5.15651c1.19308 1.281799 5.30928 2.425497 5.30928 2.425497l5.57605-2.372626c.66929-.718036 16.34774.39363 19.06977 1.791407.65681.33727 2.00663-1.139091 1.6781-1.800321-.35835-.721304-2.82245.434173-4.90537.451289-2.71791.022331-4.18131.897462-5.4196.812769-4.74851-.324801-4.83601.233554-8.1114 2.581693-1.42319 1.020287-2.42548 5.309288-2.42548 5.309288l12.72443 15.22512s6.89733 1.68649 9.14612.11398c2.64181-1.84734 1.89322-7.37977 3.56185-10.13794 1.24209-2.053123 3.45147-7.173402 5.45382-5.851036 1.90176 1.255936-3.86681 2.47957-5.7522 5.676236-2.31598 3.92673-1.10473 9.80155-1.10473 9.80155l5.4315 5.9039s11.39628.65094 15.62232-1.41959c.66303-.32485 1.60413-1.06569 1.6781-1.80031.15464-1.53583 1.75275-6.06067.39444-7.93953-1.6761-2.31845-4.77404-3.62243-4.77404-3.62243s-.74095.30038.22793.07825c2.159-.49499 4.74628 3.62672 4.74628 3.62672l10.16027-8.193085s.69657 2.589415.51546 3.693425c-.30774 1.87596-2.83509 5.66717-2.83509 5.66717s6.40549-1.01199 9.6239-2.9123c2.38418-1.40774 6.91463-4.50055 8.06513-7.018964.76701-1.678941 1.92071-3.251521 1.92071-3.251521s.62611 5.629882-.41639 8.859335c-.62631 1.94022-3.21563 4.71303-3.21563 4.71303s3.71354.06186 6.85943-.74562c2.86913-.73645 5.15635-2.33072 5.90885-2.67229.14708-.06676 3.70576-1.96191 6.02139-6.311264 2.18418-4.102416.94416-3.905985 3.67436-5.436221.70056-.392653 1.0339 3.081241.32453 6.696431-.62909 3.206084-2.27806 6.576204-2.24105 6.670964 3.49858-.56481 13.7647-3.87644 17.88199-6.934681 6.90513-5.129006 9.41504-16.183152 10.86703-15.579926 6.28624 2.611583 22.21202 2.379296 27.34498 6.850326 4.93279 4.29668 16.55555-3.739 22.63214-1.31641 9.73861 3.88255 23.13922-44.66055 23.13922-44.66055l-11.46143-17.731402-14.78328.519424z" />
      <path class="claw outline" d="M825.91971 63.654006c.09187-2.87235-1.23041-5.815172-3.3988-7.701127-1.86488-1.62198-5.43726-2.151108-7.90239-2.329193-2.54815-.184083-6.24331-.11289-8.42979 1.208588-1.14399.691401-1.8081 1.511057-2.11703 2.811571-.29126 1.226132-.3835 3.923746-.3835 3.923746s2.10016-1.689611 3.19507-1.806714c1.64673-.176115 3.80056.878235 5.27131 1.639582 1.52857.791287 3.09858 2.571065 4.55425 3.489565 1.0208.644101 2.39454 1.621339 3.58352 1.829227 1.27556.223031 3.21607.193353 4.28227-.54149.70643-.486876 1.31767-1.666253 1.34509-2.523755z" />
      <path class="claw outline" d="M812.75589 74.804596c-.3536 1.507515-1.95783 3.29163-3.38226 3.898774-1.26284.538274-3.29766.284736-4.57008-.230449-1.64004-.664027-2.77088-3.291369-4.4378-3.88469-1.98806-.707631-5.00523-.348189-7.0298.246993-1.32555.389681-3.01519 1.344796-3.95788 2.354885-1.21719 1.304225-2.68103 5.307896-2.68103 5.307896s-1.30111-7.533969-.10557-10.423678c.9517-2.300311 3.75065-4.595006 5.92185-5.812798 1.95201-1.094847 4.99804-1.757298 7.2353-1.81833 2.08471-.056856 4.95294.403911 6.82434 1.324327 1.78599.878409 3.93472 2.691414 4.97681 4.387132.75454 1.227829 1.53522 3.246874 1.20612 4.649938z" />
      <path class="claw outline" d="M824.23161 104.64084c1.23728-1.64295 1.03437-3.86508-.06651-5.602388-1.21318-1.91455-3.88986-4.352231-6.15302-4.476133-1.63419-.089477-3.13445 2.182211-4.45116 3.154265-1.6227 1.197968-3.93255 2.643506-5.3304 4.097556-1.43002 1.48753-3.16741 3.71466-3.97371 5.61401-.4853 1.1432-1.06382 2.8611-.76948 4.06765.42423 1.73896 3.68415 4.69323 3.68415 4.69323s-.7866-4.08362-.0665-5.6024c.64625-1.36301 2.55212-2.52303 3.93042-3.13597 2.23219-.99267 5.59939-1.13153 8.03468-1.32504 1.94935-.1549 3.98515.0773 5.16153-1.48478z" />
      <path class="claw outline" d="M852.60948 114.72286c.81401 2.23334 1.53881 4.58902.89333 6.87675-.70535 2.49989-3.51523 5.31239-5.90357 6.33353-1.51086.64597-3.16902 1.06496-4.79384.82015-1.71078-.25777-5.53168-1.63043-5.53168-1.63043s2.791-1.58387 3.82312-2.4805c1.21063-1.0517 3.01549-2.50733 3.50786-4.03352.63693-1.97429-1.42962-4.9705-.63296-6.88592.49227-1.18356 2.02708-2.52242 3.29324-2.72256 1.34822-.2131 3.20787.77139 4.22985 1.67618.52341.46339.87526 1.38952 1.11465 2.04632z" />
    </g>
    <g transform="scale(-1 1) rotate(-19.42 -155.21577264 633.55837308)">
      <g transform="translate(-176.76768 -4.2424243)">
        <path class="langue outline" d="M 145.746,106.73789 C 145.746,106.73789 136.1985,101.01476 131.4904,100.44602 C 128.14451,100.04184 123.53978,100.03865 120.23443,100.64743 C 115.48754,101.52171 108.51339,106.80176 103.71847,107.44368 C 101.46109,107.74589 99.572197,108.02125 97.948882,106.61309 C 95.043608,104.09287 97.236868,99.07968 95.438756,95.86181 C 94.559474,94.288261 92.375422,92.662713 90.614768,91.833633 C 88.435048,90.807215 85.031358,89.963812 82.574797,90.222363 C 81.044818,90.383391 77.980527,92.236451 77.980527,92.236451 C 77.980527,92.236451 82.03747,94.225698 83.034224,95.660402 C 85.221123,98.808169 83.607349,104.4814 85.561072,107.74494 C 86.331085,109.03117 88.167405,110.26697 89.4662,111.16888 C 90.800461,112.09542 92.653089,113.37887 94.290187,113.78719 C 97.935813,114.6965 103.22155,114.49673 106.92443,113.78719 C 111.44324,112.9213 116.41815,107.88179 120.93695,107.0159 C 124.37052,106.35798 129.19314,107.60268 132.65234,108.14775 C 135.18476,108.54679 140.6923,110.76606 140.6923,110.76606 L 145.746,106.73789 z"/>
        <path class="teeth outline" d="M 101.32901,87.929025 C 101.78121,86.468636 102.19672,86.950396 103.63785,86.440139 C 105.08929,85.926231 105.06144,85.650321 106.21624,86.668763 C 107.26275,87.591698 107.55351,87.241967 107.71782,88.627602 C 108.14178,92.202789 107.69561,95.787299 106.32772,99.117554 C 105.74687,100.53171 104.15578,102.35641 104.15578,102.35641 C 104.15578,102.35641 102.98993,100.97867 102.45378,99.282672 C 101.32065,95.698207 100.21706,91.520121 101.32901,87.929025 z"/>
        <path class="teeth outline" d="M 103.2283,115.38629 C 103.18621,116.91451 103.73471,116.59218 104.93482,117.53927 C 106.1435,118.49314 106.0283,118.74539 107.44951,118.153 C 108.73745,117.61616 108.90013,118.04089 109.50183,116.78194 C 111.05433,113.53363 111.78603,109.99635 111.56324,106.40302 C 111.46864,104.87714 110.54978,102.63732 110.54978,102.63732 C 110.54978,102.63732 109.00242,103.56632 107.94875,104.99938 C 105.72186,108.02813 103.3318,111.6284 103.2283,115.38629 z"/>
        <g transform="translate(-537.30128,8.114194)">
          <path class="body outline" d="M 688.4389,102.204 C 688.4389,102.204 673.8908,117.3264 666.38925,122.15367 C 659.27057,126.73456 647.59341,128.74946 640.48967,133.35349 C 633.31795,138.00158 624.63652,145.7803 619.49001,152.60318 C 615.95537,157.28915 612.91924,164.6528 610.74015,170.1029 C 608.7426,175.09895 608.8751,183.07011 605.49023,187.25262 C 604.13011,188.93325 601.25778,190.12001 599.19034,190.75257 C 594.55434,192.17102 587.39767,189.92686 583.0906,192.15255 C 579.05362,194.23868 574.49945,199.32193 573.29075,203.70236 C 572.61122,206.16504 573.08888,210.11208 574.69073,212.10222 C 576.46341,214.3046 583.44059,215.60217 583.44059,215.60217 C 583.44059,215.60217 580.32758,210.23392 580.99063,207.90229 C 581.5202,206.04005 584.01228,204.17193 585.89055,203.70236 C 588.70795,202.99801 592.4586,205.44304 595.3404,205.80233 C 598.88445,206.24419 603.68131,206.45196 607.24021,206.15232 C 609.90771,205.92773 615.99006,204.40235 615.99006,204.40235 C 615.99006,204.40235 613.33852,212.80827 614.24009,216.30216 C 614.9327,218.98627 618.90113,221.04384 619.84,223.65204 C 620.72977,226.12383 620.91738,229.87755 620.19,232.4019 C 618.95623,236.68363 611.79013,244.6517 611.79013,244.6517 C 611.79013,244.6517 622.88943,241.23662 626.4899,238.00181 C 629.57085,235.23376 632.67221,230.16229 633.48978,226.102 C 634.26362,222.25889 630.51379,216.87581 631.73981,213.15221 C 633.29568,208.42679 643.28962,201.2524 643.28962,201.2524 C 643.28962,201.2524 643.7707,209.91929 644.6896,213.5022 C 645.30962,215.91974 648.41296,218.77306 647.83955,221.20208 C 647.07024,224.46095 640.91779,225.54742 639.43969,228.55196 C 637.95361,231.57271 638.16604,236.43451 638.7397,239.75178 C 639.14848,242.11562 640.28975,245.31415 641.88965,247.10166 C 644.30427,249.79942 648.88857,252.12858 652.38948,253.05156 C 653.60783,253.37277 656.58941,253.05156 656.58941,253.05156 C 656.58941,253.05156 649.4787,248.51779 648.18955,245.35169 C 647.47572,243.59856 647.73916,240.76713 648.53954,239.05179 C 649.51324,236.96498 652.38042,235.28803 654.13945,233.80187 C 656.65793,231.67407 660.8025,229.70453 662.88931,227.15198 C 665.0294,224.53424 666.93877,220.27465 667.78923,217.00215 C 668.68872,213.54101 668.48922,205.10234 668.48922,205.10234 C 668.48922,205.10234 668.21667,211.54967 669.92306,214.56348 C 670.94731,216.3725 675.0447,219.46656 676.18909,221.20208 C 677.12289,222.61822 678.45317,224.76365 678.28906,226.45199 C 678.08337,228.56807 675.5383,230.58203 674.43912,232.4019 C 673.44259,234.05182 671.28917,238.00181 671.28917,238.00181 C 671.28917,238.00181 680.69223,233.64034 683.88897,230.65192 C 686.76095,227.9671 690.57742,223.67754 691.23885,219.8021 C 691.58591,217.76862 690.1226,215.11535 689.48888,213.15221 C 689.03961,211.76047 688.16688,210.00072 687.73891,208.60228 C 687.32896,207.26275 686.2609,205.38621 686.68892,204.05235 C 687.41626,201.78571 692.63883,198.80244 692.63883,198.80244 C 692.63883,198.80244 691.35972,203.20005 691.58885,205.10234 C 691.97135,208.27796 695.78878,214.90218 695.78878,214.90218 C 695.78878,214.90218 696.22957,208.92856 697.88874,207.2023 C 700.78818,204.18562 707.53123,205.03494 711.18853,203.00237 C 715.41925,200.65112 720.45962,196.3176 723.43833,192.50254 C 726.76157,188.24622 729.98727,181.59003 731.4882,176.4028 C 732.36809,173.36188 731.06483,168.70487 732.53818,165.90297 C 734.20256,162.73778 739.59806,161.14028 741.63804,158.20309 C 743.22951,155.91167 743.02865,151.61843 744.78799,149.45323 C 746.80941,146.96549 752.50111,146.74329 753.88784,143.85332 C 755.35272,140.80049 753.48409,135.88973 752.48786,132.65351 C 750.99575,127.80644 744.78799,117.60375 744.78799,117.60375 L 743.03802,94.854115 L 731.4882,81.204335 L 682.139,94.854115 L 688.4389,102.204 z" />
          <path class="body outline" d="M 729.60318,47.735499 C 729.60318,47.735499 732.24825,44.269376 733.04677,41.322563 C 733.53356,39.526117 733.18283,34.258858 732.87163,31.642389 C 732.58006,29.191036 731.75403,28.225806 731.75403,28.225806 C 731.75403,28.225806 731.26886,31.223122 730.57986,32.770179 C 729.42117,35.371868 724.69758,40.221774 724.69758,40.221774 C 724.69758,40.221774 725.50524,36.775678 725.40323,35.282258 C 725.08815,30.669549 721.16935,20.46371 721.16935,20.46371 C 721.16935,20.46371 719.41438,30.458301 716.93548,33.870968 C 714.79501,36.817726 711.95439,35.852058 708.51279,37.043843 C 699.90181,40.025721 684.22043,37.753376 674.38912,41.700717 C 670.3392,43.326792 662.02526,49.084862 662.02526,49.084862 C 662.02526,49.084862 651.67677,52.636266 645.92038,51.588613 C 643.80577,51.203757 641.33659,49.273281 639.22525,49.675719 C 635.48312,50.389002 632.47141,50.314048 629.34196,51.269797 C 625.40434,52.472365 625.18829,60.748331 626.47262,64.660051 C 626.90292,65.970626 628.67863,67.150147 629.02315,68.485839 C 629.59845,70.716268 627.70196,73.937746 628.38552,76.137413 C 629.19232,78.733675 631.66736,81.987112 634.1242,83.151355 C 637.49502,84.748715 642.70602,83.391005 646.23919,82.194908 C 650.11679,80.882211 654.31442,81.229401 656.44129,77.73149 C 657.29909,76.320727 659.94826,71.036363 659.94826,71.036363 C 659.94826,71.036363 666.15995,75.52935 667.59983,79.325568 C 668.85531,82.635615 668.78452,87.916731 667.28102,91.121745 C 665.0647,95.84628 659.07408,100.70967 654.20958,102.59911 C 649.84005,104.2963 642.88295,101.04086 638.58762,102.91792 C 635.1786,104.40767 631.80126,105.76737 630.61723,109.29424 C 629.85077,111.57729 629.37363,116.38841 630.93604,118.22107 C 632.743,120.34058 636.55699,118.35975 637.94999,120.77159 C 638.73892,122.13754 638.58762,127.46672 638.58762,127.46672 C 638.58762,127.46672 644.77572,123.44772 646.23919,120.77159 C 647.16727,119.07448 647.19564,114.39528 647.19564,114.39528 C 647.19564,114.39528 662.36525,115.41571 668.8751,115.35173 C 673.37933,115.30746 681.1044,116.40695 685.13469,114.39528 C 688.2906,112.82005 690.79276,108.92175 691.511,105.46845 C 691.7759,104.1948 690.23574,101.32384 690.23574,101.32384 C 690.23574,101.32384 692.55274,99.89701 693.74272,101.00502 C 696.69016,103.74944 697.79814,107.1808 697.88731,111.20713 C 698.04408,118.28568 697.15769,128.75086 694.06153,135.11829 C 692.24519,138.85369 688.99499,143.75995 685.42525,147.28986 C 683.9747,148.72422 682.47139,149.93132 680.99009,150.74026 C 677.37955,152.71197 671.40758,152.70518 667.91865,154.88486 C 665.56629,156.35448 662.84168,159.12946 661.54234,161.57999 C 660.48776,163.56891 659.8032,166.66622 659.94826,168.91275 C 660.1315,171.75056 663.13642,177.83958 663.13642,177.83958 L 665.6008,170.56846 L 678.13094,164.55399 C 678.13094,164.55399 694.66931,160.86719 700.68518,157.03591 C 707.32387,152.80798 707.4836,150.40644 707.4836,150.40644 C 707.4836,150.40644 706.00382,159.47115 698.17915,166.55882 C 695.73253,168.77499 688.65625,172.07208 688.65625,172.07208 C 688.65625,172.07208 702.13338,171.08946 707.20085,168.56364 C 713.2025,165.57219 719.84121,158.98302 723.74063,153.52747 C 727.26523,148.59632 732.75345,131.75389 732.75345,131.75389 C 732.75345,131.75389 728.47675,115.96083 725.24425,108.41899 C 723.48606,104.31692 717.22496,95.888851 717.22496,95.888851 C 717.22496,95.888851 723.33249,104.56779 725.22814,108.67765 C 729.42713,117.78126 735.26835,140.55149 735.26835,140.55149 C 735.26835,140.55149 740.04931,125.94866 740.78161,119.44551 C 741.32029,114.66182 741.53579,108.05428 740.28041,103.40693 C 739.21015,99.444866 733.76474,91.378002 733.76474,91.378002 C 733.76474,91.378002 738.90131,99.790013 740.22505,103.76723 C 741.7301,108.28919 740.1751,115.45877 742.78644,119.44551 C 745.82585,124.0858 752.77702,129.4105 758.3238,129.46961 C 760.61884,129.49407 763.34543,127.20228 764.83947,125.45997 C 766.85727,123.10685 769.20523,119.01633 768.84912,115.93707 C 768.61417,113.90547 764.83947,110.42381 764.83947,110.42381 C 764.83947,110.42381 762.99203,115.28375 761.67523,116.75933 C 760.53375,118.03845 758.34092,117.54288 756.88258,116.64157 C 755.5782,115.83542 755.76176,111.88264 755.51987,110.36845 C 754.32538,102.89124 758.90482,94.082934 756.29583,88.010465 C 755.40749,85.942815 752.49435,80.42972 749.91596,78.778481 C 748.22899,77.698129 741.78403,74.838223 741.78403,74.838223 C 741.78403,74.838223 746.07556,72.080751 747.29728,70.327374 C 749.93417,66.542993 751.54705,60.341442 752.30934,55.792417 C 752.85604,52.52995 752.30934,44.765898 752.30934,44.765898 C 752.30934,44.765898 742.09446,45.104104 737.77438,45.768309 C 735.28226,46.151468 729.60318,47.735499 729.60318,47.735499 z" />
          <g transform="translate(149.02369,7.1978252)">
            <path class="white outline" d="M 149.34544,142.89806 A 12.504578,7.3608503 0 1 1 124.33629,142.89806 A 12.504578,7.3608503 0 1 1 149.34544,142.89806 z" transform="matrix(-0.9158702,-0.4014745,-0.4014745,0.9158702,719.27797,-20.238666)"/>
            <path class="white outline" d="M 149.95408,141.35471 A 8.0072575,8.0072575 0 1 1 133.93957,141.35471 A 8.0072575,8.0072575 0 1 1 149.95408,141.35471 z" transform="translate(391.31753,-88.325583)"/>
            <path class="pupil outline" d="M 533.92275,46.139841 C 533.31906,46.138131 532.77751,46.232281 532.23525,46.296091 C 531.15073,46.423711 530.23525,46.608591 530.23525,46.608591 L 531.0165,50.014841 C 531.0165,50.014841 531.76269,49.868251 532.6415,49.764841 C 533.52031,49.661431 534.62239,49.809301 534.454,49.733591 C 534.37759,49.699231 535.08646,50.492851 535.1415,50.671091 C 535.31812,51.243091 535.21539,53.377731 534.92867,53.956641 C 534.82818,54.159541 534.01078,54.877491 533.95992,54.894141 C 534.22007,54.808951 533.35632,54.883991 532.70992,54.769141 C 532.06353,54.654291 531.52242,54.519141 531.52242,54.519141 C 531.52242,54.519141 529.75144,54.308521 529.5004,54.887361 C 529.16761,55.654701 530.5165,57.483591 530.5165,57.483591 C 530.5165,57.483591 531.21311,57.647801 532.04775,57.796091 C 532.88239,57.944381 533.73386,58.205891 534.98525,57.796091 C 536.47701,57.307571 537.39657,56.360291 538.0165,55.108591 C 538.84857,53.428551 539.05237,51.476461 538.48525,49.639841 C 538.08242,48.335281 537.38331,47.216851 535.8915,46.546091 C 535.18438,46.228151 534.52644,46.141551 533.92275,46.139841 z"/>
            <path class="body outline" d="M 532.47164,40.771801 C 532.47164,40.771801 529.7101,41.202371 528.56951,41.658651 C 526.32936,42.554801 524.06991,44.584411 523.78052,46.979741 C 523.62922,48.232081 524.11404,49.296811 525.02211,50.172401 C 525.99869,51.114051 527.56902,50.997911 528.92425,51.059251 C 530.90892,51.149091 533.37186,49.586261 535.30956,49.817661 C 538.09936,50.150821 541.71683,51.860581 543.82332,53.719801 C 544.80864,54.589461 545.02696,56.728741 546.12912,57.444571 C 547.11996,58.088101 548.97587,58.507761 550.03126,57.976681 C 551.1162,57.430731 551.68017,55.605661 551.98233,54.429281 C 552.12795,53.862361 552.14727,53.039811 551.98233,52.478211 C 551.73277,51.628491 550.99851,50.634671 550.386,49.995031 C 549.6202,49.195311 547.37071,47.866591 547.37071,47.866591"/>
          </g>
          <path class="body outline" d="M 630.65403,65.898112 C 630.65403,65.898112 635.53134,59.267881 637.76028,58.344623 C 639.98922,57.421365 640.82474,57.55126 641.26446,58.344623 C 641.70418,59.137986 641.56838,60.389031 639.91669,62.02259 C 638.265,63.656149 630.65403,65.898112 630.65403,65.898112 z"/>
          <path class="ear outline" d="M 729.18784,59.26477 C 729.18784,59.26477 731.91427,54.879424 733.76034,53.803164 C 736.67227,52.105508 744.81057,51.770939 744.81057,51.770939 C 744.81057,51.770939 746.19035,58.845105 744.30251,60.788939 C 743.36995,61.749157 740.80409,60.224076 739.85702,61.169981 C 738.61216,62.413303 740.60685,65.782495 739.34896,67.012629 C 738.50268,67.840231 735.41153,67.266657 735.41153,67.266657 C 735.41153,67.266657 735.46636,62.260708 734.14138,60.788939 C 733.10109,59.633403 729.18784,59.26477 729.18784,59.26477 z" />
          <path class="outline" d="M 721.78715,61.84739 C 721.78715,61.84739 716.30988,72.901406 712.6506,76.606426 C 710.71883,78.562341 707.54322,80.704897 704.91968,81.526104 C 699.88525,83.101956 686.7598,83.997718 686.7598,83.997718 L 685.94378,85.040161 C 685.94378,85.040161 700.69876,81.220282 704.91968,85.040161 C 706.49078,86.461988 706.49702,90.138212 705.62249,92.068273 C 704.87392,93.720335 702.84625,96.022524 701.29241,96.958064 C 698.869,98.417156 692.46561,100.19226 692.46561,100.19226"/>
          <path class="outline" d="M 717.57028,118.07229 C 717.57028,118.07229 718.39379,126.53163 717.57028,130.02008 C 716.27045,135.52626 713.83908,140.28667 710.99942,145.17992 C 709.85472,147.15245 706.78255,151.50522 706.78255,151.50522"/>
          <path class="outline" d="M 629.01606,189.75904 C 629.01606,189.75904 622.68178,194.0192 620.38193,196.56699 C 618.68071,198.45162 615.66265,204.51807 615.66265,204.51807"/>
          <path class="outline" d="M 694.37751,179.21687 C 694.37751,179.21687 682.14701,183.09808 677.08243,186.54981 C 674.73845,188.14734 672.62873,191.5314 671.41337,194.09445 C 669.51414,198.0997 668.37349,205.54265 668.37349,205.54265"/>
          <path class="outline" d="M 693.01423,198.29015 C 693.01423,198.29015 699.96033,191.46178 702.81124,189.05622 C 706.6551,185.81282 714.04467,184.08221 716.86747,179.91968 C 718.6777,177.25031 718.9759,169.37751 718.9759,169.37751"/>
          <path class="outline" d="M 627.61044,153.91566 C 627.61044,153.91566 627.06848,163.52816 625.50201,167.26908 C 623.17286,172.83138 618.17043,179.55369 613.55422,183.43373 C 611.02788,185.55718 603.71486,188.35341 603.71486,188.35341 C 603.71486,188.35341 603.71486,188.35341 603.71486,188.35341"/>
        </g>
      </g>
    </g>
  </g>
  <path class="outline" d="M 159.03433,230.42895 C 159.03433,230.42895 155.3425,226.73757 153.20341,222.72559 C 151.61786,219.7518 151.51304,216.69152 151.10442,214.35743 C 150.6666,211.85657 151.80723,205.92369 151.80723,205.92369" />
</svg>
