<?xml version="1.0" encoding="UTF-8" standalone="no"?>
<svg xmlns:dc="http://purl.org/dc/elements/1.1/" xmlns:cc="http://creativecommons.org/ns#" xmlns:rdf="http://www.w3.org/1999/02/22-rdf-syntax-ns#" xmlns:svg="http://www.w3.org/2000/svg" xmlns="http://www.w3.org/2000/svg" xmlns:xlink="http://www.w3.org/1999/xlink" version="1.1" width="155" height="175" id="svg2" style="display:inline">
  <g transform="translate(-583, -277)">
    <g transform="matrix(1.260995,0,0,1.260995,681.73703,991.02783)" >
      <!-- back leg -->
      <g>
        <!-- leg -->
        <path class="body" d="m -56.325204,-469.62138 2.71471,6.2381 c 0,0 4.35703,-0.5158 6.50282,-1.15464 2.9336,-0.87424 7.49321,-3.53162 7.49321,-3.53162 2.05798,-1.09526 -2.5322,-4.31434 -4.13938,-6.03761 -1.23958,-1.32923 -2.08365,-3.04967 -2.08365,-3.04967 -1.22436,-1.95091 3.08077,-4.94771 6.19391,-6.96286 3.98819,-2.58166 8.60627,-5.03398 12.78406,-5.77879 7.11672,-1.26869 24.00782,-3.25481 24.00782,-3.25481 l 1.70893,6.13768 -3.90246,8.98498 -5.83621,3.97752 c 1.11348,1.25986 -8.46161,0.53039 -15.82002,0.29232 -2.3571,-0.0762 0.44164,6.7994 0.44164,6.7994 0,0 1.83355,1.35837 2.53288,2.42701 0.69933,1.06866 1.08881,2.29848 0.51509,3.41437 -0.57374,1.11589 -2.25221,1.64599 -3.64385,1.91847 -1.39164,0.27258 -3.32528,-0.56897 -3.32528,-0.56897 0.60891,1.00897 1.14949,2.03753 1.02021,3.12624 -0.22888,1.92724 -4.26398,4.25922 -4.26398,4.25922 0,0 0.78382,-1.89583 0.51086,-2.80866 -0.32619,-1.09084 -1.53051,-2.4015 -1.53051,-2.4015 0,0 -0.14808,1.57869 -0.46384,2.34601 -0.87408,2.12416 -5.55544,4.21664 -5.55544,4.21664 0,0 1.02881,-2.17668 1.01529,-3.33688 -0.0133,-1.14304 -1.26815,-2.21116 -1.26815,-2.21116 0,0 -0.40977,1.81779 -1.3113,2.92347 -1.08376,1.3292 -4.36842,2.79256 -4.36842,2.79256 0,0 0.69948,-1.78887 0.75639,-2.72985 0.0545,-0.90054 -0.4039,-2.67733 -0.4039,-2.67733 0,0 -1.87956,2.95926 -3.023,3.96711 -1.38663,1.22223 -4.35505,2.10684 -4.35505,2.10684 0,0 1.77215,-3.0598 1.19005,-4.50156 -0.56049,-1.38831 -4.4228,-2.21425 -4.4228,-2.21425 0,0 -4.12706,1.92389 -6.77312,2.34008 -1.31152,0.20621 -3.04393,0.38216 -3.94169,-0.57376 -1.22796,-1.30678 -1.38436,-2.45446 -0.73698,-4.11105 0.32388,-0.82886 2.49187,-2.06722 2.49187,-2.06722 0,0 -1.64018,-0.91817 -2.09878,-1.52216 -0.82681,-1.08901 -0.8005,-2.39905 -0.19549,-3.61895 0.63674,-1.28386 1.89765,-1.73157 3.35958,-1.73601 1.07941,-0.003 2.88238,1.29571 2.88238,1.29571 0,0 0.47651,-3.41237 1.8459,-4.026 1.32151,-0.59219 3.49573,1.31157 3.49573,1.31157 l -3e-5,1e-5 z"/>
        <!-- groin -->
        <path class="body" d="m 0.314346,-480.48571 c 0,0 -3.89211,2.21493 -6.37908,1.17255 -1.07097,-0.44889 -2.08035,-1.41569 -2.35662,-2.52045 -0.26762,-1.07023 0.2286,-2.28897 0.8739,-3.193 0.41311,-0.57875 3.49243,-2.41217 3.49243,-2.41217 0,0 -0.83071,-2.72821 -1.82474,-4.30505 -1.46326,-2.32116 -8.59259,-4.71991 -8.59259,-4.71991 2.90119,-0.88775 6.28224,-0.9971 9.70323,-0.20626 l 5.78764,6.89088 -0.70417,9.29341 z"/>
        <!-- leg highlights -->
        <path class="highlight low" d="m -11.606974,-477.06893 -1.60912,-4.01256 c -0.53071,-1.32337 2.25919,-2.31706 2.11394,-3.73098 -0.15565,-1.51576 -1.00089,-3.04263 -2.39354,-3.73158 -1.81468,-0.89777 -9.71648,0.78431 -11.73001,1.06959 -3.07277,0.44119 -5.98079,1.77697 -8.71724,3.21019 -2.95682,1.5486 -8.16788,5.74265 -8.16788,5.74265 0,0 0.38642,1.81802 0.87489,2.59336 1.70273,2.70274 5.20773,3.81993 5.12249,6.9913 -0.0521,1.94004 -1.37979,2.71412 -2.66293,3.64658 -2.74256,1.99296 -5.50714,2.7216 -8.85688,3.39346 -2.49122,0.49967 -6.8103,0.32492 -6.8103,0.32492 0,0 -1.54604,-4.62106 -3.14099,-6.40397 -0.35117,-0.3926 -0.85172,-1.07385 -1.3384,-0.85924 -1.28229,0.56532 -0.58876,4.07804 -0.58876,4.07804 0,0 -2.79287,-1.33756 -4.30156,-1.37914 -1.03877,-0.0287 -1.85971,-0.23268 -2.30484,0.68339 -0.24762,0.50959 -0.39638,1.23945 0.007,1.64327 0.93775,0.93861 4.35715,2.54571 4.35715,2.54571 0,0 -3.58983,1.31424 -4.28374,2.72933 -0.36633,0.7469 -0.80712,1.46786 -0.17654,2.0221 0.56044,0.4926 1.70524,0.3873 2.44361,0.23642 2.58364,-0.52785 7.43443,-2.59431 7.43443,-2.59431 l 5.95495,1.96395 0.38156,2.52924 4.30774,-4.96446 1.88953,4.54441 2.0029,-4.28108 4.10768,3.28632 2.08605,-4.52795 3.83731,3.09021 -0.72844,-4.82865 c 0,0 3.18394,0.71477 4.80406,0.71972 0.59553,0.002 1.41234,0.21244 1.76767,-0.25381 0.40271,-0.5284 -10e-4,-1.36145 -0.29484,-1.95441 -0.4839,-0.97717 -2.28441,-2.37344 -2.28441,-2.37344 0,0 -2.11312,-4.17226 -1.79611,-6.31965 0.19153,-1.29738 0.48504,-2.95338 1.80544,-3.19571 3.38407,-0.62107 17.3444,1.26041 16.88808,-1.63322 l -5e-5,0 z"/>
        <path class="highlight high" d="m -23.711114,-486.22087 c 0,0 -5.09031,0.96555 -7.38709,2.02899 -3.51255,1.62638 -9.17264,6.64338 -9.17264,6.64338 l 4.66246,6.23061 -1.91899,-6.14033 c 0,0 4.24024,-2.30178 6.16521,-3.54832 2.88203,-1.86635 7.65105,-5.21433 7.65105,-5.21433 z"/>
        <!-- claws -->
        <path class="claw" d="m -67.731734,-467.53045 c 1.33583,0.30625 2.03345,1.23029 1.95396,2.49401 -0.0395,0.62813 -0.45017,1.18803 -1.40188,1.53369 -1.93515,-1.2566 -2.80314,-1.46462 -5.09566,-0.86417 2.08745,-3.16206 3.70926,-2.57921 4.54359,-3.16355 z"/>
        <path class="claw" d="m -67.943314,-457.95367 c 1.3296,-0.33101 2.38612,0.17366 2.91458,1.33002 0.26269,0.57477 0.16387,1.25648 -0.51614,1.99227 -2.31144,-0.24132 -3.17966,-0.0342 -4.92782,1.53228 0.35225,-3.74535 2.06653,-3.9601 2.52937,-4.85458 z"/>
        <path class="claw" d="m -58.483114,-471.71449 c 0.79982,1.08778 0.70239,2.23147 -0.20941,3.13243 -0.45321,0.44784 -1.14004,0.60607 -2.08999,0.25581 -0.6106,-2.18821 -1.12423,-2.90183 -3.25596,-3.92042 3.70415,-1.04264 4.53294,0.43699 5.55536,0.53213 z"/>
      </g>
      <!-- back arm -->
      <g>
        <g transform="matrix(1.0275047,0.04227303,-0.00999887,1.0852019,-509.82176,-333.40265)" id="g5810-4-2-0-4-9-2-6">
          <!-- arm -->
          <path class="body" d="m 469.89172,-189.44346 c 0,0 -3.2133,-0.0251 -4.49999,-0.77844 -1.39929,-0.81931 -2.89764,-3.71547 -2.89764,-3.71547 0,0 -3.5428,0.5752 -5.17164,0.2223 -1.70186,-0.36873 -4.1377,-2.31533 -4.1377,-2.31533 1.627,-0.24015 2.84206,-0.48567 4.41754,-1.76008 0,0 -3.13615,-0.16604 -4.92243,-0.8537 -1.55516,-0.5987 -4.09281,-2.58269 -4.09281,-2.58269 1.45006,-0.35994 3.01793,-0.31529 4.16007,-1.73258 0,0 -3.07162,0.0277 -4.46327,-0.48078 -1.38924,-0.50759 -3.59506,-2.46162 -3.59506,-2.46162 1.68802,-0.14653 3.29361,-0.45961 4.379,-1.82377 0,0 -3.11114,0.10567 -4.42924,-0.41198 -1.81987,-0.71478 -4.60418,-3.09647 -4.60418,-3.09647 1.75084,-0.1319 3.49236,-0.28269 4.81679,-1.27612 l -0.98441,-1.99868 c -1.18824,-2.41294 -3.67704,-1.56174 -5.33097,-2.22681 -1.62436,-0.65318 -2.53503,-2.43408 -2.62364,-3.43221 -0.15625,-1.7607 0.74385,-4.45016 4.7172,-3.88855 -1.97584,-3.01086 0.0813,-5.17388 2.1837,-6.03988 2.01959,-0.83233 3.80318,-0.60501 5.17456,2.69044 0,0 1.84335,-1.4908 2.84207,-1.71177 1.39017,-0.30755 2.95721,0.15361 3.45134,1.45497 0.20317,0.53507 0.27725,1.65417 -0.0635,2.32224 -0.53897,1.05666 -1.72616,1.78054 -2.11393,3.32609 -0.43905,1.74986 1.17767,4.80302 1.17767,4.80302 0,0 7.63709,6.05036 11.15035,9.36419 1.86935,1.76322 5.2643,5.57903 5.2643,5.57903 l 0.18762,-0.10869 7.57028,0 0.67592,12.77279 -8.23795,0.16055 z"/>
          <!-- arm highlights -->
          <path class="highlight low" d="m 728.66998,600.08634 c 0,0 1.811,3.75355 3.01139,4.32704 1.14933,0.5491 2.09431,-0.47394 2.09431,-0.47394 l -0.71649,-1.5524 -2.4329,-0.67409 c 0.5007,-2.24986 5.12414,-1.36582 4.02596,-5.80181 0,0 -7.73819,-7.44278 -9.44531,-8.96044 -2.2446,-1.99549 -8.23963,-6.44841 -8.23963,-6.44841 0,0 -1.3723,-3.32743 -1.5524,-5.6125 -0.0797,-1.0117 0.13035,-2.08424 0.59708,-2.98538 0.47913,-0.92508 1.88497,-1.26122 2.14947,-2.26888 0.0833,-0.31749 -0.0277,-0.70401 -0.23883,-0.95532 -0.25219,-0.30015 -0.68338,-0.5007 -1.07474,-0.47766 -1.47881,0.087 -3.82128,2.26888 -3.82128,2.26888 0,0 -1.46479,-2.6323 -2.74654,-3.2242 -0.54207,-0.25032 -1.2396,-0.22849 -1.79122,0 -0.52008,0.21542 -1.0322,0.65502 -1.19415,1.19415 -0.51431,1.7121 1.07473,5.25426 1.07473,5.25426 0,0 -3.44737,-0.87649 -4.7766,0 -0.50616,0.33376 -0.76689,1.06762 -0.71649,1.67181 0.0551,0.6602 0.53641,1.28569 1.07474,1.67181 1.46698,1.05221 5.25426,1.31356 5.25426,1.31356 l 4.41834,5.97075 -4.65717,1.31356 c 1.77394,0.96561 3.16362,1.29333 8.0008,1.31357 -0.98506,2.0703 -2.4297,2.77997 -3.70187,3.70186 l 8.12022,1.19415 c -0.70602,2.03214 -2.8284,2.22011 -3.82128,3.10479 2.05296,1.36605 5.29625,1.83934 8.59788,2.26888 -0.44573,1.6659 -2.55375,2.08508 -4.17952,2.86596 1.18751,0.49093 3.27146,0.14572 6.68724,0 z" transform="translate(-265.2681,-795.8822)"/>
          <path class="highlight high" d="m 463.964,-201.37345 c -3.57009,-7.41614 -9.76248,-11.43664 -16.38054,-15.39604 5.16188,7.19561 10.9686,11.61727 16.38054,15.39604 z"/>
        </g>
        <!-- claws -->
        <g transform="translate(-76.696114,-19.174029)">
          <path class="claw" d="m 35.05387,-543.26271 c 0.26067,1.38075 -0.29621,2.34691 -1.47435,2.6759 -0.58556,0.16358 -1.25887,-0.0511 -1.95595,-0.85403 0.35969,-2.26095 0.1985,-3.16104 -1.27005,-5.16949 3.70906,0.98996 3.83413,2.734 4.70035,3.34762 z" />
          <path class="claw" d="m 24.7024,-544.75007 c 0.77538,1.15933 0.654,2.29428 -0.27514,3.11362 -0.46178,0.40729 -1.15066,0.50408 -2.09145,0.0689 -0.56329,-2.2428 -1.0609,-3.00237 -3.16716,-4.21171 3.71923,-0.71114 4.51524,0.84261 5.53375,1.02926 z" />
          <path class="claw" d="m 18.74556,-537.23953 c 1.15285,0.72606 1.49192,1.82499 0.98208,2.9893 -0.25337,0.57873 -0.83293,0.97159 -1.84836,0.98543 -1.39028,-1.81755 -2.13629,-2.29783 -4.50236,-2.48322 3.05458,-2.29468 4.38162,-1.21441 5.36864,-1.49151 z" />
        </g>
      </g>
      <!-- front arm + leg + torso -->
      <path class="body" d="m 0.742746,-435.18677 c 0,0 1.25611,-0.29641 1.75664,0 1.28214,0.75938 3.35359,2.64844 3.35359,2.64844 0,0 0.50769,-2.32559 -0.06,-4.17712 -0.33592,-1.09568 -2.24547,-2.61917 -2.24547,-2.61917 0,0 2.45997,-0.63508 3.583,0.15571 1.10633,0.77909 2.49513,3.48596 2.49513,3.48596 0,0 0.52523,-2.97318 0.1597,-4.82954 -0.27921,-1.41796 -2.71481,-3.42754 -2.71481,-3.42754 0,0 2.0068,-0.39652 2.8745,0 1.50601,0.68819 3.19391,3.73906 3.19391,3.73906 0,0 1.26761,-4.00726 0.31939,-6.23169 -0.43745,-1.02616 -2.71482,-2.0254 -2.71482,-2.0254 0,0 3.13778,-0.80885 4.31177,0 1.43026,0.98543 2.07603,3.42753 2.07603,3.42753 0,0 1.48018,-2.98003 0.95816,-5.14118 -0.32234,-1.3345 -2.55512,-3.27173 -2.55512,-3.27173 0,0 1.72073,-1.39728 2.23573,-2.33691 0.43833,-0.79976 1.00964,-1.81682 0.63878,-2.64845 -0.38244,-0.85759 -1.54938,-1.25198 -2.49729,-1.39174 -1.14438,-0.16869 -3.38921,0.73588 -3.38921,0.73588 l -1.39133,-1.18716 c -2.45018,-2.09069 -3.78874,-5.48104 -4.16372,-8.87624 -0.38827,-3.51548 2.52636,-10.10778 2.52636,-10.10778 0,0 1.35575,4.3039 3.44775,6.68662 1.46363,1.66702 3.57261,2.95217 5.7724,3.41302 2.81425,0.58952 4.24475,0.7386 6.82194,-0.51196 2.32595,-1.12862 4.83596,-2.99184 5.42256,-5.46073 2.30689,-9.70915 -0.67796,-25.42782 -0.52475,-24.23215 0,0 1.61111,-2.01265 2.09905,-3.41289 0.58268,-1.67222 1.04952,-5.80213 1.04952,-5.80213 0.38303,-1.4013 1.61659,-2.65033 2.97366,-3.24232 0.85166,-0.37148 1.93209,-0.3369 2.79874,0 1.41764,0.55103 3.32351,3.07164 3.32351,3.07164 0,0 -0.15159,-3.61299 -1.22445,-4.94878 -1.09376,-1.36176 -2.95316,-2.27813 -4.72287,-2.3891 -2.71282,-0.16963 -5.38573,0.8537 -5.38573,0.8537 0,0 2.94905,-3.11188 4.32928,-6.1873 1.09222,-2.43372 1.26371,-7.01124 1.26371,-7.01124 0,-3.31717 -1.63365,-7.05233 -3.93349,-9.67811 -2.91523,-3.32838 -8.02028,-5.58799 -8.02028,-5.58799 0,0 1.85473,2.94604 3.0601,5.87271 0.83401,2.02494 1.12331,4.62912 1.12331,4.62912 0,0 -1.71707,-1.70646 -3.22048,-2.91063 -2.08454,-1.66926 -6.17107,-1.77196 -6.17107,-1.77196 0,0 3.54681,2.72847 4.72315,5.92606 0.5267,1.43165 0.49339,3.04603 0.29178,4.55439 -0.31815,2.38025 -1.6285,5.86527 -2.1938,8.20137 -0.79003,3.26487 -1.79194,5.24353 -1.59929,8.59292 0.19473,3.38551 2.62018,9.84596 2.62018,9.84596 0,0 -4.00307,0.5161 -5.46868,1.47037 -2.0916,1.36163 -2.43259,5.61029 -2.43259,5.61029 0,0 2.30047,-2.25795 3.73946,-2.5893 1.07257,-0.24707 3.13651,1.0199 3.13651,1.0199 0,0 -4.08284,1.62264 -5.22751,3.31492 -1.12028,1.65616 -1.0455,5.04132 -1.0455,5.04132 0,0 1.47996,-2.08489 2.87513,-2.74642 1.17539,-0.55729 3.92063,0 3.92063,0 0,0 -3.75935,2.25241 -4.70476,4.07986 -0.86721,1.67623 -0.52275,5.60982 -0.52275,5.60982 0,0 1.71129,-2.74891 3.09611,-3.47192 0.99861,-0.52141 2.29092,-0.70449 3.39789,-0.47065 1.02886,0.21744 1.82283,0.52907 2.39276,1.39257 1.03775,1.57224 0.83356,3.64675 0,5.60994 -0.61297,1.44368 -1.13391,2.7168 -2.61375,3.3148 -1.85134,0.74805 -4.22248,0.88038 -6.01163,0 -2.22489,-1.09485 -2.42559,-2.09658 -3.39789,-4.33494 -1.861,-4.2843 -1.65741,-10.2021 -3.39787,-14.53445 -1.44611,-3.59952 -4.8748,-5.98591 -6.01165,-9.68955 -1.17469,-3.827 0.0453,-8.02831 -0.52275,-11.98458 -0.35191,-2.45118 -1.7391,-6.21846 -2.091,-8.66976 -0.27794,-1.93604 0,-4.33482 0,-4.33482 l -17.60375,-0.89502 -9.48654,8.18697 c 0,0 -3.6157,0.96158 -5.47302,1.06782 -4.50714,0.2564 -9.70797,-1.06511 -14.21908,-1.24324 -4.86092,-0.19193 -13.8757,-0.526 -13.8757,-0.526 l -1.73184,-3.78616 c -0.65968,-1.44227 -0.69587,-3.17787 -2.15696,-3.85792 -1.13562,-0.52849 -2.82128,-0.80106 -3.7747,0 -0.91816,0.77142 -0.53924,3.50709 -0.53924,3.50709 0,0 -2.90161,-0.60119 -4.13419,0 -1.33975,0.6535 -2.13664,1.51983 -2.15697,2.98098 -0.024,1.71908 0.95118,3.59433 2.51647,4.38405 0.69187,0.35071 2.33672,0.35071 2.33672,0.35071 0,0 -1.42939,0.68974 -1.79748,1.75355 -0.47404,1.37002 -0.007,3.22462 1.07848,4.20852 1.29217,1.17028 2.64114,1.06983 4.31394,0.52612 1.40738,-0.45743 3.05571,-2.45497 3.05571,-2.45497 0,0 2.58475,-0.28886 3.59495,0.35071 0.8104,0.51314 1.19001,1.54402 1.43798,2.45497 0.18453,0.67793 0.27514,1.45619 0,2.10425 -0.74581,1.7565 -3.76616,4.44355 -3.76616,4.44355 0,0 2.91845,0.19265 4.26747,-0.2558 2.82499,-0.93904 6.62403,-4.43717 6.62403,-4.43717 0,0 -0.22636,1.65651 -0.96153,2.59898 -0.92719,1.18871 -3.27132,3.10717 -3.27132,3.10717 0,0 4.46302,-0.46061 6.56639,-1.44605 1.8805,-0.88108 4.54325,-4.09649 4.54325,-4.09649 0,0 -0.0612,1.56161 -0.45447,2.36089 -0.46914,0.95356 -1.49234,3.13042 -1.49234,3.13042 0,0 4.034,-0.87035 5.82022,-1.88954 1.36222,-0.7772 3.03222,-3.26582 3.03222,-3.26582 0,0 0.0669,1.70102 -0.21031,2.59415 -0.24985,0.80506 -1.43471,2.50985 -1.43471,2.50985 0,0 3.85308,-0.69965 5.49971,-1.57672 1.68195,-0.89583 4.06501,-3.96581 4.06501,-3.96581 0,0 2.26407,-0.55109 3.72312,0.25463 2.87981,1.59029 4.17384,5.36483 7.53935,7.10166 5.4688,2.82228 12.74855,4.4446 15.0787,10.65233 0.80318,2.13977 0.85699,3.57225 -0.25998,5.57971 -1.3649,2.45309 -7.11053,5.41906 -8.57925,8.11614 0,0 -2.29971,3.0727 -2.85977,6.08696 -0.35851,1.92955 -0.0649,4.05412 0.77995,5.83352 1.08288,2.28085 3.22685,3.96275 5.19953,5.57972 2.3561,1.93121 7.79934,4.81892 7.79934,4.81892 l 0.91827,1.81765 c 0,0 -3.44198,2.30482 -4.73087,3.93359 -1.57925,1.99578 -4.15207,6.38763 -4.15207,6.38763 0,0 -1.59865,-1.63068 -3.36732,-2.2621 -1.36573,-0.48752 -3.31141,-0.98012 -4.36283,0 -1.00675,0.93857 -1.0726,2.06448 -0.56907,3.33098 0.45269,1.13866 2.08657,2.03556 2.08657,2.03556 0,0 -1.35606,1.22872 -1.70719,2.03568 -0.42287,0.97197 -0.4158,2.2707 0.18968,3.14588 0.80664,1.16592 2.16585,1.01069 3.60407,1.11033 1.01698,0.0708 3.03501,-0.37008 3.03501,-0.37008 0,0 -0.46137,1.16558 -0.37937,1.85059 0.12811,1.06995 0.39128,2.39016 1.32782,2.9609 1.28814,0.785 3.30899,0.66565 4.5525,-0.18509 2.11133,-1.44451 2.93603,-6.7977 2.93603,-6.7977 l 5e-5,0 z"/>
      <!-- front arm -->
      <path class="highlight low" d="m -18.602624,-506.86989 c 0,0 0.93481,-2.74347 0.51724,-4.03688 -0.54091,-1.67552 -2.82139,-2.3368 -3.62071,-3.91081 -0.31147,-0.61336 -0.38793,-2.01833 -0.38793,-2.01833 0,0 -1.71729,1.17077 -2.71553,1.26143 -1.50947,0.13705 -2.88223,-1.06617 -4.39657,-1.13535 -1.30951,-0.0602 -3.87933,0.63082 -3.87933,0.63082 0,0 -8.40905,-1.50718 -11.7673,-1.89237 -5.14152,-0.58962 -14.48282,0 -14.48282,0 l -2.4569,-6.55984 c 0,0 -0.0122,-1.07597 -0.64655,-1.51391 -0.45744,-0.31566 -1.29197,-0.39332 -1.68106,0 -0.83856,0.84791 0,3.65843 0,3.65843 0,0 -3.19904,-1.14008 -4.78451,-0.37846 -0.63423,0.30467 -1.28056,0.95038 -1.2931,1.64 -0.0132,0.72338 0.68907,1.34641 1.2931,1.76618 1.61078,1.11929 5.68969,1.76618 5.68969,1.76618 0,0 -3.47677,1.20854 -4.13795,2.64915 -0.28183,0.61407 -0.47647,1.53198 0,2.01844 0.65582,0.66954 1.93944,0.4043 2.84485,0.12607 1.34857,-0.41445 3.36208,-2.52296 3.36208,-2.52296 0,0 4.17711,0.0685 5.68967,1.26153 1.03483,0.81605 1.39413,2.26469 1.68106,3.53225 0.19518,0.86231 0.041,1.76701 0,2.64915 -0.0215,0.46403 -0.12932,1.38774 -0.12932,1.38774 l 7.37072,-5.80306 c 0.93388,2.27069 0.072,4.54151 -1.03449,6.81221 l 7.1121,-6.05532 c 1.59508,2.01845 0.7516,4.03689 0,6.05532 l 6.46555,-5.55068 c 1.53694,1.98102 1.13757,3.64722 0.64655,5.29842 0,0 1.78089,-0.83634 2.58623,-1.38761 1.55005,-1.06122 4.26726,-3.65855 4.26726,-3.65855 0,0 2.6571,0.67286 3.87932,1.26155 1.4472,0.69704 4.00865,2.64926 4.00865,2.64926 z"/>
      <path class="highlight high" d="m -31.271374,-514.58026 c -8.32859,-2.56779 -16.19256,-3.29687 -24.34593,-2.69276 9.41666,2.46754 17.27584,3.14253 24.34593,2.69276 z"/>
      <!-- front leg + torso -->
      <path class="highlight low" d="m 5.581606,-451.78862 c 0,0 -1.09824,-3.10586 -2.13632,-4.35772 -3.13543,-3.78108 -9.4522,-5.29889 -11.65263,-9.66288 -0.80008,-1.58675 -0.70856,-2.85148 -0.19421,-4.54718 0.81014,-2.67088 2.95868,-4.77431 4.66105,-7.01031 1.97201,-2.59012 5.41012,-4.31334 6.40895,-7.3891 0.8833,-2.71998 0.37944,-5.90529 -0.77684,-8.52611 -0.88845,-2.01372 -2.66067,-3.62172 -4.46684,-4.92611 -3.25976,-2.35416 -8.06225,-2.27176 -11.07001,-4.9261 -0.66698,-0.58858 -1.35947,-2.27367 -1.35947,-2.27367 0,0 8.49246,-2.04015 11.45842,-4.73664 0.82709,-0.75194 1.35948,-2.27353 1.35948,-2.27353 l 4.46684,1.70514 c 0,0 -0.34179,6.06572 0.58264,8.90492 0.65879,2.0234 1.57202,3.69042 2.71894,5.49461 1.18288,1.86085 3.19802,3.35813 3.69,5.49449 0.51578,2.23966 0.41697,4.60421 -0.1942,6.82085 -0.88996,3.22768 -4.19555,6.76181 -4.85527,10.04167 -0.51108,2.54091 -0.5881,5.24318 0,7.76815 0.76345,3.27798 5.4379,8.33653 5.4379,8.33653 l 2.33053,1.13677 c 0,0 2.7757,-1.13476 3.30158,-0.18946 0.72882,1.31005 -2.71895,3.59987 -2.71895,3.59987 l 2.33053,2.46312 -8.35106,1.89461 3.49579,3.0315 -6.79737,0.18947 3.69,4.9261 -6.99158,0 3.49578,3.59988 -3.30158,0.18947 c 0,0 -1.04922,4.5754 -2.71894,6.06299 -0.60467,0.53875 -1.66624,1.22495 -2.33053,0.75784 -0.63022,-0.44313 0,-1.5158 0,-2.27365 0,-1.01046 0,-3.03138 0,-3.03138 0,0 -2.8274,0.67793 -4.27263,0.75785 -0.97165,0.0532 -2.4103,0.62339 -2.91316,-0.18947 -0.6589,-1.06511 1.55369,-3.41042 1.55369,-3.41042 0,0 -2.07823,-1.80453 -2.52475,-3.03149 -0.12996,-0.35708 -0.27465,-0.86881 0,-1.13677 0.59509,-0.58054 1.7182,-0.23443 2.52475,0 1.92731,0.56012 5.04947,3.22096 5.04947,3.22096 l 4.07843,-7.0103 6.99157,-5.4945 z"/>
      <!-- tail -->
      <path class="highlight low" d="m 42.120396,-510.04634 c 0,0 -1.92087,-3.12452 -3.52572,-3.82181 -1.55072,-0.67379 -2.31962,-0.36817 -3.91747,0.19111 -1.35342,0.47372 -2.69655,1.41583 -3.32985,2.67525 -0.94939,1.888 -0.79885,4.08728 -1.37111,6.11481 -0.71383,2.5291 -3.91747,6.87927 -3.91747,6.87927 l -2.74222,-4.01292 0,0 0,0 0,0 0.32818,0.36405 -2.49057,-6.61426 0,-4.72449 1.79874,-7.01928 1.79875,-6.47932 0,-3.37466 -1.52202,-4.18456 -3.5975,-3.77954 5.53462,1.07987 4.0126,3.37465 -1.38366,-4.85953 -2.49057,-5.26443 5.67298,3.23973 5.11952,6.74919 1.10692,6.20936 -2.07549,7.28924 -3.04403,4.18456 6.22644,0 3.45914,2.29478 0.34979,3.48893 z"/>
      <path class="highlight high" d="m 22.537816,-537.83269 c 0,0 3.10033,2.09977 4.01259,3.64462 1.34604,2.27932 1.88207,5.06481 1.79875,7.69414 -0.0505,1.59383 -0.83244,3.08827 -1.38366,4.58956 -0.67597,1.84101 -1.87406,3.50025 -2.3522,5.39935 -0.55183,2.19184 -0.7978,4.50492 -0.55346,6.7493 0.15256,1.40142 1.24529,4.04963 1.24529,4.04963 -1.42977,-0.6581 -2.85956,-1.73219 -4.28933,-5.9394 l 0,-2.69968 2.35221,-6.7493 1.79875,-6.47934 -0.27673,-3.91458 -2.62894,-4.04952 -2.07548,-2.15986 2.35221,-0.13492 z" />
      <path class="highlight high" d="m 0.742746,-435.18681 c 0,0 1.25611,-0.29641 1.75664,0 1.28214,0.75938 3.35359,2.64845 3.35359,2.64845 0,0 0.50769,-2.32559 -0.06,-4.17712 -0.33592,-1.09569 -2.24547,-2.61918 -2.24547,-2.61918 0,0 2.45997,-0.63507 3.583,0.15571 1.10633,0.77909 2.49513,3.48596 2.49513,3.48596 0,0 0.52523,-2.97317 0.1597,-4.82954 -0.27921,-1.41795 -2.71481,-3.42754 -2.71481,-3.42754 0,0 2.0068,-0.39651 2.8745,0 1.50601,0.6882 3.19391,3.73906 3.19391,3.73906 0,0 1.26761,-4.00726 0.31939,-6.23168 -0.43745,-1.02616 -2.71482,-2.02541 -2.71482,-2.02541 0,0 3.13778,-0.80884 4.31177,0 1.43026,0.98544 2.07603,3.42754 2.07603,3.42754 0,0 1.48018,-2.98003 0.95816,-5.14119 -0.32234,-1.33449 -2.55512,-3.27171 -2.55512,-3.27171 0,0 1.72073,-1.3973 2.23573,-2.33693 0.43833,-0.79975 1.00964,-1.81682 0.63878,-2.64845 -0.38244,-0.85759 -1.54938,-1.25197 -2.49729,-1.39174 -1.14438,-0.16868 -3.38921,0.73589 -3.38921,0.73589 l -1.39133,-1.18717 c -2.45018,-2.09069 -3.78874,-5.48104 -4.16372,-8.87623 -0.38827,-3.51548 2.52636,-10.10779 2.52636,-10.10779 0,0 1.35575,4.3039 3.44775,6.68663 1.46363,1.66702 3.57261,2.95217 5.7724,3.41302 2.81425,0.58951 4.24475,0.7386 6.82194,-0.51196 2.32595,-1.12863 4.83596,-2.99183 5.42256,-5.46074 2.30689,-9.70915 -0.67796,-25.42782 -0.52475,-24.23215 0,0 1.61111,-2.01265 2.09905,-3.41289 0.58268,-1.67222 1.04952,-5.80212 1.04952,-5.80212 0.38303,-1.4013 1.61659,-2.65033 2.97366,-3.24232 0.85166,-0.37149 1.93209,-0.3369 2.79874,0 1.41764,0.55103 3.32351,3.07163 3.32351,3.07163 0,0 -0.15159,-3.61299 -1.22445,-4.94877 -1.09376,-1.36177 -2.95316,-2.27814 -4.72287,-2.38911 -2.71282,-0.16963 -5.38573,0.8537 -5.38573,0.8537 0,0 2.94905,-3.11188 4.32928,-6.18729 1.09222,-2.43372 1.26371,-7.01125 1.26371,-7.01125 0,-3.31717 -1.63365,-7.05232 -3.93349,-9.67811 -2.91523,-3.32837 -8.02028,-5.58797 -8.02028,-5.58797 0,0 1.85473,2.94602 3.0601,5.8727 0.83401,2.02493 1.12331,4.62911 1.12331,4.62911 0,0 -1.71707,-1.70645 -3.22048,-2.91062 -2.08454,-1.66927 -6.17107,-1.77197 -6.17107,-1.77197 0,0 3.54681,2.72849 4.72315,5.92607 0.5267,1.43164 0.49339,3.04602 0.29178,4.55439 -0.31815,2.38024 -1.6285,5.86526 -2.1938,8.20136 -0.79003,3.26487 -1.79194,5.24353 -1.59929,8.59293 0.19473,3.38551 2.62018,9.84596 2.62018,9.84596 0,0 -4.00307,0.51609 -5.46868,1.47036 -2.0916,1.36164 -2.43259,5.61029 -2.43259,5.61029 0,0 2.30047,-2.25795 3.73946,-2.58929 1.07257,-0.24708 3.13651,1.0199 3.13651,1.0199 0,0 -4.08284,1.62263 -5.22751,3.31492 -1.12028,1.65616 -1.0455,5.04131 -1.0455,5.04131 0,0 1.47996,-2.08489 2.87513,-2.74641 1.17539,-0.55729 3.92063,0 3.92063,0 0,0 -3.75935,2.2524 -4.70476,4.07985 -0.86721,1.67623 -0.52275,5.60982 -0.52275,5.60982 0,0 1.71129,-2.7489 3.09611,-3.47192 0.99861,-0.52141 2.29092,-0.70449 3.39789,-0.47065 1.02886,0.21745 1.82283,0.52908 2.39276,1.39257 1.03775,1.57224 0.83356,3.64675 0,5.60995 -0.61297,1.44368 -1.13391,2.71679 -2.61375,3.3148 -1.85134,0.74804 -4.22248,0.88037 -6.01163,0 -2.22489,-1.09486 -2.42559,-2.09658 -3.39789,-4.33495 -1.861,-4.2843 -1.65741,-10.20209 -3.39787,-14.53444 -1.44611,-3.59953 -4.8748,-5.98591 -6.01165,-9.68956 -1.17469,-3.827 0.0453,-8.02831 -0.52275,-11.98457 -0.35191,-2.45119 -1.7391,-6.21846 -2.091,-8.66977 -0.27794,-1.93604 0,-4.33482 0,-4.33482 l -17.60375,-0.89501 -9.48654,8.18696 c 0,0 -3.6157,0.96159 -5.47302,1.06783 -4.50714,0.25639 -9.70797,-1.06511 -14.21908,-1.24324 -4.86092,-0.19194 -13.8757,-0.52601 -13.8757,-0.52601 l -1.73184,-3.78615 c -0.65968,-1.44227 -0.69587,-3.17787 -2.15696,-3.85793 -1.13562,-0.52848 -2.82128,-0.80105 -3.7747,0 -0.91816,0.77142 -0.53924,3.50709 -0.53924,3.50709 0,0 -2.90161,-0.60119 -4.13419,0 -1.33975,0.6535 -2.13664,1.51983 -2.15697,2.98099 -0.024,1.71907 0.95118,3.59433 2.51647,4.38405 0.69187,0.35071 2.33672,0.35071 2.33672,0.35071 0,0 -1.42939,0.68973 -1.79748,1.75354 -0.47404,1.37003 -0.007,3.22462 1.07848,4.20852 1.29217,1.17029 2.64114,1.06984 4.31394,0.52612 1.40738,-0.45741 3.05571,-2.45497 3.05571,-2.45497 0,0 2.58475,-0.28885 3.59495,0.35072 0.8104,0.51313 1.19001,1.54402 1.43798,2.45496 0.18453,0.67794 0.27514,1.4562 0,2.10426 -0.74581,1.7565 -3.76616,4.44355 -3.76616,4.44355 0,0 2.91845,0.19264 4.26747,-0.25581 2.82499,-0.93904 6.62403,-4.43716 6.62403,-4.43716 0,0 -0.22636,1.65651 -0.96153,2.59898 -0.92719,1.1887 -3.27132,3.10716 -3.27132,3.10716 0,0 4.46302,-0.46061 6.56639,-1.44605 1.8805,-0.88108 4.54325,-4.09649 4.54325,-4.09649 0,0 -0.0612,1.56161 -0.45447,2.36089 -0.46914,0.95356 -1.49234,3.13042 -1.49234,3.13042 0,0 4.034,-0.87034 5.82022,-1.88954 1.36222,-0.7772 3.03222,-3.26581 3.03222,-3.26581 0,0 0.0669,1.70102 -0.21031,2.59414 -0.24985,0.80506 -1.43471,2.50987 -1.43471,2.50987 0,0 3.85308,-0.69966 5.49971,-1.57673 1.68195,-0.89584 4.06501,-3.96582 4.06501,-3.96582 0,0 2.26407,-0.55109 3.72312,0.25463 2.87981,1.59029 4.17384,5.36483 7.53935,7.10166 5.4688,2.82228 12.74855,4.4446 15.0787,10.65233 0.80318,2.13978 0.85699,3.57225 -0.25998,5.57972 -1.3649,2.45308 -7.11053,5.41907 -8.57925,8.11614 0,0 -2.29971,3.07269 -2.85977,6.08696 -0.35851,1.92955 -0.0649,4.05411 0.77995,5.83352 1.08288,2.28085 3.22685,3.96275 5.19953,5.57971 2.3561,1.93121 7.79934,4.81893 7.79934,4.81893 l 0.91827,1.81765 c 0,0 -3.44198,2.30481 -4.73087,3.93359 -1.57925,1.99578 -4.15207,6.38762 -4.15207,6.38762 0,0 -1.59865,-1.63066 -3.36732,-2.26209 -1.36573,-0.48752 -3.31141,-0.98012 -4.36283,0 -1.00675,0.93857 -1.0726,2.06448 -0.56907,3.33098 0.45269,1.13865 2.08657,2.03556 2.08657,2.03556 0,0 -1.35606,1.22872 -1.70719,2.03567 -0.42287,0.97198 -0.4158,2.2707 0.18968,3.14588 0.80664,1.16593 2.16585,1.0107 3.60407,1.11033 1.01698,0.0708 3.03501,-0.37007 3.03501,-0.37007 0,0 -0.46137,1.16557 -0.37937,1.85058 0.12811,1.06996 0.39128,2.39016 1.32782,2.96091 1.28814,0.785 3.30899,0.66565 4.5525,-0.18509 2.11133,-1.44452 2.93603,-6.79771 2.93603,-6.79771 l 5e-5,0 z"/>
      <!-- front arm claws -->
      <path class="claw" d="m -63.206764,-529.13727 c 0.8815,1.02596 0.87261,2.17355 0.0329,3.13892 -0.41734,0.47984 -1.09,0.68811 -2.06429,0.40864 -0.77774,-2.13715 -1.34498,-2.81102 -3.54927,-3.67015 3.61318,-1.31175 4.5538,0.10281 5.58066,0.12259 z" />
      <path class="claw" d="m -71.703744,-524.36375 c 1.27588,0.49274 1.82815,1.50604 1.5609,2.745 -0.13281,0.61582 -0.62269,1.11142 -1.61585,1.31821 -1.72697,-1.5181 -2.55467,-1.8472 -4.91237,-1.5788 2.53714,-2.83183 4.05468,-2.02483 4.96733,-2.48442 z"/>
      <path class="claw" d="m -68.919024,-513.72659 c 1.35486,-0.21228 2.36024,0.3836 2.77923,1.58188 0.20831,0.5956 0.0467,1.26578 -0.69883,1.93852 -2.27956,-0.44436 -3.16344,-0.31482 -5.04974,1.0909 0.69826,-3.69886 2.42542,-3.7614 2.96935,-4.61133 z" />
      <!-- front leg claws -->
      <path class="claw" d="m -14.084924,-444.65927 c 1.11683,0.77782 1.4029,1.89099 0.83786,3.03079 -0.28082,0.56654 -0.87855,0.93255 -1.89355,0.9001 -1.3017,-1.87894 -2.02389,-2.39271 -4.3785,-2.68574 3.16114,-2.15294 4.435,-1.01334 5.4342,-1.24516 z" />
      <path class="claw" d="m -14.761544,-436.32759 c 1.35507,-0.21101 2.35985,0.38578 2.77771,1.58445 0.20772,0.59579 0.0455,1.26583 -0.70071,1.93789 -2.27913,-0.4465 -3.16313,-0.31774 -5.05079,1.08625 0.70183,-3.69823 2.42905,-3.75917 2.97379,-4.6086 z" />
      <path class="claw" d="m -6.580964,-431.39574 c 1.33884,-0.29351 2.38002,0.24064 2.87411,1.41138 0.24562,0.5819 0.12674,1.26055 -0.57471,1.97694 -2.30334,-0.30616 -3.17734,-0.12357 -4.97102,1.39317 0.46268,-3.73388 2.1826,-3.90039 2.67164,-4.78149 z" />
      <!-- torso -->
      <path class="highlight high" d="m -12.404164,-504.52812 c 0,0 1.25394,1.16214 2.00364,1.56373 2.35118,1.25953 5.46794,0.97103 7.61384,2.54114 l 4.80875,3.51843 -6.61202,-10.55529 c 0,0 -1.78277,1.33355 -2.8051,1.75921 -1.57925,0.65763 -5.00911,1.17278 -5.00911,1.17278 z"/>
      <path class="highlight high" d="m 1.020246,-479.11695 c 0,0 -5.33522,3.66599 -6.81239,7.23234 -0.82914,2.0018 -0.85006,4.06616 0,6.05958 2.13173,4.99893 10.21858,7.62342 10.21858,7.62342 0,0 -5.77832,-3.35176 -7.21312,-7.81891 -0.53919,-1.67882 -0.31751,-3.54593 0,-5.27764 0.57671,-3.14553 3.80693,-7.81879 3.80693,-7.81879 z"/>
      <!-- head and mane -->
      <g transform="matrix(1.21,0,0,1.1804437,-806.74634,-983.57027)">
        <!-- langue (tongue) -->
        <path class="langue" d="m 665.65884,370.84065 c 0,0 -5.26527,-1.12955 -7.39457,-1.62245 -2.49358,-0.5773 -6.1091,0.5805 -8.54762,-0.1972 -1.43461,-0.4575 -1.7874,-0.7814 -2.48842,-2.1141 -0.43326,-0.8236 -0.64739,-2.2255 -0.64739,-2.2255 0,0 -1.18286,1.4931 -0.99639,2.7919 0.16208,1.1289 0.97104,2.2557 1.97759,2.7919 2.80717,1.4953 7.70439,0.50173 10.80239,1.22203 2.16308,0.5028 4.78564,3.55665 4.78564,3.55665 l 2.50877,-4.20323 z"/>
        <path class="teeth" d="m 651.57397,373.61385 c 0.39819,-2.4593 0.92936,-2.70322 1.43754,-3.51416 l 0.0228,3.46132 -1.46039,0.0528 5e-5,4e-5 z"/>
        <path class="teeth" d="m 651.57397,366.30685 c 0.39819,2.4593 0.92936,2.70322 1.43754,3.51416 l 0.0228,-3.46132 -1.46039,-0.0528 5e-5,-4e-5 z"/>
        <!-- mane -->
        <path class="highlight low" d="m 643.04767,393.6249 2.53431,-1.1071 c 0.71709,-0.3133 0.45955,-1.5392 0.73477,-2.2297 0.31415,-0.7881 1.7199,-1.8763 1.7199,-1.8763 l -3.33283,-0.1075 c 0,0 2.41658,-1.1546 2.58025,-2.7953 0.0415,-0.4159 -0.1105,-1.7323 -0.1075,-2.1502 0.009,-1.4321 1.28122,-2.6458 2.47275,-3.4403 0.7549,-0.5034 2.79516,-0.7064 3.22532,-1.5052 l 0.75258,-1.3976 c 0,0 -1.03488,0.7229 -2.02498,0.8506 -0.96556,0.1245 -2.47275,-0.3226 -2.47275,-0.3226 l 2.15022,-2.0426 c 0.3378,-0.3209 -0.23201,-1.7014 -0.10751,-2.1503 0.22601,-0.815 1.93519,-1.1826 1.93519,-1.1826 0,0 3.59003,0.67 5.16657,-0.2604 1.50452,-0.8883 2.24945,-2.613 1.75495,-4.1375 l -0.33462,-1.0316 c -0.41915,-1.2922 -5.13271,0.4361 -6.47916,0.6164 -1.18091,0.1581 -2.32402,-0.3781 -2.9454,-1.3946 -1.15458,-1.8889 -0.19242,-3.7778 0,-5.6667 l 7.16165,-0.3289 c 2.66163,-3.4912 8.68398,-3.2265 14.17158,-1.5525 0.60249,-0.35109 2.19803,-0.17909 2.83821,-0.41168 0.71663,-0.26036 0.51344,-0.92371 1.92299,-1.31672 0,0 0.81087,0.7149 0.5641,2.0525 -0.10313,0.5591 -1.50139,1.7496 -1.44395,2.2058 0.0375,0.2983 0.89025,-0.5307 1.82341,-0.4472 1.17687,0.1054 2.48169,1.1013 2.44073,1.3699 -0.13029,0.8543 -0.86652,2.3611 -1.65301,3.1354 -0.59544,0.5861 -1.20079,0.4821 -1.702,0.9027 -0.59719,0.5011 -2.52426,0.635 -2.52426,0.635 0,0 2.40563,1.4733 3.06953,2.651 1.22779,2.178 -0.21175,4.637 0.97667,6.8367 0.42233,0.7817 1.39524,1.2557 1.39524,1.2557 0,0 -1.09535,0.9437 -2.09286,0.6977 -0.91432,-0.2255 -1.95333,-0.5582 -1.95333,-0.5582 0,0 1.83837,2.1749 1.95333,4.0462 0.13294,2.1639 -2.31541,3.8405 -2.51143,5.9996 -0.13774,1.5172 0.97667,4.4647 0.97667,4.4647 0,0 -1.40147,-0.4423 -2.09287,-0.9766 -0.57483,-0.4442 -1.67429,-1.8138 -1.67429,-1.8138 l 0.5581,3.0695 c 0.26792,1.4735 -2.67789,2.4267 -2.93001,4.1858 -0.1623,1.1323 0.83715,2.3718 0.83715,2.3718 0,0 -2.68691,-0.6039 -3.76716,-1.3952 -0.85555,-0.6267 -1.95334,-2.5114 -1.95334,-2.5114 0,0 -0.98034,2.5757 -1.81381,3.4881 -0.93382,1.0222 -2.91146,1.5184 -4.50587,2.2654 -2.71856,1.2737 -5.1213,2.4784 -5.1213,2.4784 0,0 0.48378,-1.7913 0.27905,-2.7905 -0.31712,-1.5478 -2.47036,-3.2078 -3.20906,-4.6043 -0.74728,-1.4129 0,-3.3486 0,-3.3486 0,0 -1.77356,1.6922 -3.06953,1.9534 -1.42197,0.2866 -4.17239,-0.6781 -4.17239,-0.6781 l 0,-5e-4 z"/>
        <path class="body" d="m 673.86918,366.53764 c 0,0 2.40563,1.4733 3.06953,2.651 1.22779,2.178 -0.21175,4.637 0.97667,6.8367 0.42233,0.7817 1.39524,1.2557 1.39524,1.2557 0,0 -1.09535,0.9437 -2.09286,0.6977 -0.91432,-0.2255 -1.95333,-0.5582 -1.95333,-0.5582 0,0 1.83837,2.1749 1.95333,4.0462 0.13294,2.1639 -2.31541,3.8405 -2.51143,5.9996 -0.13774,1.5172 0.97667,4.4647 0.97667,4.4647 0,0 -1.40147,-0.4423 -2.09287,-0.9766 -0.57483,-0.4442 -1.67429,-1.8138 -1.67429,-1.8138 l 0.5581,3.0695 c 0.26792,1.4735 -2.67789,2.4267 -2.93001,4.1858 -0.1623,1.1323 0.83715,2.3718 0.83715,2.3718 0,0 -2.68691,-0.6039 -3.76716,-1.3952 -0.85555,-0.6267 -1.95334,-2.5114 -1.95334,-2.5114 0,0 -0.98034,2.5757 -1.81381,3.4881 -0.93382,1.0222 -2.91146,1.5184 -4.50587,2.2654 -2.71856,1.2737 -5.1213,2.4784 -5.1213,2.4784 0,0 0.48378,-1.7913 0.27905,-2.7905 -0.31712,-1.5478 -2.47036,-3.2078 -3.20906,-4.6043 -0.74728,-1.4129 0,-3.3486 0,-3.3486 0,0 -1.77356,1.6922 -3.06953,1.9534 -1.42197,0.2866 -4.17239,-0.6781 -4.17239,-0.6781 l 2.53431,-1.1071 c 0.71709,-0.3133 0.45955,-1.5392 0.73477,-2.2297 0.31415,-0.7881 1.7199,-1.8763 1.7199,-1.8763 l -3.33283,-0.1075 c 0,0 2.41658,-1.1546 2.58025,-2.7953 0.0415,-0.4159 -0.1105,-1.7323 -0.1075,-2.1502 0.009,-1.4321 1.28122,-2.6458 2.47275,-3.4403 0.7549,-0.5034 2.79516,-0.7064 3.22532,-1.5052 l 0.75258,-1.3976 c 0,0 0.45323,0.92541 0.41418,1.73128 -0.0385,0.79369 -0.17357,1.71866 -0.75384,2.26153 -0.72694,0.68009 -3.8959,1.24425 -3.89484,2.26152 10e-4,1.32935 0.008,1.77554 -0.37693,3.01536 l 3.01537,-1.00512 c 0,0 -2.40526,3.30833 -3.14101,4.89997 -0.21378,0.46247 -0.25128,1.50768 -0.25128,1.50768 0,0 1.68195,-1.69244 2.70519,-2.2777 0.75055,-0.42929 5.71271,-5.51199 5.71271,-5.51199 0,0 -4.71683,8.22179 -4.27177,9.92558 0.39942,1.52907 2.01914,2.51918 2.5128,4.02048 0.17057,0.51873 0.12564,1.63333 0.12564,1.63333 0,0 4.04159,-1.59268 5.40253,-3.01537 1.83323,-1.9164 2.88973,-11.30762 2.88973,-11.30762 0,0 1.75558,7.74251 2.88972,9.17174 0.33134,0.41755 1.13077,1.13076 1.13077,1.13076 0,0 1.49301,-2.26561 1.8846,-3.64357 0.74844,-2.63366 -2.13588,-14.0717 -2.13588,-14.0717 l 5.27689,9.17174 c 0,0 -0.0716,-2.34673 0.37692,-3.39229 0.41015,-0.95601 0.8619,-1.35679 1.00512,-2.38716 0.32257,-2.32073 -3.64357,-9.54867 -3.64357,-9.54867 l 5.65381,4.14614 c 0,0 -0.30178,-3.55854 -0.75384,-5.27689 -0.35668,-1.35577 -1.53106,-3.91713 -1.53106,-3.91713 z"/>
        <path class="outline" d="m 673.86918,366.5376 c 0,0 2.40563,1.4733 3.06953,2.651 1.22779,2.178 -0.21175,4.637 0.97667,6.8367 0.42233,0.7817 1.39524,1.2557 1.39524,1.2557 0,0 -1.09535,0.9437 -2.09286,0.6977 -0.91432,-0.2255 -1.95333,-0.5582 -1.95333,-0.5582 0,0 1.83837,2.1749 1.95333,4.0462 0.13294,2.1639 -2.31541,3.8405 -2.51143,5.9996 -0.13774,1.5172 0.97667,4.4647 0.97667,4.4647 0,0 -1.40147,-0.4423 -2.09287,-0.9766 -0.57483,-0.4442 -1.67429,-1.8138 -1.67429,-1.8138 l 0.5581,3.0695 c 0.26792,1.4735 -2.67789,2.4267 -2.93001,4.1858 -0.1623,1.1323 0.83715,2.3718 0.83715,2.3718 0,0 -2.68691,-0.6039 -3.76716,-1.3952 -0.85555,-0.6267 -1.95334,-2.5114 -1.95334,-2.5114 0,0 -0.98034,2.5757 -1.81381,3.4881 -0.93382,1.0222 -2.91146,1.5184 -4.50587,2.2654 -2.71856,1.2737 -5.1213,2.4784 -5.1213,2.4784 0,0 0.48378,-1.7913 0.27905,-2.7905 -0.31712,-1.5478 -2.47036,-3.2078 -3.20906,-4.6043 -0.74728,-1.4129 0,-3.3486 0,-3.3486 0,0 -1.77356,1.6922 -3.06953,1.9534 -1.42197,0.2866 -4.17239,-0.6781 -4.17239,-0.6781 l 0,4e-5 2.53431,-1.1071 c 0.71709,-0.3133 0.45955,-1.5392 0.73477,-2.2297 0.31415,-0.7881 1.7199,-1.8763 1.7199,-1.8763 l -3.33283,-0.1075 c 0,0 2.41658,-1.1546 2.58025,-2.7953 0.0415,-0.4159 -0.1105,-1.7323 -0.1075,-2.1502 0.009,-1.4321 1.28122,-2.6458 2.47275,-3.4403 0.7549,-0.5034 2.79516,-0.7064 3.22532,-1.5052 l 0.86962,-1.28056 c 0,0 -1.0934,0.72286 -2.0835,0.85056 -0.96556,0.1245 -2.47275,-0.3226 -2.47275,-0.3226 l 2.15022,-2.0426 c 0.3378,-0.3209 -0.23201,-1.7014 -0.10751,-2.1503 0.22601,-0.815 1.93519,-1.1826 1.93519,-1.1826 0,0 3.80188,0.55303 5.37842,-0.37787 1.50452,-0.8883 2.06921,-2.34266 1.57471,-3.86716 l -0.33462,-1.0316 c -0.41915,-1.29219 -4.98876,-0.13626 -6.33521,0.044 -1.18091,0.1581 -2.5581,-0.3781 -3.17948,-1.3946 -1.15458,-1.8889 -0.19242,-3.4173 0,-5.3062 4.58324,-0.65831 4.07678,-0.16557 7.24672,-0.32541 6.2312,-6.04316 12.8733,-0.0468 16.60069,-2.08939 l 2.31102,-1.13985 c 0.69112,1.70358 -0.0744,2.70112 -0.87058,4.11532 3.44399,-0.35542 3.57754,0.44916 4.19445,0.87055 0,0 -0.49708,2.03007 -1.42453,3.16563 -1.08779,1.33188 -4.45835,1.58894 -4.45835,1.58894 l 3e-5,0 z"/>
        <path class="highlight high" d="m 662.2557,380.4072 c 0,0 -5.72594,6.1513 -5.74552,9.6482 -0.006,1.1341 1.17493,2.0167 1.30087,3.1438 0.1425,1.2752 -0.65043,3.7942 -0.65043,3.7942 0,0 2.51825,-2.559 2.60175,-4.011 0.0728,-1.2668 -0.94483,-2.4173 -0.97566,-3.6858 -0.0772,-3.1765 3.46899,-8.8894 3.46899,-8.8894 z"/>
        <path class="highlight high" d="m 653.3664,385.5023 c 0,0 2.20972,-1.0925 2.60175,-1.8429 0.38626,-0.7394 0.2931,-2.1264 0.75884,-2.8185 0.97442,-1.4481 3.25219,-2.3849 3.25219,-2.3849 0,0 -3.05985,0.1531 -4.22784,1.7345 -0.45083,0.6104 -0.37417,1.8617 -0.54203,2.6017 -0.2038,0.8984 -1.84291,2.7101 -1.84291,2.7101 z" />
        <path class="highlight high" d="m 667.79497,391.70283 c 0,0 -1.57899,-1.89294 -1.634,-2.73778 -0.0542,-0.83245 0.59204,-2.06324 0.44604,-2.88458 -0.30542,-1.71849 -2.00962,-3.49656 -2.00962,-3.49656 0,0 2.73644,1.37767 3.16498,3.29637 0.1654,0.74059 -0.41083,1.85395 -0.55664,2.59861 -0.177,0.90407 0.58924,3.22394 0.58924,3.22394 z" />
        <path class="highlight high" d="m 672.70787,383.48752 c 0,0 -1.85242,-1.62634 -2.03726,-2.45254 -0.18213,-0.81409 0.26625,-2.12993 -0.005,-2.91886 -0.56719,-1.65069 -2.52558,-3.1442 -2.52558,-3.1442 0,0 2.91639,0.93847 3.63615,2.76796 0.27781,0.70615 -0.11954,1.89515 -0.14858,2.6534 -0.0352,0.92056 1.08013,3.09424 1.08013,3.09424 z" />
        <!-- eye -->
        <g class="eye" transform="matrix(-0.99962616,0.02734107,0.02734107,0.99962616,1331.9854,556.10776)" >
          <path class="white" d="m 932.78865,583.0728 c 0,0.91155 -1.03912,1.89502 -2.39674,1.89502 -1.35763,0 -2.21238,-0.73895 -2.21238,-1.6505 0,-0.91155 0.85475,-1.40598 2.21238,-1.40598 1.35762,0 2.39674,0.24991 2.39674,1.16146 z" transform="matrix(1.1428571,0,0,1.1489362,-398.53239,-883.00507)"/>
          <path class="pupil" d="m 931.09428,582.82568 a 0.94816118,0.94816118 0 1 1 -1.89632,0 0.94816118,0.94816118 0 1 1 1.89632,0 z" transform="matrix(1.1111111,0,0,1.1111111,-368.51231,-860.46502)" />
          <path class="outline" d="m 664.78125,-214.6875 c -0.8063,0 -1.50329,0.15935 -2,0.46875 -0.49671,0.3094 -0.78125,0.80487 -0.78125,1.40625 0,0.60138 0.2906,1.14697 0.78125,1.53125 0.49065,0.38428 1.17862,0.625 2,0.625 1.67295,0 2.96875,-1.20119 2.96875,-2.4375 0,-0.61815 -0.39009,-1.05519 -0.9375,-1.28125 -0.54741,-0.22606 -1.24004,-0.3125 -2.03125,-0.3125 z m 0,0.5 c 0.76036,0 1.40949,0.10192 1.84375,0.28125 0.43426,0.17933 0.625,0.38334 0.625,0.8125 0,0.85833 -1.03856,1.9375 -2.46875,1.9375 -0.73019,0 -1.30183,-0.19795 -1.6875,-0.5 -0.38567,-0.30205 -0.59375,-0.71032 -0.59375,-1.15625 0,-0.44593 0.18289,-0.76354 0.5625,-1 0.37961,-0.23646 0.97348,-0.375 1.71875,-0.375 z"/>
        </g>
        <!-- jaw  -->
        <path class="body" d="m 651.3212,373.909 c 0,0 1.18877,1.005 1.92092,1.1154 1.08998,0.1643 2.12698,-0.6189 3.22219,-0.7436 1.66231,-0.1893 3.39206,0.3894 5.01918,0 1.46434,-0.3504 3.08345,-0.872 4.02774,-2.0448 1.28505,-1.596 1.54913,-5.9487 1.54913,-5.9487 l 0.61966,0.6816 0.24786,3.0363 -0.68162,3.2842 -2.41664,2.1687 -2.8504,0.9295 -3.59399,-0.3098 -2.29271,0 -2.04485,1.0534 -2.41664,0.9295 -2.23075,-0.6816 1.92092,-1.859 0,-1.6111 z"/>
        <path class="outline" d="m 666.2944,365.399 c 0,0 0.27347,0.5374 0.5625,1.2188 0.28903,0.6814 0.5674,1.5174 0.625,2 0.16435,1.3769 0.14397,2.8716 -0.4375,4 -0.7477,1.4509 -2.0905,2.1891 -3.75,2.7812 -1.0449,0.3729 -2.22127,0.3195 -3.46875,0.2188 -1.24748,-0.1007 -2.55858,-0.2625 -3.875,0 -0.59782,0.1192 -1.25528,0.4506 -1.8125,0.75 -0.55722,0.2994 -1,0.5625 -1,0.5625 l 0.53125,0.8437 c 0,0 0.41432,-0.2501 0.9375,-0.5312 0.52318,-0.2811 1.17377,-0.585 1.53125,-0.6562 1.10993,-0.2214 2.35524,-0.0713 3.625,0.0312 1.26976,0.1025 2.58968,0.1773 3.875,-0.2812 1.74738,-0.6235 3.37199,-1.4856 4.28125,-3.25 0.73201,-1.4206 0.73799,-3.0923 0.5625,-4.5626 -0.0853,-0.7146 -0.62525,-2.25387 -1.30396,-2.63233 L 666.2944,365.399 z" />
        <!-- nose -->
        <path class="highlight" d="m 650.1536,360.248 -0.33526,2.5703 c 0,0 2.12518,-0.1785 2.95303,-0.5181 1.25653,-0.5154 1.93345,-2.3316 1.93345,-2.3316 l -4.55122,0.2794 z" />
        <!-- head -->
        <path class="highlight high" d="m 659.1392,358.6152 2.27653,-0.75395 2.16813,-0.4795 4.5725,0.47062 4.73973,0.71541 3.79414,-1.57608 c -1.61567,-0.0576 -0.41381,-0.0923 -0.39781,0.6 0.013,0.56338 -1.05334,2.1386 -2.67728,2.52329 -1.8007,0.42655 -6.15423,-0.77076 -10.08749,-0.81279 -2.5684,-0.0274 -4.9576,0.80209 -6.33975,0.86025 l 1.9513,-1.54725 z"/>
        <!-- ear -->
        <path class="ear" d="m 672.20949,364.74843 c 1.55412,-2.78687 3.38303,-3.05695 6.28879,-2.63142 -0.98149,2.06777 -2.35483,4.38465 -6.28879,2.63142 z"/>
      </g>
    </g>
  </g>
</svg>
