<?xml version="1.0" encoding="UTF-8" standalone="no"?>
<svg xmlns="http://www.w3.org/2000/svg" xmlns:svg="http://www.w3.org/2000/svg" width="36.706" height="39.128">
  <path class="body outline" d="M -7.5323 7.6434 s -1.1037 -0.8446 -1.0911 -1.3042 c 0.0039 -0.1428 0.1683 -0.1994 0.2222 -0.3317 c 0.0638 -0.1567 0.0876 -0.322 -0.0154 -0.4562 c -0.1633 -0.2127 -0.5883 -0.1592 -0.8499 -0.1 c -0.3492 0.0791 -0.9354 0.6182 -0.9354 0.6182 l -0.1367 0.8852 l 1.2381 1.1176 l 1.5681 -0.4288 z"/>
  <path class="body outline" d="M 5.2668 10.0629 s -3.6695 -0.6147 -5.2553 -0.5803 c -0.3785 0.0082 -0.9158 0.0094 -1.2471 0.1927 c -0.2903 0.1606 -0.5772 0.5385 -0.7239 0.836 c -0.1627 0.33 -0.4029 0.8682 -0.2466 1.2012 c 0.1428 0.3043 0.9882 0.528 0.9882 0.528 s -0.8048 0.2501 -1.1359 0.1569 c -0.2445 -0.0689 -0.5157 -0.3241 -0.6549 -0.5365 c -0.1046 -0.1596 -0.1731 -0.6121 -0.1731 -0.6121 s -0.3198 0.3156 -0.5179 0.3574 c -0.2636 0.0555 -0.8362 -0.0505 -0.8362 -0.0505 s 0.253 -0.2237 0.3479 -0.3207 c 0.1617 -0.1651 0.3142 -0.3958 0.3698 -0.6201 c 0.0336 -0.1356 -0.1195 -0.4501 -0.1195 -0.4501 s -0.0749 0.276 -0.1352 0.3814 c -0.1288 0.225 -0.3467 0.5089 -0.5564 0.6613 c -0.1182 0.086 -0.3571 0.0717 -0.4514 0.1834 c -0.1262 0.1496 -0.2169 0.219 -0.1723 0.4096 c 0.0341 0.146 0.0843 0.3356 0.2247 0.3881 c 0.0916 0.0343 0.2971 0.127 0.3843 0.0824 c 0.0725 -0.0371 0.2524 -0.0993 0.2524 -0.0993 s -0.1074 0.2838 -0.3018 0.4508 c -0.1056 0.0907 -0.2825 0.0997 -0.3773 0.1184 c -0.0491 0.0097 -0.2398 0.0806 -0.434 -0.0361 c -0.1889 -0.1135 -0.347 -0.3181 -0.3737 -0.3588 c 0 0 -0.2755 -0.3221 -0.3232 -0.4922 c -0.0731 -0.2607 -0.0412 -0.641 0.0308 -0.902 c 0.0401 -0.1455 0.2097 -0.2934 0.2431 -0.4406 c 0.0277 -0.122 -0.058 -0.2959 -0.0241 -0.4164 c 0.0375 -0.1332 0.0313 -0.127 0.0313 -0.127 s 0.071 0.1061 -0.0507 0.3026 c -0.1348 0.2177 -0.5104 0.7742 -0.5104 0.7742 l -0.3466 -0.5039 l -0.0465 -0.5098 s -0.019 -0.1716 0.0323 -0.2088 c 0.0549 -0.0399 0.1615 0.0642 0.2233 0.0362 c 0.1529 -0.0693 0.1352 -0.3814 0.1352 -0.3814 s -0.002 0.3072 -0.1575 0.3767 c -0.0567 0.0254 -0.1589 -0.0688 -0.2053 -0.0275 c -0.1676 0.1495 -0.0492 0.4001 0.0141 0.7484 c 0.0461 0.2531 0.1697 0.5045 0.0915 0.657 c -0.0706 0.1377 -0.4526 0.2474 -0.4526 0.2474 l -1.1441 -0.4055 s -0.3432 -0.3295 -0.3741 -0.5189 c -0.0498 -0.3057 0.1328 -1.1012 0.1328 -1.1012 l -0.0797 -0.0175 l -0.4888 0.4707 s 0.0181 0.7069 -0.2076 0.8279 c -0.1605 0.086 -0.572 -0.2028 -0.572 -0.2028 l -1.0379 -0.9474 s -0.0599 -0.3748 0.0097 -0.5117 c 0.1052 -0.2071 0.6167 -0.4682 0.6167 -0.4682 l -0.5069 -0.2655 s -0.6352 0.3274 -0.9003 0.2389 c -0.1294 -0.0432 -0.2261 -0.2324 -0.2812 -0.3572 c -0.1064 -0.2411 -0.1436 -0.8665 -0.1436 -0.8665 l 0.9558 -1.4856 s 0.3623 -0.0436 0.4791 0.041 c 0.247 0.1789 0.3982 0.9353 0.3982 0.9353 s 0.9236 0.5234 1.3649 0.5696 c 0.4679 0.049 1.0717 -0.2585 1.5411 -0.2908 c 0.3161 -0.0217 0.7476 -0.0257 1.0548 0.0519 c 0.1124 0.0284 0.2586 0.0936 0.3488 0.1665 c 0.1911 0.1546 0.3807 0.4342 0.4996 0.6493 c 0.1147 0.2074 0.1371 0.5475 0.2739 0.741 c 0.071 0.1003 0.315 0.2619 0.315 0.2619 s -0.4522 -0.7147 -0.6203 -1.0355 c -0.2072 -0.3954 -0.3456 -0.9988 -0.6143 -1.3553 c -0.0821 -0.1089 -0.2926 -0.1691 -0.3464 -0.2945 c -0.1022 -0.2383 -0.0598 -0.6272 0.0483 -0.8629 c 0.017 -0.037 0.097 -0.0534 0.0978 -0.0941 c 0.0028 -0.1493 -0.275 -0.2267 -0.3451 -0.3584 c -0.1576 -0.2958 -0.2533 -0.7575 -0.2353 -1.0922 c 0.0157 -0.291 0.0949 -0.7205 0.3053 -0.922 c 0.1666 -0.1596 0.5091 -0.211 0.7398 -0.21 c 0.3282 0.0014 1.0499 0.3078 1.0499 0.3078 s -0.5499 0.0789 -0.7398 0.21 c -0.1359 0.0938 -0.3006 0.2789 -0.3283 0.4417 c -0.0152 0.0898 0.0455 0.2105 0.0905 0.2896 c 0.1948 0.3422 0.8773 0.9763 0.8773 0.9763 s 0.8252 -0.2288 1.1887 -0.2655 c 0.4583 -0.0462 1.08 -0.0423 1.5351 0.029 c 0.2461 0.0386 0.5646 0.1449 0.7953 0.239 c 0.2782 0.1134 0.5878 0.4377 0.887 0.4646 c 0.1813 0.0163 0.4113 -0.1109 0.5793 -0.181 c 0.1823 -0.0761 0.4416 -0.1696 0.5817 -0.3089 c 0.1268 -0.1262 5.276 -1.8135 3.8025 -2.8124 l -3.0727 -2.0831 l 4.705 2.9061 l 2.1598 3.2445 l -2.935 3.836 z"/>
  <path class="outline" d="M -6.3397 5.2798 s 0.3132 0.1743 0.4597 0.2166 c 0.1344 0.0388 0.4627 0.0567 0.4627 0.0567"/>
  <path class="outline" d="M -4.9172 6.1703 s -0.2753 -0.1868 -0.412 -0.1997 c -0.1542 -0.0145 -0.3781 0.0369 -0.4983 0.1345 c -0.1282 0.1042 -0.2492 0.4911 -0.2492 0.4911"/>
  <path class="outline" d="M -4.8285 6.5558 s -0.3243 -0.0958 -0.447 -0.0404 c -0.182 0.082 -0.3132 0.3537 -0.3939 0.5363 c -0.0434 0.0981 -0.0706 0.3505 -0.0706 0.3505"/>
  <path class="outline" d="M -4.4708 7.0903 s -0.3758 -0.0176 -0.5128 0.0543 c -0.1267 0.0665 -0.2513 0.2318 -0.3107 0.362 c -0.0783 0.1716 -0.0917 0.622 -0.0917 0.622"/>
  <path class="outline" d="M -8.6726 9.4098 s 0.3055 -0.2386 0.4217 -0.3119 c 0.1582 -0.0999 0.6238 -0.0042 0.6238 -0.0042"/>
  <path class="outline" d="M -10.176 8.5658 s 0.1855 -0.1933 0.292 -0.2184 c 0.1466 -0.0346 0.4941 0.0893 0.4941 0.0893"/>
  <path class="claw outline" d="M -9.9237 6.0858 c -0.1449 -0.1229 -0.2024 -0.4006 -0.3329 -0.5386 c -0.1967 -0.2082 -0.7823 -0.5471 -0.7823 -0.5471 s 0.5001 -0.0696 0.7104 -0.0339 c 0.2547 0.0432 0.6138 0.1419 0.7983 0.3227 c 0.1418 0.1389 0.2769 0.4104 0.2606 0.6082 c -0.0106 0.1286 -0.1086 0.3235 -0.2316 0.3624 c -0.1307 0.0413 -0.3181 -0.0849 -0.4226 -0.1736 z"/>
  <path class="claw outline" d="M -11.4101 6.4725 c 0.1037 0.1011 0.2012 0.2793 0.2398 0.4204 c 0.0395 0.1442 0.0912 0.372 0.0102 0.5034 c -0.0517 0.0838 -0.1977 0.1308 -0.2938 0.1448 c -0.0687 0.01 -0.1623 -0.0132 -0.2245 -0.0403 c -0.1313 -0.0572 -0.2396 -0.2499 -0.379 -0.2864 c -0.1219 -0.0319 -0.304 0.0037 -0.4237 0.0528 c -0.1693 0.0695 -0.2597 0.0875 -0.3795 0.2273 c -0.0917 0.107 -0.2786 0.5249 -0.2786 0.5249 s -0.1755 -0.4974 -0.1564 -0.6981 c 0.0279 -0.2933 0.1456 -0.5734 0.371 -0.7717 c 0.1424 -0.1253 0.4004 -0.2002 0.5852 -0.228 c 0.228 -0.0342 0.5412 -0.0042 0.7584 0.0591 c 0.0563 0.0164 0.1295 0.0514 0.171 0.0919 z"/>
  <path class="claw outline" d="M -10.439 9.5041 c 0.0841 -0.0068 0.2021 0.0421 0.2625 0.1011 c 0.1489 0.1456 0.3071 0.4381 0.2643 0.6419 c -0.0325 0.1547 -0.2451 0.2822 -0.3794 0.3654 c -0.1998 0.1236 -0.5045 0.2363 -0.738 0.2625 c -0.216 0.0242 -0.7194 -0.0857 -0.7194 -0.0857 s 0.435 -0.2682 0.573 -0.4338 c 0.128 -0.1536 0.1628 -0.4495 0.2997 -0.5952 c 0.1041 -0.1109 0.2859 -0.2438 0.4375 -0.2561 z"/>
  <path class="claw outline" d="M -7.6872 10.7939 c 0.1866 -0.0312 0.4158 0.1873 0.5345 0.3346 c 0.1017 0.1261 0.126 0.2493 0.1124 0.4107 c -0.0178 0.2121 -0.1815 0.4858 -0.3482 0.6183 c -0.1035 0.0823 -0.2907 0.122 -0.423 0.1242 c -0.1556 0.0026 -0.2934 0.0385 -0.432 -0.0322 c -0.16 -0.0816 -0.4615 -0.3813 -0.4615 -0.3813 s 0.3919 -0.0037 0.5304 -0.0861 c 0.1506 -0.0896 0.3118 -0.2927 0.3572 -0.4619 c 0.0246 -0.0916 -0.0677 -0.2219 -0.0422 -0.3133 c 0.0222 -0.0792 0.0912 -0.1995 0.1723 -0.2131 z"/>
  <path class="body outline" d="M -11.4969 -14.6945 s 0.2507 -1.173 0.6317 -1.4606 c 0.116 -0.0875 0.2941 0.0162 0.4803 -0.063 c 0.2002 -0.0851 0.6492 -0.2418 0.6871 -0.4561 c 0.0387 -0.2192 -0.2875 -0.6839 -0.2875 -0.6839 s -0.6919 -0.4872 -1.0373 -0.5025 c -0.3763 -0.0167 -1.1742 0.4449 -1.1742 0.4449 l -0.1486 1.0233 l 0.8485 1.6979 z"/>
  <path class="body outline" d="M 2.3963 -9.1437 s -2.4604 6.0191 -7.1398 6.3052 c -0.86 0.0526 -2.0305 -0.3034 -2.7764 -0.7346 c -0.3762 -0.2175 -1.0198 -1.0289 -1.0198 -1.0289 s -0.6881 0.4268 -0.7911 0.7336 c -0.0756 0.2253 0.0418 0.5627 0.1381 0.78 c 0.1042 0.2353 0.525 0.6782 0.525 0.6782 s -0.7762 -0.156 -1.0249 -0.3678 c -0.2624 -0.2235 -0.454 -0.6763 -0.5553 -1.0057 c -0.0928 -0.3018 -0.0793 -0.5976 0.0504 -0.8855 c 0.0945 -0.2098 0.3984 -0.6446 0.3984 -0.6446 s -0.5372 -0.6888 -0.7469 -1.032 c -0.1838 -0.3008 -0.499 -1.0638 -0.499 -1.0638 s -0.2812 0.0922 -0.3809 0.1673 c -0.0892 0.0672 -0.1982 0.1818 -0.2378 0.2862 c -0.0565 0.1487 -0.1116 0.4021 -0.0171 0.5301 c 0.1001 0.1357 0.5422 0.1481 0.5422 0.1481 s -0.1794 0.2674 -0.3033 0.2922 c -0.2596 0.052 -0.6527 -0.1172 -0.8223 -0.3205 c -0.2542 -0.3045 -0.3165 -0.9066 -0.2519 -1.298 c 0.0392 -0.2377 0.234 -0.5209 0.3981 -0.6974 c 0.1684 -0.1811 0.6843 -0.4595 0.6843 -0.4595 s -0.4258 -0.3906 -0.519 -0.6127 c -0.0687 -0.1638 0.0085 -0.4234 -0.0544 -0.5895 c -0.0816 -0.2152 -0.4221 -0.3908 -0.4535 -0.6188 c -0.0928 -0.6733 0.7951 -2.1213 0.7951 -2.1213 s -0.5075 1.2442 -0.9866 1.4784 c -0.2157 0.1054 -0.7981 -0.0584 -0.7981 -0.0584 l -0.5734 -1.2022 s 0.0137 -0.4404 0.1481 -0.5422 c 0.3162 -0.2395 1.3222 0.0101 1.3222 0.0101 l -0.8757 -0.1834 l -0.0907 -0.9826 l 0.6903 -0.394 s -0.7874 0.509 -1.1488 0.4364 c -0.2057 -0.0414 -0.5069 -0.4817 -0.5069 -0.4817 l 0.1058 -1.0007 s 0.1707 -0.4686 0.3507 -0.4948 c 0.4835 -0.0705 1.2819 1.0047 1.2819 1.0047 l -0.7992 -0.785 l 0.2257 -0.4172 l 0.7871 0.654 l -0.7931 -0.7195 l -0.001 -0.7266 l 0.262 -0.0242 s -0.504 -0.0805 -0.6157 -0.2294 c -0.1308 -0.1744 -0.2006 -0.4347 -0.1021 -0.6292 c 0.1523 -0.3009 0.9859 -0.5314 0.9859 -0.5314 s 0.7808 -0.1033 0.9987 0.084 c 0.1851 0.1591 0.2665 0.393 0.257 0.6369 c -0.0079 0.203 -0.3188 0.602 -0.3188 0.602 s 0.3436 1.1646 0.5899 1.6191 c 0.287 0.5297 0.7847 1.175 1.2053 1.6063 c 0.3995 0.4098 1.0985 0.7719 1.4965 1.1831 c 0.6096 0.6299 1.3014 2.0191 1.7702 2.7598 c 0.596 0.9415 2.1322 1.8394 2.1322 1.8394 l 7.1243 -1.9592 l -0.0615 1.0073 z"/>
  <path class="outline" d="M -9.8062 -5.2238 s 0.3501 -0.405 0.4768 -0.5738 c 0.1031 -0.1373 0.2503 -0.317 0.3847 -0.424 c 0.0813 -0.0647 0.3022 -0.1692 0.3022 -0.1692"/>
  <path class="outline" d="M -11.0668 -7.403 s 0.303 -0.1478 0.4423 -0.1821 c 0.2049 -0.0504 0.5109 0.0281 0.7004 -0.0647 c 0.2282 -0.1117 0.4373 -0.4073 0.5786 -0.6185 c 0.0946 -0.1414 0.2349 -0.5161 0.2349 -0.5161"/>
  <path class="outline" d="M -11.5081 -8.7396 s 0.5146 -0.0439 0.7164 -0.2449"/>
  <path class="outline" d="M -11.5117 -11.5883 s 0.4168 1.5221 0.985 1.9368 c 0.401 0.2927 1.2473 0.3709 1.2473 0.3709"/>
  <path class="claw outline" d="M -10.9768 -17.3571 c 0.027 0.1481 0.132 0.3438 0.253 0.4332 c 0.0925 0.0683 0.2643 0.1239 0.3733 0.0873 c 0.1463 -0.0491 0.2834 -0.1142 0.3307 -0.261 c 0.1282 -0.3982 0.1453 -0.8944 -0.0265 -1.2758 c -0.13 -0.2887 -0.4454 -0.6353 -0.7391 -0.7535 c -0.1352 -0.0544 -0.2623 -0.1002 -0.4007 -0.0543 c -0.1391 0.0462 -0.4661 0.2256 -0.4661 0.2256 s 0.3291 0.0856 0.442 0.1722 c 0.1261 0.0969 0.2537 0.2802 0.3134 0.4276 c 0.0752 0.1856 0.0021 0.3347 -0.001 0.5349 c -0.0022 0.1411 -0.1042 0.325 -0.0789 0.4638 z"/>
  <path class="claw outline" d="M -14.6836 -18.4932 s 0.033 -0.5231 0.2377 -0.722 c 0.2062 -0.2003 0.5905 -0.3674 0.8775 -0.3854 c 0.1955 -0.0123 0.4676 0.0703 0.6259 0.1857 c 0.3025 0.2206 0.5669 0.5508 0.6625 0.9128 c 0.0401 0.1517 0.0789 0.3426 0.0144 0.4856 c -0.0742 0.1645 -0.2509 0.2641 -0.4304 0.2832 c -0.1285 0.0137 -0.3212 -0.1491 -0.4174 -0.2354 c -0.2479 -0.2222 -0.2475 -0.6978 -0.5363 -0.8636 c -0.0899 -0.0516 -0.2368 -0.0659 -0.3403 -0.0599 c -0.0926 0.0053 -0.2073 0.0618 -0.2962 0.0882 c -0.1333 0.0397 -0.3974 0.3106 -0.3974 0.3106 z"/>
  <path class="claw outline" d="M -14.2861 -14.8472 c 0.0913 -0.0259 0.2413 -0.039 0.2934 -0.1184 c 0.075 -0.1143 0.0521 -0.3345 -0.0116 -0.4555 c -0.0901 -0.171 -0.1817 -0.3106 -0.3682 -0.3617 c -0.1052 -0.0288 -0.5567 0.1056 -0.6556 0.1518 c -0.2457 0.1149 -0.3949 0.2534 -0.5014 0.5028 c -0.097 0.2272 -0.1106 0.5953 -0.0153 0.8232 c 0.0746 0.1783 0.3004 0.3459 0.4671 0.4438 c 0.1019 0.0599 0.3761 0.1175 0.3761 0.1175 s -0.2136 -0.4727 -0.1848 -0.683 c 0.0168 -0.1225 0.1088 -0.2843 0.2108 -0.3542 c 0.0977 -0.0671 0.2755 -0.0341 0.3895 -0.0664 z"/>
  <path class="claw outline" d="M -13.8218 -12.4553 c 0.114 -0.1012 0.3804 0.0079 0.4968 0.1063 c 0.123 0.104 0.2179 0.3392 0.1983 0.4991 c -0.022 0.1791 -0.2066 0.3801 -0.3505 0.4889 c -0.2023 0.1529 -0.5423 0.3031 -0.7953 0.2865 c -0.2693 -0.0177 -0.6213 -0.2102 -0.799 -0.4132 c -0.1917 -0.219 -0.3177 -0.6223 -0.3278 -0.9132 c -0.0044 -0.1266 0.1147 -0.4062 0.1147 -0.4062 s 0.1536 0.4067 0.2916 0.5209 c 0.1913 0.1584 0.5368 0.2599 0.7851 0.2623 c 0.1302 0.0013 0.3183 -0.371 0.3863 -0.4313 z"/>
  <path class="body outline" d="M -15.631 -3.9192 c 0.1266 -0.017 0.3075 0.0012 0.4217 0.0584 c 0.0907 0.0454 0.1902 0.1508 0.2379 0.2403 c 0.1276 0.2396 0.0707 0.6379 0.1784 0.8871 c 0.1752 0.4053 0.8521 1.2 0.8521 1.2 l -1.6957 0.1251 l -1.3447 -1.1321 l 0.1648 -0.6111 s 0.2832 -0.3417 0.4383 -0.4479 c 0.2012 -0.1377 0.5055 -0.2874 0.7471 -0.3198 z"/>
  <path class="body outline" d="M -15.6311 -3.9051 z"/>
  <path class="body outline" d="m -0.1998 -6.3328 l -6.5594 1.0104 l -6.8215 2.6978 l -1.9129 0.7964 l -0.5073 -0.3419 s -0.3549 -0.7174 -0.6318 -0.894 c -0.1852 -0.1181 -0.7205 -0.1309 -0.7205 -0.1309 l -0.6015 1.5241 s 0.0623 0.3877 0.1671 0.5099 c 0.1112 0.1295 0.5077 0.2571 0.5077 0.2571 l 0.5525 -0.2093 c 0.068 -0.0673 1.5911 0.1023 1.8508 0.2491 c 0.0627 0.0354 0.1999 -0.1031 0.1705 -0.1688 c -0.0321 -0.0717 -0.2767 0.0313 -0.4797 0.0248 c -0.2649 -0.0085 -0.4109 0.0711 -0.5312 0.058 c -0.4613 -0.0502 -0.472 0.0038 -0.8003 0.2198 c -0.1426 0.0938 -0.2571 0.5077 -0.2571 0.5077 l 1.1801 1.533 s 0.6653 0.1913 0.8906 0.0469 c 0.2646 -0.1696 0.2133 -0.7115 0.3867 -0.9737 c 0.129 -0.1952 0.3643 -0.6853 0.5542 -0.5487 c 0.1804 0.1298 -0.3864 0.2264 -0.5826 0.5305 c -0.241 0.3735 -0.146 0.9506 -0.146 0.9506 l 0.506 0.5964 s 1.1077 0.108 1.5275 -0.0772 c 0.0659 -0.0291 0.1604 -0.0975 0.1705 -0.1688 c 0.0211 -0.149 0.1945 -0.5836 0.0695 -0.7719 c -0.1542 -0.2324 -0.4509 -0.3716 -0.4509 -0.3716 s -0.0734 0.0264 0.0219 0.0085 c 0.2123 -0.0398 0.4482 0.3719 0.4482 0.3719 l 1.0219 -0.7584 s 0.0577 0.255 0.0358 0.3618 c -0.0373 0.1816 -0.2984 0.541 -0.2984 0.541 s 0.628 -0.0735 0.949 -0.2461 c 0.2378 -0.1278 0.6912 -0.4114 0.8132 -0.6522 c 0.0813 -0.1606 0.1998 -0.3093 0.1998 -0.3093 s 0.039 0.5509 -0.0752 0.8615 c -0.0686 0.1866 -0.3317 0.4466 -0.3317 0.4466 s 0.3615 0.0206 0.6712 -0.0458 c 0.2824 -0.0605 0.5115 -0.2069 0.5861 -0.2372 c 0.0146 -0.0059 0.3687 -0.1766 0.6113 -0.5913 c 0.2288 -0.3911 0.1073 -0.3768 0.3792 -0.5152 c 0.0698 -0.0355 0.0887 0.3042 0.0054 0.6536 c -0.0738 0.3099 -0.2477 0.6317 -0.2444 0.6411 c 0.343 -0.0413 1.3561 -0.3238 1.7692 -0.6056 c 0.6928 -0.4727 0.9805 -1.5397 1.1196 -1.4753 c 0.6022 0.279 2.1546 0.3187 2.6372 0.7744 c 0.4637 0.4379 1.6275 -0.2995 2.21 -0.0397 c 0.9336 0.4163 2.429 -4.2604 2.429 -4.2604 l -1.0472 -1.7723 l -1.4422 -0.0072 z"/>
  <path class="claw outline" d="M -15.3991 -3.3815 c 0.0202 -0.2795 -0.0971 -0.5713 -0.301 -0.7636 c -0.1753 -0.1653 -0.5213 -0.2308 -0.7607 -0.2578 c -0.2475 -0.0279 -0.6078 -0.0354 -0.826 0.0848 c -0.1142 0.0629 -0.1821 0.1401 -0.2172 0.2656 c -0.0332 0.1183 -0.0527 0.3808 -0.0527 0.3808 s 0.2112 -0.1564 0.3183 -0.1635 c 0.1611 -0.0107 0.3668 0.1004 0.5071 0.1804 c 0.1458 0.0831 0.2918 0.2626 0.43 0.3578 c 0.0969 0.0667 0.2269 0.1673 0.342 0.1922 c 0.1234 0.0267 0.3126 0.0314 0.4193 -0.036 c 0.0707 -0.0447 0.1349 -0.1572 0.1409 -0.2406 z"/>
  <path class="claw outline" d="M -16.7251 -2.3467 c -0.0403 0.1455 -0.2036 0.313 -0.3448 0.3666 c -0.1251 0.0475 -0.3224 0.0148 -0.4443 -0.0403 c -0.1572 -0.0711 -0.2571 -0.3315 -0.4171 -0.3958 c -0.1909 -0.0767 -0.4863 -0.0535 -0.6858 -0.0034 c -0.1307 0.0328 -0.299 0.1192 -0.3948 0.2139 c -0.1237 0.1223 -0.282 0.5066 -0.282 0.5066 s -0.0973 -0.7391 0.0305 -1.0159 c 0.1017 -0.2204 0.3834 -0.433 0.5997 -0.5431 c 0.1945 -0.099 0.4938 -0.1516 0.712 -0.1488 c 0.2033 0.0026 0.4809 0.0587 0.6597 0.1557 c 0.1706 0.0926 0.3728 0.2776 0.4677 0.4469 c 0.0687 0.1226 0.1369 0.3223 0.0993 0.4577 z"/>
  <path class="claw outline" d="M -15.7239 0.6049 c 0.127 -0.1552 0.1159 -0.3725 0.0154 -0.5461 c -0.1107 -0.1913 -0.3619 -0.4392 -0.5819 -0.4601 c -0.1589 -0.0151 -0.3139 0.2003 -0.446 0.2899 c -0.1628 0.1104 -0.3935 0.2421 -0.5353 0.3783 c -0.1451 0.1393 -0.3231 0.3495 -0.4091 0.5314 c -0.0518 0.1095 -0.1148 0.2746 -0.0909 0.3933 c 0.0345 0.1711 0.3406 0.4716 0.3406 0.4716 s -0.0607 -0.4009 0.0154 -0.5461 c 0.0683 -0.1303 0.2585 -0.2358 0.3952 -0.2901 c 0.2213 -0.088 0.5499 -0.0883 0.7879 -0.0976 c 0.1905 -0.0075 0.3879 0.0231 0.5087 -0.1245 z"/>
  <path class="claw outline" d="M -12.9987 1.6982 c 0.0706 0.2208 0.132 0.4531 0.0601 0.6734 c -0.0785 0.2408 -0.3632 0.5038 -0.5999 0.5939 c -0.1497 0.057 -0.3129 0.0914 -0.4702 0.0611 c -0.1657 -0.0318 -0.5325 -0.1805 -0.5325 -0.1805 s 0.2781 -0.1434 0.3822 -0.2267 c 0.1221 -0.0977 0.3036 -0.2325 0.3575 -0.3792 c 0.0698 -0.1898 -0.1198 -0.4898 -0.0347 -0.6733 c 0.0526 -0.1134 0.2074 -0.2378 0.3315 -0.2523 c 0.1322 -0.0155 0.3095 0.0877 0.4055 0.1798 c 0.0492 0.0472 0.0798 0.1388 0.1006 0.2037 z"/>
  <path class="body outline" d="M 4.1972 3.3383 c -0.4278 -0.1031 -1.035 0.0086 -1.4624 0.1129 c -0.2323 0.0567 -0.7336 0.3116 -0.7336 0.3116 s 0.5612 0.307 0.8125 0.4158 c 0.4979 0.2155 1.2431 0.3215 1.7027 0.6098 c 0.4072 0.2555 0.8424 0.7478 1.1427 1.123 c 0.3415 0.4268 0.9612 1.5479 0.9612 1.5479 s 0.1541 -2.1003 -0.3002 -2.8195 c -0.399 -0.6316 -1.3966 -1.1266 -2.1228 -1.3016 z"/>
  <path class="body outline" d="M 4.6906 16.2232 s -0.71 -0.5239 -0.8267 -0.8629 c -0.08 -0.2324 0.1661 -0.5839 0.0828 -0.8152 c -0.08 -0.2225 -0.3374 -0.4767 -0.561 -0.5537 c -0.1676 -0.0577 -0.5869 0.0684 -0.5869 0.0684 l -0.4864 1.116 l 0.3503 0.4496 l 0.7137 0.6407 l 1.3141 -0.043 z"/>
  <path class="body outline" d="M -3.9814 -7.2128 s -2.8982 5.7974 -2.3977 6.2333 c 0.4809 0.4189 3.2404 1.1403 3.8329 1.3765 c 0.9495 0.3785 2.9875 1.5313 3.9502 1.8751 c 0.724 0.2586 1.7049 0.833 2.3689 1.2206 c 0.7331 0.428 1.7963 1.0149 2.2261 1.7469 c 0.2661 0.4533 0.4039 1.2216 0.273 1.7307 c -0.1979 0.7701 -1.1467 1.3905 -1.6818 1.9787 c -0.0892 0.0981 -0.3804 0.0659 -0.6471 0.3903 c -0.2776 0.3376 -0.5323 1.0302 -0.7014 1.0383 c -0.2965 0.0143 -0.822 -0.3147 -0.822 -0.3147 s 0.0436 0.3882 0.2707 0.6698 c 0.181 0.2245 0.5402 0.3558 0.6396 0.3548 c 0.2478 -0.0024 0.5846 -0.147 0.6611 -0.1746 c 0.3895 -0.1401 0.9408 -1.0093 0.9408 -1.0093 s -1.0233 1.1276 -1.0426 1.7345 c -0.0085 0.2674 0.2207 0.4829 0.1761 0.7467 c -0.0481 0.2845 -0.1269 0.5896 -0.4142 0.6155 c -0.4184 0.0378 -0.972 -0.1295 -0.972 -0.1295 s 0.2423 0.4351 0.6373 0.6506 c 0.2458 0.1341 0.5484 0.1581 0.8109 0.0608 c 0.58 -0.2149 1.2653 -0.7741 1.6101 -1.2875 c 0.2019 -0.3007 0.3413 -1.158 0.3413 -1.158 s -0.6206 1.2864 -0.4871 1.8423 c 0.0928 0.3866 0.6461 0.8353 0.6461 0.8353 s -0.6977 0.2411 -1.0254 0.4514 c -0.517 0.3318 -1.2591 1.6147 -1.2591 1.6147 s -0.7907 -0.301 -1.0792 -0.5139 c -0.1888 -0.1393 -0.3042 -0.5102 -0.5296 -0.5756 c -0.1631 -0.0473 -0.5466 0.1465 -0.5466 0.1465 l -0.4082 1.6697 s 0.2104 0.4728 0.4009 0.5377 c 0.3203 0.1092 0.7291 -0.2716 1.0862 -0.3043 c 0.353 -0.0323 1.0714 0.1011 1.0714 0.1011 l -1.2889 0.7669 l -0.0669 0.5117 l 1.0093 0.9408 s 0.6657 -0.0827 0.8389 -0.2842 c 0.2376 -0.2763 0.2127 -1.1959 0.2127 -1.1959 s 0.239 0.269 0.3001 0.4607 c 0.0761 0.2388 -0.048 0.6764 -0.048 0.6764 l 0.4827 0.4499 l 0.9795 0.0929 s 0.4259 -0.2862 0.4499 -0.4827 c 0.0425 -0.347 -0.5653 -1.019 -0.5653 -1.019 l 1.0762 -0.145 l 0.1837 -0.8129 s 0.3132 1.0552 0.6821 1.2918 c 0.2366 0.1518 0.671 0.1469 0.9356 0.052 c 0.2209 -0.0792 0.5756 -0.5296 0.5756 -0.5296 s -0.4179 0.1565 -0.5905 0.1056 c -0.1554 -0.0458 -0.394 -0.2062 -0.3949 -0.3681 c -0.0018 -0.3065 0.7392 -0.7051 0.7392 -0.7051 s 0.6413 0.3633 0.9475 0.3912 c 0.2188 0.0199 0.5629 0.0049 0.7162 -0.1525 c 0.1637 -0.1681 0.1428 -0.769 0.1428 -0.769 s -0.1927 0.2969 -0.3729 0.3121 c -0.1829 0.0154 -0.5233 -0.069 -0.6006 -0.2354 c -0.1472 -0.3169 0.1717 -1.1521 0.1717 -1.1521 s 0.6811 0.2016 0.9869 0.054 c 0.121 -0.0584 0.3324 -0.2928 0.3592 -0.504 c 0.0403 -0.3174 -0.0196 -0.4723 -0.0196 -0.4723 s -0.1865 0.393 -0.4117 0.3809 c -0.2273 -0.0122 -0.5369 -0.1471 -0.6902 -0.3153 c -0.2603 -0.2856 -0.4285 -0.8296 -0.4247 -1.216 c 0.0045 -0.4679 0.2495 -0.9118 0.4102 -1.3513 c 0.0471 -0.1287 0.1573 -0.3562 0.1573 -0.3562 s 0.5037 0.4085 0.7813 0.493 c 0.1948 0.0593 0.6442 -0.0179 0.811 -0.1347 c 0.2492 -0.1746 0.4564 -0.6459 0.38 -0.9404 c -0.0635 -0.2445 -0.4398 -0.4453 -0.4398 -0.4453 s 0.0331 0.3945 0.0057 0.5683 c -0.0195 0.1234 -0.3401 0.1988 -0.4604 0.2324 c -0.0982 0.0274 -0.2277 -0.1004 -0.2857 -0.1843 c -0.2869 -0.4147 -0.274 -1.0711 -0.2158 -1.5719 c 0.0414 -0.3562 0.5139 -1.0792 0.5139 -1.0792 s 0.7466 0.5991 1.129 0.7243 c 0.2793 0.0915 0.4122 -0.3931 0.2679 -0.8244 c -0.1759 -0.5257 -0.6726 -1.029 -0.6726 -1.029 s -1.4437 -1.3575 -1.7395 -1.7795 c -0.8021 -1.1447 -1.0655 -2.1938 -1.9661 -3.2628 c -0.3481 -0.4131 -0.9443 -1.0661 -1.3296 -1.4447 c -0.6547 -0.6435 -1.7688 -1.5473 -2.3765 -2.2354 c -1.0282 -1.1644 -3.3476 -3.8176 -3.3476 -3.8176 l -1.1175 -1.7288 l -4.7505 -0.1148 z"/>
  <path class="outline" d="M 11.9518 8.3717 s -0.273 -0.6626 -0.4617 -0.953 c -0.1667 -0.2564 -0.5759 -0.4407 -0.7457 -0.6951 c -0.1424 -0.2133 -0.2986 -0.8009 -0.2986 -0.8009"/>
  <path class="outline" d="M 9.5567 6.9232 s 0.4033 0.542 0.457 0.8179 c 0.0811 0.4166 -0.2376 0.9186 -0.2411 1.343 c -0.0023 0.2778 0.0779 0.5893 0.0331 0.8097 c -0.0382 0.1881 -0.2243 0.5992 -0.2243 0.5992 s 0.4414 -0.2186 0.601 -0.4002 c 0.0616 -0.0701 0.4598 -0.503 0.4598 -0.503 s -0.1398 1.0123 -0.0177 1.4206 c 0.0365 0.1222 0.2378 0.3523 0.2378 0.3523"/>
  <path class="outline" d="M 9.7065 14.0259 s 0.1405 0.4931 0.2532 0.679 c 0.0955 0.1577 0.411 0.4569 0.411 0.4569"/>
  <path class="outline" d="M 9.1722 16.9491 s 0.2531 -0.5202 0.2917 -0.7618 c 0.0427 -0.2678 0.0355 -0.6438 -0.0445 -0.9029 c -0.0298 -0.0964 -0.1757 -0.2868 -0.1757 -0.2868"/>
  <path class="outline" d="M 8.3735 15.2447 s 0.262 0.5218 0.2436 0.7685 c -0.0273 0.3642 -0.3091 0.7957 -0.4055 1.148 c -0.0487 0.1778 -0.1292 0.4188 -0.1189 0.6029 c 0.0079 0.1425 0.1433 0.4536 0.1433 0.4536"/>
  <path class="outline" d="M 7.4682 17.0345 s 0.1656 -0.8981 0.1906 -1.1022 c 0.0209 -0.171 -0.0688 -0.5071 -0.0688 -0.5071"/>
  <path class="outline" d="m 3.8942 -2.3607 l -0.6657 0.9667"/>
  <path class="outline" d="m 4.3531 -1.8882 l -0.5779 0.7156"/>
  <path class="outline" d="m 4.6915 -1.3829 l -0.3061 0.5547"/>
  <path class="outline" d="m 5.0575 -0.9816 l -0.328 0.5261"/>
  <path class="outline" d="m 7.7911 13.8647 l -0.566 0.125 l -0.8798 -0.1479 s -0.0401 0.2068 -0.0028 0.3393 c 0.0239 0.0847 0.1283 0.229 0.2084 0.2655 c 0.1493 0.0679 0.3726 0.1385 0.5348 0.1139 c 0.0811 -0.0123 0.2386 -0.1337 0.2386 -0.1337"/>
  <path class="outline" d="M 7.1738 10.7364 s -0.3497 0.5257 -0.3671 0.7851 c -0.0163 0.2422 0.1232 0.5603 0.2416 0.7723 c 0.1017 0.182 0.208 0.3444 0.401 0.4235 c 0.1691 0.0693 0.6625 0.0539 0.6625 0.0539 s -0.4255 0.2687 -0.6333 0.2882 c -0.274 0.0258 -0.6575 -0.0723 -0.8913 -0.2175 c -0.1526 -0.0947 -0.3004 -0.3 -0.385 -0.4584 c -0.1138 -0.213 -0.2245 -0.7729 -0.2245 -0.7729"/>
  <path class="outline" d="M 5.2632 10.8121 s -0.4076 0.4753 -0.4546 0.7367 c -0.0367 0.2041 0.0648 0.4789 0.0412 0.6849 c -0.0221 0.1933 -0.0709 0.3945 -0.1515 0.5716 c -0.0863 0.1896 -0.4399 0.7362 -0.4399 0.7362"/>
  <path class="outline" d="M 10.9603 7.7959 s 0.0541 0.6706 0.0006 0.9508 c -0.0574 0.3005 -0.3765 0.9476 -0.3765 0.9476"/>
  <path class="outline" d="M 0.3649 0.2334 s 0.4338 0.3743 0.5717 0.5494 c 0.0801 0.1018 0.4296 0.6135 0.4296 0.6135"/>
  <path class="outline" d="M 1.4737 0.7189 s 0.5877 0.5538 0.7737 0.7937 c 0.098 0.1264 0.3162 0.5621 0.3162 0.5621"/>
  <path class="outline" d="M 2.511 1.1908 s 0.4331 0.5465 0.5898 0.8002 c 0.1127 0.1824 0.3248 0.6367 0.3248 0.6367"/>
  <path class="outline" d="M 3.6364 1.8642 s 0.304 0.3709 0.4081 0.5474 c 0.0972 0.1648 0.2235 0.3937 0.2631 0.5809 c 0.0385 0.1819 -0.0049 0.6199 -0.0049 0.6199"/>
  <path class="claw outline" d="M 3.1367 14.4385 c -0.0061 -0.1964 -0.2388 -0.4056 -0.3991 -0.5192 c -0.1886 -0.1337 -0.2868 -0.1738 -0.5154 -0.2086 c -0.1995 -0.0303 -0.4881 -0.071 -0.6724 0.0109 c -0.1967 0.0875 -0.4893 0.525 -0.4893 0.525 s 0.6366 -0.106 0.8998 -0.0443 c 0.286 0.067 0.3635 0.3408 0.638 0.4455 c 0.0992 0.0378 0.2468 0.116 0.3455 0.0767 c 0.0962 -0.0383 0.1963 -0.1826 0.1931 -0.2861 z"/>
  <path class="claw outline" d="M 1.9615 15.3195 c 0.1398 0.1419 0.2393 0.1732 0.2416 0.3724 c 0.002 0.1737 -0.1068 0.4371 -0.2611 0.517 c -0.0928 0.048 -0.2432 -0.0261 -0.3446 -0.0514 c -0.1707 -0.0426 -0.377 -0.1877 -0.5528 -0.1964 c -0.1476 -0.0073 -0.3508 0.0434 -0.4782 0.1184 c -0.1021 0.06 -0.2095 0.1865 -0.2691 0.2887 c -0.0631 0.1081 -0.0346 0.2359 -0.0636 0.3577 c -0.009 0.0378 -0.2243 -0.2098 -0.2792 -0.3583 c -0.0568 -0.1536 -0.0748 -0.3868 -0.0318 -0.5448 c 0.0615 -0.2263 0.241 -0.3388 0.4142 -0.497 c 0.1634 -0.1493 0.3998 -0.1374 0.6155 -0.1867 c 0.2197 -0.0502 0.5335 -0.0246 0.7503 0.0371 c 0.0854 0.0243 0.1966 0.08 0.2589 0.1432 z"/>
  <path class="claw outline" d="M 2.9122 18.1678 s 0.3611 0.0949 0.4889 0.1859 c 0.0707 0.0504 0.1115 0.089 0.133 0.1731 c 0.0456 0.178 0.0011 0.4614 -0.1185 0.6008 c -0.1615 0.1882 -0.539 0.2124 -0.7772 0.2812 c -0.1635 0.0472 -0.5018 0.17 -0.5018 0.17 s 0.3373 -0.9734 0.4527 -1.1304 c 0.1384 -0.1882 0.3024 -0.273 0.3229 -0.2806 z"/>
  <path class="claw outline" d="M 6.2775 18.9255 c 0.1175 0.054 0.2516 0.188 0.3028 0.3067 c 0.0633 0.1468 0.0819 0.3857 0.0187 0.5325 c -0.0876 0.2037 -0.3564 0.3887 -0.5541 0.4892 c -0.2622 0.1333 -0.9574 0.2114 -0.9574 0.2114 s 0.3264 -0.3338 0.4395 -0.4978 c 0.0697 -0.1011 0.1787 -0.24 0.1904 -0.3621 c 0.0143 -0.1489 -0.1777 -0.3317 -0.1437 -0.4774 c 0.022 -0.0944 0.1301 -0.2007 0.2202 -0.2362 c 0.1353 -0.0533 0.3514 -0.0269 0.4836 0.0338 z"/>
  <path class="outline" d="m 12.2917 8.5664 l -0.5769 -0.7587"/>
  <path class="body outline" d="M 12.9039 7.4754 s 0.3646 0.3212 0.8004 0.3138 c 0.3784 -0.0064 0.8514 -0.3689 1.059 -0.6852 c 0.1248 -0.1901 0.2686 -1.456 0.1869 -1.7442 c -0.106 -0.3741 -0.4777 -0.892 -0.7475 -1.059 c -0.2698 -0.1671 -0.5724 -0.188 -0.8098 -0.1246 c -0.1156 0.0309 -0.2251 0.1664 -0.3115 0.2492 c -0.0652 0.0624 -0.1927 0.1366 -0.1978 0.2267 c -0.003 0.0527 0.0628 0.1074 0.1002 0.1447 c 0.1378 0.1373 0.5344 0.3674 0.5344 0.3674 s -0.4938 0.2386 -0.7125 0.2004 c -0.1981 -0.0346 -0.4535 -0.2108 -0.5455 -0.3897 c -0.1192 -0.2316 -0.0923 -0.6248 0 -0.8684 c 0.0821 -0.2168 0.3155 -0.456 0.5121 -0.5789 c 0.2116 -0.1323 0.8016 -0.2227 0.8016 -0.2227 s -0.9064 0.1219 -1.2803 0.0334 c -0.317 -0.0751 -0.715 -0.2946 -0.9574 -0.5121 c -0.1234 -0.1108 -0.2734 -0.2951 -0.3117 -0.4565 c -0.0467 -0.1967 -0.009 -0.4912 0.0891 -0.668 c 0.0967 -0.1743 0.3186 -0.3754 0.5121 -0.4231 c 0.1889 -0.0465 0.467 0.0348 0.6346 0.1336 c 0.1408 0.083 0.3563 0.4119 0.3563 0.4119 s -0.3207 -0.0593 -0.4453 -0.0111 c -0.0991 0.0383 -0.2533 0.1387 -0.2561 0.2449 c -0.0041 0.1559 0.2249 0.2945 0.3563 0.3785 c 0.1513 0.0967 0.5678 0.1893 0.5678 0.1893 l 0.7014 -0.0223 l 0.5566 0.0779 s -0.6556 -1.4009 -0.9298 -1.9308 c -0.1565 -0.3025 -0.3925 -1.0859 -0.4899 -1.4123 c -0.129 -0.4327 -0.0965 -0.4814 -0.2392 -0.9098 c -0.1645 -0.4937 -0.4584 -1.167 -0.8461 -1.5141 c -0.2242 -0.2007 -0.719 -0.4171 -1.0092 -0.4962 c -0.2438 -0.0664 -0.5014 -0.0513 -0.7498 -0.0048 c -0.191 0.0357 -0.4577 0.1516 -0.5678 0.3117 c -0.126 0.1833 -0.1746 0.5251 -0.1002 0.7348 c 0.0245 0.069 0.1155 0.1291 0.1781 0.167 c 0.1301 0.0788 0.3275 0.151 0.4787 0.167 c 0.2142 0.0227 0.5171 0.0017 0.7125 -0.0891 c 0.0536 -0.0249 0.1447 -0.1336 0.1447 -0.1336 s -0.1346 0.5208 -0.2895 0.6791 c -0.1641 0.1678 -0.4791 0.2985 -0.7125 0.3229 c -0.2619 0.0274 -0.6347 -0.0484 -0.8572 -0.1893 c -0.2856 -0.1808 -0.6002 -0.5648 -0.6902 -0.8906 c -0.1039 -0.3761 -0.0319 -0.9493 0.1559 -1.2914 c 0.1621 -0.2954 0.5568 -0.5841 0.8684 -0.7125 c 0.1954 -0.0806 0.7014 -0.0668 0.7014 -0.0668 l 0.3006 0.1002 s -0.3701 -0.1062 -0.5233 -0.167 c -0.1652 -0.0656 -0.4004 -0.1392 -0.5344 -0.2561 c -0.2652 -0.2314 -0.5648 -0.6371 -0.6457 -0.9797 c -0.0518 -0.2193 0.0142 -0.5334 0.0891 -0.7459 c 0.0942 -0.2675 0.2792 -0.6249 0.501 -0.8016 c 0.2239 -0.1783 0.6158 -0.2998 0.9018 -0.3117 c 0.1756 -0.0073 0.4231 0.0449 0.5678 0.1447 c 0.1914 0.1321 0.4151 0.404 0.4453 0.6346 c 0.0139 0.1058 -0.1225 0.334 -0.1225 0.334 s -0.2471 -0.3174 -0.4008 -0.3785 c -0.1583 -0.0629 -0.4127 -0.0704 -0.5678 0 c -0.097 0.044 -0.1915 0.1694 -0.2338 0.2672 c -0.0813 0.1879 -0.1498 0.492 -0.0668 0.6791 c 0.091 0.2052 0.3999 0.3461 0.6012 0.4453 c 0.1963 0.0967 0.7014 0.2004 0.7014 0.2004 l 0.7348 0.5455 s -0.118 -0.9651 -0.1113 -1.3805 c 0.0057 -0.3562 0.0556 -0.8324 0.1336 -1.1801 c 0.1042 -0.4648 0.3057 -1.0737 0.5121 -1.503 c 0.304 -0.6321 0.973 -1.3297 1.258 -1.9705 c 0.0971 -0.2184 0.1887 -0.5302 0.2115 -0.7682 c 0.0288 -0.3001 0.0172 -0.7159 -0.0779 -1.002 c -0.0611 -0.1838 -0.2275 -0.3916 -0.3451 -0.5455 c -0.1292 -0.169 -0.283 -0.4397 -0.4787 -0.5232 c -0.1352 -0.0577 -0.3563 -0.038 -0.4899 0.0111 c -0.1336 0.0491 -0.2844 0.1797 -0.3563 0.2895 s -0.1437 0.3007 -0.1113 0.4008 c 0.0323 0.1001 0.2773 0.3309 0.3579 0.306 c 0.0806 -0.0249 0.6552 -0.1501 0.6552 -0.1501 s -0.1606 0.4821 -0.3451 0.6234 c -0.1846 0.1413 -0.7008 0.1665 -1.0455 0.1228 c -0.3447 -0.0437 -0.7833 -0.3975 -1.0697 -0.6238 s -0.5374 -0.4677 -0.6346 -0.7125 c -0.0971 -0.2448 -0.0798 -0.5922 -0.0223 -0.8016 c 0.0575 -0.2094 0.1926 -0.4261 0.3451 -0.5455 c 0.1164 -0.0912 0.4676 -0.1559 0.4676 -0.1559 s -0.5478 -0.2156 -0.7348 -0.3785 c -0.197 -0.1717 -0.425 -0.4625 -0.501 -0.7125 c -0.0865 -0.2845 -0.1031 -0.7212 0.0223 -0.9908 c 0.1746 -0.3755 0.5247 -0.8169 0.8802 -1.0293 c 0.2476 -0.148 0.7685 -0.3726 1.057 -0.3781 c 0.2038 -0.0039 0.4997 0.2298 0.6457 0.372 c 0.1423 0.1386 0.2585 0.4281 0.2227 0.6234 c -0.027 0.1468 -0.3229 0.3785 -0.3229 0.3785 s 0.0786 -0.3874 0 -0.5232 c -0.0637 -0.1101 -0.2404 -0.2177 -0.3674 -0.2115 c -0.1722 0.0084 -0.3989 0.1759 -0.4676 0.334 c -0.051 0.1174 0.003 0.3064 0.0557 0.4231 c 0.1275 0.2827 0.6791 0.7793 0.6791 0.7793 l 1.1578 0.334 l 0.7459 0.4899 l 0.2115 0.3006 l 0.3785 -0.8795 s 0.7139 -0.7236 1.1022 -0.9018 c 0.2096 -0.0962 0.5301 -0.1744 0.757 -0.1336 c 0.221 0.0397 0.4878 0.2189 0.6457 0.3785 c 0.1136 0.1149 0.2897 0.3076 0.2672 0.4676 c -0.0253 0.1801 -0.4342 0.4231 -0.4342 0.4231 s 0.0944 -0.3687 0.0111 -0.4899 c -0.0844 -0.1227 -0.3189 -0.176 -0.4676 -0.167 c -0.1491 0.009 -0.3294 0.1284 -0.4453 0.2227 c -0.1421 0.1155 -0.2984 0.3141 -0.3785 0.4787 c -0.0872 0.1792 -0.1654 0.4467 -0.1559 0.6457 c 0.0142 0.2965 0.2169 0.6579 0.3229 0.9352 c 0.1539 0.4027 0.4616 0.9043 0.5566 1.3248 c 0.0472 0.2087 0.0585 0.5 0.0334 0.7125 c -0.0155 0.1312 -0.1225 0.4231 -0.1225 0.4231 l -0.2527 0.5019 s 0.6435 -0.5967 0.9916 -0.7083 c 0.2631 -0.0843 0.6732 -0.1225 0.9208 0 c 0.3035 0.1501 0.5619 0.5817 0.6847 0.8972 c 0.0568 0.1458 0.0832 0.3671 0.0472 0.5194 c -0.0402 0.1703 -0.1874 0.3681 -0.3069 0.4958 c -0.0833 0.089 -0.3305 0.2361 -0.3305 0.2361 s 0.2254 -0.5248 0.1889 -0.7555 c -0.0313 -0.198 -0.1749 -0.4768 -0.3541 -0.5666 c -0.2288 -0.1146 -0.637 -0.0711 -0.85 0.0708 c -0.1793 0.1195 -0.2795 0.4282 -0.3305 0.6375 c -0.0587 0.2408 0.0693 0.5883 0 0.8263 c -0.0775 0.266 -0.3128 0.5711 -0.4958 0.7791 c -0.2557 0.2908 -0.7328 0.5383 -0.9916 0.8263 c -0.2048 0.2279 -0.9004 1.242 -0.9916 1.4402 c -0.1128 0.245 -0.2463 0.606 -0.2125 0.8736 c 0.0151 0.1195 0.1889 0.3541 0.1889 0.3541 s 0.1397 -0.3931 0.2597 -0.5194 c 0.2578 -0.2713 0.7411 -0.4688 1.0861 -0.6139 c 0.2583 -0.1086 0.7156 -0.0463 0.8972 -0.2597 c 0.1525 -0.1793 0.1878 -0.563 0.0944 -0.7791 c -0.0663 -0.1535 -0.3328 -0.3123 -0.4486 -0.3305 c -0.1157 -0.0183 -0.2125 0.0708 -0.2125 0.0708 s 0.2895 -0.3669 0.4722 -0.4014 c 0.2355 -0.0445 0.5951 0.0816 0.7555 0.2597 c 0.1265 0.1404 0.2688 0.3882 0.2969 0.5751 c 0.0295 0.1966 -0.0341 0.5153 -0.108 0.6999 c -0.0783 0.1955 -0.38 0.3144 -0.5194 0.4722 c -0.0976 0.1104 -0.3217 0.2591 -0.2833 0.4014 c 0.0486 0.1806 0.4066 0.163 0.5666 0.2597 c 0.268 0.1619 0.6213 0.4009 0.8263 0.6375 c 0.1226 0.1414 0.2631 0.3611 0.3069 0.543 c 0.0797 0.3308 0.0504 0.8073 -0.0472 1.1333 c -0.0593 0.1978 -0.1903 0.4646 -0.3541 0.5902 c -0.0818 0.0628 -0.2276 0.0874 -0.3305 0.0944 c -0.1999 0.0137 -0.4942 0.0164 -0.6611 -0.0944 c -0.1376 -0.0914 -0.2833 -0.4722 -0.2833 -0.4722 l -0.0708 -0.1653 s 0.4848 0.2952 0.7083 0.2597 c 0.1246 -0.0198 0.2903 -0.1402 0.3305 -0.2597 c 0.0537 -0.1596 -0.0234 -0.4232 -0.1417 -0.543 c -0.1496 -0.1517 -0.4748 -0.1523 -0.6847 -0.1889 c -0.1704 -0.0297 -0.3934 -0.1081 -0.5751 -0.0439 c -0.2158 0.0762 -0.5136 0.163 -0.7083 0.2833 c -0.1451 0.0897 -0.3032 0.2583 -0.425 0.3778 c -0.0894 0.0878 -0.2387 0.1898 -0.2833 0.3069 c -0.1437 0.3773 -0.0616 1.1775 -0.0152 1.5786 c 0.0308 0.2663 0.1004 0.6204 0.1889 0.8736 c 0.2424 0.6938 0.4621 1.0873 0.7368 1.7689 c 0.2278 0.5651 0.782 1.7811 0.9631 2.3628 c 0.0792 0.2546 0.2143 0.5872 0.2597 0.85 c 0.0531 0.3074 0.0379 0.727 0.0472 1.0388 c 0.0148 0.4956 0.11 0.9789 -0.0152 1.4587 c -0.0785 0.3009 -0.3038 0.8353 -0.4806 1.0912 c -0.1974 0.2858 -0.4453 0.7009 -0.7319 0.8972 c -0.2642 0.181 -0.6958 0.3073 -1.0152 0.3305 c -0.2509 0.0182 -0.6388 -0.0153 -0.8732 -0.1065 c -0.3534 -0.1375 -1.0859 -0.673 -1.0859 -0.673"/>
  <path class="outline" d="M 10.1347 -18.0698 s -0.2329 0.7787 -0.1872 1.0497 c 0.0551 0.3268 0.1719 0.7723 0.3621 1.0437 c 0.1512 0.2158 0.4504 0.4276 0.6816 0.5538 c 0.3778 0.2062 1.3632 0.4473 1.3632 0.4473"/>
  <path class="body outline" d="M 11.6089 -14.2937 s -0.5618 0.2953 -0.7455 0.4899 c -0.1316 0.1395 -0.2811 0.3659 -0.3195 0.5538 c -0.0425 0.2081 0.0852 0.7029 0.0852 0.7029"/>
  <path class="outline" d="M 15.6559 -11.3542 s -0.4769 0.9659 -0.7668 1.3206 c -0.0974 0.1192 -0.261 0.2475 -0.3834 0.3408 c -0.1212 0.0924 -0.426 0.2769 -0.426 0.2769"/>
  <path class="body outline" d="M 15.1021 -8.3935 s -0.4308 -0.1269 -0.6177 -0.1065 c -0.151 0.0165 -0.3463 0.1016 -0.4686 0.1917 c -0.1133 0.0835 -0.2982 0.3621 -0.2982 0.3621"/>
  <path class="outline" d="M 17.7007 -3.5583 s -0.5402 -0.6209 -0.8307 -0.8307 c -0.2953 -0.2133 -0.7653 -0.4246 -1.1289 -0.4473 c -0.4084 -0.0255 -0.9637 0.1408 -1.3206 0.3408 c -0.2405 0.1348 -0.4812 0.4294 -0.6603 0.639 c -0.1877 0.2197 -0.5538 0.7881 -0.5538 0.7881"/>
  <path class="outline" d="M 14.0797 2.64 s 0.385 0.4841 0.4899 0.6816 c 0.0825 0.1553 0.1917 0.5538 0.1917 0.5538"/>
  <path class="langue outline" d="M -1.4124 -11.8053 s -0.9309 -0.558 -1.3899 -0.6135 c -0.3262 -0.0394 -0.7752 -0.0397 -1.0975 0.0196 c -0.4628 0.0852 -1.1428 0.6 -1.6103 0.6626 c -0.2201 0.0295 -0.4043 0.0563 -0.5625 -0.081 c -0.2833 -0.2457 -0.0694 -0.7345 -0.2447 -1.0482 c -0.0857 -0.1534 -0.2987 -0.3119 -0.4703 -0.3927 c -0.2125 -0.1001 -0.5444 -0.1823 -0.7839 -0.1571 c -0.1492 0.0157 -0.4479 0.1964 -0.4479 0.1964 s 0.3956 0.194 0.4927 0.3338 c 0.2132 0.3069 0.0559 0.86 0.2464 1.1782 c 0.0751 0.1254 0.2541 0.2459 0.3807 0.3338 c 0.1301 0.0903 0.3107 0.2155 0.4703 0.2553 c 0.3554 0.0887 0.8708 0.0692 1.2318 0 c 0.4406 -0.0844 0.9256 -0.5758 1.3662 -0.6602 c 0.3348 -0.0641 0.805 0.0572 1.1423 0.1104 c 0.2469 0.0389 0.7839 0.2553 0.7839 0.2553 l 0.4927 -0.3927 z"/>
  <path class="teeth outline" d="M -4.6401 -13.6392 c 0.0441 -0.1424 0.0846 -0.0954 0.2251 -0.1452 c 0.1415 -0.0501 0.1388 -0.077 0.2514 0.0223 c 0.102 0.09 0.1304 0.0559 0.1464 0.191 c 0.0413 0.3486 -0.0022 0.6981 -0.1355 1.0228 c -0.0566 0.1379 -0.2118 0.3158 -0.2118 0.3158 s -0.1137 -0.1343 -0.1659 -0.2997 c -0.1105 -0.3495 -0.2181 -0.7568 -0.1097 -1.107 z"/>
  <path class="teeth outline" d="M -4.4549 -10.9621 c -0.0041 0.149 0.0494 0.1176 0.1664 0.2099 c 0.1178 0.093 0.1066 0.1176 0.2452 0.0598 c 0.1256 -0.0523 0.1414 -0.0109 0.2001 -0.1337 c 0.1514 -0.3167 0.2227 -0.6616 0.201 -1.0119 c -0.0092 -0.1488 -0.0988 -0.3672 -0.0988 -0.3672 s -0.1509 0.0906 -0.2536 0.2303 c -0.2171 0.2953 -0.4502 0.6463 -0.4602 1.0127 z"/>
  <path class="body outline" d="M 0.2163 -11.4563 s -1.4184 1.4744 -2.1498 1.9451 c -0.6941 0.4466 -1.8326 0.6431 -2.5252 1.092 c -0.6992 0.4532 -1.5457 1.2116 -2.0475 1.8768 c -0.3446 0.4569 -0.6407 1.1748 -0.8531 1.7062 c -0.1948 0.4871 0.2771 1.1641 0.0755 1.2258 c -0.2658 0.0813 -0.7431 0.4223 -1.052 0.9523 c -0.2163 0.3712 -0.311 0.9439 -0.3595 1.1199 c -0.0663 0.2401 -0.0197 0.6249 0.1365 0.819 c 0.1728 0.2147 0.8531 0.3412 0.8531 0.3412 s -0.3035 -0.5234 -0.2389 -0.7507 c 0.0516 -0.1816 0.2946 -0.3637 0.4777 -0.4095 c 0.2747 -0.0687 0.6194 0.0462 0.6194 0.0462 s -0.2585 0.8196 -0.1706 1.1602 c 0.0675 0.2617 0.4545 0.4623 0.546 0.7166 c 0.0868 0.241 0.105 0.607 0.0341 0.8531 c -0.1203 0.4175 -0.819 1.1944 -0.819 1.1944 s 1.0822 -0.333 1.4332 -0.6484 c 0.3004 -0.2699 0.6028 -0.7644 0.6825 -1.1602 c 0.0754 -0.3747 -0.2902 -0.8996 -0.1706 -1.2626 c 0.1517 -0.4607 1.1261 -1.1602 1.1261 -1.1602 s 0.0469 0.845 0.1365 1.1944 c 0.0605 0.2357 0.363 0.5139 0.3071 0.7507 c -0.075 0.3177 -0.6749 0.4237 -0.819 0.7166 c -0.1449 0.2945 -0.1242 0.7685 -0.0682 1.092 c 0.0399 0.2305 0.1511 0.5423 0.3071 0.7166 c 0.2354 0.263 0.6824 0.4901 1.0237 0.5801 c 0.1188 0.0313 0.4095 0 0.4095 0 s -0.6933 -0.442 -0.819 -0.7507 c -0.0696 -0.1709 -0.0439 -0.447 0.0341 -0.6142 c 0.0949 -0.2035 0.3745 -0.367 0.546 -0.5119 c 0.2456 -0.2075 0.6496 -0.3995 0.8531 -0.6484 c 0.2087 -0.2552 0.3948 -0.6705 0.4777 -0.9896 c 0.0877 -0.3375 0.0682 -1.1602 0.0682 -1.1602 s -0.0266 0.6286 0.1398 0.9225 c 0.0999 0.1764 0.4994 0.4781 0.6109 0.6473 c 0.091 0.1381 0.2207 0.3473 0.2047 0.5119 c -0.0201 0.2063 -0.2682 0.4027 -0.3754 0.5801 c -0.0972 0.1609 -0.3071 0.546 -0.3071 0.546 s 0.9168 -0.4252 1.2285 -0.7166 c 0.28 -0.2618 0.6521 -0.68 0.7166 -1.0579 c 0.0338 -0.1983 -0.1088 -0.457 -0.1706 -0.6484 c -0.0438 -0.1357 -0.1289 -0.3073 -0.1706 -0.4436 c -0.04 -0.1306 -0.1441 -0.3136 -0.1024 -0.4436 c 0.0709 -0.221 0.5801 -0.5119 0.5801 -0.5119 s -0.1247 0.4288 -0.1024 0.6142 c 0.0373 0.3096 0.4095 0.9555 0.4095 0.9555 s 0.043 -0.5824 0.2047 -0.7507 c 0.2827 -0.2941 0.9401 -0.2113 1.2967 -0.4095 c 0.4125 -0.2292 1.1123 -0.9355 1.4027 -1.3074 c 0.0627 -0.0803 0.6273 0.6563 0.9784 0.3868 c 0.5617 -0.4312 0.9843 -0.9562 1.4049 -1.803 c 0.324 -0.6524 -0.083 -1.5845 -0.0539 -2.4262 c 0.0315 -0.9109 0.3 -2.0596 0.2749 -2.1411 c -0.1455 -0.4726 -0.731 -1.0355 -0.731 -1.0355 l -0.1706 -2.2181 l -1.1261 -1.3309 l -4.8115 1.3309 l 0.6142 0.7166 z"/>
  <path class="body outline" d="M 4.2298 -16.7669 s 0.2579 -0.3379 0.3358 -0.6253 c 0.0475 -0.1752 0.0133 -0.6887 -0.0171 -0.9438 c -0.0284 -0.239 -0.109 -0.3331 -0.109 -0.3331 s -0.0473 0.2922 -0.1145 0.4431 c -0.113 0.2537 -0.5735 0.7265 -0.5735 0.7265 s 0.0787 -0.336 0.0688 -0.4816 c -0.0307 -0.4497 -0.4128 -1.4448 -0.4128 -1.4448 s -0.1711 0.9745 -0.4128 1.3072 c -0.2087 0.2873 -0.4857 0.1932 -0.8212 0.3094 c -0.8396 0.2907 -2.3685 0.0692 -3.3271 0.454 c -0.3949 0.1585 -1.2055 0.72 -1.2055 0.72 s -1.009 0.3463 -1.5702 0.2441 c -0.2062 -0.0375 -0.4469 -0.2257 -0.6528 -0.1865 c -0.3649 0.0695 -0.6585 0.0622 -0.9636 0.1554 c -0.3839 0.1173 -0.405 0.9242 -0.2798 1.3055 c 0.042 0.1278 0.2151 0.2428 0.2487 0.373 c 0.0561 0.2175 -0.1288 0.5316 -0.0622 0.746 c 0.0787 0.2531 0.32 0.5703 0.5595 0.6839 c 0.3287 0.1557 0.8367 0.0234 1.1812 -0.0933 c 0.3781 -0.128 0.7873 -0.0941 0.9947 -0.4352 c 0.0836 -0.1375 0.3419 -0.6528 0.3419 -0.6528 s 0.6056 0.4381 0.746 0.8082 c 0.1224 0.3227 0.1155 0.8376 -0.0311 1.1501 c -0.2161 0.4606 -0.8002 0.9348 -1.2745 1.119 c -0.426 0.1655 -1.1043 -0.1519 -1.5231 0.0311 c -0.3324 0.1453 -0.6617 0.2778 -0.7771 0.6217 c -0.0747 0.2226 -0.1213 0.6917 0.0311 0.8704 c 0.1762 0.2067 0.548 0.0135 0.6839 0.2487 c 0.0769 0.1332 0.0622 0.6528 0.0622 0.6528 s 0.6033 -0.3919 0.746 -0.6528 c 0.0905 -0.1655 0.0933 -0.6217 0.0933 -0.6217 s 1.479 0.0995 2.1137 0.0933 c 0.4392 -0.0043 1.1924 0.1029 1.5853 -0.0933 c 0.3077 -0.1536 0.5517 -0.5337 0.6217 -0.8704 c 0.0258 -0.1242 -0.1243 -0.4041 -0.1243 -0.4041 s 0.2259 -0.1391 0.3419 -0.0311 c 0.2874 0.2676 0.3954 0.6021 0.4041 0.9947 c 0.0153 0.6902 -0.0711 1.7105 -0.373 2.3313 c -0.1771 0.3642 -0.494 0.8426 -0.842 1.1867 c -0.1414 0.1399 -0.288 0.2575 -0.4324 0.3364 c -0.352 0.1922 -0.9343 0.1916 -1.2745 0.4041 c -0.2294 0.1433 -0.495 0.4138 -0.6217 0.6528 c -0.1028 0.1939 -0.1696 0.4959 -0.1554 0.7149 c 0.0179 0.2767 0.3108 0.8704 0.3108 0.8704 l 0.2403 -0.7089 l 1.2217 -0.5864 s 1.6125 -0.3595 2.199 -0.733 c 0.6473 -0.4122 0.6628 -0.6464 0.6628 -0.6464 s -0.1443 0.8838 -0.9072 1.5749 c -0.2385 0.2161 -0.9285 0.5375 -0.9285 0.5375 s 1.314 -0.0958 1.8081 -0.3421 c 0.5852 -0.2917 1.2324 -0.9341 1.6126 -1.466 c 0.3436 -0.4808 0.8787 -2.1229 0.8787 -2.1229 s -0.417 -1.5398 -0.7321 -2.2752 c -0.1714 -0.4 -0.7819 -1.2217 -0.7819 -1.2217 s 0.5955 0.8462 0.7803 1.2469 c 0.4094 0.8876 0.9789 3.1077 0.9789 3.1077 s 0.4661 -1.4238 0.5375 -2.0578 c 0.0525 -0.4664 0.0735 -1.1106 -0.0489 -1.5638 c -0.1044 -0.3863 -0.6353 -1.1728 -0.6353 -1.1728 s 0.5008 0.8202 0.6299 1.2079 c 0.1467 0.4409 -0.0049 1.1399 0.2497 1.5286 c 0.2963 0.4524 0.9741 0.9716 1.5149 0.9773 c 0.2238 0.0024 0.4896 -0.2211 0.6353 -0.3909 c 0.1967 -0.2294 0.4257 -0.6283 0.3909 -0.9285 c -0.0229 -0.1981 -0.3909 -0.5375 -0.3909 -0.5375 s -0.1801 0.4738 -0.3085 0.6177 c -0.1113 0.1247 -0.3251 0.0764 -0.4673 -0.0115 c -0.1272 -0.0786 -0.1093 -0.464 -0.1329 -0.6116 c -0.1165 -0.729 0.33 -1.5878 0.0757 -2.1799 c -0.0866 -0.2016 -0.3706 -0.7391 -0.622 -0.9001 c -0.1645 -0.1053 -0.7929 -0.3842 -0.7929 -0.3842 s 0.4184 -0.2689 0.5375 -0.4398 c 0.2571 -0.369 0.4144 -0.9736 0.4887 -1.4172 c 0.0533 -0.3181 0 -1.0751 0 -1.0751 s -0.996 0.033 -1.4172 0.0977 c -0.243 0.0374 -0.7967 0.1918 -0.7967 0.1918 z"/>
  <path class="white outline" d="M -1.1779 -15.7782 a 1.2192 0.7177 23.67 1 0 2.2333 0.9789 a 1.2192 0.7177 23.67 1 0 -2.2333 -0.9789 z"/>
  <path class="white outline" d="M 0.3973 -15.549 a 0.7807 0.7807 90 1 1 -1.5614 0 a 0.7807 0.7807 90 1 1 1.5614 0 z"/>
  <path class="pupil outline" d="M -0.3192 -16.2207 c -0.0589 -0.0002 -0.1117 0.009 -0.1645 0.0152 c -0.1057 0.0124 -0.195 0.0305 -0.195 0.0305 l 0.0762 0.3321 s 0.0728 -0.0143 0.1584 -0.0244 s 0.1931 0.0043 0.1767 -0.003 c -0.0074 -0.0034 0.0617 0.074 0.067 0.0914 c 0.0172 0.0558 0.0072 0.2639 -0.0208 0.3203 c -0.0098 0.0198 -0.0895 0.0898 -0.0945 0.0914 c 0.0254 -0.0083 -0.0589 -0.001 -0.1219 -0.0122 c -0.063 -0.0112 -0.1158 -0.0244 -0.1158 -0.0244 s -0.1727 -0.0205 -0.1971 0.0359 c -0.0324 0.0748 0.0991 0.2531 0.0991 0.2531 s 0.0679 0.016 0.1493 0.0305 s 0.1644 0.04 0.2864 0 c 0.1454 -0.0476 0.2351 -0.14 0.2955 -0.262 c 0.0811 -0.1638 0.101 -0.3541 0.0457 -0.5332 c -0.0393 -0.1272 -0.1074 -0.2362 -0.2529 -0.3016 c -0.0689 -0.031 -0.1331 -0.0394 -0.192 -0.0396 z"/>
  <path class="body outline" d="M -0.4607 -16.7441 s -0.2693 0.042 -0.3805 0.0865 c -0.2184 0.0874 -0.4387 0.2853 -0.4669 0.5188 c -0.0148 0.1221 0.0325 0.2259 0.1211 0.3113 c 0.0952 0.0918 0.2483 0.0805 0.3805 0.0865 c 0.1935 0.0088 0.4336 -0.1436 0.6226 -0.1211 c 0.272 0.0325 0.6247 0.1992 0.8301 0.3805 c 0.0961 0.0848 0.1174 0.2934 0.2248 0.3632 c 0.0966 0.0627 0.2776 0.1037 0.3805 0.0519 c 0.1058 -0.0532 0.1608 -0.2312 0.1902 -0.3459 c 0.0142 -0.0553 0.0161 -0.1355 0 -0.1902 c -0.0243 -0.0828 -0.0959 -0.1797 -0.1556 -0.2421 c -0.0747 -0.078 -0.294 -0.2075 -0.294 -0.2075"/>
  <path class="body outline" d="M -5.4156 -15.0121 s 0.4734 -0.6304 0.6907 -0.7205 c 0.2173 -0.09 0.2988 -0.0774 0.3417 0 c 0.0429 0.0774 0.0296 0.1993 -0.1314 0.3586 c -0.161 0.1593 -0.901 0.3619 -0.901 0.3619 z"/>
  <path class="ear outline" d="M 4.1893 -15.6428 s 0.2658 -0.4276 0.4458 -0.5325 c 0.2839 -0.1655 1.0774 -0.1981 1.0774 -0.1981 s 0.1345 0.6897 -0.0495 0.8793 c -0.0909 0.0936 -0.3411 -0.0551 -0.4334 0.0372 c -0.1214 0.1212 0.0731 0.4497 -0.0495 0.5697 c -0.0825 0.0807 -0.3839 0.0248 -0.3839 0.0248 s 0.0053 -0.4881 -0.1238 -0.6316 c -0.1014 -0.1127 -0.483 -0.1486 -0.483 -0.1486 z"/>
  <path class="outline" d="M 3.4677 -15.391 s -0.534 1.0778 -0.8908 1.439 c -0.1883 0.1907 -0.498 0.3996 -0.7538 0.4797 c -0.4909 0.1536 -1.7706 0.241 -1.7706 0.241 l -0.0796 0.1016 s 1.4386 -0.3724 1.8502 0 c 0.1532 0.1386 0.1538 0.4971 0.0685 0.6852 c -0.073 0.1611 -0.2707 0.3855 -0.4222 0.4768 c -0.2363 0.1423 -0.8606 0.3153 -0.8606 0.3153"/>
  <path class="outline" d="M 3.0566 -9.9091 s 0.0803 0.8248 0 1.1649 c -0.1267 0.5369 -0.3638 1.001 -0.6407 1.4781 c -0.1116 0.1923 -0.4111 0.6167 -0.4111 0.6167"/>
  <path class="outline" d="M -5.5775 -2.9196 s -0.6176 0.4154 -0.8418 0.6638 c -0.1659 0.1838 -0.4151 0.7362 -0.4151 0.7362"/>
  <path class="outline" d="M 0.7953 -3.9475 s -1.1925 0.3784 -1.6863 0.715 c -0.2285 0.1558 -0.4342 0.4857 -0.5527 0.7356 c -0.1852 0.3905 -0.2964 1.1162 -0.2964 1.1162"/>
  <path class="outline" d="M 0.6624 -2.0879 s 0.6772 -0.6658 0.9552 -0.9003 c 0.3748 -0.3162 1.0953 -0.485 1.3705 -0.8908 c 0.1765 -0.2603 0.2056 -1.0279 0.2056 -1.0279"/>
  <path class="outline" d="M -5.7145 -6.4144 s -0.0528 0.9372 -0.2056 1.302 c -0.0758 0.181 -0.2592 0.5034 -0.4553 0.7276 c -0.3914 0.4474 -0.866 0.7834 -0.866 0.7834"/>
  <path class="outline" d="M -4.2285 -1.5863 s 0.2167 -0.8717 0.3982 -1.2325 c 0.1183 -0.2352 0.5482 -0.6852 0.5482 -0.6852"/>
</svg>
