<?xml version="1.0" encoding="UTF-8" standalone="no"?>
<svg xmlns:svg="http://www.w3.org/2000/svg" xmlns="http://www.w3.org/2000/svg" width="420" height="350" version="1.0">
  <g transform="scale(0.123) translate(-200, -162.6)">
    <g>
      <g transform="translate(-25.163704,-65.527947)">
        <path class="body outline" d="M 77.143693,175.33005 C 77.143693,175.33005 80.809805,163.5868 84.972632,161.00882 C 86.239825,160.22407 87.961362,161.4511 89.937326,160.81787 C 92.062062,160.13697 96.795684,158.96003 97.384365,156.80792 C 97.986664,154.60602 95.092968,149.55183 95.092968,149.55183 C 95.092968,149.55183 88.486214,143.92411 84.972632,143.44144 C 81.144925,142.91562 72.5609,146.87854 72.5609,146.87854 L 70.078553,157.18982 L 77.143693,175.33005 z"/>
        <path class="body outline" d="M 254.58692,349.27677 C 254.58692,349.27677 240.49486,351.42236 237.18928,348.05893 C 236.16231,347.01398 236.91376,345.39662 236.3194,344.05747 C 235.61557,342.47167 234.56398,341.11975 232.83987,340.9259 C 230.10667,340.61859 227.47798,344.13957 226.05479,346.49315 C 224.15487,349.6351 223.96707,357.80162 223.96707,357.80162 L 229.53432,365.10862 L 246.59969,363.91235 L 254.58692,349.27677 z"/>
        <path class="body outline" d="M 363.51738,271.9294 C 363.51738,271.9294 332.87055,294.66696 321.84248,306.62722 C 319.21049,309.48169 315.39692,313.4604 314.39391,317.21132 C 313.5149,320.49852 314.2661,325.30627 315.42079,328.50706 C 316.7012,332.05636 318.96856,337.66036 322.54094,338.87489 C 325.80481,339.98453 333.4717,335.33028 333.4717,335.33028 C 333.4717,335.33028 329.59422,343.05545 326.54951,344.83825 C 324.30163,346.15447 320.48662,346.34285 317.9269,345.85994 C 316.00358,345.49709 312.17311,342.78448 312.17311,342.78448 C 312.17311,342.78448 312.23003,347.39244 311.12878,349.15298 C 309.66365,351.49526 304.80671,354.97198 304.80671,354.97198 C 304.80671,354.97198 304.9538,351.51129 304.91292,350.12003 C 304.8433,347.75079 304.22359,344.98292 302.96208,342.97625 C 302.1994,341.76306 298.78649,340.65648 298.78649,340.65648 C 298.78649,340.65648 300.29317,343.17315 300.64231,344.36811 C 301.38807,346.92054 301.93552,350.5493 301.57021,353.18324 C 301.36427,354.66811 299.55915,356.33176 299.7144,357.82278 C 299.92229,359.81936 299.78921,360.98313 301.51432,362.00955 C 302.83551,362.79564 304.59365,363.77399 305.98058,363.11074 C 306.88605,362.67773 309.03243,361.81867 309.32328,360.85805 C 309.56528,360.05876 310.38534,358.28673 310.38534,358.28673 C 310.38534,358.28673 311.71786,361.09932 311.56874,363.72365 C 311.48771,365.14963 310.29558,366.52003 309.75929,367.35341 C 309.48127,367.78543 308.6489,369.69835 306.40465,370.30319 C 304.22251,370.8913 301.58605,370.60378 301.09508,370.51165 C 301.09508,370.51165 296.75511,370.25532 295.15903,369.3977 C 292.71267,368.0832 290.12997,365.14184 288.71365,362.75299 C 287.92404,361.42118 288.03766,359.11688 287.18764,357.82278 C 286.48314,356.75023 284.58844,356.14638 283.93996,355.03905 C 283.22266,353.8142 283.22446,353.90432 283.22446,353.90432 C 283.22446,353.90432 284.51305,354.1347 285.09928,356.43132 C 285.7488,358.97589 287.18764,365.71 287.18764,365.71 L 280.99894,364.68576 L 276.902,361.40272 C 276.902,361.40272 275.49922,360.32259 275.58878,359.6786 C 275.68464,358.9893 277.21176,358.94256 277.4446,358.28673 C 278.02062,356.66431 275.58889,354.57469 275.58889,354.57469 C 275.58889,354.57469 277.84458,356.77482 277.25195,358.41843 C 277.03581,359.01787 275.6131,359.10282 275.58878,359.73957 C 275.50089,362.04114 278.19456,362.94972 281.21874,364.9595 C 283.41647,366.42006 286.15335,367.29543 286.72368,368.95768 C 287.23871,370.45875 285.33182,374.06118 285.33182,374.06118 L 274.19692,379.62863 C 274.19692,379.62863 269.32065,379.82015 267.70156,378.70072 C 265.08835,376.89397 260.51073,369.88548 260.51073,369.88548 L 259.81434,370.34954 L 259.81434,377.30886 C 259.81434,377.30886 265.16517,382.20412 264.45388,384.73212 C 263.9481,386.5297 258.88643,387.51585 258.88643,387.51585 L 244.50385,388.44376 C 244.50385,388.44376 241.30866,386.21974 240.79222,384.73212 C 240.01086,382.48141 241.72013,376.8449 241.72013,376.8449 L 236.15268,378.70072 C 236.15268,378.70072 234.0526,385.7233 231.51313,387.05189 C 230.2737,387.70033 228.18712,387.06887 226.87359,386.58794 C 224.33584,385.65877 219.45033,381.48444 219.45033,381.48444 L 215.27474,363.85418 C 215.27474,363.85418 217.53003,360.86765 218.98637,360.60651 C 222.06509,360.05446 228.72941,364.31814 228.72941,364.31814 C 228.72941,364.31814 239.16697,361.2179 242.64803,358.28673 C 246.33929,355.17856 248.36239,348.52954 251.46316,344.83206 C 253.55108,342.34233 256.59209,339.12636 259.35038,337.4088 C 260.35987,336.7802 261.88195,336.16408 263.06202,336.01693 C 265.56342,335.70501 268.97814,336.29306 271.41319,336.94484 C 273.76131,337.57335 276.43329,339.82716 278.83646,340.19252 C 280.08253,340.38196 283.01205,339.72857 283.01205,339.72857 C 283.01205,339.72857 274.51454,337.98508 270.94924,336.94484 C 266.55414,335.66248 261.11174,332.39241 256.56666,331.84135 C 255.17803,331.67299 253.23558,332.79986 251.92712,332.3053 C 249.43972,331.36513 246.86768,328.28509 245.89571,325.80994 C 245.74309,325.42128 246.19097,324.71334 245.89571,324.41808 C 244.8131,323.33547 242.26484,324.837 240.79222,324.41808 C 237.48576,323.47747 233.39363,320.90083 231.04918,318.38667 C 229.01108,316.20104 226.40145,312.55999 226.40964,309.57155 C 226.41612,307.20539 228.47273,304.3096 230.12127,302.61223 C 232.46673,300.19729 239.86431,297.04478 239.86431,297.04478 C 239.86431,297.04478 236.53527,301.66907 236.15268,304.0041 C 235.87889,305.67509 236.0746,308.2095 237.08058,309.57155 C 237.63529,310.3226 238.95943,310.73326 239.86431,310.96341 C 243.77849,311.95894 253.31898,311.42736 253.31898,311.42736 C 253.31898,311.42736 257.49856,303.70302 259.81434,300.75642 C 262.73348,297.04211 267.18527,292.47634 270.94924,289.62152 C 272.98504,288.07745 276.03641,286.48097 278.37251,285.44593 C 281.18942,284.19786 285.78797,284.21694 288.11554,282.19825 C 289.52626,280.97474 290.2223,278.37115 290.89927,276.6308 C 291.63395,274.74208 292.78822,272.16175 292.75509,270.13544 C 292.68817,266.0424 288.5795,257.14472 288.5795,257.14472 C 288.5795,257.14472 182.9977,304.27268 134.93781,302.78263 C 126.10543,302.50879 114.48645,297.77003 107.27556,292.66229 C 103.6381,290.08574 97.829915,281.19258 97.829915,281.19258 C 97.829915,281.19258 90.400409,284.90286 89.058957,287.93947 C 88.074077,290.16892 88.955544,293.72598 89.733646,296.03574 C 90.576159,298.5367 94.456469,303.45732 94.456469,303.45732 C 94.456469,303.45732 86.676384,301.13212 84.336133,298.7345 C 81.867041,296.20488 80.337066,291.39947 79.61331,287.93947 C 78.950236,284.76957 79.367081,281.76177 80.962688,278.94362 C 82.125677,276.88956 85.638834,272.73563 85.638834,272.73563 C 85.638834,272.73563 80.801601,265.19467 78.983602,261.49166 C 77.3903,258.24633 75.02879,250.01858 75.02879,250.01858 C 75.02879,250.01858 71.37808,249.10445 70.289135,249.77746 C 69.315152,250.37942 68.09343,251.44766 67.590379,252.47622 C 66.873422,253.94214 66.071333,256.4773 66.91569,257.87373 C 67.8105,259.3536 72.313202,259.8978 72.313202,259.8978 C 72.313202,259.8978 70.228579,262.46001 68.939757,262.59655 C 66.239298,262.88264 62.384446,260.78444 60.843488,258.54842 C 58.534906,255.19854 59.01903,250.71967 60.047327,246.78344 C 60.671811,244.39298 62.928576,241.68364 64.77015,240.03655 C 66.660516,238.34582 72.19173,235.98841 72.19173,235.98841 C 72.19173,235.98841 68.211693,231.59791 67.468907,229.24152 C 66.921244,227.50413 67.955169,224.92488 67.468907,223.16932 C 66.838824,220.89452 63.526671,218.7805 63.420772,216.42243 C 63.108045,209.4589 73.541108,195.50707 73.541108,195.50707 C 73.541108,195.50707 67.184605,207.73594 62.071394,209.67554 C 59.769087,210.54888 53.975125,208.32616 53.975125,208.32616 L 49.252302,195.50707 C 49.252302,195.50707 49.807658,191.02257 51.276369,190.10956 C 54.73151,187.96171 64.77015,191.45893 64.77015,191.45893 L 55.999192,188.76018 L 55.999192,178.63984 L 63.420772,175.2664 C 63.420772,175.2664 54.899195,179.72295 51.276369,178.63984 C 49.214914,178.02353 46.553546,173.24233 46.553546,173.24233 L 48.577613,163.12199 C 48.577613,163.12199 50.762238,158.49741 52.625747,158.39917 C 57.630152,158.13536 64.77015,169.86888 64.77015,169.86888 L 57.348571,161.09793 L 60.047327,157.04979 L 67.468907,164.47137 L 60.047327,156.3751 L 60.722016,148.95352 L 63.420772,148.95352 C 63.420772,148.95352 58.348967,147.65634 57.348571,146.02987 C 56.1773,144.12559 55.709936,141.40124 56.898778,139.50788 C 58.738007,136.57871 67.468907,135.00995 67.468907,135.00995 C 67.468907,135.00995 75.540345,134.69079 77.589243,136.80912 C 79.32984,138.6087 79.940498,141.07385 79.61331,143.55601 C 79.340975,145.62204 75.790071,149.40332 75.790071,149.40332 C 75.790071,149.40332 78.201316,161.62109 80.287999,166.49544 C 82.719823,172.17601 87.194125,179.23537 91.083024,184.03736 C 94.777191,188.5989 101.57417,192.95601 105.25149,197.53114 C 110.88394,204.53873 116.67951,215.16282 120.76934,223.16932 C 125.96811,233.34676 135.6125,258.25315 135.6125,258.25315 L 261.77936,229.91621 L 316.42917,231.94028 L 353.53707,247.45813 L 363.51738,271.9294 z"/>
        <path class="outline" d="M 245.6096,323.6508 C 245.6096,323.6508 249.1256,322.57657 250.48004,321.7954 C 251.72258,321.07877 254.19086,318.78036 254.19086,318.78036"/>
        <path class="outline" d="M 262.30827,319.47614 C 262.30827,319.47614 258.96965,320.18078 257.90167,321.09962 C 256.69777,322.13539 255.48382,324.1556 255.35049,325.73814 C 255.20824,327.42649 257.20589,331.07243 257.20589,331.07243"/>
        <path class="outline" d="M 265.78715,321.56347 C 265.78715,321.56347 262.77273,323.27787 262.30827,324.57851 C 261.61969,326.50678 262.69298,329.40914 263.4679,331.30436 C 263.88426,332.32265 265.55523,334.3194 265.55523,334.3194"/>
        <path class="outline" d="M 272.28108,322.7231 C 272.28108,322.7231 269.47723,325.37428 269.03412,326.89777 C 268.62421,328.30711 268.95844,330.40323 269.49797,331.76821 C 270.20907,333.56723 273.44071,336.87058 273.44071,336.87058"/>
        <path class="outline" d="M 259.52515,370.26792 C 259.52515,370.26792 259.93636,366.31343 260.22093,364.93363 C 260.60862,363.0538 264.62752,360.29511 264.62752,360.29511"/>
        <path class="outline" d="M 242.59456,375.37029 C 242.59456,375.37029 242.48658,372.62472 243.05841,371.65948 C 243.84583,370.33034 247.23308,368.64444 247.23308,368.64444"/>
        <path class="outline" d="M 85.481831,273.64795 C 85.481831,273.64795 89.438972,269.84139 90.892074,268.2377 C 92.074812,266.93239 93.746966,265.23563 95.220268,264.27019 C 96.111631,263.68609 98.466414,262.82746 98.466414,262.82746"/>
        <path class="outline" d="M 74.661347,250.20356 C 74.661347,250.20356 77.89484,248.97967 79.350223,248.76083 C 81.490262,248.43904 84.541052,249.52991 86.56388,248.76083 C 88.999689,247.83474 91.414247,245.01349 93.056171,242.9899 C 94.155495,241.63504 95.941634,237.94034 95.941634,237.94034"/>
        <path class="outline" d="M 71.415201,236.13693 C 71.415201,236.13693 76.712236,236.17401 78.963059,234.31145"/>
        <path class="outline" d="M 74.063329,207.03967 C 74.063329,207.03967 76.885055,222.9776 82.297389,227.74881 C 86.116897,231.11587 94.686082,232.71304 94.686082,232.71304"/>
        <path class="claw outline" d="M 84.965287,148.62778 C 85.100965,150.16538 85.98881,152.26331 87.141142,153.29033 C 88.021709,154.07514 89.723193,154.80468 90.871181,154.53368 C 92.411369,154.17009 93.872843,153.63502 94.494301,152.17963 C 96.179208,148.23375 96.82114,143.18218 95.42681,139.1245 C 94.371365,136.05302 91.476983,132.21652 88.588407,130.73191 C 87.258811,130.04855 86.003648,129.46097 84.547533,129.7994 C 83.082944,130.1398 79.574148,131.66442 79.574148,131.66442 C 79.574148,131.66442 82.854913,132.84854 83.92586,133.84027 C 85.122727,134.94861 86.252371,136.94108 86.723388,138.50282 C 87.316377,140.46899 86.429158,141.92347 86.208633,143.96524 C 86.053182,145.40451 84.838042,147.18574 84.965287,148.62778 z"/>
        <path class="claw outline" d="M 48.179661,133.52944 C 48.179661,133.52944 49.010123,128.21771 51.288025,126.38019 C 53.583204,124.52873 57.665539,123.18521 60.61312,123.27183 C 62.62094,123.33083 65.322496,124.43085 66.829851,125.75852 C 69.711689,128.29683 72.10037,131.91791 72.735745,135.7053 C 73.002078,137.29288 73.218738,139.27826 72.424909,140.67868 C 71.512128,142.28894 69.613153,143.13912 67.762361,143.16537 C 66.437149,143.18416 64.622851,141.33948 63.721486,140.36784 C 61.399075,137.86437 61.851689,133.00783 59.058938,131.04275 C 58.189398,130.43091 56.702331,130.14684 55.639737,130.11024 C 54.689324,130.07751 53.463881,130.54541 52.531371,130.73191 C 51.132607,131.01166 48.179661,133.52944 48.179661,133.52944 z"/>
        <path class="claw outline" d="M 48.801333,171.14066 C 49.758447,170.96242 51.302874,170.96946 51.909698,170.20815 C 52.783481,169.11191 52.757007,166.84076 52.220535,165.5456 C 51.461849,163.71397 50.657197,162.20204 48.801334,161.50473 C 47.753824,161.11114 43.015919,162.05856 41.962929,162.43724 C 39.345121,163.37867 37.690617,164.65242 36.367873,167.09978 C 35.163366,169.32837 34.676846,173.07532 35.435363,175.49237 C 36.028979,177.38395 38.177427,179.30838 39.787074,180.46575 C 40.771323,181.17345 43.517112,182.01993 43.517112,182.01993 C 43.517112,182.01993 41.781065,176.99117 42.273766,174.87069 C 42.560825,173.63525 43.653132,172.06999 44.760458,171.45149 C 45.821944,170.8586 47.606038,171.36325 48.801333,171.14066 z"/>
        <path class="claw outline" d="M 51.288025,196.00758 C 52.547457,195.08166 55.165423,196.44717 56.26141,197.56176 C 57.419966,198.73998 58.166547,201.23127 57.815592,202.84598 C 57.422464,204.65473 55.34768,206.53287 53.774717,207.50853 C 51.564373,208.87954 47.950823,210.09317 45.382132,209.68438 C 42.648689,209.24937 39.235204,206.95234 37.611219,204.711 C 35.859534,202.29341 34.953523,198.05566 35.124526,195.07507 C 35.198921,193.77837 36.678709,191.03419 36.678709,191.03419 C 36.678709,191.03419 37.864153,195.33283 39.165401,196.62925 C 40.96972,198.42687 44.402513,199.78985 46.936314,200.04845 C 48.264565,200.18401 50.536712,196.55994 51.288025,196.00758 z"/>
        <path class="claw outline" d="M 226.06652,355.86293 C 224.12809,356.05896 221.66705,354.50895 219.71882,354.49046 C 216.78168,354.46259 210.11149,356.37761 210.11149,356.37761 C 210.11149,356.37761 213.1547,352.18775 214.91515,350.88771 C 217.04646,349.3138 220.33011,347.3624 222.97845,347.28496 C 225.01365,347.22545 227.98007,348.15916 229.32615,349.68679 C 230.20096,350.67959 230.9434,352.79031 230.35551,353.97578 C 229.73096,355.23517 227.46513,355.72149 226.06652,355.86293 z"/>
        <path class="claw outline" d="M 218.34996,369.5956 C 219.83464,369.54851 221.845,370.09658 223.16179,370.81508 C 224.50796,371.54959 226.55906,372.78796 226.95295,374.32106 C 227.20413,375.2987 226.51324,376.71236 225.93226,377.52218 C 225.51726,378.10063 224.67951,378.62726 224.03668,378.89409 C 222.6797,379.45734 220.48562,378.88655 219.22482,379.65626 C 218.12158,380.3298 217.0891,381.92831 216.60019,383.16225 C 215.90876,384.9073 215.39876,385.70348 215.57949,387.58284 C 215.71787,389.0217 217.47507,393.37534 217.47507,393.37534 C 217.47507,393.37534 212.5521,391.13324 211.20508,389.56449 C 209.23685,387.27225 208.00456,384.40989 208.143,381.33303 C 208.23045,379.38963 209.51239,376.95015 210.62184,375.3881 C 211.99084,373.46061 214.44069,371.35946 216.45437,370.20534 C 216.97609,369.90632 217.75524,369.61446 218.34996,369.5956 z"/>
        <path class="claw outline" d="M 247.65564,383.98824 C 248.20354,383.31828 249.40481,382.79451 250.26988,382.76826 C 252.40491,382.70348 255.69109,383.61647 256.89262,385.3825 C 257.80435,386.72259 257.23433,389.20086 256.89262,390.78526 C 256.38449,393.1413 255.04936,396.19364 253.58125,398.10513 C 252.22333,399.87316 247.82992,402.81076 247.82992,402.81076 C 247.82992,402.81076 248.94343,397.68907 248.70133,395.49089 C 248.47686,393.45274 246.53919,391.09029 246.43566,389.04243 C 246.3569,387.48462 246.66818,385.19568 247.65564,383.98824 z"/>
        <path class="claw outline" d="M 276.76084,372.83415 C 277.85752,371.23365 281.10238,371.09467 283.03502,371.26561 C 284.69019,371.41201 285.77305,372.10823 286.86923,373.357 C 288.30967,374.99795 289.16712,378.15462 288.96062,380.32831 C 288.83234,381.67861 287.79381,383.34437 286.86923,384.33681 C 285.78119,385.5047 285.0665,386.77827 283.55786,387.29961 C 281.817,387.9012 277.45797,387.99674 277.45797,387.99674 C 277.45797,387.99674 280.2185,385.07533 280.59506,383.46539 C 281.00428,381.71581 280.65058,379.07903 279.72365,377.53978 C 279.22193,376.70663 277.60208,376.4612 277.10941,375.62267 C 276.68234,374.89578 276.2843,373.52961 276.76084,372.83415 z"/>
      </g>
      <g transform="translate(-25.163704,-65.527947)">
        <path class="body outline" d="M 293.24787,262.97598 C 289.05389,264.64325 284.62796,269.17118 281.66359,272.57438 C 280.05282,274.42359 277.36086,279.52495 277.36086,279.52495 C 277.36086,279.52495 283.87945,278.77665 286.62828,278.20103 C 292.07503,277.06046 298.94457,273.53978 304.50118,273.23634 C 309.42366,272.96753 315.98277,274.51687 320.71918,275.88418 C 326.1056,277.43913 337.93011,283.16573 337.93011,283.16573 C 337.93011,283.16573 326.79421,264.65805 318.7333,261.32108 C 311.65417,258.39054 300.36764,260.1456 293.24787,262.97598 z"/>
      </g>
      <path class="body outline" d="M 59.51,284.24652 C 60.299585,283.20128 61.737784,282.01413 62.978562,281.59409 C 63.964183,281.26042 65.450289,281.29559 66.447123,281.59409 C 69.114316,282.39278 71.607022,285.68184 74.200378,286.69492 C 78.418256,288.34261 89.094786,289.14331 89.094786,289.14331 L 77.770956,302.40546 L 59.81605,304.03772 L 56.551521,298.42682 C 56.551521,298.42682 56.104188,293.89696 56.449505,291.99978 C 56.897302,289.53957 58.002719,286.24183 59.51,284.24652 z"/>
      <path class="body outline" d="M 59.612017,284.34854 L 59.612017,284.34854 z"/>
      <path class="body outline" d="M 356.24032,291.44144 C 356.24032,291.44144 347.24956,292.47652 344.00399,290.74882 C 341.77849,289.56413 341.16662,285.20691 338.92476,284.05347 C 336.76828,282.94395 333.05968,282.83621 330.84417,283.82259 C 329.18329,284.56204 326.91931,288.44007 326.91931,288.44007 L 331.07504,300.21465 L 336.84689,301.13815 L 346.68213,300.95345 L 356.24032,291.44144 z"/>
      <path class="body outline" d="M 153.26822,154.35704 L 83.741296,278.6441 L 75.742626,298.33314 L 69.589798,299.5637 C 69.589798,299.5637 61.79982,296.97361 58.514713,297.71785 C 56.317255,298.21568 52.361889,302.02483 52.361889,302.02483 L 59.129996,317.40689 C 59.129996,317.40689 62.405433,319.75098 64.052256,319.86802 C 65.798974,319.99216 69.589798,318.02218 69.589798,318.02218 L 72.050928,312.48463 C 72.050928,311.50303 84.277696,301.626 87.221926,300.79248 C 87.932346,300.59136 87.913096,298.59104 87.221926,298.33135 C 86.467976,298.04806 85.453336,300.57341 83.941346,302.00615 C 81.968426,303.87567 81.494646,305.51364 80.531096,306.296 C 76.836096,309.29614 77.152796,309.76424 76.357906,313.7152 C 76.012516,315.43192 78.203756,319.25274 78.203756,319.25274 L 97.892796,321.71387 C 97.892796,321.71387 104.08811,318.24465 104.6609,315.56105 C 105.3338,312.40843 101.01396,308.87187 100.35393,305.71653 C 99.862616,303.36776 97.987556,298.11583 100.35393,297.71785 C 102.60141,297.33987 99.216026,302.16821 100.01648,305.7921 C 100.99975,310.24364 105.89147,313.7152 105.89147,313.7152 L 113.89014,314.33048 C 113.89014,314.33048 122.67036,307.03619 124.34994,302.64011 C 124.61345,301.9504 124.79673,300.76679 124.34994,300.17898 C 122.26327,297.43367 113.27486,297.10257 113.27486,297.10257 C 113.27486,297.10257 112.92685,295.67204 113.48412,294.84892 C 114.72593,293.01474 119.42768,294.02616 119.42768,294.02616 L 121.27353,281.10523 L 124.34994,289.1039 C 124.34994,289.1039 128.61966,283.25707 129.67822,279.67255 C 130.46239,277.01715 130.55378,273.07 129.67822,270.44331 C 129.09451,268.69219 128.86619,266.7552 128.86619,266.7552 C 128.86619,266.7552 133.16288,270.44656 134.60227,273.51972 C 135.46704,275.36604 134.80617,281.31629 134.80617,281.31629 C 134.80617,281.31629 137.41744,278.16052 138.0832,276.56102 C 139.49876,273.16017 140.85804,268.14071 140.34729,264.4926 C 139.9467,261.6313 137.81837,258.15593 136.04031,255.87864 C 133.94571,253.19593 133.1857,252.40338 133.1857,252.40338 C 133.1857,252.40338 134.47003,252.5405 136.35979,253.877 C 138.4415,255.34924 141.21397,258.14518 142.80842,260.8009 C 144.35511,263.37708 144.65426,270.64542 144.65426,270.64542 L 147.86891,264.33281 L 148.96124,257.10921 L 146.50011,241.11187 C 146.50011,241.11187 155.56351,229.64773 161.26689,228.19093 C 167.86229,226.50628 176.61377,233.34249 183.41706,233.11319 C 189.95505,232.89283 198.23982,229.33151 204.33667,226.96037 C 214.10775,223.16027 226.08959,215.7311 235.71607,211.57831 C 242.95654,208.45483 252.63514,204.08404 260.32737,202.34907 C 268.82086,200.43338 280.9013,197.40177 289.24565,199.88794 C 294.41221,201.4273 300.81868,206.22862 303.39714,210.96302 C 307.29769,218.12496 304.51811,229.4151 304.61635,237.56973 C 304.63273,238.92934 302.22324,240.72492 302.49045,245.02314 C 302.76857,249.49681 305.70065,256.4747 304.48949,257.71815 C 302.36538,259.89889 296.12159,261.10571 296.12159,261.10571 C 296.12159,261.10571 299.16332,263.71281 302.83722,264.2378 C 305.76541,264.65623 309.37831,263.12915 310.11757,262.42682 C 311.96,260.67644 313.47548,257.2352 313.85695,256.49393 C 315.79959,252.71901 313.85695,242.34243 313.85695,242.34243 C 313.85695,242.34243 314.06555,257.95881 318.16392,262.64675 C 319.97,264.71264 323.19719,264.72611 324.70714,267.01737 C 326.33542,269.48822 327.87823,272.32826 325.90376,274.53231 C 323.02846,277.74192 317.70565,280.3584 317.70565,280.3584 C 317.70565,280.3584 322.56648,281.92799 327.03672,280.78273 C 329.81835,280.07009 332.25655,278.13335 333.54599,275.56768 C 336.3945,269.89984 337.62561,260.91163 336.6224,254.64808 C 336.03492,250.98013 331.08486,243.573 331.08486,243.573 C 331.08486,243.573 335.42523,257.56406 340.31409,260.8009 C 343.71404,263.05196 351.00304,262.54916 351.00304,262.54916 C 351.00304,262.54916 347.45484,269.23751 346.46692,273.10655 C 344.90822,279.21096 348.31277,294.02616 348.31277,294.02616 C 348.31277,294.02616 340.27612,297.29746 336.6224,297.71785 C 334.23148,297.99294 330.77195,296.01753 328.62373,297.10257 C 327.06938,297.88766 325.54731,302.02483 325.54731,302.02483 L 334.16127,317.40689 C 334.16127,317.40689 339.04651,319.4823 340.92938,318.63746 C 344.09591,317.21665 344.50015,311.50151 346.95066,308.75899 C 349.37323,306.04773 355.69616,302.02483 355.69616,302.02483 L 351.38918,316.79161 L 354.46559,321.09859 L 368.61709,321.09859 C 368.61709,321.09859 373.03355,315.82308 372.92407,313.09992 C 372.77393,309.36538 366.15596,302.64011 366.15596,302.64011 C 366.15596,302.64011 369.83066,302.98713 371.62986,303.99798 C 373.87128,305.25729 376.00048,309.40822 376.00048,309.40822 L 382.76859,309.40822 L 390.76726,303.2554 C 390.76726,303.2554 391.96085,298.12985 390.76726,296.48729 C 388.65942,293.58657 379.39939,292.79559 379.39939,292.79559 L 386.46028,284.18164 L 382.1533,276.79825 C 382.1533,276.79825 391.88249,282.52524 396.3048,281.72051 C 399.14152,281.20431 402.36592,278.12992 403.68819,275.56768 C 404.79189,273.42899 404.30347,267.56901 404.30347,267.56901 C 404.30347,267.56901 402.26276,271.66578 400.61178,272.49127 C 399.1259,273.23421 396.21391,273.69996 395.07423,272.49127 C 392.91778,270.20425 395.68952,262.03147 395.68952,262.03147 C 395.68952,262.03147 403.04114,260.27221 405.53404,258.33977 C 407.3148,256.95936 409.79145,254.43955 409.84101,252.18695 C 409.89395,249.78084 405.53404,245.41884 405.53404,245.41884 C 405.53404,245.41884 406.16484,248.99404 404.91875,250.36827 C 403.65429,251.76275 400.51014,253.51015 398.76593,252.80223 C 395.44505,251.45438 391.99782,242.95771 391.99782,242.95771 C 391.99782,242.95771 398.51793,239.70732 399.77937,236.46106 C 400.27845,235.17671 400.22548,231.93979 398.94978,230.16734 C 397.03294,227.5041 395.49956,226.76129 395.49956,226.76129 C 395.49956,226.76129 396.84824,231.01396 395.07423,232.49791 C 393.28335,233.99597 390.01795,235.1488 387.69084,234.95904 C 383.74075,234.63694 378.67444,231.73144 376.00048,228.80622 C 372.76247,225.26396 371.49583,220.22018 369.62764,215.79952 C 369.08042,214.50465 368.31646,212.0272 368.31646,212.0272 C 368.31646,212.0272 374.95263,211.56963 377.62632,210.26197 C 379.50231,209.34446 382.33414,205.62228 382.76859,203.57963 C 383.41785,200.52701 381.67612,195.54188 379.04294,193.86665 C 376.85704,192.47599 372.62908,193.6019 372.62908,193.6019 C 372.62908,193.6019 375.63606,196.33008 376.64606,197.82581 C 377.36302,198.88758 375.4844,201.69558 374.81685,202.78909 C 374.27169,203.6821 372.40613,203.62782 371.384,203.40437 C 366.33165,202.29987 361.83794,197.28512 358.77257,193.11983 C 356.59263,190.15769 355.08087,181.42946 355.08087,181.42946 C 355.08087,181.42946 364.87189,180.70304 368.61709,178.96833 C 374.68617,176.15724 381.96466,170.26467 385.845,164.81684 C 388.92829,160.48803 391.13953,153.44908 391.99782,148.20421 C 392.98199,142.19011 392.51346,133.88813 391.38254,127.89989 C 390.36408,122.50712 388.04154,115.38503 385.22971,110.67198 C 382.68504,106.40672 374.15463,98.366333 374.15463,98.366333 C 374.15463,98.366333 369.52763,95.471703 368.61709,93.444073 C 367.78531,91.591833 367.39437,88.296953 368.61709,86.675963 C 369.42632,85.603143 371.85125,84.636173 372.92407,85.445403 C 373.95561,86.223493 375.99624,92.828793 375.99624,92.828793 C 375.99624,92.828793 378.86745,91.216623 380.30746,88.521813 C 381.45169,86.380523 380.01803,82.761143 379.07689,80.523143 C 378.36136,78.821623 377.01264,76.471863 375.3852,75.600883 C 372.4513,74.030703 367.20587,73.604233 363.94094,74.247263 C 359.72853,75.076893 355.31028,77.895523 352.49669,81.138423 C 350.46894,83.475583 348.60971,87.903023 348.31277,90.982943 C 348.15236,92.646713 348.55888,96.889653 348.55888,96.889653 C 348.55888,96.889653 327.55074,94.874603 317.54864,95.289923 C 307.54654,95.705243 293.06932,99.170063 282.47754,99.596893 C 278.04726,99.775423 272.05322,99.877353 267.71076,98.981613 C 261.13031,97.624233 252.10785,95.091173 246.79116,90.982943 C 244.27824,89.041193 241.81004,85.320643 240.63833,82.368993 C 239.12617,78.559713 238.73786,73.100633 240.51103,69.405623 C 241.908,66.494553 244.88725,64.070473 248.02172,63.295233 C 251.25204,62.496293 256.31577,62.083203 259.09681,63.910513 C 260.47659,64.817113 261.88474,67.214463 261.55794,68.832773 C 261.22108,70.500893 258.89745,72.094193 257.25096,72.524473 C 255.42972,73.000423 251.09813,71.293903 251.09813,71.293903 C 251.09813,71.293903 250.26768,74.679513 251.71342,76.603573 C 253.6082,79.125213 258.42773,80.683463 261.55794,80.295273 C 264.45429,79.936073 268.61166,77.296793 270.50139,75.072663 C 273.28768,71.793303 275.70943,64.489343 275.70943,64.489343 C 275.70943,64.489343 290.84728,66.026323 297.24432,65.104623 C 305.50624,63.914233 314.14296,62.490003 321.55027,58.641873 C 325.64527,56.514503 332.09337,52.976963 334.66262,49.143733 C 337.52915,44.866973 338.76428,38.089853 337.62509,33.068908 C 336.6106,28.597561 332.80171,25.182009 328.38847,23.938838 C 325.01742,22.989241 318.85669,25.876937 318.85669,25.876937 C 318.85669,25.876937 324.38786,26.387781 326.24008,27.722784 C 328.19249,29.130001 330.41198,31.104577 331.08486,33.415291 C 331.39451,34.478633 330.5746,37.768043 330.00926,38.720383 C 328.82864,40.709193 326.40437,41.954353 324.31675,42.949883 C 321.25366,44.410593 316.44367,44.537953 313.05025,44.567853 C 308.49152,44.608013 301.44271,40.659843 297.01645,39.568113 C 293.77075,38.767563 284.86576,39.682053 284.86576,39.682053 C 284.86576,39.682053 290.66764,31.821188 290.70866,28.839412 C 290.76008,25.102209 290.46527,19.971438 288.01508,17.149045 C 286.22845,15.091006 282.70219,13.304886 280.01641,12.842068 C 277.62384,12.429776 275.89688,12.354224 274.31604,14.196865 C 273.35453,15.317613 271.76153,17.540611 272.01774,18.994893 C 272.39259,21.122634 273.36078,22.34661 273.36078,22.34661 C 273.36078,22.34661 274.65219,20.272365 276.32472,18.994893 C 277.20486,18.322643 279.11795,18.347323 280.01641,18.994893 C 280.96347,19.677493 282.71602,22.797797 282.50669,23.946294 C 281.82437,27.689935 275.61083,31.908761 272.30352,33.790813 C 267.25423,36.664153 259.68622,33.794041 254.08968,35.352923 C 248.11232,37.017873 239.88562,39.506223 235.01592,43.351593 C 230.35091,47.035313 225.2408,53.721853 223.32556,59.348943 C 221.27816,65.364313 221.33132,74.339793 222.79514,80.523143 C 224.2409,86.630223 228.42474,94.331763 232.63966,98.981613 C 237.55638,104.40567 246.27232,109.50395 252.94398,112.51783 C 258.16684,114.87722 265.68917,116.41633 271.40246,116.86724 C 276.7673,117.29065 283.88991,116.12035 289.24565,115.59424 C 297.17887,114.81493 315.70279,113.13311 315.70279,113.13311 C 315.70279,113.13311 302.33834,117.34323 297.8596,121.13178 C 294.81087,123.71069 291.00624,128.24902 290.47621,132.20687 C 290.08882,135.09959 291.44457,139.4177 293.55263,141.4361 C 295.49388,143.29478 302.16658,143.89723 302.16658,143.89723 C 302.16658,143.89723 297.59699,139.52145 297.8596,137.12913 C 297.94505,136.35068 298.95592,135.51022 299.70545,135.28328 C 301.50708,134.73779 303.98554,136.70443 305.85827,136.51384 C 311.04254,135.98623 318.24804,133.50611 321.85562,129.74574 C 324.03924,127.46963 325.54731,119.90122 325.54731,119.90122 C 325.54731,119.90122 322.91885,131.49041 325.54731,135.28328 C 327.34392,137.87579 332.56297,140.66038 335.65067,141.30456 C 339.08862,142.02181 343.80336,140.84847 347.0822,139.59026 C 349.27563,138.74856 352.41482,136.39314 352.61974,134.05271 C 352.81627,131.80816 348.31277,127.89989 348.31277,127.89989 C 348.31277,127.89989 349.22642,131.29322 348.31277,132.20687 C 347.13808,133.38156 344.33033,132.79118 342.77522,132.20687 C 340.93843,131.51672 338.66376,129.6867 337.85296,127.89989 C 337.1665,126.38709 337.17709,123.87991 337.85296,122.36235 C 338.86328,120.09382 341.72465,117.8063 344.00579,116.8248 C 348.25823,114.99512 354.99053,114.14698 359.38785,115.59424 C 364.7319,117.35309 370.83945,122.964 373.53935,127.89989 C 376.58349,133.46511 378.03845,142.63771 376.61576,148.81949 C 375.51344,153.60923 371.25243,159.32068 367.38652,162.35571 C 363.66507,165.27732 352.61974,167.89325 352.61974,167.89325 C 352.61974,167.89325 332.29466,167.80508 327.1243,166.70687 C 313.1012,163.72829 303.7884,157.69933 289.55625,155.97732 C 284.05575,155.31179 275.01616,154.58277 269.47748,154.43616 C 260.06514,154.18702 245.38609,155.19701 236.01485,154.28382 C 220.15782,152.73863 184.20207,149.05287 184.20207,149.05287 L 163.72802,143.89723 L 153.26822,154.35704 z"/>
      <path class="outline" d="M 246.61784,53.707103 C 246.61784,53.707103 254.10135,52.693283 257.32534,52.762323 C 260.94562,52.839843 264.80488,53.640793 268.03284,55.281733 C 270.47523,56.523323 274.45768,60.016183 275.24267,62.641183 C 275.54531,63.653193 274.61282,66.105373 274.61282,66.105373"/>
      <path class="outline" d="M 279.3702,53.707103 C 279.3702,53.707103 288.08952,58.668523 292.04992,60.271373 C 295.41908,61.634953 307.08372,63.469813 307.08372,63.469813"/>
      <path class="outline" d="M 301.41505,52.762323 C 301.41505,52.762323 307.60045,56.417113 310.54792,57.171293 C 314.12225,58.085863 322.83005,57.801143 322.83005,57.801143"/>
      <path class="outline" d="M 285.98365,39.535413 C 285.98365,39.535413 280.42475,43.011143 277.79557,43.944383 C 275.89221,44.619983 273.15301,45.645413 271.18211,45.204083 C 269.92813,44.923293 267.71792,42.684673 267.71792,42.684673"/>
      <path class="outline" d="M 339.94492,96.397433 C 339.94492,96.397433 343.60091,96.055723 345.1133,96.397433 C 350.13863,97.532863 360.61842,103.78082 360.61842,103.78082 C 360.61842,103.78082 358.19286,96.087513 358.4034,92.705733 C 358.59926,89.559803 359.66071,85.119363 361.72592,82.738153 C 363.3485,80.867303 366.69909,79.615433 369.10931,79.046463 C 369.75604,78.893793 371.32433,79.046463 371.32433,79.046463"/>
      <path class="outline" d="M 297.9834,136.20768 C 297.9834,136.20768 299.89447,131.61765 301.57947,130.13788 C 303.45691,128.4891 308.51299,126.98051 310.78053,125.93098 C 312.28814,125.23318 314.3866,124.05098 315.21057,122.60846 C 315.708,121.73762 315.57974,119.28593 315.57974,119.28593"/>
      <path class="outline" d="M 327.71141,113.1416 L 324.77079,122.29021"/>
      <path class="outline" d="M 355.81072,181.7562 C 355.81072,181.7562 349.12837,178.69401 345.6819,177.83537 C 342.63827,177.07709 338.2791,178.55603 335.22634,177.83537 C 332.66653,177.23108 327.38468,173.91453 327.38468,173.91453"/>
      <path class="outline" d="M 327.71141,187.63745 C 327.71141,187.63745 334.52745,188.88395 336.86003,190.57808 C 340.38196,193.13603 341.50149,199.13191 344.44285,202.34058 C 346.36826,204.44097 349.14822,206.21691 350.3538,208.18365 C 351.38259,209.86198 352.86161,214.24736 352.86161,214.24736 C 352.86161,214.24736 354.64451,209.52087 354.57167,207.04219 C 354.54354,206.08499 354.50378,200.05343 354.50378,200.05343 C 354.50378,200.05343 360.53382,208.62617 364.30587,210.83572 C 365.43429,211.49671 368.55344,211.81593 368.55344,211.81593"/>
      <path class="outline" d="M 378.50619,239.87874 C 378.50619,239.87874 383.00854,242.59539 385.154,243.20265 C 386.97339,243.71761 391.43249,243.75663 391.43249,243.75663"/>
      <path class="outline" d="M 394.94106,265.54668 C 394.94106,265.54668 393.20259,259.87379 391.80181,257.7909 C 390.24956,255.48278 387.5663,252.71256 385.154,251.32775 C 384.25645,250.8125 381.83009,250.40445 381.83009,250.40445"/>
      <path class="outline" d="M 377.0289,258.34489 C 377.0289,258.34489 382.64393,260.4273 384.23069,262.40744 C 386.57334,265.33087 387.47629,270.53892 389.21655,273.85645 C 390.09492,275.53092 391.17626,277.9023 392.54046,279.21163 C 393.59641,280.2251 396.78767,281.61223 396.78767,281.61223"/>
      <path class="outline" d="M 382.75339,278.10366 C 382.75339,278.10366 377.71505,270.20776 376.47492,268.50127 C 375.43633,267.07211 372.41236,265.17736 372.41236,265.17736"/>
      <path class="outline" d="M 207.64511,161.098 L 212.83325,171.96136"/>
      <path class="outline" d="M 214.19367,159.43632 L 217.59833,168.23387"/>
      <path class="outline" d="M 220.41626,159.01266 L 223.781,164.57139"/>
      <path class="outline" d="M 225.85655,157.81236 L 228.85479,163.41946"/>
      <path class="outline" d="M 363.00853,252.06438 L 359.63587,256.96072 L 352.00034,262.00381 C 352.00034,262.00381 353.14565,263.83607 354.35161,264.56883 C 355.12323,265.03767 356.91559,265.39029 357.77163,265.1032 C 359.36691,264.5682 361.5361,263.53638 362.58103,262.21756 C 363.10368,261.55791 363.43604,259.54567 363.43604,259.54567"/>
      <path class="outline" d="M 336.50045,232.91123 C 336.50045,232.91123 337.55318,239.30022 339.23656,241.36831 C 340.80831,243.29926 344.07968,244.71038 346.44995,245.47247 C 348.48576,246.12703 350.41931,246.60165 352.41964,245.84557 C 354.17338,245.18271 357.7675,241.61704 357.7675,241.61704 C 357.7675,241.61704 356.45383,246.60834 355.03138,248.20858 C 353.15583,250.31855 349.59285,252.26444 346.82305,252.81022 C 345.01593,253.16631 342.47158,252.66057 340.72899,252.06401 C 338.38616,251.26196 333.63997,247.83548 333.63997,247.83548"/>
      <path class="outline" d="M 322.69552,246.84052 C 322.69552,246.84052 322.9613,253.25657 324.43668,255.54634 C 325.58876,257.33435 328.27161,258.68614 329.5358,260.39672 C 330.72192,262.00167 331.7626,263.85217 332.39628,265.74457 C 333.07489,267.77112 334.24435,274.34453 334.24435,274.34453"/>
      <path class="outline" d="M 344.34525,184.37009 C 344.34525,184.37009 349.44114,189.02264 350.99879,191.49888 C 352.66936,194.15462 354.80081,201.24156 354.80081,201.24156"/>
      <path class="outline" d="M 198.12232,230.54286 C 198.12232,230.54286 189.50328,229.10292 186.22209,227.41122 C 183.61334,226.06621 180.36076,223.57217 178.70615,221.14794 C 176.86384,218.4487 175.26134,210.81352 175.26134,210.81352"/>
      <path class="outline" d="M 207.83041,225.21907 C 207.83041,225.21907 197.71032,224.49028 194.14201,222.53211 C 192.0325,221.37448 189.43491,219.35682 187.87873,217.52148 C 186.13781,215.46826 183.49443,209.69238 183.49443,209.69238"/>
      <path class="outline" d="M 218.16483,220.83478 C 218.16483,220.83478 204.68871,217.7275 199.37498,215.19782 C 196.81045,213.97694 191.12155,208.1767 191.12155,208.1767"/>
      <path class="outline" d="M 197.40517,204.84306 C 197.40517,204.84306 201.02982,208.82786 203.13295,209.56087 C 205.02947,210.22187 207.49157,210.98214 209.47845,211.27542 C 211.25411,211.53752 214.73571,211.6708 214.73571,211.6708"/>
      <path class="outline" d="M 205.95143,202.98442 C 205.95143,202.98442 207.96575,205.30967 209.08307,205.8029 C 210.50576,206.43092 212.88864,206.40557 214.40686,206.74239 C 215.87437,207.06796 219.41748,206.74239 219.41748,206.74239"/>
      <path class="outline" d="M 214.72002,201.10544 C 214.72002,201.10544 219.97696,202.00853 222.23596,202.35809 C 223.54898,202.56127 226.62026,202.98442 226.62026,202.98442"/>
      <path class="outline" d="M 225.68077,197.97379 C 225.68077,197.97379 232.94227,198.41463 236.01518,198.91329 C 237.63475,199.17611 241.33897,200.16594 241.33897,200.16594"/>
      <path class="outline" d="M 234.76253,193.90266 C 234.76253,193.90266 241.83345,194.97444 244.78378,195.78164 C 246.90511,196.36203 251.67339,198.28696 251.67339,198.28696 C 251.67339,198.28696 251.67339,198.28696 251.67339,198.28696"/>
      <path class="outline" d="M 247.91542,191.08418 C 247.91542,191.08418 252.7905,191.74112 254.80503,192.33684 C 256.68659,192.89324 259.23507,193.72781 260.84128,194.85473 C 262.40267,195.95021 265.13945,199.53961 265.13945,199.53961"/>
      <path class="claw outline" d="M 65.103289,286.43606 C 63.212012,284.2723 60.238222,283.02121 57.366118,283.12013 C 54.896034,283.2052 51.922046,285.25394 49.997384,286.8045 C 48.007895,288.40728 45.353426,290.97887 44.655052,293.43636 C 44.289656,294.72214 44.362731,295.77454 45.023489,296.9365 C 45.646456,298.03201 47.418327,300.06821 47.418327,300.06821 C 47.418327,300.06821 47.802552,297.40028 48.523637,296.56807 C 49.608139,295.31643 51.902564,294.61912 53.497533,294.17323 C 55.15521,293.70981 57.517199,293.94122 59.208302,293.62057 C 60.394189,293.39571 62.0654,293.17388 63.076887,292.51526 C 64.16203,291.80868 65.56128,290.46385 65.840162,289.19933 C 66.024936,288.36151 65.667913,287.08203 65.103289,286.43606 z"/>
      <path class="claw outline" d="M 63.076887,303.56836 C 63.846111,304.9122 63.889099,307.31112 63.261105,308.72648 C 62.704352,309.98128 61.043013,311.18324 59.760957,311.67397 C 58.108514,312.30648 55.489869,311.15564 53.865969,311.85819 C 51.929209,312.6961 49.96723,315.01627 48.892074,316.83208 C 48.188138,318.02094 47.603401,319.87168 47.602545,321.25332 C 47.601439,323.03729 49.26051,326.96409 49.26051,326.96409 C 49.26051,326.96409 43.171777,322.34014 42.075995,319.41114 C 41.203718,317.07956 41.686536,313.49255 42.444431,311.12132 C 43.125813,308.98948 44.902293,306.42798 46.497235,304.85789 C 47.983437,303.39485 50.395718,301.77623 52.392222,301.17352 C 54.297617,300.59831 57.105589,300.45943 59.024083,300.98931 C 60.413219,301.37299 62.360955,302.31762 63.076887,303.56836 z"/>
      <path class="claw outline" d="M 91.814956,317.56896 C 91.599796,315.52351 89.936226,314.03638 87.946366,313.51616 C 85.753506,312.94286 82.133406,312.98477 80.393416,314.43725 C 79.136996,315.48606 79.588486,318.17074 79.288106,319.77958 C 78.917916,321.76232 78.213886,324.39468 78.182796,326.41144 C 78.150996,328.47461 78.398636,331.28837 79.103886,333.22752 C 79.528366,334.39467 80.276516,336.04577 81.314506,336.72767 C 82.810516,337.71046 87.209496,337.64876 87.209496,337.64876 C 87.209496,337.64876 83.849716,335.19793 83.340906,333.59595 C 82.884286,332.15827 83.487476,330.01021 84.077776,328.62206 C 85.033776,326.37392 87.402206,323.97645 89.051676,322.17442 C 90.372016,320.73197 92.019526,319.51373 91.814956,317.56896 z"/>
      <path class="claw outline" d="M 119.4477,305.59476 C 121.56593,306.67342 123.70233,307.9024 124.79003,310.016 C 125.97859,312.3256 125.84085,316.29884 124.79003,318.67427 C 124.12528,320.17696 123.19802,321.61406 121.84254,322.54285 C 120.41535,323.52077 116.68442,325.12191 116.68442,325.12191 C 116.68442,325.12191 117.64609,322.0603 117.78973,320.70067 C 117.95821,319.10589 118.28596,316.81047 117.60551,315.35834 C 116.72528,313.47987 113.17065,312.6972 112.4474,310.75288 C 112.00049,309.55144 112.21032,307.52557 113.00005,306.51586 C 113.84097,305.4407 115.87257,304.89286 117.23708,304.85789 C 117.93591,304.83998 118.82476,305.27754 119.4477,305.59476 z"/>
      <path class="claw outline" d="M 332.10173,288.91841 C 330.68312,287.48762 327.47384,287.54584 325.47695,287.81428 C 323.12678,288.13022 322.10952,288.51581 320.15169,289.85371 C 318.44319,291.02123 315.993,292.73402 315.18311,294.63827 C 314.31884,296.67037 315.18311,301.99913 315.18311,301.99913 C 315.18311,301.99913 319.21837,296.75167 321.62386,295.37435 C 324.2383,293.87739 326.73456,295.38962 329.52542,294.25503 C 330.53409,293.84497 332.18879,293.39938 332.65379,292.41482 C 333.10729,291.45461 332.8494,289.6725 332.10173,288.91841 z"/>
      <path class="claw outline" d="M 329.44576,303.74635 C 331.48654,303.83346 332.45279,303.37205 333.86227,304.85048 C 335.09195,306.14031 336.11776,308.87687 335.51847,310.55515 C 335.15799,311.56464 333.51192,312.06023 332.57412,312.57939 C 330.99495,313.45361 328.43298,313.80761 327.05348,314.97167 C 325.89492,315.94929 324.72511,317.75109 324.29315,319.20416 C 323.94707,320.36835 324.02548,322.06795 324.29315,323.25263 C 324.57614,324.50513 325.68359,325.26425 326.31739,326.381 C 326.51389,326.72723 323.16791,326.37552 321.71685,325.64492 C 320.21718,324.88984 318.45118,323.26586 317.66838,321.78047 C 316.54706,319.65273 317.10768,317.55309 317.30034,315.15569 C 317.48213,312.89347 319.33906,311.32944 320.61273,309.45102 C 321.90993,307.53791 324.44368,305.53526 326.50142,304.48244 C 327.31198,304.06773 328.5361,303.70752 329.44576,303.74635 z"/>
      <path class="claw outline" d="M 356.49692,318.46807 C 356.49692,318.46807 359.86982,316.6545 361.4655,316.44384 C 362.34802,316.32733 362.92424,316.33164 363.67376,316.81188 C 365.26034,317.82844 366.90878,320.26579 366.98614,322.14851 C 367.09055,324.68946 364.42799,327.51144 363.12169,329.69339 C 362.22494,331.19126 360.54539,334.47795 360.54539,334.47795 C 360.54539,334.47795 356.26861,324.81595 356.03693,322.83116 C 355.75912,320.45119 356.39658,318.66876 356.49692,318.46807 z"/>
      <path class="claw outline" d="M 387.04449,300.61799 C 388.30351,300.20155 390.24668,300.26913 391.46101,300.80201 C 392.96236,301.46084 394.7724,303.12301 395.32546,304.66646 C 396.09261,306.80738 395.36972,310.0752 394.58938,312.21134 C 393.55427,315.04491 388.88471,320.49231 388.88471,320.49231 C 388.88471,320.49231 388.99925,315.70497 388.70069,313.68352 C 388.51675,312.43813 388.36292,310.6338 387.59656,309.63504 C 386.66279,308.4181 383.94402,308.38885 383.18004,307.05874 C 382.68511,306.19705 382.75216,304.64323 383.18004,303.74635 C 383.82229,302.40011 385.62835,301.0864 387.04449,300.61799 z"/>
      <path class="outline" d="M 106.25716,209.42787 C 106.25716,209.42787 108.47999,200.48781 110.34137,196.78715 C 111.55465,194.37498 115.96386,189.75904 115.96386,189.75904"/>
    </g>
    <g transform="translate(-25.163704,-65.527947)">
      <path class="body outline" d="M 107.14112,146.48399 C 107.14112,146.48399 105.6694,141.5954 106.06971,139.51982 C 106.84745,135.48733 111.95092,131.69574 113.03388,127.7343 C 113.75433,125.0989 113.03388,118.6273 113.03388,118.6273 C 113.03388,118.6273 120.79619,119.34486 123.748,120.77012 C 126.21257,121.96012 129.18358,124.47919 129.18358,124.47919 C 129.18358,124.47919 129.43418,121.29308 130.17646,119.16301 C 131.03738,116.69252 133.76744,114.57876 134.54064,112.07943 C 135.21235,109.90815 134.99781,105.23466 134.99781,105.23466 C 134.99781,105.23466 141.74083,107.74051 143.5691,110.05601 C 144.29414,110.97428 144.64052,113.80595 144.64052,113.80595 C 144.64052,113.80595 149.70802,107.85543 149.99757,104.69896 C 150.16941,102.82574 147.85475,98.806194 147.85475,98.806194 C 147.85475,98.806194 155.55939,100.58879 157.49745,103.09184 C 159.2929,105.41071 159.10457,112.73454 159.10457,112.73454 C 159.10457,112.73454 160.85613,107.54671 162.3188,105.77037 C 164.58706,103.01568 171.9615,98.806194 171.9615,98.806194 L 170.89009,109.52031 C 170.89009,109.52031 175.40941,107.35924 177.31856,107.91319 C 181.79459,109.21194 185.88378,115.02734 188.03267,119.16301 C 188.78834,120.61735 189.10408,124.52006 189.10408,124.52006 C 189.10408,124.52006 193.33851,118.68658 196.06825,117.55589 C 197.99847,116.75637 203.03243,117.55589 203.03243,117.55589 C 203.03243,117.55589 201.56024,123.19271 201.96102,125.59147 C 202.73088,130.19931 208.41543,134.876 208.92519,139.51982 C 209.1421,141.49584 207.31807,145.94829 207.31807,145.94829 C 207.31807,145.94829 214.81188,157.49533 216.42507,163.09087 C 218.25526,169.43911 215.73722,177.72874 218.90566,183.52621 C 219.67639,184.93646 221.58633,186.65765 223.19131,186.74044 C 225.06303,186.837 227.67489,185.0548 227.67489,185.0548 C 227.67489,185.0548 227.34014,189.95591 226.06777,191.48326 C 224.82485,192.97526 220.17501,194.16179 220.17501,194.16179 C 220.17501,194.16179 221.10543,198.08778 221.24642,200.59026 C 221.38741,203.09274 220.41513,208.60325 222.02093,211.20541 C 223.4949,213.59393 226.32022,215.32971 229.06363,214.73698 C 229.74485,214.5898 231.60239,214.83169 232.32731,214.04327 C 233.85135,212.38574 234.10335,209.16155 234.10335,209.16155 C 234.10335,209.16155 235.34401,213.78776 234.63906,215.59002 C 233.68605,218.02646 232.13249,219.59204 229.95755,221.04604 C 227.74599,222.52452 221.44137,222.89322 220.17501,225.23272 C 218.01116,229.23026 223.14326,235.76244 222.31783,240.23248 C 221.71691,243.48672 217.41601,246.59739 216.96077,249.87518 C 216.57466,252.6552 217.11338,255.7711 218.66686,258.10869 C 219.87674,259.92925 221.54602,262.16759 223.68614,262.61271 C 225.13678,262.91443 227.87189,262.56379 228.94423,261.5413 C 230.27039,260.27679 231.08154,258.10359 231.42482,256.30364 C 231.69746,254.8741 231.96053,251.48229 231.96053,251.48229 C 231.96053,251.48229 234.513,256.14544 234.51965,258.44647 C 234.52526,260.38835 233.7302,262.83981 232.49624,264.33923 C 230.73924,266.4742 227.5816,268.71562 224.99636,269.69628 C 222.12557,270.78526 217.83161,271.35522 214.81795,270.76769 C 212.13634,270.2449 206.78237,266.48205 206.78237,266.48205 C 206.78237,266.48205 206.61011,270.6373 206.24666,272.37481 C 205.72638,274.86205 205.46156,278.7157 203.56813,280.4104 C 201.85356,281.94501 196.06825,282.01751 196.06825,282.01751 C 196.06825,282.01751 198.40026,291.24707 200.8896,294.33874 C 201.97982,295.69275 204.06955,296.98052 205.71095,297.55298 C 207.53823,298.19027 210.30695,298.7109 212.13942,298.08868 C 214.40171,297.32051 216.80592,294.78207 218.03218,292.73163 C 218.71239,291.59425 219.1036,288.44598 219.1036,288.44598 C 219.1036,288.44598 220.35959,295.84114 219.1036,298.62439 C 217.6049,301.94548 213.4457,305.48548 209.9966,306.65997 C 207.70954,307.43876 204.27834,306.8078 201.96102,306.12427 C 200.37399,305.65615 198.72767,303.91057 197.13967,303.44574 C 194.66702,302.72196 188.56838,302.91003 188.56838,302.91003 C 188.56838,302.91003 189.31726,308.16431 189.10408,310.40991 C 188.86829,312.89366 187.72161,316.06926 186.96126,318.44549 C 186.54279,319.75329 185.79523,321.42787 186.22762,322.73114 C 187.06989,325.26984 190.17956,327.51114 192.85402,327.55249 C 194.728,327.58146 197.34638,326.00107 198.21108,324.33826 C 199.25178,322.33698 197.67537,316.83838 197.67537,316.83838 C 197.67537,316.83838 201.60483,322.60871 201.42531,325.40967 C 201.30543,327.28003 199.71696,329.65095 198.21108,330.76672 C 196.08144,332.34466 192.28749,332.78723 189.63979,332.90955 C 187.52821,333.0071 184.62416,332.65755 182.67561,331.83813 C 180.45343,330.90364 177.92359,328.74909 176.24715,327.01678 C 173.51867,324.19738 170.55817,319.78323 168.74727,316.30267 C 167.87905,314.63394 165.41632,311.76777 165.41632,311.76777 C 165.41632,311.76777 162.12678,311.61158 160.17598,311.48132 C 157.99492,311.33568 154.92434,310.69697 153.2118,309.3385 C 151.46263,307.95097 150.40385,304.93426 149.46187,302.91003 C 148.45387,300.74393 146.78334,295.41015 146.78334,295.41015 C 146.78334,295.41015 138.57431,300.80537 137.14064,304.51715 C 136.38565,306.47183 136.95235,309.51494 137.67634,311.48132 C 138.4316,313.53261 140.48744,315.76041 141.96199,317.37408 C 143.11442,318.63523 146.24763,321.12402 146.24763,321.12402 C 146.24763,321.12402 139.02807,321.87851 136.06923,321.12402 C 132.16668,320.1289 125.85925,316.0787 123.00646,313.23586 C 120.40804,310.64651 118.28853,306.65957 116.93124,303.25159 C 115.5178,299.70263 115.17671,291.66021 115.17671,291.66021 L 116.07734,284.1837 C 116.07734,284.1837 112.54256,287.75222 111.96247,290.0531 C 111.45172,292.07896 111.96247,297.01727 111.96247,297.01727 C 111.96247,297.01727 107.98502,288.57458 107.14112,284.69604 C 106.52514,281.86501 106.01826,277.89049 106.60542,275.05334 C 107.04239,272.94191 109.81965,268.62487 109.81965,268.62487 C 109.81965,268.62487 104.74426,259.86251 103.39118,255.76794 C 101.65019,250.49952 99.833636,243.09195 100.17695,237.55395 C 100.44745,233.1905 104.46259,223.6256 104.46259,223.6256 L 98.569833,225.23272 C 98.569833,225.23272 91.768843,218.37933 91.069954,214.51861 C 90.153423,209.45561 93.419187,202.67873 95.355599,197.91173 C 96.330864,195.51085 98.619466,192.7933 99.641244,190.41185 C 100.96441,187.32796 102.85548,179.69774 102.85548,179.69774 C 102.85548,179.69774 97.211233,177.47989 95.891305,175.4121 C 94.411153,173.0933 94.819893,166.3051 94.819893,166.3051 C 94.819893,166.3051 98.7008,169.46919 100.71266,170.05504 C 102.25568,170.50437 104.75949,168.30808 104.75949,168.30808 C 104.75949,168.30808 101.69746,162.0631 101.24836,158.26952 C 100.99985,156.17034 101.36428,153.1909 102.31977,151.30534 C 103.24438,149.48071 107.14112,146.48399 107.14112,146.48399 z"/>
      <path class="teeth outline" d="M 143.53762,175.88027 C 143.53762,175.88027 143.19571,185.65082 143.59205,188.55499 C 143.90427,190.84273 146.21375,193.88328 146.21375,193.88328 C 146.21375,193.88328 148.78521,191.30626 149.10695,188.98393 C 149.51637,186.02877 149.37644,176.12355 149.37644,176.12355 L 143.53762,175.88027 z"/>
      <path class="teeth outline" d="M 174.85661,175.80955 C 174.85661,175.80955 174.5147,185.5801 174.91104,188.48427 C 175.22326,190.77201 177.53274,193.81256 177.53274,193.81256 C 177.53274,193.81256 180.1042,191.23554 180.42594,188.91321 C 180.83536,185.95805 180.69543,176.05283 180.69543,176.05283 L 174.85661,175.80955 z"/>
      <path class="white outline" d="M 149.34544,142.89806 A 12.504578,7.3608503 0 1 1 124.33629,142.89806 A 12.504578,7.3608503 0 1 1 149.34544,142.89806 z" transform="matrix(0.9158702,-0.4014745,0.4014745,0.9158702,-43.729092,67.891117)"/>
      <path class="white outline" d="M 149.34544,142.89806 A 12.504578,7.3608503 0 1 1 124.33629,142.89806 A 12.504578,7.3608503 0 1 1 149.34544,142.89806 z" transform="matrix(-0.9158702,-0.4014745,-0.4014745,0.9158702,361.93067,66.605363)"/>
      <path class="outline" d="M 161.45059,136.42672 C 161.45059,136.42672 165.4155,137.63433 166.32779,138.5728 C 168.08672,140.38222 168.32378,144.21157 170.28681,145.79724 C 171.22069,146.5516 173.11978,147.70814 174.13165,148.35414 C 174.69571,148.71425 175.46371,149.96656 177.17688,150.56002 C 179.251,151.27851 182.44471,150.66663 183.54981,151.12453 C 187.13431,152.60978 192.68195,158.6249 193.86529,162.32007 C 194.24726,163.51284 193.42128,165.22804 192.97844,166.39957 C 191.85824,169.3631 189.05755,172.70013 187.83472,175.62281 C 187.32127,176.85 186.74465,178.55807 186.59313,179.87969 C 186.48387,180.83272 186.62692,182.12387 186.7705,183.07234 C 186.86901,183.72311 186.93622,184.65401 187.30261,185.20078 C 188.00169,186.24403 189.86084,186.24323 190.49441,187.32752"/>
      <path class="outline" d="M 150.40967,139.26198 C 150.40967,139.26198 151.35963,140.8802 150.35548,143.3935 C 149.55188,145.40487 146.90077,148.34007 145.9281,148.8788 C 142.81042,150.60558 138.38732,151.89879 135.94284,152.9057 C 133.45557,153.93024 130.90559,155.35822 130.53416,155.57971 C 129.56926,156.15509 127.80305,156.05893 127.01486,156.85946 C 125.1621,158.74122 123.79996,162.55842 124.13543,165.17781 C 124.7509,169.98346 132.3353,173.82997 133.09365,178.61515 C 133.98308,184.22748 127.89722,191.1697 127.97467,196.85154 C 128.01439,199.76568 131.33543,200.69582 130.8541,203.57021 C 130.55924,205.33104 127.33479,210.92875 127.33479,210.92875 C 127.33479,210.92875 133.98081,207.06608 135.97308,204.53002 C 137.19543,202.97403 138.53258,198.45122 138.53258,198.45122 C 138.53258,198.45122 136.39506,207.93101 137.25283,211.88856 C 138.19093,216.21673 142.06229,221.62713 142.06229,221.62713 C 142.06229,221.62713 142.43405,217.62605 143.27181,215.4781 C 143.86368,213.96059 148.13068,213.16831 148.13068,213.16831 C 148.13068,213.16831 146.70099,217.36906 146.53099,219.24711 C 146.41817,220.49345 146.39967,222.23904 146.85093,223.40628 C 147.64017,225.44773 149.70519,227.69876 151.33004,229.16514 C 152.00226,229.77179 153.88954,230.76483 153.88954,230.76483 C 153.88954,230.76483 152.34379,226.53056 152.60979,224.68603 C 152.81206,223.2834 154.84935,220.52685 154.84935,220.52685 C 154.84935,220.52685 155.80065,226.69334 156.76897,229.16514 C 157.25534,230.40668 158.26268,231.98918 158.66864,233.25929 C 159.63694,236.28874 158.8772,237.77815 158.43888,240.92824 C 158.25464,242.25234 156.8392,246.10705 156.8392,246.10705 C 156.8392,246.10705 162.83503,243.07178 164.25756,240.59789 C 165.21086,238.94003 165.5068,235.83523 165.5824,233.92432 C 165.63302,232.64477 165.64222,232.56913 165.64222,232.56913 C 165.64222,232.56913 167.83555,235.07342 168.20172,236.40837 C 168.68478,238.16948 168.37184,238.58226 167.96675,240.36293 C 167.41318,242.79626 166.07174,244.44148 166.04192,246.93681 C 166.01977,248.79038 167.07162,251.29123 168.28148,252.69567 C 170.73623,255.5452 177.88999,258.15453 177.88999,258.15453 C 177.88999,258.15453 175.05233,252.71505 174.69063,250.15612 C 174.42062,248.24591 175.92908,246.329 176.60504,244.5221 C 177.59414,241.87817 180.99926,239.46608 182.04396,236.84362 C 182.79747,234.95212 183.0868,232.15932 183.00377,230.12495 C 182.91547,227.96132 182.22514,225.09008 181.40409,223.08635 C 180.50526,220.8928 177.24491,216.36768 177.24491,216.36768 C 177.24491,216.36768 176.60549,215.92913 178.34835,217.385 C 179.68818,218.50422 183.40902,221.40333 183.96358,222.44647 C 184.91934,224.24427 186.02799,228.48538 186.02799,228.48538 C 186.02799,228.48538 188.01133,223.51819 188.12276,220.84679 C 188.22277,218.44935 185.54332,213.7631 185.54332,213.7631 L 184.28352,210.60882 C 184.28352,210.60882 188.64328,213.51828 189.72244,215.40787 C 190.98271,217.61458 192.17182,222.87653 192.17182,222.87653 C 192.17182,222.87653 195.68441,216.43189 195.41628,213.48825 C 195.26826,211.8633 194.64933,209.99882 193.96138,208.51926 C 193.30761,207.1132 190.68225,203.89015 190.68225,203.89015 C 190.68225,203.89015 194.95334,204.8065 195.9401,206.03306 C 197.07046,207.43813 199.35522,212.01862 199.35522,212.01862 C 199.35522,212.01862 201.66947,207.90983 202.04523,203.56437 C 202.33649,200.1961 199.9068,194.02433 198.57861,193.05547 L 189.77009,186.63003"/>
      <path class="langue outline" d="M 149.15195,179.71237 C 149.15195,179.71237 149.67266,193.59169 152.91537,199.39924 C 154.7723,202.72493 161.6967,209.60724 161.6967,209.60724 C 161.6967,209.60724 169.74971,201.7131 171.73251,198.42705 C 175.13877,192.78195 174.49235,178.25408 174.49235,178.25408 L 169.22356,170.96266 L 153.66805,171.2057 L 149.15195,179.71237 z"/>
      <path class="body outline" d="M 136.52707,165.24794 C 136.52707,165.24794 134.50769,166.64826 135.75973,169.26514 C 136.65451,171.1353 141.07956,173.55041 141.59666,174.85758 C 142.12557,176.19462 142.79323,179.97903 142.79323,179.97903 C 142.79323,179.97903 147.37316,181.28253 148.99529,180.83322 C 151.0972,180.25102 153.23432,177.974 155.22941,177.09275 C 157.01551,176.30381 161.46352,175.22252 161.46352,175.22252 L 160.84011,162.13088 C 160.69199,162.30016 154.28203,155.58708 152.21705,152.97848 C 151.47377,152.03953 149.31817,153.92051 149.62565,155.07789 C 150.69637,159.10826 161.09856,162.00185 160.80645,162.19659 C 160.80645,162.19659 171.0625,158.59351 171.19482,154.61954 C 171.22123,153.82651 169.97712,152.29787 169.32459,152.74931 C 166.73204,154.5429 161.21242,162.57375 160.80645,162.13088 L 161.42986,175.22252 C 161.42986,175.22252 166.1027,176.35065 167.66558,177.02865 C 169.24741,177.71487 171.02845,180.09882 172.68653,180.572 C 175.052,181.24705 180.98772,178.76313 180.98772,178.76313 C 180.98772,178.76313 180.64354,175.64186 180.99583,174.47118 C 181.53781,172.67016 185.20749,170.30731 186.44878,167.99884 C 187.57029,165.91315 185.6788,164.52517 185.6788,164.52517"/>
      <path class="outline" d="M 117.28348,125.13276 C 117.28348,125.13276 120.1702,127.52975 120.31906,128.99622 C 120.48732,130.65379 117.46252,132.3397 117.83541,133.96352 C 118.13931,135.2869 121.36096,135.36671 121.4229,136.72313 C 121.56186,139.7663 113.97195,143.62216 113.97195,143.62216 C 113.97195,143.62216 117.76468,134.91854 118.11137,130.92795 C 118.26337,129.17833 117.28348,125.13276 117.28348,125.13276 z"/>
      <path class="outline" d="M 197.84472,123.06782 C 197.84472,123.06782 196.40958,131.04545 198.45009,133.89296 C 199.92732,135.95443 202.14844,139.64623 202.14844,139.64623 C 202.14844,139.64623 200.18338,139.65656 199.49983,139.23289 C 197.81889,138.19101 197.72148,136.75299 196.75461,134.61956 C 196.08026,133.13158 194.52501,130.53619 194.21508,128.30427 C 193.95206,126.41023 197.84472,123.06782 197.84472,123.06782 z"/>
      <path class="white outline" d="M 149.95408,141.35471 A 8.0072575,8.0072575 0 1 1 133.93957,141.35471 A 8.0072575,8.0072575 0 1 1 149.95408,141.35471 z"/>
      <path class="white outline" d="M 149.95408,141.35471 A 8.0072575,8.0072575 0 1 1 133.93957,141.35471 A 8.0072575,8.0072575 0 1 1 149.95408,141.35471 z" transform="translate(33.970233,-1.4815536)"/>
      <path class="pupil outline" d="M 176.57545,132.98387 C 175.97176,132.98216 175.43021,133.07631 174.88795,133.14012 C 173.80343,133.26774 172.88795,133.45262 172.88795,133.45262 L 173.6692,136.85887 C 173.6692,136.85887 174.41539,136.71228 175.2942,136.60887 C 176.17301,136.50546 177.27509,136.65333 177.1067,136.57762 C 177.03029,136.54326 177.73916,137.33688 177.7942,137.51512 C 177.97082,138.08712 177.86809,140.22176 177.58137,140.80067 C 177.48088,141.00357 176.66348,141.72152 176.61262,141.73817 C 176.87277,141.65298 176.00902,141.72802 175.36262,141.61317 C 174.71623,141.49832 174.17512,141.36317 174.17512,141.36317 C 174.17512,141.36317 172.40414,141.15255 172.1531,141.73139 C 171.82031,142.49873 173.1692,144.32762 173.1692,144.32762 C 173.1692,144.32762 173.86581,144.49183 174.70045,144.64012 C 175.53509,144.78841 176.38656,145.04992 177.63795,144.64012 C 179.12971,144.1516 180.04927,143.20432 180.6692,141.95262 C 181.50127,140.27258 181.70507,138.32049 181.13795,136.48387 C 180.73512,135.17931 180.03601,134.06088 178.5442,133.39012 C 177.83708,133.07218 177.17914,132.98558 176.57545,132.98387 z"/>
      <path class="body outline" d="M 175.12434,127.61583 C 175.12434,127.61583 172.3628,128.0464 171.22221,128.50268 C 168.98206,129.39883 166.72261,131.42844 166.43322,133.82377 C 166.28192,135.07611 166.76674,136.14084 167.67481,137.01643 C 168.65139,137.95808 170.22172,137.84194 171.57695,137.90328 C 173.56162,137.99312 176.02456,136.43029 177.96226,136.66169 C 180.75206,136.99485 184.36953,138.70461 186.47602,140.56383 C 187.46134,141.43349 187.67966,143.57277 188.78182,144.2886 C 189.77266,144.93213 191.62857,145.35179 192.68396,144.82071 C 193.7689,144.27476 194.33287,142.44969 194.63503,141.27331 C 194.78065,140.70639 194.79997,139.88384 194.63503,139.32224 C 194.38547,138.47252 193.65121,137.4787 193.0387,136.83906 C 192.2729,136.03934 190.02341,134.71062 190.02341,134.71062"/>
      <path class="pupil outline" d="M 142.54423,134.10752 C 141.94054,134.10581 141.39899,134.19996 140.85673,134.26377 C 139.77221,134.39139 138.85673,134.57627 138.85673,134.57627 L 139.63798,137.98252 C 139.63798,137.98252 140.38417,137.83593 141.26298,137.73252 C 142.14179,137.62911 143.24387,137.77698 143.07548,137.70127 C 142.99907,137.66691 143.70794,138.46053 143.76298,138.63877 C 143.9396,139.21077 143.83687,141.34541 143.55015,141.92432 C 143.44966,142.12722 142.63226,142.84517 142.5814,142.86182 C 142.84155,142.77663 141.9778,142.85167 141.3314,142.73682 C 140.68501,142.62197 140.1439,142.48682 140.1439,142.48682 C 140.1439,142.48682 138.37292,142.2762 138.12188,142.85504 C 137.78909,143.62238 139.13798,145.45127 139.13798,145.45127 C 139.13798,145.45127 139.83459,145.61548 140.66923,145.76377 C 141.50387,145.91206 142.35534,146.17357 143.60673,145.76377 C 145.09849,145.27525 146.01805,144.32797 146.63798,143.07627 C 147.47005,141.39623 147.67385,139.44414 147.10673,137.60752 C 146.7039,136.30296 146.00479,135.18453 144.51298,134.51377 C 143.80586,134.19583 143.14792,134.10923 142.54423,134.10752 z"/>
      <path class="body outline" d="M 126.6421,135.89195 C 126.6421,135.89195 124.32059,140.75327 123.80418,142.98675 C 123.47965,144.39035 122.91413,146.43825 123.44944,147.77573 C 124.00938,149.17475 125.68041,151.34411 127.17421,151.14576 C 128.05211,151.02919 128.37083,149.45285 128.77054,148.66258 C 129.64475,146.93418 129.83471,144.11859 131.07635,142.63201 C 132.59149,140.81798 135.51541,139.09265 137.81641,138.5525 C 140.31156,137.96678 143.76873,139.35104 146.33016,139.26198 C 147.72908,139.21334 149.69318,139.18521 150.94178,138.5525 C 152.15004,137.94023 154.13444,135.35984 154.13444,135.35984 C 154.13444,135.35984 152.99707,132.45613 152.006,131.63507 C 150.74904,130.59373 148.48148,130.06754 146.86227,129.86138 C 144.8502,129.60521 142.13545,130.14672 140.12221,130.39349 C 139.15842,130.51163 136.92956,130.9256 136.92956,130.9256"/>
      <path class="outline" d="M 102.68249,179.18294 C 102.68249,179.18294 106.66552,179.96113 108.27786,179.48539 C 111.61138,178.5018 115.62617,175.50302 117.65387,172.68022 C 118.09756,172.06256 118.41,170.2606 118.41,170.2606"/>
      <path class="outline" d="M 98.90184,225.15566 C 98.90184,225.15566 97.782248,217.99244 98.448162,215.02351 C 99.043326,212.37002 100.87625,209.04145 102.68249,207.00853 C 106.34353,202.88804 117.8051,196.57393 117.8051,196.57393"/>
      <path class="outline" d="M 118.41,206.85731 C 118.41,206.85731 110.29185,213.64277 107.67295,217.2919 C 106.38328,219.0889 104.4972,223.94585 104.4972,223.94585"/>
      <path class="outline" d="M 119.16613,224.70198 C 119.16613,224.70198 114.93967,230.34173 113.57077,233.01941 C 111.89816,236.29117 110.17798,240.93574 109.33644,244.51259 C 108.57341,247.75572 108.04012,252.22154 108.12663,255.5521 C 108.22211,259.22789 109.94134,268.70876 109.94134,268.70876"/>
      <path class="outline" d="M 116.05841,284.02886 C 116.05841,284.02886 121.43929,278.73922 121.47119,274.05311 C 121.49444,270.63883 117.28277,266.07066 116.66045,262.7135 C 116.04398,259.38786 117.17302,253.5215 118.7222,250.51484 C 119.30672,249.38041 121.81482,247.59403 121.81482,247.59403"/>
      <path class="outline" d="M 145.86852,296.38869 C 145.86852,296.38869 150.56868,290.60003 150.50745,287.62627 C 150.37478,281.18303 143.46171,275.26013 144.49402,268.89874 C 144.70349,267.60795 146.81628,265.36681 147.28855,262.95685 C 147.63408,261.19363 146.97815,258.06964 146.72759,257.38733 C 145.99715,255.39827 140.88597,253.77927 140.88597,253.77927"/>
      <path class="outline" d="M 138.93927,321.19867 C 138.93927,321.19867 132.79625,315.96835 130.36877,312.72626 C 128.14096,309.75086 126.69883,306.45222 126.56148,304.74305 C 126.30801,301.58892 126.33309,299.13046 126.95187,296.02725 C 128.19831,289.77637 134.52976,282.97006 135.46399,276.66495 C 135.73918,274.80772 134.32293,272.13968 135.0736,270.41877 C 135.73912,268.89308 138.48942,268.31916 139.36785,266.9053 C 140.19245,265.57808 140.72362,263.38186 140.53901,261.83028 C 140.41525,260.7901 138.97746,258.70719 138.97746,258.70719"/>
      <path class="outline" d="M 130.38897,240.74943 C 130.38897,240.74943 128.07504,244.99359 127.65626,246.9956 C 127.24861,248.94439 126.75631,251.8562 127.65626,253.63217 C 128.64097,255.5754 132.52735,255.98319 133.51206,257.92642 C 134.46495,259.80685 134.45483,263.06784 133.51206,264.95337 C 132.72642,266.52464 128.82742,268.46684 128.82742,268.46684 C 128.82742,268.46684 126.68447,260.86167 126.87549,257.53603 C 126.9456,256.31532 128.04665,253.63217 128.04665,253.63217"/>
      <path class="outline" d="M 177.2353,264.17259 C 177.2353,264.17259 180.65934,271.69356 180.06678,275.07048 C 179.63218,277.54722 176.06974,279.97496 176.16291,282.48782 C 176.20385,283.59193 178.11485,285.61091 178.11485,285.61091 C 178.11485,285.61091 175.32351,286.82614 174.21098,286.39168 C 172.72716,285.81223 171.64056,283.59143 171.08789,282.09743 C 170.06882,279.34263 171.36128,276.17447 169.81326,273.67826 C 169.09344,272.51755 165.13333,270.41877 165.13333,270.41877 C 165.13333,270.41877 169.29414,284.39648 167.80489,289.25138 C 166.84188,292.39074 161.07297,291.52814 160.05831,295.40348 C 159.4584,297.69477 159.68846,301.41254 161.22947,303.2112 C 162.50678,304.70208 165.38858,305.37871 167.13618,304.4842 C 168.78456,303.64048 170.25927,301.14046 170.25927,301.14046 C 170.25927,301.14046 171.46015,305.90415 170.42901,307.60729 C 169.59268,308.98866 166.6779,311.62997 166.6779,311.62997"/>
      <path class="outline" d="M 184.80964,289.66226 C 184.80964,289.66226 183.31755,293.38587 183.57483,295.0131 C 184.13704,298.56898 189.74887,305.30317 189.74887,305.30317"/>
      <path class="outline" d="M 196.33452,283.07662 L 194.68811,275.25617 L 193.8649,262.49648"/>
      <path class="outline" d="M 198.80413,245.20916 C 198.80413,245.20916 196.83492,251.90767 197.56933,254.67603 C 198.88019,259.61727 207.8594,268.25892 207.8594,268.25892"/>
      <path class="outline" d="M 208.271,209.39972 C 208.271,209.39972 208.516,215.53917 209.91741,217.63178 C 211.8993,220.59118 221.03069,223.39421 221.03069,223.39421"/>
      <path class="outline" d="M 200.45055,220.513 C 200.45055,220.513 209.90545,230.49456 212.38703,235.7423 C 214.82042,240.88813 216.50305,254.26442 216.50305,254.26442"/>
      <path class="medial-sulcus outline" d="M 160.3125,176 C 159.85666,192.56862 160.46875,198.78125 160.46875,198.78125 L 161.53327,202.15771 L 162.78125,198.5625 C 162.78125,198.5625 162.20237,192.55984 162.65625,176.0625 L 160.3125,176 z"/>
    </g>
  </g>
</svg>
