<?xml version="1.0" encoding="UTF-8" standalone="no"?>
<svg xmlns:svg="http://www.w3.org/2000/svg" xmlns="http://www.w3.org/2000/svg" width="47.894" height="39.028">
  <path class="body outline" d="M -18.2065 -6.4941 C -18.2065 -6.4941 -17.7555 -7.9386 -17.2435 -8.2557 C -17.0876 -8.3522 -16.8759 -8.2013 -16.6328 -8.2791 C -16.3715 -8.3629 -15.7893 -8.5077 -15.7169 -8.7724 C -15.6428 -9.0432 -15.9987 -9.6649 -15.9987 -9.6649 C -15.9987 -9.6649 -16.8113 -10.3571 -17.2435 -10.4164 C -17.7143 -10.4811 -18.7701 -9.9937 -18.7701 -9.9937 L -19.0755 -8.7254 L -18.2065 -6.4941 z"/>
  <path class="body outline" d="M 3.6191 14.9013 C 3.6191 14.9013 1.8857 15.1652 1.4791 14.7515 C 1.3528 14.623 1.4453 14.424 1.3722 14.2593 C 1.2856 14.0643 1.1562 13.898 0.9442 13.8741 C 0.608 13.8363 0.2847 14.2694 0.1096 14.5589 C -0.1241 14.9454 -0.1472 15.9499 -0.1472 15.9499 L 0.5376 16.8486 L 2.6366 16.7015 L 3.6191 14.9013 z"/>
  <path class="body outline" d="M 17.0175 5.3876 C 17.0175 5.3876 13.2479 8.1843 11.8915 9.6554 C 11.5678 10.0065 11.0987 10.4959 10.9753 10.9573 C 10.8672 11.3616 10.9596 11.9529 11.1016 12.3466 C 11.2591 12.7832 11.538 13.4725 11.9774 13.6219 C 12.3789 13.7584 13.3219 13.1859 13.3219 13.1859 C 13.3219 13.1859 12.845 14.1361 12.4705 14.3554 C 12.194 14.5173 11.7247 14.5404 11.4099 14.481 C 11.1733 14.4364 10.7022 14.1028 10.7022 14.1028 C 10.7022 14.1028 10.7092 14.6695 10.5737 14.8861 C 10.3935 15.1742 9.7961 15.6018 9.7961 15.6018 C 9.7961 15.6018 9.8142 15.1762 9.8092 15.005 C 9.8006 14.7136 9.7244 14.3732 9.5692 14.1263 C 9.4754 13.9771 9.0556 13.841 9.0556 13.841 C 9.0556 13.841 9.2409 14.1506 9.2839 14.2975 C 9.3756 14.6115 9.4429 15.0578 9.398 15.3818 C 9.3727 15.5644 9.1506 15.7691 9.1697 15.9525 C 9.1953 16.198 9.1789 16.3412 9.3911 16.4674 C 9.5536 16.5641 9.7699 16.6845 9.9405 16.6029 C 10.0518 16.5496 10.3159 16.444 10.3516 16.3258 C 10.3814 16.2275 10.4823 16.0095 10.4823 16.0095 C 10.4823 16.0095 10.6462 16.3555 10.6278 16.6783 C 10.6179 16.8537 10.4712 17.0222 10.4053 17.1247 C 10.3711 17.1779 10.2687 17.4132 9.9926 17.4876 C 9.7242 17.5599 9.3999 17.5245 9.3396 17.5132 C 9.3396 17.5132 8.8057 17.4817 8.6094 17.3762 C 8.3085 17.2145 7.9909 16.8527 7.8166 16.5589 C 7.7195 16.3951 7.7335 16.1116 7.6289 15.9525 C 7.5423 15.8205 7.3092 15.7463 7.2295 15.6101 C 7.1413 15.4594 7.1415 15.4705 7.1415 15.4705 C 7.1415 15.4705 7.3 15.4988 7.3721 15.7813 C 7.452 16.0943 7.6289 16.9226 7.6289 16.9226 L 6.8677 16.7966 L 6.3638 16.3928 C 6.3638 16.3928 6.1913 16.2599 6.2023 16.1807 C 6.2141 16.0959 6.4019 16.0902 6.4306 16.0095 C 6.5014 15.81 6.2023 15.5529 6.2023 15.5529 C 6.2023 15.5529 6.4797 15.8236 6.4069 16.0257 C 6.3803 16.0995 6.2053 16.1099 6.2023 16.1882 C 6.1915 16.4713 6.5228 16.5831 6.8948 16.8303 C 7.1651 17.0099 7.5017 17.1176 7.5719 17.3221 C 7.6352 17.5067 7.4007 17.9498 7.4007 17.9498 L 6.0311 18.6346 C 6.0311 18.6346 5.4313 18.6581 5.2322 18.5205 C 4.9107 18.2982 4.3477 17.4362 4.3477 17.4362 L 4.262 17.4933 L 4.262 18.3493 C 4.262 18.3493 4.9202 18.9514 4.8327 19.2623 C 4.7705 19.4834 4.1479 19.6047 4.1479 19.6047 L 2.3788 19.7188 C 2.3788 19.7188 1.9858 19.4453 1.9223 19.2623 C 1.8262 18.9855 2.0364 18.2922 2.0364 18.2922 L 1.3516 18.5205 C 1.3516 18.5205 1.0933 19.3842 0.781 19.5476 C 0.6285 19.6274 0.3719 19.5497 0.2103 19.4906 C -0.1018 19.3763 -0.7027 18.8628 -0.7027 18.8628 L -1.2163 16.6943 C -1.2163 16.6943 -0.9389 16.327 -0.7598 16.2949 C -0.3811 16.227 0.4386 16.7514 0.4386 16.7514 C 0.4386 16.7514 1.7224 16.3701 2.1506 16.0095 C 2.6046 15.6272 2.8534 14.8094 3.2348 14.3546 C 3.4916 14.0484 3.8657 13.6528 4.205 13.4415 C 4.3291 13.3642 4.5163 13.2884 4.6615 13.2703 C 4.9692 13.232 5.3892 13.3043 5.6887 13.3845 C 5.9775 13.4618 6.3062 13.739 6.6017 13.7839 C 6.755 13.8072 7.1153 13.7269 7.1153 13.7269 C 7.1153 13.7269 6.0702 13.5124 5.6316 13.3845 C 5.091 13.2267 4.4216 12.8245 3.8626 12.7567 C 3.6918 12.736 3.4528 12.8746 3.2919 12.8138 C 2.9859 12.6982 2.6696 12.3193 2.55 12.0149 C 2.5313 11.9671 2.5864 11.88 2.55 11.8437 C 2.4169 11.7105 2.1034 11.8952 1.9223 11.8437 C 1.5156 11.728 1.0123 11.4111 0.7239 11.1018 C 0.4732 10.833 0.1522 10.3851 0.1533 10.0176 C 0.154 9.7265 0.407 9.3703 0.6098 9.1616 C 0.8983 8.8645 1.8082 8.4768 1.8082 8.4768 C 1.8082 8.4768 1.3987 9.0456 1.3516 9.3328 C 1.318 9.5383 1.342 9.85 1.4658 10.0176 C 1.534 10.1099 1.6969 10.1605 1.8082 10.1888 C 2.2896 10.3112 3.4631 10.2458 3.4631 10.2458 C 3.4631 10.2458 3.9772 9.2957 4.262 8.9333 C 4.6211 8.4764 5.1687 7.9149 5.6316 7.5637 C 5.882 7.3738 6.2573 7.1774 6.5447 7.0501 C 6.8912 6.8966 7.4568 6.8989 7.7431 6.6506 C 7.9166 6.5002 8.0022 6.1799 8.0855 5.9659 C 8.1758 5.7335 8.3178 5.4162 8.3137 5.1669 C 8.3055 4.6635 7.8001 3.5691 7.8001 3.5691 C 7.8001 3.5691 -5.1864 9.3658 -11.0978 9.1825 C -12.1842 9.1488 -13.6133 8.566 -14.5002 7.9377 C -14.9476 7.6208 -15.6621 6.5269 -15.6621 6.5269 C -15.6621 6.5269 -16.5759 6.9833 -16.7409 7.3568 C -16.862 7.631 -16.7536 8.0686 -16.6579 8.3527 C -16.5543 8.6603 -16.077 9.2655 -16.077 9.2655 C -16.077 9.2655 -17.0339 8.9795 -17.3218 8.6846 C -17.6255 8.3735 -17.8137 7.7824 -17.9027 7.3568 C -17.9843 6.9669 -17.933 6.597 -17.7367 6.2503 C -17.5937 5.9977 -17.1616 5.4867 -17.1616 5.4867 C -17.1616 5.4867 -17.7565 4.5592 -17.9802 4.1037 C -18.1761 3.7046 -18.4666 2.6925 -18.4666 2.6925 C -18.4666 2.6925 -18.9156 2.5801 -19.0496 2.6629 C -19.1694 2.7369 -19.3196 2.8683 -19.3815 2.9948 C -19.4697 3.1751 -19.5684 3.487 -19.4645 3.6587 C -19.3544 3.8408 -18.8006 3.9077 -18.8006 3.9077 C -18.8006 3.9077 -19.057 4.2228 -19.2155 4.2396 C -19.5477 4.2748 -20.0218 4.0167 -20.2114 3.7417 C -20.4953 3.3297 -20.4358 2.7788 -20.3093 2.2946 C -20.2325 2.0006 -19.9549 1.6674 -19.7284 1.4648 C -19.4959 1.2568 -18.8156 0.9668 -18.8156 0.9668 C -18.8156 0.9668 -19.3051 0.4268 -19.3965 0.137 C -19.4638 -0.0767 -19.3366 -0.394 -19.3965 -0.6099 C -19.474 -0.8897 -19.8814 -1.1497 -19.8944 -1.4398 C -19.9328 -2.2963 -18.6496 -4.0124 -18.6496 -4.0124 C -18.6496 -4.0124 -19.4314 -2.5082 -20.0604 -2.2696 C -20.3435 -2.1622 -21.0562 -2.4356 -21.0562 -2.4356 L -21.6371 -4.0124 C -21.6371 -4.0124 -21.5688 -4.564 -21.3881 -4.6763 C -20.9632 -4.9404 -19.7284 -4.5103 -19.7284 -4.5103 L -20.8072 -4.8422 L -20.8072 -6.087 L -19.8944 -6.502 C -19.8944 -6.502 -20.9425 -5.9538 -21.3881 -6.087 C -21.6417 -6.1628 -21.969 -6.7509 -21.969 -6.7509 L -21.7201 -7.9957 C -21.7201 -7.9957 -21.4514 -8.5646 -21.2222 -8.5766 C -20.6066 -8.6091 -19.7284 -7.1659 -19.7284 -7.1659 L -20.6413 -8.2447 L -20.3093 -8.7426 L -19.3965 -7.8298 L -20.3093 -8.8256 L -20.2263 -9.7385 L -19.8944 -9.7385 C -19.8944 -9.7385 -20.5182 -9.898 -20.6413 -10.0981 C -20.7853 -10.3323 -20.8428 -10.6674 -20.6966 -10.9003 C -20.4704 -11.2606 -19.3965 -11.4535 -19.3965 -11.4535 C -19.3965 -11.4535 -18.4037 -11.4928 -18.1517 -11.2322 C -17.9376 -11.0109 -17.8625 -10.7077 -17.9027 -10.4023 C -17.9362 -10.1482 -18.373 -9.6831 -18.373 -9.6831 C -18.373 -9.6831 -18.0764 -8.1803 -17.8197 -7.5808 C -17.5206 -6.8821 -16.9703 -6.0138 -16.4919 -5.4231 C -16.0375 -4.8621 -15.2015 -4.3261 -14.7492 -3.7634 C -14.0564 -2.9015 -13.3436 -1.5947 -12.8405 -0.6099 C -12.2011 0.6419 -11.0148 3.7054 -11.0148 3.7054 L 4.5037 0.22 L 11.2257 0.4689 L 15.7899 2.3776 L 17.0175 5.3876 z"/>
  <path class="outline" d="M 2.5148 11.7493 C 2.5148 11.7493 2.9473 11.6172 3.1139 11.5211 C 3.2667 11.433 3.5703 11.1502 3.5703 11.1502"/>
  <path class="outline" d="M 4.5688 11.2358 C 4.5688 11.2358 4.1581 11.3225 4.0268 11.4355 C 3.8787 11.5629 3.7294 11.8114 3.713 12.0061 C 3.6955 12.2137 3.9412 12.6622 3.9412 12.6622"/>
  <path class="outline" d="M 4.9967 11.4926 C 4.9967 11.4926 4.6259 11.7034 4.5688 11.8634 C 4.4841 12.1006 4.6161 12.4576 4.7114 12.6907 C 4.7626 12.8159 4.9682 13.0615 4.9682 13.0615"/>
  <path class="outline" d="M 5.7954 11.6352 C 5.7954 11.6352 5.4506 11.9613 5.3961 12.1487 C 5.3456 12.322 5.3868 12.5799 5.4531 12.7478 C 5.5406 12.969 5.9381 13.3753 5.9381 13.3753"/>
  <path class="outline" d="M 4.2265 17.4832 C 4.2265 17.4832 4.277 16.9968 4.312 16.8271 C 4.3597 16.5959 4.854 16.2566 4.854 16.2566"/>
  <path class="outline" d="M 2.144 18.1108 C 2.144 18.1108 2.1307 17.7731 2.201 17.6544 C 2.2979 17.4909 2.7145 17.2835 2.7145 17.2835"/>
  <path class="outline" d="M -17.1809 5.599 C -17.1809 5.599 -16.6941 5.1308 -16.5154 4.9335 C -16.3699 4.7729 -16.1643 4.5642 -15.983 4.4455 C -15.8734 4.3737 -15.5838 4.268 -15.5838 4.268"/>
  <path class="outline" d="M -18.5118 2.7153 C -18.5118 2.7153 -18.1141 2.5648 -17.9351 2.5378 C -17.6718 2.4983 -17.2966 2.6324 -17.0478 2.5378 C -16.7482 2.4239 -16.4512 2.0769 -16.2492 1.828 C -16.114 1.6614 -15.8943 1.2069 -15.8943 1.2069"/>
  <path class="outline" d="M -18.9111 0.9851 C -18.9111 0.9851 -18.2595 0.9897 -17.9827 0.7606"/>
  <path class="outline" d="M -18.5853 -2.5939 C -18.5853 -2.5939 -18.2383 -0.6335 -17.5726 -0.0466 C -17.1028 0.3675 -16.0487 0.564 -16.0487 0.564"/>
  <path class="claw outline" d="M -17.2444 -9.7785 C -17.2277 -9.5894 -17.1185 -9.3314 -16.9768 -9.205 C -16.8685 -9.1085 -16.6592 -9.0188 -16.518 -9.0521 C -16.3285 -9.0968 -16.1488 -9.1626 -16.0723 -9.3416 C -15.8651 -9.827 -15.7861 -10.4483 -15.9576 -10.9474 C -16.0875 -11.3252 -16.4435 -11.7971 -16.7988 -11.9797 C -16.9623 -12.0638 -17.1167 -12.136 -17.2958 -12.0944 C -17.4759 -12.0525 -17.9075 -11.865 -17.9075 -11.865 C -17.9075 -11.865 -17.504 -11.7194 -17.3723 -11.5974 C -17.225 -11.4611 -17.0861 -11.216 -17.0282 -11.0239 C -16.9552 -10.7821 -17.0643 -10.6032 -17.0915 -10.352 C -17.1106 -10.175 -17.2601 -9.9559 -17.2444 -9.7785 z"/>
  <path class="claw outline" d="M -21.769 -11.6356 C -21.769 -11.6356 -21.6669 -12.289 -21.3867 -12.515 C -21.1044 -12.7427 -20.6023 -12.908 -20.2397 -12.8973 C -19.9928 -12.89 -19.6605 -12.7547 -19.4751 -12.5914 C -19.1206 -12.2792 -18.8268 -11.8338 -18.7486 -11.368 C -18.7159 -11.1727 -18.6892 -10.9285 -18.7869 -10.7563 C -18.8991 -10.5582 -19.1327 -10.4536 -19.3604 -10.4504 C -19.5234 -10.4481 -19.7465 -10.675 -19.8574 -10.7945 C -20.143 -11.1024 -20.0874 -11.6998 -20.4309 -11.9415 C -20.5378 -12.0167 -20.7207 -12.0517 -20.8514 -12.0562 C -20.9683 -12.0602 -21.1191 -12.0027 -21.2338 -11.9797 C -21.4058 -11.9453 -21.769 -11.6356 -21.769 -11.6356 z"/>
  <path class="claw outline" d="M -21.6926 -7.0094 C -21.5748 -7.0314 -21.3849 -7.0305 -21.3102 -7.1241 C -21.2028 -7.259 -21.206 -7.5383 -21.272 -7.6976 C -21.3653 -7.9229 -21.4643 -8.1089 -21.6926 -8.1947 C -21.8214 -8.2431 -22.4042 -8.1265 -22.5337 -8.08 C -22.8557 -7.9642 -23.0592 -7.8075 -23.2219 -7.5065 C -23.37 -7.2323 -23.4299 -6.7715 -23.3366 -6.4742 C -23.2636 -6.2415 -22.9993 -6.0048 -22.8013 -5.8625 C -22.6803 -5.7754 -22.3425 -5.6713 -22.3425 -5.6713 C -22.3425 -5.6713 -22.5561 -6.2898 -22.4955 -6.5506 C -22.4602 -6.7026 -22.3258 -6.8951 -22.1896 -6.9712 C -22.059 -7.0441 -21.8396 -6.9821 -21.6926 -7.0094 z"/>
  <path class="claw outline" d="M -21.3867 -3.9508 C -21.2318 -4.0647 -20.9098 -3.8967 -20.775 -3.7596 C -20.6325 -3.6147 -20.5407 -3.3083 -20.5838 -3.1097 C -20.6322 -2.8872 -20.8874 -2.6562 -21.0808 -2.5362 C -21.3527 -2.3676 -21.7972 -2.2183 -22.1131 -2.2686 C -22.4493 -2.3221 -22.8692 -2.6046 -23.069 -2.8803 C -23.2844 -3.1776 -23.3959 -3.6989 -23.3748 -4.0655 C -23.3657 -4.225 -23.1837 -4.5625 -23.1837 -4.5625 C -23.1837 -4.5625 -23.0378 -4.0338 -22.8778 -3.8743 C -22.6559 -3.6532 -22.2336 -3.4856 -21.922 -3.4538 C -21.7586 -3.4371 -21.4791 -3.8829 -21.3867 -3.9508 z"/>
  <path class="claw outline" d="M 0.111 15.7114 C -0.1274 15.7355 -0.4301 15.5449 -0.6697 15.5426 C -1.031 15.5392 -1.8514 15.7747 -1.8514 15.7747 C -1.8514 15.7747 -1.4771 15.2594 -1.2606 15.0995 C -0.9984 14.9059 -0.5945 14.6658 -0.2688 14.6563 C -0.0185 14.649 0.3464 14.7638 0.512 14.9517 C 0.6196 15.0739 0.7109 15.3335 0.6386 15.4793 C 0.5618 15.6342 0.2831 15.694 0.111 15.7114 z"/>
  <path class="claw outline" d="M -0.8381 17.4005 C -0.6555 17.3947 -0.4082 17.4621 -0.2462 17.5505 C -0.0807 17.6409 0.1716 17.7932 0.2201 17.9818 C 0.251 18.102 0.166 18.2759 0.0945 18.3755 C 0.0435 18.4466 -0.0596 18.5114 -0.1386 18.5442 C -0.3055 18.6135 -0.5754 18.5433 -0.7305 18.638 C -0.8662 18.7208 -0.9932 18.9174 -1.0533 19.0692 C -1.1384 19.2839 -1.2011 19.3818 -1.1789 19.613 C -1.1618 19.7899 -0.9457 20.3254 -0.9457 20.3254 C -0.9457 20.3254 -1.5512 20.0497 -1.7169 19.8567 C -1.959 19.5747 -2.1106 19.2227 -2.0935 18.8442 C -2.0828 18.6052 -1.9251 18.3051 -1.7886 18.113 C -1.6203 17.8759 -1.3189 17.6175 -1.0712 17.4755 C -1.0071 17.4387 -0.9112 17.4028 -0.8381 17.4005 z"/>
  <path class="claw outline" d="M 2.7665 19.1708 C 2.8339 19.0884 2.9817 19.024 3.0881 19.0208 C 3.3507 19.0128 3.7549 19.1251 3.9027 19.3423 C 4.0148 19.5071 3.9447 19.812 3.9027 20.0068 C 3.8402 20.2966 3.6759 20.6721 3.4954 20.9072 C 3.3283 21.1247 2.7879 21.486 2.7879 21.486 C 2.7879 21.486 2.9249 20.856 2.8951 20.5856 C 2.8675 20.3349 2.6292 20.0444 2.6165 19.7925 C 2.6068 19.6009 2.6451 19.3193 2.7665 19.1708 z"/>
  <path class="claw outline" d="M 6.3464 17.7989 C 6.4813 17.602 6.8805 17.5849 7.1182 17.6059 C 7.3218 17.6239 7.4549 17.7096 7.5898 17.8632 C 7.767 18.065 7.8724 18.4533 7.847 18.7206 C 7.8312 18.8867 7.7035 19.0916 7.5898 19.2137 C 7.456 19.3573 7.368 19.514 7.1825 19.5781 C 6.9684 19.6521 6.4322 19.6639 6.4322 19.6639 C 6.4322 19.6639 6.7717 19.3045 6.8181 19.1065 C 6.8684 18.8913 6.8249 18.567 6.7109 18.3777 C 6.6492 18.2752 6.4499 18.245 6.3893 18.1419 C 6.3368 18.0524 6.2878 17.8844 6.3464 17.7989 z"/>
  <path class="body outline" d="M 8.3744 4.2863 C 7.8585 4.4914 7.3141 5.0483 6.9495 5.4669 C 6.7514 5.6944 6.4203 6.3218 6.4203 6.3218 C 6.4203 6.3218 7.222 6.2298 7.5601 6.159 C 8.2301 6.0187 9.075 5.5857 9.7585 5.5483 C 10.364 5.5153 11.1707 5.7058 11.7533 5.874 C 12.4159 6.0653 13.8703 6.7696 13.8703 6.7696 C 13.8703 6.7696 12.5006 4.4932 11.5091 4.0828 C 10.6383 3.7223 9.2501 3.9382 8.3744 4.2863 z"/>
  <path class="body outline" d="M -17.2803 14.9625 C -17.1832 14.834 -17.0063 14.6879 -16.8536 14.6363 C -16.7324 14.5952 -16.5496 14.5996 -16.427 14.6363 C -16.0989 14.7345 -15.7923 15.1391 -15.4734 15.2637 C -14.9546 15.4663 -13.6413 15.5648 -13.6413 15.5648 L -15.0342 17.1961 L -17.2426 17.3968 L -17.6442 16.7067 C -17.6442 16.7067 -17.6992 16.1495 -17.6567 15.9162 C -17.6016 15.6136 -17.4657 15.2079 -17.2803 14.9625 z"/>
  <path class="body outline" d="M -17.2677 14.9751 L -17.2677 14.9751 z"/>
  <path class="body outline" d="M 19.2176 15.8475 C 19.2176 15.8475 18.1117 15.9748 17.7125 15.7623 C 17.4388 15.6166 17.3635 15.0806 17.0877 14.9388 C 16.8225 14.8023 16.3663 14.7891 16.0938 14.9104 C 15.8895 15.0013 15.6111 15.4783 15.6111 15.4783 L 16.1222 16.9266 L 16.8322 17.0402 L 18.0419 17.0175 L 19.2176 15.8475 z"/>
  <path class="body outline" d="M -5.748 -1.0139 L -14.2998 14.2734 L -15.2837 16.6952 L -16.0405 16.8465 C -16.0405 16.8465 -16.9986 16.528 -17.4027 16.6195 C -17.673 16.6807 -18.1595 17.1493 -18.1595 17.1493 L -17.327 19.0412 C -17.327 19.0412 -16.9241 19.3296 -16.7216 19.344 C -16.5067 19.3592 -16.0405 19.1169 -16.0405 19.1169 L -15.7377 18.4358 C -15.7377 18.3151 -14.2338 17.1002 -13.8717 16.9977 C -13.7843 16.9729 -13.7867 16.7269 -13.8717 16.695 C -13.9644 16.6601 -14.0892 16.9707 -14.2752 17.147 C -14.5179 17.3769 -14.5762 17.5784 -14.6947 17.6746 C -15.1492 18.0436 -15.1102 18.1012 -15.208 18.5872 C -15.2505 18.7983 -14.9809 19.2683 -14.9809 19.2683 L -12.5592 19.571 C -12.5592 19.571 -11.7972 19.1443 -11.7267 18.8142 C -11.6439 18.4264 -12.1753 17.9914 -12.2565 17.6033 C -12.3169 17.3144 -12.5475 16.6684 -12.2565 16.6195 C -11.98 16.573 -12.3964 17.1669 -12.298 17.6126 C -12.177 18.1602 -11.5753 18.5872 -11.5753 18.5872 L -10.5915 18.6628 C -10.5915 18.6628 -9.5115 17.7657 -9.305 17.2249 C -9.2725 17.1401 -9.25 16.9945 -9.305 16.9222 C -9.5616 16.5845 -10.6672 16.5438 -10.6672 16.5438 C -10.6672 16.5438 -10.71 16.3679 -10.6415 16.2666 C -10.4887 16.041 -9.9104 16.1654 -9.9104 16.1654 L -9.6834 14.5761 L -9.305 15.56 C -9.305 15.56 -8.7798 14.8408 -8.6496 14.3999 C -8.5531 14.0733 -8.5419 13.5878 -8.6496 13.2647 C -8.7214 13.0493 -8.7495 12.8111 -8.7495 12.8111 C -8.7495 12.8111 -8.221 13.2651 -8.0439 13.6431 C -7.9376 13.8702 -8.0188 14.6021 -8.0188 14.6021 C -8.0188 14.6021 -7.6977 14.2139 -7.6158 14.0172 C -7.4417 13.5989 -7.2745 12.9815 -7.3373 12.5328 C -7.3866 12.1808 -7.6483 11.7534 -7.867 11.4733 C -8.1247 11.1433 -8.2182 11.0458 -8.2182 11.0458 C -8.2182 11.0458 -8.0602 11.0627 -7.8277 11.2271 C -7.5717 11.4082 -7.2307 11.7521 -7.0346 12.0787 C -6.8443 12.3956 -6.8075 13.2896 -6.8075 13.2896 L -6.4121 12.5131 L -6.2778 11.6246 L -6.5805 9.657 C -6.5805 9.657 -5.4657 8.2469 -4.7642 8.0677 C -3.9529 7.8605 -2.8765 8.7013 -2.0397 8.6731 C -1.2355 8.646 -0.2165 8.208 0.5334 7.9163 C 1.7353 7.4489 3.209 6.5351 4.3931 6.0243 C 5.2837 5.6401 6.4741 5.1025 7.4203 4.8891 C 8.465 4.6535 9.9509 4.2806 10.9772 4.5864 C 11.6127 4.7758 12.4007 5.3663 12.7178 5.9487 C 13.1976 6.8296 12.8557 8.2183 12.8678 9.2213 C 12.8698 9.3885 12.5735 9.6094 12.6063 10.138 C 12.6405 10.6883 13.0012 11.5466 12.8522 11.6995 C 12.5909 11.9678 11.823 12.1162 11.823 12.1162 C 11.823 12.1162 12.1971 12.4369 12.649 12.5014 C 13.0091 12.5529 13.4535 12.3651 13.5445 12.2787 C 13.7711 12.0634 13.9575 11.6401 14.0044 11.549 C 14.2433 11.0846 14.0044 9.8083 14.0044 9.8083 C 14.0044 9.8083 14.0301 11.7291 14.5342 12.3058 C 14.7563 12.5599 15.1533 12.5615 15.339 12.8433 C 15.5393 13.1473 15.729 13.4966 15.4862 13.7677 C 15.1325 14.1625 14.4778 14.4843 14.4778 14.4843 C 14.4778 14.4843 15.0757 14.6773 15.6255 14.5365 C 15.9677 14.4488 16.2676 14.2106 16.4262 13.895 C 16.7765 13.1979 16.928 12.0923 16.8046 11.3219 C 16.7323 10.8708 16.1234 9.9597 16.1234 9.9597 C 16.1234 9.9597 16.6573 11.6806 17.2586 12.0787 C 17.6768 12.3556 18.5734 12.2937 18.5734 12.2937 C 18.5734 12.2937 18.1369 13.1164 18.0154 13.5923 C 17.8237 14.3431 18.2425 16.1654 18.2425 16.1654 C 18.2425 16.1654 17.254 16.5678 16.8046 16.6195 C 16.5105 16.6533 16.0849 16.4104 15.8207 16.5438 C 15.6295 16.6404 15.4423 17.1493 15.4423 17.1493 L 16.5018 19.0412 C 16.5018 19.0412 17.1027 19.2965 17.3343 19.1926 C 17.7238 19.0178 17.7735 18.3149 18.0749 17.9776 C 18.3729 17.6441 19.1506 17.1493 19.1506 17.1493 L 18.6209 18.9656 L 18.9993 19.4953 L 20.7399 19.4953 C 20.7399 19.4953 21.2831 18.8464 21.2697 18.5115 C 21.2512 18.0521 20.4372 17.2249 20.4372 17.2249 C 20.4372 17.2249 20.8892 17.2676 21.1105 17.392 C 21.3862 17.5468 21.6481 18.0574 21.6481 18.0574 L 22.4805 18.0574 L 23.4644 17.3006 C 23.4644 17.3006 23.6112 16.6702 23.4644 16.4681 C 23.2051 16.1113 22.0661 16.0141 22.0661 16.0141 L 22.9346 14.9545 L 22.4049 14.0464 C 22.4049 14.0464 23.6015 14.7508 24.1455 14.6518 C 24.4944 14.5883 24.891 14.2102 25.0536 13.895 C 25.1894 13.632 25.1293 12.9112 25.1293 12.9112 C 25.1293 12.9112 24.8783 13.4151 24.6752 13.5166 C 24.4925 13.608 24.1343 13.6653 23.9941 13.5166 C 23.7289 13.2353 24.0698 12.2301 24.0698 12.2301 C 24.0698 12.2301 24.9741 12.0137 25.2807 11.776 C 25.4997 11.6062 25.8043 11.2963 25.8104 11.0192 C 25.817 10.7232 25.2807 10.1867 25.2807 10.1867 C 25.2807 10.1867 25.3583 10.6265 25.205 10.7955 C 25.0495 10.967 24.6627 11.1819 24.4482 11.0949 C 24.0397 10.9291 23.6157 9.884 23.6157 9.884 C 23.6157 9.884 24.4177 9.4842 24.5729 9.0849 C 24.6342 8.9269 24.6277 8.5288 24.4708 8.3108 C 24.2351 7.9832 24.0464 7.8918 24.0464 7.8918 C 24.0464 7.8918 24.2123 8.4149 23.9941 8.5974 C 23.7739 8.7817 23.3722 8.9235 23.086 8.9002 C 22.6001 8.8605 21.977 8.5032 21.6481 8.1434 C 21.2498 7.7077 21.094 7.0873 20.8642 6.5435 C 20.7969 6.3843 20.7029 6.0795 20.7029 6.0795 C 20.7029 6.0795 21.5192 6.0233 21.848 5.8624 C 22.0788 5.7496 22.4271 5.2917 22.4805 5.0405 C 22.5604 4.665 22.3462 4.0519 22.0223 3.8458 C 21.7534 3.6747 21.2334 3.8132 21.2334 3.8132 C 21.2334 3.8132 21.6032 4.1488 21.7275 4.3328 C 21.8157 4.4634 21.5846 4.8088 21.5025 4.9433 C 21.4354 5.0531 21.206 5.0464 21.0802 5.0189 C 20.4588 4.8831 19.9061 4.2663 19.529 3.7539 C 19.2609 3.3896 19.0749 2.316 19.0749 2.316 C 19.0749 2.316 20.2792 2.2267 20.7399 2.0133 C 21.4864 1.6675 22.3817 0.9428 22.8589 0.2727 C 23.2382 -0.2598 23.5102 -1.1256 23.6157 -1.7707 C 23.7368 -2.5104 23.6792 -3.5316 23.5401 -4.2681 C 23.4148 -4.9314 23.1291 -5.8074 22.7833 -6.3871 C 22.4703 -6.9118 21.421 -7.9007 21.421 -7.9007 C 21.421 -7.9007 20.8519 -8.2568 20.7399 -8.5062 C 20.6376 -8.734 20.5895 -9.1393 20.7399 -9.3387 C 20.8394 -9.4706 21.1377 -9.5896 21.2697 -9.49 C 21.3965 -9.3943 21.6475 -8.5819 21.6475 -8.5819 C 21.6475 -8.5819 22.0007 -8.7802 22.1778 -9.1116 C 22.3186 -9.375 22.1422 -9.8202 22.0265 -10.0955 C 21.9384 -10.3047 21.7726 -10.5938 21.5724 -10.7009 C 21.2115 -10.894 20.5663 -10.9465 20.1647 -10.8674 C 19.6466 -10.7653 19.1032 -10.4187 18.7571 -10.0198 C 18.5077 -9.7323 18.279 -9.1877 18.2425 -8.8089 C 18.2227 -8.6043 18.2727 -8.0824 18.2727 -8.0824 C 18.2727 -8.0824 15.6887 -8.3302 14.4585 -8.2791 C 13.2282 -8.2281 11.4475 -7.8019 10.1447 -7.7494 C 9.5998 -7.7274 8.8625 -7.7149 8.3284 -7.8251 C 7.519 -7.992 6.4093 -8.3036 5.7553 -8.8089 C 5.4462 -9.0477 5.1426 -9.5054 4.9985 -9.8684 C 4.8125 -10.337 4.7648 -11.0084 4.9829 -11.4629 C 5.1547 -11.821 5.5211 -12.1191 5.9067 -12.2145 C 6.304 -12.3128 6.9268 -12.3636 7.2689 -12.1388 C 7.4386 -12.0273 7.6118 -11.7324 7.5716 -11.5334 C 7.5302 -11.3282 7.2444 -11.1322 7.0419 -11.0793 C 6.8179 -11.0207 6.2851 -11.2306 6.2851 -11.2306 C 6.2851 -11.2306 6.1829 -10.8142 6.3608 -10.5776 C 6.5938 -10.2674 7.1866 -10.0757 7.5716 -10.1235 C 7.9279 -10.1677 8.4392 -10.4923 8.6717 -10.7659 C 9.0144 -11.1692 9.3123 -12.0676 9.3123 -12.0676 C 9.3123 -12.0676 11.1742 -11.8786 11.9611 -11.9919 C 12.9773 -12.1383 14.0396 -12.3135 14.9507 -12.7868 C 15.4544 -13.0485 16.2475 -13.4836 16.5635 -13.9551 C 16.9161 -14.4812 17.068 -15.3147 16.9279 -15.9323 C 16.8031 -16.4823 16.3346 -16.9024 15.7918 -17.0553 C 15.3771 -17.1721 14.6194 -16.8169 14.6194 -16.8169 C 14.6194 -16.8169 15.2997 -16.7541 15.5275 -16.5899 C 15.7677 -16.4168 16.0407 -16.1739 16.1234 -15.8897 C 16.1615 -15.7589 16.0607 -15.3543 15.9911 -15.2372 C 15.8459 -14.9926 15.5477 -14.8394 15.291 -14.717 C 14.9142 -14.5373 14.3226 -14.5216 13.9052 -14.518 C 13.3445 -14.513 12.4775 -14.9986 11.933 -15.1329 C 11.5338 -15.2314 10.4385 -15.1189 10.4385 -15.1189 C 10.4385 -15.1189 11.1521 -16.0858 11.1572 -16.4526 C 11.1635 -16.9122 11.1272 -17.5433 10.8259 -17.8905 C 10.6061 -18.1436 10.1724 -18.3633 9.842 -18.4202 C 9.5477 -18.4709 9.3353 -18.4802 9.1409 -18.2536 C 9.0226 -18.1157 8.8267 -17.8423 8.8582 -17.6634 C 8.9043 -17.4017 9.0234 -17.2512 9.0234 -17.2512 C 9.0234 -17.2512 9.1822 -17.5063 9.3879 -17.6634 C 9.4962 -17.7461 9.7315 -17.7431 9.842 -17.6634 C 9.9585 -17.5795 10.1741 -17.1957 10.1483 -17.0544 C 10.0644 -16.5939 9.3001 -16.075 8.8933 -15.8435 C 8.2723 -15.4901 7.3414 -15.8431 6.653 -15.6514 C 5.9178 -15.4466 4.9059 -15.1405 4.307 -14.6676 C 3.7332 -14.2145 3.1046 -13.392 2.869 -12.6999 C 2.6172 -11.96 2.6238 -10.856 2.8038 -10.0955 C 2.9816 -9.3443 3.4962 -8.397 4.0147 -7.8251 C 4.6194 -7.1579 5.6915 -6.5308 6.5121 -6.1601 C 7.1545 -5.8699 8.0798 -5.6806 8.7825 -5.6251 C 9.4424 -5.5731 10.3185 -5.717 10.9772 -5.7817 C 11.953 -5.8776 14.2314 -6.0844 14.2314 -6.0844 C 14.2314 -6.0844 12.5876 -5.5666 12.0367 -5.1006 C 11.6617 -4.7834 11.1938 -4.2252 11.1286 -3.7384 C 11.0809 -3.3826 11.2477 -2.8514 11.507 -2.6032 C 11.7457 -2.3745 12.5665 -2.3004 12.5665 -2.3004 C 12.5665 -2.3004 12.0044 -2.8387 12.0367 -3.1329 C 12.0472 -3.2287 12.1716 -3.332 12.2638 -3.36 C 12.4854 -3.4271 12.7902 -3.1852 13.0206 -3.2086 C 13.6582 -3.2735 14.5445 -3.5785 14.9882 -4.0411 C 15.2568 -4.321 15.4423 -5.2519 15.4423 -5.2519 C 15.4423 -5.2519 15.119 -3.8265 15.4423 -3.36 C 15.6633 -3.0411 16.3052 -2.6986 16.685 -2.6193 C 17.1079 -2.5311 17.6878 -2.6754 18.0911 -2.8302 C 18.3609 -2.9337 18.747 -3.2234 18.7722 -3.5113 C 18.7964 -3.7874 18.2425 -4.2681 18.2425 -4.2681 C 18.2425 -4.2681 18.3548 -3.8507 18.2425 -3.7384 C 18.098 -3.5939 17.7526 -3.6665 17.5614 -3.7384 C 17.3354 -3.8232 17.0556 -4.0483 16.9559 -4.2681 C 16.8715 -4.4542 16.8728 -4.7626 16.9559 -4.9492 C 17.0802 -5.2283 17.4321 -5.5096 17.7127 -5.6303 C 18.2358 -5.8554 19.0638 -5.9597 19.6047 -5.7817 C 20.262 -5.5654 21.0133 -4.8752 21.3453 -4.2681 C 21.7198 -3.5836 21.8987 -2.4554 21.7237 -1.695 C 21.5882 -1.1059 21.064 -0.4034 20.5885 -0.03 C 20.1308 0.3293 18.7722 0.6511 18.7722 0.6511 C 18.7722 0.6511 16.2722 0.6402 15.6363 0.5051 C 13.9114 0.1388 12.766 -0.6028 11.0154 -0.8146 C 10.3389 -0.8964 9.227 -0.9861 8.5457 -1.0042 C 7.388 -1.0348 5.5825 -0.9106 4.4298 -1.0229 C 2.4794 -1.2129 -1.9431 -1.6663 -1.9431 -1.6663 L -4.4615 -2.3004 L -5.748 -1.0139 z"/>
  <path class="outline" d="M 5.734 -13.3938 C 5.734 -13.3938 6.6545 -13.5185 7.051 -13.51 C 7.4963 -13.5005 7.971 -13.402 8.368 -13.2001 C 8.6685 -13.0474 9.1583 -12.6178 9.2548 -12.2949 C 9.2921 -12.1705 9.1774 -11.8688 9.1774 -11.8688"/>
  <path class="outline" d="M 9.7625 -13.3938 C 9.7625 -13.3938 10.835 -12.7836 11.3221 -12.5864 C 11.7365 -12.4187 13.1713 -12.193 13.1713 -12.193"/>
  <path class="outline" d="M 12.4741 -13.51 C 12.4741 -13.51 13.2349 -13.0605 13.5974 -12.9677 C 14.037 -12.8552 15.1081 -12.8903 15.1081 -12.8903"/>
  <path class="outline" d="M 10.576 -15.1369 C 10.576 -15.1369 9.8922 -14.7094 9.5689 -14.5946 C 9.3347 -14.5115 8.9978 -14.3854 8.7554 -14.4397 C 8.6012 -14.4742 8.3293 -14.7496 8.3293 -14.7496"/>
  <path class="outline" d="M 17.2132 -8.1429 C 17.2132 -8.1429 17.6629 -8.1849 17.8489 -8.1429 C 18.4671 -8.0033 19.7561 -7.2348 19.7561 -7.2348 C 19.7561 -7.2348 19.4577 -8.181 19.4836 -8.597 C 19.5077 -8.9839 19.6383 -9.5301 19.8923 -9.823 C 20.0919 -10.0531 20.504 -10.2071 20.8004 -10.2771 C 20.88 -10.2959 21.0729 -10.2771 21.0729 -10.2771"/>
  <path class="outline" d="M 12.052 -3.2463 C 12.052 -3.2463 12.287 -3.8108 12.4943 -3.9928 C 12.7252 -4.1956 13.3471 -4.3812 13.626 -4.5103 C 13.8114 -4.5961 14.0696 -4.7415 14.1709 -4.919 C 14.2321 -5.0261 14.2163 -5.3276 14.2163 -5.3276"/>
  <path class="outline" d="M 15.7085 -6.0834 L 15.3468 -4.9581"/>
  <path class="outline" d="M 19.1647 2.3562 C 19.1647 2.3562 18.3428 1.9796 17.9189 1.874 C 17.5445 1.7807 17.0083 1.9626 16.6328 1.874 C 16.318 1.7996 15.6683 1.3917 15.6683 1.3917"/>
  <path class="outline" d="M 15.7085 3.0796 C 15.7085 3.0796 16.5469 3.2329 16.8338 3.4413 C 17.267 3.7559 17.4047 4.4934 17.7665 4.8881 C 18.0033 5.1464 18.3452 5.3649 18.4935 5.6068 C 18.6201 5.8132 18.802 6.3526 18.802 6.3526 C 18.802 6.3526 19.0213 5.7713 19.0123 5.4664 C 19.0089 5.3487 19.004 4.6068 19.004 4.6068 C 19.004 4.6068 19.7457 5.6612 20.2096 5.933 C 20.3484 6.0143 20.7321 6.0536 20.7321 6.0536"/>
  <path class="outline" d="M 21.9563 9.5053 C 21.9563 9.5053 22.5101 9.8394 22.7739 9.9141 C 22.9977 9.9775 23.5462 9.9823 23.5462 9.9823"/>
  <path class="outline" d="M 23.9778 12.6624 C 23.9778 12.6624 23.7639 11.9647 23.5916 11.7085 C 23.4007 11.4246 23.0707 11.0838 22.7739 10.9135 C 22.6635 10.8501 22.3651 10.7999 22.3651 10.7999"/>
  <path class="outline" d="M 21.7746 11.7766 C 21.7746 11.7766 22.4652 12.0328 22.6604 12.2763 C 22.9485 12.6359 23.0596 13.2765 23.2736 13.6845 C 23.3817 13.8905 23.5147 14.1822 23.6825 14.3432 C 23.8124 14.4679 24.2049 14.6385 24.2049 14.6385"/>
  <path class="outline" d="M 22.4787 14.207 C 22.4787 14.207 21.859 13.2358 21.7064 13.0259 C 21.5787 12.8501 21.2067 12.617 21.2067 12.617"/>
  <path class="outline" d="M 0.9403 -0.1847 L 1.5785 1.1514"/>
  <path class="outline" d="M 1.7458 -0.3891 L 2.1646 0.693"/>
  <path class="outline" d="M 2.5112 -0.4412 L 2.9251 0.2425"/>
  <path class="outline" d="M 3.1804 -0.5889 L 3.5491 0.1008"/>
  <path class="outline" d="M 20.05 11.0041 L 19.6352 11.6064 L 18.696 12.2267 C 18.696 12.2267 18.8369 12.452 18.9852 12.5422 C 19.0802 12.5998 19.3006 12.6432 19.4059 12.6079 C 19.6021 12.5421 19.8689 12.4152 19.9975 12.253 C 20.0618 12.1718 20.1026 11.9243 20.1026 11.9243"/>
  <path class="outline" d="M 16.7896 8.6483 C 16.7896 8.6483 16.919 9.4341 17.1261 9.6885 C 17.3194 9.926 17.7218 10.0996 18.0133 10.1933 C 18.2637 10.2738 18.5016 10.3322 18.7476 10.2392 C 18.9633 10.1577 19.4054 9.7191 19.4054 9.7191 C 19.4054 9.7191 19.2438 10.333 19.0689 10.5299 C 18.8382 10.7894 18.3999 11.0287 18.0592 11.0959 C 17.837 11.1397 17.524 11.0775 17.3097 11.0041 C 17.0215 10.9054 16.4377 10.484 16.4377 10.484"/>
  <path class="outline" d="M 15.0915 10.3616 C 15.0915 10.3616 15.1242 11.1508 15.3057 11.4324 C 15.4474 11.6523 15.7774 11.8186 15.9329 12.029 C 16.0788 12.2264 16.2068 12.454 16.2847 12.6868 C 16.3682 12.936 16.5121 13.7446 16.5121 13.7446"/>
  <path class="outline" d="M 17.7545 2.6777 C 17.7545 2.6777 18.3813 3.25 18.5729 3.5546 C 18.7783 3.8812 19.0405 4.7529 19.0405 4.7529"/>
  <path class="outline" d="M -0.231 8.357 C -0.231 8.357 -1.2911 8.1799 -1.6947 7.9718 C -2.0156 7.8063 -2.4156 7.4996 -2.6191 7.2014 C -2.8457 6.8694 -3.0429 5.9303 -3.0429 5.9303"/>
  <path class="outline" d="M 0.9631 7.7021 C 0.9631 7.7021 -0.2816 7.6125 -0.7205 7.3716 C -0.98 7.2293 -1.2995 6.9811 -1.4909 6.7553 C -1.705 6.5028 -2.0302 5.7924 -2.0302 5.7924"/>
  <path class="outline" d="M 2.2343 7.1629 C 2.2343 7.1629 0.5767 6.7807 -0.0769 6.4695 C -0.3923 6.3194 -1.092 5.6059 -1.092 5.6059"/>
  <path class="outline" d="M -0.3192 5.1959 C -0.3192 5.1959 0.1267 5.686 0.3854 5.7762 C 0.6186 5.8575 0.9215 5.951 1.1658 5.9871 C 1.3843 6.0193 1.8125 6.0357 1.8125 6.0357"/>
  <path class="outline" d="M 0.732 4.9673 C 0.732 4.9673 0.9798 5.2533 1.1172 5.314 C 1.2922 5.3912 1.5853 5.3881 1.772 5.4295 C 1.9525 5.4696 2.3884 5.4295 2.3884 5.4295"/>
  <path class="outline" d="M 1.8106 4.7362 C 1.8106 4.7362 2.4572 4.8472 2.735 4.8902 C 2.8965 4.9152 3.2743 4.9673 3.2743 4.9673"/>
  <path class="outline" d="M 3.1587 4.351 C 3.1587 4.351 4.0519 4.4052 4.4299 4.4665 C 4.6291 4.4989 5.0847 4.6206 5.0847 4.6206"/>
  <path class="outline" d="M 4.2758 3.8502 C 4.2758 3.8502 5.1455 3.9821 5.5084 4.0813 C 5.7693 4.1527 6.3558 4.3895 6.3558 4.3895 C 6.3558 4.3895 6.3558 4.3895 6.3558 4.3895"/>
  <path class="outline" d="M 5.8936 3.5036 C 5.8936 3.5036 6.4932 3.5844 6.741 3.6576 C 6.9725 3.7261 7.2859 3.8287 7.4835 3.9673 C 7.6755 4.1021 8.0122 4.5436 8.0122 4.5436"/>
  <path class="claw outline" d="M -16.5923 15.2318 C -16.8249 14.9657 -17.1907 14.8118 -17.544 14.824 C -17.8478 14.8344 -18.2136 15.0864 -18.4503 15.2772 C -18.695 15.4743 -19.0215 15.7906 -19.1074 16.0929 C -19.1524 16.251 -19.1434 16.3805 -19.0621 16.5234 C -18.9855 16.6581 -18.7675 16.9086 -18.7675 16.9086 C -18.7675 16.9086 -18.7203 16.5804 -18.6316 16.4781 C -18.4982 16.3241 -18.216 16.2384 -18.0198 16.1835 C -17.8159 16.1265 -17.5254 16.155 -17.3174 16.1155 C -17.1715 16.0879 -16.966 16.0606 -16.8415 15.9796 C -16.7081 15.8927 -16.536 15.7273 -16.5017 15.5717 C -16.4789 15.4687 -16.5228 15.3113 -16.5923 15.2318 z"/>
  <path class="claw outline" d="M -16.8415 17.3391 C -16.7469 17.5044 -16.7416 17.7995 -16.8189 17.9736 C -16.8874 18.1279 -17.0917 18.2757 -17.2494 18.3361 C -17.4527 18.4139 -17.7747 18.2723 -17.9745 18.3588 C -18.2127 18.4618 -18.454 18.7472 -18.5863 18.9705 C -18.6729 19.1168 -18.7448 19.3444 -18.7449 19.5144 C -18.745 19.7338 -18.541 20.2168 -18.541 20.2168 C -18.541 20.2168 -19.2899 19.648 -19.4247 19.2878 C -19.5319 19.001 -19.4726 18.5598 -19.3793 18.2681 C -19.2955 18.0059 -19.077 17.6908 -18.8808 17.4977 C -18.698 17.3178 -18.4013 17.1187 -18.1558 17.0445 C -17.9214 16.9738 -17.576 16.9567 -17.34 17.0219 C -17.1692 17.0691 -16.9296 17.1853 -16.8415 17.3391 z"/>
  <path class="claw outline" d="M -13.3068 19.0612 C -13.3332 18.8096 -13.5378 18.6267 -13.7826 18.5627 C -14.0523 18.4922 -14.4976 18.4973 -14.7116 18.676 C -14.8661 18.805 -14.8106 19.1352 -14.8476 19.3331 C -14.8931 19.577 -14.9797 19.9007 -14.9835 20.1488 C -14.9874 20.4026 -14.957 20.7487 -14.8702 20.9872 C -14.818 21.1307 -14.726 21.3338 -14.5983 21.4177 C -14.4143 21.5386 -13.8732 21.531 -13.8732 21.531 C -13.8732 21.531 -14.2865 21.2295 -14.3491 21.0325 C -14.4052 20.8557 -14.331 20.5915 -14.2584 20.4207 C -14.1408 20.1442 -13.8495 19.8493 -13.6466 19.6277 C -13.4842 19.4502 -13.2816 19.3004 -13.3068 19.0612 z"/>
  <path class="claw outline" d="M -9.9079 17.5884 C -9.6474 17.721 -9.3846 17.8722 -9.2508 18.1322 C -9.1046 18.4162 -9.1216 18.905 -9.2508 19.1971 C -9.3326 19.382 -9.4466 19.5587 -9.6134 19.673 C -9.7889 19.7933 -10.2478 19.9902 -10.2478 19.9902 C -10.2478 19.9902 -10.1295 19.6136 -10.1119 19.4464 C -10.0911 19.2502 -10.0508 18.9679 -10.1345 18.7893 C -10.2428 18.5582 -10.68 18.462 -10.769 18.2228 C -10.8239 18.075 -10.7981 17.8258 -10.701 17.7017 C -10.5976 17.5694 -10.3477 17.502 -10.1798 17.4977 C -10.0939 17.4955 -9.9846 17.5493 -9.9079 17.5884 z"/>
  <path class="claw outline" d="M 16.2485 15.5372 C 16.074 15.3612 15.6793 15.3683 15.4337 15.4014 C 15.1446 15.4402 15.0195 15.4876 14.7787 15.6522 C 14.5685 15.7958 14.2671 16.0065 14.1675 16.2407 C 14.0612 16.4907 14.1675 17.1461 14.1675 17.1461 C 14.1675 17.1461 14.6639 16.5007 14.9597 16.3312 C 15.2813 16.1471 15.5884 16.3331 15.9316 16.1936 C 16.0557 16.1431 16.2592 16.0883 16.3164 15.9672 C 16.3722 15.8491 16.3405 15.6299 16.2485 15.5372 z"/>
  <path class="claw outline" d="M 15.9218 17.361 C 16.1728 17.3717 16.2917 17.315 16.4651 17.4968 C 16.6163 17.6555 16.7425 17.9921 16.6688 18.1985 C 16.6244 18.3227 16.422 18.3836 16.3066 18.4475 C 16.1124 18.555 15.7973 18.5985 15.6276 18.7417 C 15.4851 18.862 15.3412 19.0836 15.2881 19.2623 C 15.2455 19.4055 15.2551 19.6146 15.2881 19.7603 C 15.3229 19.9143 15.4591 20.0077 15.537 20.1451 C 15.5612 20.1876 15.1497 20.1444 14.9712 20.0545 C 14.7867 19.9617 14.5695 19.7619 14.4732 19.5792 C 14.3353 19.3175 14.4042 19.0592 14.4279 18.7643 C 14.4503 18.4861 14.6787 18.2937 14.8354 18.0627 C 14.9949 17.8274 15.3066 17.581 15.5597 17.4515 C 15.6594 17.4005 15.8099 17.3562 15.9218 17.361 z"/>
  <path class="claw outline" d="M 19.2491 19.1718 C 19.2491 19.1718 19.664 18.9487 19.8603 18.9228 C 19.9688 18.9085 20.0397 18.909 20.1319 18.9681 C 20.327 19.0931 20.5298 19.3929 20.5393 19.6245 C 20.5521 19.937 20.2246 20.2841 20.064 20.5525 C 19.9537 20.7367 19.7471 21.141 19.7471 21.141 C 19.7471 21.141 19.221 19.9526 19.1925 19.7084 C 19.1584 19.4157 19.2368 19.1965 19.2491 19.1718 z"/>
  <path class="claw outline" d="M 23.0065 16.9762 C 23.1613 16.925 23.4003 16.9333 23.5497 16.9988 C 23.7344 17.0799 23.957 17.2843 24.025 17.4742 C 24.1194 17.7375 24.0305 18.1394 23.9345 18.4022 C 23.8072 18.7507 23.2328 19.4208 23.2328 19.4208 C 23.2328 19.4208 23.2469 18.8319 23.2102 18.5833 C 23.1876 18.4301 23.1686 18.2082 23.0744 18.0853 C 22.9595 17.9356 22.6251 17.932 22.5311 17.7684 C 22.4703 17.6624 22.4785 17.4713 22.5311 17.361 C 22.6101 17.1954 22.8323 17.0338 23.0065 16.9762 z"/>
  <path class="outline" d="M -11.5304 5.7598 C -11.5304 5.7598 -11.257 4.6602 -11.028 4.205 C -10.8788 3.9083 -10.3364 3.3406 -10.3364 3.3406"/>
  <path class="langue outline" d="M -6.6732 -6.871 C -6.6732 -6.871 -7.8476 -7.575 -8.4267 -7.6449 C -8.8382 -7.6947 -9.4046 -7.695 -9.8112 -7.6202 C -10.395 -7.5126 -11.2529 -6.8632 -11.8426 -6.7842 C -12.1203 -6.7471 -12.3526 -6.7132 -12.5523 -6.8864 C -12.9096 -7.1964 -12.6399 -7.813 -12.861 -8.2088 C -12.9692 -8.4023 -13.2378 -8.6023 -13.4544 -8.7043 C -13.7225 -8.8305 -14.1411 -8.9343 -14.4433 -8.9024 C -14.6315 -8.8826 -15.0084 -8.6547 -15.0084 -8.6547 C -15.0084 -8.6547 -14.5094 -8.41 -14.3868 -8.2336 C -14.1178 -7.8464 -14.3163 -7.1486 -14.076 -6.7472 C -13.9813 -6.589 -13.7554 -6.437 -13.5957 -6.326 C -13.4315 -6.2121 -13.2037 -6.0542 -13.0023 -6.004 C -12.5539 -5.8921 -11.9037 -5.9167 -11.4483 -6.004 C -10.8925 -6.1105 -10.2806 -6.7303 -9.7248 -6.8368 C -9.3024 -6.9178 -8.7092 -6.7647 -8.2838 -6.6976 C -7.9723 -6.6485 -7.2948 -6.3756 -7.2948 -6.3756 L -6.6732 -6.871 z"/>
  <path class="teeth outline" d="M -12.1365 -9.1845 C -12.0809 -9.3642 -12.0298 -9.3049 -11.8525 -9.3677 C -11.674 -9.4309 -11.6774 -9.4648 -11.5354 -9.3395 C -11.4067 -9.226 -11.3709 -9.269 -11.3507 -9.0986 C -11.2986 -8.6589 -11.3534 -8.218 -11.5217 -7.8083 C -11.5931 -7.6344 -11.7888 -7.41 -11.7888 -7.41 C -11.7888 -7.41 -11.9322 -7.5794 -11.9982 -7.788 C -12.1376 -8.2289 -12.2733 -8.7428 -12.1365 -9.1845 z"/>
  <path class="teeth outline" d="M -11.9029 -5.8073 C -11.9081 -5.6193 -11.8406 -5.659 -11.693 -5.5425 C -11.5443 -5.4251 -11.5585 -5.3941 -11.3837 -5.467 C -11.2253 -5.533 -11.2053 -5.4808 -11.1313 -5.6356 C -10.9403 -6.0352 -10.8503 -6.4702 -10.8777 -6.9122 C -10.8894 -7.0999 -11.0024 -7.3754 -11.0024 -7.3754 C -11.0024 -7.3754 -11.1927 -7.2611 -11.3223 -7.0849 C -11.5962 -6.7123 -11.8902 -6.2695 -11.9029 -5.8073 z"/>
  <path class="body outline" d="M -6.0101 -6.4307 C -6.0101 -6.4307 -7.7995 -4.5706 -8.7222 -3.9769 C -9.5978 -3.4134 -11.0341 -3.1656 -11.9078 -2.5993 C -12.7899 -2.0276 -13.8578 -1.0708 -14.4908 -0.2316 C -14.9255 0.3448 -15.299 1.2505 -15.567 1.9209 C -15.8127 2.5354 -15.7964 3.5159 -16.2128 4.0303 C -16.3801 4.237 -16.7334 4.383 -16.9876 4.4608 C -17.5579 4.6353 -18.4381 4.3592 -18.9679 4.633 C -19.4645 4.8896 -20.0246 5.5148 -20.1733 6.0536 C -20.2569 6.3565 -20.1981 6.842 -20.0011 7.0868 C -19.7831 7.3577 -18.9249 7.5173 -18.9249 7.5173 C -18.9249 7.5173 -19.3078 6.857 -19.2262 6.5702 C -19.1611 6.3412 -18.8545 6.1114 -18.6235 6.0536 C -18.277 5.967 -17.8156 6.2677 -17.4612 6.3119 C -17.0253 6.3663 -16.4353 6.3918 -15.9975 6.355 C -15.6694 6.3274 -14.9213 6.1397 -14.9213 6.1397 C -14.9213 6.1397 -15.2474 7.1737 -15.1365 7.6034 C -15.0513 7.9336 -14.5632 8.1866 -14.4477 8.5074 C -14.3383 8.8115 -14.3152 9.2732 -14.4047 9.5837 C -14.5564 10.1103 -15.4379 11.0904 -15.4379 11.0904 C -15.4379 11.0904 -14.0727 10.6704 -13.6298 10.2725 C -13.2508 9.932 -12.8694 9.3082 -12.7688 8.8088 C -12.6736 8.3361 -13.1349 7.674 -12.9841 7.216 C -12.7927 6.6347 -11.5634 5.7523 -11.5634 5.7523 C -11.5634 5.7523 -11.5043 6.8183 -11.3912 7.259 C -11.315 7.5564 -10.9333 7.9073 -11.0038 8.2061 C -11.0984 8.6069 -11.8552 8.7406 -12.037 9.1101 C -12.2198 9.4817 -12.1936 10.0797 -12.1231 10.4877 C -12.0728 10.7785 -11.9324 11.1719 -11.7356 11.3918 C -11.4386 11.7236 -10.8748 12.0101 -10.4442 12.1236 C -10.2943 12.1631 -9.9276 12.1236 -9.9276 12.1236 C -9.9276 12.1236 -10.8022 11.5659 -10.9607 11.1765 C -11.0485 10.9609 -11.0161 10.6126 -10.9177 10.4016 C -10.7979 10.1449 -10.4453 9.9387 -10.2289 9.7559 C -9.9191 9.4942 -9.4093 9.2519 -9.1527 8.9379 C -8.8894 8.616 -8.6546 8.092 -8.55 7.6895 C -8.4393 7.2638 -8.4639 6.2258 -8.4639 6.2258 C -8.4639 6.2258 -8.4974 7.0189 -8.2875 7.3896 C -8.1615 7.6121 -7.6576 7.9926 -7.5168 8.2061 C -7.4019 8.3803 -7.2383 8.6442 -7.2585 8.8518 C -7.2838 9.1121 -7.5968 9.3598 -7.732 9.5837 C -7.8546 9.7866 -8.1195 10.2725 -8.1195 10.2725 C -8.1195 10.2725 -6.9629 9.736 -6.5697 9.3684 C -6.2165 9.0382 -5.747 8.5106 -5.6657 8.0339 C -5.623 7.7838 -5.803 7.4574 -5.8809 7.216 C -5.9362 7.0448 -6.0435 6.8283 -6.0962 6.6563 C -6.1466 6.4916 -6.278 6.2607 -6.2253 6.0967 C -6.1359 5.8179 -5.4935 5.4509 -5.4935 5.4509 C -5.4935 5.4509 -5.6508 5.9919 -5.6226 6.2258 C -5.5756 6.6164 -5.106 7.4312 -5.106 7.4312 C -5.106 7.4312 -5.0518 6.6965 -4.8477 6.4841 C -4.4911 6.1131 -3.6617 6.2175 -3.2119 5.9675 C -2.6915 5.6783 -2.0715 5.1453 -1.7051 4.6761 C -1.2964 4.1525 -0.8996 3.3338 -0.715 2.6958 C -0.6068 2.3218 -0.7671 1.7489 -0.5859 1.4043 C -0.3811 1.015 0.2825 0.8185 0.5334 0.4572 C 0.7292 0.1754 0.7045 -0.3527 0.9209 -0.619 C 1.1695 -0.925 1.8696 -0.9523 2.0401 -1.3078 C 2.2203 -1.6833 1.9905 -2.2873 1.8679 -2.6854 C 1.6844 -3.2816 0.9209 -4.5365 0.9209 -4.5365 L 0.7056 -7.3347 L -0.715 -9.0136 L -6.785 -7.3347 L -6.0101 -6.4307 z"/>
  <path class="body outline" d="M -0.9469 -13.1303 C -0.9469 -13.1303 -0.6215 -13.5566 -0.5233 -13.9191 C -0.4634 -14.14 -0.5066 -14.7879 -0.5448 -15.1097 C -0.5807 -15.4113 -0.6823 -15.53 -0.6823 -15.53 C -0.6823 -15.53 -0.742 -15.1613 -0.8267 -14.971 C -0.9693 -14.651 -1.5503 -14.0545 -1.5503 -14.0545 C -1.5503 -14.0545 -1.4509 -14.4783 -1.4635 -14.662 C -1.5022 -15.2294 -1.9842 -16.4847 -1.9842 -16.4847 C -1.9842 -16.4847 -2.2001 -15.2554 -2.505 -14.8356 C -2.7683 -14.4732 -3.1177 -14.592 -3.541 -14.4454 C -4.6001 -14.0786 -6.5289 -14.3581 -7.7382 -13.8726 C -8.2363 -13.6726 -9.259 -12.9643 -9.259 -12.9643 C -9.259 -12.9643 -10.5318 -12.5275 -11.2399 -12.6564 C -11.4999 -12.7037 -11.8037 -12.9411 -12.0634 -12.8916 C -12.5236 -12.8039 -12.8941 -12.8131 -13.279 -12.6956 C -13.7633 -12.5477 -13.7899 -11.5297 -13.6319 -11.0486 C -13.579 -10.8874 -13.3606 -10.7423 -13.3182 -10.578 C -13.2474 -10.3037 -13.4807 -9.9074 -13.3966 -9.6369 C -13.2974 -9.3175 -12.993 -8.9173 -12.6908 -8.7741 C -12.2762 -8.5777 -11.6352 -8.7447 -11.2006 -8.8918 C -10.7237 -9.0532 -10.2074 -9.0105 -9.9458 -9.4408 C -9.8403 -9.6143 -9.5144 -10.2643 -9.5144 -10.2643 C -9.5144 -10.2643 -8.7504 -9.7116 -8.5733 -9.2447 C -8.4189 -8.8376 -8.4276 -8.188 -8.6125 -7.7938 C -8.8851 -7.2127 -9.6219 -6.6145 -10.2203 -6.3821 C -10.7577 -6.1733 -11.6135 -6.5737 -12.1418 -6.3428 C -12.5611 -6.1596 -12.9765 -5.9924 -13.1221 -5.5586 C -13.2164 -5.2777 -13.2751 -4.686 -13.0829 -4.4606 C -12.8607 -4.1999 -12.3915 -4.4435 -12.2202 -4.1468 C -12.1232 -3.9788 -12.1418 -3.3233 -12.1418 -3.3233 C -12.1418 -3.3233 -11.3806 -3.8177 -11.2006 -4.1468 C -11.0865 -4.3556 -11.083 -4.9311 -11.083 -4.9311 C -11.083 -4.9311 -9.2171 -4.8056 -8.4164 -4.8135 C -7.8624 -4.8189 -6.9122 -4.6837 -6.4165 -4.9311 C -6.0283 -5.1249 -5.7205 -5.6044 -5.6322 -6.0291 C -5.5996 -6.1858 -5.7891 -6.5389 -5.7891 -6.5389 C -5.7891 -6.5389 -5.5041 -6.7144 -5.3577 -6.5781 C -4.9952 -6.2406 -4.8589 -5.8185 -4.8479 -5.3233 C -4.8286 -4.4526 -4.9377 -3.1654 -5.3185 -2.3822 C -5.5419 -1.9228 -5.9417 -1.3193 -6.3808 -0.8851 C -6.5592 -0.7087 -6.7441 -0.5602 -6.9263 -0.4607 C -7.3704 -0.2182 -8.1049 -0.219 -8.5341 0.0491 C -8.8234 0.2298 -9.1585 0.5712 -9.3183 0.8726 C -9.4481 1.1172 -9.5323 1.4982 -9.5144 1.7745 C -9.4919 2.1236 -9.1223 2.8725 -9.1223 2.8725 L -8.8192 1.9782 L -7.278 1.2384 C -7.278 1.2384 -5.2437 0.7849 -4.5038 0.3137 C -3.6872 -0.2064 -3.6676 -0.5018 -3.6676 -0.5018 C -3.6676 -0.5018 -3.8496 0.6132 -4.812 1.485 C -5.113 1.7576 -5.9833 2.1631 -5.9833 2.1631 C -5.9833 2.1631 -4.3257 2.0422 -3.7024 1.7316 C -2.9641 1.3636 -2.1476 0.5532 -1.668 -0.1179 C -1.2344 -0.7244 -0.5594 -2.796 -0.5594 -2.796 C -0.5594 -2.796 -1.0854 -4.7386 -1.483 -5.6662 C -1.6993 -6.1708 -2.4694 -7.2074 -2.4694 -7.2074 C -2.4694 -7.2074 -1.7182 -6.1399 -1.485 -5.6344 C -0.9685 -4.5147 -0.2501 -1.7139 -0.2501 -1.7139 C -0.2501 -1.7139 0.338 -3.5101 0.4281 -4.31 C 0.4943 -4.8984 0.5208 -5.7111 0.3664 -6.2827 C 0.2348 -6.77 -0.435 -7.7623 -0.435 -7.7623 C -0.435 -7.7623 0.1968 -6.7276 0.3596 -6.2384 C 0.5447 -5.6822 0.3535 -4.8003 0.6747 -4.31 C 1.0485 -3.7392 1.9035 -3.0843 2.5858 -3.077 C 2.8681 -3.074 3.2034 -3.3559 3.3872 -3.5702 C 3.6354 -3.8596 3.9242 -4.3627 3.8804 -4.7415 C 3.8515 -4.9914 3.3872 -5.4196 3.3872 -5.4196 C 3.3872 -5.4196 3.16 -4.8219 2.998 -4.6404 C 2.8576 -4.483 2.5879 -4.544 2.4085 -4.6548 C 2.2481 -4.754 2.2706 -5.2402 2.2409 -5.4264 C 2.094 -6.3461 2.6572 -7.4296 2.3363 -8.1765 C 2.2271 -8.4308 1.8687 -9.1089 1.5516 -9.312 C 1.3441 -9.4449 0.5514 -9.7967 0.5514 -9.7967 C 0.5514 -9.7967 1.0792 -10.1358 1.2295 -10.3515 C 1.5538 -10.817 1.7522 -11.5798 1.846 -12.1393 C 1.9132 -12.5406 1.846 -13.4955 1.846 -13.4955 C 1.846 -13.4955 0.5896 -13.4539 0.0582 -13.3723 C -0.2483 -13.3251 -0.9469 -13.1303 -0.9469 -13.1303 z"/>
  <path class="white outline" d="M -7.7675 -11.8829 A 1.5381 0.9054 23.6704 1 0 -4.9502 -10.6479 A 1.5381 0.9054 23.6704 1 0 -7.7675 -11.8829 z"/>
  <path class="white outline" d="M -5.7817 -11.5938 A 0.9849 0.9849 90 1 1 -7.7515 -11.5938 A 0.9849 0.9849 90 1 1 -5.7817 -11.5938 z"/>
  <path class="pupil outline" d="M -6.6856 -12.4412 C -6.7599 -12.4414 -6.8265 -12.4299 -6.8932 -12.422 C -7.0266 -12.4063 -7.1392 -12.3836 -7.1392 -12.3836 L -7.0431 -11.9646 C -7.0431 -11.9646 -6.9513 -11.9826 -6.8432 -11.9953 C -6.7351 -12.0081 -6.5996 -11.9899 -6.6203 -11.9992 C -6.6297 -12.0034 -6.5425 -11.9058 -6.5357 -11.8839 C -6.514 -11.8135 -6.5267 -11.551 -6.5619 -11.4798 C -6.5743 -11.4548 -6.6748 -11.3665 -6.6811 -11.3644 C -6.6491 -11.3749 -6.7553 -11.3657 -6.8348 -11.3798 C -6.9143 -11.3939 -6.9809 -11.4106 -6.9809 -11.4106 C -6.9809 -11.4106 -7.1987 -11.4365 -7.2296 -11.3653 C -7.2705 -11.2709 -7.1046 -11.0459 -7.1046 -11.0459 C -7.1046 -11.0459 -7.0189 -11.0257 -6.9163 -11.0075 C -6.8136 -10.9893 -6.7089 -10.9571 -6.555 -11.0075 C -6.3715 -11.0676 -6.2584 -11.1841 -6.1821 -11.3381 C -6.0798 -11.5447 -6.0547 -11.7848 -6.1245 -12.0107 C -6.174 -12.1712 -6.26 -12.3087 -6.4435 -12.3913 C -6.5305 -12.4304 -6.6114 -12.441 -6.6856 -12.4412 z"/>
  <path class="body outline" d="M -6.8641 -13.1015 C -6.8641 -13.1015 -7.2038 -13.0485 -7.3441 -12.9924 C -7.6196 -12.8822 -7.8975 -12.6325 -7.9331 -12.3379 C -7.9517 -12.1839 -7.8921 -12.0529 -7.7804 -11.9452 C -7.6603 -11.8294 -7.4672 -11.8437 -7.3005 -11.8361 C -7.0563 -11.8251 -6.7534 -12.0173 -6.5151 -11.9888 C -6.1719 -11.9479 -5.727 -11.7376 -5.4679 -11.5089 C -5.3467 -11.4019 -5.3198 -11.1388 -5.1843 -11.0507 C -5.0624 -10.9716 -4.8341 -10.92 -4.7043 -10.9853 C -4.5709 -11.0524 -4.5015 -11.2769 -4.4643 -11.4216 C -4.4464 -11.4914 -4.444 -11.5925 -4.4643 -11.6616 C -4.495 -11.7661 -4.5853 -11.8884 -4.6607 -11.967 C -4.7549 -12.0654 -5.0315 -12.2288 -5.0315 -12.2288"/>
  <path class="body outline" d="M -13.1176 -10.8963 C -13.1176 -10.8963 -12.5177 -11.7118 -12.2435 -11.8254 C -11.9694 -11.9389 -11.8666 -11.9229 -11.8125 -11.8254 C -11.7584 -11.7278 -11.7751 -11.5739 -11.9783 -11.373 C -12.1815 -11.172 -13.1176 -10.8963 -13.1176 -10.8963 z"/>
  <path class="ear outline" d="M -0.998 -11.7122 C -0.998 -11.7122 -0.6626 -12.2516 -0.4355 -12.384 C -0.0774 -12.5928 0.9236 -12.6339 0.9236 -12.6339 C 0.9236 -12.6339 1.0934 -11.7638 0.8612 -11.5247 C 0.7464 -11.4066 0.4308 -11.5942 0.3144 -11.4778 C 0.1612 -11.3249 0.4066 -10.9105 0.2519 -10.7592 C 0.1478 -10.6574 -0.2324 -10.728 -0.2324 -10.728 C -0.2324 -10.728 -0.2257 -11.3437 -0.3887 -11.5247 C -0.5166 -11.6668 -0.998 -11.7122 -0.998 -11.7122 z"/>
  <path class="outline" d="M -1.9082 -11.3945 C -1.9082 -11.3945 -2.5819 -10.0349 -3.032 -9.5792 C -3.2696 -9.3386 -3.6602 -9.0751 -3.9829 -8.974 C -4.6022 -8.7802 -6.2166 -8.67 -6.2166 -8.67 L -6.317 -8.5418 C -6.317 -8.5418 -4.5021 -9.0117 -3.9829 -8.5418 C -3.7897 -8.3669 -3.7889 -7.9148 -3.8965 -7.6774 C -3.9886 -7.4742 -4.238 -7.191 -4.4291 -7.0759 C -4.7272 -6.8964 -5.5148 -6.6781 -5.5148 -6.6781"/>
  <path class="outline" d="M -2.4269 -4.4789 C -2.4269 -4.4789 -2.3256 -3.4384 -2.4269 -3.0093 C -2.5868 -2.332 -2.8859 -1.7465 -3.2351 -1.1446 C -3.3759 -0.902 -3.7538 -0.3666 -3.7538 -0.3666"/>
  <path class="outline" d="M -13.3191 4.3386 C -13.3191 4.3386 -14.0982 4.8626 -14.3811 5.176 C -14.5903 5.4078 -14.9616 6.154 -14.9616 6.154"/>
  <path class="outline" d="M -5.2796 3.0419 C -5.2796 3.0419 -6.784 3.5193 -7.4069 3.9439 C -7.6952 4.1404 -7.9547 4.5566 -8.1042 4.8719 C -8.3378 5.3645 -8.4781 6.28 -8.4781 6.28"/>
  <path class="outline" d="M -5.4473 5.3879 C -5.4473 5.3879 -4.5929 4.548 -4.2423 4.2522 C -3.7695 3.8532 -2.8606 3.6404 -2.5134 3.1284 C -2.2907 2.8 -2.254 1.8317 -2.254 1.8317"/>
  <path class="outline" d="M -13.492 -0.0701 C -13.492 -0.0701 -13.5586 1.1122 -13.7513 1.5723 C -14.0378 2.2565 -14.6531 3.0833 -15.2209 3.5606 C -15.5316 3.8218 -16.4311 4.1657 -16.4311 4.1657 C -16.4311 4.1657 -16.4311 4.1657 -16.4311 4.1657"/>
</svg>
