<?xml version="1.0" encoding="UTF-8" standalone="no"?>
<svg xmlns="http://www.w3.org/2000/svg" xmlns:svg="http://www.w3.org/2000/svg" width="36.706" height="39.128" version="1.0">
  <path class="body outline" d="M -7.5323 7.6434 s -1.1037 -0.8446 -1.0911 -1.3042 c 0.0039 -0.1428 0.1683 -0.1994 0.2222 -0.3317 c 0.0638 -0.1567 0.0876 -0.322 -0.0154 -0.4562 c -0.1633 -0.2127 -0.5883 -0.1592 -0.8499 -0.1 c -0.3492 0.0791 -0.9354 0.6182 -0.9354 0.6182 l -0.1367 0.8852 l 1.2381 1.1176 l 1.5681 -0.4288 z"/>
  <path class="body outline" d="M 5.2668 10.0629 s -3.6695 -0.6147 -5.2553 -0.5803 c -0.3785 0.0082 -0.9158 0.0094 -1.2471 0.1927 c -0.2903 0.1606 -0.5772 0.5385 -0.7239 0.836 c -0.1627 0.33 -0.4029 0.8682 -0.2466 1.2012 c 0.1428 0.3043 0.9882 0.528 0.9882 0.528 s -0.8048 0.2501 -1.1359 0.1569 c -0.2445 -0.0689 -0.5157 -0.3241 -0.6549 -0.5365 c -0.1046 -0.1596 -0.1731 -0.6121 -0.1731 -0.6121 s -0.3198 0.3156 -0.5179 0.3574 c -0.2636 0.0555 -0.8362 -0.0505 -0.8362 -0.0505 s 0.253 -0.2237 0.3479 -0.3207 c 0.1617 -0.1651 0.3142 -0.3958 0.3698 -0.6201 c 0.0336 -0.1356 -0.1195 -0.4501 -0.1195 -0.4501 s -0.0749 0.276 -0.1352 0.3814 c -0.1288 0.225 -0.3467 0.5089 -0.5564 0.6613 c -0.1182 0.086 -0.3571 0.0717 -0.4514 0.1834 c -0.1262 0.1496 -0.2169 0.219 -0.1723 0.4096 c 0.0341 0.146 0.0843 0.3356 0.2247 0.3881 c 0.0916 0.0343 0.2971 0.127 0.3843 0.0824 c 0.0725 -0.0371 0.2524 -0.0993 0.2524 -0.0993 s -0.1074 0.2838 -0.3018 0.4508 c -0.1056 0.0907 -0.2825 0.0997 -0.3773 0.1184 c -0.0491 0.0097 -0.2398 0.0806 -0.434 -0.0361 c -0.1889 -0.1135 -0.347 -0.3181 -0.3737 -0.3588 c 0 0 -0.2755 -0.3221 -0.3232 -0.4922 c -0.0731 -0.2607 -0.0412 -0.641 0.0308 -0.902 c 0.0401 -0.1455 0.2097 -0.2934 0.2431 -0.4406 c 0.0277 -0.122 -0.058 -0.2959 -0.0241 -0.4164 c 0.0375 -0.1332 0.0313 -0.127 0.0313 -0.127 s 0.071 0.1061 -0.0507 0.3026 c -0.1348 0.2177 -0.5104 0.7742 -0.5104 0.7742 l -0.3466 -0.5039 l -0.0465 -0.5098 s -0.019 -0.1716 0.0323 -0.2088 c 0.0549 -0.0399 0.1615 0.0642 0.2233 0.0362 c 0.1529 -0.0693 0.1352 -0.3814 0.1352 -0.3814 s -0.002 0.3072 -0.1575 0.3767 c -0.0567 0.0254 -0.1589 -0.0688 -0.2053 -0.0275 c -0.1676 0.1495 -0.0492 0.4001 0.0141 0.7484 c 0.0461 0.2531 0.1697 0.5045 0.0915 0.657 c -0.0706 0.1377 -0.4526 0.2474 -0.4526 0.2474 l -1.1441 -0.4055 s -0.3432 -0.3295 -0.3741 -0.5189 c -0.0498 -0.3057 0.1328 -1.1012 0.1328 -1.1012 l -0.0797 -0.0175 l -0.4888 0.4707 s 0.0181 0.7069 -0.2076 0.8279 c -0.1605 0.086 -0.572 -0.2028 -0.572 -0.2028 l -1.0379 -0.9474 s -0.0599 -0.3748 0.0097 -0.5117 c 0.1052 -0.2071 0.6167 -0.4682 0.6167 -0.4682 l -0.5069 -0.2655 s -0.6352 0.3274 -0.9003 0.2389 c -0.1294 -0.0432 -0.2261 -0.2324 -0.2812 -0.3572 c -0.1064 -0.2411 -0.1436 -0.8665 -0.1436 -0.8665 l 0.9558 -1.4856 s 0.3623 -0.0436 0.4791 0.041 c 0.247 0.1789 0.3982 0.9353 0.3982 0.9353 s 0.9236 0.5234 1.3649 0.5696 c 0.4679 0.049 1.0717 -0.2585 1.5411 -0.2908 c 0.3161 -0.0217 0.7476 -0.0257 1.0548 0.0519 c 0.1124 0.0284 0.2586 0.0936 0.3488 0.1665 c 0.1911 0.1546 0.3807 0.4342 0.4996 0.6493 c 0.1147 0.2074 0.1371 0.5475 0.2739 0.741 c 0.071 0.1003 0.315 0.2619 0.315 0.2619 s -0.4522 -0.7147 -0.6203 -1.0355 c -0.2072 -0.3954 -0.3456 -0.9988 -0.6143 -1.3553 c -0.0821 -0.1089 -0.2926 -0.1691 -0.3464 -0.2945 c -0.1022 -0.2383 -0.0598 -0.6272 0.0483 -0.8629 c 0.017 -0.037 0.097 -0.0534 0.0978 -0.0941 c 0.0028 -0.1493 -0.275 -0.2267 -0.3451 -0.3584 c -0.1576 -0.2958 -0.2533 -0.7575 -0.2353 -1.0922 c 0.0157 -0.291 0.0949 -0.7205 0.3053 -0.922 c 0.1666 -0.1596 0.5091 -0.211 0.7398 -0.21 c 0.3282 0.0014 1.0499 0.3078 1.0499 0.3078 s -0.5499 0.0789 -0.7398 0.21 c -0.1359 0.0938 -0.3006 0.2789 -0.3283 0.4417 c -0.0152 0.0898 0.0455 0.2105 0.0905 0.2896 c 0.1948 0.3422 0.8773 0.9763 0.8773 0.9763 s 0.8252 -0.2288 1.1887 -0.2655 c 0.4583 -0.0462 1.08 -0.0423 1.5351 0.029 c 0.2461 0.0386 0.5646 0.1449 0.7953 0.239 c 0.2782 0.1134 0.5878 0.4377 0.887 0.4646 c 0.1813 0.0163 0.4113 -0.1109 0.5793 -0.181 c 0.1823 -0.0761 0.4416 -0.1696 0.5817 -0.3089 c 0.1268 -0.1262 5.276 -1.8135 3.8025 -2.8124 l -3.0727 -2.0831 l 4.705 2.9061 l 2.1598 3.2445 l -2.935 3.836 z"/>
  <path class="outline" d="M -6.3397 5.2798 s 0.3132 0.1743 0.4597 0.2166 c 0.1344 0.0388 0.4627 0.0567 0.4627 0.0567"/>
  <path class="outline" d="M -4.9172 6.1703 s -0.2753 -0.1868 -0.412 -0.1997 c -0.1542 -0.0145 -0.3781 0.0369 -0.4983 0.1345 c -0.1282 0.1042 -0.2492 0.4911 -0.2492 0.4911"/>
  <path class="outline" d="M -4.8285 6.5558 s -0.3243 -0.0958 -0.447 -0.0404 c -0.182 0.082 -0.3132 0.3537 -0.3939 0.5363 c -0.0434 0.0981 -0.0706 0.3505 -0.0706 0.3505"/>
  <path class="outline" d="M -4.4708 7.0903 s -0.3758 -0.0176 -0.5128 0.0543 c -0.1267 0.0665 -0.2513 0.2318 -0.3107 0.362 c -0.0783 0.1716 -0.0917 0.622 -0.0917 0.622"/>
  <path class="outline" d="M -8.6726 9.4098 s 0.3055 -0.2386 0.4217 -0.3119 c 0.1582 -0.0999 0.6238 -0.0042 0.6238 -0.0042"/>
  <path class="outline" d="M -10.176 8.5658 s 0.1855 -0.1933 0.292 -0.2184 c 0.1466 -0.0346 0.4941 0.0893 0.4941 0.0893"/>
  <path class="claw outline" d="M -9.9237 6.0858 c -0.1449 -0.1229 -0.2024 -0.4006 -0.3329 -0.5386 c -0.1967 -0.2082 -0.7823 -0.5471 -0.7823 -0.5471 s 0.5001 -0.0696 0.7104 -0.0339 c 0.2547 0.0432 0.6138 0.1419 0.7983 0.3227 c 0.1418 0.1389 0.2769 0.4104 0.2606 0.6082 c -0.0106 0.1286 -0.1086 0.3235 -0.2316 0.3624 c -0.1307 0.0413 -0.3181 -0.0849 -0.4226 -0.1736 z"/>
  <path class="claw outline" d="M -11.4101 6.4725 c 0.1037 0.1011 0.2012 0.2793 0.2398 0.4204 c 0.0395 0.1442 0.0912 0.372 0.0102 0.5034 c -0.0517 0.0838 -0.1977 0.1308 -0.2938 0.1448 c -0.0687 0.01 -0.1623 -0.0132 -0.2245 -0.0403 c -0.1313 -0.0572 -0.2396 -0.2499 -0.379 -0.2864 c -0.1219 -0.0319 -0.304 0.0037 -0.4237 0.0528 c -0.1693 0.0695 -0.2597 0.0875 -0.3795 0.2273 c -0.0917 0.107 -0.2786 0.5249 -0.2786 0.5249 s -0.1755 -0.4974 -0.1564 -0.6981 c 0.0279 -0.2933 0.1456 -0.5734 0.371 -0.7717 c 0.1424 -0.1253 0.4004 -0.2002 0.5852 -0.228 c 0.228 -0.0342 0.5412 -0.0042 0.7584 0.0591 c 0.0563 0.0164 0.1295 0.0514 0.171 0.0919 z"/>
  <path class="claw outline" d="M -10.439 9.5041 c 0.0841 -0.0068 0.2021 0.0421 0.2625 0.1011 c 0.1489 0.1456 0.3071 0.4381 0.2643 0.6419 c -0.0325 0.1547 -0.2451 0.2822 -0.3794 0.3654 c -0.1998 0.1236 -0.5045 0.2363 -0.738 0.2625 c -0.216 0.0242 -0.7194 -0.0857 -0.7194 -0.0857 s 0.435 -0.2682 0.573 -0.4338 c 0.128 -0.1536 0.1628 -0.4495 0.2997 -0.5952 c 0.1041 -0.1109 0.2859 -0.2438 0.4375 -0.2561 z"/>
  <path class="claw outline" d="M -7.6872 10.7939 c 0.1866 -0.0312 0.4158 0.1873 0.5345 0.3346 c 0.1017 0.1261 0.126 0.2493 0.1124 0.4107 c -0.0178 0.2121 -0.1815 0.4858 -0.3482 0.6183 c -0.1035 0.0823 -0.2907 0.122 -0.423 0.1242 c -0.1556 0.0026 -0.2934 0.0385 -0.432 -0.0322 c -0.16 -0.0816 -0.4615 -0.3813 -0.4615 -0.3813 s 0.3919 -0.0037 0.5304 -0.0861 c 0.1506 -0.0896 0.3118 -0.2927 0.3572 -0.4619 c 0.0246 -0.0916 -0.0677 -0.2219 -0.0422 -0.3133 c 0.0222 -0.0792 0.0912 -0.1995 0.1723 -0.2131 z"/>
  <path class="body outline" d="M -11.4969 -14.6945 s 0.2507 -1.173 0.6317 -1.4606 c 0.116 -0.0875 0.2941 0.0162 0.4803 -0.063 c 0.2002 -0.0851 0.6492 -0.2418 0.6871 -0.4561 c 0.0387 -0.2192 -0.2875 -0.6839 -0.2875 -0.6839 s -0.6919 -0.4872 -1.0373 -0.5025 c -0.3763 -0.0167 -1.1742 0.4449 -1.1742 0.4449 l -0.1486 1.0233 l 0.8485 1.6979 z"/>
  <path class="body outline" d="M 2.3963 -9.1437 s -2.4604 6.0191 -7.1398 6.3052 c -0.86 0.0526 -2.0305 -0.3034 -2.7764 -0.7346 c -0.3762 -0.2175 -1.0198 -1.0289 -1.0198 -1.0289 s -0.6881 0.4268 -0.7911 0.7336 c -0.0756 0.2253 0.0418 0.5627 0.1381 0.78 c 0.1042 0.2353 0.525 0.6782 0.525 0.6782 s -0.7762 -0.156 -1.0249 -0.3678 c -0.2624 -0.2235 -0.454 -0.6763 -0.5553 -1.0057 c -0.0928 -0.3018 -0.0793 -0.5976 0.0504 -0.8855 c 0.0945 -0.2098 0.3984 -0.6446 0.3984 -0.6446 s -0.5372 -0.6888 -0.7469 -1.032 c -0.1838 -0.3008 -0.499 -1.0638 -0.499 -1.0638 s -0.2812 0.0922 -0.3809 0.1673 c -0.0892 0.0672 -0.1982 0.1818 -0.2378 0.2862 c -0.0565 0.1487 -0.1116 0.4021 -0.0171 0.5301 c 0.1001 0.1357 0.5422 0.1481 0.5422 0.1481 s -0.1794 0.2674 -0.3033 0.2922 c -0.2596 0.052 -0.6527 -0.1172 -0.8223 -0.3205 c -0.2542 -0.3045 -0.3165 -0.9066 -0.2519 -1.298 c 0.0392 -0.2377 0.234 -0.5209 0.3981 -0.6974 c 0.1684 -0.1811 0.6843 -0.4595 0.6843 -0.4595 s -0.4258 -0.3906 -0.519 -0.6127 c -0.0687 -0.1638 0.0085 -0.4234 -0.0544 -0.5895 c -0.0816 -0.2152 -0.4221 -0.3908 -0.4535 -0.6188 c -0.0928 -0.6733 0.7951 -2.1213 0.7951 -2.1213 s -0.5075 1.2442 -0.9866 1.4784 c -0.2157 0.1054 -0.7981 -0.0584 -0.7981 -0.0584 l -0.5734 -1.2022 s 0.0137 -0.4404 0.1481 -0.5422 c 0.3162 -0.2395 1.3222 0.0101 1.3222 0.0101 l -0.8757 -0.1834 l -0.0907 -0.9826 l 0.6903 -0.394 s -0.7874 0.509 -1.1488 0.4364 c -0.2057 -0.0414 -0.5069 -0.4817 -0.5069 -0.4817 l 0.1058 -1.0007 s 0.1707 -0.4686 0.3507 -0.4948 c 0.4835 -0.0705 1.2819 1.0047 1.2819 1.0047 l -0.7992 -0.785 l 0.2257 -0.4172 l 0.7871 0.654 l -0.7931 -0.7195 l -0.001 -0.7266 l 0.262 -0.0242 s -0.504 -0.0805 -0.6157 -0.2294 c -0.1308 -0.1744 -0.2006 -0.4347 -0.1021 -0.6292 c 0.1523 -0.3009 0.9859 -0.5314 0.9859 -0.5314 s 0.7808 -0.1033 0.9987 0.084 c 0.1851 0.1591 0.2665 0.393 0.257 0.6369 c -0.0079 0.203 -0.3188 0.602 -0.3188 0.602 s 0.3436 1.1646 0.5899 1.6191 c 0.287 0.5297 0.7847 1.175 1.2053 1.6063 c 0.3995 0.4098 1.0985 0.7719 1.4965 1.1831 c 0.6096 0.6299 1.3014 2.0191 1.7702 2.7598 c 0.596 0.9415 2.1322 1.8394 2.1322 1.8394 l 7.1243 -1.9592 l -0.0615 1.0073 z"/>
  <path class="outline" d="M -9.8062 -5.2238 s 0.3501 -0.405 0.4768 -0.5738 c 0.1031 -0.1373 0.2503 -0.317 0.3847 -0.424 c 0.0813 -0.0647 0.3022 -0.1692 0.3022 -0.1692"/>
  <path class="outline" d="M -11.0668 -7.403 s 0.303 -0.1478 0.4423 -0.1821 c 0.2049 -0.0504 0.5109 0.0281 0.7004 -0.0647 c 0.2282 -0.1117 0.4373 -0.4073 0.5786 -0.6185 c 0.0946 -0.1414 0.2349 -0.5161 0.2349 -0.5161"/>
  <path class="outline" d="M -11.5081 -8.7396 s 0.5146 -0.0439 0.7164 -0.2449"/>
  <path class="outline" d="M -11.5117 -11.5883 s 0.4168 1.5221 0.985 1.9368 c 0.401 0.2927 1.2473 0.3709 1.2473 0.3709"/>
  <path class="claw outline" d="M -10.9768 -17.3571 c 0.027 0.1481 0.132 0.3438 0.253 0.4332 c 0.0925 0.0683 0.2643 0.1239 0.3733 0.0873 c 0.1463 -0.0491 0.2834 -0.1142 0.3307 -0.261 c 0.1282 -0.3982 0.1453 -0.8944 -0.0265 -1.2758 c -0.13 -0.2887 -0.4454 -0.6353 -0.7391 -0.7535 c -0.1352 -0.0544 -0.2623 -0.1002 -0.4007 -0.0543 c -0.1391 0.0462 -0.4661 0.2256 -0.4661 0.2256 s 0.3291 0.0856 0.442 0.1722 c 0.1261 0.0969 0.2537 0.2802 0.3134 0.4276 c 0.0752 0.1856 0.0021 0.3347 -0.001 0.5349 c -0.0022 0.1411 -0.1042 0.325 -0.0789 0.4638 z"/>
  <path class="claw outline" d="M -14.6836 -18.4932 s 0.033 -0.5231 0.2377 -0.722 c 0.2062 -0.2003 0.5905 -0.3674 0.8775 -0.3854 c 0.1955 -0.0123 0.4676 0.0703 0.6259 0.1857 c 0.3025 0.2206 0.5669 0.5508 0.6625 0.9128 c 0.0401 0.1517 0.0789 0.3426 0.0144 0.4856 c -0.0742 0.1645 -0.2509 0.2641 -0.4304 0.2832 c -0.1285 0.0137 -0.3212 -0.1491 -0.4174 -0.2354 c -0.2479 -0.2222 -0.2475 -0.6978 -0.5363 -0.8636 c -0.0899 -0.0516 -0.2368 -0.0659 -0.3403 -0.0599 c -0.0926 0.0053 -0.2073 0.0618 -0.2962 0.0882 c -0.1333 0.0397 -0.3974 0.3106 -0.3974 0.3106 z"/>
  <path class="claw outline" d="M -14.2861 -14.8472 c 0.0913 -0.0259 0.2413 -0.039 0.2934 -0.1184 c 0.075 -0.1143 0.0521 -0.3345 -0.0116 -0.4555 c -0.0901 -0.171 -0.1817 -0.3106 -0.3682 -0.3617 c -0.1052 -0.0288 -0.5567 0.1056 -0.6556 0.1518 c -0.2457 0.1149 -0.3949 0.2534 -0.5014 0.5028 c -0.097 0.2272 -0.1106 0.5953 -0.0153 0.8232 c 0.0746 0.1783 0.3004 0.3459 0.4671 0.4438 c 0.1019 0.0599 0.3761 0.1175 0.3761 0.1175 s -0.2136 -0.4727 -0.1848 -0.683 c 0.0168 -0.1225 0.1088 -0.2843 0.2108 -0.3542 c 0.0977 -0.0671 0.2755 -0.0341 0.3895 -0.0664 z"/>
  <path class="claw outline" d="M -13.8218 -12.4553 c 0.114 -0.1012 0.3804 0.0079 0.4968 0.1063 c 0.123 0.104 0.2179 0.3392 0.1983 0.4991 c -0.022 0.1791 -0.2066 0.3801 -0.3505 0.4889 c -0.2023 0.1529 -0.5423 0.3031 -0.7953 0.2865 c -0.2693 -0.0177 -0.6213 -0.2102 -0.799 -0.4132 c -0.1917 -0.219 -0.3177 -0.6223 -0.3278 -0.9132 c -0.0044 -0.1266 0.1147 -0.4062 0.1147 -0.4062 s 0.1536 0.4067 0.2916 0.5209 c 0.1913 0.1584 0.5368 0.2599 0.7851 0.2623 c 0.1302 0.0013 0.3183 -0.371 0.3863 -0.4313 z"/>
  <path class="body outline" d="M -15.631 -3.9192 c 0.1266 -0.017 0.3075 0.0012 0.4217 0.0584 c 0.0907 0.0454 0.1902 0.1508 0.2379 0.2403 c 0.1276 0.2396 0.0707 0.6379 0.1784 0.8871 c 0.1752 0.4053 0.8521 1.2 0.8521 1.2 l -1.6957 0.1251 l -1.3447 -1.1321 l 0.1648 -0.6111 s 0.2832 -0.3417 0.4383 -0.4479 c 0.2012 -0.1377 0.5055 -0.2874 0.7471 -0.3198 z"/>
  <path class="body outline" d="M -15.6311 -3.9051 z"/>
  <path class="body outline" d="m -0.1998 -6.3328 l -6.5594 1.0104 l -6.8215 2.6978 l -1.9129 0.7964 l -0.5073 -0.3419 s -0.3549 -0.7174 -0.6318 -0.894 c -0.1852 -0.1181 -0.7205 -0.1309 -0.7205 -0.1309 l -0.6015 1.5241 s 0.0623 0.3877 0.1671 0.5099 c 0.1112 0.1295 0.5077 0.2571 0.5077 0.2571 l 0.5525 -0.2093 c 0.068 -0.0673 1.5911 0.1023 1.8508 0.2491 c 0.0627 0.0354 0.1999 -0.1031 0.1705 -0.1688 c -0.0321 -0.0717 -0.2767 0.0313 -0.4797 0.0248 c -0.2649 -0.0085 -0.4109 0.0711 -0.5312 0.058 c -0.4613 -0.0502 -0.472 0.0038 -0.8003 0.2198 c -0.1426 0.0938 -0.2571 0.5077 -0.2571 0.5077 l 1.1801 1.533 s 0.6653 0.1913 0.8906 0.0469 c 0.2646 -0.1696 0.2133 -0.7115 0.3867 -0.9737 c 0.129 -0.1952 0.3643 -0.6853 0.5542 -0.5487 c 0.1804 0.1298 -0.3864 0.2264 -0.5826 0.5305 c -0.241 0.3735 -0.146 0.9506 -0.146 0.9506 l 0.506 0.5964 s 1.1077 0.108 1.5275 -0.0772 c 0.0659 -0.0291 0.1604 -0.0975 0.1705 -0.1688 c 0.0211 -0.149 0.1945 -0.5836 0.0695 -0.7719 c -0.1542 -0.2324 -0.4509 -0.3716 -0.4509 -0.3716 s -0.0734 0.0264 0.0219 0.0085 c 0.2123 -0.0398 0.4482 0.3719 0.4482 0.3719 l 1.0219 -0.7584 s 0.0577 0.255 0.0358 0.3618 c -0.0373 0.1816 -0.2984 0.541 -0.2984 0.541 s 0.628 -0.0735 0.949 -0.2461 c 0.2378 -0.1278 0.6912 -0.4114 0.8132 -0.6522 c 0.0813 -0.1606 0.1998 -0.3093 0.1998 -0.3093 s 0.039 0.5509 -0.0752 0.8615 c -0.0686 0.1866 -0.3317 0.4466 -0.3317 0.4466 s 0.3615 0.0206 0.6712 -0.0458 c 0.2824 -0.0605 0.5115 -0.2069 0.5861 -0.2372 c 0.0146 -0.0059 0.3687 -0.1766 0.6113 -0.5913 c 0.2288 -0.3911 0.1073 -0.3768 0.3792 -0.5152 c 0.0698 -0.0355 0.0887 0.3042 0.0054 0.6536 c -0.0738 0.3099 -0.2477 0.6317 -0.2444 0.6411 c 0.343 -0.0413 1.3561 -0.3238 1.7692 -0.6056 c 0.6928 -0.4727 0.9805 -1.5397 1.1196 -1.4753 c 0.6022 0.279 2.1546 0.3187 2.6372 0.7744 c 0.4637 0.4379 1.6275 -0.2995 2.21 -0.0397 c 0.9336 0.4163 2.429 -4.2604 2.429 -4.2604 l -1.0472 -1.7723 l -1.4422 -0.0072 z"/>
  <path class="claw outline" d="M -15.3991 -3.3815 c 0.0202 -0.2795 -0.0971 -0.5713 -0.301 -0.7636 c -0.1753 -0.1653 -0.5213 -0.2308 -0.7607 -0.2578 c -0.2475 -0.0279 -0.6078 -0.0354 -0.826 0.0848 c -0.1142 0.0629 -0.1821 0.1401 -0.2172 0.2656 c -0.0332 0.1183 -0.0527 0.3808 -0.0527 0.3808 s 0.2112 -0.1564 0.3183 -0.1635 c 0.1611 -0.0107 0.3668 0.1004 0.5071 0.1804 c 0.1458 0.0831 0.2918 0.2626 0.43 0.3578 c 0.0969 0.0667 0.2269 0.1673 0.342 0.1922 c 0.1234 0.0267 0.3126 0.0314 0.4193 -0.036 c 0.0707 -0.0447 0.1349 -0.1572 0.1409 -0.2406 z"/>
  <path class="claw outline" d="M -16.7251 -2.3467 c -0.0403 0.1455 -0.2036 0.313 -0.3448 0.3666 c -0.1251 0.0475 -0.3224 0.0148 -0.4443 -0.0403 c -0.1572 -0.0711 -0.2571 -0.3315 -0.4171 -0.3958 c -0.1909 -0.0767 -0.4863 -0.0535 -0.6858 -0.0034 c -0.1307 0.0328 -0.299 0.1192 -0.3948 0.2139 c -0.1237 0.1223 -0.282 0.5066 -0.282 0.5066 s -0.0973 -0.7391 0.0305 -1.0159 c 0.1017 -0.2204 0.3834 -0.433 0.5997 -0.5431 c 0.1945 -0.099 0.4938 -0.1516 0.712 -0.1488 c 0.2033 0.0026 0.4809 0.0587 0.6597 0.1557 c 0.1706 0.0926 0.3728 0.2776 0.4677 0.4469 c 0.0687 0.1226 0.1369 0.3223 0.0993 0.4577 z"/>
  <path class="claw outline" d="M -15.7239 0.6049 c 0.127 -0.1552 0.1159 -0.3725 0.0154 -0.5461 c -0.1107 -0.1913 -0.3619 -0.4392 -0.5819 -0.4601 c -0.1589 -0.0151 -0.3139 0.2003 -0.446 0.2899 c -0.1628 0.1104 -0.3935 0.2421 -0.5353 0.3783 c -0.1451 0.1393 -0.3231 0.3495 -0.4091 0.5314 c -0.0518 0.1095 -0.1148 0.2746 -0.0909 0.3933 c 0.0345 0.1711 0.3406 0.4716 0.3406 0.4716 s -0.0607 -0.4009 0.0154 -0.5461 c 0.0683 -0.1303 0.2585 -0.2358 0.3952 -0.2901 c 0.2213 -0.088 0.5499 -0.0883 0.7879 -0.0976 c 0.1905 -0.0075 0.3879 0.0231 0.5087 -0.1245 z"/>
  <path class="claw outline" d="M -12.9987 1.6982 c 0.0706 0.2208 0.132 0.4531 0.0601 0.6734 c -0.0785 0.2408 -0.3632 0.5038 -0.5999 0.5939 c -0.1497 0.057 -0.3129 0.0914 -0.4702 0.0611 c -0.1657 -0.0318 -0.5325 -0.1805 -0.5325 -0.1805 s 0.2781 -0.1434 0.3822 -0.2267 c 0.1221 -0.0977 0.3036 -0.2325 0.3575 -0.3792 c 0.0698 -0.1898 -0.1198 -0.4898 -0.0347 -0.6733 c 0.0526 -0.1134 0.2074 -0.2378 0.3315 -0.2523 c 0.1322 -0.0155 0.3095 0.0877 0.4055 0.1798 c 0.0492 0.0472 0.0798 0.1388 0.1006 0.2037 z"/>
  <path class="body outline" d="M 4.1972 3.3383 c -0.4278 -0.1031 -1.035 0.0086 -1.4624 0.1129 c -0.2323 0.0567 -0.7336 0.3116 -0.7336 0.3116 s 0.5612 0.307 0.8125 0.4158 c 0.4979 0.2155 1.2431 0.3215 1.7027 0.6098 c 0.4072 0.2555 0.8424 0.7478 1.1427 1.123 c 0.3415 0.4268 0.9612 1.5479 0.9612 1.5479 s 0.1541 -2.1003 -0.3002 -2.8195 c -0.399 -0.6316 -1.3966 -1.1266 -2.1228 -1.3016 z"/>
  <path class="body outline" d="M 4.6906 16.2232 s -0.71 -0.5239 -0.8267 -0.8629 c -0.08 -0.2324 0.1661 -0.5839 0.0828 -0.8152 c -0.08 -0.2225 -0.3374 -0.4767 -0.561 -0.5537 c -0.1676 -0.0577 -0.5869 0.0684 -0.5869 0.0684 l -0.4864 1.116 l 0.3503 0.4496 l 0.7137 0.6407 l 1.3141 -0.043 z"/>
  <path class="body outline" d="M -3.9814 -7.2128 s -2.8982 5.7974 -2.3977 6.2333 c 0.4809 0.4189 3.2404 1.1403 3.8329 1.3765 c 0.9495 0.3785 2.9875 1.5313 3.9502 1.8751 c 0.724 0.2586 1.7049 0.833 2.3689 1.2206 c 0.7331 0.428 1.7963 1.0149 2.2261 1.7469 c 0.2661 0.4533 0.4039 1.2216 0.273 1.7307 c -0.1979 0.7701 -1.1467 1.3905 -1.6818 1.9787 c -0.0892 0.0981 -0.3804 0.0659 -0.6471 0.3903 c -0.2776 0.3376 -0.5323 1.0302 -0.7014 1.0383 c -0.2965 0.0143 -0.822 -0.3147 -0.822 -0.3147 s 0.0436 0.3882 0.2707 0.6698 c 0.181 0.2245 0.5402 0.3558 0.6396 0.3548 c 0.2478 -0.0024 0.5846 -0.147 0.6611 -0.1746 c 0.3895 -0.1401 0.9408 -1.0093 0.9408 -1.0093 s -1.0233 1.1276 -1.0426 1.7345 c -0.0085 0.2674 0.2207 0.4829 0.1761 0.7467 c -0.0481 0.2845 -0.1269 0.5896 -0.4142 0.6155 c -0.4184 0.0378 -0.972 -0.1295 -0.972 -0.1295 s 0.2423 0.4351 0.6373 0.6506 c 0.2458 0.1341 0.5484 0.1581 0.8109 0.0608 c 0.58 -0.2149 1.2653 -0.7741 1.6101 -1.2875 c 0.2019 -0.3007 0.3413 -1.158 0.3413 -1.158 s -0.6206 1.2864 -0.4871 1.8423 c 0.0928 0.3866 0.6461 0.8353 0.6461 0.8353 s -0.6977 0.2411 -1.0254 0.4514 c -0.517 0.3318 -1.2591 1.6147 -1.2591 1.6147 s -0.7907 -0.301 -1.0792 -0.5139 c -0.1888 -0.1393 -0.3042 -0.5102 -0.5296 -0.5756 c -0.1631 -0.0473 -0.5466 0.1465 -0.5466 0.1465 l -0.4082 1.6697 s 0.2104 0.4728 0.4009 0.5377 c 0.3203 0.1092 0.7291 -0.2716 1.0862 -0.3043 c 0.353 -0.0323 1.0714 0.1011 1.0714 0.1011 l -1.2889 0.7669 l -0.0669 0.5117 l 1.0093 0.9408 s 0.6657 -0.0827 0.8389 -0.2842 c 0.2376 -0.2763 0.2127 -1.1959 0.2127 -1.1959 s 0.239 0.269 0.3001 0.4607 c 0.0761 0.2388 -0.048 0.6764 -0.048 0.6764 l 0.4827 0.4499 l 0.9795 0.0929 s 0.4259 -0.2862 0.4499 -0.4827 c 0.0425 -0.347 -0.5653 -1.019 -0.5653 -1.019 l 1.0762 -0.145 l 0.1837 -0.8129 s 0.3132 1.0552 0.6821 1.2918 c 0.2366 0.1518 0.671 0.1469 0.9356 0.052 c 0.2209 -0.0792 0.5756 -0.5296 0.5756 -0.5296 s -0.4179 0.1565 -0.5905 0.1056 c -0.1554 -0.0458 -0.394 -0.2062 -0.3949 -0.3681 c -0.0018 -0.3065 0.7392 -0.7051 0.7392 -0.7051 s 0.6413 0.3633 0.9475 0.3912 c 0.2188 0.0199 0.5629 0.0049 0.7162 -0.1525 c 0.1637 -0.1681 0.1428 -0.769 0.1428 -0.769 s -0.1927 0.2969 -0.3729 0.3121 c -0.1829 0.0154 -0.5233 -0.069 -0.6006 -0.2354 c -0.1472 -0.3169 0.1717 -1.1521 0.1717 -1.1521 s 0.6811 0.2016 0.9869 0.054 c 0.121 -0.0584 0.3324 -0.2928 0.3592 -0.504 c 0.0403 -0.3174 -0.0196 -0.4723 -0.0196 -0.4723 s -0.1865 0.393 -0.4117 0.3809 c -0.2273 -0.0122 -0.5369 -0.1471 -0.6902 -0.3153 c -0.2603 -0.2856 -0.4285 -0.8296 -0.4247 -1.216 c 0.0045 -0.4679 0.2495 -0.9118 0.4102 -1.3513 c 0.0471 -0.1287 0.1573 -0.3562 0.1573 -0.3562 s 0.5037 0.4085 0.7813 0.493 c 0.1948 0.0593 0.6442 -0.0179 0.811 -0.1347 c 0.2492 -0.1746 0.4564 -0.6459 0.38 -0.9404 c -0.0635 -0.2445 -0.4398 -0.4453 -0.4398 -0.4453 s 0.0331 0.3945 0.0057 0.5683 c -0.0195 0.1234 -0.3401 0.1988 -0.4604 0.2324 c -0.0982 0.0274 -0.2277 -0.1004 -0.2857 -0.1843 c -0.2869 -0.4147 -0.274 -1.0711 -0.2158 -1.5719 c 0.0414 -0.3562 0.5139 -1.0792 0.5139 -1.0792 s 0.7466 0.5991 1.129 0.7243 c 0.2793 0.0915 0.4122 -0.3931 0.2679 -0.8244 c -0.1759 -0.5257 -0.6726 -1.029 -0.6726 -1.029 s -1.4437 -1.3575 -1.7395 -1.7795 c -0.8021 -1.1447 -1.0655 -2.1938 -1.9661 -3.2628 c -0.3481 -0.4131 -0.9443 -1.0661 -1.3296 -1.4447 c -0.6547 -0.6435 -1.7688 -1.5473 -2.3765 -2.2354 c -1.0282 -1.1644 -3.3476 -3.8176 -3.3476 -3.8176 l -1.1175 -1.7288 l -4.7505 -0.1148 z"/>
  <path class="outline" d="M 11.9518 8.3717 s -0.273 -0.6626 -0.4617 -0.953 c -0.1667 -0.2564 -0.5759 -0.4407 -0.7457 -0.6951 c -0.1424 -0.2133 -0.2986 -0.8009 -0.2986 -0.8009"/>
  <path class="outline" d="M 9.5567 6.9232 s 0.4033 0.542 0.457 0.8179 c 0.0811 0.4166 -0.2376 0.9186 -0.2411 1.343 c -0.0023 0.2778 0.0779 0.5893 0.0331 0.8097 c -0.0382 0.1881 -0.2243 0.5992 -0.2243 0.5992 s 0.4414 -0.2186 0.601 -0.4002 c 0.0616 -0.0701 0.4598 -0.503 0.4598 -0.503 s -0.1398 1.0123 -0.0177 1.4206 c 0.0365 0.1222 0.2378 0.3523 0.2378 0.3523"/>
  <path class="outline" d="M 9.7065 14.0259 s 0.1405 0.4931 0.2532 0.679 c 0.0955 0.1577 0.411 0.4569 0.411 0.4569"/>
  <path class="outline" d="M 9.1722 16.9491 s 0.2531 -0.5202 0.2917 -0.7618 c 0.0427 -0.2678 0.0355 -0.6438 -0.0445 -0.9029 c -0.0298 -0.0964 -0.1757 -0.2868 -0.1757 -0.2868"/>
  <path class="outline" d="M 8.3735 15.2447 s 0.262 0.5218 0.2436 0.7685 c -0.0273 0.3642 -0.3091 0.7957 -0.4055 1.148 c -0.0487 0.1778 -0.1292 0.4188 -0.1189 0.6029 c 0.0079 0.1425 0.1433 0.4536 0.1433 0.4536"/>
  <path class="outline" d="M 7.4682 17.0345 s 0.1656 -0.8981 0.1906 -1.1022 c 0.0209 -0.171 -0.0688 -0.5071 -0.0688 -0.5071"/>
  <path class="outline" d="m 3.8942 -2.3607 l -0.6657 0.9667"/>
  <path class="outline" d="m 4.3531 -1.8882 l -0.5779 0.7156"/>
  <path class="outline" d="m 4.6915 -1.3829 l -0.3061 0.5547"/>
  <path class="outline" d="m 5.0575 -0.9816 l -0.328 0.5261"/>
  <path class="outline" d="m 7.7911 13.8647 l -0.566 0.125 l -0.8798 -0.1479 s -0.0401 0.2068 -0.0028 0.3393 c 0.0239 0.0847 0.1283 0.229 0.2084 0.2655 c 0.1493 0.0679 0.3726 0.1385 0.5348 0.1139 c 0.0811 -0.0123 0.2386 -0.1337 0.2386 -0.1337"/>
  <path class="outline" d="M 7.1738 10.7364 s -0.3497 0.5257 -0.3671 0.7851 c -0.0163 0.2422 0.1232 0.5603 0.2416 0.7723 c 0.1017 0.182 0.208 0.3444 0.401 0.4235 c 0.1691 0.0693 0.6625 0.0539 0.6625 0.0539 s -0.4255 0.2687 -0.6333 0.2882 c -0.274 0.0258 -0.6575 -0.0723 -0.8913 -0.2175 c -0.1526 -0.0947 -0.3004 -0.3 -0.385 -0.4584 c -0.1138 -0.213 -0.2245 -0.7729 -0.2245 -0.7729"/>
  <path class="outline" d="M 5.2632 10.8121 s -0.4076 0.4753 -0.4546 0.7367 c -0.0367 0.2041 0.0648 0.4789 0.0412 0.6849 c -0.0221 0.1933 -0.0709 0.3945 -0.1515 0.5716 c -0.0863 0.1896 -0.4399 0.7362 -0.4399 0.7362"/>
  <path class="outline" d="M 10.9603 7.7959 s 0.0541 0.6706 0.0006 0.9508 c -0.0574 0.3005 -0.3765 0.9476 -0.3765 0.9476"/>
  <path class="outline" d="M 0.3649 0.2334 s 0.4338 0.3743 0.5717 0.5494 c 0.0801 0.1018 0.4296 0.6135 0.4296 0.6135"/>
  <path class="outline" d="M 1.4737 0.7189 s 0.5877 0.5538 0.7737 0.7937 c 0.098 0.1264 0.3162 0.5621 0.3162 0.5621"/>
  <path class="outline" d="M 2.511 1.1908 s 0.4331 0.5465 0.5898 0.8002 c 0.1127 0.1824 0.3248 0.6367 0.3248 0.6367"/>
  <path class="outline" d="M 3.6364 1.8642 s 0.304 0.3709 0.4081 0.5474 c 0.0972 0.1648 0.2235 0.3937 0.2631 0.5809 c 0.0385 0.1819 -0.0049 0.6199 -0.0049 0.6199"/>
  <path class="claw outline" d="M 3.1367 14.4385 c -0.0061 -0.1964 -0.2388 -0.4056 -0.3991 -0.5192 c -0.1886 -0.1337 -0.2868 -0.1738 -0.5154 -0.2086 c -0.1995 -0.0303 -0.4881 -0.071 -0.6724 0.0109 c -0.1967 0.0875 -0.4893 0.525 -0.4893 0.525 s 0.6366 -0.106 0.8998 -0.0443 c 0.286 0.067 0.3635 0.3408 0.638 0.4455 c 0.0992 0.0378 0.2468 0.116 0.3455 0.0767 c 0.0962 -0.0383 0.1963 -0.1826 0.1931 -0.2861 z"/>
  <path class="claw outline" d="M 1.9615 15.3195 c 0.1398 0.1419 0.2393 0.1732 0.2416 0.3724 c 0.002 0.1737 -0.1068 0.4371 -0.2611 0.517 c -0.0928 0.048 -0.2432 -0.0261 -0.3446 -0.0514 c -0.1707 -0.0426 -0.377 -0.1877 -0.5528 -0.1964 c -0.1476 -0.0073 -0.3508 0.0434 -0.4782 0.1184 c -0.1021 0.06 -0.2095 0.1865 -0.2691 0.2887 c -0.0631 0.1081 -0.0346 0.2359 -0.0636 0.3577 c -0.009 0.0378 -0.2243 -0.2098 -0.2792 -0.3583 c -0.0568 -0.1536 -0.0748 -0.3868 -0.0318 -0.5448 c 0.0615 -0.2263 0.241 -0.3388 0.4142 -0.497 c 0.1634 -0.1493 0.3998 -0.1374 0.6155 -0.1867 c 0.2197 -0.0502 0.5335 -0.0246 0.7503 0.0371 c 0.0854 0.0243 0.1966 0.08 0.2589 0.1432 z"/>
  <path class="claw outline" d="M 2.9122 18.1678 s 0.3611 0.0949 0.4889 0.1859 c 0.0707 0.0504 0.1115 0.089 0.133 0.1731 c 0.0456 0.178 0.0011 0.4614 -0.1185 0.6008 c -0.1615 0.1882 -0.539 0.2124 -0.7772 0.2812 c -0.1635 0.0472 -0.5018 0.17 -0.5018 0.17 s 0.3373 -0.9734 0.4527 -1.1304 c 0.1384 -0.1882 0.3024 -0.273 0.3229 -0.2806 z"/>
  <path class="claw outline" d="M 6.2775 18.9255 c 0.1175 0.054 0.2516 0.188 0.3028 0.3067 c 0.0633 0.1468 0.0819 0.3857 0.0187 0.5325 c -0.0876 0.2037 -0.3564 0.3887 -0.5541 0.4892 c -0.2622 0.1333 -0.9574 0.2114 -0.9574 0.2114 s 0.3264 -0.3338 0.4395 -0.4978 c 0.0697 -0.1011 0.1787 -0.24 0.1904 -0.3621 c 0.0143 -0.1489 -0.1777 -0.3317 -0.1437 -0.4774 c 0.022 -0.0944 0.1301 -0.2007 0.2202 -0.2362 c 0.1353 -0.0533 0.3514 -0.0269 0.4836 0.0338 z"/>
  <path class="outline" d="m 12.2917 8.5664 l -0.5769 -0.7587"/>
  <path class="body outline" d="M 12.9039 7.4754 s 0.3646 0.3212 0.8004 0.3138 c 0.3784 -0.0064 0.8514 -0.3689 1.059 -0.6852 c 0.1248 -0.1901 0.2686 -1.456 0.1869 -1.7442 c -0.106 -0.3741 -0.4777 -0.892 -0.7475 -1.059 c -0.2698 -0.1671 -0.5724 -0.188 -0.8098 -0.1246 c -0.1156 0.0309 -0.2251 0.1664 -0.3115 0.2492 c -0.0652 0.0624 -0.1927 0.1366 -0.1978 0.2267 c -0.003 0.0527 0.0628 0.1074 0.1002 0.1447 c 0.1378 0.1373 0.5344 0.3674 0.5344 0.3674 s -0.4938 0.2386 -0.7125 0.2004 c -0.1981 -0.0346 -0.4535 -0.2108 -0.5455 -0.3897 c -0.1192 -0.2316 -0.0923 -0.6248 0 -0.8684 c 0.0821 -0.2168 0.3155 -0.456 0.5121 -0.5789 c 0.2116 -0.1323 0.8016 -0.2227 0.8016 -0.2227 s -0.9064 0.1219 -1.2803 0.0334 c -0.317 -0.0751 -0.715 -0.2946 -0.9574 -0.5121 c -0.1234 -0.1108 -0.2734 -0.2951 -0.3117 -0.4565 c -0.0467 -0.1967 -0.009 -0.4912 0.0891 -0.668 c 0.0967 -0.1743 0.3186 -0.3754 0.5121 -0.4231 c 0.1889 -0.0465 0.467 0.0348 0.6346 0.1336 c 0.1408 0.083 0.3563 0.4119 0.3563 0.4119 s -0.3207 -0.0593 -0.4453 -0.0111 c -0.0991 0.0383 -0.2533 0.1387 -0.2561 0.2449 c -0.0041 0.1559 0.2249 0.2945 0.3563 0.3785 c 0.1513 0.0967 0.5678 0.1893 0.5678 0.1893 l 0.7014 -0.0223 l 0.5566 0.0779 s -0.6556 -1.4009 -0.9298 -1.9308 c -0.1565 -0.3025 -0.3925 -1.0859 -0.4899 -1.4123 c -0.129 -0.4327 -0.0965 -0.4814 -0.2392 -0.9098 c -0.1645 -0.4937 -0.4584 -1.167 -0.8461 -1.5141 c -0.2242 -0.2007 -0.719 -0.4171 -1.0092 -0.4962 c -0.2438 -0.0664 -0.5014 -0.0513 -0.7498 -0.0048 c -0.191 0.0357 -0.4577 0.1516 -0.5678 0.3117 c -0.126 0.1833 -0.1746 0.5251 -0.1002 0.7348 c 0.0245 0.069 0.1155 0.1291 0.1781 0.167 c 0.1301 0.0788 0.3275 0.151 0.4787 0.167 c 0.2142 0.0227 0.5171 0.0017 0.7125 -0.0891 c 0.0536 -0.0249 0.1447 -0.1336 0.1447 -0.1336 s -0.1346 0.5208 -0.2895 0.6791 c -0.1641 0.1678 -0.4791 0.2985 -0.7125 0.3229 c -0.2619 0.0274 -0.6347 -0.0484 -0.8572 -0.1893 c -0.2856 -0.1808 -0.6002 -0.5648 -0.6902 -0.8906 c -0.1039 -0.3761 -0.0319 -0.9493 0.1559 -1.2914 c 0.1621 -0.2954 0.5568 -0.5841 0.8684 -0.7125 c 0.1954 -0.0806 0.7014 -0.0668 0.7014 -0.0668 l 0.3006 0.1002 s -0.3701 -0.1062 -0.5233 -0.167 c -0.1652 -0.0656 -0.4004 -0.1392 -0.5344 -0.2561 c -0.2652 -0.2314 -0.5648 -0.6371 -0.6457 -0.9797 c -0.0518 -0.2193 0.0142 -0.5334 0.0891 -0.7459 c 0.0942 -0.2675 0.2792 -0.6249 0.501 -0.8016 c 0.2239 -0.1783 0.6158 -0.2998 0.9018 -0.3117 c 0.1756 -0.0073 0.4231 0.0449 0.5678 0.1447 c 0.1914 0.1321 0.4151 0.404 0.4453 0.6346 c 0.0139 0.1058 -0.1225 0.334 -0.1225 0.334 s -0.2471 -0.3174 -0.4008 -0.3785 c -0.1583 -0.0629 -0.4127 -0.0704 -0.5678 0 c -0.097 0.044 -0.1915 0.1694 -0.2338 0.2672 c -0.0813 0.1879 -0.1498 0.492 -0.0668 0.6791 c 0.091 0.2052 0.3999 0.3461 0.6012 0.4453 c 0.1963 0.0967 0.7014 0.2004 0.7014 0.2004 l 0.7348 0.5455 s -0.118 -0.9651 -0.1113 -1.3805 c 0.0057 -0.3562 0.0556 -0.8324 0.1336 -1.1801 c 0.1042 -0.4648 0.3057 -1.0737 0.5121 -1.503 c 0.304 -0.6321 0.973 -1.3297 1.258 -1.9705 c 0.0971 -0.2184 0.1887 -0.5302 0.2115 -0.7682 c 0.0288 -0.3001 0.0172 -0.7159 -0.0779 -1.002 c -0.0611 -0.1838 -0.2275 -0.3916 -0.3451 -0.5455 c -0.1292 -0.169 -0.283 -0.4397 -0.4787 -0.5232 c -0.1352 -0.0577 -0.3563 -0.038 -0.4899 0.0111 c -0.1336 0.0491 -0.2844 0.1797 -0.3563 0.2895 s -0.1437 0.3007 -0.1113 0.4008 c 0.0323 0.1001 0.2773 0.3309 0.3579 0.306 c 0.0806 -0.0249 0.6552 -0.1501 0.6552 -0.1501 s -0.1606 0.4821 -0.3451 0.6234 c -0.1846 0.1413 -0.7008 0.1665 -1.0455 0.1228 c -0.3447 -0.0437 -0.7833 -0.3975 -1.0697 -0.6238 s -0.5374 -0.4677 -0.6346 -0.7125 c -0.0971 -0.2448 -0.0798 -0.5922 -0.0223 -0.8016 c 0.0575 -0.2094 0.1926 -0.4261 0.3451 -0.5455 c 0.1164 -0.0912 0.4676 -0.1559 0.4676 -0.1559 s -0.5478 -0.2156 -0.7348 -0.3785 c -0.197 -0.1717 -0.425 -0.4625 -0.501 -0.7125 c -0.0865 -0.2845 -0.1031 -0.7212 0.0223 -0.9908 c 0.1746 -0.3755 0.5247 -0.8169 0.8802 -1.0293 c 0.2476 -0.148 0.7685 -0.3726 1.057 -0.3781 c 0.2038 -0.0039 0.4997 0.2298 0.6457 0.372 c 0.1423 0.1386 0.2585 0.4281 0.2227 0.6234 c -0.027 0.1468 -0.3229 0.3785 -0.3229 0.3785 s 0.0786 -0.3874 0 -0.5232 c -0.0637 -0.1101 -0.2404 -0.2177 -0.3674 -0.2115 c -0.1722 0.0084 -0.3989 0.1759 -0.4676 0.334 c -0.051 0.1174 0.003 0.3064 0.0557 0.4231 c 0.1275 0.2827 0.6791 0.7793 0.6791 0.7793 l 1.1578 0.334 l 0.7459 0.4899 l 0.2115 0.3006 l 0.3785 -0.8795 s 0.7139 -0.7236 1.1022 -0.9018 c 0.2096 -0.0962 0.5301 -0.1744 0.757 -0.1336 c 0.221 0.0397 0.4878 0.2189 0.6457 0.3785 c 0.1136 0.1149 0.2897 0.3076 0.2672 0.4676 c -0.0253 0.1801 -0.4342 0.4231 -0.4342 0.4231 s 0.0944 -0.3687 0.0111 -0.4899 c -0.0844 -0.1227 -0.3189 -0.176 -0.4676 -0.167 c -0.1491 0.009 -0.3294 0.1284 -0.4453 0.2227 c -0.1421 0.1155 -0.2984 0.3141 -0.3785 0.4787 c -0.0872 0.1792 -0.1654 0.4467 -0.1559 0.6457 c 0.0142 0.2965 0.2169 0.6579 0.3229 0.9352 c 0.1539 0.4027 0.4616 0.9043 0.5566 1.3248 c 0.0472 0.2087 0.0585 0.5 0.0334 0.7125 c -0.0155 0.1312 -0.1225 0.4231 -0.1225 0.4231 l -0.2527 0.5019 s 0.6435 -0.5967 0.9916 -0.7083 c 0.2631 -0.0843 0.6732 -0.1225 0.9208 0 c 0.3035 0.1501 0.5619 0.5817 0.6847 0.8972 c 0.0568 0.1458 0.0832 0.3671 0.0472 0.5194 c -0.0402 0.1703 -0.1874 0.3681 -0.3069 0.4958 c -0.0833 0.089 -0.3305 0.2361 -0.3305 0.2361 s 0.2254 -0.5248 0.1889 -0.7555 c -0.0313 -0.198 -0.1749 -0.4768 -0.3541 -0.5666 c -0.2288 -0.1146 -0.637 -0.0711 -0.85 0.0708 c -0.1793 0.1195 -0.2795 0.4282 -0.3305 0.6375 c -0.0587 0.2408 0.0693 0.5883 0 0.8263 c -0.0775 0.266 -0.3128 0.5711 -0.4958 0.7791 c -0.2557 0.2908 -0.7328 0.5383 -0.9916 0.8263 c -0.2048 0.2279 -0.9004 1.242 -0.9916 1.4402 c -0.1128 0.245 -0.2463 0.606 -0.2125 0.8736 c 0.0151 0.1195 0.1889 0.3541 0.1889 0.3541 s 0.1397 -0.3931 0.2597 -0.5194 c 0.2578 -0.2713 0.7411 -0.4688 1.0861 -0.6139 c 0.2583 -0.1086 0.7156 -0.0463 0.8972 -0.2597 c 0.1525 -0.1793 0.1878 -0.563 0.0944 -0.7791 c -0.0663 -0.1535 -0.3328 -0.3123 -0.4486 -0.3305 c -0.1157 -0.0183 -0.2125 0.0708 -0.2125 0.0708 s 0.2895 -0.3669 0.4722 -0.4014 c 0.2355 -0.0445 0.5951 0.0816 0.7555 0.2597 c 0.1265 0.1404 0.2688 0.3882 0.2969 0.5751 c 0.0295 0.1966 -0.0341 0.5153 -0.108 0.6999 c -0.0783 0.1955 -0.38 0.3144 -0.5194 0.4722 c -0.0976 0.1104 -0.3217 0.2591 -0.2833 0.4014 c 0.0486 0.1806 0.4066 0.163 0.5666 0.2597 c 0.268 0.1619 0.6213 0.4009 0.8263 0.6375 c 0.1226 0.1414 0.2631 0.3611 0.3069 0.543 c 0.0797 0.3308 0.0504 0.8073 -0.0472 1.1333 c -0.0593 0.1978 -0.1903 0.4646 -0.3541 0.5902 c -0.0818 0.0628 -0.2276 0.0874 -0.3305 0.0944 c -0.1999 0.0137 -0.4942 0.0164 -0.6611 -0.0944 c -0.1376 -0.0914 -0.2833 -0.4722 -0.2833 -0.4722 l -0.0708 -0.1653 s 0.4848 0.2952 0.7083 0.2597 c 0.1246 -0.0198 0.2903 -0.1402 0.3305 -0.2597 c 0.0537 -0.1596 -0.0234 -0.4232 -0.1417 -0.543 c -0.1496 -0.1517 -0.4748 -0.1523 -0.6847 -0.1889 c -0.1704 -0.0297 -0.3934 -0.1081 -0.5751 -0.0439 c -0.2158 0.0762 -0.5136 0.163 -0.7083 0.2833 c -0.1451 0.0897 -0.3032 0.2583 -0.425 0.3778 c -0.0894 0.0878 -0.2387 0.1898 -0.2833 0.3069 c -0.1437 0.3773 -0.0616 1.1775 -0.0152 1.5786 c 0.0308 0.2663 0.1004 0.6204 0.1889 0.8736 c 0.2424 0.6938 0.4621 1.0873 0.7368 1.7689 c 0.2278 0.5651 0.782 1.7811 0.9631 2.3628 c 0.0792 0.2546 0.2143 0.5872 0.2597 0.85 c 0.0531 0.3074 0.0379 0.727 0.0472 1.0388 c 0.0148 0.4956 0.11 0.9789 -0.0152 1.4587 c -0.0785 0.3009 -0.3038 0.8353 -0.4806 1.0912 c -0.1974 0.2858 -0.4453 0.7009 -0.7319 0.8972 c -0.2642 0.181 -0.6958 0.3073 -1.0152 0.3305 c -0.2509 0.0182 -0.6388 -0.0153 -0.8732 -0.1065 c -0.3534 -0.1375 -1.0859 -0.673 -1.0859 -0.673"/>
  <path class="outline" d="M 10.1347 -18.0698 s -0.2329 0.7787 -0.1872 1.0497 c 0.0551 0.3268 0.1719 0.7723 0.3621 1.0437 c 0.1512 0.2158 0.4504 0.4276 0.6816 0.5538 c 0.3778 0.2062 1.3632 0.4473 1.3632 0.4473"/>
  <path class="body outline" d="M 11.6089 -14.2937 s -0.5618 0.2953 -0.7455 0.4899 c -0.1316 0.1395 -0.2811 0.3659 -0.3195 0.5538 c -0.0425 0.2081 0.0852 0.7029 0.0852 0.7029"/>
  <path class="outline" d="M 15.6559 -11.3542 s -0.4769 0.9659 -0.7668 1.3206 c -0.0974 0.1192 -0.261 0.2475 -0.3834 0.3408 c -0.1212 0.0924 -0.426 0.2769 -0.426 0.2769"/>
  <path class="body outline" d="M 15.1021 -8.3935 s -0.4308 -0.1269 -0.6177 -0.1065 c -0.151 0.0165 -0.3463 0.1016 -0.4686 0.1917 c -0.1133 0.0835 -0.2982 0.3621 -0.2982 0.3621"/>
  <path class="outline" d="M 17.7007 -3.5583 s -0.5402 -0.6209 -0.8307 -0.8307 c -0.2953 -0.2133 -0.7653 -0.4246 -1.1289 -0.4473 c -0.4084 -0.0255 -0.9637 0.1408 -1.3206 0.3408 c -0.2405 0.1348 -0.4812 0.4294 -0.6603 0.639 c -0.1877 0.2197 -0.5538 0.7881 -0.5538 0.7881"/>
  <path class="outline" d="M 14.0797 2.64 s 0.385 0.4841 0.4899 0.6816 c 0.0825 0.1553 0.1917 0.5538 0.1917 0.5538"/>
  <path class="body outline" d="M -6.0096 -15.4134 C -6.0096 -15.4134 -6.0776 -15.9065 -6.0077 -16.1004 C -5.872 -16.4771 -5.3231 -16.7653 -5.159 -17.1305 C -5.0499 -17.3735 -5.0216 -18.0077 -5.0216 -18.0077 C -5.0216 -18.0077 -4.2847 -17.8215 -4.0219 -17.6396 C -3.8025 -17.4878 -3.5543 -17.2003 -3.5543 -17.2003 C -3.5543 -17.2003 -3.4821 -17.5035 -3.3784 -17.6974 C -3.2582 -17.9224 -2.9634 -18.0848 -2.8512 -18.3139 C -2.7537 -18.5129 -2.7038 -18.9663 -2.7038 -18.9663 C -2.7038 -18.9663 -2.0921 -18.6232 -1.951 -18.3726 C -1.895 -18.2732 -1.9043 -17.9952 -1.9043 -17.9952 C -1.9043 -17.9952 -1.3264 -18.4919 -1.2509 -18.7916 C -1.2061 -18.9694 -1.3684 -19.3915 -1.3684 -19.3915 C -1.3684 -19.3915 -0.6531 -19.1035 -0.5042 -18.8332 C -0.3663 -18.5827 -0.4949 -17.8801 -0.4949 -17.8801 C -0.4949 -17.8801 -0.2479 -18.3534 -0.0802 -18.5024 C 0.1798 -18.7335 0.9537 -19.0277 0.9537 -19.0277 L 0.6888 -18.0119 C 0.6888 -18.0119 1.1568 -18.1518 1.3323 -18.0697 C 1.7439 -17.877 2.05 -17.2551 2.1946 -16.8243 C 2.2454 -16.6728 2.2169 -16.2921 2.2169 -16.2921 C 2.2169 -16.2921 2.7128 -16.7901 2.9928 -16.8579 C 3.1908 -16.9058 3.6637 -16.7528 3.6637 -16.7528 C 3.6637 -16.7528 3.4368 -16.232 3.4392 -15.9949 C 3.4438 -15.5394 3.9208 -15.0032 3.8998 -14.5482 C 3.8909 -14.3546 3.648 -13.9532 3.648 -13.9532 C 3.648 -13.9532 4.1956 -12.7278 4.2665 -12.1645 C 4.347 -11.5254 3.9794 -10.7649 4.1971 -10.1586 C 4.2501 -10.0112 4.4081 -9.8165 4.5614 -9.7843 C 4.7402 -9.7468 5.0187 -9.8791 5.0187 -9.8791 C 5.0187 -9.8791 4.9125 -9.412 4.7669 -9.2841 C 4.6247 -9.1591 4.1589 -9.115 4.1589 -9.115 C 4.1589 -9.115 4.1892 -8.7228 4.1651 -8.4796 C 4.1409 -8.2364 3.9641 -7.7203 4.0795 -7.4454 C 4.1854 -7.1931 4.4314 -6.9833 4.7046 -6.999 C 4.7724 -7.0029 4.9477 -6.9515 5.0294 -7.0165 C 5.2012 -7.1532 5.2742 -7.46 5.2742 -7.46 C 5.2742 -7.46 5.3239 -6.9956 5.2287 -6.8327 C 5.1002 -6.6123 4.9269 -6.485 4.6955 -6.3778 C 4.4601 -6.2687 3.8473 -6.3283 3.69 -6.1221 C 3.4212 -5.7697 3.817 -5.063 3.67 -4.6449 C 3.563 -4.3405 3.1018 -4.1058 3.0085 -3.7969 C 2.9293 -3.535 2.9342 -3.2267 3.0486 -2.9781 C 3.1376 -2.7845 3.2647 -2.5437 3.4641 -2.4685 C 3.5993 -2.4175 3.868 -2.41 3.9867 -2.4923 C 4.1336 -2.5941 4.2445 -2.7912 4.3047 -2.9594 C 4.3526 -3.093 4.4291 -3.4158 4.4291 -3.4158 C 4.4291 -3.4158 4.6046 -2.9281 4.5705 -2.7063 C 4.5417 -2.5192 4.4282 -2.295 4.2867 -2.1692 C 4.0852 -1.9901 3.7472 -1.8218 3.4834 -1.7664 C 3.1904 -1.7048 2.7682 -1.7147 2.4868 -1.8168 C 2.2364 -1.9076 1.7774 -2.3509 1.7774 -2.3509 C 1.7774 -2.3509 1.6981 -1.9532 1.6369 -1.7913 C 1.5493 -1.5596 1.4656 -1.1924 1.2576 -1.0577 C 1.0693 -0.9358 0.511 -1.0161 0.511 -1.0161 C 0.511 -1.0161 0.5963 -0.0919 0.7894 0.2435 C 0.874 0.3904 1.0559 0.546 1.2053 0.6259 C 1.3717 0.7148 1.6306 0.8068 1.8165 0.7745 C 2.046 0.7346 2.3159 0.5264 2.4649 0.3474 C 2.5476 0.2481 2.6328 -0.0492 2.6328 -0.0492 C 2.6328 -0.0492 2.6422 0.682 2.4792 0.9312 C 2.2847 1.2285 1.8307 1.5067 1.4807 1.5678 C 1.2487 1.6083 0.9277 1.4957 0.7148 1.3949 C 0.569 1.3259 0.4367 1.1329 0.2908 1.0641 C 0.0635 0.9571 -0.5268 0.8832 -0.5268 0.8832 C -0.5268 0.8832 -0.5339 1.4006 -0.5883 1.6137 C -0.6485 1.8494 -0.8069 2.138 -0.916 2.3554 C -0.9761 2.4751 -1.0733 2.6251 -1.0514 2.7571 C -1.0085 3.0144 -0.7428 3.2772 -0.4858 3.3216 C -0.3057 3.3526 -0.0297 3.2399 0.0787 3.0928 C 0.2092 2.9157 0.1403 2.3623 0.1403 2.3623 C 0.1403 2.3623 0.4317 2.9774 0.3721 3.2445 C 0.3324 3.4229 0.1436 3.6273 -0.0183 3.712 C -0.2473 3.8319 -0.6194 3.8172 -0.8763 3.7891 C -1.0811 3.7666 -1.3556 3.6891 -1.5309 3.5808 C -1.7309 3.4572 -1.9421 3.2115 -2.0774 3.0193 C -2.2977 2.7066 -2.5162 2.2367 -2.6381 1.8741 C -2.6966 1.7003 -2.8906 1.387 -2.8906 1.387 C -2.8906 1.387 -3.2051 1.3223 -3.391 1.2804 C -3.5989 1.2334 -3.885 1.1256 -4.0295 0.9689 C -4.177 0.8088 -4.2335 0.5022 -4.2937 0.293 C -4.3581 0.0692 -4.4385 -0.4698 -4.4385 -0.4698 C -4.4385 -0.4698 -5.3107 -0.074 -5.5048 0.2619 C -5.607 0.4388 -5.5983 0.7405 -5.5583 0.9408 C -5.5165 1.1498 -5.3521 1.3954 -5.2344 1.5731 C -5.1424 1.712 -4.8782 1.999 -4.8782 1.999 C -4.8782 1.999 -5.585 1.9627 -5.8586 1.8454 C -6.2195 1.6906 -6.7659 1.2053 -6.9978 0.8884 C -7.2091 0.5998 -7.353 0.1838 -7.4324 -0.165 C -7.515 -0.5282 -7.4264 -1.308 -7.4264 -1.308 L -7.2269 -2.0146 C -7.2269 -2.0146 -7.6212 -1.7242 -7.7118 -1.5113 C -7.7916 -1.3239 -7.8169 -0.8405 -7.8169 -0.8405 C -7.8169 -0.8405 -8.0726 -1.7137 -8.0954 -2.1001 C -8.112 -2.3821 -8.1008 -2.7726 -8.0015 -3.037 C -7.9275 -3.2338 -7.5948 -3.6077 -7.5948 -3.6077 C -7.5948 -3.6077 -7.9515 -4.5283 -8.02 -4.9432 C -8.1082 -5.4769 -8.1714 -6.2179 -8.0548 -6.7461 C -7.9629 -7.1624 -7.4318 -8.0231 -7.4318 -8.0231 L -8.0236 -7.9572 C -8.0236 -7.9572 -8.5753 -8.72 -8.5844 -9.1025 C -8.5963 -9.604 -8.1794 -10.2075 -7.921 -10.6374 C -7.7908 -10.854 -7.5293 -11.0812 -7.395 -11.2952 C -7.221 -11.5723 -6.9237 -12.2787 -6.9237 -12.2787 C -6.9237 -12.2787 -7.4339 -12.5775 -7.5298 -12.7966 C -7.6374 -13.0423 -7.4956 -13.69 -7.4956 -13.69 C -7.4956 -13.69 -7.1695 -13.3267 -6.9845 -13.2399 C -6.8427 -13.1733 -6.5684 -13.3471 -6.5684 -13.3471 C -6.5684 -13.3471 -6.7691 -13.9949 -6.7551 -14.3671 C -6.7474 -14.573 -6.6673 -14.8545 -6.5468 -15.0217 C -6.4302 -15.1835 -6.0096 -15.4134 -6.0096 -15.4134 z"/>
  <path class="teeth outline" d="M -2.9473 -12.0325 C -2.9473 -12.0325 -3.1277 -11.0965 -3.1334 -10.8108 C -3.1378 -10.5857 -2.9612 -10.258 -2.9612 -10.258 C -2.9612 -10.258 -2.6747 -10.4674 -2.6086 -10.6863 C -2.5246 -10.9647 -2.3886 -11.921 -2.3886 -11.921 L -2.9473 -12.0325 z"/>
  <path class="teeth outline" d="M 0.0705 -11.5667 C 0.0705 -11.5667 -0.1099 -10.6307 -0.1155 -10.345 C -0.12 -10.1199 0.0566 -9.7922 0.0566 -9.7922 C 0.0566 -9.7922 0.3432 -10.0016 0.4092 -10.2204 C 0.4933 -10.4989 0.6293 -11.4551 0.6293 -11.4551 L 0.0705 -11.5667 z"/>
  <path class="white outline" d="M -1.7248 -15.4995 A 1.2192 0.7177 -14.7664 1 1 -4.0826 -14.878 A 1.2192 0.7177 -14.7664 1 1 -1.7248 -15.4995 z"/>
  <path class="white outline" d="M -0.0334 -15.3614 A 1.2192 0.7177 32.5744 1 0 2.0214 -14.0486 A 1.2192 0.7177 32.5744 1 0 -0.0334 -15.3614 z"/>
  <path class="outline" d="M -0.6265 -15.5625 C -0.6265 -15.5625 -0.2628 -15.3864 -0.1891 -15.2822 C -0.0469 -15.0814 -0.0819 -14.7089 0.0833 -14.5266 C 0.1618 -14.4398 0.3273 -14.2998 0.415 -14.2223 C 0.4639 -14.1791 0.519 -14.0469 0.6751 -13.9638 C 0.864 -13.8633 1.1809 -13.8741 1.2804 -13.8133 C 1.6033 -13.6161 2.0469 -12.953 2.1051 -12.5792 C 2.1239 -12.4585 2.0185 -12.3058 1.9581 -12.1996 C 1.8055 -11.9311 1.4854 -11.6519 1.3235 -11.3888 C 1.2555 -11.2784 1.1742 -11.1225 1.1396 -10.9975 C 1.1147 -10.9074 1.109 -10.7808 1.1085 -10.6873 C 1.1082 -10.6231 1.1006 -10.5325 1.1277 -10.4743 C 1.1793 -10.3632 1.3584 -10.3352 1.403 -10.2212"/>
  <path class="outline" d="M -1.7328 -15.4561 C -1.7328 -15.4561 -1.6657 -15.2858 -1.8004 -15.0589 C -1.9081 -14.8773 -2.2078 -14.6346 -2.3096 -14.5974 C -2.636 -14.4781 -3.0815 -14.4202 -3.3322 -14.3601 C -3.5872 -14.299 -3.8544 -14.1999 -3.8935 -14.1842 C -3.9952 -14.1433 -4.1639 -14.1792 -4.2519 -14.114 C -4.4587 -13.9607 -4.6475 -13.6136 -4.6547 -13.3562 C -4.668 -12.884 -3.9955 -12.3991 -3.9946 -11.9267 C -3.9937 -11.3727 -4.6846 -10.7958 -4.7629 -10.2473 C -4.8031 -9.966 -4.4972 -9.8263 -4.587 -9.5567 C -4.6419 -9.3915 -5.037 -8.901 -5.037 -8.901 C -5.037 -8.901 -4.3385 -9.1728 -4.1083 -9.387 C -3.9671 -9.5184 -3.7701 -9.9339 -3.7701 -9.9339 C -3.7701 -9.9339 -4.119 -9.053 -4.0961 -8.6589 C -4.0711 -8.2278 -3.7798 -7.6482 -3.7798 -7.6482 C -3.7798 -7.6482 -3.6836 -8.028 -3.5705 -8.2223 C -3.4906 -8.3595 -3.0676 -8.3714 -3.0676 -8.3714 C -3.0676 -8.3714 -3.2687 -7.9884 -3.3135 -7.81 C -3.3431 -7.6917 -3.3713 -7.5238 -3.3454 -7.4046 C -3.3002 -7.196 -3.1352 -6.948 -3.0009 -6.7822 C -2.9453 -6.7137 -2.7785 -6.5895 -2.7785 -6.5895 C -2.7785 -6.5895 -2.8634 -7.0207 -2.81 -7.1944 C -2.7693 -7.3264 -2.5315 -7.5612 -2.5315 -7.5612 C -2.5315 -7.5612 -2.5329 -6.9529 -2.477 -6.7002 C -2.4488 -6.5732 -2.3757 -6.4056 -2.3558 -6.2771 C -2.3082 -5.9707 -2.4039 -5.8387 -2.4936 -5.5419 C -2.5313 -5.4171 -2.7259 -5.0672 -2.7259 -5.0672 C -2.7259 -5.0672 -2.1025 -5.2691 -1.9281 -5.4859 C -1.8113 -5.6312 -1.7359 -5.9258 -1.6998 -6.1087 C -1.6756 -6.2312 -1.6736 -6.2384 -1.6736 -6.2384 C -1.6736 -6.2384 -1.5001 -5.964 -1.485 -5.8299 C -1.465 -5.653 -1.5014 -5.618 -1.5673 -5.4526 C -1.6574 -5.2265 -1.8114 -5.0883 -1.8519 -4.8484 C -1.882 -4.6702 -1.8185 -4.4134 -1.7231 -4.2599 C -1.5297 -3.9483 -0.8799 -3.589 -0.8799 -3.589 C -0.8799 -3.589 -1.0712 -4.1558 -1.0674 -4.4078 C -1.0646 -4.5958 -0.8904 -4.7577 -0.798 -4.9216 C -0.6628 -5.1613 -0.2984 -5.3423 -0.1582 -5.5791 C -0.0571 -5.7499 0.0129 -6.0146 0.0356 -6.2118 C 0.0598 -6.4215 0.0366 -6.7085 -0.0122 -6.9139 C -0.0657 -7.1388 -0.3115 -7.6239 -0.3115 -7.6239 C -0.3115 -7.6239 -0.3665 -7.6758 -0.2205 -7.5092 C -0.1084 -7.3812 0.2063 -7.0458 0.244 -6.937 C 0.3089 -6.7494 0.3517 -6.3241 0.3517 -6.3241 C 0.3517 -6.3241 0.6177 -6.7726 0.6687 -7.0283 C 0.7145 -7.2577 0.5272 -7.7495 0.5272 -7.7495 L 0.4534 -8.0724 C 0.4534 -8.0724 0.8295 -7.7263 0.9049 -7.528 C 0.993 -7.2965 1.0281 -6.7717 1.0281 -6.7717 C 1.0281 -6.7717 1.4637 -7.3394 1.4823 -7.627 C 1.4926 -7.7858 1.4611 -7.9747 1.4172 -8.1276 C 1.3754 -8.2729 1.1712 -8.623 1.1712 -8.623 C 1.1712 -8.623 1.5688 -8.4703 1.6453 -8.3372 C 1.733 -8.1848 1.8839 -7.7091 1.8839 -7.7091 C 1.8839 -7.7091 2.1689 -8.07 2.2706 -8.4829 C 2.3495 -8.803 2.2086 -9.4341 2.0953 -9.5475 L 1.3438 -10.2993"/>
  <path class="langue outline" d="M -2.4644 -11.5787 C -2.4644 -11.5787 -2.6237 -10.2339 -2.399 -9.6255 C -2.2703 -9.2772 -1.7071 -8.5097 -1.7071 -8.5097 C -1.7071 -8.5097 -0.8123 -9.1486 -0.5717 -9.4352 C -0.1584 -9.9276 -0.0014 -11.3367 -0.0014 -11.3367 L -0.3989 -12.1186 L -1.901 -12.3299 L -2.4644 -11.5787 z"/>
  <path class="body outline" d="M -3.4622 -13.1625 C -3.4622 -13.1625 -3.6778 -13.0581 -3.5967 -12.7871 C -3.5388 -12.5934 -3.149 -12.294 -3.1189 -12.1603 C -3.0881 -12.0235 -3.0809 -11.6489 -3.0809 -11.6489 C -3.0809 -11.6489 -2.6594 -11.4543 -2.4964 -11.4731 C -2.2851 -11.4974 -2.0449 -11.6845 -1.8394 -11.7393 C -1.6555 -11.7883 -1.2107 -11.8253 -1.2107 -11.8253 L -1.0732 -13.0958 C -1.09 -13.0817 -1.6061 -13.8251 -1.7657 -14.1075 C -1.8231 -14.2092 -2.0591 -14.0605 -2.047 -13.9444 C -2.0047 -13.54 -1.0463 -13.1043 -1.0774 -13.09 C -1.0774 -13.09 -0.0351 -13.2823 0.0376 -13.6631 C 0.0521 -13.7391 -0.0447 -13.9051 -0.1143 -13.8714 C -0.3911 -13.7378 -1.044 -13.0475 -1.0764 -13.0963 L -1.2139 -11.8259 C -1.2139 -11.8259 -0.7809 -11.6467 -0.6405 -11.5578 C -0.4985 -11.4678 -0.3629 -11.2113 -0.2104 -11.1407 C 0.0073 -11.04 0.6165 -11.1897 0.6165 -11.1897 C 0.6165 -11.1897 0.6305 -11.4955 0.6821 -11.603 C 0.7615 -11.7683 1.1506 -11.9405 1.305 -12.1441 C 1.4445 -12.3281 1.2833 -12.4903 1.2833 -12.4903"/>
  <path class="outline" d="M -4.7104 -17.317 C -4.7104 -17.317 -4.4686 -17.0425 -4.4763 -16.899 C -4.4852 -16.7368 -4.802 -16.6201 -4.7905 -16.458 C -4.7812 -16.326 -4.4721 -16.2696 -4.4866 -16.1381 C -4.5192 -15.8428 -5.3084 -15.5859 -5.3084 -15.5859 C -5.3084 -15.5859 -4.8118 -16.3671 -4.7182 -16.7462 C -4.6771 -16.9125 -4.7104 -17.317 -4.7104 -17.317 z"/>
  <path class="outline" d="M 3.0808 -16.3001 C 3.0808 -16.3001 2.8222 -15.5533 2.9757 -15.2483 C 3.0869 -15.0274 3.2452 -14.6383 3.2452 -14.6383 C 3.2452 -14.6383 3.0557 -14.6669 2.9963 -14.718 C 2.8501 -14.8438 2.8624 -14.9838 2.8015 -15.2039 C 2.759 -15.3574 2.6483 -15.6308 2.6521 -15.8505 C 2.6554 -16.0369 3.0808 -16.3001 3.0808 -16.3001 z"/>
  <path class="white outline" d="M -1.8083 -15.2614 A 0.7807 0.7807 90 1 1 -3.3508 -15.503 A 0.7807 0.7807 90 1 1 -1.8083 -15.2614 z"/>
  <path class="white outline" d="M 1.4863 -14.8914 A 0.7807 0.7807 90 1 1 -0.0563 -15.1331 A 0.7807 0.7807 90 1 1 1.4863 -14.8914 z"/>
  <path class="pupil outline" d="M 0.8824 -15.6659 C 0.8243 -15.6752 0.7707 -15.6743 0.7175 -15.6763 C 0.6111 -15.6804 0.5201 -15.6764 0.5201 -15.6764 L 0.544 -15.3365 C 0.544 -15.3365 0.618 -15.3394 0.7043 -15.3361 C 0.7905 -15.3328 0.8944 -15.3019 0.8793 -15.3117 C 0.8725 -15.3162 0.9288 -15.2291 0.9314 -15.2111 C 0.9398 -15.1533 0.8977 -14.9492 0.8613 -14.8978 C 0.8486 -14.8798 0.759 -14.8229 0.7538 -14.8221 C 0.7802 -14.8264 0.6959 -14.8322 0.6353 -14.853 C 0.5748 -14.8738 0.5247 -14.895 0.5247 -14.895 C 0.5247 -14.895 0.3573 -14.942 0.3244 -14.8901 C 0.2808 -14.8212 0.3831 -14.6246 0.3831 -14.6246 C 0.3831 -14.6246 0.4477 -14.5983 0.5259 -14.5714 C 0.604 -14.5446 0.6821 -14.5065 0.8088 -14.5271 C 0.9599 -14.5517 1.0628 -14.629 1.1414 -14.7402 C 1.2469 -14.8895 1.296 -15.0745 1.269 -15.2599 C 1.2499 -15.3917 1.1995 -15.51 1.0659 -15.5971 C 1.0026 -15.6384 0.9405 -15.6567 0.8824 -15.6659 z"/>
  <path class="body outline" d="M 0.8236 -16.2049 C 0.8236 -16.2049 0.5511 -16.2051 0.4344 -16.1784 C 0.205 -16.1259 -0.0432 -15.9644 -0.1072 -15.7381 C -0.1407 -15.6197 -0.1101 -15.5099 -0.0358 -15.4118 C 0.044 -15.3064 0.197 -15.2939 0.3267 -15.2675 C 0.5165 -15.2289 0.7773 -15.3423 0.9605 -15.2907 C 1.2242 -15.2165 1.5468 -14.9973 1.7217 -14.7864 C 1.8034 -14.6877 1.7922 -14.4784 1.8876 -14.3928 C 1.9733 -14.3159 2.1457 -14.2474 2.2554 -14.2827 C 2.3681 -14.3189 2.45 -14.4862 2.4969 -14.5949 C 2.5195 -14.6473 2.5337 -14.7263 2.5263 -14.7829 C 2.5151 -14.8685 2.4594 -14.9753 2.41 -15.0461 C 2.3483 -15.1347 2.1517 -15.2967 2.1517 -15.2967"/>
  <path class="pupil outline" d="M -2.4126 -16.0713 C -2.4708 -16.0805 -2.5243 -16.0796 -2.5775 -16.0817 C -2.6839 -16.0858 -2.7749 -16.0818 -2.7749 -16.0818 L -2.7511 -15.7419 C -2.7511 -15.7419 -2.677 -15.7447 -2.5908 -15.7414 C -2.5045 -15.7381 -2.4006 -15.7072 -2.4157 -15.7171 C -2.4225 -15.7215 -2.3662 -15.6344 -2.3636 -15.6164 C -2.3552 -15.5586 -2.3974 -15.3546 -2.4337 -15.3031 C -2.4464 -15.2851 -2.536 -15.2283 -2.5412 -15.2274 C -2.5148 -15.2317 -2.5992 -15.2375 -2.6597 -15.2583 C -2.7202 -15.2792 -2.7703 -15.3003 -2.7703 -15.3003 C -2.7703 -15.3003 -2.9377 -15.3474 -2.9706 -15.2954 C -3.0143 -15.2265 -2.9119 -15.03 -2.9119 -15.03 C -2.9119 -15.03 -2.8473 -15.0036 -2.7692 -14.9768 C -2.691 -14.9499 -2.6129 -14.9118 -2.4862 -14.9324 C -2.3351 -14.957 -2.2323 -15.0344 -2.1537 -15.1456 C -2.0482 -15.2948 -1.9991 -15.4798 -2.026 -15.6653 C -2.0451 -15.797 -2.0956 -15.9153 -2.2291 -16.0024 C -2.2924 -16.0437 -2.3545 -16.062 -2.4126 -16.0713 z"/>
  <path class="body outline" d="M -3.9713 -16.1394 C -3.9713 -16.1394 -4.2683 -15.7061 -4.3518 -15.4988 C -4.4042 -15.3685 -4.4896 -15.1797 -4.4582 -15.0428 C -4.4254 -14.8996 -4.2972 -14.6654 -4.1503 -14.662 C -4.064 -14.66 -4.0095 -14.807 -3.959 -14.8771 C -3.8487 -15.0304 -3.788 -15.2987 -3.6459 -15.4232 C -3.4726 -15.5751 -3.1649 -15.6971 -2.9351 -15.7144 C -2.6859 -15.7332 -2.3738 -15.5477 -2.1257 -15.5176 C -1.9903 -15.5012 -1.8006 -15.4743 -1.6708 -15.5164 C -1.5452 -15.5571 -1.3151 -15.7757 -1.3151 -15.7757 C -1.3151 -15.7757 -1.3808 -16.0726 -1.4639 -16.1666 C -1.5693 -16.2859 -1.7798 -16.3708 -1.9326 -16.4151 C -2.1226 -16.4701 -2.3922 -16.459 -2.5899 -16.4656 C -2.6845 -16.4687 -2.9055 -16.4625 -2.9055 -16.4625"/>
  <path class="outline" d="M -6.9326 -12.3309 C -6.9326 -12.3309 -6.5606 -12.1959 -6.3981 -12.2173 C -6.0622 -12.2618 -5.6302 -12.4901 -5.3923 -12.7314 C -5.3402 -12.7842 -5.283 -12.953 -5.283 -12.953"/>
  <path class="outline" d="M -7.9905 -7.9597 C -7.9905 -7.9597 -7.9902 -8.6665 -7.8813 -8.9425 C -7.7839 -9.1891 -7.5571 -9.4821 -7.3525 -9.6506 C -6.9376 -9.9923 -5.7383 -10.4275 -5.7383 -10.4275"/>
  <path class="outline" d="M -5.8352 -9.4278 C -5.8352 -9.4278 -6.7196 -8.8967 -7.0269 -8.5848 C -7.1783 -8.4311 -7.4333 -7.9917 -7.4333 -7.9917"/>
  <path class="outline" d="M -6.0317 -7.6975 C -6.0317 -7.6975 -6.5239 -7.2181 -6.6962 -6.9808 C -6.9067 -6.6909 -7.1425 -6.2695 -7.2775 -5.9376 C -7.3999 -5.6367 -7.5187 -5.2146 -7.5606 -4.8925 C -7.6069 -4.537 -7.5844 -3.5978 -7.5844 -3.5978"/>
  <path class="outline" d="M -7.2263 -2.0298 C -7.2263 -2.0298 -6.6282 -2.4581 -6.5544 -2.909 C -6.5007 -3.2375 -6.8374 -3.7411 -6.8467 -4.0739 C -6.8559 -4.4035 -6.6586 -4.9516 -6.464 -5.2178 C -6.3906 -5.3183 -6.122 -5.4525 -6.122 -5.4525"/>
  <path class="outline" d="M -4.5414 -0.3894 C -4.5414 -0.3894 -4.0013 -0.876 -3.9623 -1.1634 C -3.8779 -1.786 -4.4544 -2.4609 -4.259 -3.0581 C -4.2193 -3.1792 -3.982 -3.3632 -3.9001 -3.5882 C -3.8402 -3.7529 -3.8563 -4.0637 -3.8701 -4.1332 C -3.9104 -4.3358 -4.3783 -4.5689 -4.3783 -4.5689"/>
  <path class="outline" d="M -5.5833 1.8959 C -5.5833 1.8959 -6.0961 1.2994 -6.281 0.9505 C -6.4507 0.6302 -6.5398 0.2907 -6.5272 0.124 C -6.5041 -0.1836 -6.4645 -0.4201 -6.3581 -0.7096 C -6.1437 -1.2929 -5.4311 -1.853 -5.246 -2.4463 C -5.1914 -2.621 -5.2876 -2.8994 -5.1893 -3.0538 C -5.1022 -3.1907 -4.8286 -3.2045 -4.7227 -3.3274 C -4.6232 -3.4428 -4.5389 -3.6464 -4.5333 -3.7986 C -4.5295 -3.9007 -4.6365 -4.123 -4.6365 -4.123"/>
  <path class="outline" d="M -5.1928 -5.9824 C -5.1928 -5.9824 -5.4798 -5.6085 -5.5503 -5.422 C -5.619 -5.2404 -5.7104 -4.9674 -5.6505 -4.7827 C -5.5849 -4.5807 -5.2167 -4.4827 -5.1512 -4.2807 C -5.0878 -4.0852 -5.138 -3.7712 -5.2573 -3.6038 C -5.3566 -3.4643 -5.7615 -3.3361 -5.7615 -3.3361 C -5.7615 -3.3361 -5.8532 -4.101 -5.7846 -4.4185 C -5.7594 -4.535 -5.6129 -4.7768 -5.6129 -4.7768"/>
  <path class="outline" d="M -1.0338 -3.0192 C -1.0338 -3.0192 -0.8175 -2.2431 -0.9255 -1.9267 C -1.0048 -1.6947 -1.3846 -1.5146 -1.4135 -1.2712 C -1.4262 -1.1642 -1.2726 -0.9409 -1.2726 -0.9409 C -1.2726 -0.9409 -1.5598 -0.866 -1.6605 -0.9246 C -1.7946 -1.0028 -1.8658 -1.2331 -1.8965 -1.3854 C -1.9531 -1.6661 -1.7808 -1.9518 -1.8922 -2.2156 C -1.944 -2.3383 -2.2938 -2.6002 -2.2938 -2.6002 C -2.2938 -2.6002 -2.104 -1.191 -2.3207 -0.7458 C -2.4608 -0.4579 -3.0035 -0.6281 -3.1597 -0.2701 C -3.2521 -0.0585 -3.286 0.3031 -3.1647 0.4996 C -3.0642 0.6625 -2.7968 0.7712 -2.615 0.7114 C -2.4435 0.655 -2.2637 0.4364 -2.2637 0.4364 C -2.2637 0.4364 -2.2199 0.9134 -2.3449 1.0619 C -2.4463 1.1824 -2.767 1.3928 -2.767 1.3928"/>
  <path class="outline" d="M -0.6889 -0.4496 C -0.6889 -0.4496 -0.8888 -0.1135 -0.8886 0.0472 C -0.8881 0.3982 -0.4492 1.1315 -0.4492 1.1315"/>
  <path class="outline" d="M 0.5206 -0.9101 L 0.4801 -1.6882 L 0.5933 -2.9297"/>
  <path class="outline" d="M 1.33 -4.5204 C 1.33 -4.5204 1.0392 -3.9049 1.0682 -3.6271 C 1.1199 -3.1314 1.8544 -2.1635 1.8544 -2.1635"/>
  <path class="outline" d="M 2.7823 -7.8269 C 2.7823 -7.8269 2.7132 -7.2318 2.8166 -7.0091 C 2.9629 -6.6941 3.8001 -6.2863 3.8001 -6.2863"/>
  <path class="outline" d="M 1.8612 -6.8744 C 1.8612 -6.8744 2.6214 -5.7702 2.7812 -5.2273 C 2.9379 -4.6949 2.8982 -3.381 2.8982 -3.381"/>
  <path class="medial-sulcus outline" d="M -1.3333 -11.7678 C -1.6273 -10.1787 -1.662 -9.5711 -1.662 -9.5711 L -1.6105 -9.2298 L -1.436 -9.5572 C -1.436 -9.5572 -1.4012 -10.1442 -1.1085 -11.7264 L -1.3333 -11.7678 z"/>
</svg>
