<?xml version="1.0" encoding="UTF-8" standalone="no"?>
<svg xmlns:svg="http://www.w3.org/2000/svg" xmlns="http://www.w3.org/2000/svg" width="420" height="350" version="1.0">
  <path class="body outline" d="M -18.2065 -6.4941 C -18.2065 -6.4941 -17.7555 -7.9386 -17.2435 -8.2557 C -17.0876 -8.3522 -16.8759 -8.2013 -16.6328 -8.2791 C -16.3715 -8.3629 -15.7893 -8.5077 -15.7169 -8.7724 C -15.6428 -9.0432 -15.9987 -9.6649 -15.9987 -9.6649 C -15.9987 -9.6649 -16.8113 -10.3571 -17.2435 -10.4164 C -17.7143 -10.4811 -18.7701 -9.9937 -18.7701 -9.9937 L -19.0755 -8.7254 L -18.2065 -6.4941 z"/>
  <path class="body outline" d="M 3.6191 14.9013 C 3.6191 14.9013 1.8857 15.1652 1.4791 14.7515 C 1.3528 14.623 1.4453 14.424 1.3722 14.2593 C 1.2856 14.0643 1.1562 13.898 0.9442 13.8741 C 0.608 13.8363 0.2847 14.2694 0.1096 14.5589 C -0.1241 14.9454 -0.1472 15.9499 -0.1472 15.9499 L 0.5376 16.8486 L 2.6366 16.7015 L 3.6191 14.9013 z"/>
  <path class="body outline" d="M 17.0175 5.3876 C 17.0175 5.3876 13.2479 8.1843 11.8915 9.6554 C 11.5678 10.0065 11.0987 10.4959 10.9753 10.9573 C 10.8672 11.3616 10.9596 11.9529 11.1016 12.3466 C 11.2591 12.7832 11.538 13.4725 11.9774 13.6219 C 12.3789 13.7584 13.3219 13.1859 13.3219 13.1859 C 13.3219 13.1859 12.845 14.1361 12.4705 14.3554 C 12.194 14.5173 11.7247 14.5404 11.4099 14.481 C 11.1733 14.4364 10.7022 14.1028 10.7022 14.1028 C 10.7022 14.1028 10.7092 14.6695 10.5737 14.8861 C 10.3935 15.1742 9.7961 15.6018 9.7961 15.6018 C 9.7961 15.6018 9.8142 15.1762 9.8092 15.005 C 9.8006 14.7136 9.7244 14.3732 9.5692 14.1263 C 9.4754 13.9771 9.0556 13.841 9.0556 13.841 C 9.0556 13.841 9.2409 14.1506 9.2839 14.2975 C 9.3756 14.6115 9.4429 15.0578 9.398 15.3818 C 9.3727 15.5644 9.1506 15.7691 9.1697 15.9525 C 9.1953 16.198 9.1789 16.3412 9.3911 16.4674 C 9.5536 16.5641 9.7699 16.6845 9.9405 16.6029 C 10.0518 16.5496 10.3159 16.444 10.3516 16.3258 C 10.3814 16.2275 10.4823 16.0095 10.4823 16.0095 C 10.4823 16.0095 10.6462 16.3555 10.6278 16.6783 C 10.6179 16.8537 10.4712 17.0222 10.4053 17.1247 C 10.3711 17.1779 10.2687 17.4132 9.9926 17.4876 C 9.7242 17.5599 9.3999 17.5245 9.3396 17.5132 C 9.3396 17.5132 8.8057 17.4817 8.6094 17.3762 C 8.3085 17.2145 7.9909 16.8527 7.8166 16.5589 C 7.7195 16.3951 7.7335 16.1116 7.6289 15.9525 C 7.5423 15.8205 7.3092 15.7463 7.2295 15.6101 C 7.1413 15.4594 7.1415 15.4705 7.1415 15.4705 C 7.1415 15.4705 7.3 15.4988 7.3721 15.7813 C 7.452 16.0943 7.6289 16.9226 7.6289 16.9226 L 6.8677 16.7966 L 6.3638 16.3928 C 6.3638 16.3928 6.1913 16.2599 6.2023 16.1807 C 6.2141 16.0959 6.4019 16.0902 6.4306 16.0095 C 6.5014 15.81 6.2023 15.5529 6.2023 15.5529 C 6.2023 15.5529 6.4797 15.8236 6.4069 16.0257 C 6.3803 16.0995 6.2053 16.1099 6.2023 16.1882 C 6.1915 16.4713 6.5228 16.5831 6.8948 16.8303 C 7.1651 17.0099 7.5017 17.1176 7.5719 17.3221 C 7.6352 17.5067 7.4007 17.9498 7.4007 17.9498 L 6.0311 18.6346 C 6.0311 18.6346 5.4313 18.6581 5.2322 18.5205 C 4.9107 18.2982 4.3477 17.4362 4.3477 17.4362 L 4.262 17.4933 L 4.262 18.3493 C 4.262 18.3493 4.9202 18.9514 4.8327 19.2623 C 4.7705 19.4834 4.1479 19.6047 4.1479 19.6047 L 2.3788 19.7188 C 2.3788 19.7188 1.9858 19.4453 1.9223 19.2623 C 1.8262 18.9855 2.0364 18.2922 2.0364 18.2922 L 1.3516 18.5205 C 1.3516 18.5205 1.0933 19.3842 0.781 19.5476 C 0.6285 19.6274 0.3719 19.5497 0.2103 19.4906 C -0.1018 19.3763 -0.7027 18.8628 -0.7027 18.8628 L -1.2163 16.6943 C -1.2163 16.6943 -0.9389 16.327 -0.7598 16.2949 C -0.3811 16.227 0.4386 16.7514 0.4386 16.7514 C 0.4386 16.7514 1.7224 16.3701 2.1506 16.0095 C 2.6046 15.6272 2.8534 14.8094 3.2348 14.3546 C 3.4916 14.0484 3.8657 13.6528 4.205 13.4415 C 4.3291 13.3642 4.5163 13.2884 4.6615 13.2703 C 4.9692 13.232 5.3892 13.3043 5.6887 13.3845 C 5.9775 13.4618 6.3062 13.739 6.6017 13.7839 C 6.755 13.8072 7.1153 13.7269 7.1153 13.7269 C 7.1153 13.7269 6.0702 13.5124 5.6316 13.3845 C 5.091 13.2267 4.4216 12.8245 3.8626 12.7567 C 3.6918 12.736 3.4528 12.8746 3.2919 12.8138 C 2.9859 12.6982 2.6696 12.3193 2.55 12.0149 C 2.5313 11.9671 2.5864 11.88 2.55 11.8437 C 2.4169 11.7105 2.1034 11.8952 1.9223 11.8437 C 1.5156 11.728 1.0123 11.4111 0.7239 11.1018 C 0.4732 10.833 0.1522 10.3851 0.1533 10.0176 C 0.154 9.7265 0.407 9.3703 0.6098 9.1616 C 0.8983 8.8645 1.8082 8.4768 1.8082 8.4768 C 1.8082 8.4768 1.3987 9.0456 1.3516 9.3328 C 1.318 9.5383 1.342 9.85 1.4658 10.0176 C 1.534 10.1099 1.6969 10.1605 1.8082 10.1888 C 2.2896 10.3112 3.4631 10.2458 3.4631 10.2458 C 3.4631 10.2458 3.9772 9.2957 4.262 8.9333 C 4.6211 8.4764 5.1687 7.9149 5.6316 7.5637 C 5.882 7.3738 6.2573 7.1774 6.5447 7.0501 C 6.8912 6.8966 7.4568 6.8989 7.7431 6.6506 C 7.9166 6.5002 8.0022 6.1799 8.0855 5.9659 C 8.1758 5.7335 8.3178 5.4162 8.3137 5.1669 C 8.3055 4.6635 7.8001 3.5691 7.8001 3.5691 C 7.8001 3.5691 -5.1864 9.3658 -11.0978 9.1825 C -12.1842 9.1488 -13.6133 8.566 -14.5002 7.9377 C -14.9476 7.6208 -15.6621 6.5269 -15.6621 6.5269 C -15.6621 6.5269 -16.5759 6.9833 -16.7409 7.3568 C -16.862 7.631 -16.7536 8.0686 -16.6579 8.3527 C -16.5543 8.6603 -16.077 9.2655 -16.077 9.2655 C -16.077 9.2655 -17.0339 8.9795 -17.3218 8.6846 C -17.6255 8.3735 -17.8137 7.7824 -17.9027 7.3568 C -17.9843 6.9669 -17.933 6.597 -17.7367 6.2503 C -17.5937 5.9977 -17.1616 5.4867 -17.1616 5.4867 C -17.1616 5.4867 -17.7565 4.5592 -17.9802 4.1037 C -18.1761 3.7046 -18.4666 2.6925 -18.4666 2.6925 C -18.4666 2.6925 -18.9156 2.5801 -19.0496 2.6629 C -19.1694 2.7369 -19.3196 2.8683 -19.3815 2.9948 C -19.4697 3.1751 -19.5684 3.487 -19.4645 3.6587 C -19.3544 3.8408 -18.8006 3.9077 -18.8006 3.9077 C -18.8006 3.9077 -19.057 4.2228 -19.2155 4.2396 C -19.5477 4.2748 -20.0218 4.0167 -20.2114 3.7417 C -20.4953 3.3297 -20.4358 2.7788 -20.3093 2.2946 C -20.2325 2.0006 -19.9549 1.6674 -19.7284 1.4648 C -19.4959 1.2568 -18.8156 0.9668 -18.8156 0.9668 C -18.8156 0.9668 -19.3051 0.4268 -19.3965 0.137 C -19.4638 -0.0767 -19.3366 -0.394 -19.3965 -0.6099 C -19.474 -0.8897 -19.8814 -1.1497 -19.8944 -1.4398 C -19.9328 -2.2963 -18.6496 -4.0124 -18.6496 -4.0124 C -18.6496 -4.0124 -19.4314 -2.5082 -20.0604 -2.2696 C -20.3435 -2.1622 -21.0562 -2.4356 -21.0562 -2.4356 L -21.6371 -4.0124 C -21.6371 -4.0124 -21.5688 -4.564 -21.3881 -4.6763 C -20.9632 -4.9404 -19.7284 -4.5103 -19.7284 -4.5103 L -20.8072 -4.8422 L -20.8072 -6.087 L -19.8944 -6.502 C -19.8944 -6.502 -20.9425 -5.9538 -21.3881 -6.087 C -21.6417 -6.1628 -21.969 -6.7509 -21.969 -6.7509 L -21.7201 -7.9957 C -21.7201 -7.9957 -21.4514 -8.5646 -21.2222 -8.5766 C -20.6066 -8.6091 -19.7284 -7.1659 -19.7284 -7.1659 L -20.6413 -8.2447 L -20.3093 -8.7426 L -19.3965 -7.8298 L -20.3093 -8.8256 L -20.2263 -9.7385 L -19.8944 -9.7385 C -19.8944 -9.7385 -20.5182 -9.898 -20.6413 -10.0981 C -20.7853 -10.3323 -20.8428 -10.6674 -20.6966 -10.9003 C -20.4704 -11.2606 -19.3965 -11.4535 -19.3965 -11.4535 C -19.3965 -11.4535 -18.4037 -11.4928 -18.1517 -11.2322 C -17.9376 -11.0109 -17.8625 -10.7077 -17.9027 -10.4023 C -17.9362 -10.1482 -18.373 -9.6831 -18.373 -9.6831 C -18.373 -9.6831 -18.0764 -8.1803 -17.8197 -7.5808 C -17.5206 -6.8821 -16.9703 -6.0138 -16.4919 -5.4231 C -16.0375 -4.8621 -15.2015 -4.3261 -14.7492 -3.7634 C -14.0564 -2.9015 -13.3436 -1.5947 -12.8405 -0.6099 C -12.2011 0.6419 -11.0148 3.7054 -11.0148 3.7054 L 4.5037 0.22 L 11.2257 0.4689 L 15.7899 2.3776 L 17.0175 5.3876 z"/>
  <path class="outline" d="M 2.5148 11.7493 C 2.5148 11.7493 2.9473 11.6172 3.1139 11.5211 C 3.2667 11.433 3.5703 11.1502 3.5703 11.1502"/>
  <path class="outline" d="M 4.5688 11.2358 C 4.5688 11.2358 4.1581 11.3225 4.0268 11.4355 C 3.8787 11.5629 3.7294 11.8114 3.713 12.0061 C 3.6955 12.2137 3.9412 12.6622 3.9412 12.6622"/>
  <path class="outline" d="M 4.9967 11.4926 C 4.9967 11.4926 4.6259 11.7034 4.5688 11.8634 C 4.4841 12.1006 4.6161 12.4576 4.7114 12.6907 C 4.7626 12.8159 4.9682 13.0615 4.9682 13.0615"/>
  <path class="outline" d="M 5.7954 11.6352 C 5.7954 11.6352 5.4506 11.9613 5.3961 12.1487 C 5.3456 12.322 5.3868 12.5799 5.4531 12.7478 C 5.5406 12.969 5.9381 13.3753 5.9381 13.3753"/>
  <path class="outline" d="M 4.2265 17.4832 C 4.2265 17.4832 4.277 16.9968 4.312 16.8271 C 4.3597 16.5959 4.854 16.2566 4.854 16.2566"/>
  <path class="outline" d="M 2.144 18.1108 C 2.144 18.1108 2.1307 17.7731 2.201 17.6544 C 2.2979 17.4909 2.7145 17.2835 2.7145 17.2835"/>
  <path class="outline" d="M -17.1809 5.599 C -17.1809 5.599 -16.6941 5.1308 -16.5154 4.9335 C -16.3699 4.7729 -16.1643 4.5642 -15.983 4.4455 C -15.8734 4.3737 -15.5838 4.268 -15.5838 4.268"/>
  <path class="outline" d="M -18.5118 2.7153 C -18.5118 2.7153 -18.1141 2.5648 -17.9351 2.5378 C -17.6718 2.4983 -17.2966 2.6324 -17.0478 2.5378 C -16.7482 2.4239 -16.4512 2.0769 -16.2492 1.828 C -16.114 1.6614 -15.8943 1.2069 -15.8943 1.2069"/>
  <path class="outline" d="M -18.9111 0.9851 C -18.9111 0.9851 -18.2595 0.9897 -17.9827 0.7606"/>
  <path class="outline" d="M -18.5853 -2.5939 C -18.5853 -2.5939 -18.2383 -0.6335 -17.5726 -0.0466 C -17.1028 0.3675 -16.0487 0.564 -16.0487 0.564"/>
  <path class="claw outline" d="M -17.2444 -9.7785 C -17.2277 -9.5894 -17.1185 -9.3314 -16.9768 -9.205 C -16.8685 -9.1085 -16.6592 -9.0188 -16.518 -9.0521 C -16.3285 -9.0968 -16.1488 -9.1626 -16.0723 -9.3416 C -15.8651 -9.827 -15.7861 -10.4483 -15.9576 -10.9474 C -16.0875 -11.3252 -16.4435 -11.7971 -16.7988 -11.9797 C -16.9623 -12.0638 -17.1167 -12.136 -17.2958 -12.0944 C -17.4759 -12.0525 -17.9075 -11.865 -17.9075 -11.865 C -17.9075 -11.865 -17.504 -11.7194 -17.3723 -11.5974 C -17.225 -11.4611 -17.0861 -11.216 -17.0282 -11.0239 C -16.9552 -10.7821 -17.0643 -10.6032 -17.0915 -10.352 C -17.1106 -10.175 -17.2601 -9.9559 -17.2444 -9.7785 z"/>
  <path class="claw outline" d="M -21.769 -11.6356 C -21.769 -11.6356 -21.6669 -12.289 -21.3867 -12.515 C -21.1044 -12.7427 -20.6023 -12.908 -20.2397 -12.8973 C -19.9928 -12.89 -19.6605 -12.7547 -19.4751 -12.5914 C -19.1206 -12.2792 -18.8268 -11.8338 -18.7486 -11.368 C -18.7159 -11.1727 -18.6892 -10.9285 -18.7869 -10.7563 C -18.8991 -10.5582 -19.1327 -10.4536 -19.3604 -10.4504 C -19.5234 -10.4481 -19.7465 -10.675 -19.8574 -10.7945 C -20.143 -11.1024 -20.0874 -11.6998 -20.4309 -11.9415 C -20.5378 -12.0167 -20.7207 -12.0517 -20.8514 -12.0562 C -20.9683 -12.0602 -21.1191 -12.0027 -21.2338 -11.9797 C -21.4058 -11.9453 -21.769 -11.6356 -21.769 -11.6356 z"/>
  <path class="claw outline" d="M -21.6926 -7.0094 C -21.5748 -7.0314 -21.3849 -7.0305 -21.3102 -7.1241 C -21.2028 -7.259 -21.206 -7.5383 -21.272 -7.6976 C -21.3653 -7.9229 -21.4643 -8.1089 -21.6926 -8.1947 C -21.8214 -8.2431 -22.4042 -8.1265 -22.5337 -8.08 C -22.8557 -7.9642 -23.0592 -7.8075 -23.2219 -7.5065 C -23.37 -7.2323 -23.4299 -6.7715 -23.3366 -6.4742 C -23.2636 -6.2415 -22.9993 -6.0048 -22.8013 -5.8625 C -22.6803 -5.7754 -22.3425 -5.6713 -22.3425 -5.6713 C -22.3425 -5.6713 -22.5561 -6.2898 -22.4955 -6.5506 C -22.4602 -6.7026 -22.3258 -6.8951 -22.1896 -6.9712 C -22.059 -7.0441 -21.8396 -6.9821 -21.6926 -7.0094 z"/>
  <path class="claw outline" d="M -21.3867 -3.9508 C -21.2318 -4.0647 -20.9098 -3.8967 -20.775 -3.7596 C -20.6325 -3.6147 -20.5407 -3.3083 -20.5838 -3.1097 C -20.6322 -2.8872 -20.8874 -2.6562 -21.0808 -2.5362 C -21.3527 -2.3676 -21.7972 -2.2183 -22.1131 -2.2686 C -22.4493 -2.3221 -22.8692 -2.6046 -23.069 -2.8803 C -23.2844 -3.1776 -23.3959 -3.6989 -23.3748 -4.0655 C -23.3657 -4.225 -23.1837 -4.5625 -23.1837 -4.5625 C -23.1837 -4.5625 -23.0378 -4.0338 -22.8778 -3.8743 C -22.6559 -3.6532 -22.2336 -3.4856 -21.922 -3.4538 C -21.7586 -3.4371 -21.4791 -3.8829 -21.3867 -3.9508 z"/>
  <path class="claw outline" d="M 0.111 15.7114 C -0.1274 15.7355 -0.4301 15.5449 -0.6697 15.5426 C -1.031 15.5392 -1.8514 15.7747 -1.8514 15.7747 C -1.8514 15.7747 -1.4771 15.2594 -1.2606 15.0995 C -0.9984 14.9059 -0.5945 14.6658 -0.2688 14.6563 C -0.0185 14.649 0.3464 14.7638 0.512 14.9517 C 0.6196 15.0739 0.7109 15.3335 0.6386 15.4793 C 0.5618 15.6342 0.2831 15.694 0.111 15.7114 z"/>
  <path class="claw outline" d="M -0.8381 17.4005 C -0.6555 17.3947 -0.4082 17.4621 -0.2462 17.5505 C -0.0807 17.6409 0.1716 17.7932 0.2201 17.9818 C 0.251 18.102 0.166 18.2759 0.0945 18.3755 C 0.0435 18.4466 -0.0596 18.5114 -0.1386 18.5442 C -0.3055 18.6135 -0.5754 18.5433 -0.7305 18.638 C -0.8662 18.7208 -0.9932 18.9174 -1.0533 19.0692 C -1.1384 19.2839 -1.2011 19.3818 -1.1789 19.613 C -1.1618 19.7899 -0.9457 20.3254 -0.9457 20.3254 C -0.9457 20.3254 -1.5512 20.0497 -1.7169 19.8567 C -1.959 19.5747 -2.1106 19.2227 -2.0935 18.8442 C -2.0828 18.6052 -1.9251 18.3051 -1.7886 18.113 C -1.6203 17.8759 -1.3189 17.6175 -1.0712 17.4755 C -1.0071 17.4387 -0.9112 17.4028 -0.8381 17.4005 z"/>
  <path class="claw outline" d="M 2.7665 19.1708 C 2.8339 19.0884 2.9817 19.024 3.0881 19.0208 C 3.3507 19.0128 3.7549 19.1251 3.9027 19.3423 C 4.0148 19.5071 3.9447 19.812 3.9027 20.0068 C 3.8402 20.2966 3.6759 20.6721 3.4954 20.9072 C 3.3283 21.1247 2.7879 21.486 2.7879 21.486 C 2.7879 21.486 2.9249 20.856 2.8951 20.5856 C 2.8675 20.3349 2.6292 20.0444 2.6165 19.7925 C 2.6068 19.6009 2.6451 19.3193 2.7665 19.1708 z"/>
  <path class="claw outline" d="M 6.3464 17.7989 C 6.4813 17.602 6.8805 17.5849 7.1182 17.6059 C 7.3218 17.6239 7.4549 17.7096 7.5898 17.8632 C 7.767 18.065 7.8724 18.4533 7.847 18.7206 C 7.8312 18.8867 7.7035 19.0916 7.5898 19.2137 C 7.456 19.3573 7.368 19.514 7.1825 19.5781 C 6.9684 19.6521 6.4322 19.6639 6.4322 19.6639 C 6.4322 19.6639 6.7717 19.3045 6.8181 19.1065 C 6.8684 18.8913 6.8249 18.567 6.7109 18.3777 C 6.6492 18.2752 6.4499 18.245 6.3893 18.1419 C 6.3368 18.0524 6.2878 17.8844 6.3464 17.7989 z"/>
  <path class="body outline" d="M 8.3744 4.2863 C 7.8585 4.4914 7.3141 5.0483 6.9495 5.4669 C 6.7514 5.6944 6.4203 6.3218 6.4203 6.3218 C 6.4203 6.3218 7.222 6.2298 7.5601 6.159 C 8.2301 6.0187 9.075 5.5857 9.7585 5.5483 C 10.364 5.5153 11.1707 5.7058 11.7533 5.874 C 12.4159 6.0653 13.8703 6.7696 13.8703 6.7696 C 13.8703 6.7696 12.5006 4.4932 11.5091 4.0828 C 10.6383 3.7223 9.2501 3.9382 8.3744 4.2863 z"/>
  <path class="body outline" d="M -17.2803 14.9625 C -17.1832 14.834 -17.0063 14.6879 -16.8536 14.6363 C -16.7324 14.5952 -16.5496 14.5996 -16.427 14.6363 C -16.0989 14.7345 -15.7923 15.1391 -15.4734 15.2637 C -14.9546 15.4663 -13.6413 15.5648 -13.6413 15.5648 L -15.0342 17.1961 L -17.2426 17.3968 L -17.6442 16.7067 C -17.6442 16.7067 -17.6992 16.1495 -17.6567 15.9162 C -17.6016 15.6136 -17.4657 15.2079 -17.2803 14.9625 z"/>
  <path class="body outline" d="M -17.2677 14.9751 L -17.2677 14.9751 z"/>
  <path class="body outline" d="M 19.2176 15.8475 C 19.2176 15.8475 18.1117 15.9748 17.7125 15.7623 C 17.4388 15.6166 17.3635 15.0806 17.0877 14.9388 C 16.8225 14.8023 16.3663 14.7891 16.0938 14.9104 C 15.8895 15.0013 15.6111 15.4783 15.6111 15.4783 L 16.1222 16.9266 L 16.8322 17.0402 L 18.0419 17.0175 L 19.2176 15.8475 z"/>
  <path class="body outline" d="M -5.748 -1.0139 L -14.2998 14.2734 L -15.2837 16.6952 L -16.0405 16.8465 C -16.0405 16.8465 -16.9986 16.528 -17.4027 16.6195 C -17.673 16.6807 -18.1595 17.1493 -18.1595 17.1493 L -17.327 19.0412 C -17.327 19.0412 -16.9241 19.3296 -16.7216 19.344 C -16.5067 19.3592 -16.0405 19.1169 -16.0405 19.1169 L -15.7377 18.4358 C -15.7377 18.3151 -14.2338 17.1002 -13.8717 16.9977 C -13.7843 16.9729 -13.7867 16.7269 -13.8717 16.695 C -13.9644 16.6601 -14.0892 16.9707 -14.2752 17.147 C -14.5179 17.3769 -14.5762 17.5784 -14.6947 17.6746 C -15.1492 18.0436 -15.1102 18.1012 -15.208 18.5872 C -15.2505 18.7983 -14.9809 19.2683 -14.9809 19.2683 L -12.5592 19.571 C -12.5592 19.571 -11.7972 19.1443 -11.7267 18.8142 C -11.6439 18.4264 -12.1753 17.9914 -12.2565 17.6033 C -12.3169 17.3144 -12.5475 16.6684 -12.2565 16.6195 C -11.98 16.573 -12.3964 17.1669 -12.298 17.6126 C -12.177 18.1602 -11.5753 18.5872 -11.5753 18.5872 L -10.5915 18.6628 C -10.5915 18.6628 -9.5115 17.7657 -9.305 17.2249 C -9.2725 17.1401 -9.25 16.9945 -9.305 16.9222 C -9.5616 16.5845 -10.6672 16.5438 -10.6672 16.5438 C -10.6672 16.5438 -10.71 16.3679 -10.6415 16.2666 C -10.4887 16.041 -9.9104 16.1654 -9.9104 16.1654 L -9.6834 14.5761 L -9.305 15.56 C -9.305 15.56 -8.7798 14.8408 -8.6496 14.3999 C -8.5531 14.0733 -8.5419 13.5878 -8.6496 13.2647 C -8.7214 13.0493 -8.7495 12.8111 -8.7495 12.8111 C -8.7495 12.8111 -8.221 13.2651 -8.0439 13.6431 C -7.9376 13.8702 -8.0188 14.6021 -8.0188 14.6021 C -8.0188 14.6021 -7.6977 14.2139 -7.6158 14.0172 C -7.4417 13.5989 -7.2745 12.9815 -7.3373 12.5328 C -7.3866 12.1808 -7.6483 11.7534 -7.867 11.4733 C -8.1247 11.1433 -8.2182 11.0458 -8.2182 11.0458 C -8.2182 11.0458 -8.0602 11.0627 -7.8277 11.2271 C -7.5717 11.4082 -7.2307 11.7521 -7.0346 12.0787 C -6.8443 12.3956 -6.8075 13.2896 -6.8075 13.2896 L -6.4121 12.5131 L -6.2778 11.6246 L -6.5805 9.657 C -6.5805 9.657 -5.4657 8.2469 -4.7642 8.0677 C -3.9529 7.8605 -2.8765 8.7013 -2.0397 8.6731 C -1.2355 8.646 -0.2165 8.208 0.5334 7.9163 C 1.7353 7.4489 3.209 6.5351 4.3931 6.0243 C 5.2837 5.6401 6.4741 5.1025 7.4203 4.8891 C 8.465 4.6535 9.9509 4.2806 10.9772 4.5864 C 11.6127 4.7758 12.4007 5.3663 12.7178 5.9487 C 13.1976 6.8296 12.8557 8.2183 12.8678 9.2213 C 12.8698 9.3885 12.5735 9.6094 12.6063 10.138 C 12.6405 10.6883 13.0012 11.5466 12.8522 11.6995 C 12.5909 11.9678 11.823 12.1162 11.823 12.1162 C 11.823 12.1162 12.1971 12.4369 12.649 12.5014 C 13.0091 12.5529 13.4535 12.3651 13.5445 12.2787 C 13.7711 12.0634 13.9575 11.6401 14.0044 11.549 C 14.2433 11.0846 14.0044 9.8083 14.0044 9.8083 C 14.0044 9.8083 14.0301 11.7291 14.5342 12.3058 C 14.7563 12.5599 15.1533 12.5615 15.339 12.8433 C 15.5393 13.1473 15.729 13.4966 15.4862 13.7677 C 15.1325 14.1625 14.4778 14.4843 14.4778 14.4843 C 14.4778 14.4843 15.0757 14.6773 15.6255 14.5365 C 15.9677 14.4488 16.2676 14.2106 16.4262 13.895 C 16.7765 13.1979 16.928 12.0923 16.8046 11.3219 C 16.7323 10.8708 16.1234 9.9597 16.1234 9.9597 C 16.1234 9.9597 16.6573 11.6806 17.2586 12.0787 C 17.6768 12.3556 18.5734 12.2937 18.5734 12.2937 C 18.5734 12.2937 18.1369 13.1164 18.0154 13.5923 C 17.8237 14.3431 18.2425 16.1654 18.2425 16.1654 C 18.2425 16.1654 17.254 16.5678 16.8046 16.6195 C 16.5105 16.6533 16.0849 16.4104 15.8207 16.5438 C 15.6295 16.6404 15.4423 17.1493 15.4423 17.1493 L 16.5018 19.0412 C 16.5018 19.0412 17.1027 19.2965 17.3343 19.1926 C 17.7238 19.0178 17.7735 18.3149 18.0749 17.9776 C 18.3729 17.6441 19.1506 17.1493 19.1506 17.1493 L 18.6209 18.9656 L 18.9993 19.4953 L 20.7399 19.4953 C 20.7399 19.4953 21.2831 18.8464 21.2697 18.5115 C 21.2512 18.0521 20.4372 17.2249 20.4372 17.2249 C 20.4372 17.2249 20.8892 17.2676 21.1105 17.392 C 21.3862 17.5468 21.6481 18.0574 21.6481 18.0574 L 22.4805 18.0574 L 23.4644 17.3006 C 23.4644 17.3006 23.6112 16.6702 23.4644 16.4681 C 23.2051 16.1113 22.0661 16.0141 22.0661 16.0141 L 22.9346 14.9545 L 22.4049 14.0464 C 22.4049 14.0464 23.6015 14.7508 24.1455 14.6518 C 24.4944 14.5883 24.891 14.2102 25.0536 13.895 C 25.1894 13.632 25.1293 12.9112 25.1293 12.9112 C 25.1293 12.9112 24.8783 13.4151 24.6752 13.5166 C 24.4925 13.608 24.1343 13.6653 23.9941 13.5166 C 23.7289 13.2353 24.0698 12.2301 24.0698 12.2301 C 24.0698 12.2301 24.9741 12.0137 25.2807 11.776 C 25.4997 11.6062 25.8043 11.2963 25.8104 11.0192 C 25.817 10.7232 25.2807 10.1867 25.2807 10.1867 C 25.2807 10.1867 25.3583 10.6265 25.205 10.7955 C 25.0495 10.967 24.6627 11.1819 24.4482 11.0949 C 24.0397 10.9291 23.6157 9.884 23.6157 9.884 C 23.6157 9.884 24.4177 9.4842 24.5729 9.0849 C 24.6342 8.9269 24.6277 8.5288 24.4708 8.3108 C 24.2351 7.9832 24.0464 7.8918 24.0464 7.8918 C 24.0464 7.8918 24.2123 8.4149 23.9941 8.5974 C 23.7739 8.7817 23.3722 8.9235 23.086 8.9002 C 22.6001 8.8605 21.977 8.5032 21.6481 8.1434 C 21.2498 7.7077 21.094 7.0873 20.8642 6.5435 C 20.7969 6.3843 20.7029 6.0795 20.7029 6.0795 C 20.7029 6.0795 21.5192 6.0233 21.848 5.8624 C 22.0788 5.7496 22.4271 5.2917 22.4805 5.0405 C 22.5604 4.665 22.3462 4.0519 22.0223 3.8458 C 21.7534 3.6747 21.2334 3.8132 21.2334 3.8132 C 21.2334 3.8132 21.6032 4.1488 21.7275 4.3328 C 21.8157 4.4634 21.5846 4.8088 21.5025 4.9433 C 21.4354 5.0531 21.206 5.0464 21.0802 5.0189 C 20.4588 4.8831 19.9061 4.2663 19.529 3.7539 C 19.2609 3.3896 19.0749 2.316 19.0749 2.316 C 19.0749 2.316 20.2792 2.2267 20.7399 2.0133 C 21.4864 1.6675 22.3817 0.9428 22.8589 0.2727 C 23.2382 -0.2598 23.5102 -1.1256 23.6157 -1.7707 C 23.7368 -2.5104 23.6792 -3.5316 23.5401 -4.2681 C 23.4148 -4.9314 23.1291 -5.8074 22.7833 -6.3871 C 22.4703 -6.9118 21.421 -7.9007 21.421 -7.9007 C 21.421 -7.9007 20.8519 -8.2568 20.7399 -8.5062 C 20.6376 -8.734 20.5895 -9.1393 20.7399 -9.3387 C 20.8394 -9.4706 21.1377 -9.5896 21.2697 -9.49 C 21.3965 -9.3943 21.6475 -8.5819 21.6475 -8.5819 C 21.6475 -8.5819 22.0007 -8.7802 22.1778 -9.1116 C 22.3186 -9.375 22.1422 -9.8202 22.0265 -10.0955 C 21.9384 -10.3047 21.7726 -10.5938 21.5724 -10.7009 C 21.2115 -10.894 20.5663 -10.9465 20.1647 -10.8674 C 19.6466 -10.7653 19.1032 -10.4187 18.7571 -10.0198 C 18.5077 -9.7323 18.279 -9.1877 18.2425 -8.8089 C 18.2227 -8.6043 18.2727 -8.0824 18.2727 -8.0824 C 18.2727 -8.0824 15.6887 -8.3302 14.4585 -8.2791 C 13.2282 -8.2281 11.4475 -7.8019 10.1447 -7.7494 C 9.5998 -7.7274 8.8625 -7.7149 8.3284 -7.8251 C 7.519 -7.992 6.4093 -8.3036 5.7553 -8.8089 C 5.4462 -9.0477 5.1426 -9.5054 4.9985 -9.8684 C 4.8125 -10.337 4.7648 -11.0084 4.9829 -11.4629 C 5.1547 -11.821 5.5211 -12.1191 5.9067 -12.2145 C 6.304 -12.3128 6.9268 -12.3636 7.2689 -12.1388 C 7.4386 -12.0273 7.6118 -11.7324 7.5716 -11.5334 C 7.5302 -11.3282 7.2444 -11.1322 7.0419 -11.0793 C 6.8179 -11.0207 6.2851 -11.2306 6.2851 -11.2306 C 6.2851 -11.2306 6.1829 -10.8142 6.3608 -10.5776 C 6.5938 -10.2674 7.1866 -10.0757 7.5716 -10.1235 C 7.9279 -10.1677 8.4392 -10.4923 8.6717 -10.7659 C 9.0144 -11.1692 9.3123 -12.0676 9.3123 -12.0676 C 9.3123 -12.0676 11.1742 -11.8786 11.9611 -11.9919 C 12.9773 -12.1383 14.0396 -12.3135 14.9507 -12.7868 C 15.4544 -13.0485 16.2475 -13.4836 16.5635 -13.9551 C 16.9161 -14.4812 17.068 -15.3147 16.9279 -15.9323 C 16.8031 -16.4823 16.3346 -16.9024 15.7918 -17.0553 C 15.3771 -17.1721 14.6194 -16.8169 14.6194 -16.8169 C 14.6194 -16.8169 15.2997 -16.7541 15.5275 -16.5899 C 15.7677 -16.4168 16.0407 -16.1739 16.1234 -15.8897 C 16.1615 -15.7589 16.0607 -15.3543 15.9911 -15.2372 C 15.8459 -14.9926 15.5477 -14.8394 15.291 -14.717 C 14.9142 -14.5373 14.3226 -14.5216 13.9052 -14.518 C 13.3445 -14.513 12.4775 -14.9986 11.933 -15.1329 C 11.5338 -15.2314 10.4385 -15.1189 10.4385 -15.1189 C 10.4385 -15.1189 11.1521 -16.0858 11.1572 -16.4526 C 11.1635 -16.9122 11.1272 -17.5433 10.8259 -17.8905 C 10.6061 -18.1436 10.1724 -18.3633 9.842 -18.4202 C 9.5477 -18.4709 9.3353 -18.4802 9.1409 -18.2536 C 9.0226 -18.1157 8.8267 -17.8423 8.8582 -17.6634 C 8.9043 -17.4017 9.0234 -17.2512 9.0234 -17.2512 C 9.0234 -17.2512 9.1822 -17.5063 9.3879 -17.6634 C 9.4962 -17.7461 9.7315 -17.7431 9.842 -17.6634 C 9.9585 -17.5795 10.1741 -17.1957 10.1483 -17.0544 C 10.0644 -16.5939 9.3001 -16.075 8.8933 -15.8435 C 8.2723 -15.4901 7.3414 -15.8431 6.653 -15.6514 C 5.9178 -15.4466 4.9059 -15.1405 4.307 -14.6676 C 3.7332 -14.2145 3.1046 -13.392 2.869 -12.6999 C 2.6172 -11.96 2.6238 -10.856 2.8038 -10.0955 C 2.9816 -9.3443 3.4962 -8.397 4.0147 -7.8251 C 4.6194 -7.1579 5.6915 -6.5308 6.5121 -6.1601 C 7.1545 -5.8699 8.0798 -5.6806 8.7825 -5.6251 C 9.4424 -5.5731 10.3185 -5.717 10.9772 -5.7817 C 11.953 -5.8776 14.2314 -6.0844 14.2314 -6.0844 C 14.2314 -6.0844 12.5876 -5.5666 12.0367 -5.1006 C 11.6617 -4.7834 11.1938 -4.2252 11.1286 -3.7384 C 11.0809 -3.3826 11.2477 -2.8514 11.507 -2.6032 C 11.7457 -2.3745 12.5665 -2.3004 12.5665 -2.3004 C 12.5665 -2.3004 12.0044 -2.8387 12.0367 -3.1329 C 12.0472 -3.2287 12.1716 -3.332 12.2638 -3.36 C 12.4854 -3.4271 12.7902 -3.1852 13.0206 -3.2086 C 13.6582 -3.2735 14.5445 -3.5785 14.9882 -4.0411 C 15.2568 -4.321 15.4423 -5.2519 15.4423 -5.2519 C 15.4423 -5.2519 15.119 -3.8265 15.4423 -3.36 C 15.6633 -3.0411 16.3052 -2.6986 16.685 -2.6193 C 17.1079 -2.5311 17.6878 -2.6754 18.0911 -2.8302 C 18.3609 -2.9337 18.747 -3.2234 18.7722 -3.5113 C 18.7964 -3.7874 18.2425 -4.2681 18.2425 -4.2681 C 18.2425 -4.2681 18.3548 -3.8507 18.2425 -3.7384 C 18.098 -3.5939 17.7526 -3.6665 17.5614 -3.7384 C 17.3354 -3.8232 17.0556 -4.0483 16.9559 -4.2681 C 16.8715 -4.4542 16.8728 -4.7626 16.9559 -4.9492 C 17.0802 -5.2283 17.4321 -5.5096 17.7127 -5.6303 C 18.2358 -5.8554 19.0638 -5.9597 19.6047 -5.7817 C 20.262 -5.5654 21.0133 -4.8752 21.3453 -4.2681 C 21.7198 -3.5836 21.8987 -2.4554 21.7237 -1.695 C 21.5882 -1.1059 21.064 -0.4034 20.5885 -0.03 C 20.1308 0.3293 18.7722 0.6511 18.7722 0.6511 C 18.7722 0.6511 16.2722 0.6402 15.6363 0.5051 C 13.9114 0.1388 12.766 -0.6028 11.0154 -0.8146 C 10.3389 -0.8964 9.227 -0.9861 8.5457 -1.0042 C 7.388 -1.0348 5.5825 -0.9106 4.4298 -1.0229 C 2.4794 -1.2129 -1.9431 -1.6663 -1.9431 -1.6663 L -4.4615 -2.3004 L -5.748 -1.0139 z"/>
  <path class="outline" d="M 5.734 -13.3938 C 5.734 -13.3938 6.6545 -13.5185 7.051 -13.51 C 7.4963 -13.5005 7.971 -13.402 8.368 -13.2001 C 8.6685 -13.0474 9.1583 -12.6178 9.2548 -12.2949 C 9.2921 -12.1705 9.1774 -11.8688 9.1774 -11.8688"/>
  <path class="outline" d="M 9.7625 -13.3938 C 9.7625 -13.3938 10.835 -12.7836 11.3221 -12.5864 C 11.7365 -12.4187 13.1713 -12.193 13.1713 -12.193"/>
  <path class="outline" d="M 12.4741 -13.51 C 12.4741 -13.51 13.2349 -13.0605 13.5974 -12.9677 C 14.037 -12.8552 15.1081 -12.8903 15.1081 -12.8903"/>
  <path class="outline" d="M 10.576 -15.1369 C 10.576 -15.1369 9.8922 -14.7094 9.5689 -14.5946 C 9.3347 -14.5115 8.9978 -14.3854 8.7554 -14.4397 C 8.6012 -14.4742 8.3293 -14.7496 8.3293 -14.7496"/>
  <path class="outline" d="M 17.2132 -8.1429 C 17.2132 -8.1429 17.6629 -8.1849 17.8489 -8.1429 C 18.4671 -8.0033 19.7561 -7.2348 19.7561 -7.2348 C 19.7561 -7.2348 19.4577 -8.181 19.4836 -8.597 C 19.5077 -8.9839 19.6383 -9.5301 19.8923 -9.823 C 20.0919 -10.0531 20.504 -10.2071 20.8004 -10.2771 C 20.88 -10.2959 21.0729 -10.2771 21.0729 -10.2771"/>
  <path class="outline" d="M 12.052 -3.2463 C 12.052 -3.2463 12.287 -3.8108 12.4943 -3.9928 C 12.7252 -4.1956 13.3471 -4.3812 13.626 -4.5103 C 13.8114 -4.5961 14.0696 -4.7415 14.1709 -4.919 C 14.2321 -5.0261 14.2163 -5.3276 14.2163 -5.3276"/>
  <path class="outline" d="M 15.7085 -6.0834 L 15.3468 -4.9581"/>
  <path class="outline" d="M 19.1647 2.3562 C 19.1647 2.3562 18.3428 1.9796 17.9189 1.874 C 17.5445 1.7807 17.0083 1.9626 16.6328 1.874 C 16.318 1.7996 15.6683 1.3917 15.6683 1.3917"/>
  <path class="outline" d="M 15.7085 3.0796 C 15.7085 3.0796 16.5469 3.2329 16.8338 3.4413 C 17.267 3.7559 17.4047 4.4934 17.7665 4.8881 C 18.0033 5.1464 18.3452 5.3649 18.4935 5.6068 C 18.6201 5.8132 18.802 6.3526 18.802 6.3526 C 18.802 6.3526 19.0213 5.7713 19.0123 5.4664 C 19.0089 5.3487 19.004 4.6068 19.004 4.6068 C 19.004 4.6068 19.7457 5.6612 20.2096 5.933 C 20.3484 6.0143 20.7321 6.0536 20.7321 6.0536"/>
  <path class="outline" d="M 21.9563 9.5053 C 21.9563 9.5053 22.5101 9.8394 22.7739 9.9141 C 22.9977 9.9775 23.5462 9.9823 23.5462 9.9823"/>
  <path class="outline" d="M 23.9778 12.6624 C 23.9778 12.6624 23.7639 11.9647 23.5916 11.7085 C 23.4007 11.4246 23.0707 11.0838 22.7739 10.9135 C 22.6635 10.8501 22.3651 10.7999 22.3651 10.7999"/>
  <path class="outline" d="M 21.7746 11.7766 C 21.7746 11.7766 22.4652 12.0328 22.6604 12.2763 C 22.9485 12.6359 23.0596 13.2765 23.2736 13.6845 C 23.3817 13.8905 23.5147 14.1822 23.6825 14.3432 C 23.8124 14.4679 24.2049 14.6385 24.2049 14.6385"/>
  <path class="outline" d="M 22.4787 14.207 C 22.4787 14.207 21.859 13.2358 21.7064 13.0259 C 21.5787 12.8501 21.2067 12.617 21.2067 12.617"/>
  <path class="outline" d="M 0.9403 -0.1847 L 1.5785 1.1514"/>
  <path class="outline" d="M 1.7458 -0.3891 L 2.1646 0.693"/>
  <path class="outline" d="M 2.5112 -0.4412 L 2.9251 0.2425"/>
  <path class="outline" d="M 3.1804 -0.5889 L 3.5491 0.1008"/>
  <path class="outline" d="M 20.05 11.0041 L 19.6352 11.6064 L 18.696 12.2267 C 18.696 12.2267 18.8369 12.452 18.9852 12.5422 C 19.0802 12.5998 19.3006 12.6432 19.4059 12.6079 C 19.6021 12.5421 19.8689 12.4152 19.9975 12.253 C 20.0618 12.1718 20.1026 11.9243 20.1026 11.9243"/>
  <path class="outline" d="M 16.7896 8.6483 C 16.7896 8.6483 16.919 9.4341 17.1261 9.6885 C 17.3194 9.926 17.7218 10.0996 18.0133 10.1933 C 18.2637 10.2738 18.5016 10.3322 18.7476 10.2392 C 18.9633 10.1577 19.4054 9.7191 19.4054 9.7191 C 19.4054 9.7191 19.2438 10.333 19.0689 10.5299 C 18.8382 10.7894 18.3999 11.0287 18.0592 11.0959 C 17.837 11.1397 17.524 11.0775 17.3097 11.0041 C 17.0215 10.9054 16.4377 10.484 16.4377 10.484"/>
  <path class="outline" d="M 15.0915 10.3616 C 15.0915 10.3616 15.1242 11.1508 15.3057 11.4324 C 15.4474 11.6523 15.7774 11.8186 15.9329 12.029 C 16.0788 12.2264 16.2068 12.454 16.2847 12.6868 C 16.3682 12.936 16.5121 13.7446 16.5121 13.7446"/>
  <path class="outline" d="M 17.7545 2.6777 C 17.7545 2.6777 18.3813 3.25 18.5729 3.5546 C 18.7783 3.8812 19.0405 4.7529 19.0405 4.7529"/>
  <path class="outline" d="M -0.231 8.357 C -0.231 8.357 -1.2911 8.1799 -1.6947 7.9718 C -2.0156 7.8063 -2.4156 7.4996 -2.6191 7.2014 C -2.8457 6.8694 -3.0429 5.9303 -3.0429 5.9303"/>
  <path class="outline" d="M 0.9631 7.7021 C 0.9631 7.7021 -0.2816 7.6125 -0.7205 7.3716 C -0.98 7.2293 -1.2995 6.9811 -1.4909 6.7553 C -1.705 6.5028 -2.0302 5.7924 -2.0302 5.7924"/>
  <path class="outline" d="M 2.2343 7.1629 C 2.2343 7.1629 0.5767 6.7807 -0.0769 6.4695 C -0.3923 6.3194 -1.092 5.6059 -1.092 5.6059"/>
  <path class="outline" d="M -0.3192 5.1959 C -0.3192 5.1959 0.1267 5.686 0.3854 5.7762 C 0.6186 5.8575 0.9215 5.951 1.1658 5.9871 C 1.3843 6.0193 1.8125 6.0357 1.8125 6.0357"/>
  <path class="outline" d="M 0.732 4.9673 C 0.732 4.9673 0.9798 5.2533 1.1172 5.314 C 1.2922 5.3912 1.5853 5.3881 1.772 5.4295 C 1.9525 5.4696 2.3884 5.4295 2.3884 5.4295"/>
  <path class="outline" d="M 1.8106 4.7362 C 1.8106 4.7362 2.4572 4.8472 2.735 4.8902 C 2.8965 4.9152 3.2743 4.9673 3.2743 4.9673"/>
  <path class="outline" d="M 3.1587 4.351 C 3.1587 4.351 4.0519 4.4052 4.4299 4.4665 C 4.6291 4.4989 5.0847 4.6206 5.0847 4.6206"/>
  <path class="outline" d="M 4.2758 3.8502 C 4.2758 3.8502 5.1455 3.9821 5.5084 4.0813 C 5.7693 4.1527 6.3558 4.3895 6.3558 4.3895 C 6.3558 4.3895 6.3558 4.3895 6.3558 4.3895"/>
  <path class="outline" d="M 5.8936 3.5036 C 5.8936 3.5036 6.4932 3.5844 6.741 3.6576 C 6.9725 3.7261 7.2859 3.8287 7.4835 3.9673 C 7.6755 4.1021 8.0122 4.5436 8.0122 4.5436"/>
  <path class="claw outline" d="M -16.5923 15.2318 C -16.8249 14.9657 -17.1907 14.8118 -17.544 14.824 C -17.8478 14.8344 -18.2136 15.0864 -18.4503 15.2772 C -18.695 15.4743 -19.0215 15.7906 -19.1074 16.0929 C -19.1524 16.251 -19.1434 16.3805 -19.0621 16.5234 C -18.9855 16.6581 -18.7675 16.9086 -18.7675 16.9086 C -18.7675 16.9086 -18.7203 16.5804 -18.6316 16.4781 C -18.4982 16.3241 -18.216 16.2384 -18.0198 16.1835 C -17.8159 16.1265 -17.5254 16.155 -17.3174 16.1155 C -17.1715 16.0879 -16.966 16.0606 -16.8415 15.9796 C -16.7081 15.8927 -16.536 15.7273 -16.5017 15.5717 C -16.4789 15.4687 -16.5228 15.3113 -16.5923 15.2318 z"/>
  <path class="claw outline" d="M -16.8415 17.3391 C -16.7469 17.5044 -16.7416 17.7995 -16.8189 17.9736 C -16.8874 18.1279 -17.0917 18.2757 -17.2494 18.3361 C -17.4527 18.4139 -17.7747 18.2723 -17.9745 18.3588 C -18.2127 18.4618 -18.454 18.7472 -18.5863 18.9705 C -18.6729 19.1168 -18.7448 19.3444 -18.7449 19.5144 C -18.745 19.7338 -18.541 20.2168 -18.541 20.2168 C -18.541 20.2168 -19.2899 19.648 -19.4247 19.2878 C -19.5319 19.001 -19.4726 18.5598 -19.3793 18.2681 C -19.2955 18.0059 -19.077 17.6908 -18.8808 17.4977 C -18.698 17.3178 -18.4013 17.1187 -18.1558 17.0445 C -17.9214 16.9738 -17.576 16.9567 -17.34 17.0219 C -17.1692 17.0691 -16.9296 17.1853 -16.8415 17.3391 z"/>
  <path class="claw outline" d="M -13.3068 19.0612 C -13.3332 18.8096 -13.5378 18.6267 -13.7826 18.5627 C -14.0523 18.4922 -14.4976 18.4973 -14.7116 18.676 C -14.8661 18.805 -14.8106 19.1352 -14.8476 19.3331 C -14.8931 19.577 -14.9797 19.9007 -14.9835 20.1488 C -14.9874 20.4026 -14.957 20.7487 -14.8702 20.9872 C -14.818 21.1307 -14.726 21.3338 -14.5983 21.4177 C -14.4143 21.5386 -13.8732 21.531 -13.8732 21.531 C -13.8732 21.531 -14.2865 21.2295 -14.3491 21.0325 C -14.4052 20.8557 -14.331 20.5915 -14.2584 20.4207 C -14.1408 20.1442 -13.8495 19.8493 -13.6466 19.6277 C -13.4842 19.4502 -13.2816 19.3004 -13.3068 19.0612 z"/>
  <path class="claw outline" d="M -9.9079 17.5884 C -9.6474 17.721 -9.3846 17.8722 -9.2508 18.1322 C -9.1046 18.4162 -9.1216 18.905 -9.2508 19.1971 C -9.3326 19.382 -9.4466 19.5587 -9.6134 19.673 C -9.7889 19.7933 -10.2478 19.9902 -10.2478 19.9902 C -10.2478 19.9902 -10.1295 19.6136 -10.1119 19.4464 C -10.0911 19.2502 -10.0508 18.9679 -10.1345 18.7893 C -10.2428 18.5582 -10.68 18.462 -10.769 18.2228 C -10.8239 18.075 -10.7981 17.8258 -10.701 17.7017 C -10.5976 17.5694 -10.3477 17.502 -10.1798 17.4977 C -10.0939 17.4955 -9.9846 17.5493 -9.9079 17.5884 z"/>
  <path class="claw outline" d="M 16.2485 15.5372 C 16.074 15.3612 15.6793 15.3683 15.4337 15.4014 C 15.1446 15.4402 15.0195 15.4876 14.7787 15.6522 C 14.5685 15.7958 14.2671 16.0065 14.1675 16.2407 C 14.0612 16.4907 14.1675 17.1461 14.1675 17.1461 C 14.1675 17.1461 14.6639 16.5007 14.9597 16.3312 C 15.2813 16.1471 15.5884 16.3331 15.9316 16.1936 C 16.0557 16.1431 16.2592 16.0883 16.3164 15.9672 C 16.3722 15.8491 16.3405 15.6299 16.2485 15.5372 z"/>
  <path class="claw outline" d="M 15.9218 17.361 C 16.1728 17.3717 16.2917 17.315 16.4651 17.4968 C 16.6163 17.6555 16.7425 17.9921 16.6688 18.1985 C 16.6244 18.3227 16.422 18.3836 16.3066 18.4475 C 16.1124 18.555 15.7973 18.5985 15.6276 18.7417 C 15.4851 18.862 15.3412 19.0836 15.2881 19.2623 C 15.2455 19.4055 15.2551 19.6146 15.2881 19.7603 C 15.3229 19.9143 15.4591 20.0077 15.537 20.1451 C 15.5612 20.1876 15.1497 20.1444 14.9712 20.0545 C 14.7867 19.9617 14.5695 19.7619 14.4732 19.5792 C 14.3353 19.3175 14.4042 19.0592 14.4279 18.7643 C 14.4503 18.4861 14.6787 18.2937 14.8354 18.0627 C 14.9949 17.8274 15.3066 17.581 15.5597 17.4515 C 15.6594 17.4005 15.8099 17.3562 15.9218 17.361 z"/>
  <path class="claw outline" d="M 19.2491 19.1718 C 19.2491 19.1718 19.664 18.9487 19.8603 18.9228 C 19.9688 18.9085 20.0397 18.909 20.1319 18.9681 C 20.327 19.0931 20.5298 19.3929 20.5393 19.6245 C 20.5521 19.937 20.2246 20.2841 20.064 20.5525 C 19.9537 20.7367 19.7471 21.141 19.7471 21.141 C 19.7471 21.141 19.221 19.9526 19.1925 19.7084 C 19.1584 19.4157 19.2368 19.1965 19.2491 19.1718 z"/>
  <path class="claw outline" d="M 23.0065 16.9762 C 23.1613 16.925 23.4003 16.9333 23.5497 16.9988 C 23.7344 17.0799 23.957 17.2843 24.025 17.4742 C 24.1194 17.7375 24.0305 18.1394 23.9345 18.4022 C 23.8072 18.7507 23.2328 19.4208 23.2328 19.4208 C 23.2328 19.4208 23.2469 18.8319 23.2102 18.5833 C 23.1876 18.4301 23.1686 18.2082 23.0744 18.0853 C 22.9595 17.9356 22.6251 17.932 22.5311 17.7684 C 22.4703 17.6624 22.4785 17.4713 22.5311 17.361 C 22.6101 17.1954 22.8323 17.0338 23.0065 16.9762 z"/>
  <path class="outline" d="M -11.5304 5.7598 C -11.5304 5.7598 -11.257 4.6602 -11.028 4.205 C -10.8788 3.9083 -10.3364 3.3406 -10.3364 3.3406"/>
  <path class="body outline" d="M -14.5168 -10.0422 C -14.5168 -10.0422 -14.6978 -10.6435 -14.6486 -10.8988 C -14.5529 -11.3948 -13.9252 -11.8612 -13.792 -12.3484 C -13.7034 -12.6726 -13.792 -13.4686 -13.792 -13.4686 C -13.792 -13.4686 -12.8372 -13.3803 -12.4741 -13.205 C -12.171 -13.0586 -11.8056 -12.7488 -11.8056 -12.7488 C -11.8056 -12.7488 -11.7747 -13.1407 -11.6834 -13.4027 C -11.5775 -13.7066 -11.2417 -13.9666 -11.1466 -14.274 C -11.064 -14.541 -11.0904 -15.1159 -11.0904 -15.1159 C -11.0904 -15.1159 -10.261 -14.8077 -10.0361 -14.5228 C -9.947 -14.4099 -9.9044 -14.0616 -9.9044 -14.0616 C -9.9044 -14.0616 -9.281 -14.7935 -9.2454 -15.1818 C -9.2243 -15.4122 -9.509 -15.9066 -9.509 -15.9066 C -9.509 -15.9066 -8.5613 -15.6873 -8.3229 -15.3794 C -8.1021 -15.0942 -8.1253 -14.1934 -8.1253 -14.1934 C -8.1253 -14.1934 -7.9098 -14.8315 -7.7299 -15.05 C -7.4509 -15.3888 -6.5439 -15.9066 -6.5439 -15.9066 L -6.6757 -14.5887 C -6.6757 -14.5887 -6.1198 -14.8546 -5.885 -14.7864 C -5.3344 -14.6267 -4.8314 -13.9114 -4.5671 -13.4027 C -4.4742 -13.2238 -4.4353 -12.7438 -4.4353 -12.7438 C -4.4353 -12.7438 -3.9145 -13.4613 -3.5787 -13.6004 C -3.3413 -13.6987 -2.7221 -13.6004 -2.7221 -13.6004 C -2.7221 -13.6004 -2.9032 -12.907 -2.8539 -12.612 C -2.7592 -12.0452 -2.06 -11.47 -1.9973 -10.8988 C -1.9707 -10.6557 -2.195 -10.1081 -2.195 -10.1081 C -2.195 -10.1081 -1.2733 -8.6878 -1.0749 -7.9996 C -0.8497 -7.2187 -1.1595 -6.1991 -0.7697 -5.486 C -0.6749 -5.3126 -0.44 -5.1008 -0.2426 -5.0907 C -0.0124 -5.0788 0.3089 -5.298 0.3089 -5.298 C 0.3089 -5.298 0.2677 -4.6952 0.1112 -4.5073 C -0.0417 -4.3238 -0.6136 -4.1778 -0.6136 -4.1778 C -0.6136 -4.1778 -0.4992 -3.6949 -0.4818 -3.3871 C -0.4645 -3.0793 -0.5841 -2.4015 -0.3866 -2.0815 C -0.2053 -1.7877 0.1423 -1.5742 0.4797 -1.6471 C 0.5635 -1.6652 0.792 -1.6354 0.8811 -1.7324 C 1.0686 -1.9363 1.0996 -2.3329 1.0996 -2.3329 C 1.0996 -2.3329 1.2522 -1.7638 1.1655 -1.5422 C 1.0482 -1.2425 0.8572 -1.0499 0.5896 -0.8711 C 0.3176 -0.6892 -0.4578 -0.6439 -0.6136 -0.3561 C -0.8798 0.1356 -0.2485 0.939 -0.35 1.4889 C -0.424 1.8891 -0.953 2.2717 -1.009 2.6749 C -1.0565 3.0169 -0.9902 3.4001 -0.7991 3.6876 C -0.6503 3.9116 -0.445 4.1869 -0.1817 4.2416 C -0.0033 4.2787 0.3331 4.2356 0.465 4.1098 C 0.6281 3.9543 0.7279 3.687 0.7701 3.4656 C 0.8037 3.2898 0.836 2.8726 0.836 2.8726 C 0.836 2.8726 1.15 3.4462 1.1508 3.7292 C 1.1515 3.968 1.0537 4.2696 0.9019 4.454 C 0.6858 4.7166 0.2974 4.9923 -0.0206 5.1129 C -0.3737 5.2468 -0.9018 5.317 -1.2725 5.2447 C -1.6024 5.1804 -2.2609 4.7176 -2.2609 4.7176 C -2.2609 4.7176 -2.2821 5.2287 -2.3268 5.4424 C -2.3908 5.7483 -2.4234 6.2223 -2.6563 6.4307 C -2.8671 6.6195 -3.5787 6.6284 -3.5787 6.6284 C -3.5787 6.6284 -3.2919 7.7637 -2.9857 8.1439 C -2.8516 8.3105 -2.5946 8.4689 -2.3927 8.5393 C -2.1679 8.6177 -1.8274 8.6817 -1.602 8.6052 C -1.3237 8.5107 -1.028 8.1985 -0.8772 7.9463 C -0.7935 7.8064 -0.7454 7.4191 -0.7454 7.4191 C -0.7454 7.4191 -0.5909 8.3287 -0.7454 8.6711 C -0.9297 9.0796 -1.4413 9.515 -1.8656 9.6594 C -2.1469 9.7552 -2.5689 9.6776 -2.8539 9.5935 C -3.0491 9.536 -3.2516 9.3213 -3.447 9.2641 C -3.7511 9.1751 -4.5012 9.1982 -4.5012 9.1982 C -4.5012 9.1982 -4.4091 9.8445 -4.4353 10.1207 C -4.4643 10.4262 -4.6054 10.8168 -4.6989 11.1091 C -4.7504 11.2699 -4.8423 11.4759 -4.7891 11.6362 C -4.6855 11.9485 -4.303 12.2241 -3.9741 12.2292 C -3.7436 12.2328 -3.4215 12.0384 -3.3152 11.8339 C -3.1872 11.5877 -3.3811 10.9114 -3.3811 10.9114 C -3.3811 10.9114 -2.8977 11.6211 -2.9198 11.9657 C -2.9346 12.1957 -3.1299 12.4873 -3.3152 12.6246 C -3.5771 12.8187 -4.0438 12.8731 -4.3694 12.8881 C -4.6292 12.9001 -4.9864 12.8571 -5.226 12.7564 C -5.4994 12.6414 -5.8105 12.3764 -6.0167 12.1633 C -6.3523 11.8165 -6.7165 11.2736 -6.9392 10.8455 C -7.046 10.6402 -7.3489 10.2877 -7.3489 10.2877 C -7.3489 10.2877 -7.7535 10.2685 -7.9935 10.2525 C -8.2618 10.2346 -8.6394 10.156 -8.8501 9.9889 C -9.0652 9.8182 -9.1955 9.4472 -9.3113 9.1982 C -9.4353 8.9318 -9.6408 8.2757 -9.6408 8.2757 C -9.6408 8.2757 -10.6505 8.9393 -10.8268 9.3959 C -10.9197 9.6363 -10.85 10.0106 -10.7609 10.2525 C -10.668 10.5048 -10.4152 10.7788 -10.2338 10.9773 C -10.0921 11.1324 -9.7067 11.4385 -9.7067 11.4385 C -9.7067 11.4385 -10.5947 11.5313 -10.9586 11.4385 C -11.4386 11.3161 -12.2144 10.8179 -12.5653 10.4683 C -12.8849 10.1498 -13.1456 9.6594 -13.3126 9.2402 C -13.4864 8.8037 -13.5284 7.8145 -13.5284 7.8145 L -13.4176 6.8949 C -13.4176 6.8949 -13.8524 7.3338 -13.9238 7.6168 C -13.9866 7.866 -13.9238 8.4734 -13.9238 8.4734 C -13.9238 8.4734 -14.413 7.4349 -14.5168 6.9579 C -14.5925 6.6097 -14.6549 6.1208 -14.5827 5.7718 C -14.5289 5.5121 -14.1873 4.9811 -14.1873 4.9811 C -14.1873 4.9811 -14.8116 3.9034 -14.978 3.3997 C -15.1922 2.7517 -15.4156 1.8406 -15.3734 1.1594 C -15.3401 0.6227 -14.8462 -0.5538 -14.8462 -0.5538 L -15.571 -0.3561 C -15.571 -0.3561 -16.4076 -1.1991 -16.4935 -1.6739 C -16.6063 -2.2967 -16.2046 -3.1303 -15.9664 -3.7166 C -15.8464 -4.0119 -15.5649 -4.3462 -15.4393 -4.6391 C -15.2765 -5.0184 -15.0439 -5.9569 -15.0439 -5.9569 C -15.0439 -5.9569 -15.7382 -6.2297 -15.9005 -6.484 C -16.0826 -6.7693 -16.0323 -7.6042 -16.0323 -7.6042 C -16.0323 -7.6042 -15.5549 -7.215 -15.3075 -7.143 C -15.1177 -7.0877 -14.8097 -7.3578 -14.8097 -7.3578 C -14.8097 -7.3578 -15.1863 -8.126 -15.2416 -8.5926 C -15.2722 -8.8508 -15.2273 -9.2173 -15.1098 -9.4492 C -14.9961 -9.6736 -14.5168 -10.0422 -14.5168 -10.0422 z"/>
  <path class="teeth outline" d="M -10.04 -6.4265 C -10.04 -6.4265 -10.0821 -5.2247 -10.0333 -4.8675 C -9.9949 -4.5861 -9.7108 -4.2121 -9.7108 -4.2121 C -9.7108 -4.2121 -9.3946 -4.5291 -9.355 -4.8147 C -9.3046 -5.1782 -9.3218 -6.3965 -9.3218 -6.3965 L -10.04 -6.4265 z"/>
  <path class="teeth outline" d="M -6.1878 -6.4352 C -6.1878 -6.4352 -6.2298 -5.2334 -6.1811 -4.8762 C -6.1427 -4.5948 -5.8586 -4.2208 -5.8586 -4.2208 C -5.8586 -4.2208 -5.5423 -4.5378 -5.5027 -4.8234 C -5.4524 -5.1869 -5.4696 -6.4052 -5.4696 -6.4052 L -6.1878 -6.4352 z"/>
  <path class="white outline" d="M -9.1932 -10.9863 A 1.5381 0.9054 -23.6704 1 1 -12.0106 -9.7513 A 1.5381 0.9054 -23.6704 1 1 -9.1932 -10.9863 z"/>
  <path class="white outline" d="M -7.0582 -11.1444 A 1.5381 0.9054 23.6704 1 0 -4.2409 -9.9094 A 1.5381 0.9054 23.6704 1 0 -7.0582 -11.1444 z"/>
  <path class="outline" d="M -7.8367 -11.2793 C -7.8367 -11.2793 -7.349 -11.1307 -7.2368 -11.0153 C -7.0205 -10.7927 -6.9913 -10.3217 -6.7499 -10.1267 C -6.635 -10.0339 -6.4014 -9.8916 -6.2769 -9.8122 C -6.2076 -9.7679 -6.1131 -9.6139 -5.9024 -9.5409 C -5.6473 -9.4525 -5.2544 -9.5277 -5.1185 -9.4714 C -4.6776 -9.2887 -3.9953 -8.5489 -3.8497 -8.0944 C -3.8027 -7.9477 -3.9043 -7.7367 -3.9588 -7.5926 C -4.0966 -7.2281 -4.4411 -6.8176 -4.5915 -6.4581 C -4.6546 -6.3072 -4.7255 -6.0971 -4.7442 -5.9345 C -4.7576 -5.8173 -4.74 -5.6585 -4.7224 -5.5418 C -4.7102 -5.4618 -4.702 -5.3473 -4.6569 -5.28 C -4.5709 -5.1517 -4.3423 -5.1518 -4.2643 -5.0185"/>
  <path class="outline" d="M -9.1947 -10.9305 C -9.1947 -10.9305 -9.0779 -10.7315 -9.2014 -10.4223 C -9.3003 -10.1749 -9.6263 -9.8139 -9.746 -9.7476 C -10.1295 -9.5353 -10.6735 -9.3762 -10.9742 -9.2523 C -11.2801 -9.1263 -11.5937 -8.9507 -11.6394 -8.9234 C -11.7581 -8.8527 -11.9754 -8.8645 -12.0723 -8.766 C -12.3002 -8.5346 -12.4677 -8.0651 -12.4265 -7.7429 C -12.3508 -7.1518 -11.4179 -6.6787 -11.3246 -6.0901 C -11.2152 -5.3998 -11.9638 -4.5459 -11.9543 -3.847 C -11.9494 -3.4886 -11.5409 -3.3742 -11.6001 -3.0206 C -11.6363 -2.804 -12.033 -2.1155 -12.033 -2.1155 C -12.033 -2.1155 -11.2155 -2.5906 -10.9704 -2.9025 C -10.8201 -3.0939 -10.6556 -3.6502 -10.6556 -3.6502 C -10.6556 -3.6502 -10.9185 -2.4842 -10.813 -1.9974 C -10.6977 -1.4651 -10.2215 -0.7996 -10.2215 -0.7996 C -10.2215 -0.7996 -10.1757 -1.2917 -10.0727 -1.5559 C -9.9999 -1.7426 -9.4751 -1.84 -9.4751 -1.84 C -9.4751 -1.84 -9.6509 -1.3233 -9.6718 -1.0923 C -9.6857 -0.939 -9.688 -0.7243 -9.6325 -0.5808 C -9.5354 -0.3297 -9.2814 -0.0528 -9.0815 0.1276 C -8.9989 0.2022 -8.7667 0.3243 -8.7667 0.3243 C -8.7667 0.3243 -8.9568 -0.1965 -8.9241 -0.4234 C -8.8993 -0.5959 -8.6487 -0.9349 -8.6487 -0.9349 C -8.6487 -0.9349 -8.5317 -0.1765 -8.4126 0.1276 C -8.3527 0.2803 -8.2288 0.4749 -8.1789 0.6312 C -8.0598 1.0038 -8.1532 1.187 -8.2072 1.5744 C -8.2298 1.7373 -8.4039 2.2114 -8.4039 2.2114 C -8.4039 2.2114 -7.6664 1.8381 -7.4915 1.5338 C -7.3742 1.3299 -7.3378 0.948 -7.3285 0.713 C -7.3223 0.5556 -7.3211 0.5463 -7.3211 0.5463 C -7.3211 0.5463 -7.0514 0.8543 -7.0063 1.0185 C -6.9469 1.2351 -6.9854 1.2859 -7.0352 1.5049 C -7.1033 1.8042 -7.2683 2.0066 -7.272 2.3135 C -7.2747 2.5415 -7.1453 2.8491 -6.9965 3.0218 C -6.6946 3.3723 -5.8147 3.6933 -5.8147 3.6933 C -5.8147 3.6933 -6.1637 3.0242 -6.2082 2.7095 C -6.2414 2.4745 -6.0559 2.2387 -5.9727 2.0165 C -5.8511 1.6913 -5.4322 1.3946 -5.3037 1.072 C -5.211 0.8394 -5.1755 0.4959 -5.1857 0.2456 C -5.1965 -0.0205 -5.2814 -0.3737 -5.3824 -0.6201 C -5.493 -0.8899 -5.894 -1.4465 -5.894 -1.4465 C -5.894 -1.4465 -5.9727 -1.5005 -5.7583 -1.3214 C -5.5935 -1.1837 -5.1358 -0.8271 -5.0676 -0.6988 C -4.9501 -0.4777 -4.8137 0.044 -4.8137 0.044 C -4.8137 0.044 -4.5697 -0.567 -4.556 -0.8956 C -4.5437 -1.1905 -4.8733 -1.7669 -4.8733 -1.7669 L -5.0283 -2.1549 C -5.0283 -2.1549 -4.492 -1.797 -4.3593 -1.5646 C -4.2043 -1.2931 -4.058 -0.6459 -4.058 -0.6459 C -4.058 -0.6459 -3.626 -1.4386 -3.6589 -1.8007 C -3.6771 -2.0006 -3.7533 -2.2299 -3.8379 -2.4119 C -3.9183 -2.5848 -4.2412 -2.9812 -4.2412 -2.9812 C -4.2412 -2.9812 -3.7159 -2.8685 -3.5945 -2.7177 C -3.4555 -2.5448 -3.1744 -1.9814 -3.1744 -1.9814 C -3.1744 -1.9814 -2.8898 -2.4868 -2.8436 -3.0213 C -2.8077 -3.4356 -3.1066 -4.1947 -3.27 -4.3139 L -4.3534 -5.1042"/>
  <path class="langue outline" d="M -9.3494 -5.9551 C -9.3494 -5.9551 -9.2854 -4.248 -8.8865 -3.5336 C -8.6581 -3.1246 -7.8064 -2.278 -7.8064 -2.278 C -7.8064 -2.278 -6.8159 -3.249 -6.572 -3.6532 C -6.1531 -4.3476 -6.2326 -6.1345 -6.2326 -6.1345 L -6.8806 -7.0313 L -8.794 -7.0014 L -9.3494 -5.9551 z"/>
  <path class="body outline" d="M -10.9023 -7.7342 C -10.9023 -7.7342 -11.1507 -7.562 -10.9967 -7.2401 C -10.8866 -7.0101 -10.3423 -6.713 -10.2787 -6.5523 C -10.2137 -6.3878 -10.1316 -5.9223 -10.1316 -5.9223 C -10.1316 -5.9223 -9.5682 -5.762 -9.3687 -5.8173 C -9.1102 -5.8889 -8.8473 -6.1689 -8.6019 -6.2773 C -8.3822 -6.3744 -7.8351 -6.5074 -7.8351 -6.5074 L -7.9118 -8.1176 C -7.93 -8.0968 -8.7184 -8.9225 -8.9724 -9.2434 C -9.0639 -9.3589 -9.329 -9.1275 -9.2912 -8.9852 C -9.1595 -8.4894 -7.88 -8.1335 -7.9159 -8.1096 C -7.9159 -8.1096 -6.6544 -8.5527 -6.6382 -9.0415 C -6.6349 -9.1391 -6.7879 -9.3271 -6.8682 -9.2716 C -7.1871 -9.051 -7.866 -8.0632 -7.9159 -8.1176 L -7.8393 -6.5074 C -7.8393 -6.5074 -7.2645 -6.3686 -7.0723 -6.2852 C -6.8777 -6.2008 -6.6586 -5.9076 -6.4547 -5.8494 C -6.1637 -5.7664 -5.4336 -6.0719 -5.4336 -6.0719 C -5.4336 -6.0719 -5.476 -6.4558 -5.4326 -6.5998 C -5.366 -6.8213 -4.9146 -7.1119 -4.7619 -7.3959 C -4.624 -7.6524 -4.8566 -7.8231 -4.8566 -7.8231"/>
  <path class="outline" d="M -13.2693 -12.6684 C -13.2693 -12.6684 -12.9142 -12.3736 -12.8959 -12.1932 C -12.8752 -11.9893 -13.2472 -11.782 -13.2014 -11.5822 C -13.164 -11.4194 -12.7677 -11.4096 -12.7601 -11.2428 C -12.743 -10.8685 -13.6766 -10.3942 -13.6766 -10.3942 C -13.6766 -10.3942 -13.2101 -11.4648 -13.1674 -11.9556 C -13.1487 -12.1708 -13.2693 -12.6684 -13.2693 -12.6684 z"/>
  <path class="outline" d="M -3.3602 -12.9224 C -3.3602 -12.9224 -3.5368 -11.9411 -3.2858 -11.5909 C -3.1041 -11.3373 -2.8309 -10.8833 -2.8309 -10.8833 C -2.8309 -10.8833 -3.0726 -10.882 -3.1567 -10.9341 C -3.3634 -11.0622 -3.3754 -11.2391 -3.4943 -11.5015 C -3.5773 -11.6846 -3.7686 -12.0038 -3.8067 -12.2783 C -3.839 -12.5113 -3.3602 -12.9224 -3.3602 -12.9224 z"/>
  <path class="white outline" d="M -9.2508 -10.6731 A 0.9849 0.9849 90 1 1 -11.2206 -10.6731 A 0.9849 0.9849 90 1 1 -9.2508 -10.6731 z"/>
  <path class="white outline" d="M -5.0724 -10.8553 A 0.9849 0.9849 90 1 1 -7.0422 -10.8553 A 0.9849 0.9849 90 1 1 -5.0724 -10.8553 z"/>
  <path class="pupil outline" d="M -5.9764 -11.7027 C -6.0506 -11.7029 -6.1172 -11.6914 -6.1839 -11.6835 C -6.3173 -11.6678 -6.4299 -11.6451 -6.4299 -11.6451 L -6.3338 -11.2261 C -6.3338 -11.2261 -6.242 -11.2441 -6.1339 -11.2568 C -6.0259 -11.2696 -5.8903 -11.2514 -5.911 -11.2607 C -5.9204 -11.2649 -5.8332 -11.1673 -5.8264 -11.1454 C -5.8047 -11.075 -5.8174 -10.8125 -5.8526 -10.7413 C -5.865 -10.7163 -5.9655 -10.628 -5.9718 -10.6259 C -5.9398 -10.6364 -6.046 -10.6272 -6.1255 -10.6413 C -6.205 -10.6554 -6.2716 -10.6721 -6.2716 -10.6721 C -6.2716 -10.6721 -6.4894 -10.698 -6.5203 -10.6268 C -6.5612 -10.5324 -6.3953 -10.3074 -6.3953 -10.3074 C -6.3953 -10.3074 -6.3096 -10.2872 -6.207 -10.269 C -6.1043 -10.2508 -5.9996 -10.2186 -5.8457 -10.269 C -5.6622 -10.3291 -5.5491 -10.4456 -5.4728 -10.5996 C -5.3705 -10.8062 -5.3454 -11.0463 -5.4152 -11.2722 C -5.4647 -11.4327 -5.5507 -11.5702 -5.7342 -11.6528 C -5.8212 -11.6919 -5.9021 -11.7025 -5.9764 -11.7027 z"/>
  <path class="body outline" d="M -6.1548 -12.363 C -6.1548 -12.363 -6.4945 -12.31 -6.6348 -12.2539 C -6.9103 -12.1437 -7.1883 -11.894 -7.2238 -11.5994 C -7.2425 -11.4454 -7.1828 -11.3144 -7.0711 -11.2067 C -6.951 -11.0909 -6.7579 -11.1052 -6.5912 -11.0976 C -6.3471 -11.0866 -6.0441 -11.2788 -5.8058 -11.2503 C -5.4626 -11.2094 -5.0177 -10.9991 -4.7586 -10.7704 C -4.6374 -10.6634 -4.6105 -10.4003 -4.475 -10.3122 C -4.3531 -10.2331 -4.1248 -10.1815 -3.995 -10.2468 C -3.8616 -10.3139 -3.7922 -10.5384 -3.755 -10.6831 C -3.7371 -10.7529 -3.7347 -10.854 -3.755 -10.9231 C -3.7857 -11.0276 -3.876 -11.1499 -3.9514 -11.2285 C -4.0456 -11.3269 -4.3223 -11.4903 -4.3223 -11.4903"/>
  <path class="pupil outline" d="M -10.1622 -11.5645 C -10.2364 -11.5647 -10.3031 -11.5531 -10.3698 -11.5453 C -10.5032 -11.5296 -10.6158 -11.5069 -10.6158 -11.5069 L -10.5197 -11.0879 C -10.5197 -11.0879 -10.4279 -11.1059 -10.3198 -11.1186 C -10.2117 -11.1314 -10.0761 -11.1132 -10.0969 -11.1225 C -10.1062 -11.1267 -10.0191 -11.0291 -10.0123 -11.0072 C -9.9906 -10.9368 -10.0032 -10.6743 -10.0385 -10.603 C -10.0508 -10.5781 -10.1514 -10.4898 -10.1576 -10.4877 C -10.1256 -10.4982 -10.2319 -10.489 -10.3114 -10.5031 C -10.3909 -10.5172 -10.4574 -10.5339 -10.4574 -10.5339 C -10.4574 -10.5339 -10.6753 -10.5598 -10.7061 -10.4886 C -10.7471 -10.3942 -10.5812 -10.1692 -10.5812 -10.1692 C -10.5812 -10.1692 -10.4955 -10.149 -10.3928 -10.1308 C -10.2902 -10.1126 -10.1854 -10.0804 -10.0315 -10.1308 C -9.848 -10.1909 -9.7349 -10.3074 -9.6587 -10.4614 C -9.5563 -10.668 -9.5313 -10.9081 -9.601 -11.134 C -9.6506 -11.2945 -9.7365 -11.432 -9.92 -11.5145 C -10.007 -11.5537 -10.0879 -11.5643 -10.1622 -11.5645 z"/>
  <path class="body outline" d="M -12.1182 -11.345 C -12.1182 -11.345 -12.4037 -10.7471 -12.4672 -10.4724 C -12.5071 -10.2997 -12.5767 -10.0478 -12.5109 -9.8833 C -12.442 -9.7112 -12.2364 -9.4444 -12.0527 -9.4688 C -11.9447 -9.4831 -11.9055 -9.677 -11.8564 -9.7742 C -11.7488 -9.9868 -11.7255 -10.3332 -11.5727 -10.516 C -11.3864 -10.7391 -11.0267 -10.9513 -10.7437 -11.0178 C -10.4368 -11.0898 -10.0116 -10.9196 -9.6965 -10.9305 C -9.5245 -10.9365 -9.2829 -10.94 -9.1293 -11.0178 C -8.9807 -11.0931 -8.7366 -11.4105 -8.7366 -11.4105 C -8.7366 -11.4105 -8.8765 -11.7676 -8.9984 -11.8686 C -9.153 -11.9967 -9.4319 -12.0614 -9.6311 -12.0868 C -9.8786 -12.1183 -10.2125 -12.0517 -10.4601 -12.0213 C -10.5786 -12.0068 -10.8528 -11.9559 -10.8528 -11.9559"/>
  <path class="outline" d="M -15.0652 -6.0202 C -15.0652 -6.0202 -14.5753 -5.9245 -14.377 -5.983 C -13.9669 -6.104 -13.4731 -6.4729 -13.2237 -6.8201 C -13.1691 -6.896 -13.1307 -7.1177 -13.1307 -7.1177"/>
  <path class="outline" d="M -15.5302 -0.3656 C -15.5302 -0.3656 -15.6679 -1.2467 -15.586 -1.6118 C -15.5128 -1.9382 -15.2874 -2.3476 -15.0652 -2.5977 C -14.6149 -3.1045 -13.2051 -3.8811 -13.2051 -3.8811"/>
  <path class="outline" d="M -13.1307 -2.6163 C -13.1307 -2.6163 -14.1292 -1.7817 -14.4514 -1.3328 C -14.61 -1.1118 -14.842 -0.5144 -14.842 -0.5144"/>
  <path class="outline" d="M -13.0377 -0.4214 C -13.0377 -0.4214 -13.5576 0.2723 -13.7259 0.6016 C -13.9317 1.0041 -14.1432 1.5754 -14.2468 2.0153 C -14.3406 2.4142 -14.4062 2.9635 -14.3956 3.3732 C -14.3838 3.8253 -14.1724 4.9914 -14.1724 4.9914"/>
  <path class="outline" d="M -13.42 6.8758 C -13.42 6.8758 -12.7581 6.2252 -12.7542 5.6488 C -12.7513 5.2288 -13.2694 4.667 -13.3459 4.254 C -13.4217 3.845 -13.2829 3.1234 -13.0923 2.7536 C -13.0204 2.6141 -12.7119 2.3943 -12.7119 2.3943"/>
  <path class="outline" d="M -9.7533 8.3961 C -9.7533 8.3961 -9.1752 7.6841 -9.1827 7.3183 C -9.199 6.5258 -10.0493 5.7973 -9.9224 5.0148 C -9.8966 4.856 -9.6367 4.5804 -9.5786 4.284 C -9.5361 4.0671 -9.6168 3.6828 -9.6476 3.5989 C -9.7375 3.3542 -10.3662 3.1551 -10.3662 3.1551"/>
  <path class="outline" d="M -10.6056 11.4477 C -10.6056 11.4477 -11.3612 10.8044 -11.6598 10.4056 C -11.9338 10.0396 -12.1112 9.6339 -12.1281 9.4237 C -12.1593 9.0357 -12.1562 8.7333 -12.0801 8.3516 C -11.9267 7.5828 -11.148 6.7456 -11.0331 5.9701 C -10.9992 5.7416 -11.1734 5.4134 -11.0811 5.2018 C -10.9992 5.0141 -10.6609 4.9435 -10.5529 4.7696 C -10.4515 4.6064 -10.3861 4.3362 -10.4088 4.1454 C -10.4241 4.0174 -10.6009 3.7612 -10.6009 3.7612"/>
  <path class="outline" d="M -11.6573 1.5524 C -11.6573 1.5524 -11.9419 2.0745 -11.9934 2.3207 C -12.0436 2.5604 -12.1041 2.9186 -11.9934 3.137 C -11.8723 3.376 -11.3943 3.4262 -11.2732 3.6652 C -11.1559 3.8965 -11.1572 4.2976 -11.2732 4.5295 C -11.3698 4.7228 -11.8494 4.9617 -11.8494 4.9617 C -11.8494 4.9617 -12.1129 4.0262 -12.0895 3.6172 C -12.0808 3.467 -11.9454 3.137 -11.9454 3.137"/>
  <path class="outline" d="M -5.8952 4.4335 C -5.8952 4.4335 -5.474 5.3586 -5.5469 5.7739 C -5.6004 6.0786 -6.0386 6.3772 -6.0271 6.6863 C -6.0221 6.8221 -5.787 7.0704 -5.787 7.0704 C -5.787 7.0704 -6.1303 7.2199 -6.2672 7.1664 C -6.4497 7.0952 -6.5833 6.822 -6.6513 6.6382 C -6.7767 6.2994 -6.6177 5.9097 -6.8081 5.6027 C -6.8966 5.4599 -7.3837 5.2018 -7.3837 5.2018 C -7.3837 5.2018 -6.872 6.921 -7.0551 7.5182 C -7.1736 7.9043 -7.8832 7.7982 -8.008 8.2749 C -8.0818 8.5567 -8.0535 9.014 -7.8639 9.2352 C -7.7068 9.4186 -7.3523 9.5018 -7.1374 9.3918 C -6.9346 9.288 -6.7532 8.9805 -6.7532 8.9805 C -6.7532 8.9805 -6.6055 9.5665 -6.7324 9.776 C -6.8352 9.9459 -7.1938 10.2707 -7.1938 10.2707"/>
  <path class="outline" d="M -4.9635 7.5687 C -4.9635 7.5687 -5.1471 8.0267 -5.1154 8.2269 C -5.0463 8.6642 -4.356 9.4926 -4.356 9.4926"/>
  <path class="outline" d="M -3.546 6.7587 L -3.7485 5.7968 L -3.8498 4.2273"/>
  <path class="outline" d="M -3.2422 2.101 C -3.2422 2.101 -3.4844 2.9249 -3.3941 3.2654 C -3.2329 3.8732 -2.1284 4.9361 -2.1284 4.9361"/>
  <path class="outline" d="M -2.0778 -2.3036 C -2.0778 -2.3036 -2.0477 -1.5484 -1.8753 -1.291 C -1.6315 -0.927 -0.5084 -0.5822 -0.5084 -0.5822"/>
  <path class="outline" d="M -3.0397 -0.9366 C -3.0397 -0.9366 -1.8768 0.2911 -1.5715 0.9366 C -1.2722 1.5695 -1.0653 3.2148 -1.0653 3.2148"/>
  <path class="medial-sulcus outline" d="M -7.9767 -6.4117 C -8.0328 -4.3738 -7.9575 -3.6096 -7.9575 -3.6096 L -7.8265 -3.1943 L -7.673 -3.6365 C -7.673 -3.6365 -7.7442 -4.3749 -7.6884 -6.404 L -7.9767 -6.4117 z"/>
</svg>
