<?xml version="1.0" encoding="UTF-8" standalone="no"?>
<svg xmlns="http://www.w3.org/2000/svg" version="1.0" width="16.656" height="21.872">
  <path class="background" d="M 13.8937 -10.3803 C 13.9152 -10.5311 13.9367 -10.6818 13.9582 -10.8325 C 14.1688 -10.6593 14.3249 -10.4439 14.4266 -10.1866 C 14.8024 -9.2083 14.867 -8.207 14.6204 -7.1826 C 14.3739 -6.5601 14.0294 -6.0001 13.5868 -5.5031 C 13.0642 -4.9591 12.5904 -4.3777 12.1656 -3.7588 C 11.6736 -2.8672 11.6306 -1.9521 12.0364 -1.0133 C 12.3101 -0.3539 12.5899 0.3029 12.8762 0.9569 C 12.995 1.238 13.0811 1.5287 13.1346 1.829 C 13.5062 1.3764 13.9638 1.0373 14.5074 0.8116 C 14.848 0.691 15.1925 0.6749 15.541 0.7631 C 15.1587 1.1293 14.7872 1.506 14.4266 1.8937 C 14.0361 2.4051 13.7023 2.9542 13.4253 3.541 C 13.2136 4.09 12.9767 4.6285 12.7147 5.156 C 12.4014 5.6414 11.9869 6.0129 11.4712 6.2703 C 11.0422 6.4941 10.59 6.6501 10.1146 6.7386 C 10.4158 7.0503 10.6258 7.4163 10.7444 7.8368 C 10.766 7.9877 10.766 8.1382 10.7444 8.289 C 10.1755 7.7319 9.5134 7.3175 8.758 7.0455 C 8.0561 6.8701 7.367 6.6547 6.6908 6.3995 C 6.1723 6.1728 5.7093 5.8659 5.3018 5.4789 C 5.2682 6.1434 5.252 6.811 5.2534 7.4815 C 5.3143 7.9047 5.4488 8.3033 5.6572 8.6767 C 5.3726 8.7254 5.125 8.6502 4.9142 8.4505 C 4.7873 9.124 4.9111 9.7484 5.2857 10.324 C 5.8027 11.0672 6.4542 11.6647 7.2399 12.1166 C 7.3507 12.1932 7.3615 12.2791 7.2721 12.375 C 6.8132 12.6402 6.3718 12.9309 5.9478 13.2471 C 6.2037 13.262 6.4512 13.2245 6.6908 13.134 C 6.6677 13.3598 6.5599 13.5481 6.3678 13.6993 C 6.1687 13.8311 5.9533 13.928 5.7218 13.99 C 5.311 14.0468 4.9126 14.1492 4.5267 14.2968 C 4.6513 14.3427 4.7805 14.3644 4.9142 14.3614 C 5.2308 14.3466 5.5431 14.3036 5.8509 14.2323 C 5.7179 14.5646 5.481 14.7959 5.1403 14.9267 C 4.7196 15.0691 4.2889 15.166 3.8483 15.2174 C 4.2011 15.3175 4.5564 15.323 4.9142 15.2336 C 4.9573 15.2442 5.0004 15.2552 5.0434 15.2659 C 4.808 15.7287 4.4312 16.0033 3.9129 16.0895 C 3.6581 16.1493 3.3997 16.1816 3.1378 16.1864 C 3.2716 16.2491 3.4117 16.292 3.5576 16.3156 C 3.8073 16.324 4.055 16.3292 4.3006 16.3317 C 4.1164 16.6286 3.858 16.8385 3.5253 16.9616 C 3.0111 17.1244 2.4889 17.1512 1.9588 17.0423 C 1.8477 17.0666 1.7508 17.1205 1.6681 17.2038 C 1.5571 17.3453 1.4763 17.5013 1.4258 17.6722 C 1.5083 17.9287 1.6213 18.1709 1.765 18.3989 C 1.8455 18.6813 1.8132 18.9503 1.6681 19.2065 C 1.6137 19.2662 1.5545 19.3201 1.4904 19.368 C 1.5161 19.9006 1.3116 20.315 0.8767 20.6115 C 0.5734 20.774 0.2827 20.7578 0.0047 20.563 C 0.4306 20.347 0.5867 20.0026 0.473 19.5294 C 0.4614 19.4674 0.4344 19.4135 0.3923 19.368 C 0.348 19.4203 0.2942 19.4364 0.2308 19.4164 C 0.1487 19.3453 0.0787 19.2646 0.0208 19.1742 C -0.0593 18.9613 -0.1292 18.7459 -0.1892 18.5281 C -0.5268 18.6884 -0.8336 18.8928 -1.1097 19.1419 C -1.1527 19.2065 -1.1959 19.2711 -1.2389 19.3357 C -1.2196 19.5517 -1.2788 19.74 -1.4166 19.9009 C -1.5656 19.9959 -1.7164 20.0014 -1.8688 19.9171 C -1.9038 19.9548 -1.9307 19.9978 -1.9495 20.0463 C -1.9931 20.5353 -1.8262 20.939 -1.4489 21.2575 C -1.9638 21.4639 -2.4106 21.3615 -2.7893 20.9506 C -2.9962 20.5676 -3.0769 20.1583 -3.0316 19.7233 C -3.1469 19.7103 -3.2168 19.6457 -3.2415 19.5294 C -3.2564 19.2307 -3.1434 18.9884 -2.9024 18.8027 C -2.6818 18.6441 -2.4557 18.4933 -2.2241 18.3505 C -2.5127 18.3825 -2.8034 18.4148 -3.0961 18.4474 C -3.3694 18.7058 -3.6548 18.7219 -3.9521 18.4958 C -3.9681 18.4322 -3.9735 18.3676 -3.9682 18.3021 C -4.0855 18.2911 -4.1932 18.3179 -4.2912 18.3828 C -4.6007 18.6754 -4.7676 19.0359 -4.7919 19.4648 C -5.3017 19.0656 -5.4201 18.5705 -5.1472 17.9791 C -4.9518 17.6438 -4.6826 17.3854 -4.3397 17.2038 C -4.3824 16.8476 -4.2209 16.6538 -3.8552 16.6225 C -3.4941 16.6854 -3.1442 16.7875 -2.8055 16.9293 C -2.6016 16.9784 -2.397 16.9839 -2.1917 16.9454 C -2.2451 16.7794 -2.342 16.6451 -2.4825 16.5417 C -2.6378 16.5142 -2.7885 16.4713 -2.9346 16.4125 C -3.0051 16.2862 -3.0535 16.1515 -3.08 16.0087 C -3.3558 15.741 -3.6842 15.6496 -4.0652 15.7342 C -4.178 15.7852 -4.2857 15.8443 -4.3881 15.9119 C -4.431 15.5507 -4.3018 15.2652 -4.0006 15.0559 C -3.4515 14.7675 -2.9131 14.7891 -2.3856 15.1205 C -2.1698 15.0762 -1.9652 15.1085 -1.7718 15.2174 C -1.4885 15.4713 -1.2194 15.7403 -0.9643 16.0249 C -0.4582 16.4009 0.037 16.3902 0.5215 15.9926 C 0.9178 15.6253 1.2139 15.1893 1.4097 14.6844 C 1.5132 14.3417 1.6101 13.9971 1.7004 13.6508 C 1.8769 13.1357 2.1729 12.7051 2.5887 12.3588 C 2.3202 12.2355 2.0618 12.0956 1.8134 11.9389 C 1.7644 12.1999 1.6352 12.4099 1.4258 12.5688 C 1.327 12.6344 1.2193 12.6722 1.1029 12.6819 C 1.1767 12.2413 1.0851 11.843 0.8283 11.4868 C 0.6371 11.2875 0.4864 11.0614 0.3761 10.8085 C 0.225 11.1534 -0.028 11.385 -0.383 11.5029 C -0.4606 11.5291 -0.5359 11.5239 -0.6091 11.4868 C -0.3053 10.8252 -0.2676 10.1469 -0.496 9.4519 C -0.5331 9.281 -0.5924 9.1195 -0.6737 8.9674 C -0.9889 9.166 -1.3334 9.2416 -1.7073 9.1934 C -1.5936 9.031 -1.4589 8.8801 -1.3035 8.7413 C -1.0982 8.4573 -0.9637 8.1505 -0.8998 7.8207 C -1.7349 7.6324 -2.4886 7.8049 -3.1608 8.3375 C -3.4779 8.6427 -3.6016 9.0142 -3.5322 9.4519 C -3.5043 9.6175 -3.4612 9.779 -3.403 9.9363 C -3.236 10.3133 -3.0692 10.6902 -2.9024 11.0669 C -2.9126 11.104 -2.9342 11.1308 -2.9669 11.1476 C -3.2792 11.1583 -3.5914 11.1692 -3.9036 11.1799 C -3.6444 11.4338 -3.3537 11.6437 -3.0316 11.8097 C -3.2893 11.9851 -3.5693 12.0336 -3.8713 11.9551 C -4.2687 11.7455 -4.6671 11.5355 -5.0665 11.3253 C -5.0772 11.3307 -5.088 11.3359 -5.0988 11.3414 C -4.8389 11.5691 -4.5698 11.7842 -4.2912 11.9874 C -4.3519 12.0258 -4.4165 12.0581 -4.4851 12.0843 C -5.0888 12.1147 -5.6487 11.9693 -6.1646 11.6483 C -6.1754 11.6537 -6.1862 11.6589 -6.1969 11.6644 C -5.9938 11.9008 -5.8916 12.1754 -5.8901 12.4881 C -6.462 12.1399 -7.0703 11.8869 -7.715 11.729 C -7.421 11.9461 -7.098 12.1021 -6.746 12.1974 C -6.877 12.3004 -7.0277 12.3595 -7.1982 12.375 C -7.6706 12.4406 -8.1336 12.3976 -8.5872 12.2458 C -8.8243 12.157 -9.0558 12.0546 -9.2816 11.9389 C -9.3766 11.9987 -9.4412 12.0849 -9.4754 12.1974 C -9.4997 12.53 -9.6342 12.8046 -9.8792 13.021 C -10.0469 13.1318 -10.2084 13.1266 -10.3636 13.0048 C -10.746 13.4787 -11.2412 13.678 -11.8495 13.6024 C -12.0568 13.5081 -12.2183 13.3627 -12.334 13.1663 C -12.102 13.1447 -11.8759 13.0963 -11.6557 13.021 C -11.4159 12.905 -11.2652 12.7164 -11.2035 12.4558 C -11.3841 12.291 -11.4433 12.0862 -11.3811 11.8421 C -11.3238 11.6466 -11.2215 11.4796 -11.0743 11.3414 C -11.4912 11.1751 -11.9219 11.1156 -12.3662 11.1638 C -12.4814 11.3921 -12.6645 11.4835 -12.9154 11.4383 C -13.2035 11.2216 -13.4457 11.27 -13.6421 11.5837 C -13.7943 11.8931 -13.789 12.1999 -13.626 12.5042 C -14.2062 12.5055 -14.5185 12.2148 -14.5627 11.6321 C -14.5607 11.4716 -14.5337 11.3156 -14.4819 11.1638 C -14.3261 10.8466 -14.1323 10.5559 -13.9005 10.2917 C -13.9221 10.2054 -13.9435 10.1195 -13.9651 10.0333 C -13.6129 9.7823 -13.2199 9.6802 -12.7862 9.7264 C -12.9565 9.583 -13.0965 9.4163 -13.206 9.2257 C -13.4326 9.2164 -13.6318 9.1411 -13.8036 8.9997 C -13.827 8.9066 -13.8109 8.8207 -13.7551 8.7413 C -13.8371 8.6421 -13.9448 8.5988 -14.0782 8.6121 C -14.3084 8.6424 -14.4968 8.75 -14.6434 8.9351 C -14.6973 9.0213 -14.751 9.1072 -14.8049 9.1934 C -15.1686 8.6392 -15.0663 8.1925 -14.498 7.853 C -14.0944 7.6369 -13.6637 7.5507 -13.206 7.5946 C -12.9906 7.4128 -12.7645 7.4021 -12.5278 7.5623 C -12.4363 7.6537 -12.3447 7.7454 -12.2532 7.8368 C -12.0199 8.2209 -11.7615 8.5869 -11.478 8.9351 C -11.426 8.7687 -11.4153 8.5962 -11.4457 8.4183 C -11.5261 8.2952 -11.5746 8.1605 -11.5911 8.0145 C -11.4218 7.6414 -11.4756 7.3075 -11.7526 7.0132 C -11.8671 6.9505 -11.9856 6.8966 -12.1079 6.8517 C -12.3159 6.8469 -12.5205 6.874 -12.7216 6.9324 C -12.7038 6.5184 -12.4992 6.2438 -12.1079 6.1088 C -11.5187 6.1153 -11.0503 6.3575 -10.7028 6.8355 C -10.5709 7.0348 -10.474 7.2503 -10.4121 7.4815 C -10.2341 7.5843 -10.1157 7.7351 -10.0568 7.9337 C -9.999 8.3084 -9.9559 8.6854 -9.9276 9.0643 C -9.8686 9.3934 -9.7017 9.6463 -9.4269 9.8233 C -9.2467 9.8724 -9.0637 9.8831 -8.8778 9.8556 C -8.6405 9.7855 -8.4144 9.6886 -8.1996 9.5649 C -7.8283 9.2768 -7.4299 9.029 -7.0045 8.822 C -6.9025 8.771 -6.7948 8.7387 -6.6814 8.7251 C -7.084 8.1001 -7.2724 7.4163 -7.2467 6.6741 C -7.2085 6.5549 -7.1709 6.4366 -7.1336 6.3188 C -7.4313 6.3146 -7.6897 6.2125 -7.9089 6.0119 C -7.5452 5.8979 -7.1899 5.7577 -6.843 5.592 C -6.4334 5.2147 -5.9704 4.9189 -5.4541 4.7037 C -5.7121 4.393 -5.8036 4.0376 -5.7286 3.6379 C -5.4096 3.897 -5.0488 4.0746 -4.6465 4.1708 C -4.4205 4.1924 -4.1944 4.1924 -3.9682 4.1708 C -4.2212 3.8752 -4.3181 3.536 -4.259 3.1533 C -3.6444 3.5107 -2.9822 3.7153 -2.2725 3.7671 C -2.0866 3.7697 -1.909 3.732 -1.7395 3.654 C -1.4915 3.5137 -1.2331 3.4007 -0.9643 3.3148 C -1.0548 2.9951 -1.1678 2.6829 -1.3035 2.3781 C -1.5432 1.8664 -1.807 1.371 -2.0949 0.8924 C -2.063 0.7745 -1.9876 0.7368 -1.8688 0.7793 C -1.0792 1.3319 -0.4493 2.0263 0.0208 2.8626 C -0.0683 1.9062 -0.3159 0.991 -0.7221 0.1171 C -0.8329 -0.1157 -0.9675 -0.331 -1.1258 -0.5288 C -1.2955 -0.1923 -1.5539 0.05 -1.901 0.1979 C -1.9636 0.2241 -2.0282 0.2403 -2.0949 0.2463 C -2.05 -0.0338 -2.0015 -0.3137 -1.9495 -0.5935 C -1.9245 -0.8963 -1.9352 -1.1977 -1.9818 -1.4978 C -1.9925 -1.5086 -2.0034 -1.5194 -2.0141 -1.5301 C -2.1024 -1.0838 -2.3285 -0.7285 -2.6924 -0.4642 C -2.7031 -0.8196 -2.714 -1.1749 -2.7247 -1.5301 C -2.7412 -1.6069 -2.7627 -1.6824 -2.7893 -1.7563 C -3.0069 -1.458 -3.2923 -1.2533 -3.6452 -1.1426 C -3.6721 -1.4758 -3.6883 -1.8095 -3.6937 -2.1438 C -3.731 -2.2932 -3.758 -2.4439 -3.7744 -2.596 C -3.8945 -2.5629 -4.0022 -2.5037 -4.0975 -2.4184 C -4.3307 -2.196 -4.5514 -1.9645 -4.7596 -1.724 C -5.1541 -1.9541 -5.5686 -2.1371 -6.0031 -2.2731 C -5.9962 -2.0944 -5.9585 -1.9222 -5.8901 -1.7563 C -5.7951 -1.5339 -5.6927 -1.3186 -5.5832 -1.1103 C -5.8927 -1.0907 -6.1726 -1.1715 -6.423 -1.3525 C -6.6411 -1.6568 -6.8833 -1.9421 -7.1498 -2.2084 C -7.1739 -1.9751 -7.2277 -1.749 -7.3113 -1.5301 C -7.3626 -1.4089 -7.4433 -1.312 -7.5535 -1.2394 C -7.6712 -1.6795 -7.8812 -2.0671 -8.1834 -2.4023 C -8.1509 -1.9584 -8.307 -1.6031 -8.6518 -1.3363 C -8.7433 -1.8806 -8.9479 -2.3758 -9.2655 -2.8222 C -9.5478 -2.888 -9.7361 -2.7804 -9.8307 -2.4992 C -9.8263 -2.148 -9.8693 -1.8035 -9.9599 -1.4656 C -10.0116 -1.3667 -10.0923 -1.3021 -10.2022 -1.2717 C -10.3249 -0.3787 -10.8309 0.0251 -11.7203 -0.0605 C -11.7633 -0.0821 -11.8064 -0.1035 -11.8495 -0.1251 C -11.2474 -0.5792 -11.0912 -1.1552 -11.3811 -1.8531 C -11.4147 -2.0122 -11.3662 -2.1414 -11.2357 -2.2408 C -11.1073 -2.3315 -10.9835 -2.4284 -10.8643 -2.5314 C -10.8125 -2.5919 -10.7802 -2.6565 -10.7674 -2.7252 C -11.0251 -2.5828 -11.2566 -2.4052 -11.4619 -2.1923 C -11.6158 -2.1045 -11.7773 -2.0345 -11.9464 -1.9824 C -11.9733 -1.6143 -12.1671 -1.4098 -12.5278 -1.3687 C -12.6278 -1.3649 -12.714 -1.3972 -12.7862 -1.4656 C -13.1956 -1.1958 -13.3679 -0.8191 -13.303 -0.3351 C -13.6752 -0.5513 -13.8959 -0.8743 -13.9651 -1.304 C -14.0187 -1.789 -13.8572 -2.1874 -13.4806 -2.4992 C -13.4929 -2.6845 -13.4229 -2.8298 -13.2707 -2.9352 C -13.1406 -3.0164 -13.0007 -3.0702 -12.8508 -3.0967 C -12.9461 -3.1991 -13.0538 -3.2207 -13.1738 -3.1613 C -13.2814 -3.1397 -13.3891 -3.1397 -13.4968 -3.1613 C -13.5941 -3.2265 -13.6802 -3.3019 -13.7551 -3.3874 C -14.0704 -3.4425 -14.3234 -3.3402 -14.5142 -3.0806 C -14.6295 -2.9144 -14.7103 -2.7313 -14.7565 -2.5314 C -15.1151 -2.9174 -15.1743 -3.348 -14.9341 -3.8234 C -14.5673 -4.2572 -14.099 -4.5103 -13.529 -4.5825 C -13.3091 -4.7878 -13.0722 -4.8094 -12.8184 -4.6471 C -12.5403 -4.4137 -12.2334 -4.2253 -11.8979 -4.0818 C -11.8925 -4.098 -11.8872 -4.1142 -11.8818 -4.1303 C -12.1022 -4.5553 -12.4199 -4.8837 -12.8346 -5.1154 C -12.8811 -5.1728 -12.9134 -5.2374 -12.9315 -5.3092 C -12.8457 -5.8049 -13.0556 -6.0364 -13.5614 -6.0037 C -13.72 -5.9485 -13.8546 -5.857 -13.9651 -5.7292 C -14.1183 -6.186 -13.9729 -6.5144 -13.529 -6.7143 C -13.1384 -6.7999 -12.7723 -6.7353 -12.4308 -6.5205 C -12.2072 -6.3289 -11.9596 -6.1782 -11.6879 -6.0683 C -11.615 -6.0129 -11.545 -5.9537 -11.478 -5.8907 C -11.2785 -5.5346 -11.0954 -5.1685 -10.9289 -4.7925 C -10.6673 -4.3898 -10.2958 -4.2068 -9.8145 -4.2433 C -9.5324 -4.2478 -9.2525 -4.2747 -8.9748 -4.3241 C -8.4538 -4.4893 -7.9262 -4.6293 -7.392 -4.744 C -7.0475 -4.7656 -6.703 -4.7656 -6.3585 -4.744 C -6.1416 -4.7218 -5.9262 -4.7003 -5.7125 -4.6794 C -5.6586 -4.7547 -5.6048 -4.8302 -5.551 -4.9055 C -5.902 -4.895 -6.2034 -5.0081 -6.4553 -5.2447 C -6.1763 -5.4058 -5.9071 -5.5835 -5.6479 -5.7776 C -5.8532 -5.7006 -6.0686 -5.6521 -6.2939 -5.6322 C -6.5232 -5.6195 -6.717 -5.6948 -6.8752 -5.8583 C -6.6492 -6.0037 -6.423 -6.1491 -6.1969 -6.2944 C -6.5702 -6.3718 -6.947 -6.3933 -7.3275 -6.359 C -7.4513 -6.057 -7.6236 -5.7878 -7.8443 -5.5515 C -8.0418 -5.4229 -8.257 -5.3421 -8.4902 -5.3092 C -8.3839 -5.6376 -8.2924 -5.9713 -8.2157 -6.3105 C -8.1941 -6.3644 -8.1941 -6.4182 -8.2157 -6.472 C -8.5533 -6.1335 -8.9571 -6.0043 -9.4269 -6.0845 C -9.1809 -6.3616 -9.0033 -6.6738 -8.894 -7.0211 C -9.1753 -6.7054 -9.5251 -6.5655 -9.9437 -6.6013 C -9.7638 -6.9504 -9.6292 -7.3165 -9.54 -7.6994 C -9.5184 -7.9148 -9.5184 -8.1301 -9.54 -8.3454 C -9.609 -8.4788 -9.7005 -8.5919 -9.8145 -8.6846 C -9.9007 -8.7062 -9.9868 -8.7062 -10.073 -8.6846 C -10.3284 -8.5477 -10.576 -8.397 -10.8159 -8.2324 C -10.9694 -8.1639 -11.1148 -8.1801 -11.2519 -8.2808 C -11.728 -7.9047 -12.2287 -7.8671 -12.7539 -8.1678 C -13.0127 -8.4028 -13.0826 -8.6881 -12.9638 -9.0237 C -12.7987 -8.8579 -12.5996 -8.7879 -12.3662 -8.8138 C -11.9941 -8.916 -11.7195 -9.1368 -11.5426 -9.4759 C -11.5049 -9.5351 -11.4564 -9.5836 -11.3972 -9.6213 C -11.1707 -9.6095 -10.9446 -9.5825 -10.719 -9.5405 C -10.3081 -9.5695 -10.3081 -9.6503 -10.719 -9.7828 C -10.9997 -9.7943 -11.2797 -9.8157 -11.5587 -9.8474 C -11.6475 -9.8823 -11.7337 -9.9199 -11.8171 -9.9605 C -12.115 -9.6719 -12.4218 -9.6611 -12.7377 -9.9282 C -12.7962 -10.0506 -12.8339 -10.1798 -12.8508 -10.3158 C -13.1776 -10.3975 -13.4414 -10.3006 -13.6421 -10.0251 C -13.7041 -9.9333 -13.758 -9.8364 -13.8036 -9.7343 C -13.8252 -9.6913 -13.8466 -9.6913 -13.8682 -9.7343 C -14.0821 -10.1053 -14.0605 -10.4606 -13.8036 -10.8002 C -13.4384 -11.2063 -12.9808 -11.4378 -12.4308 -11.4947 C -12.3243 -11.5714 -12.2058 -11.5929 -12.0755 -11.5593 C -11.9338 -11.526 -11.8046 -11.4668 -11.6879 -11.3817 C -11.6523 -11.4685 -11.6577 -11.5547 -11.7041 -11.64 C -11.9039 -11.7533 -12.0277 -11.9202 -12.0755 -12.1407 C -12.0107 -12.2582 -12.0323 -12.3551 -12.1401 -12.4314 C -12.564 -12.6489 -12.9623 -12.6111 -13.3353 -12.3183 C -13.3705 -12.8859 -13.1012 -13.2143 -12.5278 -13.3035 C -12.1817 -13.3519 -11.848 -13.3088 -11.5264 -13.1743 C -11.3028 -13.0365 -11.0659 -12.9288 -10.8159 -12.8513 C -10.687 -12.7547 -10.5954 -12.6309 -10.5413 -12.4799 C -10.4748 -12.1596 -10.421 -11.8366 -10.3798 -11.5108 C -10.3575 -11.4169 -10.3199 -11.3308 -10.2668 -11.2524 C -10.2144 -11.3058 -10.1767 -11.3704 -10.1537 -11.4462 C -10.065 -11.7202 -10.0327 -12.0001 -10.0568 -12.286 C -10.1715 -12.4039 -10.2145 -12.5438 -10.186 -12.7059 C -10.1234 -12.8331 -10.0373 -12.9407 -9.9276 -13.029 C -9.7543 -13.4145 -9.8351 -13.7429 -10.1699 -14.0141 C -10.2923 -14.0727 -10.4108 -14.1373 -10.5252 -14.2079 C -10.0365 -14.5751 -9.6004 -14.5158 -9.217 -14.0302 C -9.1138 -13.867 -9.0277 -13.6947 -8.9586 -13.5134 C -8.862 -13.0534 -8.8082 -12.5905 -8.7971 -12.1245 C -8.9431 -11.7786 -9.0616 -11.4233 -9.1524 -11.0587 C -9.2134 -10.6497 -9.1004 -10.2998 -8.8133 -10.0089 C -8.2729 -9.604 -7.6807 -9.2918 -7.0367 -9.0722 C -6.7801 -9.0242 -6.5217 -9.0133 -6.2615 -9.0399 C -5.6724 -9.1332 -5.0802 -9.1925 -4.4851 -9.2175 C -4.1813 -9.2159 -3.8798 -9.1998 -3.5806 -9.1691 C -3.1414 -9.534 -2.6353 -9.7278 -2.0625 -9.7505 C -2.2345 -9.9867 -2.3153 -10.2505 -2.3048 -10.5419 C -1.9451 -10.3879 -1.5736 -10.2694 -1.1905 -10.1866 C -1.0039 -10.1414 -0.8101 -10.1199 -0.6091 -10.1219 C -0.4954 -10.122 -0.3878 -10.1328 -0.286 -10.1542 C -0.2417 -10.1492 -0.1986 -10.1546 -0.1568 -10.1704 C -0.2763 -10.3389 -0.3839 -10.5166 -0.4799 -10.7034 C -0.4583 -10.7141 -0.4368 -10.7249 -0.4153 -10.7356 C 0.1359 -10.6095 0.685 -10.6148 1.2321 -10.7518 C 1.2536 -10.7625 1.2751 -10.7734 1.2966 -10.7841 C 1.0261 -10.8977 0.7893 -11.0592 0.5861 -11.2686 C 1.3214 -11.3575 2.032 -11.5406 2.7178 -11.8177 C 3.8362 -12.3369 4.2077 -13.1821 3.8322 -14.3533 C 3.5526 -14.9944 3.0736 -15.3713 2.3949 -15.4838 C 2.6051 -15.1674 2.6051 -14.8552 2.3949 -14.5471 C 2.0955 -14.9229 1.7079 -15.1059 1.2321 -15.0961 C 1.521 -14.7836 1.6233 -14.4175 1.5389 -13.9979 C 1.5166 -13.9703 1.4897 -13.9488 1.4581 -13.9333 C 0.9285 -14.4835 0.2825 -14.7365 -0.4799 -14.6924 C -0.5979 -14.623 -0.6625 -14.5207 -0.6737 -14.3856 C -0.3725 -14.3382 -0.071 -14.2951 0.2308 -14.2564 C 0.2005 -14.1446 0.1359 -14.0531 0.037 -13.9818 C -0.293 -13.7391 -0.6644 -13.626 -1.0774 -13.6426 C -1.5338 -13.6959 -1.9913 -13.7121 -2.4501 -13.6911 C -2.7993 -13.6465 -3.1331 -13.5496 -3.4515 -13.4004 C -3.4826 -13.3149 -3.4665 -13.2341 -3.403 -13.1582 C -3.2042 -12.9702 -3.0427 -12.7549 -2.9185 -12.5122 C -2.8098 -12.2157 -2.8797 -12.1565 -3.1285 -12.3345 C -3.365 -12.3918 -3.6019 -12.435 -3.8391 -12.4637 C -3.7136 -12.3276 -3.6006 -12.1822 -3.4999 -12.0276 C -3.4529 -11.8469 -3.4421 -11.6639 -3.4676 -11.4785 C -3.7129 -11.6897 -3.9983 -11.8135 -4.3235 -11.85 C -4.5909 -11.9451 -4.8009 -12.112 -4.9534 -12.3507 C -5.0304 -12.5624 -5.1219 -12.7669 -5.2279 -12.9643 C -5.5329 -12.5016 -5.8882 -12.0763 -6.2939 -11.6885 C -6.8309 -11.2478 -7.4446 -10.984 -8.1349 -10.8971 C -8.415 -10.9025 -8.6734 -10.9779 -8.9102 -11.1233 C -8.9431 -11.1395 -8.9485 -11.161 -8.9263 -11.1879 C -8.1987 -11.3684 -7.5743 -11.7237 -7.0529 -12.2538 C -6.9212 -12.4203 -6.7973 -12.5926 -6.6814 -12.7706 C -7.2635 -12.8112 -7.7318 -13.0588 -8.0865 -13.5134 C -8.376 -14.0114 -8.3975 -14.5174 -8.1511 -15.0316 C -8.0537 -15.1343 -7.9514 -15.2312 -7.8443 -15.3223 C -7.7869 -14.9321 -7.663 -14.5661 -7.4728 -14.2241 C -6.9261 -13.6093 -6.2747 -13.4694 -5.5186 -13.8042 C -5.4942 -13.9984 -5.4673 -14.1922 -5.4379 -14.3856 C -5.402 -14.5435 -5.332 -14.6835 -5.2279 -14.8055 C -5.122 -14.6349 -5.0035 -14.4734 -4.8727 -14.3209 C -4.6679 -14.4881 -4.4418 -14.6226 -4.1944 -14.7247 C -3.8093 -14.8675 -3.4217 -14.9967 -3.0316 -15.1123 C -3.7762 -15.432 -4.5514 -15.545 -5.3572 -15.4515 C -5.5686 -15.0941 -5.6655 -14.7065 -5.6479 -14.2887 C -5.7175 -14.2845 -5.7821 -14.3007 -5.8416 -14.3371 C -5.9764 -14.4611 -6.1003 -14.5957 -6.2131 -14.7408 C -6.4769 -15.3604 -6.6492 -16.0064 -6.7299 -16.6789 C -6.783 -17.1593 -6.5946 -17.5093 -6.1646 -17.7286 C -6.0139 -17.7502 -5.8632 -17.7502 -5.7125 -17.7286 C -5.6388 -17.7133 -5.5742 -17.681 -5.5186 -17.6317 C -5.1311 -17.6101 -4.7435 -17.6101 -4.3559 -17.6317 C -3.872 -17.7229 -3.4628 -17.949 -3.1285 -18.31 C -3.0281 -18.378 -2.9204 -18.4319 -2.8055 -18.4715 C -2.2445 -18.512 -1.6846 -18.5604 -1.1258 -18.6169 C -1.1349 -18.5373 -1.1672 -18.4673 -1.2227 -18.4069 C -1.1135 -18.3803 -1.0059 -18.3857 -0.8998 -18.423 C -0.6661 -18.9927 -0.3108 -19.4718 0.1661 -19.8604 C 0.3186 -19.9582 0.4801 -20.0389 0.6507 -20.1027 C 0.6614 -20.0865 0.6722 -20.0703 0.683 -20.0542 C 0.5486 -19.7055 0.4894 -19.3448 0.5053 -18.9722 C 0.8573 -19.3285 1.2826 -19.5439 1.7812 -19.6181 C 1.8134 -19.6074 1.8458 -19.5966 1.8781 -19.5859 C 1.7153 -19.2216 1.5429 -18.8609 1.3612 -18.5038 C 1.5145 -18.5373 1.6545 -18.6073 1.7812 -18.7137 C 1.7919 -18.6922 1.8027 -18.6707 1.8134 -18.6492 C 1.7757 -18.4553 1.7219 -18.2669 1.6519 -18.0839 C 2.1674 -18.1108 2.6842 -18.1431 3.2023 -18.1808 C 3.6483 -18.3176 4.0467 -18.5383 4.3975 -18.843 C 4.4545 -18.4899 4.3792 -18.1669 4.1714 -17.874 C 4.1821 -17.8632 4.1929 -17.8524 4.2036 -17.8416 C 4.8366 -18.0515 5.4717 -18.0568 6.1093 -17.8578 C 6.3056 -17.7531 6.4778 -17.6185 6.6261 -17.4541 C 6.2636 -17.396 5.919 -17.2829 5.5925 -17.1149 C 5.9944 -17.0002 6.3604 -16.8171 6.6908 -16.5658 C 7.1601 -16.2787 7.666 -16.1764 8.2089 -16.259 C 8.0735 -15.8974 7.8259 -15.639 7.4659 -15.4838 C 7.722 -15.287 7.9911 -15.1094 8.2735 -14.9508 C 8.6401 -14.9034 9.0062 -14.8872 9.3717 -14.9024 C 9.0029 -14.357 8.4861 -14.0501 7.8212 -13.9818 C 7.6132 -13.9569 7.4086 -13.9731 7.2075 -14.0302 C 7.2825 -13.7176 7.4063 -13.4161 7.579 -13.1258 C 7.8265 -12.8917 8.1118 -12.7194 8.435 -12.6091 C 8.0636 -12.3674 7.6544 -12.2705 7.2075 -12.3183 C 7.3603 -11.792 7.6833 -11.4098 8.1766 -11.1717 C 7.4021 -10.7824 6.6969 -10.8847 6.0609 -11.4785 C 6.0179 -11.027 6.0071 -10.5748 6.0286 -10.1219 C 6.1361 -9.6538 6.3568 -9.25 6.6908 -8.9107 C 6.4249 -8.8198 6.1558 -8.809 5.8833 -8.8784 C 5.4903 -9.0615 5.162 -9.3253 4.8981 -9.6698 C 4.8282 -9.0296 4.6882 -8.405 4.4782 -7.7964 C 4.4566 -7.5918 4.4566 -7.3872 4.4782 -7.1826 C 4.5181 -6.9672 4.5557 -6.7518 4.5912 -6.5367 C 4.2213 -6.6318 3.9251 -6.8364 3.703 -7.1503 C 3.5925 -7.3173 3.4903 -7.4896 3.3961 -7.6671 C 3.3068 -7.4609 3.2477 -7.2456 3.2185 -7.0211 C 3.2098 -6.4607 3.1882 -5.9008 3.1539 -5.3416 C 3.1237 -5.0305 3.0591 -4.729 2.9601 -4.4371 C 2.79 -4.7685 2.607 -5.0915 2.411 -5.4062 C 2.4532 -4.6915 2.5824 -3.9917 2.7986 -3.3067 C 3.1602 -2.013 3.7201 -0.8179 4.4782 0.2787 C 4.8293 0.7812 5.2222 1.2495 5.6572 1.6837 C 5.3192 1.7966 4.9747 1.8396 4.6235 1.8129 C 5.0253 2.1807 5.4667 2.493 5.9478 2.7496 C 5.6687 2.864 5.378 2.934 5.0757 2.9596 C 5.3891 3.4613 5.7767 3.8974 6.2386 4.2677 C 6.7445 4.5523 7.2828 4.6385 7.8535 4.5261 C 8.0851 4.4854 8.3112 4.4263 8.5318 4.3484 C 8.4666 4.7041 8.2943 4.9948 8.015 5.2206 C 8.8952 5.5571 9.7781 5.5626 10.6637 5.2367 C 11.2749 4.9673 11.5387 4.499 11.455 3.8316 C 11.119 2.9008 10.4676 2.314 9.5008 2.0713 C 9.015 2.0185 8.5305 1.9539 8.0474 1.8775 C 7.1908 1.7502 6.4317 1.411 5.7702 0.8601 C 5.6895 0.7416 5.6087 0.6232 5.528 0.5047 C 5.5387 0.494 5.5495 0.4832 5.5602 0.4724 C 6.1867 0.7006 6.8327 0.7922 7.4983 0.747 C 6.4097 0.3798 5.5322 -0.2716 4.8658 -1.2071 C 4.4694 -1.8757 4.3295 -2.597 4.4459 -3.3712 C 4.5535 -4.0609 4.8119 -4.6854 5.2211 -5.2447 C 5.3077 -5.3367 5.3992 -5.4228 5.4957 -5.5031 C 5.5064 -5.4815 5.5172 -5.46 5.528 -5.4384 C 5.3768 -4.8224 5.3069 -4.198 5.318 -3.565 C 5.4441 -2.8552 5.7617 -2.2468 6.2708 -1.7401 C 6.5737 -1.4695 6.8859 -1.2111 7.2075 -0.9649 C 7.4178 -0.8112 7.6439 -0.682 7.8858 -0.5773 C 8.241 -0.4156 8.5963 -0.2648 8.9517 -0.1251 C 8.6879 -0.4965 8.4242 -0.868 8.1604 -1.2394 C 7.7714 -1.6822 7.3946 -2.1344 7.0299 -2.596 C 6.657 -3.128 6.4686 -3.7201 6.4646 -4.3726 C 6.5488 -5.1243 6.5757 -5.8779 6.5454 -6.6335 C 6.4354 -7.2519 6.1932 -7.8117 5.8186 -8.3132 C 6.3017 -8.2704 6.7054 -8.0552 7.0299 -7.6671 C 7.1996 -7.4465 7.3449 -7.2096 7.4659 -6.9566 C 7.4822 -6.9236 7.5037 -6.9182 7.5306 -6.9404 C 8.1613 -7.5823 8.8396 -8.1637 9.5654 -8.6846 C 10.5399 -9.5411 11.019 -10.6232 11.0028 -11.9307 C 11.3644 -11.5411 11.5582 -11.078 11.5842 -10.5419 C 11.7129 -9.5699 11.4438 -8.7301 10.7767 -8.0225 C 10.2417 -7.4872 9.6871 -6.9758 9.1133 -6.4882 C 8.7104 -6.0863 8.4467 -5.6072 8.3219 -5.0509 C 8.2858 -4.6568 8.372 -4.2908 8.5803 -3.9526 C 8.979 -3.2844 9.4635 -2.6815 10.0338 -2.1438 C 9.9745 -3.1988 10.2006 -4.1892 10.7121 -5.1154 C 10.9901 -5.5549 11.2808 -5.9856 11.5842 -6.4075 C 11.8017 -6.7653 12.0063 -7.1313 12.1979 -7.5056 C 12.3484 -7.9462 12.4453 -8.3984 12.4886 -8.8622 C 12.7154 -8.6132 12.8662 -8.3225 12.9408 -7.9901 C 12.9821 -7.7762 13.0144 -7.5609 13.0377 -7.3442 C 13.6275 -8.2686 13.9128 -9.2807 13.8937 -10.3803 Z" />
  <path class="body" d="M 0.4245 -19.8119 C 0.4438 -19.8044 0.4546 -19.7882 0.4568 -19.7635 C 0.327 -19.4481 0.2678 -19.1197 0.2792 -18.7783 C 0.1174 -18.5896 -0.0495 -18.4066 -0.2215 -18.2293 C -0.3669 -18.2921 -0.5176 -18.3352 -0.6737 -18.3585 C -0.486 -18.9675 -0.1199 -19.452 0.4245 -19.8119 Z" />
  <path class="body" d="M 7.5952 -5.6645 C 7.5898 -5.5563 7.5952 -5.4487 7.6113 -5.3416 C 7.6279 -5.3747 7.644 -5.407 7.6597 -5.4384 C 7.6994 -5.6406 7.721 -5.8453 7.7243 -6.0522 C 7.7168 -6.2967 7.6791 -6.5336 7.6113 -6.7628 C 7.8868 -7.0491 8.1721 -7.3236 8.4672 -7.5864 C 8.9395 -7.9402 9.4025 -8.3062 9.8562 -8.6846 C 10.6513 -9.4299 11.0873 -10.3505 11.1643 -11.4462 C 11.4706 -10.6186 11.4813 -9.7896 11.1966 -8.9592 C 10.9879 -8.5781 10.7295 -8.2335 10.4214 -7.9256 C 10.0154 -7.5194 9.5901 -7.1372 9.1456 -6.7789 C 8.5481 -6.2676 8.2035 -5.6216 8.112 -4.8409 C 8.143 -4.3965 8.2884 -3.9927 8.548 -3.6297 C 8.7848 -3.3067 9.0218 -2.9837 9.2586 -2.6607 C 9.5399 -2.3848 9.8144 -2.1048 10.0822 -1.8209 C 10.2089 -1.3233 10.4403 -0.8818 10.7767 -0.4965 C 10.6128 -0.8365 10.4728 -1.1918 10.3568 -1.5624 C 10.0704 -2.9362 10.318 -4.2067 11.0997 -5.3739 C 11.6423 -6.0818 12.0945 -6.8462 12.4563 -7.6671 C 12.5184 -7.913 12.5723 -8.1607 12.6178 -8.41 C 12.9129 -7.657 12.8913 -6.9141 12.5532 -6.1814 C 12.3315 -5.6889 12.0569 -5.2314 11.7296 -4.8086 C 12.2182 -5.2028 12.5789 -5.7035 12.8116 -6.3105 C 12.8913 -6.5325 12.9559 -6.7586 13.0054 -6.9888 C 13.503 -7.6411 13.826 -8.3733 13.9744 -9.1852 C 14.0403 -9.5963 14.0942 -10.0054 14.1359 -10.4126 C 14.6013 -9.3811 14.6982 -8.3152 14.4266 -7.215 C 14.2728 -6.8357 14.079 -6.4804 13.8452 -6.1491 C 13.4051 -5.612 12.9529 -5.0844 12.4886 -4.5663 C 11.995 -3.988 11.6935 -3.3205 11.5842 -2.5637 C 11.5711 -1.9507 11.6788 -1.3586 11.9072 -0.7872 C 12.2852 0.0128 12.6189 0.8311 12.9085 1.6676 C 12.98 1.9461 12.9154 2.183 12.7147 2.3781 C 12.4652 2.7284 12.3252 3.116 12.2948 3.541 C 12.6446 2.7494 13.1345 2.0549 13.7645 1.4576 C 14.1859 1.1284 14.6596 0.9238 15.1856 0.8439 C 14.3581 1.5742 13.7175 2.441 13.2638 3.444 C 13.0446 3.9899 12.8078 4.5284 12.5532 5.059 C 12.3094 5.4428 11.9918 5.7496 11.6003 5.9796 C 11.0784 6.3188 10.5078 6.5016 9.8885 6.5287 C 9.6032 6.2729 9.2694 6.133 8.8871 6.1088 C 9.6823 6.457 10.2421 7.0332 10.5667 7.8368 C 10.556 7.8475 10.5452 7.8585 10.5344 7.8691 C 10.1313 7.5113 9.6791 7.2257 9.1778 7.0132 C 8.4611 6.7742 7.7398 6.5481 7.0137 6.3349 C 6.2999 6.0729 5.6915 5.6582 5.1888 5.0913 C 5.0775 4.8581 4.9268 4.6534 4.7366 4.4776 C 4.8202 4.6669 4.9063 4.8607 4.995 5.059 C 5.0376 5.2076 5.0699 5.3585 5.0919 5.5112 C 5.098 6.1256 5.0872 6.7393 5.0596 7.3524 C 5.0863 7.75 5.1886 8.1269 5.3665 8.4828 C 5.1168 8.385 4.8961 8.2235 4.7043 7.9983 C 4.3813 7.5785 4.1336 7.1156 3.9614 6.6095 C 3.9525 6.9922 4.0494 7.3475 4.2521 7.6754 C 4.4004 7.9047 4.5673 8.1198 4.7527 8.3213 C 4.5837 9.0726 4.7075 9.7726 5.1242 10.4209 C 5.636 11.1799 6.2873 11.7881 7.0783 12.2458 C 6.6149 12.542 6.1627 12.8543 5.7218 13.1825 C 5.4 13.167 5.1308 13.0378 4.9142 12.7949 C 4.8927 12.7733 4.8712 12.7733 4.8497 12.7949 C 5.2387 13.3553 5.7663 13.5598 6.4323 13.4086 C 6.2818 13.5485 6.1095 13.6563 5.9155 13.7316 C 5.5176 13.8285 5.1192 13.9254 4.7204 14.0223 C 4.5583 14.0821 4.3968 14.1412 4.2359 14.2 C 3.966 14.1224 3.6969 14.0417 3.4284 13.9577 C 3.3114 13.9218 3.193 13.9112 3.0732 13.9254 C 3.5618 14.1376 4.0571 14.3314 4.5589 14.5068 C 4.6764 14.5301 4.7949 14.5462 4.9142 14.5553 C 5.1089 14.5307 5.3027 14.5146 5.4957 14.5068 C 5.1949 14.7219 4.8611 14.8621 4.4944 14.9267 C 4.1527 14.9884 3.8081 15.0262 3.4608 15.0397 C 3.0415 14.9325 2.6324 14.9593 2.2333 15.1205 C 2.4809 15.096 2.7285 15.1066 2.9763 15.1528 C 3.3375 15.241 3.6928 15.3485 4.0421 15.4758 C 4.2683 15.4777 4.4944 15.4777 4.7204 15.4758 C 4.4184 15.7491 4.0631 15.9106 3.6546 15.9603 C 3.1594 15.9567 2.6641 15.9567 2.1687 15.9603 C 1.9173 15.9903 1.6805 16.0656 1.4581 16.1864 C 1.832 16.1328 2.2089 16.1115 2.5887 16.1218 C 2.9908 16.3831 3.4322 16.5178 3.9129 16.5256 C 3.5483 16.8066 3.1338 16.9358 2.6694 16.9131 C 2.2881 16.8689 1.9059 16.8527 1.5227 16.8647 C 1.3272 16.8976 1.1441 16.9622 0.9736 17.0585 C 1.1775 17.0417 1.3821 17.031 1.5874 17.0262 C 1.4019 17.2032 1.2942 17.4186 1.2644 17.6722 C 1.2644 17.8017 1.2913 17.9254 1.3451 18.0436 C 1.4453 18.1977 1.5315 18.3592 1.6035 18.5281 C 1.6548 18.763 1.6063 18.9729 1.4581 19.158 C 1.2593 19.1057 1.0546 19.0682 0.8444 19.045 C 0.6452 19.0437 0.4622 19.0976 0.2953 19.2065 C 0.2504 19.1706 0.2127 19.1276 0.1823 19.0772 C 0.0929 18.8705 0.0337 18.6551 0.0047 18.4312 C 0.1569 18.2626 0.2915 18.0795 0.4084 17.8822 C 0.451 17.7875 0.4725 17.6906 0.473 17.5915 C 0.2889 17.8469 0.0789 18.0785 -0.1568 18.2859 C -0.4153 18.4367 -0.6737 18.5873 -0.9321 18.7381 C -1.0881 18.8512 -1.2227 18.9858 -1.3358 19.1419 C -1.4581 18.9545 -1.6249 18.8576 -1.8365 18.8512 C -1.5367 19.0414 -1.4129 19.3105 -1.465 19.6587 C -1.5251 19.772 -1.6166 19.8095 -1.7395 19.7717 C -2.1372 19.4694 -2.5786 19.3886 -3.0639 19.5294 C -3.0687 19.429 -3.0525 19.3321 -3.0154 19.2388 C -2.925 19.116 -2.8227 19.003 -2.7085 18.8996 C -2.2348 18.5873 -1.7611 18.2752 -1.2874 17.9629 C -1.0936 17.8499 -0.8891 17.7636 -0.6737 17.7045 C -0.8136 17.6829 -0.9536 17.6829 -1.0935 17.7045 C -1.3549 17.7975 -1.6026 17.9161 -1.8365 18.0598 C -2.2166 18.1712 -2.6042 18.2307 -2.9992 18.2374 C -2.9987 18.1099 -3.031 17.9916 -3.0961 17.8822 C -3.0951 18.209 -3.2512 18.4028 -3.5645 18.4635 C -3.6414 18.4642 -3.7113 18.4426 -3.7744 18.3989 C -3.7397 17.97 -3.8528 17.5824 -4.1136 17.2362 C -4.2175 16.9597 -4.1206 16.8198 -3.8229 16.8162 C -3.4102 16.9338 -2.9957 17.0469 -2.5793 17.1554 C -2.2735 17.1783 -1.9828 17.1247 -1.7073 16.9939 C -1.8058 16.9881 -1.9027 16.9719 -1.9979 16.9454 C -2.1217 16.5414 -2.3909 16.3153 -2.8055 16.2672 C -2.8319 15.9157 -2.7027 15.6305 -2.4178 15.4112 C -2.2418 15.2784 -2.0588 15.2675 -1.8688 15.3789 C -1.6391 15.5898 -1.4237 15.8159 -1.2227 16.0572 C -0.8055 16.4548 -0.321 16.573 0.2308 16.4125 C 0.891 16.0129 1.3487 15.4477 1.6035 14.7167 C 1.7069 14.314 1.8253 13.9157 1.9588 13.5217 C 2.1069 13.1337 2.3383 12.8056 2.6532 12.5365 C 2.7039 12.5016 2.7577 12.4748 2.8148 12.4558 C 3.1742 12.5849 3.5404 12.6118 3.9129 12.5365 C 3.1749 12.4312 2.4966 12.1728 1.8781 11.7613 C 1.8437 11.4557 1.806 11.1489 1.765 10.8407 C 1.7082 10.6592 1.6328 10.4871 1.5389 10.324 C 1.5706 10.5261 1.6029 10.7309 1.6358 10.9376 C 1.6574 11.2177 1.6574 11.4974 1.6358 11.7774 C 1.6025 12.0375 1.5003 12.2636 1.3289 12.4558 C 1.3172 12.2006 1.2688 11.9532 1.1836 11.7129 C 1.0131 11.4454 0.8301 11.187 0.6345 10.9376 C 0.5668 10.8101 0.5184 10.6754 0.4892 10.5339 C 0.5782 10.1989 0.6481 9.8598 0.6991 9.5164 C 0.763 9.2493 0.8706 9.0019 1.0221 8.7736 C 1.1369 8.6372 1.2715 8.5242 1.4258 8.4344 C 1.287 8.4386 1.1578 8.4819 1.0383 8.5636 C 0.7768 8.7794 0.61 9.0539 0.5376 9.3872 C 0.4747 9.8401 0.3671 10.2816 0.2146 10.7115 C 0.1078 10.9477 -0.0483 11.147 -0.2538 11.3091 C -0.2855 11.3282 -0.307 11.3175 -0.3183 11.2768 C -0.1374 10.7849 -0.1105 10.2842 -0.2376 9.7749 C -0.3036 9.4467 -0.3789 9.1237 -0.4637 8.8058 C -0.1514 8.4076 0.0854 7.966 0.2469 7.4815 C 0.3958 7.0914 0.6273 6.7629 0.9413 6.4964 C 1.0762 6.4127 1.2161 6.3375 1.3612 6.2703 C 1.0013 6.2806 0.7052 6.426 0.473 6.7064 C 0.3977 6.8249 0.3222 6.9431 0.2469 7.0617 C 0.0379 7.5442 -0.1882 8.0181 -0.4314 8.4828 C -0.6518 8.7684 -0.9371 8.946 -1.2874 9.0158 C -1.0558 8.7413 -0.8781 8.4344 -0.7544 8.0953 C -0.6163 7.3394 -0.4656 6.5859 -0.3022 5.8342 C -0.2082 5.614 -0.0898 5.4092 0.0531 5.2206 C 0.2437 5.0413 0.4159 4.8581 0.5699 4.6715 C 0.3893 4.7554 0.2171 4.8523 0.0531 4.9622 C 0.1363 4.3578 0.1955 3.7494 0.2308 3.1372 C 0.1382 1.7345 -0.2817 0.4371 -1.029 -0.7549 C -0.8781 -1.1697 -0.7436 -1.5896 -0.6252 -2.0146 C -0.5377 -2.2493 -0.3924 -2.4378 -0.1892 -2.5799 C -0.4081 -2.5341 -0.575 -2.4103 -0.6898 -2.2084 C -0.7437 -2.1115 -0.7974 -2.0146 -0.8513 -1.9178 C -0.9526 -1.4846 -1.0926 -1.0647 -1.2712 -0.658 C -1.4121 -0.3872 -1.6059 -0.1611 -1.8526 0.0203 C -1.7992 -0.299 -1.7615 -0.622 -1.7395 -0.9488 C -1.7308 -1.2681 -1.7954 -1.5696 -1.9333 -1.8531 C -1.8736 -2.1611 -1.7336 -2.4249 -1.5134 -2.6445 C -1.6941 -2.5722 -1.8394 -2.4484 -1.9495 -2.2731 C -2.0811 -1.9944 -2.178 -1.7037 -2.2402 -1.401 C -2.3138 -1.2017 -2.3999 -1.0079 -2.4986 -0.8196 C -2.477 -1.2059 -2.5363 -1.5773 -2.6762 -1.9339 C -2.4828 -2.2236 -2.402 -2.5412 -2.434 -2.8867 C -2.6132 -2.269 -2.9523 -1.763 -3.4515 -1.3687 C -3.4586 -1.8054 -3.5124 -2.2361 -3.6129 -2.6607 C -3.6022 -2.6929 -3.5914 -2.7252 -3.5806 -2.7575 C -3.1191 -3.0227 -2.6238 -3.1842 -2.0949 -3.242 C -2.0884 -3.0773 -2.0399 -2.9266 -1.9495 -2.7899 C -1.7328 -3.1035 -1.4635 -3.3619 -1.142 -3.565 C -1.1678 -3.3177 -1.157 -3.0701 -1.1097 -2.8222 C -1.074 -2.7037 -1.0202 -2.596 -0.9482 -2.4992 C -0.8854 -2.711 -0.7885 -2.9048 -0.6575 -3.0806 C -0.4516 -3.2811 -0.2524 -3.4856 -0.06 -3.6943 C -0.0091 -3.2799 0.1955 -2.9677 0.5538 -2.7575 C 0.5727 -3.0402 0.6104 -3.3201 0.6668 -3.5974 C 0.9145 -4.1788 1.162 -4.7601 1.4097 -5.3416 C 1.4313 -5.5677 1.4313 -5.7937 1.4097 -6.0199 C 1.3793 -6.1327 1.3362 -6.2403 1.2805 -6.3428 C 1.3166 -6.0067 1.2951 -5.6729 1.2159 -5.3416 C 1.0094 -4.8533 0.7941 -4.3688 0.5699 -3.888 C 0.4801 -3.611 0.4155 -3.331 0.3761 -3.0483 C 0.2563 -3.2127 0.1808 -3.3957 0.15 -3.5974 C 0.1958 -4.1177 0.1096 -4.613 -0.1084 -5.0831 C -0.1573 -5.1809 -0.2219 -5.2669 -0.3022 -5.3416 C -0.2234 -5.146 -0.1588 -4.9414 -0.1084 -4.7279 C -0.0627 -4.4925 -0.052 -4.2557 -0.0761 -4.0173 C -0.2686 -3.7515 -0.4839 -3.5038 -0.7221 -3.2743 C -0.8351 -3.1396 -0.9212 -2.9889 -0.9805 -2.8222 C -1.0021 -3.0052 -1.0021 -3.1882 -0.9805 -3.3712 C -0.9076 -3.6978 -0.8214 -4.0208 -0.7221 -4.3403 C -0.6445 -4.6389 -0.6661 -4.9296 -0.7867 -5.2124 C -0.7828 -4.7181 -0.8797 -4.2443 -1.0774 -3.7911 C -1.4284 -3.6373 -1.7084 -3.4005 -1.9172 -3.0806 C -1.9398 -3.4108 -1.9237 -3.7391 -1.8688 -4.0657 C -1.8702 -4.2635 -1.9079 -4.4519 -1.9818 -4.6309 C -2.0038 -4.2182 -2.0522 -3.8091 -2.1272 -3.4035 C -3.2226 -3.2813 -4.1162 -2.7968 -4.808 -1.9501 C -5.2091 -2.1775 -5.629 -2.3606 -6.0678 -2.4992 C -6.112 -2.8893 -6.2897 -3.2015 -6.6007 -3.4358 C -6.6061 -3.4251 -6.6114 -3.4143 -6.6169 -3.4035 C -6.4922 -3.262 -6.4007 -3.1005 -6.3423 -2.9191 C -6.2565 -2.5662 -6.1812 -2.2109 -6.1162 -1.8531 C -6.0572 -1.6596 -5.9764 -1.4765 -5.874 -1.304 C -5.8901 -1.2933 -5.9062 -1.2825 -5.9224 -1.2717 C -6.0051 -1.305 -6.0858 -1.3427 -6.1646 -1.3848 C -6.4957 -1.7823 -6.8457 -2.1645 -7.2144 -2.5314 C -7.3425 -2.7892 -7.4717 -3.0476 -7.602 -3.3067 C -7.6127 -3.4358 -7.6236 -3.565 -7.6343 -3.6943 C -7.7109 -3.5185 -7.7324 -3.3356 -7.6989 -3.1451 C -7.5924 -2.9089 -7.4848 -2.672 -7.3759 -2.4346 C -7.3411 -2.1469 -7.3734 -1.867 -7.4728 -1.5947 C -7.6484 -2.0429 -7.9122 -2.4305 -8.2641 -2.7575 C -8.3879 -3.0211 -8.5602 -3.2472 -8.781 -3.4358 C -8.7917 -3.4304 -8.8025 -3.4251 -8.8133 -3.4197 C -8.3816 -2.8835 -8.2901 -2.2968 -8.5387 -1.6594 C -8.6354 -2.2242 -8.8883 -2.7034 -9.2977 -3.0967 C -9.3974 -3.16 -9.4997 -3.2192 -9.6046 -3.2743 C -9.587 -3.1906 -9.5385 -3.1206 -9.4592 -3.0644 C -9.7694 -2.9803 -9.9578 -2.7811 -10.0245 -2.4669 C -10.0352 -2.2515 -10.0461 -2.0362 -10.0568 -1.8209 C -10.082 -1.4884 -10.2596 -1.3646 -10.5897 -1.4494 C -10.8377 -1.5165 -11.0369 -1.6511 -11.1873 -1.8531 C -11.2089 -1.907 -11.2089 -1.9608 -11.1873 -2.0146 C -11.0258 -2.1546 -10.8643 -2.2946 -10.7028 -2.4346 C -10.4869 -2.6735 -10.4008 -2.9534 -10.4444 -3.2743 C -10.4856 -3.1613 -10.5449 -3.059 -10.622 -2.9675 C -10.7957 -2.9169 -10.9572 -2.8415 -11.1066 -2.7414 C -11.3574 -2.4734 -11.6536 -2.2743 -11.9948 -2.1438 C -12.0789 -2.2588 -12.1705 -2.3665 -12.2693 -2.4669 C -12.2801 -2.4561 -12.2909 -2.4453 -12.3016 -2.4346 C -12.1921 -2.2546 -12.1436 -2.0608 -12.1563 -1.8531 C -12.2345 -1.6178 -12.3906 -1.5316 -12.6247 -1.5947 C -12.7208 -1.8087 -12.8339 -2.0133 -12.9638 -2.2084 C -13.0727 -2.3065 -13.1696 -2.4141 -13.2545 -2.5314 C -13.2789 -2.6283 -13.252 -2.709 -13.1738 -2.7737 C -13.0251 -2.8663 -12.8636 -2.9202 -12.6893 -2.9352 C -12.2687 -2.9041 -11.8488 -2.9149 -11.4295 -2.9675 C -11.2876 -3.004 -11.1477 -3.0471 -11.0097 -3.0967 C -11.4942 -3.0683 -11.9787 -3.079 -12.4632 -3.129 C -12.6276 -3.1951 -12.7891 -3.2704 -12.9477 -3.3551 C -12.8463 -3.5518 -12.8355 -3.751 -12.9154 -3.9526 C -12.9506 -3.7554 -13.0206 -3.5723 -13.1253 -3.4035 C -13.365 -3.2732 -13.5265 -3.3378 -13.6098 -3.5974 C -13.7094 -3.9254 -13.6395 -4.2107 -13.3998 -4.4533 C -13.3134 -4.5046 -13.222 -4.5423 -13.1253 -4.5663 C -12.8713 -4.4581 -12.6398 -4.3128 -12.4308 -4.1303 C -12.0567 -3.8799 -11.6476 -3.783 -11.2035 -3.8396 C -11.0898 -3.8524 -10.9821 -3.8847 -10.8804 -3.9365 C -11.085 -3.9472 -11.2896 -3.9581 -11.4942 -3.9688 C -11.5385 -3.9818 -11.5815 -3.998 -11.6234 -4.0173 C -11.7628 -4.3767 -11.9782 -4.6836 -12.2693 -4.9378 C -11.9511 -5.1744 -11.9834 -5.2336 -12.3662 -5.1154 C -12.6968 -5.1493 -12.8098 -5.3215 -12.7054 -5.6322 C -12.3239 -6.0901 -11.9363 -6.1008 -11.5426 -5.6645 C -11.3957 -5.2954 -11.2234 -4.9401 -11.0258 -4.5986 C -10.6205 -4.1262 -10.109 -3.9485 -9.4915 -4.0657 C -9.3401 -4.0819 -9.1893 -4.1035 -9.0394 -4.1303 C -8.49 -4.2703 -7.9409 -4.4103 -7.392 -4.5502 C -6.9829 -4.5718 -6.5738 -4.5718 -6.1646 -4.5502 C -6.0542 -4.5335 -5.9465 -4.5066 -5.8416 -4.4694 C -5.959 -4.2305 -6.0397 -3.9829 -6.0839 -3.7265 C -5.6276 -4.5363 -5.0732 -5.2739 -4.4205 -5.9391 C -3.6654 -6.5911 -2.7933 -7.011 -1.8042 -7.1988 C -1.5254 -7.2502 -1.2455 -7.2933 -0.9643 -7.328 C -2.4851 -7.4047 -3.7717 -6.8932 -4.8242 -5.7937 C -5.0057 -5.5868 -5.1834 -5.3768 -5.3572 -5.1639 C -5.6335 -5.087 -5.9026 -5.1032 -6.1646 -5.2124 C -5.9544 -5.312 -5.7606 -5.4358 -5.5832 -5.5838 C -5.3141 -5.8745 -5.0449 -6.1652 -4.7758 -6.4559 C -4.4252 -6.7442 -4.0269 -6.938 -3.5806 -7.0373 C -4.2225 -7.0555 -4.7501 -6.8186 -5.1633 -6.3267 C -5.4932 -6.0272 -5.8808 -5.8603 -6.3262 -5.826 C -6.4015 -5.8368 -6.4769 -5.8476 -6.5523 -5.8583 C -6.0845 -6.0784 -5.7184 -6.4121 -5.4541 -6.8597 C -5.0117 -6.8185 -4.6456 -6.9639 -4.3559 -7.2957 C -4.4888 -7.2618 -4.618 -7.208 -4.7435 -7.1342 C -5.1594 -7.0008 -5.5577 -7.0385 -5.9385 -7.2473 C -5.4325 -7.3763 -5.0019 -7.6294 -4.6465 -8.0063 C -4.1075 -8.0728 -3.5691 -8.1428 -3.0316 -8.2162 C -2.8685 -8.2144 -2.707 -8.1982 -2.5471 -8.1678 C -2.3007 -8.1085 -2.0638 -8.0331 -1.8365 -7.9417 C -2.2468 -8.2867 -2.7206 -8.4373 -3.2576 -8.3939 C -3.6761 -8.3188 -4.096 -8.2542 -4.5174 -8.2001 C -4.7327 -8.1785 -4.948 -8.1785 -5.1633 -8.2001 C -5.2314 -8.2117 -5.296 -8.2333 -5.3572 -8.2647 C -5.0139 -8.3155 -4.6801 -8.4017 -4.3559 -8.5231 C -3.9414 -8.7356 -3.5431 -8.9724 -3.1608 -9.2337 C -2.9816 -9.3287 -2.7986 -9.4147 -2.6117 -9.4921 C -2.3553 -9.5415 -2.0969 -9.5523 -1.8365 -9.5244 C -1.6164 -9.3227 -1.3687 -9.1612 -1.0935 -9.0399 C -0.7104 -8.8978 -0.3228 -8.7686 0.0693 -8.6523 C 0.4421 -8.4845 0.7597 -8.2423 1.0221 -7.9256 C 1.0042 -8.0475 0.9504 -8.1551 0.8606 -8.2485 C 0.7043 -8.4156 0.5374 -8.5717 0.36 -8.7169 C -0.0894 -8.8847 -0.5416 -9.0462 -0.9967 -9.2014 C -1.5185 -9.4111 -1.9061 -9.7664 -2.1594 -10.2673 C -1.8329 -10.1586 -1.4991 -10.0617 -1.1582 -9.9766 C -0.9708 -9.948 -0.7824 -9.9319 -0.5929 -9.9282 C -0.3614 -9.9488 -0.1299 -9.9542 0.1015 -9.9443 C 0.3644 -9.7052 0.6658 -9.533 1.0059 -9.4275 C 1.313 -9.3905 1.6144 -9.4121 1.9104 -9.4921 C 1.0217 -9.4734 0.3111 -9.818 -0.2215 -10.5257 C 0.0241 -10.4964 0.2718 -10.4695 0.5215 -10.445 C 0.8766 -10.4395 1.2104 -10.5203 1.5227 -10.6872 C 2.005 -10.6895 2.4841 -10.7273 2.9601 -10.8002 C 3.1166 -10.7847 3.2728 -10.7794 3.4284 -10.7841 C 3.3037 -10.8401 3.1745 -10.8831 3.0408 -10.9133 C 2.5874 -10.926 2.1352 -10.9152 1.6842 -10.881 C 1.4425 -10.9131 1.2272 -11.0045 1.0383 -11.1556 C 1.6018 -11.2453 2.1509 -11.3907 2.6855 -11.5916 C 3.3817 -11.857 3.8608 -12.3362 4.1229 -13.029 C 4.2968 -13.9287 4.0437 -14.6877 3.3638 -15.3061 C 3.0333 -15.5359 2.6671 -15.6759 2.2657 -15.726 C 2.0399 -15.9144 1.7815 -16.0113 1.4904 -16.0167 C 2.0686 -15.8113 2.3593 -15.4075 2.3625 -14.8055 C 2.0098 -15.1654 1.5791 -15.3323 1.0706 -15.3061 C 0.8528 -15.5533 0.7074 -15.8386 0.6345 -16.1621 C 0.6081 -15.928 0.6404 -15.7019 0.7314 -15.4838 C 0.8692 -15.2406 1.0307 -15.0145 1.2159 -14.8055 C 1.333 -14.6264 1.3976 -14.4326 1.4097 -14.2241 C 0.9116 -14.6748 0.3247 -14.9063 -0.3507 -14.9185 C -0.1698 -15.1163 0.0348 -15.2832 0.263 -15.4192 C 0.296 -15.4354 0.3014 -15.4569 0.2792 -15.4838 C -0.2588 -15.3281 -0.6409 -14.9942 -0.8675 -14.4825 C -0.889 -14.4717 -0.9105 -14.4609 -0.9321 -14.4501 C -1.1411 -14.5074 -1.3457 -14.5667 -1.5458 -14.6278 C -1.0946 -14.3033 -0.5885 -14.1365 -0.0276 -14.1272 C -0.2281 -13.9507 -0.465 -13.8592 -0.7383 -13.8526 C -1.1701 -13.8326 -1.6007 -13.8487 -2.0302 -13.901 C -2.5479 -13.8954 -3.0432 -13.7878 -3.516 -13.5781 C -3.5699 -13.8745 -3.6184 -13.8745 -3.6614 -13.5781 C -3.6914 -13.3361 -3.6268 -13.1208 -3.4676 -12.9321 C -3.3271 -12.797 -3.1926 -12.657 -3.0639 -12.5122 C -3.2842 -12.5488 -3.5103 -12.5973 -3.7422 -12.6575 C -3.9468 -12.6813 -4.0598 -12.7944 -4.0813 -12.9967 C -4.09 -13.1405 -4.0954 -13.2805 -4.0975 -13.4166 C -4.2638 -13.0993 -4.2585 -12.787 -4.0813 -12.4799 C -3.9674 -12.3171 -3.8382 -12.1664 -3.6937 -12.0276 C -3.6238 -11.953 -3.5915 -11.8669 -3.5968 -11.7692 C -3.8058 -11.9108 -4.0372 -12.0024 -4.2912 -12.0438 C -4.4564 -12.1183 -4.6017 -12.2206 -4.7273 -12.3507 C -4.8472 -12.5809 -4.9549 -12.8179 -5.0503 -13.0612 C -5.1055 -13.1502 -5.1755 -13.2257 -5.2602 -13.2874 C -5.1237 -13.4617 -4.9622 -13.607 -4.7758 -13.7234 C -4.4579 -13.8652 -4.1349 -13.9944 -3.8068 -14.111 C -3.3924 -14.2886 -3.0317 -14.5416 -2.7247 -14.87 C -2.6494 -14.9658 -2.6333 -15.0681 -2.6762 -15.1769 C -3.1473 -15.4057 -3.6425 -15.5564 -4.1621 -15.6291 C -4.8724 -15.6826 -5.583 -15.6933 -6.2939 -15.6614 C -6.5056 -16.1425 -6.5756 -16.6432 -6.5038 -17.1633 C -6.442 -17.233 -6.3882 -17.3084 -6.3423 -17.3895 C -6.049 -17.6566 -5.7691 -17.6458 -5.5025 -17.3572 C -5.441 -17.2154 -5.4787 -17.1023 -5.6156 -17.018 C -5.7275 -16.9612 -5.8458 -16.9235 -5.9709 -16.9049 C -5.6973 -16.7859 -5.4766 -16.8505 -5.3087 -17.0988 C -5.2926 -17.2059 -5.2872 -17.3135 -5.2926 -17.4218 C -5.2387 -17.4218 -5.1849 -17.4218 -5.1311 -17.4218 C -5.1009 -17.1354 -4.9771 -16.8985 -4.7596 -16.7111 C -4.738 -16.7435 -4.738 -16.7758 -4.7596 -16.808 C -4.8748 -16.9867 -4.9556 -17.1805 -5.0019 -17.3895 C -4.8511 -17.4325 -4.7004 -17.4325 -4.5496 -17.3895 C -4.4611 -17.0721 -4.2727 -16.8353 -3.9844 -16.6789 C -4.1507 -16.9121 -4.296 -17.1651 -4.4205 -17.4379 C -4.1037 -17.4605 -3.813 -17.5574 -3.5484 -17.7286 C -3.3164 -17.893 -3.0903 -18.0653 -2.87 -18.2454 C -2.8055 -18.267 -2.7408 -18.2884 -2.6762 -18.31 C -2.2695 -18.3193 -1.8658 -18.357 -1.465 -18.423 C -1.4244 -18.4117 -1.4136 -18.3902 -1.4327 -18.3585 C -1.6648 -18.1589 -1.9286 -18.0136 -2.2241 -17.9224 C -1.8874 -17.9343 -1.5751 -18.0312 -1.2874 -18.2131 C -0.9588 -18.2254 -0.6358 -18.1877 -0.3183 -18.1 C -0.367 -17.9284 -0.4047 -17.7561 -0.4314 -17.5832 C -0.0528 -18.1772 0.4155 -18.6886 0.9736 -19.1175 C 1.1717 -19.2515 1.3817 -19.3646 1.6035 -19.4566 C 1.4258 -19.0472 1.2375 -18.6382 1.0383 -18.2293 C 1.2177 -18.2082 1.3846 -18.2512 1.5389 -18.3585 C 1.3478 -17.8108 1.0302 -17.3425 0.5861 -16.9534 C 0.322 -16.7999 0.0421 -16.6814 -0.2538 -16.5981 C 0.3288 -16.5838 0.7971 -16.8045 1.1513 -17.2602 C 1.2859 -17.4595 1.4204 -17.6586 1.555 -17.8578 C 1.6833 -17.8853 1.8125 -17.9069 1.9427 -17.9224 C 2.2872 -17.9331 2.6317 -17.944 2.9763 -17.9547 C 3.4376 -18.0078 3.8413 -18.1854 4.1875 -18.4877 C 4.1705 -18.2913 4.1059 -18.1082 3.9937 -17.9385 C 3.512 -17.291 2.8822 -16.855 2.1042 -16.6304 C 2.8361 -16.6734 3.4389 -16.9748 3.9129 -17.5348 C 4.5678 -17.8255 5.2461 -17.8901 5.9478 -17.7286 C 6.0783 -17.6995 6.1967 -17.6458 6.3032 -17.5671 C 5.9765 -17.4869 5.6643 -17.3685 5.3665 -17.2118 C 5.0237 -16.9875 4.6899 -16.7506 4.3651 -16.5012 C 4.1876 -16.3802 3.9938 -16.294 3.7838 -16.2428 C 3.9738 -16.2283 4.1569 -16.2606 4.3329 -16.3397 C 4.6563 -16.5013 4.9577 -16.6951 5.2372 -16.9211 C 5.6114 -16.9364 5.956 -16.8395 6.2708 -16.6304 C 6.7692 -16.2275 7.3398 -16.0444 7.9827 -16.0813 C 7.708 -15.7985 7.3742 -15.6263 6.9814 -15.5645 C 6.4606 -15.4681 5.9546 -15.5165 5.4633 -15.7098 C 5.4248 -15.6987 5.4248 -15.6826 5.4633 -15.6614 C 6.032 -15.3469 6.635 -15.25 7.2721 -15.3707 C 7.5521 -15.1876 7.832 -15.0047 8.112 -14.8216 C 8.4165 -14.7115 8.7288 -14.6792 9.0486 -14.7247 C 8.0321 -13.9295 7.0577 -13.9779 6.1255 -14.87 C 6.1383 -14.8013 6.1706 -14.7367 6.2224 -14.6762 C 6.4307 -14.4355 6.6676 -14.2309 6.933 -14.0625 C 7.0883 -13.7152 7.2498 -13.3707 7.4175 -13.029 C 7.5952 -12.8192 7.8158 -12.6738 8.0797 -12.5929 C 7.0316 -12.3606 6.3371 -12.7536 5.9963 -13.7718 C 5.9894 -13.3401 6.1455 -12.9795 6.4646 -12.6898 C 6.6196 -12.5773 6.7865 -12.4858 6.9653 -12.4153 C 7.0955 -11.893 7.3808 -11.4839 7.8212 -11.1879 C 7.199 -11.0275 6.6552 -11.1675 6.1901 -11.6077 C 6.0144 -11.8623 5.8636 -12.1315 5.7379 -12.4153 C 5.6733 -12.4799 5.6087 -12.5444 5.5441 -12.6091 C 5.5948 -12.4358 5.6594 -12.2634 5.7379 -12.0922 C 5.7805 -11.9437 5.8128 -11.793 5.8348 -11.64 C 5.8279 -11.1342 5.8279 -10.6281 5.8348 -10.1219 C 5.922 -9.7054 6.0997 -9.334 6.3678 -9.0076 C 6.0558 -9.0075 5.7759 -9.1044 5.528 -9.2983 C 5.206 -9.5338 4.9853 -9.8407 4.8658 -10.2188 C 4.8345 -10.5958 4.8022 -10.9727 4.7689 -11.3493 C 4.7288 -11.5427 4.6642 -11.7256 4.5751 -11.8985 C 4.6109 -11.1643 4.6486 -10.4322 4.6882 -9.702 C 4.6713 -9.3531 4.6228 -9.0086 4.5428 -8.6684 C 4.4501 -8.3579 4.3639 -8.0457 4.2844 -7.7317 C 4.2628 -7.5702 4.2628 -7.4088 4.2844 -7.2473 C 4.3148 -7.0957 4.3364 -6.9449 4.349 -6.795 C 3.785 -7.2225 3.462 -7.7932 3.38 -8.5069 C 3.3225 -8.8382 3.2902 -9.172 3.2831 -9.5083 C 3.1713 -9.0064 3.1768 -8.5057 3.2992 -8.0063 C 3.0334 -7.2595 2.9311 -6.4897 2.9924 -5.6968 C 2.9812 -5.4358 2.9489 -5.1774 2.8955 -4.9217 C 2.6761 -5.4418 2.3585 -5.8886 1.9427 -6.2621 C 1.8393 -6.3353 1.7316 -6.3892 1.6197 -6.4236 C 1.8202 -6.2124 2.0085 -5.9917 2.1849 -5.7614 C 2.3898 -2.937 3.4288 -0.4768 5.3018 1.6191 C 4.6539 1.701 4.094 1.5179 3.6223 1.07 C 3.3208 0.747 3.0193 0.424 2.7178 0.101 C 2.4554 -0.1271 2.154 -0.2671 1.8134 -0.3189 C 2.0278 -0.2333 2.2216 -0.1149 2.3949 0.0364 C 2.7717 0.4347 3.1485 0.8332 3.5253 1.2315 C 3.7414 1.4149 3.9783 1.5656 4.2359 1.6837 C 4.6311 2.0899 5.0725 2.4344 5.5602 2.7173 C 4.5082 2.7794 3.6199 2.4295 2.8955 1.6676 C 3.1657 2.1735 3.5802 2.5235 4.1391 2.7173 C 4.3494 2.791 4.5648 2.8449 4.785 2.8788 C 4.9939 3.1942 5.2146 3.5011 5.4472 3.7994 C 6.2339 4.7105 7.1975 4.9744 8.338 4.5907 C 7.9337 5.1695 7.3738 5.4389 6.6584 5.3982 C 7.0424 5.56 7.4193 5.5439 7.7889 5.3498 C 8.7747 5.7538 9.7652 5.77 10.7606 5.3982 C 11.4278 5.0923 11.7239 4.5704 11.6488 3.8316 C 11.3067 2.7899 10.6016 2.1385 9.5331 1.8775 C 8.8373 1.8119 8.1482 1.7043 7.4659 1.5545 C 6.9525 1.4108 6.4895 1.174 6.077 0.8439 C 6.1039 0.8385 6.1309 0.8332 6.1578 0.8278 C 6.8575 1.0064 7.5519 0.9903 8.2412 0.7793 C 8.3955 0.7291 8.5355 0.6537 8.661 0.5532 C 8.479 0.5886 8.2959 0.6316 8.112 0.6824 C 6.639 0.3899 5.5354 -0.4122 4.8012 -1.724 C 4.7276 -1.9123 4.6738 -2.1061 4.6397 -2.3054 C 4.6181 -2.6714 4.6181 -3.0375 4.6397 -3.4035 C 4.7514 -3.9607 4.9452 -4.4883 5.2211 -4.9863 C 5.1915 -4.6311 5.1538 -4.2758 5.108 -3.9203 C 5.1074 -3.2925 5.2851 -2.7219 5.641 -2.2084 C 6.1358 -1.5736 6.7226 -1.0406 7.4014 -0.6096 C 8.4054 -0.1237 9.4282 0.3177 10.4699 0.7147 C 10.9825 0.9438 11.4454 1.2453 11.8588 1.6191 C 11.8803 1.6407 11.9018 1.6407 11.9233 1.6191 C 11.6502 1.2704 11.3272 0.9797 10.9544 0.747 C 10.4239 0.502 9.8855 0.2759 9.3393 0.0687 C 9.0002 -0.3997 8.661 -0.868 8.3219 -1.3363 C 7.8667 -1.8561 7.436 -2.3943 7.0299 -2.9514 C 6.8273 -3.29 6.7088 -3.6561 6.6746 -4.0495 C 6.6836 -4.696 6.7105 -5.342 6.7553 -5.9875 C 6.7943 -6.7361 6.6113 -7.4251 6.2063 -8.0548 C 6.2117 -8.0655 6.217 -8.0763 6.2224 -8.0871 C 6.9556 -7.6016 7.4078 -6.9233 7.579 -6.0522 C 7.5952 -5.9234 7.6005 -5.7942 7.5952 -5.6645 Z" />
  <path class="body" d="M 0.1984 -19.4244 C 0.216 -19.4224 0.2267 -19.4117 0.2308 -19.392 C 0.1653 -19.3213 0.1062 -19.246 0.0531 -19.166 C -0.0463 -18.9349 -0.1539 -18.7088 -0.2699 -18.4877 C -0.2679 -18.8793 -0.1118 -19.1915 0.1984 -19.4244 Z" />
  <path class="body" d="M 1.1351 -19.0367 C 1.1731 -19.0439 1.2054 -19.033 1.2321 -19.0045 C 1.0873 -18.6991 0.9474 -18.3922 0.8121 -18.0839 C 0.9736 -18.0732 1.1351 -18.0623 1.2966 -18.0516 C 1.0067 -17.5616 0.5975 -17.2063 0.0693 -16.9857 C -0.0582 -16.9429 -0.1874 -16.9214 -0.3183 -16.9211 C 0.2547 -17.1264 0.7285 -17.4655 1.1029 -17.9385 C 0.9594 -17.9592 0.8195 -17.9915 0.683 -18.0355 C 0.7815 -18.327 0.8946 -18.6069 1.0221 -18.8752 C 0.5308 -18.4917 0.1325 -18.0287 -0.173 -17.4863 C -0.1669 -17.6609 -0.1131 -17.8224 -0.0115 -17.9709 C 0.2861 -18.4248 0.6683 -18.7801 1.1351 -19.0367 Z" />
  <path class="eye" d="M -1.4811 -17.8416 C -1.4529 -17.8458 -1.4313 -17.8351 -1.4166 -17.8094 C -1.5703 -17.6571 -1.7534 -17.5547 -1.9657 -17.5025 C -2.2025 -17.4918 -2.4394 -17.4809 -2.6762 -17.4702 C -2.9368 -17.4191 -3.1845 -17.3437 -3.4192 -17.2441 C -3.2451 -17.385 -3.0513 -17.4926 -2.8377 -17.5671 C -2.4733 -17.6244 -2.1073 -17.6675 -1.7395 -17.6963 C -1.6384 -17.7241 -1.5522 -17.7725 -1.4811 -17.8416 Z" />
  <path class="white" d="M -1.5781 -17.4541 C -1.5458 -17.4541 -1.5134 -17.4541 -1.4811 -17.4541 C -1.5952 -16.9041 -1.9344 -16.5919 -2.4986 -16.5174 C -2.7528 -16.5522 -2.9519 -16.6707 -3.0961 -16.8727 C -3.089 -16.9191 -3.0729 -16.9621 -3.0477 -17.0019 C -2.696 -17.2877 -2.2923 -17.4115 -1.8365 -17.3733 C -1.7409 -17.3823 -1.6548 -17.4092 -1.5781 -17.4541 Z" />
  <path class="pupil" d="M -1.7395 -17.2279 C -1.7156 -17.2321 -1.6942 -17.2268 -1.675 -17.2118 C -1.9117 -16.8781 -2.2347 -16.7166 -2.644 -16.7273 C -2.7626 -16.7541 -2.8595 -16.8134 -2.9346 -16.9049 C -2.8377 -17.0074 -2.7192 -17.0774 -2.5793 -17.1149 C -2.2942 -17.1462 -2.0143 -17.1839 -1.7395 -17.2279 Z" />
  <path class="eye" d="M -1.3842 -16.9049 C -1.3603 -16.9091 -1.3389 -16.9038 -1.3197 -16.8888 C -1.5335 -16.5138 -1.8565 -16.3093 -2.2887 -16.2751 C -2.6332 -16.2644 -2.9777 -16.2535 -3.3223 -16.2428 C -3.4547 -16.1976 -3.5839 -16.1545 -3.7098 -16.1136 C -3.5719 -16.2418 -3.4104 -16.3279 -3.2254 -16.372 C -2.9024 -16.3827 -2.5793 -16.3936 -2.2564 -16.4043 C -1.8973 -16.4574 -1.6066 -16.6243 -1.3842 -16.9049 Z" />
  <path class="body" d="M -1.4166 -16.1621 C -1.294 -15.7669 -1.3424 -15.39 -1.5619 -15.0316 C -1.6615 -14.8672 -1.7853 -14.7219 -1.9333 -14.5955 C -2.1867 -14.3945 -2.4451 -14.2115 -2.7085 -14.0464 C -2.3685 -14.3434 -2.0509 -14.661 -1.7557 -14.9992 C -1.5218 -15.3509 -1.4088 -15.7385 -1.4166 -16.1621 Z" />
  <path class="teeth" d="M -6.1969 -15.4838 C -5.9813 -15.4891 -5.766 -15.4838 -5.551 -15.4676 C -5.715 -15.172 -5.8066 -14.8544 -5.8255 -14.5148 C -6.0436 -14.7734 -6.189 -15.0695 -6.2615 -15.403 C -6.2436 -15.4356 -6.2221 -15.4626 -6.1969 -15.4838 Z" />
  <path class="langue" d="M -7.9734 -14.9669 C -7.715 -13.8305 -7.0045 -13.3406 -5.8416 -13.4973 C -5.7074 -13.5205 -5.5837 -13.5689 -5.4702 -13.6426 C -5.4243 -13.5194 -5.419 -13.3956 -5.4541 -13.2712 C -5.4474 -13.211 -5.4259 -13.1571 -5.3895 -13.1097 C -5.8376 -12.2739 -6.4944 -11.6602 -7.3598 -11.2686 C -7.7315 -11.0981 -8.1191 -11.0497 -8.5225 -11.1233 C -7.8061 -11.361 -7.2085 -11.7701 -6.7299 -12.3507 C -6.5936 -12.5372 -6.4913 -12.7418 -6.423 -12.9643 C -6.9825 -12.9479 -7.4616 -13.1309 -7.8604 -13.5134 C -8.1944 -13.9803 -8.2321 -14.4648 -7.9734 -14.9669 Z" />
  <path class="langue" d="M -3.1608 -14.87 C -3.1058 -14.8752 -3.0521 -14.8699 -2.9992 -14.8539 C -3.4582 -14.4656 -3.9804 -14.191 -4.5658 -14.0302 C -4.634 -14.066 -4.6932 -14.1145 -4.7435 -14.1756 C -4.5884 -14.3088 -4.4161 -14.4165 -4.2266 -14.4986 C -3.8691 -14.6268 -3.5138 -14.7505 -3.1608 -14.87 Z" />
  <path class="teeth" d="M -5.2279 -14.4825 C -5.1046 -14.2861 -4.9539 -14.1085 -4.7758 -13.9495 C -4.9419 -13.8318 -5.1034 -13.7081 -5.2602 -13.5781 C -5.3068 -13.8823 -5.296 -14.1838 -5.2279 -14.4825 Z" />
  <path class="claw" d="M -10.1376 -14.2887 C -9.8258 -14.297 -9.5728 -14.1785 -9.3785 -13.9333 C -9.153 -13.6013 -9.0452 -13.2352 -9.0555 -12.8351 C -9.2594 -12.9551 -9.4801 -13.0197 -9.7176 -13.029 C -9.5661 -13.5548 -9.7276 -13.9531 -10.2022 -14.2241 C -10.1782 -14.2461 -10.1566 -14.2677 -10.1376 -14.2887 Z" />
  <path class="claw" d="M -12.5278 -13.1258 C -12.1273 -13.1766 -11.7505 -13.1066 -11.3972 -12.9159 C -11.5939 -12.8 -11.7769 -12.6654 -11.9464 -12.5122 C -12.2228 -12.7268 -12.535 -12.7968 -12.8831 -12.7221 C -12.9981 -12.6982 -13.1003 -12.6497 -13.1899 -12.5767 C -13.0639 -12.8692 -12.8432 -13.0523 -12.5278 -13.1258 Z" />
  <path class="body" d="M -9.8145 -12.8028 C -9.5007 -12.8615 -9.2369 -12.7754 -9.0232 -12.5444 C -8.9761 -12.4075 -8.9654 -12.2675 -8.9909 -12.1245 C -9.1168 -11.8297 -9.2244 -11.5282 -9.3139 -11.2202 C -9.4546 -10.6147 -9.2769 -10.1248 -8.781 -9.7505 C -8.3859 -9.4748 -7.966 -9.238 -7.5213 -9.0399 C -7.1283 -8.8731 -6.7192 -8.8085 -6.2939 -8.8461 C -5.4918 -8.9877 -4.6843 -9.0415 -3.8713 -9.0076 C -4.4768 -8.6049 -5.1443 -8.4111 -5.874 -8.4262 C -5.6312 -8.1541 -5.3298 -8.0034 -4.9695 -7.974 C -5.3416 -7.629 -5.783 -7.4297 -6.2939 -7.3765 C -6.1288 -7.1572 -5.9134 -7.0173 -5.6479 -6.9566 C -5.7089 -6.7489 -5.8327 -6.5874 -6.0193 -6.472 C -6.4207 -6.527 -6.8245 -6.5486 -7.2306 -6.5367 C -7.0967 -6.8808 -6.8814 -7.1662 -6.5846 -7.3926 C -6.8152 -7.3142 -7.0143 -7.1796 -7.1821 -6.9888 C -7.2129 -6.9257 -7.256 -6.8718 -7.3113 -6.8274 C -7.4758 -6.4876 -7.6481 -6.1537 -7.8281 -5.826 C -7.9384 -5.694 -8.0676 -5.5864 -8.2157 -5.5031 C -8.0712 -6.0624 -7.9743 -6.6331 -7.925 -7.215 C -7.8557 -7.5528 -7.7373 -7.865 -7.5697 -8.1517 C -7.7571 -7.9921 -7.8971 -7.7983 -7.9896 -7.5702 C -8.0949 -7.2997 -8.1595 -7.0199 -8.1834 -6.7305 C -8.4594 -6.4715 -8.777 -6.2938 -9.1363 -6.1975 C -8.6792 -6.7826 -8.4908 -7.4448 -8.571 -8.1839 C -8.634 -8.3733 -8.7094 -8.5564 -8.7971 -8.7331 C -8.8183 -8.7716 -8.8344 -8.7716 -8.8456 -8.7331 C -8.6945 -8.3227 -8.6569 -7.9028 -8.7325 -7.4733 C -8.9676 -7.1359 -9.2745 -6.8882 -9.653 -6.7305 C -9.6638 -6.7412 -9.6746 -6.752 -9.6853 -6.7628 C -9.3885 -7.2624 -9.2755 -7.8007 -9.3462 -8.3777 C -9.5438 -8.8773 -9.8829 -9.0011 -10.3636 -8.7492 C -10.5491 -8.592 -10.7536 -8.4682 -10.9774 -8.3777 C -11.0914 -8.4003 -11.1722 -8.4649 -11.2196 -8.5716 C -11.3608 -8.8238 -11.4146 -9.093 -11.3811 -9.379 C -11.3649 -9.3952 -11.3488 -9.4113 -11.3327 -9.4275 C -11.13 -9.4055 -10.9255 -9.3893 -10.719 -9.379 C -10.107 -9.3672 -10.0424 -9.5448 -10.5252 -9.912 C -10.599 -9.9386 -10.6745 -9.9601 -10.7512 -9.9766 C -11.0221 -9.9821 -11.2912 -10.0036 -11.5587 -10.0412 C -11.6126 -10.0681 -11.6664 -10.0951 -11.7203 -10.1219 C -11.7418 -10.2511 -11.7633 -10.3803 -11.7849 -10.5096 C -11.8307 -10.2939 -11.9384 -10.1162 -12.1079 -9.9766 C -12.3058 -9.8875 -12.4727 -9.9251 -12.6085 -10.0896 C -12.6301 -10.1542 -12.6301 -10.2188 -12.6085 -10.2834 C -12.4261 -10.6031 -12.3292 -10.9476 -12.3178 -11.317 C -12.3046 -11.3787 -12.2669 -11.411 -12.2047 -11.4139 C -12.0416 -11.37 -11.8908 -11.3 -11.7526 -11.204 C -11.5292 -10.9597 -11.2923 -10.7336 -11.0419 -10.5257 C -10.9593 -10.4732 -10.8732 -10.4409 -10.7835 -10.4288 C -10.9622 -10.5967 -11.1292 -10.7743 -11.2842 -10.9617 C -11.4139 -11.1511 -11.4732 -11.3556 -11.4619 -11.5755 C -11.2489 -11.6323 -11.0874 -11.7561 -10.9774 -11.9469 C -11.0928 -11.8985 -11.2113 -11.8447 -11.3327 -11.7854 C -11.5712 -11.7513 -11.7488 -11.8428 -11.8656 -12.06 C -11.8927 -12.1769 -11.8713 -12.2846 -11.801 -12.383 C -11.6291 -12.5872 -11.4138 -12.7164 -11.155 -12.7706 C -10.888 -12.7189 -10.7265 -12.5574 -10.6705 -12.286 C -10.6461 -11.9475 -10.5923 -11.6137 -10.509 -11.2847 C -10.4075 -11.0068 -10.219 -10.8292 -9.9437 -10.7518 C -10.0366 -10.8248 -10.1012 -10.9163 -10.1376 -11.0264 C -9.96 -11.3706 -9.8631 -11.7366 -9.8468 -12.1245 C -9.7386 -12.1192 -9.631 -12.1246 -9.5239 -12.1407 C -9.7196 -12.2143 -9.8757 -12.3382 -9.9922 -12.5122 C -10.0196 -12.6623 -9.9604 -12.7592 -9.8145 -12.8028 Z" />
  <path class="claw" d="M -12.6893 -11.2847 C -12.6354 -11.2847 -12.5816 -11.2847 -12.5278 -11.2847 C -12.5227 -11.0025 -12.5765 -10.7333 -12.6893 -10.4773 C -12.9737 -10.5856 -13.2429 -10.5587 -13.4968 -10.3965 C -13.6341 -10.2809 -13.7472 -10.1463 -13.8359 -9.9928 C -13.8626 -10.3863 -13.7173 -10.7039 -13.3998 -10.9456 C -13.1728 -11.0861 -12.9359 -11.1992 -12.6893 -11.2847 Z" />
  <path class="body" d="M 13.9582 -10.8325 C 13.9367 -10.6818 13.9152 -10.5311 13.8937 -10.3803 C 13.8831 -10.5433 13.8938 -10.7048 13.926 -10.8649 C 13.9456 -10.8608 13.9563 -10.8501 13.9582 -10.8325 Z" />
  <path class="body" d="M -1.1905 -10.1866 C -0.8895 -10.1645 -0.5881 -10.1537 -0.286 -10.1542 C -0.3878 -10.1328 -0.4954 -10.122 -0.6091 -10.1219 C -0.8101 -10.1199 -1.0039 -10.1414 -1.1905 -10.1866 Z" />
  <path class="claw" d="M -11.6557 -9.0237 C -11.6234 -9.0237 -11.5911 -9.0237 -11.5587 -9.0237 C -11.5207 -8.8184 -11.4614 -8.6246 -11.3811 -8.4424 C -11.7807 -8.1075 -12.2059 -8.0698 -12.657 -8.3293 C -12.8104 -8.4369 -12.8804 -8.5822 -12.8669 -8.7654 C -12.7177 -8.651 -12.5508 -8.6026 -12.3662 -8.62 C -12.0835 -8.6804 -11.8466 -8.815 -11.6557 -9.0237 Z" />
  <path class="claw" d="M -13.3998 -6.569 C -12.9643 -6.5979 -12.5874 -6.4632 -12.2693 -6.1652 C -12.477 -6.1125 -12.6439 -5.9994 -12.77 -5.826 C -12.9743 -6.1348 -13.2597 -6.2478 -13.626 -6.1652 C -13.7103 -6.1445 -13.7857 -6.1069 -13.852 -6.0522 C -13.8634 -6.2069 -13.7988 -6.3307 -13.6583 -6.4236 C -13.566 -6.4687 -13.48 -6.5172 -13.3998 -6.569 Z" />
  <path class="body" d="M 7.5952 -5.6645 C 7.6167 -5.5892 7.6382 -5.5138 7.6597 -5.4384 C 7.644 -5.407 7.6279 -5.3747 7.6113 -5.3416 C 7.5952 -5.4487 7.5898 -5.5563 7.5952 -5.6645 Z" />
  <path class="claw" d="M -13.852 -4.3403 C -13.8077 -4.3453 -13.7646 -4.3399 -13.7229 -4.3241 C -13.8491 -4.095 -13.8814 -3.8528 -13.8197 -3.5974 C -14.314 -3.5877 -14.6478 -3.3508 -14.8211 -2.8867 C -14.9989 -3.4139 -14.8481 -3.8176 -14.3688 -4.098 C -14.1976 -4.1892 -14.0253 -4.2699 -13.852 -4.3403 Z" />
  <path class="claw" d="M -13.3998 -2.3377 C -13.2955 -2.2821 -13.204 -2.2068 -13.1253 -2.1115 C -13.0215 -1.9634 -12.93 -1.8073 -12.8508 -1.6432 C -13.2278 -1.4223 -13.4377 -1.0939 -13.4806 -0.658 C -13.9162 -1.2469 -13.8894 -1.8068 -13.3998 -2.3377 Z" />
  <path class="claw" d="M -11.0743 -1.4656 C -10.9419 -1.4156 -10.8127 -1.3564 -10.6867 -1.2879 C -10.6021 -1.2613 -10.5159 -1.2452 -10.4282 -1.2394 C -10.4654 -0.68 -10.7561 -0.3301 -11.3003 -0.1897 C -11.3649 -0.1681 -11.4295 -0.1681 -11.4942 -0.1897 C -11.1329 -0.5419 -10.9929 -0.9672 -11.0743 -1.4656 Z" />
  <path class="body" d="M -1.8042 1.0538 C -1.0289 1.6361 -0.4206 2.3574 0.0208 3.2179 C 0.0031 3.8694 -0.0722 4.5154 -0.2053 5.156 C -0.5268 3.7008 -1.0597 2.3335 -1.8042 1.0538 Z" />
  <path class="body" d="M -4.1298 3.4117 C -3.6939 3.6511 -3.2309 3.8179 -2.7408 3.9124 C -2.4267 3.9411 -2.1144 3.9304 -1.8042 3.8801 C -1.4984 3.7272 -1.1862 3.5925 -0.8675 3.4763 C -0.6551 4.1189 -0.4721 4.7703 -0.3183 5.4305 C -0.4325 5.664 -0.524 5.9063 -0.5929 6.1572 C -0.6875 6.6492 -0.7575 7.1447 -0.8028 7.6431 C -1.8221 7.4211 -2.7103 7.6689 -3.4676 8.386 C -3.7807 8.8782 -3.8237 9.395 -3.5968 9.9363 C -3.4515 10.27 -3.3061 10.604 -3.1608 10.9376 C -3.4724 10.9754 -3.7846 10.9806 -4.0975 10.9538 C -4.3466 10.6508 -4.5566 10.3223 -4.7273 9.9687 C -4.6753 10.3637 -4.5245 10.719 -4.2751 11.0346 C -4.0357 11.3711 -3.7288 11.624 -3.3545 11.7936 C -3.5546 11.8253 -3.7484 11.8039 -3.936 11.729 C -4.4267 11.4189 -4.9435 11.1605 -5.4863 10.9538 C -5.784 10.5581 -6.1716 10.3104 -6.6492 10.2109 C -6.4597 10.2929 -6.2874 10.4008 -6.1323 10.5339 C -5.7888 10.9099 -5.4335 11.2758 -5.0665 11.6321 C -4.9265 11.729 -4.7865 11.8259 -4.6465 11.9228 C -5.0188 11.9131 -5.3741 11.8272 -5.7125 11.6644 C -5.8847 11.5782 -6.057 11.4922 -6.2293 11.406 C -6.5953 11.1692 -6.9614 10.9322 -7.3275 10.6954 C -7.5813 10.6224 -7.8397 10.6011 -8.1027 10.6308 C -7.7457 10.7032 -7.4119 10.8324 -7.1014 11.0184 C -6.7037 11.3353 -6.3698 11.7067 -6.1 12.1328 C -6.1108 12.1434 -6.1216 12.1544 -6.1323 12.1651 C -6.7163 11.8249 -7.3408 11.5827 -8.0057 11.4383 C -8.2486 11.1092 -8.55 10.8508 -8.9102 10.6631 C -9.011 10.6017 -9.1186 10.5801 -9.2331 10.5985 C -9.0737 10.6828 -8.923 10.7797 -8.781 10.8892 C -8.4785 11.1721 -8.1986 11.4738 -7.9412 11.7936 C -7.7194 11.9638 -7.4826 12.1092 -7.2306 12.2296 C -7.8961 12.2794 -8.5205 12.1395 -9.104 11.8097 C -9.1389 11.782 -9.1443 11.7497 -9.1201 11.7129 C -9.0716 11.6644 -9.0232 11.616 -8.9748 11.5675 C -9.2609 11.6169 -9.4709 11.7729 -9.6046 12.0358 C -9.6652 12.2674 -9.7405 12.4935 -9.8307 12.7142 C -9.9174 12.8572 -10.0412 12.9163 -10.2022 12.8918 C -10.3636 12.6873 -10.5467 12.5042 -10.7512 12.3427 C -10.8905 12.2955 -11.0305 12.2526 -11.1711 12.2135 C -11.2442 11.8747 -11.1366 11.6056 -10.8482 11.406 C -10.52 11.3937 -10.2293 11.2858 -9.976 11.083 C -10.2024 11.1369 -10.4339 11.1744 -10.6705 11.196 C -11.0344 11.144 -11.395 11.0743 -11.7526 10.9861 C -11.9353 10.9699 -12.1183 10.9645 -12.3016 10.9699 C -12.3155 10.8269 -12.3423 10.687 -12.3824 10.55 C -12.3916 10.8262 -12.4939 11.0578 -12.6893 11.2445 C -12.7539 11.2661 -12.8184 11.2661 -12.8831 11.2445 C -13.0136 11.032 -13.1482 10.822 -13.2868 10.6146 C -13.4501 10.4677 -13.5954 10.3062 -13.7229 10.1302 C -13.6525 10.0572 -13.5664 10.0087 -13.4644 9.9848 C -13.1956 9.9215 -12.9264 9.9215 -12.657 9.9848 C -12.0725 10.0827 -11.5234 10.2765 -11.0097 10.5662 C -10.9774 10.5878 -10.9451 10.5878 -10.9127 10.5662 C -11.0988 10.3802 -11.3033 10.2187 -11.5264 10.0817 C -11.7721 9.9906 -12.0198 9.9044 -12.2693 9.8233 C -12.6107 9.6757 -12.8691 9.4389 -13.0446 9.1127 C -12.9454 9.0164 -12.8861 8.9034 -12.8669 8.7736 C -13.0975 9.0026 -13.3505 9.0403 -13.626 8.8866 C -13.3953 8.5707 -13.2392 8.2206 -13.1576 7.8368 C -13.0366 7.6418 -12.8696 7.5933 -12.657 7.6915 C -12.5869 7.7616 -12.517 7.8314 -12.447 7.9014 C -12.1721 8.322 -11.8814 8.7309 -11.5749 9.1288 C -11.3018 9.4076 -10.9842 9.6069 -10.622 9.7264 C -10.8723 9.5623 -11.1037 9.374 -11.3165 9.1611 C -11.28 8.9929 -11.2531 8.8207 -11.2357 8.6444 C -11.2412 8.5797 -11.2465 8.5151 -11.2519 8.4505 C -11.3008 8.31 -11.3492 8.1699 -11.3972 8.0306 C -11.349 7.8262 -11.2198 7.7025 -11.0097 7.6592 C -10.6248 7.5368 -10.3611 7.6605 -10.2183 8.0306 C -10.1717 8.4176 -10.1287 8.8052 -10.0891 9.1934 C -9.7634 10.0778 -9.1765 10.2988 -8.3288 9.8556 C -7.9755 9.6421 -7.6309 9.416 -7.2952 9.1773 C -7.0645 9.0323 -6.8169 8.946 -6.5523 8.9189 C -6.4313 9.0145 -6.3075 9.1059 -6.1808 9.1934 C -6.1754 9.1828 -6.1701 9.1718 -6.1646 9.1611 C -6.6168 8.6014 -6.9128 7.966 -7.0529 7.2554 C -7.1074 6.9302 -7.059 6.6233 -6.9076 6.3349 C -6.4816 6.2648 -6.0617 6.1679 -5.6479 6.0442 C -5.4863 6.0335 -5.3248 6.0226 -5.1633 6.0119 C -5.4629 5.9618 -5.7643 5.9509 -6.0678 5.9796 C -6.3555 6.0526 -6.6462 6.112 -6.9398 6.1572 C -7.1568 6.1411 -7.3722 6.114 -7.5859 6.0765 C -7.3333 6.0103 -7.0856 5.924 -6.843 5.8181 C -6.4675 5.4903 -6.0583 5.2102 -5.6156 4.9783 C -5.5019 4.9224 -5.3835 4.9008 -5.2602 4.9137 C -4.6595 5.5481 -3.9274 5.8175 -3.0639 5.7212 C -3.9416 5.6404 -4.6791 5.2797 -5.2764 4.6392 C -5.3517 4.5206 -5.4272 4.4024 -5.5025 4.2838 C -5.562 4.1703 -5.5943 4.0519 -5.5994 3.9285 C -5.3581 4.1272 -5.0836 4.2618 -4.7758 4.3323 C -4.4221 4.3714 -4.0668 4.393 -3.7098 4.3969 C -3.502 4.5762 -3.2651 4.7054 -2.9992 4.7845 C -2.646 4.843 -2.2907 4.8859 -1.9333 4.9137 C -1.6853 4.9844 -1.4484 5.0707 -1.2227 5.1721 C -1.6725 4.8068 -2.1893 4.6346 -2.7732 4.6553 C -3.48 4.5135 -3.9322 4.099 -4.1298 3.4117 Z" />
  <path class="claw" d="M -12.0755 6.2865 C -11.3266 6.3433 -10.8421 6.7309 -10.622 7.4492 C -10.741 7.4438 -10.8594 7.4492 -10.9774 7.4654 C -11.091 7.5193 -11.2095 7.5571 -11.3327 7.5785 C -11.3433 7.0671 -11.6017 6.7709 -12.1079 6.6902 C -12.2424 6.664 -12.3716 6.6802 -12.4954 6.7386 C -12.5009 6.6153 -12.4471 6.5129 -12.334 6.4318 C -12.25 6.3737 -12.1639 6.3252 -12.0755 6.2865 Z" />
  <path class="claw" d="M -13.7229 7.7722 C -13.6146 7.7668 -13.507 7.7722 -13.3998 7.7884 C -13.3792 8.0759 -13.4653 8.3288 -13.6583 8.5474 C -14.1313 8.3139 -14.5081 8.4215 -14.7888 8.8704 C -14.8537 8.6356 -14.816 8.4205 -14.6757 8.2244 C -14.3911 7.9987 -14.0735 7.8478 -13.7229 7.7722 Z" />
  <path class="claw" d="M -13.7874 10.4209 C -13.5318 10.5853 -13.338 10.8059 -13.206 11.083 C -13.5871 11.1625 -13.8186 11.394 -13.9005 11.7774 C -13.9113 11.9645 -13.9167 12.1476 -13.9166 12.3265 C -14.3714 12.0659 -14.4952 11.6889 -14.2881 11.196 C -14.1386 10.9234 -13.9717 10.665 -13.7874 10.4209 Z" />
  <path class="claw" d="M -11.0419 12.4558 C -10.7956 12.5078 -10.6125 12.6476 -10.4928 12.8757 C -10.9061 13.4041 -11.4229 13.5494 -12.0432 13.3117 C -11.4929 13.2723 -11.159 12.9871 -11.0419 12.4558 Z" />
  <path class="claw" d="M -3.516 15.0397 C -3.1753 14.9991 -2.8577 15.0637 -2.5632 15.2336 C -2.5416 15.2552 -2.5416 15.2765 -2.5632 15.2981 C -2.7421 15.4609 -2.8767 15.6547 -2.9669 15.8796 C -3.3213 15.533 -3.7304 15.4471 -4.1944 15.6212 C -4.2051 15.6105 -4.2159 15.5995 -4.2266 15.5889 C -4.0589 15.3117 -3.8221 15.1286 -3.516 15.0397 Z" />
  <path class="claw" d="M -4.3235 17.3976 C -4.2334 17.396 -4.1742 17.4393 -4.1459 17.5269 C -4.0266 17.7026 -3.9674 17.8964 -3.9682 18.1082 C -4.2575 18.1318 -4.4889 18.261 -4.6627 18.4958 C -4.7842 18.6961 -4.8703 18.9112 -4.9211 19.1419 C -5.177 18.6829 -5.1447 18.2413 -4.8242 17.8176 C -4.6795 17.6454 -4.5126 17.5055 -4.3235 17.3976 Z" />
  <path class="claw" d="M 0.6183 19.2388 C 0.8173 19.2236 1.0111 19.2452 1.1998 19.3034 C 1.3384 19.7543 1.2199 20.1257 0.8444 20.4177 C 0.6934 20.5075 0.5319 20.5508 0.36 20.5469 C 0.6487 20.2811 0.7509 19.9526 0.6668 19.5617 C 0.6513 19.461 0.6137 19.3692 0.5538 19.2872 C 0.5833 19.2782 0.6049 19.262 0.6183 19.2388 Z" />
  <path class="claw" d="M -2.7408 19.6587 C -2.4861 19.6293 -2.2492 19.6777 -2.0302 19.804 C -2.2486 20.3373 -2.141 20.8001 -1.7073 21.1929 C -2.0641 21.2139 -2.3709 21.1008 -2.6278 20.8537 C -2.826 20.4926 -2.9068 20.105 -2.87 19.691 C -2.8184 19.6997 -2.7753 19.6887 -2.7408 19.6587 Z" />
</svg>
