<?xml version="1.0" encoding="UTF-8" standalone="no"?>
<svg xmlns="http://www.w3.org/2000/svg" version="1.0">
  <path d="m -0.4455 -11.2249 l 0.4617 0.8257 a 15.6731 15.6731 90 0 0 2.1005 -7.4195 a 21.7392 21.7392 90 0 1 -2.5622 6.5938 z" />
  <path d="m -2.7253 -6.7707 l 0.4441 -0.5684 a 7.6537 7.6537 90 0 1 -1.0351 -3.3515 a 6.7836 6.7836 90 0 0 0.591 3.9198 z" />
  <path d="m 3.1101 -7.6263 a 21.7392 21.7392 90 0 1 -5.2262 -10.1926 a 15.6731 15.6731 90 0 0 4.6227 10.6933 c 0.0829 0.0989 0.157 0.2052 0.2208 0.3174 z" />
  <path d="m -0.8558 -4.3715 l 0.7567 0.6048 c 2.4689 -1.3719 3.8294 -4.1299 3.4154 -6.9238 a 7.6537 7.6537 90 0 1 -3.1055 5.6465 a 7.4868 7.4868 90 0 0 -1.0666 0.6725 z" />
  <path d="m 0 0 a 2.2398 2.2398 90 0 1 -0.3538 -3.6325 c 0.0858 -0.0431 0.1708 -0.0878 0.2547 -0.1344 l -0.7567 -0.6048 a 7.4868 7.4868 90 0 0 -0.9096 0.8107 a 2.1777 2.1777 90 0 1 -1.1294 -1.4832 a 2.155 2.155 90 0 1 0.3878 -2.0817 a 15.6732 15.6732 90 0 0 2.5233 -3.2737 l -0.4617 -0.8257 a 21.7392 21.7392 90 0 1 -2.7668 3.7116 a 1.2262 1.2262 90 0 0 -0.6011 0.7403 a 6.4873 6.4873 90 0 1 -1.3049 -2.0465 a 2.7096 2.7096 90 0 1 0.9173 -3.3176 a 2.2487 2.2487 90 0 0 -1.7994 1.5886 a 6.0803 6.0803 90 0 1 -0.9537 -2.1884 c -0.1152 -0.7963 -0.0302 -1.6088 0.2472 -2.364 a 4.125 4.125 90 0 0 0.2822 -1.7993 a 1.4338 1.4338 90 0 0 1.0591 -0.7767 a 5.6786 5.6786 90 0 1 0.9876 -1.3414 a 5.0918 5.0918 90 0 0 -1.4116 1.0941 a 0.6561 0.6561 90 0 1 -0.635 0.2472 a 2.6574 2.6574 90 0 1 -0.6348 -2.4706 a 2.8715 2.8715 90 0 0 0.0351 2.8231 a 3.0931 3.0931 90 0 1 -0.1771 1.8359 a 1.5765 1.5765 90 0 0 -0.3525 1.3401 a 11.0176 11.0176 90 0 1 -3.6701 -4.2349 a 9.0409 9.0409 90 0 0 3.1757 4.7996 a 13.8125 13.8125 90 0 0 0.9186 3.0354 a 1.8281 1.8281 90 0 0 -2.2586 -0.1771 a 3.9257 3.9257 90 0 1 2.8935 1.5888 l 3.4582 6.7758 a 0.8565 0.8565 90 0 1 0.1417 0.7766 a 0.608 0.608 90 0 1 -0.9184 0 l -3.3163 -2.118 a 7.2999 7.2999 90 0 1 -0.2824 -4.1998 a 4.4486 4.4486 90 0 0 -0.6713 3.5649 a 9.0475 9.0475 90 0 1 -2.5057 -2.9638 a 6.4138 6.4138 90 0 0 -1.2698 -5.2237 a 1.9614 1.9614 90 0 1 0.212 -2.1168 a 1.39 1.39 90 0 0 -0.847 1.8346 a 2.2851 2.2851 90 0 1 -1.7654 -1.7643 a 23.5132 23.5132 90 0 1 -0.5998 -2.576 a 6.2755 6.2755 90 0 0 0.0351 2.6463 a 1.7283 1.7283 90 0 0 -1.9763 -0.8469 a 2.9664 2.9664 90 0 1 1.9411 1.5885 a 3.9479 3.9479 90 0 0 2.3652 1.694 a 4.1692 4.1692 90 0 1 0.5999 4.4456 a 2.3211 2.3211 90 0 1 -1.1646 -2.3641 a 1.8753 1.8753 90 0 0 0.1405 2.0817 c -2.0458 -0.4552 -3.4355 -2.3585 -3.246 -4.4457 a 3.1746 3.1746 90 0 0 -0.1067 2.6463 a 1.943 1.943 90 0 0 -1.6224 0.0703 a 2.878 2.878 90 0 1 1.7643 0.4242 a 4.8144 4.8144 90 0 0 3.5636 2.399 a 2.4543 2.4543 90 0 1 1.5533 0.8821 a 8.9601 8.9601 90 0 0 3.8108 3.8471 l 4.836 3.5297 a 2.1724 2.1724 90 0 1 0.4931 1.694 a 14.5637 14.5637 90 0 0 -5.9288 -2.0478 a 2.5402 2.5402 90 0 1 -1.1645 -1.6224 a 2.7822 2.7822 90 0 0 -1.7641 -1.5183 a 3.0465 3.0465 90 0 1 -1.517 -2.5057 c -0.4 1.139 0.1358 2.395 1.2347 2.8947 a 3.2193 3.2193 90 0 1 1.7643 2.3992 c -4.1278 -0.2195 -7.3411 -3.6668 -7.2703 -7.7996 a 2.175 2.175 90 0 0 -0.4228 1.8006 a 2.1879 2.1879 90 0 0 -2.4706 -0.7767 a 3.3422 3.3422 90 0 1 2.5409 1.4818 a 6.9906 6.9906 90 0 0 1.3414 2.8948 a 1.6217 1.6217 90 0 0 -1.517 0.4932 a 5.6732 5.6732 90 0 1 2.1519 0.1418 a 7.3837 7.3837 90 0 0 4.4469 2.399 c -3.222 1.4014 -6.9794 0.0776 -8.6115 -3.0341 a 2.737 2.737 90 0 0 0.9888 2.2224 a 1.8668 1.8668 90 0 0 -1.6943 0.8114 a 2.3511 2.3511 90 0 1 2.4706 0.0351 a 6.9885 6.9885 90 0 0 6.9163 1.1657 a 8.945 8.945 90 0 1 8.1524 2.6816 a 15.9972 15.9972 90 0 0 -7.4108 -0.1405 a 2.807 2.807 90 0 1 -2.1181 -1.6237 a 2.1853 2.1853 90 0 0 0.8119 1.906 c -1.0583 1.1444 -2.7878 1.2537 -3.9525 0.246 a 2.0226 2.0226 90 0 0 -2.1168 -0.4228 a 1.9424 1.9424 90 0 1 -1.6237 -1.7292 a 1.459 1.459 90 0 0 1.0591 2.0465 a 1.4116 1.4116 90 0 0 -1.4116 1.2711 a 3.263 3.263 90 0 1 3.3163 -0.6362 c 1.5379 1.4509 3.9309 1.482 5.506 0.0716 a 7.7904 7.7904 90 0 1 2.8584 -0.4241 a 3.1824 3.1824 90 0 1 -2.2586 1.9763 a 3.7037 3.7037 90 0 0 3.7054 -2.1168 a 4.488 4.488 90 0 1 3.8822 2.4693 v 7.8453 c -0.0225 1 -0.0225 3 -1.0225 5 l 6 -1 c -1 -2 -1 -4 -1 -5 v -6.8472 a 4.4313 4.4313 90 0 1 3.8471 -2.4168 a 3.708 3.708 90 0 0 3.7405 2.0641 a 3.1684 3.1684 90 0 1 -2.2411 -1.9763 a 7.7435 7.7435 90 0 1 2.8408 0.4241 a 3.7276 3.7276 90 0 0 5.506 -0.0716 a 3.263 3.263 90 0 1 3.3163 0.6362 a 1.4116 1.4116 90 0 0 -1.4116 -1.2711 a 1.459 1.459 90 0 0 1.0591 -2.0465 a 1.9424 1.9424 90 0 1 -1.6237 1.7292 a 2.0164 2.0164 90 0 0 -2.1168 0.3876 c -1.1409 1.0322 -2.8979 0.9619 -3.9525 -0.1581 a 2.2368 2.2368 90 0 0 0.8119 -1.9587 a 2.807 2.807 90 0 1 -2.1182 1.6237 a 15.9972 15.9972 90 0 0 -7.4107 0.1405 a 8.8868 8.8868 90 0 1 8.0821 -2.7179 a 7.0521 7.0521 90 0 0 6.9866 -1.1294 a 2.3511 2.3511 90 0 1 2.4706 -0.0351 a 1.8668 1.8668 90 0 0 -1.694 -0.8117 a 2.737 2.737 90 0 0 0.9888 -2.2235 c -1.6315 3.112 -5.3892 4.4365 -8.6115 3.0352 a 7.3837 7.3837 90 0 0 4.4469 -2.399 a 5.6732 5.6732 90 0 1 2.1519 -0.1418 a 1.6217 1.6217 90 0 0 -1.517 -0.4944 a 6.9906 6.9906 90 0 0 1.3414 -2.8935 a 3.3422 3.3422 90 0 1 2.5409 -1.4819 a 2.1879 2.1879 90 0 0 -2.4706 0.7767 c 0.1339 -0.6333 -0.021 -1.2931 -0.4228 -1.8006 c 0.0707 4.1328 -3.1427 7.5802 -7.2703 7.7996 a 3.2193 3.2193 90 0 1 1.7643 -2.399 c 1.099 -0.4997 1.6347 -1.7558 1.2347 -2.8948 a 3.0465 3.0465 90 0 1 -1.517 2.5057 a 2.7822 2.7822 90 0 0 -1.7641 1.5183 a 2.5402 2.5402 90 0 1 -1.1645 1.6224 a 14.5637 14.5637 90 0 0 -5.9288 2.0477 c -0.0827 -0.609 0.0965 -1.2244 0.4931 -1.6939 l 4.836 -3.5297 a 8.9601 8.9601 90 0 0 3.8108 -3.8471 a 2.4543 2.4543 90 0 1 1.5533 -0.8821 a 4.8144 4.8144 90 0 0 3.5636 -2.399 a 2.8781 2.8781 90 0 1 1.7643 -0.4242 a 1.943 1.943 90 0 0 -1.6224 -0.0703 a 3.1746 3.1746 90 0 0 -0.1066 -2.6463 c 0.1894 2.0873 -1.2004 3.9905 -3.2462 4.4457 a 1.8753 1.8753 90 0 0 0.1405 -2.0817 a 2.3211 2.3211 90 0 1 -1.1645 2.3639 a 4.1692 4.1692 90 0 1 0.5999 -4.4456 a 3.9479 3.9479 90 0 0 2.3652 -1.694 a 2.9664 2.9664 90 0 1 1.9411 -1.5885 a 1.7283 1.7283 90 0 0 -1.9763 0.8469 a 6.2755 6.2755 90 0 0 0.0351 -2.6463 a 23.5129 23.5129 90 0 1 -0.5998 2.5762 a 2.2851 2.2851 90 0 1 -1.7654 1.764 a 1.39 1.39 90 0 0 -0.847 -1.8344 a 1.9614 1.9614 90 0 1 0.2121 2.1168 a 6.4138 6.4138 90 0 0 -1.2699 5.2237 a 9.0475 9.0475 90 0 1 -2.5057 2.9638 a 4.4486 4.4486 90 0 0 -0.6713 -3.5649 a 7.2999 7.2999 90 0 1 -0.2822 4.1998 l -3.3165 2.118 a 0.608 0.608 90 0 1 -0.9184 0 a 0.8565 0.8565 90 0 1 0.1417 -0.7766 l 3.4582 -6.7758 a 3.9257 3.9257 90 0 1 2.8935 -1.5886 a 1.8281 1.8281 90 0 0 -2.2586 0.177 a 13.8125 13.8125 90 0 0 0.9182 -3.0351 a 9.0409 9.0409 90 0 0 3.1758 -4.7995 a 11.0176 11.0176 90 0 1 -3.6701 4.2349 a 1.5765 1.5765 90 0 0 -0.3527 -1.3401 a 3.0931 3.0931 90 0 1 -0.177 -1.8359 a 2.8715 2.8715 90 0 0 0.0351 -2.8231 a 2.6574 2.6574 90 0 1 -0.6349 2.4706 a 0.6561 0.6561 90 0 1 -0.6349 -0.2472 a 5.0918 5.0918 90 0 0 -1.4116 -1.0941 a 5.6785 5.6785 90 0 1 0.9876 1.3414 a 1.4338 1.4338 90 0 0 1.059 0.7754 a 4.125 4.125 90 0 0 0.2822 1.8006 a 4.8459 4.8459 90 0 1 0.2474 2.364 a 6.0803 6.0803 90 0 1 -0.9537 2.1884 a 2.2487 2.2487 90 0 0 -1.7993 -1.5886 a 2.7096 2.7096 90 0 1 0.9173 3.3178 a 6.4873 6.4873 90 0 1 -1.3051 2.0464 a 1.2262 1.2262 90 0 0 -0.6011 -0.7402 c -0.0344 -0.0376 -0.0687 -0.0753 -0.1028 -0.113 l -0.3816 0.8181 a 2.155 2.155 90 0 1 0.167 1.7654 a 2.1777 2.1777 90 0 1 -1.1294 1.4819 a 7.4866 7.4866 90 0 0 -1.9763 -1.4818 a 7.6537 7.6537 90 0 1 -2.0704 -2.2964 l -0.4441 0.5685 a 6.7836 6.7836 90 0 0 3.0792 3.1382 a 2.2398 2.2398 90 0 1 -0.3538 3.6325 z" />
</svg>
