<?xml version="1.0" encoding="UTF-8" standalone="no"?>
<svg xmlns="http://www.w3.org/2000/svg" version="1.0">
  <path d="m 0 0 a 15.554 15.554 0 0 1 -2.457 -25.226 c 0.596 -0.299 1.186 -0.61 1.769 -0.933 l -5.255 -4.2 a 51.992 51.992 0 0 0 -6.317 5.63 a 15.123 15.123 0 0 1 -7.843 -10.3 a 14.965 14.965 0 0 1 2.693 -14.456 a 108.842 108.842 0 0 0 17.523 -22.734 l -3.206 -5.734 a 150.967 150.967 0 0 1 -19.214 25.775 a 8.515 8.515 0 0 0 -4.174 5.141 a 45.051 45.051 0 0 1 -9.062 -14.212 a 18.817 18.817 0 0 1 6.37 -23.039 a 15.616 15.616 0 0 0 -12.496 11.032 a 42.224 42.224 0 0 1 -6.623 -15.197 c -0.8 -5.53 -0.21 -11.172 1.717 -16.417 a 28.646 28.646 0 0 0 1.96 -12.495 a 9.957 9.957 0 0 0 7.355 -5.394 a 39.435 39.435 0 0 1 6.858 -9.315 a 35.36 35.36 0 0 0 -9.803 7.598 a 4.556 4.556 0 0 1 -4.41 1.717 a 18.454 18.454 0 0 1 -4.408 -17.157 a 19.941 19.941 0 0 0 0.244 19.605 a 21.48 21.48 0 0 1 -1.23 12.749 a 10.948 10.948 0 0 0 -2.448 9.306 a 76.511 76.511 0 0 1 -25.487 -29.409 a 62.784 62.784 0 0 0 22.054 33.33 a 95.92 95.92 0 0 0 6.379 21.079 a 12.695 12.695 0 0 0 -15.685 -1.23 a 27.262 27.262 0 0 1 20.094 11.033 l 24.015 47.054 a 5.948 5.948 0 0 1 0.984 5.393 a 4.222 4.222 0 0 1 -6.378 0 l -23.03 -14.708 a 50.694 50.694 0 0 1 -1.961 -29.165 a 30.893 30.893 0 0 0 -4.662 24.756 a 62.83 62.83 0 0 1 -17.401 -20.582 a 44.54 44.54 0 0 0 -8.818 -36.276 a 13.621 13.621 0 0 1 1.472 -14.7 a 9.653 9.653 0 0 0 -5.882 12.74 a 15.869 15.869 0 0 1 -12.26 -12.252 a 163.286 163.286 0 0 1 -4.165 -17.889 a 43.58 43.58 0 0 0 0.244 18.377 a 12.002 12.002 0 0 0 -13.724 -5.881 a 20.6 20.6 0 0 1 13.48 11.031 a 27.416 27.416 0 0 0 16.425 11.764 a 28.953 28.953 0 0 1 4.166 30.872 a 16.119 16.119 0 0 1 -8.087 -16.416 a 13.023 13.023 0 0 0 0.976 14.456 c -14.207 -3.161 -23.858 -16.378 -22.542 -30.873 a 22.046 22.046 0 0 0 -0.741 18.377 a 13.493 13.493 0 0 0 -11.267 0.488 a 19.986 19.986 0 0 1 12.252 2.946 a 33.433 33.433 0 0 0 24.747 16.66 a 17.044 17.044 0 0 1 10.787 6.126 a 62.223 62.223 0 0 0 26.464 26.716 l 33.583 24.512 a 15.086 15.086 0 0 1 3.424 11.764 a 101.137 101.137 0 0 0 -41.172 -14.221 a 17.64 17.64 0 0 1 -8.087 -11.267 a 19.321 19.321 0 0 0 -12.251 -10.544 a 21.156 21.156 0 0 1 -10.535 -17.401 c -2.778 7.91 0.943 16.632 8.574 20.102 a 22.356 22.356 0 0 1 12.252 16.661 c -28.665 -1.524 -50.98 -25.464 -50.488 -54.164 a 15.104 15.104 0 0 0 -2.936 12.504 a 15.194 15.194 0 0 0 -17.157 -5.394 a 23.21 23.21 0 0 1 17.645 10.29 a 48.546 48.546 0 0 0 9.315 20.103 a 11.262 11.262 0 0 0 -10.535 3.425 a 39.397 39.397 0 0 1 14.944 0.985 a 51.276 51.276 0 0 0 30.881 16.66 c -22.375 9.732 -48.468 0.539 -59.802 -21.07 a 19.007 19.007 0 0 0 6.867 15.433 a 12.964 12.964 0 0 0 -11.764 5.636 a 16.327 16.327 0 0 1 17.157 0.244 a 48.531 48.531 0 0 0 48.03 8.095 a 62.118 62.118 0 0 1 56.614 18.622 a 111.092 111.092 0 0 0 -51.464 -0.976 a 19.493 19.493 0 0 1 -14.709 -11.276 a 15.176 15.176 0 0 0 5.638 13.236 c -7.158 7.947 -19.36 8.706 -27.448 1.708 a 14.046 14.046 0 0 0 -14.7 -2.936 a 13.489 13.489 0 0 1 -11.276 -12.008 a 10.132 10.132 0 0 0 7.355 14.212 a 9.803 9.803 0 0 0 -9.803 8.827 a 22.66 22.66 0 0 1 23.03 -4.418 c 10.68 10.076 27.298 10.292 38.236 0.497 a 54.1 54.1 0 0 1 19.85 -2.945 a 22.1 22.1 0 0 1 -15.685 13.724 a 25.72 25.72 0 0 0 25.732 -14.7 a 31.167 31.167 0 0 1 26.96 17.148 v 47.551 a 29.674 29.674 0 0 1 -28.92 20.826 a 25.058 25.058 0 0 0 -20.095 17.157 a 33.712 33.712 0 0 1 19.118 -10.046 a 38.569 38.569 0 0 0 23.527 -7.11 a 11.782 11.782 0 0 1 -12.748 11.03 a 13.583 13.583 0 0 0 -11.275 6.37 a 44.437 44.437 0 0 1 15.937 -1.472 a 11.981 11.981 0 0 0 14.212 -8.087 a 65.029 65.029 0 0 1 6.614 -10.046 a 11.968 11.968 0 0 1 3.433 9.559 a 8.573 8.573 0 0 0 3.45 9.489 v 0.557 c 0.154 -0.088 0.305 -0.181 0.454 -0.278 c 0.165 0.098 0.334 0.191 0.505 0.278 v -0.636 a 9.423 9.423 0 0 0 3.45 -9.898 a 11.6 11.6 0 0 1 3.19 -9.315 a 66.866 66.866 0 0 1 6.858 10.29 a 11.981 11.981 0 0 0 14.212 8.087 a 44.437 44.437 0 0 1 15.937 1.472 a 13.583 13.583 0 0 0 -11.275 -6.37 a 11.782 11.782 0 0 1 -12.748 -11.03 a 38.569 38.569 0 0 0 23.527 7.11 a 33.712 33.712 0 0 1 19.118 10.046 a 25.058 25.058 0 0 0 -20.094 -17.157 a 29.674 29.674 0 0 1 -28.921 -20.826 v -47.55 a 30.773 30.773 0 0 1 26.716 -16.783 a 25.75 25.75 0 0 0 25.976 14.334 a 22.003 22.003 0 0 1 -15.563 -13.724 a 53.774 53.774 0 0 1 19.728 2.945 a 25.886 25.886 0 0 0 38.236 -0.497 a 22.66 22.66 0 0 1 23.03 4.418 a 9.803 9.803 0 0 0 -9.803 -8.827 a 10.132 10.132 0 0 0 7.355 -14.212 a 13.489 13.489 0 0 1 -11.276 12.008 a 14.003 14.003 0 0 0 -14.7 2.692 c -7.923 7.168 -20.124 6.68 -27.448 -1.098 a 15.533 15.533 0 0 0 5.638 -13.602 a 19.493 19.493 0 0 1 -14.71 11.276 a 111.092 111.092 0 0 0 -51.463 0.976 a 61.714 61.714 0 0 1 56.126 -18.874 a 48.973 48.973 0 0 0 48.518 -7.843 a 16.327 16.327 0 0 1 17.157 -0.244 a 12.964 12.964 0 0 0 -11.764 -5.637 a 19.007 19.007 0 0 0 6.867 -15.441 c -11.33 21.611 -37.425 30.809 -59.802 21.078 a 51.276 51.276 0 0 0 30.881 -16.66 a 39.397 39.397 0 0 1 14.944 -0.985 a 11.262 11.262 0 0 0 -10.535 -3.433 a 48.546 48.546 0 0 0 9.315 -20.094 a 23.21 23.21 0 0 1 17.645 -10.291 a 15.194 15.194 0 0 0 -17.157 5.394 c 0.93 -4.398 -0.146 -8.98 -2.936 -12.504 c 0.491 28.7 -21.824 52.64 -50.488 54.164 a 22.356 22.356 0 0 1 12.252 -16.66 c 7.632 -3.47 11.352 -12.193 8.574 -20.103 a 21.156 21.156 0 0 1 -10.535 17.401 a 19.321 19.321 0 0 0 -12.251 10.544 a 17.64 17.64 0 0 1 -8.087 11.267 a 101.137 101.137 0 0 0 -41.172 14.22 c -0.574 -4.229 0.67 -8.503 3.424 -11.763 l 33.583 -24.512 a 62.223 62.223 0 0 0 26.464 -26.716 a 17.044 17.044 0 0 1 10.787 -6.126 a 33.433 33.433 0 0 0 24.747 -16.66 a 19.987 19.987 0 0 1 12.252 -2.946 a 13.493 13.493 0 0 0 -11.267 -0.488 a 22.046 22.046 0 0 0 -0.74 -18.377 c 1.315 14.495 -8.336 27.712 -22.543 30.873 a 13.023 13.023 0 0 0 0.976 -14.456 a 16.119 16.119 0 0 1 -8.087 16.416 a 28.953 28.953 0 0 1 4.166 -30.872 a 27.416 27.416 0 0 0 16.425 -11.764 a 20.6 20.6 0 0 1 13.48 -11.031 a 12.002 12.002 0 0 0 -13.724 5.881 a 43.58 43.58 0 0 0 0.244 -18.377 a 163.284 163.284 0 0 1 -4.165 17.89 a 15.869 15.869 0 0 1 -12.26 12.25 a 9.653 9.653 0 0 0 -5.882 -12.739 a 13.621 13.621 0 0 1 1.473 14.7 a 44.54 44.54 0 0 0 -8.819 36.276 a 62.83 62.83 0 0 1 -17.401 20.582 a 30.893 30.893 0 0 0 -4.662 -24.756 a 50.694 50.694 0 0 1 -1.96 29.165 l -23.031 14.708 a 4.222 4.222 0 0 1 -6.378 0 a 5.948 5.948 0 0 1 0.984 -5.393 l 24.015 -47.054 a 27.262 27.262 0 0 1 20.094 -11.032 a 12.695 12.695 0 0 0 -15.685 1.229 a 95.92 95.92 0 0 0 6.379 -21.078 a 62.784 62.784 0 0 0 22.054 -33.33 a 76.511 76.511 0 0 1 -25.487 29.409 a 10.948 10.948 0 0 0 -2.449 -9.306 a 21.48 21.48 0 0 1 -1.229 -12.749 a 19.941 19.941 0 0 0 0.244 -19.605 a 18.454 18.454 0 0 1 -4.409 17.157 a 4.556 4.556 0 0 1 -4.409 -1.717 a 35.36 35.36 0 0 0 -9.803 -7.598 a 39.434 39.434 0 0 1 6.858 9.315 a 9.957 9.957 0 0 0 7.354 5.385 a 28.646 28.646 0 0 0 1.96 12.504 a 33.652 33.652 0 0 1 1.718 16.417 a 42.224 42.224 0 0 1 -6.623 15.197 a 15.616 15.616 0 0 0 -12.495 -11.032 a 18.817 18.817 0 0 1 6.37 23.04 a 45.051 45.051 0 0 1 -9.063 14.211 a 8.515 8.515 0 0 0 -4.174 -5.14 c -0.239 -0.261 -0.477 -0.523 -0.714 -0.785 l -2.65 5.681 a 14.965 14.965 0 0 1 1.16 12.26 a 15.123 15.123 0 0 1 -7.843 10.291 a 51.99 51.99 0 0 0 -13.724 -10.29 a 53.151 53.151 0 0 1 -14.378 -15.947 l -3.084 3.948 a 47.108 47.108 0 0 0 21.383 21.793 a 15.554 15.554 0 0 1 -2.457 25.226 z" />
</svg>
