<svg xmlns="http://www.w3.org/2000/svg" xmlns:xlink="http://www.w3.org/1999/xlink" viewBox="0 0 27 41">
	<path
		d="m 2.452 40.784 c 0.375 -0.455 0.801 -0.948 0.845 -1.749 v -5.859 c 0 -2.551 -0.861 -2.984 -1.7 -3.766 c -1.389 -1.291 -1.18 -3.121 -1.103 -5.484 c 0.213 -6.552 0.46 -10.499 0.485 -16.62 c 0.003 -0.78 0.636 -1.417 1.417 -1.417 s 1.417 0.637 1.417 1.417 l 0.486 9.934 l 0.644 -0.016 c 0.102 -4.537 0.31 -9.115 0.31 -13.65 c 0 -0.779 0.636 -1.416 1.417 -1.416 c 0.779 0 1.415 0.637 1.415 1.416 c 0 0.013 0 0.028 0.005 0.041 l 0.195 13.622 h 0.656 c 0.184 -5.14 0.551 -10.394 0.551 -15.528 c 0 -0.78 0.637 -1.416 1.415 -1.416 c 0.781 0 1.418 0.636 1.418 1.416 v 0.018 l 0.305 15.51 h 0.859 c 0.049 -4.579 0.101 -9.158 0.151 -13.737 c 0.032 -0.75 0.662 -1.342 1.414 -1.342 c 0.764 0 1.401 0.614 1.417 1.383 l 0.7 18.266 c -0.006 0.338 0.296 0.59 0.633 0.59 c 0.192 0 0.628 -0.137 0.967 -0.656 l 3.202 -4.638 c 1.212 -1.702 2.829 -2.038 4.725 -1.321 c -1.175 2.209 -3.6 7.656 -6.06 10.716 c -1.297 2.028 -5.648 4.062 -5.648 6.672 v 5.342 c 0 1.099 1.084 2.341 1.036 2.274 l -13.574 -0.002 l 0 0 z" />
</svg>
