<svg xmlns="http://www.w3.org/2000/svg" xmlns:xlink="http://www.w3.org/1999/xlink" viewBox="0 0 17 25">
  <path class="head" d="m 10.29 3.54 a 1.73 1.73 0 1 1 1.71 -1.74 a 1.73 1.73 0 0 1 -1.73 1.73" />
  <path class="body" d="m 3 12 c 0.54 -1.38 0.85 -2.75 1.36 -4.32 l 2 -0.62 l -6.27 17.06 l 1.85 0.66 l 5 -10.14 l 2.66 4.59 l 0.51 5.73 l 2.18 -0.11 l -0.4 -6.75 l -2.89 -5.56 l 1.61 -3.92 c 0.58 0.43 1.14 1.07 1.76 1.51 l 3.77 2 l 0.8 -1.22 l -3.94 -2.81 l -3 -4.07 l -1.48 -0.61 l -6.11 3 l -1 5.54 z" />
</svg>
